M48
; DRILL file {KiCad (6.0.5)} date Sun Apr  2 11:03:23 2023
; FORMAT={-:-/ absolute / metric / decimal}
; #@! TF.CreationDate,2023-04-02T11:03:23+02:00
; #@! TF.GenerationSoftware,Kicad,Pcbnew,(6.0.5)
; #@! TF.FileFunction,Plated,1,2,PTH
FMAT,2
METRIC
; #@! TA.AperFunction,Plated,PTH,ViaDrill
T1C0.400
; #@! TA.AperFunction,Plated,PTH,ComponentDrill
T2C0.800
; #@! TA.AperFunction,Plated,PTH,ComponentDrill
T3C0.900
; #@! TA.AperFunction,Plated,PTH,ComponentDrill
T4C0.950
; #@! TA.AperFunction,Plated,PTH,ComponentDrill
T5C1.000
; #@! TA.AperFunction,Plated,PTH,ComponentDrill
T6C1.400
%
G90
G05
T1
X103.397Y-74.582
T2
X65.024Y-56.134
X65.024Y-58.674
X65.024Y-61.214
X65.024Y-63.754
X65.024Y-66.294
X65.024Y-68.834
X65.024Y-71.374
X65.024Y-73.914
X65.405Y-39.243
X65.405Y-43.053
X80.899Y-63.119
X80.899Y-66.929
X81.28Y-32.258
X81.28Y-34.798
X81.28Y-37.338
X81.28Y-39.878
X81.28Y-42.418
X81.28Y-44.958
X81.28Y-47.498
X81.28Y-50.038
X90.932Y-37.338
X90.932Y-39.878
X90.932Y-42.418
X90.932Y-44.958
X90.932Y-47.498
X90.932Y-50.038
X90.932Y-52.578
X90.932Y-55.118
X90.932Y-57.658
X90.932Y-60.198
X90.932Y-62.738
X90.932Y-65.278
X90.932Y-67.818
X90.932Y-70.358
X90.932Y-72.898
X116.332Y-37.338
X116.332Y-39.878
X116.332Y-42.418
X116.332Y-44.958
X116.332Y-47.498
X116.332Y-50.038
X116.332Y-52.578
X116.332Y-55.118
X116.332Y-57.658
X116.332Y-60.198
X116.332Y-62.738
X116.332Y-65.278
X116.332Y-67.818
X116.332Y-70.358
X116.332Y-72.898
X122.174Y-41.656
X122.174Y-51.816
X126.746Y-41.656
X126.746Y-51.816
T3
X38.285Y-27.215
X38.285Y-78.51
X59.46Y-27.215
X59.46Y-78.51
T4
X68.817Y-17.84
X68.817Y-20.34
X68.817Y-22.84
X68.817Y-25.34
X77.707Y-17.84
X77.707Y-20.34
X77.707Y-22.84
X77.707Y-25.34
X86.868Y-17.9
X86.868Y-20.4
X86.868Y-22.9
X86.868Y-25.4
X97.807Y-84.368
X97.807Y-86.868
X97.807Y-89.368
X100.601Y-18.328
X100.601Y-20.828
X100.601Y-23.328
X115.587Y-84.368
X115.587Y-86.868
X115.587Y-89.368
X125.239Y-56.936
X125.239Y-59.436
X125.239Y-61.936
T5
X59.177Y-88.646
X61.717Y-88.646
X86.106Y-83.312
X86.106Y-85.852
X86.106Y-88.392
X110.744Y-18.288
X113.244Y-18.288
X120.924Y-18.271
X123.424Y-18.271
T6
X46.736Y-85.129
X47.752Y-20.828
X51.816Y-85.129
X52.832Y-20.828
X70.104Y-85.129
X75.184Y-85.129
T0
M30
