M48
; DRILL file {KiCad (6.0.5)} date Thu Feb  8 20:36:01 2024
; FORMAT={-:-/ absolute / metric / decimal}
; #@! TF.CreationDate,2024-02-08T20:36:01+01:00
; #@! TF.GenerationSoftware,Kicad,Pcbnew,(6.0.5)
; #@! TF.FileFunction,Plated,1,2,PTH
FMAT,2
METRIC
; #@! TA.AperFunction,Plated,PTH,ComponentDrill
T1C0.800
; #@! TA.AperFunction,Plated,PTH,ComponentDrill
T2C0.800
; #@! TA.AperFunction,Plated,PTH,ComponentDrill
T3C0.900
; #@! TA.AperFunction,Plated,PTH,ComponentDrill
T4C0.950
; #@! TA.AperFunction,Plated,PTH,ComponentDrill
T5C1.000
; #@! TA.AperFunction,Plated,PTH,ComponentDrill
T6C1.100
; #@! TA.AperFunction,Plated,PTH,ComponentDrill
T7C1.300
; #@! TA.AperFunction,Plated,PTH,ComponentDrill
T8C1.501
; #@! TA.AperFunction,Plated,PTH,ComponentDrill
T9C1.520
; #@! TA.AperFunction,Plated,PTH,ComponentDrill
T10C1.524
; #@! TA.AperFunction,Plated,PTH,ComponentDrill
T11C3.200
%
G90
G05
T1
X97.282Y-74.676
X97.282Y-77.978
X97.282Y-81.28
X97.282Y-84.836
X104.902Y-74.676
X104.902Y-77.978
X104.902Y-81.28
X104.902Y-84.836
X113.538Y-94.234
X116.078Y-94.234
X118.618Y-94.234
X120.523Y-110.109
X121.158Y-94.234
X123.698Y-94.234
X124.333Y-110.109
X126.238Y-94.234
X128.778Y-94.234
X131.318Y-94.234
X133.096Y-81.026
X135.636Y-81.026
X138.176Y-81.026
X139.954Y-94.234
X140.081Y-65.151
X140.716Y-81.026
X142.494Y-94.234
X143.256Y-81.026
X143.891Y-65.151
X145.034Y-94.234
X145.796Y-81.026
X146.939Y-110.109
X147.574Y-94.234
X148.336Y-81.026
X150.114Y-94.234
X150.749Y-110.109
X150.876Y-81.026
X152.654Y-94.234
X155.194Y-94.234
X157.734Y-94.234
X168.91Y-94.488
X171.45Y-94.488
X173.99Y-94.488
X175.895Y-110.363
X176.53Y-94.488
X179.07Y-94.488
X179.705Y-110.363
X181.61Y-94.488
X184.15Y-94.488
X186.69Y-94.488
X191.262Y-103.632
X191.262Y-107.188
X191.262Y-110.744
X198.882Y-103.632
X198.882Y-107.188
X198.882Y-110.744
T2
X198.12Y-66.548
X200.66Y-66.548
T3
X87.879Y-88.138
X90.419Y-88.138
X110.49Y-84.97
X110.49Y-87.57
X110.49Y-90.17
X187.646Y-75.305
X190.246Y-75.305
X192.846Y-75.305
T4
X88.646Y-105.022
X88.646Y-107.522
X88.646Y-110.022
X88.646Y-112.522
T5
X88.629Y-94.762
X88.629Y-97.262
X125.476Y-64.77
X128.016Y-64.77
X186.202Y-66.531
X188.702Y-66.531
T6
X109.545Y-75.184
X109.545Y-80.264
X115.141Y-115.866
X115.141Y-120.946
X119.634Y-80.843
X122.174Y-80.843
X124.714Y-80.843
X141.631Y-115.866
X141.631Y-120.946
X170.617Y-116.078
X170.617Y-121.158
X187.96Y-81.788
X190.5Y-81.788
X193.04Y-81.788
X194.889Y-93.218
X194.889Y-98.298
T7
X117.348Y-73.914
X127.508Y-73.914
X160.528Y-88.9
X170.688Y-88.9
T8
X97.203Y-66.548
X119.205Y-66.548
X156.639Y-80.01
X178.641Y-80.01
T9
X120.546Y-117.898
X125.626Y-117.898
X147.036Y-117.644
X152.116Y-117.644
X158.242Y-67.818
X163.322Y-67.818
X171.45Y-67.818
X176.022Y-117.856
X176.53Y-67.818
X181.102Y-117.856
X205.232Y-83.82
X205.232Y-88.9
X205.232Y-96.52
X205.232Y-101.6
T10
X91.694Y-76.708
X91.694Y-81.788
T11
X88.55Y-120.78
X89.289Y-64.897
X108.204Y-66.548
X167.64Y-80.01
X209.169Y-64.897
X209.296Y-121.666
T0
M30
