M48
; DRILL file {KiCad (6.0.5)} date Tue May  2 09:08:13 2023
; FORMAT={-:-/ absolute / metric / decimal}
; #@! TF.CreationDate,2023-05-02T09:08:13+02:00
; #@! TF.GenerationSoftware,Kicad,Pcbnew,(6.0.5)
; #@! TF.FileFunction,Plated,1,2,PTH
FMAT,2
METRIC
; #@! TA.AperFunction,Plated,PTH,ViaDrill
T1C0.400
; #@! TA.AperFunction,Plated,PTH,ComponentDrill
T2C0.800
; #@! TA.AperFunction,Plated,PTH,ComponentDrill
T3C0.800
; #@! TA.AperFunction,Plated,PTH,ComponentDrill
T4C0.900
; #@! TA.AperFunction,Plated,PTH,ComponentDrill
T5C0.950
; #@! TA.AperFunction,Plated,PTH,ComponentDrill
T6C1.000
; #@! TA.AperFunction,Plated,PTH,ComponentDrill
T7C1.100
; #@! TA.AperFunction,Plated,PTH,ComponentDrill
T8C1.501
; #@! TA.AperFunction,Plated,PTH,ComponentDrill
T9C1.520
; #@! TA.AperFunction,Plated,PTH,ComponentDrill
T10C1.524
; #@! TA.AperFunction,Plated,PTH,ComponentDrill
T11C3.200
%
G90
G05
T1
X179.957Y-92.692
X188.894Y-95.806
T2
X97.028Y-76.962
X97.028Y-80.264
X97.028Y-83.82
X99.5Y-94.62
X102.04Y-94.62
X104.58Y-94.62
X104.648Y-76.962
X104.648Y-80.264
X104.648Y-83.82
X106.485Y-110.495
X107.12Y-94.62
X109.66Y-94.62
X110.295Y-110.495
X112.2Y-94.62
X114.74Y-94.62
X117.28Y-94.62
X122.67Y-94.7
X125.21Y-94.7
X127.254Y-78.232
X127.254Y-85.852
X127.75Y-94.7
X129.655Y-110.575
X130.29Y-94.7
X131.826Y-81.026
X132.83Y-94.7
X133.465Y-110.575
X134.366Y-81.026
X135.37Y-94.7
X136.906Y-81.026
X137.91Y-94.7
X138.811Y-65.151
X139.446Y-81.026
X140.45Y-94.7
X141.986Y-81.026
X142.621Y-65.151
X144.526Y-81.026
X145.9Y-94.7
X147.066Y-81.026
X148.44Y-94.7
X149.606Y-81.026
X150.98Y-94.7
X152.885Y-110.575
X153.52Y-94.7
X156.06Y-94.7
X156.695Y-110.575
X158.6Y-94.7
X161.14Y-94.7
X163.68Y-94.7
X168.94Y-94.7
X171.48Y-94.7
X174.02Y-94.7
X175.925Y-110.575
X176.56Y-94.7
X179.1Y-94.7
X179.735Y-110.575
X181.64Y-94.7
X184.18Y-94.7
X186.72Y-94.7
X191.97Y-94.7
X192.024Y-78.994
X192.024Y-82.55
X192.024Y-86.106
X194.51Y-94.7
X197.05Y-94.7
X198.955Y-110.575
X199.59Y-94.7
X199.644Y-78.994
X199.644Y-82.55
X199.644Y-86.106
X202.13Y-94.7
X202.765Y-110.575
X204.67Y-94.7
X207.21Y-94.7
X209.75Y-94.7
T3
X198.12Y-65.024
X198.12Y-67.564
T4
X88.895Y-82.296
X91.435Y-82.296
X111.192Y-87.255
X113.792Y-87.255
X116.392Y-87.255
X193.742Y-74.035
X196.342Y-74.035
X198.942Y-74.035
T5
X88.629Y-99.26
X88.629Y-101.76
X88.629Y-104.26
X88.629Y-106.76
X88.629Y-109.26
X88.629Y-111.76
T6
X88.629Y-88.412
X88.629Y-90.912
X125.73Y-68.077
X125.73Y-70.617
X186.202Y-66.531
X188.702Y-66.531
T7
X110.49Y-75.184
X110.744Y-80.772
X115.824Y-80.772
X120.65Y-75.184
X122.865Y-82.042
X122.865Y-84.582
X122.865Y-87.122
X136.652Y-85.923
X141.732Y-85.923
X162.56Y-85.852
X172.72Y-85.852
X185.237Y-74.422
X185.237Y-76.962
X185.237Y-79.502
T8
X98.473Y-67.056
X120.475Y-67.056
X156.639Y-78.232
X178.641Y-78.232
T9
X106.45Y-118.618
X111.53Y-118.618
X129.54Y-118.364
X134.62Y-118.364
X152.908Y-118.364
X157.988Y-118.364
X158.242Y-67.818
X163.322Y-67.818
X171.45Y-67.818
X176.022Y-118.11
X176.53Y-67.818
X181.102Y-118.11
X196.85Y-118.11
X201.93Y-118.11
X206.248Y-70.866
X206.248Y-75.946
X206.248Y-83.058
X206.248Y-88.138
T10
X91.44Y-70.866
X91.44Y-75.946
T11
X88.55Y-120.78
X89.289Y-64.897
X109.474Y-67.056
X167.64Y-78.232
X209.169Y-64.897
X209.296Y-121.666
T0
M30
