G04 #@! TF.GenerationSoftware,KiCad,Pcbnew,(6.0.5)*
G04 #@! TF.CreationDate,2023-12-06T19:00:39+01:00*
G04 #@! TF.ProjectId,charge_pcb,63686172-6765-45f7-9063-622e6b696361,rev?*
G04 #@! TF.SameCoordinates,Original*
G04 #@! TF.FileFunction,Legend,Bot*
G04 #@! TF.FilePolarity,Positive*
%FSLAX46Y46*%
G04 Gerber Fmt 4.6, Leading zero omitted, Abs format (unit mm)*
G04 Created by KiCad (PCBNEW (6.0.5)) date 2023-12-06 19:00:39*
%MOMM*%
%LPD*%
G01*
G04 APERTURE LIST*
G04 Aperture macros list*
%AMRoundRect*
0 Rectangle with rounded corners*
0 $1 Rounding radius*
0 $2 $3 $4 $5 $6 $7 $8 $9 X,Y pos of 4 corners*
0 Add a 4 corners polygon primitive as box body*
4,1,4,$2,$3,$4,$5,$6,$7,$8,$9,$2,$3,0*
0 Add four circle primitives for the rounded corners*
1,1,$1+$1,$2,$3*
1,1,$1+$1,$4,$5*
1,1,$1+$1,$6,$7*
1,1,$1+$1,$8,$9*
0 Add four rect primitives between the rounded corners*
20,1,$1+$1,$2,$3,$4,$5,0*
20,1,$1+$1,$4,$5,$6,$7,0*
20,1,$1+$1,$6,$7,$8,$9,0*
20,1,$1+$1,$8,$9,$2,$3,0*%
G04 Aperture macros list end*
%ADD10C,0.100000*%
%ADD11C,0.150000*%
%ADD12C,0.300000*%
%ADD13C,0.400000*%
%ADD14C,0.010000*%
%ADD15R,2.540000X2.540000*%
%ADD16C,2.540000*%
%ADD17C,1.501140*%
%ADD18R,2.000000X2.000000*%
%ADD19O,2.000000X2.000000*%
%ADD20C,2.000000*%
%ADD21R,3.000000X3.000000*%
%ADD22C,3.000000*%
%ADD23R,1.500000X1.500000*%
%ADD24C,1.500000*%
%ADD25C,1.600000*%
%ADD26O,1.600000X1.600000*%
%ADD27C,5.600000*%
%ADD28C,3.600000*%
%ADD29R,1.905000X2.000000*%
%ADD30O,1.905000X2.000000*%
%ADD31RoundRect,0.250000X0.725000X-0.600000X0.725000X0.600000X-0.725000X0.600000X-0.725000X-0.600000X0*%
%ADD32O,1.950000X1.700000*%
%ADD33RoundRect,0.250000X0.750000X-0.600000X0.750000X0.600000X-0.750000X0.600000X-0.750000X-0.600000X0*%
%ADD34O,2.000000X1.700000*%
%ADD35RoundRect,0.250000X-0.600000X-0.750000X0.600000X-0.750000X0.600000X0.750000X-0.600000X0.750000X0*%
%ADD36O,1.700000X2.000000*%
%ADD37R,1.800000X2.000000*%
%ADD38O,1.800000X2.000000*%
%ADD39O,3.000000X3.000000*%
%ADD40R,1.700000X1.700000*%
%ADD41O,1.700000X1.700000*%
%ADD42R,1.800000X1.800000*%
%ADD43C,1.800000*%
%ADD44R,2.200000X2.200000*%
%ADD45O,2.200000X2.200000*%
G04 APERTURE END LIST*
D10*
D11*
X177002200Y-166007200D02*
X177002200Y-198007200D01*
X285002200Y-198007200D01*
X285002200Y-166007200D01*
X177002200Y-166007200D01*
D10*
D11*
X10000000Y-10000000D02*
X10000000Y-200007200D01*
X287002200Y-200007200D01*
X287002200Y-10000000D01*
X10000000Y-10000000D01*
D10*
D11*
X12000000Y-12000000D02*
X12000000Y-198007200D01*
X285002200Y-198007200D01*
X285002200Y-12000000D01*
X12000000Y-12000000D01*
D10*
D11*
X60000000Y-12000000D02*
X60000000Y-10000000D01*
D10*
D11*
X110000000Y-12000000D02*
X110000000Y-10000000D01*
D10*
D11*
X160000000Y-12000000D02*
X160000000Y-10000000D01*
D10*
D11*
X210000000Y-12000000D02*
X210000000Y-10000000D01*
D10*
D11*
X260000000Y-12000000D02*
X260000000Y-10000000D01*
D10*
D11*
X36065476Y-11588095D02*
X35322619Y-11588095D01*
X35694047Y-11588095D02*
X35694047Y-10288095D01*
X35570238Y-10473809D01*
X35446428Y-10597619D01*
X35322619Y-10659523D01*
D10*
D11*
X85322619Y-10411904D02*
X85384523Y-10350000D01*
X85508333Y-10288095D01*
X85817857Y-10288095D01*
X85941666Y-10350000D01*
X86003571Y-10411904D01*
X86065476Y-10535714D01*
X86065476Y-10659523D01*
X86003571Y-10845238D01*
X85260714Y-11588095D01*
X86065476Y-11588095D01*
D10*
D11*
X135260714Y-10288095D02*
X136065476Y-10288095D01*
X135632142Y-10783333D01*
X135817857Y-10783333D01*
X135941666Y-10845238D01*
X136003571Y-10907142D01*
X136065476Y-11030952D01*
X136065476Y-11340476D01*
X136003571Y-11464285D01*
X135941666Y-11526190D01*
X135817857Y-11588095D01*
X135446428Y-11588095D01*
X135322619Y-11526190D01*
X135260714Y-11464285D01*
D10*
D11*
X185941666Y-10721428D02*
X185941666Y-11588095D01*
X185632142Y-10226190D02*
X185322619Y-11154761D01*
X186127380Y-11154761D01*
D10*
D11*
X236003571Y-10288095D02*
X235384523Y-10288095D01*
X235322619Y-10907142D01*
X235384523Y-10845238D01*
X235508333Y-10783333D01*
X235817857Y-10783333D01*
X235941666Y-10845238D01*
X236003571Y-10907142D01*
X236065476Y-11030952D01*
X236065476Y-11340476D01*
X236003571Y-11464285D01*
X235941666Y-11526190D01*
X235817857Y-11588095D01*
X235508333Y-11588095D01*
X235384523Y-11526190D01*
X235322619Y-11464285D01*
D10*
D11*
X285941666Y-10288095D02*
X285694047Y-10288095D01*
X285570238Y-10350000D01*
X285508333Y-10411904D01*
X285384523Y-10597619D01*
X285322619Y-10845238D01*
X285322619Y-11340476D01*
X285384523Y-11464285D01*
X285446428Y-11526190D01*
X285570238Y-11588095D01*
X285817857Y-11588095D01*
X285941666Y-11526190D01*
X286003571Y-11464285D01*
X286065476Y-11340476D01*
X286065476Y-11030952D01*
X286003571Y-10907142D01*
X285941666Y-10845238D01*
X285817857Y-10783333D01*
X285570238Y-10783333D01*
X285446428Y-10845238D01*
X285384523Y-10907142D01*
X285322619Y-11030952D01*
D10*
D11*
X60000000Y-198007200D02*
X60000000Y-200007200D01*
D10*
D11*
X110000000Y-198007200D02*
X110000000Y-200007200D01*
D10*
D11*
X160000000Y-198007200D02*
X160000000Y-200007200D01*
D10*
D11*
X210000000Y-198007200D02*
X210000000Y-200007200D01*
D10*
D11*
X260000000Y-198007200D02*
X260000000Y-200007200D01*
D10*
D11*
X36065476Y-199595295D02*
X35322619Y-199595295D01*
X35694047Y-199595295D02*
X35694047Y-198295295D01*
X35570238Y-198481009D01*
X35446428Y-198604819D01*
X35322619Y-198666723D01*
D10*
D11*
X85322619Y-198419104D02*
X85384523Y-198357200D01*
X85508333Y-198295295D01*
X85817857Y-198295295D01*
X85941666Y-198357200D01*
X86003571Y-198419104D01*
X86065476Y-198542914D01*
X86065476Y-198666723D01*
X86003571Y-198852438D01*
X85260714Y-199595295D01*
X86065476Y-199595295D01*
D10*
D11*
X135260714Y-198295295D02*
X136065476Y-198295295D01*
X135632142Y-198790533D01*
X135817857Y-198790533D01*
X135941666Y-198852438D01*
X136003571Y-198914342D01*
X136065476Y-199038152D01*
X136065476Y-199347676D01*
X136003571Y-199471485D01*
X135941666Y-199533390D01*
X135817857Y-199595295D01*
X135446428Y-199595295D01*
X135322619Y-199533390D01*
X135260714Y-199471485D01*
D10*
D11*
X185941666Y-198728628D02*
X185941666Y-199595295D01*
X185632142Y-198233390D02*
X185322619Y-199161961D01*
X186127380Y-199161961D01*
D10*
D11*
X236003571Y-198295295D02*
X235384523Y-198295295D01*
X235322619Y-198914342D01*
X235384523Y-198852438D01*
X235508333Y-198790533D01*
X235817857Y-198790533D01*
X235941666Y-198852438D01*
X236003571Y-198914342D01*
X236065476Y-199038152D01*
X236065476Y-199347676D01*
X236003571Y-199471485D01*
X235941666Y-199533390D01*
X235817857Y-199595295D01*
X235508333Y-199595295D01*
X235384523Y-199533390D01*
X235322619Y-199471485D01*
D10*
D11*
X285941666Y-198295295D02*
X285694047Y-198295295D01*
X285570238Y-198357200D01*
X285508333Y-198419104D01*
X285384523Y-198604819D01*
X285322619Y-198852438D01*
X285322619Y-199347676D01*
X285384523Y-199471485D01*
X285446428Y-199533390D01*
X285570238Y-199595295D01*
X285817857Y-199595295D01*
X285941666Y-199533390D01*
X286003571Y-199471485D01*
X286065476Y-199347676D01*
X286065476Y-199038152D01*
X286003571Y-198914342D01*
X285941666Y-198852438D01*
X285817857Y-198790533D01*
X285570238Y-198790533D01*
X285446428Y-198852438D01*
X285384523Y-198914342D01*
X285322619Y-199038152D01*
D10*
D11*
X10000000Y-60000000D02*
X12000000Y-60000000D01*
D10*
D11*
X10000000Y-110000000D02*
X12000000Y-110000000D01*
D10*
D11*
X10000000Y-160000000D02*
X12000000Y-160000000D01*
D10*
D11*
X10690476Y-35216666D02*
X11309523Y-35216666D01*
X10566666Y-35588095D02*
X11000000Y-34288095D01*
X11433333Y-35588095D01*
D10*
D11*
X11092857Y-84907142D02*
X11278571Y-84969047D01*
X11340476Y-85030952D01*
X11402380Y-85154761D01*
X11402380Y-85340476D01*
X11340476Y-85464285D01*
X11278571Y-85526190D01*
X11154761Y-85588095D01*
X10659523Y-85588095D01*
X10659523Y-84288095D01*
X11092857Y-84288095D01*
X11216666Y-84350000D01*
X11278571Y-84411904D01*
X11340476Y-84535714D01*
X11340476Y-84659523D01*
X11278571Y-84783333D01*
X11216666Y-84845238D01*
X11092857Y-84907142D01*
X10659523Y-84907142D01*
D10*
D11*
X11402380Y-135464285D02*
X11340476Y-135526190D01*
X11154761Y-135588095D01*
X11030952Y-135588095D01*
X10845238Y-135526190D01*
X10721428Y-135402380D01*
X10659523Y-135278571D01*
X10597619Y-135030952D01*
X10597619Y-134845238D01*
X10659523Y-134597619D01*
X10721428Y-134473809D01*
X10845238Y-134350000D01*
X11030952Y-134288095D01*
X11154761Y-134288095D01*
X11340476Y-134350000D01*
X11402380Y-134411904D01*
D10*
D11*
X10659523Y-185588095D02*
X10659523Y-184288095D01*
X10969047Y-184288095D01*
X11154761Y-184350000D01*
X11278571Y-184473809D01*
X11340476Y-184597619D01*
X11402380Y-184845238D01*
X11402380Y-185030952D01*
X11340476Y-185278571D01*
X11278571Y-185402380D01*
X11154761Y-185526190D01*
X10969047Y-185588095D01*
X10659523Y-185588095D01*
D10*
D11*
X287002200Y-60000000D02*
X285002200Y-60000000D01*
D10*
D11*
X287002200Y-110000000D02*
X285002200Y-110000000D01*
D10*
D11*
X287002200Y-160000000D02*
X285002200Y-160000000D01*
D10*
D11*
X285692676Y-35216666D02*
X286311723Y-35216666D01*
X285568866Y-35588095D02*
X286002200Y-34288095D01*
X286435533Y-35588095D01*
D10*
D11*
X286095057Y-84907142D02*
X286280771Y-84969047D01*
X286342676Y-85030952D01*
X286404580Y-85154761D01*
X286404580Y-85340476D01*
X286342676Y-85464285D01*
X286280771Y-85526190D01*
X286156961Y-85588095D01*
X285661723Y-85588095D01*
X285661723Y-84288095D01*
X286095057Y-84288095D01*
X286218866Y-84350000D01*
X286280771Y-84411904D01*
X286342676Y-84535714D01*
X286342676Y-84659523D01*
X286280771Y-84783333D01*
X286218866Y-84845238D01*
X286095057Y-84907142D01*
X285661723Y-84907142D01*
D10*
D11*
X286404580Y-135464285D02*
X286342676Y-135526190D01*
X286156961Y-135588095D01*
X286033152Y-135588095D01*
X285847438Y-135526190D01*
X285723628Y-135402380D01*
X285661723Y-135278571D01*
X285599819Y-135030952D01*
X285599819Y-134845238D01*
X285661723Y-134597619D01*
X285723628Y-134473809D01*
X285847438Y-134350000D01*
X286033152Y-134288095D01*
X286156961Y-134288095D01*
X286342676Y-134350000D01*
X286404580Y-134411904D01*
D10*
D11*
X285661723Y-185588095D02*
X285661723Y-184288095D01*
X285971247Y-184288095D01*
X286156961Y-184350000D01*
X286280771Y-184473809D01*
X286342676Y-184597619D01*
X286404580Y-184845238D01*
X286404580Y-185030952D01*
X286342676Y-185278571D01*
X286280771Y-185402380D01*
X286156961Y-185526190D01*
X285971247Y-185588095D01*
X285661723Y-185588095D01*
D10*
D11*
X200434342Y-193785771D02*
X200434342Y-192285771D01*
X200791485Y-192285771D01*
X201005771Y-192357200D01*
X201148628Y-192500057D01*
X201220057Y-192642914D01*
X201291485Y-192928628D01*
X201291485Y-193142914D01*
X201220057Y-193428628D01*
X201148628Y-193571485D01*
X201005771Y-193714342D01*
X200791485Y-193785771D01*
X200434342Y-193785771D01*
X202577200Y-193785771D02*
X202577200Y-193000057D01*
X202505771Y-192857200D01*
X202362914Y-192785771D01*
X202077200Y-192785771D01*
X201934342Y-192857200D01*
X202577200Y-193714342D02*
X202434342Y-193785771D01*
X202077200Y-193785771D01*
X201934342Y-193714342D01*
X201862914Y-193571485D01*
X201862914Y-193428628D01*
X201934342Y-193285771D01*
X202077200Y-193214342D01*
X202434342Y-193214342D01*
X202577200Y-193142914D01*
X203077200Y-192785771D02*
X203648628Y-192785771D01*
X203291485Y-192285771D02*
X203291485Y-193571485D01*
X203362914Y-193714342D01*
X203505771Y-193785771D01*
X203648628Y-193785771D01*
X204720057Y-193714342D02*
X204577200Y-193785771D01*
X204291485Y-193785771D01*
X204148628Y-193714342D01*
X204077200Y-193571485D01*
X204077200Y-193000057D01*
X204148628Y-192857200D01*
X204291485Y-192785771D01*
X204577200Y-192785771D01*
X204720057Y-192857200D01*
X204791485Y-193000057D01*
X204791485Y-193142914D01*
X204077200Y-193285771D01*
X205434342Y-193642914D02*
X205505771Y-193714342D01*
X205434342Y-193785771D01*
X205362914Y-193714342D01*
X205434342Y-193642914D01*
X205434342Y-193785771D01*
X205434342Y-192857200D02*
X205505771Y-192928628D01*
X205434342Y-193000057D01*
X205362914Y-192928628D01*
X205434342Y-192857200D01*
X205434342Y-193000057D01*
D10*
D11*
X177002200Y-194507200D02*
X285002200Y-194507200D01*
D10*
D11*
X178434342Y-196585771D02*
X178434342Y-195085771D01*
X179291485Y-196585771D02*
X178648628Y-195728628D01*
X179291485Y-195085771D02*
X178434342Y-195942914D01*
X179934342Y-196585771D02*
X179934342Y-195585771D01*
X179934342Y-195085771D02*
X179862914Y-195157200D01*
X179934342Y-195228628D01*
X180005771Y-195157200D01*
X179934342Y-195085771D01*
X179934342Y-195228628D01*
X181505771Y-196442914D02*
X181434342Y-196514342D01*
X181220057Y-196585771D01*
X181077200Y-196585771D01*
X180862914Y-196514342D01*
X180720057Y-196371485D01*
X180648628Y-196228628D01*
X180577200Y-195942914D01*
X180577200Y-195728628D01*
X180648628Y-195442914D01*
X180720057Y-195300057D01*
X180862914Y-195157200D01*
X181077200Y-195085771D01*
X181220057Y-195085771D01*
X181434342Y-195157200D01*
X181505771Y-195228628D01*
X182791485Y-196585771D02*
X182791485Y-195800057D01*
X182720057Y-195657200D01*
X182577200Y-195585771D01*
X182291485Y-195585771D01*
X182148628Y-195657200D01*
X182791485Y-196514342D02*
X182648628Y-196585771D01*
X182291485Y-196585771D01*
X182148628Y-196514342D01*
X182077200Y-196371485D01*
X182077200Y-196228628D01*
X182148628Y-196085771D01*
X182291485Y-196014342D01*
X182648628Y-196014342D01*
X182791485Y-195942914D01*
X184148628Y-196585771D02*
X184148628Y-195085771D01*
X184148628Y-196514342D02*
X184005771Y-196585771D01*
X183720057Y-196585771D01*
X183577200Y-196514342D01*
X183505771Y-196442914D01*
X183434342Y-196300057D01*
X183434342Y-195871485D01*
X183505771Y-195728628D01*
X183577200Y-195657200D01*
X183720057Y-195585771D01*
X184005771Y-195585771D01*
X184148628Y-195657200D01*
X186005771Y-195800057D02*
X186505771Y-195800057D01*
X186720057Y-196585771D02*
X186005771Y-196585771D01*
X186005771Y-195085771D01*
X186720057Y-195085771D01*
X187362914Y-196442914D02*
X187434342Y-196514342D01*
X187362914Y-196585771D01*
X187291485Y-196514342D01*
X187362914Y-196442914D01*
X187362914Y-196585771D01*
X188077200Y-196585771D02*
X188077200Y-195085771D01*
X188434342Y-195085771D01*
X188648628Y-195157200D01*
X188791485Y-195300057D01*
X188862914Y-195442914D01*
X188934342Y-195728628D01*
X188934342Y-195942914D01*
X188862914Y-196228628D01*
X188791485Y-196371485D01*
X188648628Y-196514342D01*
X188434342Y-196585771D01*
X188077200Y-196585771D01*
X189577200Y-196442914D02*
X189648628Y-196514342D01*
X189577200Y-196585771D01*
X189505771Y-196514342D01*
X189577200Y-196442914D01*
X189577200Y-196585771D01*
X190220057Y-196157200D02*
X190934342Y-196157200D01*
X190077200Y-196585771D02*
X190577200Y-195085771D01*
X191077200Y-196585771D01*
X191577200Y-196442914D02*
X191648628Y-196514342D01*
X191577200Y-196585771D01*
X191505771Y-196514342D01*
X191577200Y-196442914D01*
X191577200Y-196585771D01*
X194577200Y-196585771D02*
X194577200Y-195085771D01*
X194720057Y-196014342D02*
X195148628Y-196585771D01*
X195148628Y-195585771D02*
X194577200Y-196157200D01*
X195791485Y-196585771D02*
X195791485Y-195585771D01*
X195791485Y-195085771D02*
X195720057Y-195157200D01*
X195791485Y-195228628D01*
X195862914Y-195157200D01*
X195791485Y-195085771D01*
X195791485Y-195228628D01*
X197148628Y-196514342D02*
X197005771Y-196585771D01*
X196720057Y-196585771D01*
X196577200Y-196514342D01*
X196505771Y-196442914D01*
X196434342Y-196300057D01*
X196434342Y-195871485D01*
X196505771Y-195728628D01*
X196577200Y-195657200D01*
X196720057Y-195585771D01*
X197005771Y-195585771D01*
X197148628Y-195657200D01*
X198434342Y-196585771D02*
X198434342Y-195800057D01*
X198362914Y-195657200D01*
X198220057Y-195585771D01*
X197934342Y-195585771D01*
X197791485Y-195657200D01*
X198434342Y-196514342D02*
X198291485Y-196585771D01*
X197934342Y-196585771D01*
X197791485Y-196514342D01*
X197720057Y-196371485D01*
X197720057Y-196228628D01*
X197791485Y-196085771D01*
X197934342Y-196014342D01*
X198291485Y-196014342D01*
X198434342Y-195942914D01*
X199791485Y-196585771D02*
X199791485Y-195085771D01*
X199791485Y-196514342D02*
X199648628Y-196585771D01*
X199362914Y-196585771D01*
X199220057Y-196514342D01*
X199148628Y-196442914D01*
X199077200Y-196300057D01*
X199077200Y-195871485D01*
X199148628Y-195728628D01*
X199220057Y-195657200D01*
X199362914Y-195585771D01*
X199648628Y-195585771D01*
X199791485Y-195657200D01*
X202077200Y-197157200D02*
X202005771Y-197085771D01*
X201862914Y-196871485D01*
X201791485Y-196728628D01*
X201720057Y-196514342D01*
X201648628Y-196157200D01*
X201648628Y-195871485D01*
X201720057Y-195514342D01*
X201791485Y-195300057D01*
X201862914Y-195157200D01*
X202005771Y-194942914D01*
X202077200Y-194871485D01*
X203291485Y-195085771D02*
X203005771Y-195085771D01*
X202862914Y-195157200D01*
X202791485Y-195228628D01*
X202648628Y-195442914D01*
X202577200Y-195728628D01*
X202577200Y-196300057D01*
X202648628Y-196442914D01*
X202720057Y-196514342D01*
X202862914Y-196585771D01*
X203148628Y-196585771D01*
X203291485Y-196514342D01*
X203362914Y-196442914D01*
X203434342Y-196300057D01*
X203434342Y-195942914D01*
X203362914Y-195800057D01*
X203291485Y-195728628D01*
X203148628Y-195657200D01*
X202862914Y-195657200D01*
X202720057Y-195728628D01*
X202648628Y-195800057D01*
X202577200Y-195942914D01*
X204077200Y-196442914D02*
X204148628Y-196514342D01*
X204077200Y-196585771D01*
X204005771Y-196514342D01*
X204077200Y-196442914D01*
X204077200Y-196585771D01*
X205077200Y-195085771D02*
X205220057Y-195085771D01*
X205362914Y-195157200D01*
X205434342Y-195228628D01*
X205505771Y-195371485D01*
X205577200Y-195657200D01*
X205577200Y-196014342D01*
X205505771Y-196300057D01*
X205434342Y-196442914D01*
X205362914Y-196514342D01*
X205220057Y-196585771D01*
X205077200Y-196585771D01*
X204934342Y-196514342D01*
X204862914Y-196442914D01*
X204791485Y-196300057D01*
X204720057Y-196014342D01*
X204720057Y-195657200D01*
X204791485Y-195371485D01*
X204862914Y-195228628D01*
X204934342Y-195157200D01*
X205077200Y-195085771D01*
X206220057Y-196442914D02*
X206291485Y-196514342D01*
X206220057Y-196585771D01*
X206148628Y-196514342D01*
X206220057Y-196442914D01*
X206220057Y-196585771D01*
X207648628Y-195085771D02*
X206934342Y-195085771D01*
X206862914Y-195800057D01*
X206934342Y-195728628D01*
X207077200Y-195657200D01*
X207434342Y-195657200D01*
X207577200Y-195728628D01*
X207648628Y-195800057D01*
X207720057Y-195942914D01*
X207720057Y-196300057D01*
X207648628Y-196442914D01*
X207577200Y-196514342D01*
X207434342Y-196585771D01*
X207077200Y-196585771D01*
X206934342Y-196514342D01*
X206862914Y-196442914D01*
X208220057Y-197157200D02*
X208291485Y-197085771D01*
X208434342Y-196871485D01*
X208505771Y-196728628D01*
X208577200Y-196514342D01*
X208648628Y-196157200D01*
X208648628Y-195871485D01*
X208577200Y-195514342D01*
X208505771Y-195300057D01*
X208434342Y-195157200D01*
X208291485Y-194942914D01*
X208220057Y-194871485D01*
D10*
D11*
X177002200Y-191507200D02*
X285002200Y-191507200D01*
D10*
D12*
X264411485Y-193785771D02*
X263911485Y-193071485D01*
X263554342Y-193785771D02*
X263554342Y-192285771D01*
X264125771Y-192285771D01*
X264268628Y-192357200D01*
X264340057Y-192428628D01*
X264411485Y-192571485D01*
X264411485Y-192785771D01*
X264340057Y-192928628D01*
X264268628Y-193000057D01*
X264125771Y-193071485D01*
X263554342Y-193071485D01*
X265625771Y-193714342D02*
X265482914Y-193785771D01*
X265197200Y-193785771D01*
X265054342Y-193714342D01*
X264982914Y-193571485D01*
X264982914Y-193000057D01*
X265054342Y-192857200D01*
X265197200Y-192785771D01*
X265482914Y-192785771D01*
X265625771Y-192857200D01*
X265697200Y-193000057D01*
X265697200Y-193142914D01*
X264982914Y-193285771D01*
X266197200Y-192785771D02*
X266554342Y-193785771D01*
X266911485Y-192785771D01*
X267482914Y-193642914D02*
X267554342Y-193714342D01*
X267482914Y-193785771D01*
X267411485Y-193714342D01*
X267482914Y-193642914D01*
X267482914Y-193785771D01*
X267482914Y-192857200D02*
X267554342Y-192928628D01*
X267482914Y-193000057D01*
X267411485Y-192928628D01*
X267482914Y-192857200D01*
X267482914Y-193000057D01*
D10*
D11*
X178362914Y-193714342D02*
X178577200Y-193785771D01*
X178934342Y-193785771D01*
X179077200Y-193714342D01*
X179148628Y-193642914D01*
X179220057Y-193500057D01*
X179220057Y-193357200D01*
X179148628Y-193214342D01*
X179077200Y-193142914D01*
X178934342Y-193071485D01*
X178648628Y-193000057D01*
X178505771Y-192928628D01*
X178434342Y-192857200D01*
X178362914Y-192714342D01*
X178362914Y-192571485D01*
X178434342Y-192428628D01*
X178505771Y-192357200D01*
X178648628Y-192285771D01*
X179005771Y-192285771D01*
X179220057Y-192357200D01*
X179862914Y-193785771D02*
X179862914Y-192785771D01*
X179862914Y-192285771D02*
X179791485Y-192357200D01*
X179862914Y-192428628D01*
X179934342Y-192357200D01*
X179862914Y-192285771D01*
X179862914Y-192428628D01*
X180434342Y-192785771D02*
X181220057Y-192785771D01*
X180434342Y-193785771D01*
X181220057Y-193785771D01*
X182362914Y-193714342D02*
X182220057Y-193785771D01*
X181934342Y-193785771D01*
X181791485Y-193714342D01*
X181720057Y-193571485D01*
X181720057Y-193000057D01*
X181791485Y-192857200D01*
X181934342Y-192785771D01*
X182220057Y-192785771D01*
X182362914Y-192857200D01*
X182434342Y-193000057D01*
X182434342Y-193142914D01*
X181720057Y-193285771D01*
X183077200Y-193642914D02*
X183148628Y-193714342D01*
X183077200Y-193785771D01*
X183005771Y-193714342D01*
X183077200Y-193642914D01*
X183077200Y-193785771D01*
X183077200Y-192857200D02*
X183148628Y-192928628D01*
X183077200Y-193000057D01*
X183005771Y-192928628D01*
X183077200Y-192857200D01*
X183077200Y-193000057D01*
X184862914Y-193357200D02*
X185577200Y-193357200D01*
X184720057Y-193785771D02*
X185220057Y-192285771D01*
X185720057Y-193785771D01*
X186862914Y-192785771D02*
X186862914Y-193785771D01*
X186505771Y-192214342D02*
X186148628Y-193285771D01*
X187077200Y-193285771D01*
D10*
D11*
X263434342Y-196585771D02*
X263434342Y-195085771D01*
X264791485Y-196585771D02*
X264791485Y-195085771D01*
X264791485Y-196514342D02*
X264648628Y-196585771D01*
X264362914Y-196585771D01*
X264220057Y-196514342D01*
X264148628Y-196442914D01*
X264077200Y-196300057D01*
X264077200Y-195871485D01*
X264148628Y-195728628D01*
X264220057Y-195657200D01*
X264362914Y-195585771D01*
X264648628Y-195585771D01*
X264791485Y-195657200D01*
X265505771Y-196442914D02*
X265577200Y-196514342D01*
X265505771Y-196585771D01*
X265434342Y-196514342D01*
X265505771Y-196442914D01*
X265505771Y-196585771D01*
X265505771Y-195657200D02*
X265577200Y-195728628D01*
X265505771Y-195800057D01*
X265434342Y-195728628D01*
X265505771Y-195657200D01*
X265505771Y-195800057D01*
X268148628Y-196585771D02*
X267291485Y-196585771D01*
X267720057Y-196585771D02*
X267720057Y-195085771D01*
X267577200Y-195300057D01*
X267434342Y-195442914D01*
X267291485Y-195514342D01*
X269862914Y-195014342D02*
X268577200Y-196942914D01*
X271148628Y-196585771D02*
X270291485Y-196585771D01*
X270720057Y-196585771D02*
X270720057Y-195085771D01*
X270577200Y-195300057D01*
X270434342Y-195442914D01*
X270291485Y-195514342D01*
D10*
D11*
X177002200Y-187507200D02*
X285002200Y-187507200D01*
D10*
D13*
X178714580Y-188211961D02*
X179857438Y-188211961D01*
X179036009Y-190211961D02*
X179286009Y-188211961D01*
X180274104Y-190211961D02*
X180440771Y-188878628D01*
X180524104Y-188211961D02*
X180416961Y-188307200D01*
X180500295Y-188402438D01*
X180607438Y-188307200D01*
X180524104Y-188211961D01*
X180500295Y-188402438D01*
X181107438Y-188878628D02*
X181869342Y-188878628D01*
X181476485Y-188211961D02*
X181262200Y-189926247D01*
X181333628Y-190116723D01*
X181512200Y-190211961D01*
X181702676Y-190211961D01*
X182655057Y-190211961D02*
X182476485Y-190116723D01*
X182405057Y-189926247D01*
X182619342Y-188211961D01*
X184190771Y-190116723D02*
X183988390Y-190211961D01*
X183607438Y-190211961D01*
X183428866Y-190116723D01*
X183357438Y-189926247D01*
X183452676Y-189164342D01*
X183571723Y-188973866D01*
X183774104Y-188878628D01*
X184155057Y-188878628D01*
X184333628Y-188973866D01*
X184405057Y-189164342D01*
X184381247Y-189354819D01*
X183405057Y-189545295D01*
X185155057Y-190021485D02*
X185238390Y-190116723D01*
X185131247Y-190211961D01*
X185047914Y-190116723D01*
X185155057Y-190021485D01*
X185131247Y-190211961D01*
X185286009Y-188973866D02*
X185369342Y-189069104D01*
X185262200Y-189164342D01*
X185178866Y-189069104D01*
X185286009Y-188973866D01*
X185262200Y-189164342D01*
D10*
D11*
X178934342Y-185600057D02*
X178434342Y-185600057D01*
X178434342Y-186385771D02*
X178434342Y-184885771D01*
X179148628Y-184885771D01*
X179720057Y-186385771D02*
X179720057Y-185385771D01*
X179720057Y-184885771D02*
X179648628Y-184957200D01*
X179720057Y-185028628D01*
X179791485Y-184957200D01*
X179720057Y-184885771D01*
X179720057Y-185028628D01*
X180648628Y-186385771D02*
X180505771Y-186314342D01*
X180434342Y-186171485D01*
X180434342Y-184885771D01*
X181791485Y-186314342D02*
X181648628Y-186385771D01*
X181362914Y-186385771D01*
X181220057Y-186314342D01*
X181148628Y-186171485D01*
X181148628Y-185600057D01*
X181220057Y-185457200D01*
X181362914Y-185385771D01*
X181648628Y-185385771D01*
X181791485Y-185457200D01*
X181862914Y-185600057D01*
X181862914Y-185742914D01*
X181148628Y-185885771D01*
X182505771Y-186242914D02*
X182577200Y-186314342D01*
X182505771Y-186385771D01*
X182434342Y-186314342D01*
X182505771Y-186242914D01*
X182505771Y-186385771D01*
X182505771Y-185457200D02*
X182577200Y-185528628D01*
X182505771Y-185600057D01*
X182434342Y-185528628D01*
X182505771Y-185457200D01*
X182505771Y-185600057D01*
X185005771Y-186314342D02*
X184862914Y-186385771D01*
X184577200Y-186385771D01*
X184434342Y-186314342D01*
X184362914Y-186242914D01*
X184291485Y-186100057D01*
X184291485Y-185671485D01*
X184362914Y-185528628D01*
X184434342Y-185457200D01*
X184577200Y-185385771D01*
X184862914Y-185385771D01*
X185005771Y-185457200D01*
X185648628Y-186385771D02*
X185648628Y-184885771D01*
X186291485Y-186385771D02*
X186291485Y-185600057D01*
X186220057Y-185457200D01*
X186077200Y-185385771D01*
X185862914Y-185385771D01*
X185720057Y-185457200D01*
X185648628Y-185528628D01*
X187648628Y-186385771D02*
X187648628Y-185600057D01*
X187577200Y-185457200D01*
X187434342Y-185385771D01*
X187148628Y-185385771D01*
X187005771Y-185457200D01*
X187648628Y-186314342D02*
X187505771Y-186385771D01*
X187148628Y-186385771D01*
X187005771Y-186314342D01*
X186934342Y-186171485D01*
X186934342Y-186028628D01*
X187005771Y-185885771D01*
X187148628Y-185814342D01*
X187505771Y-185814342D01*
X187648628Y-185742914D01*
X188362914Y-186385771D02*
X188362914Y-185385771D01*
X188362914Y-185671485D02*
X188434342Y-185528628D01*
X188505771Y-185457200D01*
X188648628Y-185385771D01*
X188791485Y-185385771D01*
X189934342Y-185385771D02*
X189934342Y-186600057D01*
X189862914Y-186742914D01*
X189791485Y-186814342D01*
X189648628Y-186885771D01*
X189434342Y-186885771D01*
X189291485Y-186814342D01*
X189934342Y-186314342D02*
X189791485Y-186385771D01*
X189505771Y-186385771D01*
X189362914Y-186314342D01*
X189291485Y-186242914D01*
X189220057Y-186100057D01*
X189220057Y-185671485D01*
X189291485Y-185528628D01*
X189362914Y-185457200D01*
X189505771Y-185385771D01*
X189791485Y-185385771D01*
X189934342Y-185457200D01*
X191220057Y-186314342D02*
X191077200Y-186385771D01*
X190791485Y-186385771D01*
X190648628Y-186314342D01*
X190577200Y-186171485D01*
X190577200Y-185600057D01*
X190648628Y-185457200D01*
X190791485Y-185385771D01*
X191077200Y-185385771D01*
X191220057Y-185457200D01*
X191291485Y-185600057D01*
X191291485Y-185742914D01*
X190577200Y-185885771D01*
X191577200Y-186528628D02*
X192720057Y-186528628D01*
X193077200Y-185385771D02*
X193077200Y-186885771D01*
X193077200Y-185457200D02*
X193220057Y-185385771D01*
X193505771Y-185385771D01*
X193648628Y-185457200D01*
X193720057Y-185528628D01*
X193791485Y-185671485D01*
X193791485Y-186100057D01*
X193720057Y-186242914D01*
X193648628Y-186314342D01*
X193505771Y-186385771D01*
X193220057Y-186385771D01*
X193077200Y-186314342D01*
X195077200Y-186314342D02*
X194934342Y-186385771D01*
X194648628Y-186385771D01*
X194505771Y-186314342D01*
X194434342Y-186242914D01*
X194362914Y-186100057D01*
X194362914Y-185671485D01*
X194434342Y-185528628D01*
X194505771Y-185457200D01*
X194648628Y-185385771D01*
X194934342Y-185385771D01*
X195077200Y-185457200D01*
X195720057Y-186385771D02*
X195720057Y-184885771D01*
X195720057Y-185457200D02*
X195862914Y-185385771D01*
X196148628Y-185385771D01*
X196291485Y-185457200D01*
X196362914Y-185528628D01*
X196434342Y-185671485D01*
X196434342Y-186100057D01*
X196362914Y-186242914D01*
X196291485Y-186314342D01*
X196148628Y-186385771D01*
X195862914Y-186385771D01*
X195720057Y-186314342D01*
X197077200Y-186242914D02*
X197148628Y-186314342D01*
X197077200Y-186385771D01*
X197005771Y-186314342D01*
X197077200Y-186242914D01*
X197077200Y-186385771D01*
X197791485Y-186385771D02*
X197791485Y-184885771D01*
X197934342Y-185814342D02*
X198362914Y-186385771D01*
X198362914Y-185385771D02*
X197791485Y-185957200D01*
X199005771Y-186385771D02*
X199005771Y-185385771D01*
X199005771Y-184885771D02*
X198934342Y-184957200D01*
X199005771Y-185028628D01*
X199077200Y-184957200D01*
X199005771Y-184885771D01*
X199005771Y-185028628D01*
X200362914Y-186314342D02*
X200220057Y-186385771D01*
X199934342Y-186385771D01*
X199791485Y-186314342D01*
X199720057Y-186242914D01*
X199648628Y-186100057D01*
X199648628Y-185671485D01*
X199720057Y-185528628D01*
X199791485Y-185457200D01*
X199934342Y-185385771D01*
X200220057Y-185385771D01*
X200362914Y-185457200D01*
X201648628Y-186385771D02*
X201648628Y-185600057D01*
X201577200Y-185457200D01*
X201434342Y-185385771D01*
X201148628Y-185385771D01*
X201005771Y-185457200D01*
X201648628Y-186314342D02*
X201505771Y-186385771D01*
X201148628Y-186385771D01*
X201005771Y-186314342D01*
X200934342Y-186171485D01*
X200934342Y-186028628D01*
X201005771Y-185885771D01*
X201148628Y-185814342D01*
X201505771Y-185814342D01*
X201648628Y-185742914D01*
X203005771Y-186385771D02*
X203005771Y-184885771D01*
X203005771Y-186314342D02*
X202862914Y-186385771D01*
X202577200Y-186385771D01*
X202434342Y-186314342D01*
X202362914Y-186242914D01*
X202291485Y-186100057D01*
X202291485Y-185671485D01*
X202362914Y-185528628D01*
X202434342Y-185457200D01*
X202577200Y-185385771D01*
X202862914Y-185385771D01*
X203005771Y-185457200D01*
X203362914Y-186528628D02*
X204505771Y-186528628D01*
X204862914Y-185385771D02*
X204862914Y-186885771D01*
X204862914Y-185457200D02*
X205005771Y-185385771D01*
X205291485Y-185385771D01*
X205434342Y-185457200D01*
X205505771Y-185528628D01*
X205577200Y-185671485D01*
X205577200Y-186100057D01*
X205505771Y-186242914D01*
X205434342Y-186314342D01*
X205291485Y-186385771D01*
X205005771Y-186385771D01*
X204862914Y-186314342D01*
X206862914Y-186314342D02*
X206720057Y-186385771D01*
X206434342Y-186385771D01*
X206291485Y-186314342D01*
X206220057Y-186242914D01*
X206148628Y-186100057D01*
X206148628Y-185671485D01*
X206220057Y-185528628D01*
X206291485Y-185457200D01*
X206434342Y-185385771D01*
X206720057Y-185385771D01*
X206862914Y-185457200D01*
X207505771Y-186385771D02*
X207505771Y-184885771D01*
X207505771Y-185457200D02*
X207648628Y-185385771D01*
X207934342Y-185385771D01*
X208077200Y-185457200D01*
X208148628Y-185528628D01*
X208220057Y-185671485D01*
X208220057Y-186100057D01*
X208148628Y-186242914D01*
X208077200Y-186314342D01*
X207934342Y-186385771D01*
X207648628Y-186385771D01*
X207505771Y-186314342D01*
D10*
D11*
X177002200Y-181507200D02*
X285002200Y-181507200D01*
D10*
D11*
X178362914Y-183614342D02*
X178577200Y-183685771D01*
X178934342Y-183685771D01*
X179077200Y-183614342D01*
X179148628Y-183542914D01*
X179220057Y-183400057D01*
X179220057Y-183257200D01*
X179148628Y-183114342D01*
X179077200Y-183042914D01*
X178934342Y-182971485D01*
X178648628Y-182900057D01*
X178505771Y-182828628D01*
X178434342Y-182757200D01*
X178362914Y-182614342D01*
X178362914Y-182471485D01*
X178434342Y-182328628D01*
X178505771Y-182257200D01*
X178648628Y-182185771D01*
X179005771Y-182185771D01*
X179220057Y-182257200D01*
X179862914Y-183685771D02*
X179862914Y-182185771D01*
X180505771Y-183685771D02*
X180505771Y-182900057D01*
X180434342Y-182757200D01*
X180291485Y-182685771D01*
X180077200Y-182685771D01*
X179934342Y-182757200D01*
X179862914Y-182828628D01*
X181791485Y-183614342D02*
X181648628Y-183685771D01*
X181362914Y-183685771D01*
X181220057Y-183614342D01*
X181148628Y-183471485D01*
X181148628Y-182900057D01*
X181220057Y-182757200D01*
X181362914Y-182685771D01*
X181648628Y-182685771D01*
X181791485Y-182757200D01*
X181862914Y-182900057D01*
X181862914Y-183042914D01*
X181148628Y-183185771D01*
X183077200Y-183614342D02*
X182934342Y-183685771D01*
X182648628Y-183685771D01*
X182505771Y-183614342D01*
X182434342Y-183471485D01*
X182434342Y-182900057D01*
X182505771Y-182757200D01*
X182648628Y-182685771D01*
X182934342Y-182685771D01*
X183077200Y-182757200D01*
X183148628Y-182900057D01*
X183148628Y-183042914D01*
X182434342Y-183185771D01*
X183577200Y-182685771D02*
X184148628Y-182685771D01*
X183791485Y-182185771D02*
X183791485Y-183471485D01*
X183862914Y-183614342D01*
X184005771Y-183685771D01*
X184148628Y-183685771D01*
X184648628Y-183542914D02*
X184720057Y-183614342D01*
X184648628Y-183685771D01*
X184577200Y-183614342D01*
X184648628Y-183542914D01*
X184648628Y-183685771D01*
X184648628Y-182757200D02*
X184720057Y-182828628D01*
X184648628Y-182900057D01*
X184577200Y-182828628D01*
X184648628Y-182757200D01*
X184648628Y-182900057D01*
D10*
D12*
D10*
D11*
D10*
D11*
D10*
D11*
D10*
D11*
D10*
D11*
X197002200Y-191507200D02*
X197002200Y-194507200D01*
D10*
D11*
X261002200Y-191507200D02*
X261002200Y-198007200D01*
G36*
X98368184Y-114754526D02*
G01*
X93689237Y-114754526D01*
X93689237Y-113601500D01*
X98368184Y-113601500D01*
X98368184Y-114754526D01*
G37*
D14*
X98368184Y-114754526D02*
X93689237Y-114754526D01*
X93689237Y-113601500D01*
X98368184Y-113601500D01*
X98368184Y-114754526D01*
G36*
X97356445Y-107768083D02*
G01*
X97409141Y-107769526D01*
X97499237Y-107769526D01*
X97499237Y-107919921D01*
X97287228Y-107919921D01*
X97267433Y-108156183D01*
X97264775Y-108188483D01*
X97258583Y-108269340D01*
X97254208Y-108335135D01*
X97252030Y-108379791D01*
X97252426Y-108397233D01*
X97258185Y-108392219D01*
X97284462Y-108366083D01*
X97329888Y-108319758D01*
X97392166Y-108255647D01*
X97468997Y-108176150D01*
X97558080Y-108083669D01*
X97657119Y-107980606D01*
X97763814Y-107869362D01*
X97875865Y-107752338D01*
X97990975Y-107631936D01*
X98106844Y-107510558D01*
X98221174Y-107390604D01*
X98331666Y-107274476D01*
X98436021Y-107164575D01*
X98531940Y-107063304D01*
X98617124Y-106973063D01*
X98689275Y-106896253D01*
X98818194Y-106758539D01*
X98818781Y-106875852D01*
X98819368Y-106993164D01*
X98021286Y-107832485D01*
X97223204Y-108671807D01*
X97207250Y-108863106D01*
X97143419Y-109628528D01*
X97132138Y-109764287D01*
X97118140Y-109934154D01*
X97105220Y-110092505D01*
X97093627Y-110236228D01*
X97083607Y-110362210D01*
X97075407Y-110467338D01*
X97069274Y-110548501D01*
X97065456Y-110602586D01*
X97064199Y-110626480D01*
X97067517Y-110637429D01*
X97082429Y-110661071D01*
X97110709Y-110696703D01*
X97124358Y-110712277D01*
X97153864Y-110745948D01*
X97213399Y-110810428D01*
X97290820Y-110891768D01*
X97387632Y-110991591D01*
X97505342Y-111111520D01*
X97645454Y-111253179D01*
X97737628Y-111346136D01*
X97866119Y-111475795D01*
X97994159Y-111605079D01*
X98117900Y-111730097D01*
X98233492Y-111846959D01*
X98337085Y-111951774D01*
X98424831Y-112040652D01*
X98492881Y-112109702D01*
X98759617Y-112380757D01*
X98711169Y-112431326D01*
X98699743Y-112442719D01*
X98666035Y-112470697D01*
X98642910Y-112481895D01*
X98624805Y-112472335D01*
X98591145Y-112443649D01*
X98550792Y-112402520D01*
X98526230Y-112376542D01*
X98480423Y-112329104D01*
X98415683Y-112262566D01*
X98334295Y-112179263D01*
X98238545Y-112081528D01*
X98130721Y-111971695D01*
X98013108Y-111852096D01*
X97887992Y-111725066D01*
X97757659Y-111592938D01*
X97036831Y-110862732D01*
X97007469Y-111242017D01*
X97001068Y-111322972D01*
X96991721Y-111431793D01*
X96983290Y-111514217D01*
X96975151Y-111574575D01*
X96966679Y-111617200D01*
X96957250Y-111646424D01*
X96946237Y-111666580D01*
X96930825Y-111694750D01*
X96918143Y-111746539D01*
X96914368Y-111821152D01*
X96914368Y-111930447D01*
X96613579Y-111930447D01*
X96613579Y-111696500D01*
X95489832Y-111696500D01*
X95424875Y-111770295D01*
X95407110Y-111789511D01*
X95310831Y-111866712D01*
X95202049Y-111914239D01*
X95084262Y-111930447D01*
X94980327Y-111921854D01*
X94862770Y-111885628D01*
X94762134Y-111820882D01*
X94742520Y-111802378D01*
X94693503Y-111742475D01*
X94650497Y-111672693D01*
X94619658Y-111603909D01*
X94607141Y-111547002D01*
X94606899Y-111538741D01*
X94605099Y-111508471D01*
X94600392Y-111487563D01*
X94590544Y-111477669D01*
X94573323Y-111480444D01*
X94546494Y-111497540D01*
X94507824Y-111530610D01*
X94455080Y-111581307D01*
X94386028Y-111651285D01*
X94298434Y-111742197D01*
X94190065Y-111855695D01*
X94132342Y-111916280D01*
X94035855Y-112017718D01*
X93944568Y-112113889D01*
X93862059Y-112201013D01*
X93791906Y-112275311D01*
X93737685Y-112333003D01*
X93702974Y-112370310D01*
X93608092Y-112473539D01*
X93549449Y-112415052D01*
X93490805Y-112356566D01*
X94216179Y-111596237D01*
X94261916Y-111548263D01*
X94424633Y-111376940D01*
X94564313Y-111228738D01*
X94681373Y-111103198D01*
X94776233Y-110999861D01*
X94843309Y-110924967D01*
X95117947Y-110924967D01*
X95120106Y-110942589D01*
X95120483Y-110944430D01*
X95138480Y-110986171D01*
X95174428Y-111005620D01*
X95285237Y-111047083D01*
X95383963Y-111116156D01*
X95461611Y-111207524D01*
X95514828Y-111317195D01*
X95540258Y-111441173D01*
X95548681Y-111546105D01*
X96810482Y-111546105D01*
X96819280Y-111508506D01*
X96820836Y-111499279D01*
X96825672Y-111458018D01*
X96832271Y-111391304D01*
X96840142Y-111304453D01*
X96848797Y-111202777D01*
X96857743Y-111091592D01*
X96887409Y-110712277D01*
X96487532Y-110306198D01*
X96414187Y-110231961D01*
X96324447Y-110141837D01*
X96243940Y-110061775D01*
X96175488Y-109994542D01*
X96121917Y-109942910D01*
X96086052Y-109909646D01*
X96070715Y-109897521D01*
X96060431Y-109903314D01*
X96029801Y-109929675D01*
X95983705Y-109973709D01*
X95926265Y-110031444D01*
X95861605Y-110098911D01*
X95844738Y-110116804D01*
X95769107Y-110196839D01*
X95678984Y-110291977D01*
X95581155Y-110395067D01*
X95482405Y-110498956D01*
X95389520Y-110596493D01*
X95383940Y-110602346D01*
X95297584Y-110693214D01*
X95231690Y-110763577D01*
X95183651Y-110816783D01*
X95150863Y-110856177D01*
X95130720Y-110885108D01*
X95120616Y-110906922D01*
X95117947Y-110924967D01*
X94843309Y-110924967D01*
X94849311Y-110918266D01*
X94901026Y-110857955D01*
X94931796Y-110818466D01*
X94942040Y-110799342D01*
X94942041Y-110799229D01*
X94940636Y-110775394D01*
X94936531Y-110721967D01*
X94930048Y-110642584D01*
X94921508Y-110540880D01*
X94911233Y-110420493D01*
X94899544Y-110285057D01*
X94886763Y-110138211D01*
X94873212Y-109983590D01*
X94859212Y-109824830D01*
X94845085Y-109665568D01*
X94831153Y-109509441D01*
X94817736Y-109360083D01*
X94805157Y-109221133D01*
X94793738Y-109096226D01*
X94783799Y-108988998D01*
X94775662Y-108903087D01*
X94769650Y-108842127D01*
X94766083Y-108809756D01*
X94758891Y-108755538D01*
X94930573Y-108755538D01*
X94932772Y-108796630D01*
X94937611Y-108865735D01*
X94944848Y-108959870D01*
X94954241Y-109076053D01*
X94965547Y-109211299D01*
X94978523Y-109362627D01*
X94992929Y-109527054D01*
X95008521Y-109701597D01*
X95020710Y-109836206D01*
X95035976Y-110003145D01*
X95050269Y-110157618D01*
X95063305Y-110296649D01*
X95074800Y-110417264D01*
X95084470Y-110516489D01*
X95092030Y-110591348D01*
X95097197Y-110638867D01*
X95099686Y-110656072D01*
X95107236Y-110650742D01*
X95134922Y-110624578D01*
X95179909Y-110579637D01*
X95239100Y-110519191D01*
X95309399Y-110446509D01*
X95387708Y-110364864D01*
X95470930Y-110277526D01*
X95555969Y-110187767D01*
X95639727Y-110098858D01*
X95719107Y-110014070D01*
X95791013Y-109936673D01*
X95852347Y-109869941D01*
X95900013Y-109817142D01*
X95930913Y-109781550D01*
X95939941Y-109769186D01*
X96181574Y-109769186D01*
X96547971Y-110135299D01*
X96637569Y-110224679D01*
X96722013Y-110308320D01*
X96787427Y-110372027D01*
X96836208Y-110417868D01*
X96870753Y-110447909D01*
X96893459Y-110464218D01*
X96906722Y-110468862D01*
X96912940Y-110463908D01*
X96914509Y-110451423D01*
X96915515Y-110431363D01*
X96919140Y-110379712D01*
X96925130Y-110301320D01*
X96933198Y-110199759D01*
X96943055Y-110078602D01*
X96954413Y-109941421D01*
X96966984Y-109791787D01*
X96980480Y-109633271D01*
X96992395Y-109493563D01*
X97004811Y-109346414D01*
X97015943Y-109212805D01*
X97025526Y-109096028D01*
X97033290Y-108999378D01*
X97038969Y-108926145D01*
X97042297Y-108879624D01*
X97043004Y-108863106D01*
X97042444Y-108863416D01*
X97026663Y-108878623D01*
X96991606Y-108914303D01*
X96940363Y-108967220D01*
X96876019Y-109034139D01*
X96801664Y-109111823D01*
X96720385Y-109197036D01*
X96635270Y-109286541D01*
X96549406Y-109377102D01*
X96465881Y-109465483D01*
X96387784Y-109548448D01*
X96318202Y-109622760D01*
X96184141Y-109766434D01*
X96181574Y-109769186D01*
X95939941Y-109769186D01*
X95941951Y-109766434D01*
X95931131Y-109751785D01*
X95899674Y-109716722D01*
X95850503Y-109664265D01*
X95786544Y-109597372D01*
X95710723Y-109518999D01*
X95625967Y-109432103D01*
X95535202Y-109339641D01*
X95441356Y-109244569D01*
X95347354Y-109149845D01*
X95256124Y-109058424D01*
X95170591Y-108973265D01*
X95093683Y-108897323D01*
X95028326Y-108833556D01*
X94977446Y-108784920D01*
X94943970Y-108754372D01*
X94930824Y-108744868D01*
X94930573Y-108755538D01*
X94758891Y-108755538D01*
X94756663Y-108738737D01*
X94391079Y-108738737D01*
X94390870Y-108605052D01*
X94524763Y-108605052D01*
X94633382Y-108605052D01*
X94643045Y-108605044D01*
X94697604Y-108603880D01*
X94727276Y-108598902D01*
X94739571Y-108587477D01*
X94742000Y-108566971D01*
X94731301Y-108536829D01*
X94694654Y-108486687D01*
X94633382Y-108421237D01*
X94524763Y-108313584D01*
X94524763Y-108605052D01*
X94390870Y-108605052D01*
X94390641Y-108458835D01*
X94390204Y-108178934D01*
X93789885Y-107569000D01*
X93189567Y-106959066D01*
X93188744Y-106843337D01*
X93187921Y-106727610D01*
X93907969Y-107457449D01*
X93977564Y-107527944D01*
X94121975Y-107673828D01*
X94245442Y-107797875D01*
X94349560Y-107901611D01*
X94435925Y-107986562D01*
X94506132Y-108054256D01*
X94561776Y-108106219D01*
X94604452Y-108143977D01*
X94635756Y-108169057D01*
X94657282Y-108182986D01*
X94670625Y-108187289D01*
X94693125Y-108185986D01*
X94705756Y-108176468D01*
X94707934Y-108150427D01*
X94702697Y-108099559D01*
X94699086Y-108067533D01*
X94694061Y-108014002D01*
X94692037Y-107978408D01*
X94691045Y-107966138D01*
X94681386Y-107952996D01*
X94654703Y-107948641D01*
X94602902Y-107950542D01*
X94589676Y-107951287D01*
X94536733Y-107950447D01*
X94499073Y-107938813D01*
X94472529Y-107919921D01*
X94848974Y-107919921D01*
X94854504Y-107982585D01*
X94857058Y-108011017D01*
X94865018Y-108088642D01*
X94872861Y-108139769D01*
X94882031Y-108169711D01*
X94893973Y-108183780D01*
X94910129Y-108187289D01*
X94924656Y-108189679D01*
X94934289Y-108201098D01*
X94939672Y-108227645D01*
X94942015Y-108275414D01*
X94942526Y-108350502D01*
X94942526Y-108513715D01*
X94995948Y-108566971D01*
X95126342Y-108696960D01*
X95310158Y-108880206D01*
X95310158Y-108738737D01*
X96312790Y-108738737D01*
X96312790Y-109056237D01*
X95490827Y-109056237D01*
X95769589Y-109344493D01*
X95822984Y-109399548D01*
X95896817Y-109475120D01*
X95960929Y-109540082D01*
X96011961Y-109591060D01*
X96046557Y-109624681D01*
X96061357Y-109637574D01*
X96066983Y-109634018D01*
X96093363Y-109610118D01*
X96138849Y-109565862D01*
X96201012Y-109503708D01*
X96277422Y-109426115D01*
X96365649Y-109335540D01*
X96463262Y-109234441D01*
X96567833Y-109125275D01*
X96672940Y-109014964D01*
X96775974Y-108906246D01*
X96859530Y-108817136D01*
X96925654Y-108745271D01*
X96976387Y-108688289D01*
X97013775Y-108643828D01*
X97039860Y-108609525D01*
X97056687Y-108583017D01*
X97066298Y-108561942D01*
X97070739Y-108543939D01*
X97071916Y-108535169D01*
X97077136Y-108486847D01*
X97083742Y-108415707D01*
X97091008Y-108329861D01*
X97098207Y-108237421D01*
X97100648Y-108205225D01*
X97107701Y-108118236D01*
X97114425Y-108043203D01*
X97120160Y-107987255D01*
X97124240Y-107957520D01*
X97132242Y-107919921D01*
X94848974Y-107919921D01*
X94472529Y-107919921D01*
X94461956Y-107912396D01*
X94455563Y-107906835D01*
X94403285Y-107839487D01*
X94382581Y-107769526D01*
X94835481Y-107769526D01*
X96715306Y-107769526D01*
X96997921Y-107769526D01*
X97073706Y-107769526D01*
X97096412Y-107769366D01*
X97130054Y-107766442D01*
X97139766Y-107756970D01*
X97132227Y-107737267D01*
X97129999Y-107733511D01*
X97104990Y-107704623D01*
X97068757Y-107672563D01*
X97032613Y-107646560D01*
X97007874Y-107635842D01*
X97005650Y-107637536D01*
X97000131Y-107660810D01*
X96997921Y-107702684D01*
X96997921Y-107769526D01*
X96715306Y-107769526D01*
X96710397Y-107649007D01*
X96705487Y-107528488D01*
X96605224Y-107508348D01*
X96554943Y-107499214D01*
X96470975Y-107486425D01*
X96392165Y-107476776D01*
X96279368Y-107465345D01*
X96279368Y-107602421D01*
X95510684Y-107602421D01*
X95510684Y-107481596D01*
X95414599Y-107493065D01*
X95267787Y-107517646D01*
X95120032Y-107562089D01*
X94997814Y-107624062D01*
X94899062Y-107704413D01*
X94835481Y-107769526D01*
X94382581Y-107769526D01*
X94380281Y-107761754D01*
X94387328Y-107680211D01*
X94425203Y-107601434D01*
X94428868Y-107596529D01*
X94479486Y-107554327D01*
X94545474Y-107529365D01*
X94616607Y-107522725D01*
X94682664Y-107535492D01*
X94733419Y-107568750D01*
X94750604Y-107585729D01*
X94767345Y-107589844D01*
X94791318Y-107577115D01*
X94831799Y-107545332D01*
X94844219Y-107535564D01*
X94940111Y-107473911D01*
X95053715Y-107419084D01*
X95146630Y-107385184D01*
X95644368Y-107385184D01*
X95644368Y-107468737D01*
X96145684Y-107468737D01*
X96145684Y-107385184D01*
X95644368Y-107385184D01*
X95146630Y-107385184D01*
X95174453Y-107375033D01*
X95291746Y-107345706D01*
X95395017Y-107335052D01*
X95405988Y-107334968D01*
X95466970Y-107329031D01*
X95500460Y-107312385D01*
X95510684Y-107283133D01*
X95511885Y-107273917D01*
X95518449Y-107265991D01*
X95534391Y-107260189D01*
X95563719Y-107256181D01*
X95610440Y-107253639D01*
X95678559Y-107252230D01*
X95772086Y-107251628D01*
X95895026Y-107251500D01*
X96010219Y-107251725D01*
X96108126Y-107252635D01*
X96179800Y-107254469D01*
X96229001Y-107257466D01*
X96259490Y-107261863D01*
X96275025Y-107267898D01*
X96279368Y-107275808D01*
X96293653Y-107295232D01*
X96333678Y-107307627D01*
X96348997Y-107309796D01*
X96401230Y-107317430D01*
X96470737Y-107327778D01*
X96546737Y-107339240D01*
X96588651Y-107345075D01*
X96649992Y-107351394D01*
X96693273Y-107352918D01*
X96711057Y-107349197D01*
X96714094Y-107346773D01*
X96742130Y-107340785D01*
X96792564Y-107336617D01*
X96857274Y-107335052D01*
X96997921Y-107335052D01*
X96997937Y-107385184D01*
X96997938Y-107389362D01*
X96998595Y-107406572D01*
X97007141Y-107435467D01*
X97031466Y-107459972D01*
X97078918Y-107489143D01*
X97120573Y-107515793D01*
X97183989Y-107566960D01*
X97241460Y-107624400D01*
X97285422Y-107680279D01*
X97308311Y-107726762D01*
X97313919Y-107744674D01*
X97324309Y-107756970D01*
X97327812Y-107761116D01*
X97356445Y-107768083D01*
G37*
X97356445Y-107768083D02*
X97409141Y-107769526D01*
X97499237Y-107769526D01*
X97499237Y-107919921D01*
X97287228Y-107919921D01*
X97267433Y-108156183D01*
X97264775Y-108188483D01*
X97258583Y-108269340D01*
X97254208Y-108335135D01*
X97252030Y-108379791D01*
X97252426Y-108397233D01*
X97258185Y-108392219D01*
X97284462Y-108366083D01*
X97329888Y-108319758D01*
X97392166Y-108255647D01*
X97468997Y-108176150D01*
X97558080Y-108083669D01*
X97657119Y-107980606D01*
X97763814Y-107869362D01*
X97875865Y-107752338D01*
X97990975Y-107631936D01*
X98106844Y-107510558D01*
X98221174Y-107390604D01*
X98331666Y-107274476D01*
X98436021Y-107164575D01*
X98531940Y-107063304D01*
X98617124Y-106973063D01*
X98689275Y-106896253D01*
X98818194Y-106758539D01*
X98818781Y-106875852D01*
X98819368Y-106993164D01*
X98021286Y-107832485D01*
X97223204Y-108671807D01*
X97207250Y-108863106D01*
X97143419Y-109628528D01*
X97132138Y-109764287D01*
X97118140Y-109934154D01*
X97105220Y-110092505D01*
X97093627Y-110236228D01*
X97083607Y-110362210D01*
X97075407Y-110467338D01*
X97069274Y-110548501D01*
X97065456Y-110602586D01*
X97064199Y-110626480D01*
X97067517Y-110637429D01*
X97082429Y-110661071D01*
X97110709Y-110696703D01*
X97124358Y-110712277D01*
X97153864Y-110745948D01*
X97213399Y-110810428D01*
X97290820Y-110891768D01*
X97387632Y-110991591D01*
X97505342Y-111111520D01*
X97645454Y-111253179D01*
X97737628Y-111346136D01*
X97866119Y-111475795D01*
X97994159Y-111605079D01*
X98117900Y-111730097D01*
X98233492Y-111846959D01*
X98337085Y-111951774D01*
X98424831Y-112040652D01*
X98492881Y-112109702D01*
X98759617Y-112380757D01*
X98711169Y-112431326D01*
X98699743Y-112442719D01*
X98666035Y-112470697D01*
X98642910Y-112481895D01*
X98624805Y-112472335D01*
X98591145Y-112443649D01*
X98550792Y-112402520D01*
X98526230Y-112376542D01*
X98480423Y-112329104D01*
X98415683Y-112262566D01*
X98334295Y-112179263D01*
X98238545Y-112081528D01*
X98130721Y-111971695D01*
X98013108Y-111852096D01*
X97887992Y-111725066D01*
X97757659Y-111592938D01*
X97036831Y-110862732D01*
X97007469Y-111242017D01*
X97001068Y-111322972D01*
X96991721Y-111431793D01*
X96983290Y-111514217D01*
X96975151Y-111574575D01*
X96966679Y-111617200D01*
X96957250Y-111646424D01*
X96946237Y-111666580D01*
X96930825Y-111694750D01*
X96918143Y-111746539D01*
X96914368Y-111821152D01*
X96914368Y-111930447D01*
X96613579Y-111930447D01*
X96613579Y-111696500D01*
X95489832Y-111696500D01*
X95424875Y-111770295D01*
X95407110Y-111789511D01*
X95310831Y-111866712D01*
X95202049Y-111914239D01*
X95084262Y-111930447D01*
X94980327Y-111921854D01*
X94862770Y-111885628D01*
X94762134Y-111820882D01*
X94742520Y-111802378D01*
X94693503Y-111742475D01*
X94650497Y-111672693D01*
X94619658Y-111603909D01*
X94607141Y-111547002D01*
X94606899Y-111538741D01*
X94605099Y-111508471D01*
X94600392Y-111487563D01*
X94590544Y-111477669D01*
X94573323Y-111480444D01*
X94546494Y-111497540D01*
X94507824Y-111530610D01*
X94455080Y-111581307D01*
X94386028Y-111651285D01*
X94298434Y-111742197D01*
X94190065Y-111855695D01*
X94132342Y-111916280D01*
X94035855Y-112017718D01*
X93944568Y-112113889D01*
X93862059Y-112201013D01*
X93791906Y-112275311D01*
X93737685Y-112333003D01*
X93702974Y-112370310D01*
X93608092Y-112473539D01*
X93549449Y-112415052D01*
X93490805Y-112356566D01*
X94216179Y-111596237D01*
X94261916Y-111548263D01*
X94424633Y-111376940D01*
X94564313Y-111228738D01*
X94681373Y-111103198D01*
X94776233Y-110999861D01*
X94843309Y-110924967D01*
X95117947Y-110924967D01*
X95120106Y-110942589D01*
X95120483Y-110944430D01*
X95138480Y-110986171D01*
X95174428Y-111005620D01*
X95285237Y-111047083D01*
X95383963Y-111116156D01*
X95461611Y-111207524D01*
X95514828Y-111317195D01*
X95540258Y-111441173D01*
X95548681Y-111546105D01*
X96810482Y-111546105D01*
X96819280Y-111508506D01*
X96820836Y-111499279D01*
X96825672Y-111458018D01*
X96832271Y-111391304D01*
X96840142Y-111304453D01*
X96848797Y-111202777D01*
X96857743Y-111091592D01*
X96887409Y-110712277D01*
X96487532Y-110306198D01*
X96414187Y-110231961D01*
X96324447Y-110141837D01*
X96243940Y-110061775D01*
X96175488Y-109994542D01*
X96121917Y-109942910D01*
X96086052Y-109909646D01*
X96070715Y-109897521D01*
X96060431Y-109903314D01*
X96029801Y-109929675D01*
X95983705Y-109973709D01*
X95926265Y-110031444D01*
X95861605Y-110098911D01*
X95844738Y-110116804D01*
X95769107Y-110196839D01*
X95678984Y-110291977D01*
X95581155Y-110395067D01*
X95482405Y-110498956D01*
X95389520Y-110596493D01*
X95383940Y-110602346D01*
X95297584Y-110693214D01*
X95231690Y-110763577D01*
X95183651Y-110816783D01*
X95150863Y-110856177D01*
X95130720Y-110885108D01*
X95120616Y-110906922D01*
X95117947Y-110924967D01*
X94843309Y-110924967D01*
X94849311Y-110918266D01*
X94901026Y-110857955D01*
X94931796Y-110818466D01*
X94942040Y-110799342D01*
X94942041Y-110799229D01*
X94940636Y-110775394D01*
X94936531Y-110721967D01*
X94930048Y-110642584D01*
X94921508Y-110540880D01*
X94911233Y-110420493D01*
X94899544Y-110285057D01*
X94886763Y-110138211D01*
X94873212Y-109983590D01*
X94859212Y-109824830D01*
X94845085Y-109665568D01*
X94831153Y-109509441D01*
X94817736Y-109360083D01*
X94805157Y-109221133D01*
X94793738Y-109096226D01*
X94783799Y-108988998D01*
X94775662Y-108903087D01*
X94769650Y-108842127D01*
X94766083Y-108809756D01*
X94758891Y-108755538D01*
X94930573Y-108755538D01*
X94932772Y-108796630D01*
X94937611Y-108865735D01*
X94944848Y-108959870D01*
X94954241Y-109076053D01*
X94965547Y-109211299D01*
X94978523Y-109362627D01*
X94992929Y-109527054D01*
X95008521Y-109701597D01*
X95020710Y-109836206D01*
X95035976Y-110003145D01*
X95050269Y-110157618D01*
X95063305Y-110296649D01*
X95074800Y-110417264D01*
X95084470Y-110516489D01*
X95092030Y-110591348D01*
X95097197Y-110638867D01*
X95099686Y-110656072D01*
X95107236Y-110650742D01*
X95134922Y-110624578D01*
X95179909Y-110579637D01*
X95239100Y-110519191D01*
X95309399Y-110446509D01*
X95387708Y-110364864D01*
X95470930Y-110277526D01*
X95555969Y-110187767D01*
X95639727Y-110098858D01*
X95719107Y-110014070D01*
X95791013Y-109936673D01*
X95852347Y-109869941D01*
X95900013Y-109817142D01*
X95930913Y-109781550D01*
X95939941Y-109769186D01*
X96181574Y-109769186D01*
X96547971Y-110135299D01*
X96637569Y-110224679D01*
X96722013Y-110308320D01*
X96787427Y-110372027D01*
X96836208Y-110417868D01*
X96870753Y-110447909D01*
X96893459Y-110464218D01*
X96906722Y-110468862D01*
X96912940Y-110463908D01*
X96914509Y-110451423D01*
X96915515Y-110431363D01*
X96919140Y-110379712D01*
X96925130Y-110301320D01*
X96933198Y-110199759D01*
X96943055Y-110078602D01*
X96954413Y-109941421D01*
X96966984Y-109791787D01*
X96980480Y-109633271D01*
X96992395Y-109493563D01*
X97004811Y-109346414D01*
X97015943Y-109212805D01*
X97025526Y-109096028D01*
X97033290Y-108999378D01*
X97038969Y-108926145D01*
X97042297Y-108879624D01*
X97043004Y-108863106D01*
X97042444Y-108863416D01*
X97026663Y-108878623D01*
X96991606Y-108914303D01*
X96940363Y-108967220D01*
X96876019Y-109034139D01*
X96801664Y-109111823D01*
X96720385Y-109197036D01*
X96635270Y-109286541D01*
X96549406Y-109377102D01*
X96465881Y-109465483D01*
X96387784Y-109548448D01*
X96318202Y-109622760D01*
X96184141Y-109766434D01*
X96181574Y-109769186D01*
X95939941Y-109769186D01*
X95941951Y-109766434D01*
X95931131Y-109751785D01*
X95899674Y-109716722D01*
X95850503Y-109664265D01*
X95786544Y-109597372D01*
X95710723Y-109518999D01*
X95625967Y-109432103D01*
X95535202Y-109339641D01*
X95441356Y-109244569D01*
X95347354Y-109149845D01*
X95256124Y-109058424D01*
X95170591Y-108973265D01*
X95093683Y-108897323D01*
X95028326Y-108833556D01*
X94977446Y-108784920D01*
X94943970Y-108754372D01*
X94930824Y-108744868D01*
X94930573Y-108755538D01*
X94758891Y-108755538D01*
X94756663Y-108738737D01*
X94391079Y-108738737D01*
X94390870Y-108605052D01*
X94524763Y-108605052D01*
X94633382Y-108605052D01*
X94643045Y-108605044D01*
X94697604Y-108603880D01*
X94727276Y-108598902D01*
X94739571Y-108587477D01*
X94742000Y-108566971D01*
X94731301Y-108536829D01*
X94694654Y-108486687D01*
X94633382Y-108421237D01*
X94524763Y-108313584D01*
X94524763Y-108605052D01*
X94390870Y-108605052D01*
X94390641Y-108458835D01*
X94390204Y-108178934D01*
X93789885Y-107569000D01*
X93189567Y-106959066D01*
X93188744Y-106843337D01*
X93187921Y-106727610D01*
X93907969Y-107457449D01*
X93977564Y-107527944D01*
X94121975Y-107673828D01*
X94245442Y-107797875D01*
X94349560Y-107901611D01*
X94435925Y-107986562D01*
X94506132Y-108054256D01*
X94561776Y-108106219D01*
X94604452Y-108143977D01*
X94635756Y-108169057D01*
X94657282Y-108182986D01*
X94670625Y-108187289D01*
X94693125Y-108185986D01*
X94705756Y-108176468D01*
X94707934Y-108150427D01*
X94702697Y-108099559D01*
X94699086Y-108067533D01*
X94694061Y-108014002D01*
X94692037Y-107978408D01*
X94691045Y-107966138D01*
X94681386Y-107952996D01*
X94654703Y-107948641D01*
X94602902Y-107950542D01*
X94589676Y-107951287D01*
X94536733Y-107950447D01*
X94499073Y-107938813D01*
X94472529Y-107919921D01*
X94848974Y-107919921D01*
X94854504Y-107982585D01*
X94857058Y-108011017D01*
X94865018Y-108088642D01*
X94872861Y-108139769D01*
X94882031Y-108169711D01*
X94893973Y-108183780D01*
X94910129Y-108187289D01*
X94924656Y-108189679D01*
X94934289Y-108201098D01*
X94939672Y-108227645D01*
X94942015Y-108275414D01*
X94942526Y-108350502D01*
X94942526Y-108513715D01*
X94995948Y-108566971D01*
X95126342Y-108696960D01*
X95310158Y-108880206D01*
X95310158Y-108738737D01*
X96312790Y-108738737D01*
X96312790Y-109056237D01*
X95490827Y-109056237D01*
X95769589Y-109344493D01*
X95822984Y-109399548D01*
X95896817Y-109475120D01*
X95960929Y-109540082D01*
X96011961Y-109591060D01*
X96046557Y-109624681D01*
X96061357Y-109637574D01*
X96066983Y-109634018D01*
X96093363Y-109610118D01*
X96138849Y-109565862D01*
X96201012Y-109503708D01*
X96277422Y-109426115D01*
X96365649Y-109335540D01*
X96463262Y-109234441D01*
X96567833Y-109125275D01*
X96672940Y-109014964D01*
X96775974Y-108906246D01*
X96859530Y-108817136D01*
X96925654Y-108745271D01*
X96976387Y-108688289D01*
X97013775Y-108643828D01*
X97039860Y-108609525D01*
X97056687Y-108583017D01*
X97066298Y-108561942D01*
X97070739Y-108543939D01*
X97071916Y-108535169D01*
X97077136Y-108486847D01*
X97083742Y-108415707D01*
X97091008Y-108329861D01*
X97098207Y-108237421D01*
X97100648Y-108205225D01*
X97107701Y-108118236D01*
X97114425Y-108043203D01*
X97120160Y-107987255D01*
X97124240Y-107957520D01*
X97132242Y-107919921D01*
X94848974Y-107919921D01*
X94472529Y-107919921D01*
X94461956Y-107912396D01*
X94455563Y-107906835D01*
X94403285Y-107839487D01*
X94382581Y-107769526D01*
X94835481Y-107769526D01*
X96715306Y-107769526D01*
X96997921Y-107769526D01*
X97073706Y-107769526D01*
X97096412Y-107769366D01*
X97130054Y-107766442D01*
X97139766Y-107756970D01*
X97132227Y-107737267D01*
X97129999Y-107733511D01*
X97104990Y-107704623D01*
X97068757Y-107672563D01*
X97032613Y-107646560D01*
X97007874Y-107635842D01*
X97005650Y-107637536D01*
X97000131Y-107660810D01*
X96997921Y-107702684D01*
X96997921Y-107769526D01*
X96715306Y-107769526D01*
X96710397Y-107649007D01*
X96705487Y-107528488D01*
X96605224Y-107508348D01*
X96554943Y-107499214D01*
X96470975Y-107486425D01*
X96392165Y-107476776D01*
X96279368Y-107465345D01*
X96279368Y-107602421D01*
X95510684Y-107602421D01*
X95510684Y-107481596D01*
X95414599Y-107493065D01*
X95267787Y-107517646D01*
X95120032Y-107562089D01*
X94997814Y-107624062D01*
X94899062Y-107704413D01*
X94835481Y-107769526D01*
X94382581Y-107769526D01*
X94380281Y-107761754D01*
X94387328Y-107680211D01*
X94425203Y-107601434D01*
X94428868Y-107596529D01*
X94479486Y-107554327D01*
X94545474Y-107529365D01*
X94616607Y-107522725D01*
X94682664Y-107535492D01*
X94733419Y-107568750D01*
X94750604Y-107585729D01*
X94767345Y-107589844D01*
X94791318Y-107577115D01*
X94831799Y-107545332D01*
X94844219Y-107535564D01*
X94940111Y-107473911D01*
X95053715Y-107419084D01*
X95146630Y-107385184D01*
X95644368Y-107385184D01*
X95644368Y-107468737D01*
X96145684Y-107468737D01*
X96145684Y-107385184D01*
X95644368Y-107385184D01*
X95146630Y-107385184D01*
X95174453Y-107375033D01*
X95291746Y-107345706D01*
X95395017Y-107335052D01*
X95405988Y-107334968D01*
X95466970Y-107329031D01*
X95500460Y-107312385D01*
X95510684Y-107283133D01*
X95511885Y-107273917D01*
X95518449Y-107265991D01*
X95534391Y-107260189D01*
X95563719Y-107256181D01*
X95610440Y-107253639D01*
X95678559Y-107252230D01*
X95772086Y-107251628D01*
X95895026Y-107251500D01*
X96010219Y-107251725D01*
X96108126Y-107252635D01*
X96179800Y-107254469D01*
X96229001Y-107257466D01*
X96259490Y-107261863D01*
X96275025Y-107267898D01*
X96279368Y-107275808D01*
X96293653Y-107295232D01*
X96333678Y-107307627D01*
X96348997Y-107309796D01*
X96401230Y-107317430D01*
X96470737Y-107327778D01*
X96546737Y-107339240D01*
X96588651Y-107345075D01*
X96649992Y-107351394D01*
X96693273Y-107352918D01*
X96711057Y-107349197D01*
X96714094Y-107346773D01*
X96742130Y-107340785D01*
X96792564Y-107336617D01*
X96857274Y-107335052D01*
X96997921Y-107335052D01*
X96997937Y-107385184D01*
X96997938Y-107389362D01*
X96998595Y-107406572D01*
X97007141Y-107435467D01*
X97031466Y-107459972D01*
X97078918Y-107489143D01*
X97120573Y-107515793D01*
X97183989Y-107566960D01*
X97241460Y-107624400D01*
X97285422Y-107680279D01*
X97308311Y-107726762D01*
X97313919Y-107744674D01*
X97324309Y-107756970D01*
X97327812Y-107761116D01*
X97356445Y-107768083D01*
G36*
X93275936Y-123015911D02*
G01*
X93317807Y-123026547D01*
X93356791Y-123053062D01*
X93406965Y-123102420D01*
X93439232Y-123137279D01*
X93472844Y-123182534D01*
X93488003Y-123224951D01*
X93491539Y-123278768D01*
X93491539Y-123366850D01*
X93431470Y-123335787D01*
X93383867Y-123297936D01*
X93351261Y-123246950D01*
X93345661Y-123233088D01*
X93302992Y-123179358D01*
X93243707Y-123152417D01*
X93179061Y-123155039D01*
X93120308Y-123190000D01*
X93095450Y-123218394D01*
X93080970Y-123254718D01*
X93096470Y-123287046D01*
X93144667Y-123319565D01*
X93228274Y-123356461D01*
X93240962Y-123361557D01*
X93317078Y-123394907D01*
X93382396Y-123427793D01*
X93423953Y-123453769D01*
X93465576Y-123500167D01*
X93493247Y-123574211D01*
X93490310Y-123653670D01*
X93457571Y-123728868D01*
X93395841Y-123790131D01*
X93345858Y-123816210D01*
X93249303Y-123834470D01*
X93195647Y-123832007D01*
X93145976Y-123818687D01*
X93126919Y-123790739D01*
X93134045Y-123744710D01*
X93136118Y-123738624D01*
X93152556Y-123706349D01*
X93179926Y-123694133D01*
X93232068Y-123694950D01*
X93268884Y-123696061D01*
X93311961Y-123686528D01*
X93341475Y-123658026D01*
X93358286Y-123622935D01*
X93360161Y-123586175D01*
X93360074Y-123585961D01*
X93338279Y-123566098D01*
X93291632Y-123537192D01*
X93231278Y-123504886D01*
X93168360Y-123474823D01*
X93114023Y-123452646D01*
X93079410Y-123444000D01*
X93074260Y-123452467D01*
X93067778Y-123492309D01*
X93063339Y-123557371D01*
X93061692Y-123639385D01*
X93061309Y-123696153D01*
X93059505Y-123767648D01*
X93056558Y-123816610D01*
X93052843Y-123834769D01*
X93033424Y-123828667D01*
X92994227Y-123812095D01*
X92944462Y-123789420D01*
X92944462Y-123498509D01*
X92944780Y-123423940D01*
X92947789Y-123310701D01*
X92955454Y-123226692D01*
X92969562Y-123165520D01*
X92991899Y-123120795D01*
X93024253Y-123086124D01*
X93068410Y-123055117D01*
X93124667Y-123029528D01*
X93228540Y-123014154D01*
X93275936Y-123015911D01*
G37*
X93275936Y-123015911D02*
X93317807Y-123026547D01*
X93356791Y-123053062D01*
X93406965Y-123102420D01*
X93439232Y-123137279D01*
X93472844Y-123182534D01*
X93488003Y-123224951D01*
X93491539Y-123278768D01*
X93491539Y-123366850D01*
X93431470Y-123335787D01*
X93383867Y-123297936D01*
X93351261Y-123246950D01*
X93345661Y-123233088D01*
X93302992Y-123179358D01*
X93243707Y-123152417D01*
X93179061Y-123155039D01*
X93120308Y-123190000D01*
X93095450Y-123218394D01*
X93080970Y-123254718D01*
X93096470Y-123287046D01*
X93144667Y-123319565D01*
X93228274Y-123356461D01*
X93240962Y-123361557D01*
X93317078Y-123394907D01*
X93382396Y-123427793D01*
X93423953Y-123453769D01*
X93465576Y-123500167D01*
X93493247Y-123574211D01*
X93490310Y-123653670D01*
X93457571Y-123728868D01*
X93395841Y-123790131D01*
X93345858Y-123816210D01*
X93249303Y-123834470D01*
X93195647Y-123832007D01*
X93145976Y-123818687D01*
X93126919Y-123790739D01*
X93134045Y-123744710D01*
X93136118Y-123738624D01*
X93152556Y-123706349D01*
X93179926Y-123694133D01*
X93232068Y-123694950D01*
X93268884Y-123696061D01*
X93311961Y-123686528D01*
X93341475Y-123658026D01*
X93358286Y-123622935D01*
X93360161Y-123586175D01*
X93360074Y-123585961D01*
X93338279Y-123566098D01*
X93291632Y-123537192D01*
X93231278Y-123504886D01*
X93168360Y-123474823D01*
X93114023Y-123452646D01*
X93079410Y-123444000D01*
X93074260Y-123452467D01*
X93067778Y-123492309D01*
X93063339Y-123557371D01*
X93061692Y-123639385D01*
X93061309Y-123696153D01*
X93059505Y-123767648D01*
X93056558Y-123816610D01*
X93052843Y-123834769D01*
X93033424Y-123828667D01*
X92994227Y-123812095D01*
X92944462Y-123789420D01*
X92944462Y-123498509D01*
X92944780Y-123423940D01*
X92947789Y-123310701D01*
X92955454Y-123226692D01*
X92969562Y-123165520D01*
X92991899Y-123120795D01*
X93024253Y-123086124D01*
X93068410Y-123055117D01*
X93124667Y-123029528D01*
X93228540Y-123014154D01*
X93275936Y-123015911D01*
G36*
X94974839Y-123500652D02*
G01*
X94963810Y-123604507D01*
X94939814Y-123682333D01*
X94900043Y-123741760D01*
X94841688Y-123790418D01*
X94786100Y-123818546D01*
X94692751Y-123834199D01*
X94599530Y-123817084D01*
X94515272Y-123769388D01*
X94448818Y-123693294D01*
X94440793Y-123679262D01*
X94430196Y-123654679D01*
X94422335Y-123623309D01*
X94416807Y-123579769D01*
X94413206Y-123518678D01*
X94411128Y-123434655D01*
X94411064Y-123427200D01*
X94546615Y-123427200D01*
X94547077Y-123498316D01*
X94549999Y-123562641D01*
X94557221Y-123604166D01*
X94570561Y-123632067D01*
X94591836Y-123655517D01*
X94596821Y-123660025D01*
X94660863Y-123693295D01*
X94728625Y-123689890D01*
X94791734Y-123650042D01*
X94810526Y-123629398D01*
X94826254Y-123602029D01*
X94835039Y-123564192D01*
X94838859Y-123506355D01*
X94839692Y-123418986D01*
X94839281Y-123352319D01*
X94836434Y-123287245D01*
X94829256Y-123245251D01*
X94815889Y-123217063D01*
X94794472Y-123193406D01*
X94781890Y-123182753D01*
X94716699Y-123154057D01*
X94648400Y-123158575D01*
X94589098Y-123196144D01*
X94576333Y-123211040D01*
X94560764Y-123239089D01*
X94551762Y-123278258D01*
X94547617Y-123337858D01*
X94546615Y-123427200D01*
X94411064Y-123427200D01*
X94410167Y-123322320D01*
X94409919Y-123176289D01*
X94409846Y-122722963D01*
X94473346Y-122749564D01*
X94490136Y-122756845D01*
X94516859Y-122773287D01*
X94532156Y-122798187D01*
X94540563Y-122841732D01*
X94546615Y-122914106D01*
X94552144Y-122979089D01*
X94559450Y-123021750D01*
X94569918Y-123037670D01*
X94585692Y-123033400D01*
X94625890Y-123018397D01*
X94697728Y-123014678D01*
X94775010Y-123028572D01*
X94841688Y-123058505D01*
X94878371Y-123086211D01*
X94925472Y-123140269D01*
X94955638Y-123209577D01*
X94971678Y-123301765D01*
X94976191Y-123418986D01*
X94976401Y-123424462D01*
X94974839Y-123500652D01*
G37*
X94974839Y-123500652D02*
X94963810Y-123604507D01*
X94939814Y-123682333D01*
X94900043Y-123741760D01*
X94841688Y-123790418D01*
X94786100Y-123818546D01*
X94692751Y-123834199D01*
X94599530Y-123817084D01*
X94515272Y-123769388D01*
X94448818Y-123693294D01*
X94440793Y-123679262D01*
X94430196Y-123654679D01*
X94422335Y-123623309D01*
X94416807Y-123579769D01*
X94413206Y-123518678D01*
X94411128Y-123434655D01*
X94411064Y-123427200D01*
X94546615Y-123427200D01*
X94547077Y-123498316D01*
X94549999Y-123562641D01*
X94557221Y-123604166D01*
X94570561Y-123632067D01*
X94591836Y-123655517D01*
X94596821Y-123660025D01*
X94660863Y-123693295D01*
X94728625Y-123689890D01*
X94791734Y-123650042D01*
X94810526Y-123629398D01*
X94826254Y-123602029D01*
X94835039Y-123564192D01*
X94838859Y-123506355D01*
X94839692Y-123418986D01*
X94839281Y-123352319D01*
X94836434Y-123287245D01*
X94829256Y-123245251D01*
X94815889Y-123217063D01*
X94794472Y-123193406D01*
X94781890Y-123182753D01*
X94716699Y-123154057D01*
X94648400Y-123158575D01*
X94589098Y-123196144D01*
X94576333Y-123211040D01*
X94560764Y-123239089D01*
X94551762Y-123278258D01*
X94547617Y-123337858D01*
X94546615Y-123427200D01*
X94411064Y-123427200D01*
X94410167Y-123322320D01*
X94409919Y-123176289D01*
X94409846Y-122722963D01*
X94473346Y-122749564D01*
X94490136Y-122756845D01*
X94516859Y-122773287D01*
X94532156Y-122798187D01*
X94540563Y-122841732D01*
X94546615Y-122914106D01*
X94552144Y-122979089D01*
X94559450Y-123021750D01*
X94569918Y-123037670D01*
X94585692Y-123033400D01*
X94625890Y-123018397D01*
X94697728Y-123014678D01*
X94775010Y-123028572D01*
X94841688Y-123058505D01*
X94878371Y-123086211D01*
X94925472Y-123140269D01*
X94955638Y-123209577D01*
X94971678Y-123301765D01*
X94976191Y-123418986D01*
X94976401Y-123424462D01*
X94974839Y-123500652D01*
G36*
X94199998Y-123020034D02*
G01*
X94242850Y-123036829D01*
X94292615Y-123059503D01*
X94292615Y-123714533D01*
X94230785Y-123776363D01*
X94216662Y-123790228D01*
X94177536Y-123821046D01*
X94138078Y-123831028D01*
X94079362Y-123826433D01*
X94055456Y-123823462D01*
X93993801Y-123817176D01*
X93950692Y-123814672D01*
X93937905Y-123815055D01*
X93885446Y-123819200D01*
X93822022Y-123826433D01*
X93801730Y-123828918D01*
X93750610Y-123829895D01*
X93713207Y-123814462D01*
X93670599Y-123776363D01*
X93608769Y-123714533D01*
X93608769Y-123364343D01*
X93609251Y-123260857D01*
X93610753Y-123162192D01*
X93613089Y-123084068D01*
X93616071Y-123032662D01*
X93619509Y-123014154D01*
X93620230Y-123014204D01*
X93645203Y-123023413D01*
X93687399Y-123043707D01*
X93744549Y-123073261D01*
X93749928Y-123380746D01*
X93755308Y-123688231D01*
X93872539Y-123688231D01*
X93877885Y-123351192D01*
X93879579Y-123259574D01*
X93882005Y-123161649D01*
X93884634Y-123083906D01*
X93887246Y-123032642D01*
X93889623Y-123014154D01*
X93890306Y-123014219D01*
X93913996Y-123021020D01*
X93957546Y-123035604D01*
X94019077Y-123057054D01*
X94019376Y-123353104D01*
X94019676Y-123404532D01*
X94021754Y-123504466D01*
X94025470Y-123587925D01*
X94030430Y-123647377D01*
X94036240Y-123675287D01*
X94057024Y-123690214D01*
X94099440Y-123694825D01*
X94146077Y-123688231D01*
X94151423Y-123351192D01*
X94153336Y-123265546D01*
X94157303Y-123164172D01*
X94162491Y-123084655D01*
X94168499Y-123032736D01*
X94174927Y-123014154D01*
X94199998Y-123020034D01*
G37*
X94199998Y-123020034D02*
X94242850Y-123036829D01*
X94292615Y-123059503D01*
X94292615Y-123714533D01*
X94230785Y-123776363D01*
X94216662Y-123790228D01*
X94177536Y-123821046D01*
X94138078Y-123831028D01*
X94079362Y-123826433D01*
X94055456Y-123823462D01*
X93993801Y-123817176D01*
X93950692Y-123814672D01*
X93937905Y-123815055D01*
X93885446Y-123819200D01*
X93822022Y-123826433D01*
X93801730Y-123828918D01*
X93750610Y-123829895D01*
X93713207Y-123814462D01*
X93670599Y-123776363D01*
X93608769Y-123714533D01*
X93608769Y-123364343D01*
X93609251Y-123260857D01*
X93610753Y-123162192D01*
X93613089Y-123084068D01*
X93616071Y-123032662D01*
X93619509Y-123014154D01*
X93620230Y-123014204D01*
X93645203Y-123023413D01*
X93687399Y-123043707D01*
X93744549Y-123073261D01*
X93749928Y-123380746D01*
X93755308Y-123688231D01*
X93872539Y-123688231D01*
X93877885Y-123351192D01*
X93879579Y-123259574D01*
X93882005Y-123161649D01*
X93884634Y-123083906D01*
X93887246Y-123032642D01*
X93889623Y-123014154D01*
X93890306Y-123014219D01*
X93913996Y-123021020D01*
X93957546Y-123035604D01*
X94019077Y-123057054D01*
X94019376Y-123353104D01*
X94019676Y-123404532D01*
X94021754Y-123504466D01*
X94025470Y-123587925D01*
X94030430Y-123647377D01*
X94036240Y-123675287D01*
X94057024Y-123690214D01*
X94099440Y-123694825D01*
X94146077Y-123688231D01*
X94151423Y-123351192D01*
X94153336Y-123265546D01*
X94157303Y-123164172D01*
X94162491Y-123084655D01*
X94168499Y-123032736D01*
X94174927Y-123014154D01*
X94199998Y-123020034D01*
G36*
X100408135Y-123426105D02*
G01*
X100407076Y-123520584D01*
X100403436Y-123586414D01*
X100395892Y-123632394D01*
X100383122Y-123667321D01*
X100363803Y-123699995D01*
X100359050Y-123706775D01*
X100308759Y-123760231D01*
X100251457Y-123800547D01*
X100222032Y-123813629D01*
X100116299Y-123835450D01*
X100011734Y-123821336D01*
X99915368Y-123773105D01*
X99834235Y-123692579D01*
X99827385Y-123681791D01*
X99805097Y-123619153D01*
X99790079Y-123531935D01*
X99782792Y-123431210D01*
X99783611Y-123338037D01*
X99980796Y-123338037D01*
X99982349Y-123467114D01*
X99982974Y-123475420D01*
X99992077Y-123546643D01*
X100008288Y-123591809D01*
X100035660Y-123622752D01*
X100081553Y-123651737D01*
X100126942Y-123653261D01*
X100173692Y-123619846D01*
X100181824Y-123611053D01*
X100197754Y-123584741D01*
X100207159Y-123546520D01*
X100211632Y-123487349D01*
X100212769Y-123398182D01*
X100210822Y-123314664D01*
X100201105Y-123235095D01*
X100181047Y-123184808D01*
X100148240Y-123158513D01*
X100100280Y-123150923D01*
X100082016Y-123152432D01*
X100030848Y-123180107D01*
X99997035Y-123242172D01*
X99980796Y-123338037D01*
X99783611Y-123338037D01*
X99783699Y-123328052D01*
X99793262Y-123233533D01*
X99811943Y-123158727D01*
X99835951Y-123108905D01*
X99903536Y-123031409D01*
X99995114Y-122983256D01*
X100107213Y-122966703D01*
X100137151Y-122967599D01*
X100225315Y-122985929D01*
X100297733Y-123032104D01*
X100364192Y-123111648D01*
X100368147Y-123117548D01*
X100386040Y-123149288D01*
X100397678Y-123185163D01*
X100404371Y-123233906D01*
X100407426Y-123304249D01*
X100408106Y-123398182D01*
X100408154Y-123404923D01*
X100408135Y-123426105D01*
G37*
X100408135Y-123426105D02*
X100407076Y-123520584D01*
X100403436Y-123586414D01*
X100395892Y-123632394D01*
X100383122Y-123667321D01*
X100363803Y-123699995D01*
X100359050Y-123706775D01*
X100308759Y-123760231D01*
X100251457Y-123800547D01*
X100222032Y-123813629D01*
X100116299Y-123835450D01*
X100011734Y-123821336D01*
X99915368Y-123773105D01*
X99834235Y-123692579D01*
X99827385Y-123681791D01*
X99805097Y-123619153D01*
X99790079Y-123531935D01*
X99782792Y-123431210D01*
X99783611Y-123338037D01*
X99980796Y-123338037D01*
X99982349Y-123467114D01*
X99982974Y-123475420D01*
X99992077Y-123546643D01*
X100008288Y-123591809D01*
X100035660Y-123622752D01*
X100081553Y-123651737D01*
X100126942Y-123653261D01*
X100173692Y-123619846D01*
X100181824Y-123611053D01*
X100197754Y-123584741D01*
X100207159Y-123546520D01*
X100211632Y-123487349D01*
X100212769Y-123398182D01*
X100210822Y-123314664D01*
X100201105Y-123235095D01*
X100181047Y-123184808D01*
X100148240Y-123158513D01*
X100100280Y-123150923D01*
X100082016Y-123152432D01*
X100030848Y-123180107D01*
X99997035Y-123242172D01*
X99980796Y-123338037D01*
X99783611Y-123338037D01*
X99783699Y-123328052D01*
X99793262Y-123233533D01*
X99811943Y-123158727D01*
X99835951Y-123108905D01*
X99903536Y-123031409D01*
X99995114Y-122983256D01*
X100107213Y-122966703D01*
X100137151Y-122967599D01*
X100225315Y-122985929D01*
X100297733Y-123032104D01*
X100364192Y-123111648D01*
X100368147Y-123117548D01*
X100386040Y-123149288D01*
X100397678Y-123185163D01*
X100404371Y-123233906D01*
X100407426Y-123304249D01*
X100408106Y-123398182D01*
X100408154Y-123404923D01*
X100408135Y-123426105D01*
G36*
X96132458Y-123035228D02*
G01*
X96199622Y-123074389D01*
X96229169Y-123104902D01*
X96285948Y-123196110D01*
X96305077Y-123295548D01*
X96305077Y-123363960D01*
X96242191Y-123337518D01*
X96198700Y-123310837D01*
X96164426Y-123255446D01*
X96160907Y-123244024D01*
X96123028Y-123185838D01*
X96065936Y-123154407D01*
X96000383Y-123153058D01*
X95937117Y-123185116D01*
X95927672Y-123193383D01*
X95896087Y-123229311D01*
X95890871Y-123260635D01*
X95914765Y-123291391D01*
X95970510Y-123325617D01*
X96060846Y-123367350D01*
X96066956Y-123369993D01*
X96167241Y-123416755D01*
X96235735Y-123458181D01*
X96277899Y-123499542D01*
X96299193Y-123546111D01*
X96305077Y-123603160D01*
X96297366Y-123666408D01*
X96258430Y-123747364D01*
X96189932Y-123805522D01*
X96140388Y-123822983D01*
X96070469Y-123832537D01*
X96002575Y-123830496D01*
X95954093Y-123816082D01*
X95948943Y-123812493D01*
X95935267Y-123787416D01*
X95944757Y-123743218D01*
X95961246Y-123708527D01*
X95987687Y-123694084D01*
X96037834Y-123694803D01*
X96107453Y-123690660D01*
X96152943Y-123662054D01*
X96168308Y-123609104D01*
X96168294Y-123607582D01*
X96158983Y-123576845D01*
X96127311Y-123548643D01*
X96065731Y-123516136D01*
X95981986Y-123476998D01*
X95926518Y-123455706D01*
X95894497Y-123457079D01*
X95879534Y-123485203D01*
X95875242Y-123544170D01*
X95875231Y-123638068D01*
X95874752Y-123696031D01*
X95872556Y-123767612D01*
X95868986Y-123816606D01*
X95864491Y-123834769D01*
X95863290Y-123834646D01*
X95837319Y-123824802D01*
X95794305Y-123804028D01*
X95734859Y-123773287D01*
X95741923Y-123496298D01*
X95742414Y-123477928D01*
X95748025Y-123348992D01*
X95757938Y-123251814D01*
X95774175Y-123179925D01*
X95798759Y-123126852D01*
X95833715Y-123086127D01*
X95881064Y-123051279D01*
X95881940Y-123050733D01*
X95958499Y-123022303D01*
X96047044Y-123017500D01*
X96132458Y-123035228D01*
G37*
X96132458Y-123035228D02*
X96199622Y-123074389D01*
X96229169Y-123104902D01*
X96285948Y-123196110D01*
X96305077Y-123295548D01*
X96305077Y-123363960D01*
X96242191Y-123337518D01*
X96198700Y-123310837D01*
X96164426Y-123255446D01*
X96160907Y-123244024D01*
X96123028Y-123185838D01*
X96065936Y-123154407D01*
X96000383Y-123153058D01*
X95937117Y-123185116D01*
X95927672Y-123193383D01*
X95896087Y-123229311D01*
X95890871Y-123260635D01*
X95914765Y-123291391D01*
X95970510Y-123325617D01*
X96060846Y-123367350D01*
X96066956Y-123369993D01*
X96167241Y-123416755D01*
X96235735Y-123458181D01*
X96277899Y-123499542D01*
X96299193Y-123546111D01*
X96305077Y-123603160D01*
X96297366Y-123666408D01*
X96258430Y-123747364D01*
X96189932Y-123805522D01*
X96140388Y-123822983D01*
X96070469Y-123832537D01*
X96002575Y-123830496D01*
X95954093Y-123816082D01*
X95948943Y-123812493D01*
X95935267Y-123787416D01*
X95944757Y-123743218D01*
X95961246Y-123708527D01*
X95987687Y-123694084D01*
X96037834Y-123694803D01*
X96107453Y-123690660D01*
X96152943Y-123662054D01*
X96168308Y-123609104D01*
X96168294Y-123607582D01*
X96158983Y-123576845D01*
X96127311Y-123548643D01*
X96065731Y-123516136D01*
X95981986Y-123476998D01*
X95926518Y-123455706D01*
X95894497Y-123457079D01*
X95879534Y-123485203D01*
X95875242Y-123544170D01*
X95875231Y-123638068D01*
X95874752Y-123696031D01*
X95872556Y-123767612D01*
X95868986Y-123816606D01*
X95864491Y-123834769D01*
X95863290Y-123834646D01*
X95837319Y-123824802D01*
X95794305Y-123804028D01*
X95734859Y-123773287D01*
X95741923Y-123496298D01*
X95742414Y-123477928D01*
X95748025Y-123348992D01*
X95757938Y-123251814D01*
X95774175Y-123179925D01*
X95798759Y-123126852D01*
X95833715Y-123086127D01*
X95881064Y-123051279D01*
X95881940Y-123050733D01*
X95958499Y-123022303D01*
X96047044Y-123017500D01*
X96132458Y-123035228D01*
G36*
X97938372Y-122977684D02*
G01*
X98029629Y-123020569D01*
X98104416Y-123094729D01*
X98119917Y-123117944D01*
X98132774Y-123144256D01*
X98141893Y-123177420D01*
X98148102Y-123223881D01*
X98152233Y-123290082D01*
X98155116Y-123382468D01*
X98157579Y-123507485D01*
X98163697Y-123854278D01*
X98112303Y-123834738D01*
X98065246Y-123816787D01*
X98030015Y-123799511D01*
X98007017Y-123777242D01*
X97993655Y-123743165D01*
X97987328Y-123690463D01*
X97985437Y-123612323D01*
X97985385Y-123501928D01*
X97985117Y-123413935D01*
X97983521Y-123329502D01*
X97979712Y-123271834D01*
X97972820Y-123233988D01*
X97961975Y-123209024D01*
X97946308Y-123190000D01*
X97907792Y-123163153D01*
X97843091Y-123153034D01*
X97779081Y-123178606D01*
X97774856Y-123181880D01*
X97761689Y-123197007D01*
X97751975Y-123221268D01*
X97744903Y-123260650D01*
X97739656Y-123321141D01*
X97735421Y-123408729D01*
X97731385Y-123529402D01*
X97721615Y-123852515D01*
X97555539Y-123778065D01*
X97555539Y-123483062D01*
X97555883Y-123402919D01*
X97558847Y-123291431D01*
X97566351Y-123208421D01*
X97580190Y-123147199D01*
X97602155Y-123101075D01*
X97634039Y-123063358D01*
X97677633Y-123027358D01*
X97740336Y-122991089D01*
X97839117Y-122967412D01*
X97938372Y-122977684D01*
G37*
X97938372Y-122977684D02*
X98029629Y-123020569D01*
X98104416Y-123094729D01*
X98119917Y-123117944D01*
X98132774Y-123144256D01*
X98141893Y-123177420D01*
X98148102Y-123223881D01*
X98152233Y-123290082D01*
X98155116Y-123382468D01*
X98157579Y-123507485D01*
X98163697Y-123854278D01*
X98112303Y-123834738D01*
X98065246Y-123816787D01*
X98030015Y-123799511D01*
X98007017Y-123777242D01*
X97993655Y-123743165D01*
X97987328Y-123690463D01*
X97985437Y-123612323D01*
X97985385Y-123501928D01*
X97985117Y-123413935D01*
X97983521Y-123329502D01*
X97979712Y-123271834D01*
X97972820Y-123233988D01*
X97961975Y-123209024D01*
X97946308Y-123190000D01*
X97907792Y-123163153D01*
X97843091Y-123153034D01*
X97779081Y-123178606D01*
X97774856Y-123181880D01*
X97761689Y-123197007D01*
X97751975Y-123221268D01*
X97744903Y-123260650D01*
X97739656Y-123321141D01*
X97735421Y-123408729D01*
X97731385Y-123529402D01*
X97721615Y-123852515D01*
X97555539Y-123778065D01*
X97555539Y-123483062D01*
X97555883Y-123402919D01*
X97558847Y-123291431D01*
X97566351Y-123208421D01*
X97580190Y-123147199D01*
X97602155Y-123101075D01*
X97634039Y-123063358D01*
X97677633Y-123027358D01*
X97740336Y-122991089D01*
X97839117Y-122967412D01*
X97938372Y-122977684D01*
G36*
X95483892Y-123043167D02*
G01*
X95490060Y-123046581D01*
X95540447Y-123085692D01*
X95585498Y-123135975D01*
X95593355Y-123147339D01*
X95608376Y-123173860D01*
X95619107Y-123205336D01*
X95626486Y-123248591D01*
X95631452Y-123310449D01*
X95634942Y-123397733D01*
X95637893Y-123517269D01*
X95638311Y-123537478D01*
X95639654Y-123668499D01*
X95637761Y-123761296D01*
X95632605Y-123816507D01*
X95624158Y-123834769D01*
X95598594Y-123829301D01*
X95555166Y-123812733D01*
X95544940Y-123807888D01*
X95528967Y-123796920D01*
X95517954Y-123778890D01*
X95510750Y-123747396D01*
X95506208Y-123696036D01*
X95503180Y-123618410D01*
X95500516Y-123508115D01*
X95499785Y-123475875D01*
X95496965Y-123374050D01*
X95493304Y-123302788D01*
X95487694Y-123255332D01*
X95479029Y-123224925D01*
X95466202Y-123204810D01*
X95448105Y-123188229D01*
X95394525Y-123159161D01*
X95328612Y-123153564D01*
X95269635Y-123175807D01*
X95227203Y-123221859D01*
X95210923Y-123287692D01*
X95210470Y-123305587D01*
X95201578Y-123337982D01*
X95175325Y-123342925D01*
X95123919Y-123323633D01*
X95112013Y-123317446D01*
X95079835Y-123281058D01*
X95079198Y-123226954D01*
X95109856Y-123152128D01*
X95137978Y-123111350D01*
X95209883Y-123053421D01*
X95298638Y-123020670D01*
X95393542Y-123016212D01*
X95483892Y-123043167D01*
G37*
X95483892Y-123043167D02*
X95490060Y-123046581D01*
X95540447Y-123085692D01*
X95585498Y-123135975D01*
X95593355Y-123147339D01*
X95608376Y-123173860D01*
X95619107Y-123205336D01*
X95626486Y-123248591D01*
X95631452Y-123310449D01*
X95634942Y-123397733D01*
X95637893Y-123517269D01*
X95638311Y-123537478D01*
X95639654Y-123668499D01*
X95637761Y-123761296D01*
X95632605Y-123816507D01*
X95624158Y-123834769D01*
X95598594Y-123829301D01*
X95555166Y-123812733D01*
X95544940Y-123807888D01*
X95528967Y-123796920D01*
X95517954Y-123778890D01*
X95510750Y-123747396D01*
X95506208Y-123696036D01*
X95503180Y-123618410D01*
X95500516Y-123508115D01*
X95499785Y-123475875D01*
X95496965Y-123374050D01*
X95493304Y-123302788D01*
X95487694Y-123255332D01*
X95479029Y-123224925D01*
X95466202Y-123204810D01*
X95448105Y-123188229D01*
X95394525Y-123159161D01*
X95328612Y-123153564D01*
X95269635Y-123175807D01*
X95227203Y-123221859D01*
X95210923Y-123287692D01*
X95210470Y-123305587D01*
X95201578Y-123337982D01*
X95175325Y-123342925D01*
X95123919Y-123323633D01*
X95112013Y-123317446D01*
X95079835Y-123281058D01*
X95079198Y-123226954D01*
X95109856Y-123152128D01*
X95137978Y-123111350D01*
X95209883Y-123053421D01*
X95298638Y-123020670D01*
X95393542Y-123016212D01*
X95483892Y-123043167D01*
G36*
X98916574Y-123497643D02*
G01*
X98913066Y-123529021D01*
X98886927Y-123640705D01*
X98839694Y-123725642D01*
X98767862Y-123790741D01*
X98763802Y-123793428D01*
X98672487Y-123831634D01*
X98577144Y-123835034D01*
X98485274Y-123805939D01*
X98404379Y-123746660D01*
X98341962Y-123659510D01*
X98340914Y-123657409D01*
X98320173Y-123603289D01*
X98304980Y-123541781D01*
X98296921Y-123484039D01*
X98297582Y-123441215D01*
X98308548Y-123424462D01*
X98318290Y-123425480D01*
X98364877Y-123444009D01*
X98417682Y-123478081D01*
X98462603Y-123517522D01*
X98485535Y-123552155D01*
X98509373Y-123599133D01*
X98558230Y-123641862D01*
X98614963Y-123658923D01*
X98635758Y-123653990D01*
X98676804Y-123629157D01*
X98712557Y-123594685D01*
X98727846Y-123563411D01*
X98727842Y-123563295D01*
X98710495Y-123548933D01*
X98664247Y-123523025D01*
X98596067Y-123489210D01*
X98512923Y-123451129D01*
X98512466Y-123450927D01*
X98422138Y-123410709D01*
X98361592Y-123381733D01*
X98324888Y-123359474D01*
X98306086Y-123339407D01*
X98299246Y-123317009D01*
X98298429Y-123287756D01*
X98304113Y-123232363D01*
X98497000Y-123232363D01*
X98516911Y-123249777D01*
X98566521Y-123275872D01*
X98567976Y-123276610D01*
X98626506Y-123304483D01*
X98678868Y-123326719D01*
X98712086Y-123336126D01*
X98725410Y-123323552D01*
X98727846Y-123280468D01*
X98717724Y-123226847D01*
X98682631Y-123178119D01*
X98631823Y-123152856D01*
X98575181Y-123155406D01*
X98522584Y-123190120D01*
X98501910Y-123214107D01*
X98497000Y-123232363D01*
X98304113Y-123232363D01*
X98305622Y-123217654D01*
X98341184Y-123122412D01*
X98400714Y-123047567D01*
X98477746Y-122995745D01*
X98565815Y-122969573D01*
X98658454Y-122971676D01*
X98749198Y-123004681D01*
X98831579Y-123071215D01*
X98877222Y-123137055D01*
X98910008Y-123231036D01*
X98915339Y-123280468D01*
X98922787Y-123349536D01*
X98916574Y-123497643D01*
G37*
X98916574Y-123497643D02*
X98913066Y-123529021D01*
X98886927Y-123640705D01*
X98839694Y-123725642D01*
X98767862Y-123790741D01*
X98763802Y-123793428D01*
X98672487Y-123831634D01*
X98577144Y-123835034D01*
X98485274Y-123805939D01*
X98404379Y-123746660D01*
X98341962Y-123659510D01*
X98340914Y-123657409D01*
X98320173Y-123603289D01*
X98304980Y-123541781D01*
X98296921Y-123484039D01*
X98297582Y-123441215D01*
X98308548Y-123424462D01*
X98318290Y-123425480D01*
X98364877Y-123444009D01*
X98417682Y-123478081D01*
X98462603Y-123517522D01*
X98485535Y-123552155D01*
X98509373Y-123599133D01*
X98558230Y-123641862D01*
X98614963Y-123658923D01*
X98635758Y-123653990D01*
X98676804Y-123629157D01*
X98712557Y-123594685D01*
X98727846Y-123563411D01*
X98727842Y-123563295D01*
X98710495Y-123548933D01*
X98664247Y-123523025D01*
X98596067Y-123489210D01*
X98512923Y-123451129D01*
X98512466Y-123450927D01*
X98422138Y-123410709D01*
X98361592Y-123381733D01*
X98324888Y-123359474D01*
X98306086Y-123339407D01*
X98299246Y-123317009D01*
X98298429Y-123287756D01*
X98304113Y-123232363D01*
X98497000Y-123232363D01*
X98516911Y-123249777D01*
X98566521Y-123275872D01*
X98567976Y-123276610D01*
X98626506Y-123304483D01*
X98678868Y-123326719D01*
X98712086Y-123336126D01*
X98725410Y-123323552D01*
X98727846Y-123280468D01*
X98717724Y-123226847D01*
X98682631Y-123178119D01*
X98631823Y-123152856D01*
X98575181Y-123155406D01*
X98522584Y-123190120D01*
X98501910Y-123214107D01*
X98497000Y-123232363D01*
X98304113Y-123232363D01*
X98305622Y-123217654D01*
X98341184Y-123122412D01*
X98400714Y-123047567D01*
X98477746Y-122995745D01*
X98565815Y-122969573D01*
X98658454Y-122971676D01*
X98749198Y-123004681D01*
X98831579Y-123071215D01*
X98877222Y-123137055D01*
X98910008Y-123231036D01*
X98915339Y-123280468D01*
X98922787Y-123349536D01*
X98916574Y-123497643D01*
G36*
X92162413Y-123480449D02*
G01*
X92157641Y-123583047D01*
X92145150Y-123658126D01*
X92122121Y-123713748D01*
X92085732Y-123757975D01*
X92033162Y-123798869D01*
X91999714Y-123817466D01*
X91946098Y-123829991D01*
X91870780Y-123829003D01*
X91828672Y-123825035D01*
X91777879Y-123812920D01*
X91737280Y-123786585D01*
X91690049Y-123737514D01*
X91683738Y-123730346D01*
X91641277Y-123675189D01*
X91621018Y-123627150D01*
X91615846Y-123570184D01*
X91615846Y-123486471D01*
X91674346Y-123508552D01*
X91716994Y-123534364D01*
X91754064Y-123594928D01*
X91761803Y-123614320D01*
X91805074Y-123669235D01*
X91863976Y-123696879D01*
X91928111Y-123694393D01*
X91987077Y-123658923D01*
X92007342Y-123636805D01*
X92025720Y-123603436D01*
X92019971Y-123573117D01*
X91986887Y-123541913D01*
X91923261Y-123505887D01*
X91825885Y-123461103D01*
X91625615Y-123373445D01*
X91620301Y-123286607D01*
X91622299Y-123231296D01*
X91752783Y-123231296D01*
X91762688Y-123265538D01*
X91807756Y-123302096D01*
X91889557Y-123343692D01*
X91903092Y-123349718D01*
X91967818Y-123377753D01*
X92016247Y-123397472D01*
X92038751Y-123404923D01*
X92042161Y-123399438D01*
X92043529Y-123365948D01*
X92038651Y-123312116D01*
X92026364Y-123259473D01*
X91988041Y-123193151D01*
X91932720Y-123155780D01*
X91866640Y-123150721D01*
X91796040Y-123181339D01*
X91776474Y-123196648D01*
X91752783Y-123231296D01*
X91622299Y-123231296D01*
X91622647Y-123221663D01*
X91652186Y-123139590D01*
X91689472Y-123094361D01*
X91766776Y-123043838D01*
X91858478Y-123018316D01*
X91953274Y-123020336D01*
X92039859Y-123052440D01*
X92058920Y-123064767D01*
X92102640Y-123102912D01*
X92132540Y-123151167D01*
X92150968Y-123216710D01*
X92160270Y-123306720D01*
X92161499Y-123365948D01*
X92162794Y-123428376D01*
X92162413Y-123480449D01*
G37*
X92162413Y-123480449D02*
X92157641Y-123583047D01*
X92145150Y-123658126D01*
X92122121Y-123713748D01*
X92085732Y-123757975D01*
X92033162Y-123798869D01*
X91999714Y-123817466D01*
X91946098Y-123829991D01*
X91870780Y-123829003D01*
X91828672Y-123825035D01*
X91777879Y-123812920D01*
X91737280Y-123786585D01*
X91690049Y-123737514D01*
X91683738Y-123730346D01*
X91641277Y-123675189D01*
X91621018Y-123627150D01*
X91615846Y-123570184D01*
X91615846Y-123486471D01*
X91674346Y-123508552D01*
X91716994Y-123534364D01*
X91754064Y-123594928D01*
X91761803Y-123614320D01*
X91805074Y-123669235D01*
X91863976Y-123696879D01*
X91928111Y-123694393D01*
X91987077Y-123658923D01*
X92007342Y-123636805D01*
X92025720Y-123603436D01*
X92019971Y-123573117D01*
X91986887Y-123541913D01*
X91923261Y-123505887D01*
X91825885Y-123461103D01*
X91625615Y-123373445D01*
X91620301Y-123286607D01*
X91622299Y-123231296D01*
X91752783Y-123231296D01*
X91762688Y-123265538D01*
X91807756Y-123302096D01*
X91889557Y-123343692D01*
X91903092Y-123349718D01*
X91967818Y-123377753D01*
X92016247Y-123397472D01*
X92038751Y-123404923D01*
X92042161Y-123399438D01*
X92043529Y-123365948D01*
X92038651Y-123312116D01*
X92026364Y-123259473D01*
X91988041Y-123193151D01*
X91932720Y-123155780D01*
X91866640Y-123150721D01*
X91796040Y-123181339D01*
X91776474Y-123196648D01*
X91752783Y-123231296D01*
X91622299Y-123231296D01*
X91622647Y-123221663D01*
X91652186Y-123139590D01*
X91689472Y-123094361D01*
X91766776Y-123043838D01*
X91858478Y-123018316D01*
X91953274Y-123020336D01*
X92039859Y-123052440D01*
X92058920Y-123064767D01*
X92102640Y-123102912D01*
X92132540Y-123151167D01*
X92150968Y-123216710D01*
X92160270Y-123306720D01*
X92161499Y-123365948D01*
X92162794Y-123428376D01*
X92162413Y-123480449D01*
G36*
X96029575Y-116683693D02*
G01*
X96165371Y-116683807D01*
X96267576Y-116684472D01*
X96341122Y-116686182D01*
X96390942Y-116689429D01*
X96421967Y-116694706D01*
X96439129Y-116702507D01*
X96447361Y-116713325D01*
X96451594Y-116727654D01*
X96451716Y-116728168D01*
X96458672Y-116761851D01*
X96471320Y-116826917D01*
X96488360Y-116916542D01*
X96508496Y-117023904D01*
X96530429Y-117142178D01*
X96532218Y-117151856D01*
X96554083Y-117266650D01*
X96574430Y-117367480D01*
X96591934Y-117448217D01*
X96605271Y-117502734D01*
X96613116Y-117524901D01*
X96613158Y-117524936D01*
X96637884Y-117537200D01*
X96688631Y-117557576D01*
X96754462Y-117581674D01*
X96758169Y-117582983D01*
X96842331Y-117614791D01*
X96940230Y-117654685D01*
X97031435Y-117694353D01*
X97181407Y-117762420D01*
X97513499Y-117535639D01*
X97536889Y-117519688D01*
X97637080Y-117451890D01*
X97726480Y-117392208D01*
X97799745Y-117344156D01*
X97851527Y-117311250D01*
X97876480Y-117297004D01*
X97893577Y-117300270D01*
X97932395Y-117325571D01*
X97992385Y-117375675D01*
X98075210Y-117451989D01*
X98182535Y-117555922D01*
X98192139Y-117565382D01*
X98277302Y-117650145D01*
X98352949Y-117726937D01*
X98414449Y-117790947D01*
X98457173Y-117837361D01*
X98476489Y-117861369D01*
X98476552Y-117861485D01*
X98479006Y-117879763D01*
X98469956Y-117909411D01*
X98447119Y-117954486D01*
X98408213Y-118019044D01*
X98350954Y-118107140D01*
X98273059Y-118222830D01*
X98259785Y-118242357D01*
X98192652Y-118341278D01*
X98133410Y-118428848D01*
X98085588Y-118499831D01*
X98052715Y-118548991D01*
X98038318Y-118571095D01*
X98037232Y-118575777D01*
X98044044Y-118610710D01*
X98064450Y-118667753D01*
X98095123Y-118737172D01*
X98136808Y-118827959D01*
X98183352Y-118935686D01*
X98222877Y-119033192D01*
X98232676Y-119058430D01*
X98258340Y-119122870D01*
X98277193Y-119167763D01*
X98285710Y-119184616D01*
X98295111Y-119185875D01*
X98337363Y-119193159D01*
X98406521Y-119205739D01*
X98495387Y-119222246D01*
X98596768Y-119241312D01*
X98703467Y-119261569D01*
X98808288Y-119281647D01*
X98904036Y-119300179D01*
X98983516Y-119315795D01*
X99039530Y-119327127D01*
X99064885Y-119332807D01*
X99069088Y-119334408D01*
X99079334Y-119343045D01*
X99086957Y-119361433D01*
X99092338Y-119394460D01*
X99095859Y-119447013D01*
X99097901Y-119523979D01*
X99098847Y-119630246D01*
X99099077Y-119770701D01*
X99099077Y-120197845D01*
X98996500Y-120218091D01*
X98984092Y-120220518D01*
X98918199Y-120233088D01*
X98827084Y-120250170D01*
X98721104Y-120269829D01*
X98610615Y-120290132D01*
X98567105Y-120298299D01*
X98469882Y-120318167D01*
X98388858Y-120336954D01*
X98331477Y-120352859D01*
X98305187Y-120364079D01*
X98293273Y-120382411D01*
X98271583Y-120430916D01*
X98249395Y-120493692D01*
X98241585Y-120517200D01*
X98212835Y-120594366D01*
X98175752Y-120685694D01*
X98136375Y-120776093D01*
X98115315Y-120823310D01*
X98085311Y-120893837D01*
X98064692Y-120946655D01*
X98057026Y-120972912D01*
X98057452Y-120974894D01*
X98071993Y-121002751D01*
X98104783Y-121056510D01*
X98152493Y-121130963D01*
X98211798Y-121220897D01*
X98279369Y-121321104D01*
X98501713Y-121647416D01*
X98209601Y-121940016D01*
X98181349Y-121968171D01*
X98094961Y-122052449D01*
X98017756Y-122125128D01*
X97954258Y-122182112D01*
X97908990Y-122219307D01*
X97886474Y-122232616D01*
X97862023Y-122222490D01*
X97810819Y-122193421D01*
X97738747Y-122148896D01*
X97651460Y-122092411D01*
X97554612Y-122027462D01*
X97459486Y-121963314D01*
X97373669Y-121906827D01*
X97303652Y-121862184D01*
X97254876Y-121832855D01*
X97232783Y-121822308D01*
X97231488Y-121822404D01*
X97202139Y-121832802D01*
X97150093Y-121857012D01*
X97085708Y-121890249D01*
X97085032Y-121890613D01*
X96999521Y-121933441D01*
X96940926Y-121954365D01*
X96904571Y-121954423D01*
X96885775Y-121934654D01*
X96877819Y-121915195D01*
X96856347Y-121863080D01*
X96823273Y-121782964D01*
X96780356Y-121679107D01*
X96729356Y-121555767D01*
X96672033Y-121417201D01*
X96610146Y-121267670D01*
X96554052Y-121131636D01*
X96496977Y-120992050D01*
X96446479Y-120867315D01*
X96404254Y-120761672D01*
X96371995Y-120679365D01*
X96351397Y-120624635D01*
X96344154Y-120601726D01*
X96357986Y-120580718D01*
X96396412Y-120545642D01*
X96450807Y-120504887D01*
X96581395Y-120398267D01*
X96698260Y-120262025D01*
X96783780Y-120112118D01*
X96837431Y-119952971D01*
X96858684Y-119789012D01*
X96847014Y-119624667D01*
X96801894Y-119464361D01*
X96722797Y-119312520D01*
X96609197Y-119173572D01*
X96549965Y-119119460D01*
X96408054Y-119023782D01*
X96256206Y-118961405D01*
X96098861Y-118930844D01*
X95940456Y-118930615D01*
X95785429Y-118959232D01*
X95638220Y-119015210D01*
X95503266Y-119097064D01*
X95385005Y-119203309D01*
X95287877Y-119332459D01*
X95216318Y-119483031D01*
X95174769Y-119653539D01*
X95167143Y-119735722D01*
X95177634Y-119913775D01*
X95224882Y-120082704D01*
X95307489Y-120239522D01*
X95424059Y-120381245D01*
X95573193Y-120504887D01*
X95625561Y-120543982D01*
X95664832Y-120579443D01*
X95679846Y-120601692D01*
X95673859Y-120621088D01*
X95654432Y-120673059D01*
X95623194Y-120753002D01*
X95581839Y-120856673D01*
X95532061Y-120979832D01*
X95475553Y-121118234D01*
X95414009Y-121267637D01*
X95358008Y-121403020D01*
X95300184Y-121542852D01*
X95248500Y-121667872D01*
X95204718Y-121773822D01*
X95170597Y-121856441D01*
X95147898Y-121911472D01*
X95138380Y-121934654D01*
X95138269Y-121934928D01*
X95119228Y-121954503D01*
X95082694Y-121954279D01*
X95023954Y-121933210D01*
X94938292Y-121890249D01*
X94931549Y-121886631D01*
X94867938Y-121854087D01*
X94817707Y-121831050D01*
X94791218Y-121822308D01*
X94769506Y-121832639D01*
X94720984Y-121861788D01*
X94651163Y-121906287D01*
X94565484Y-121962668D01*
X94469388Y-122027462D01*
X94374706Y-122090984D01*
X94287132Y-122147705D01*
X94214642Y-122192547D01*
X94162889Y-122222016D01*
X94137526Y-122232616D01*
X94133206Y-122231270D01*
X94103092Y-122210056D01*
X94051640Y-122166237D01*
X93983375Y-122103909D01*
X93902820Y-122027170D01*
X93814500Y-121940116D01*
X93522488Y-121647617D01*
X93977360Y-120978525D01*
X93908208Y-120828916D01*
X93908003Y-120828473D01*
X93866477Y-120733101D01*
X93824044Y-120626896D01*
X93789858Y-120532769D01*
X93784684Y-120517588D01*
X93758601Y-120447109D01*
X93735081Y-120392342D01*
X93718677Y-120364079D01*
X93711996Y-120360088D01*
X93671892Y-120346697D01*
X93603795Y-120329373D01*
X93515145Y-120309917D01*
X93413385Y-120290132D01*
X93382904Y-120284551D01*
X93272628Y-120264233D01*
X93169731Y-120245095D01*
X93084569Y-120229070D01*
X93027500Y-120218091D01*
X92924923Y-120197845D01*
X92924923Y-119770701D01*
X92924946Y-119718180D01*
X92925379Y-119590047D01*
X92926659Y-119494420D01*
X92929168Y-119426411D01*
X92933286Y-119381133D01*
X92939395Y-119353697D01*
X92947878Y-119339218D01*
X92959115Y-119332807D01*
X92969994Y-119330209D01*
X93014347Y-119321022D01*
X93085106Y-119306991D01*
X93175074Y-119289486D01*
X93277056Y-119269874D01*
X93383857Y-119249525D01*
X93488281Y-119229807D01*
X93583132Y-119212089D01*
X93661214Y-119197738D01*
X93715332Y-119188124D01*
X93738291Y-119184616D01*
X93739842Y-119182497D01*
X93752325Y-119155006D01*
X93773927Y-119102406D01*
X93801123Y-119033192D01*
X93838866Y-118939937D01*
X93885328Y-118832159D01*
X93928878Y-118737172D01*
X93938858Y-118715851D01*
X93966862Y-118649086D01*
X93983641Y-118597590D01*
X93985854Y-118571095D01*
X93984713Y-118569218D01*
X93966584Y-118541565D01*
X93930644Y-118487849D01*
X93880418Y-118413303D01*
X93819430Y-118323162D01*
X93751205Y-118222657D01*
X93674330Y-118108470D01*
X93616663Y-118019770D01*
X93577426Y-117954721D01*
X93554350Y-117909295D01*
X93545166Y-117879463D01*
X93547604Y-117861195D01*
X93548424Y-117859825D01*
X93570477Y-117833205D01*
X93615436Y-117784697D01*
X93678673Y-117719108D01*
X93755559Y-117641247D01*
X93841465Y-117555922D01*
X93930579Y-117469334D01*
X94017872Y-117387947D01*
X94082018Y-117333035D01*
X94124679Y-117303190D01*
X94147521Y-117297004D01*
X94150505Y-117298394D01*
X94181936Y-117317127D01*
X94238997Y-117353733D01*
X94316343Y-117404697D01*
X94408626Y-117466504D01*
X94510502Y-117535639D01*
X94842593Y-117762420D01*
X94992566Y-117694353D01*
X94996923Y-117692381D01*
X95089000Y-117652491D01*
X95186683Y-117612818D01*
X95269539Y-117581674D01*
X95269905Y-117581545D01*
X95335685Y-117557456D01*
X95386323Y-117537110D01*
X95410884Y-117524901D01*
X95411282Y-117524458D01*
X95419619Y-117499456D01*
X95433341Y-117442598D01*
X95451123Y-117360014D01*
X95471641Y-117257831D01*
X95493571Y-117142178D01*
X95494336Y-117138033D01*
X95516229Y-117020019D01*
X95536281Y-116913151D01*
X95553192Y-116824252D01*
X95565667Y-116760145D01*
X95572406Y-116727654D01*
X95572837Y-116725853D01*
X95577273Y-116711944D01*
X95586263Y-116701489D01*
X95604737Y-116693996D01*
X95637628Y-116688972D01*
X95689868Y-116685922D01*
X95766388Y-116684355D01*
X95872122Y-116683776D01*
X96012000Y-116683692D01*
X96029575Y-116683693D01*
G37*
X96029575Y-116683693D02*
X96165371Y-116683807D01*
X96267576Y-116684472D01*
X96341122Y-116686182D01*
X96390942Y-116689429D01*
X96421967Y-116694706D01*
X96439129Y-116702507D01*
X96447361Y-116713325D01*
X96451594Y-116727654D01*
X96451716Y-116728168D01*
X96458672Y-116761851D01*
X96471320Y-116826917D01*
X96488360Y-116916542D01*
X96508496Y-117023904D01*
X96530429Y-117142178D01*
X96532218Y-117151856D01*
X96554083Y-117266650D01*
X96574430Y-117367480D01*
X96591934Y-117448217D01*
X96605271Y-117502734D01*
X96613116Y-117524901D01*
X96613158Y-117524936D01*
X96637884Y-117537200D01*
X96688631Y-117557576D01*
X96754462Y-117581674D01*
X96758169Y-117582983D01*
X96842331Y-117614791D01*
X96940230Y-117654685D01*
X97031435Y-117694353D01*
X97181407Y-117762420D01*
X97513499Y-117535639D01*
X97536889Y-117519688D01*
X97637080Y-117451890D01*
X97726480Y-117392208D01*
X97799745Y-117344156D01*
X97851527Y-117311250D01*
X97876480Y-117297004D01*
X97893577Y-117300270D01*
X97932395Y-117325571D01*
X97992385Y-117375675D01*
X98075210Y-117451989D01*
X98182535Y-117555922D01*
X98192139Y-117565382D01*
X98277302Y-117650145D01*
X98352949Y-117726937D01*
X98414449Y-117790947D01*
X98457173Y-117837361D01*
X98476489Y-117861369D01*
X98476552Y-117861485D01*
X98479006Y-117879763D01*
X98469956Y-117909411D01*
X98447119Y-117954486D01*
X98408213Y-118019044D01*
X98350954Y-118107140D01*
X98273059Y-118222830D01*
X98259785Y-118242357D01*
X98192652Y-118341278D01*
X98133410Y-118428848D01*
X98085588Y-118499831D01*
X98052715Y-118548991D01*
X98038318Y-118571095D01*
X98037232Y-118575777D01*
X98044044Y-118610710D01*
X98064450Y-118667753D01*
X98095123Y-118737172D01*
X98136808Y-118827959D01*
X98183352Y-118935686D01*
X98222877Y-119033192D01*
X98232676Y-119058430D01*
X98258340Y-119122870D01*
X98277193Y-119167763D01*
X98285710Y-119184616D01*
X98295111Y-119185875D01*
X98337363Y-119193159D01*
X98406521Y-119205739D01*
X98495387Y-119222246D01*
X98596768Y-119241312D01*
X98703467Y-119261569D01*
X98808288Y-119281647D01*
X98904036Y-119300179D01*
X98983516Y-119315795D01*
X99039530Y-119327127D01*
X99064885Y-119332807D01*
X99069088Y-119334408D01*
X99079334Y-119343045D01*
X99086957Y-119361433D01*
X99092338Y-119394460D01*
X99095859Y-119447013D01*
X99097901Y-119523979D01*
X99098847Y-119630246D01*
X99099077Y-119770701D01*
X99099077Y-120197845D01*
X98996500Y-120218091D01*
X98984092Y-120220518D01*
X98918199Y-120233088D01*
X98827084Y-120250170D01*
X98721104Y-120269829D01*
X98610615Y-120290132D01*
X98567105Y-120298299D01*
X98469882Y-120318167D01*
X98388858Y-120336954D01*
X98331477Y-120352859D01*
X98305187Y-120364079D01*
X98293273Y-120382411D01*
X98271583Y-120430916D01*
X98249395Y-120493692D01*
X98241585Y-120517200D01*
X98212835Y-120594366D01*
X98175752Y-120685694D01*
X98136375Y-120776093D01*
X98115315Y-120823310D01*
X98085311Y-120893837D01*
X98064692Y-120946655D01*
X98057026Y-120972912D01*
X98057452Y-120974894D01*
X98071993Y-121002751D01*
X98104783Y-121056510D01*
X98152493Y-121130963D01*
X98211798Y-121220897D01*
X98279369Y-121321104D01*
X98501713Y-121647416D01*
X98209601Y-121940016D01*
X98181349Y-121968171D01*
X98094961Y-122052449D01*
X98017756Y-122125128D01*
X97954258Y-122182112D01*
X97908990Y-122219307D01*
X97886474Y-122232616D01*
X97862023Y-122222490D01*
X97810819Y-122193421D01*
X97738747Y-122148896D01*
X97651460Y-122092411D01*
X97554612Y-122027462D01*
X97459486Y-121963314D01*
X97373669Y-121906827D01*
X97303652Y-121862184D01*
X97254876Y-121832855D01*
X97232783Y-121822308D01*
X97231488Y-121822404D01*
X97202139Y-121832802D01*
X97150093Y-121857012D01*
X97085708Y-121890249D01*
X97085032Y-121890613D01*
X96999521Y-121933441D01*
X96940926Y-121954365D01*
X96904571Y-121954423D01*
X96885775Y-121934654D01*
X96877819Y-121915195D01*
X96856347Y-121863080D01*
X96823273Y-121782964D01*
X96780356Y-121679107D01*
X96729356Y-121555767D01*
X96672033Y-121417201D01*
X96610146Y-121267670D01*
X96554052Y-121131636D01*
X96496977Y-120992050D01*
X96446479Y-120867315D01*
X96404254Y-120761672D01*
X96371995Y-120679365D01*
X96351397Y-120624635D01*
X96344154Y-120601726D01*
X96357986Y-120580718D01*
X96396412Y-120545642D01*
X96450807Y-120504887D01*
X96581395Y-120398267D01*
X96698260Y-120262025D01*
X96783780Y-120112118D01*
X96837431Y-119952971D01*
X96858684Y-119789012D01*
X96847014Y-119624667D01*
X96801894Y-119464361D01*
X96722797Y-119312520D01*
X96609197Y-119173572D01*
X96549965Y-119119460D01*
X96408054Y-119023782D01*
X96256206Y-118961405D01*
X96098861Y-118930844D01*
X95940456Y-118930615D01*
X95785429Y-118959232D01*
X95638220Y-119015210D01*
X95503266Y-119097064D01*
X95385005Y-119203309D01*
X95287877Y-119332459D01*
X95216318Y-119483031D01*
X95174769Y-119653539D01*
X95167143Y-119735722D01*
X95177634Y-119913775D01*
X95224882Y-120082704D01*
X95307489Y-120239522D01*
X95424059Y-120381245D01*
X95573193Y-120504887D01*
X95625561Y-120543982D01*
X95664832Y-120579443D01*
X95679846Y-120601692D01*
X95673859Y-120621088D01*
X95654432Y-120673059D01*
X95623194Y-120753002D01*
X95581839Y-120856673D01*
X95532061Y-120979832D01*
X95475553Y-121118234D01*
X95414009Y-121267637D01*
X95358008Y-121403020D01*
X95300184Y-121542852D01*
X95248500Y-121667872D01*
X95204718Y-121773822D01*
X95170597Y-121856441D01*
X95147898Y-121911472D01*
X95138380Y-121934654D01*
X95138269Y-121934928D01*
X95119228Y-121954503D01*
X95082694Y-121954279D01*
X95023954Y-121933210D01*
X94938292Y-121890249D01*
X94931549Y-121886631D01*
X94867938Y-121854087D01*
X94817707Y-121831050D01*
X94791218Y-121822308D01*
X94769506Y-121832639D01*
X94720984Y-121861788D01*
X94651163Y-121906287D01*
X94565484Y-121962668D01*
X94469388Y-122027462D01*
X94374706Y-122090984D01*
X94287132Y-122147705D01*
X94214642Y-122192547D01*
X94162889Y-122222016D01*
X94137526Y-122232616D01*
X94133206Y-122231270D01*
X94103092Y-122210056D01*
X94051640Y-122166237D01*
X93983375Y-122103909D01*
X93902820Y-122027170D01*
X93814500Y-121940116D01*
X93522488Y-121647617D01*
X93977360Y-120978525D01*
X93908208Y-120828916D01*
X93908003Y-120828473D01*
X93866477Y-120733101D01*
X93824044Y-120626896D01*
X93789858Y-120532769D01*
X93784684Y-120517588D01*
X93758601Y-120447109D01*
X93735081Y-120392342D01*
X93718677Y-120364079D01*
X93711996Y-120360088D01*
X93671892Y-120346697D01*
X93603795Y-120329373D01*
X93515145Y-120309917D01*
X93413385Y-120290132D01*
X93382904Y-120284551D01*
X93272628Y-120264233D01*
X93169731Y-120245095D01*
X93084569Y-120229070D01*
X93027500Y-120218091D01*
X92924923Y-120197845D01*
X92924923Y-119770701D01*
X92924946Y-119718180D01*
X92925379Y-119590047D01*
X92926659Y-119494420D01*
X92929168Y-119426411D01*
X92933286Y-119381133D01*
X92939395Y-119353697D01*
X92947878Y-119339218D01*
X92959115Y-119332807D01*
X92969994Y-119330209D01*
X93014347Y-119321022D01*
X93085106Y-119306991D01*
X93175074Y-119289486D01*
X93277056Y-119269874D01*
X93383857Y-119249525D01*
X93488281Y-119229807D01*
X93583132Y-119212089D01*
X93661214Y-119197738D01*
X93715332Y-119188124D01*
X93738291Y-119184616D01*
X93739842Y-119182497D01*
X93752325Y-119155006D01*
X93773927Y-119102406D01*
X93801123Y-119033192D01*
X93838866Y-118939937D01*
X93885328Y-118832159D01*
X93928878Y-118737172D01*
X93938858Y-118715851D01*
X93966862Y-118649086D01*
X93983641Y-118597590D01*
X93985854Y-118571095D01*
X93984713Y-118569218D01*
X93966584Y-118541565D01*
X93930644Y-118487849D01*
X93880418Y-118413303D01*
X93819430Y-118323162D01*
X93751205Y-118222657D01*
X93674330Y-118108470D01*
X93616663Y-118019770D01*
X93577426Y-117954721D01*
X93554350Y-117909295D01*
X93545166Y-117879463D01*
X93547604Y-117861195D01*
X93548424Y-117859825D01*
X93570477Y-117833205D01*
X93615436Y-117784697D01*
X93678673Y-117719108D01*
X93755559Y-117641247D01*
X93841465Y-117555922D01*
X93930579Y-117469334D01*
X94017872Y-117387947D01*
X94082018Y-117333035D01*
X94124679Y-117303190D01*
X94147521Y-117297004D01*
X94150505Y-117298394D01*
X94181936Y-117317127D01*
X94238997Y-117353733D01*
X94316343Y-117404697D01*
X94408626Y-117466504D01*
X94510502Y-117535639D01*
X94842593Y-117762420D01*
X94992566Y-117694353D01*
X94996923Y-117692381D01*
X95089000Y-117652491D01*
X95186683Y-117612818D01*
X95269539Y-117581674D01*
X95269905Y-117581545D01*
X95335685Y-117557456D01*
X95386323Y-117537110D01*
X95410884Y-117524901D01*
X95411282Y-117524458D01*
X95419619Y-117499456D01*
X95433341Y-117442598D01*
X95451123Y-117360014D01*
X95471641Y-117257831D01*
X95493571Y-117142178D01*
X95494336Y-117138033D01*
X95516229Y-117020019D01*
X95536281Y-116913151D01*
X95553192Y-116824252D01*
X95565667Y-116760145D01*
X95572406Y-116727654D01*
X95572837Y-116725853D01*
X95577273Y-116711944D01*
X95586263Y-116701489D01*
X95604737Y-116693996D01*
X95637628Y-116688972D01*
X95689868Y-116685922D01*
X95766388Y-116684355D01*
X95872122Y-116683776D01*
X96012000Y-116683692D01*
X96029575Y-116683693D01*
G36*
X96988923Y-122777806D02*
G01*
X96988923Y-123312455D01*
X96988660Y-123451094D01*
X96987958Y-123575805D01*
X96986883Y-123681557D01*
X96985500Y-123763322D01*
X96983874Y-123816069D01*
X96982070Y-123834769D01*
X96981364Y-123834706D01*
X96957387Y-123827912D01*
X96913685Y-123813320D01*
X96852154Y-123791870D01*
X96852154Y-123516617D01*
X96851763Y-123408466D01*
X96849946Y-123330026D01*
X96845767Y-123276647D01*
X96838286Y-123241256D01*
X96826567Y-123216779D01*
X96809671Y-123196144D01*
X96798152Y-123185170D01*
X96735864Y-123154775D01*
X96667211Y-123157466D01*
X96604298Y-123193406D01*
X96595139Y-123202325D01*
X96580471Y-123220844D01*
X96570433Y-123245326D01*
X96564151Y-123282393D01*
X96560748Y-123338667D01*
X96559349Y-123420771D01*
X96559077Y-123535329D01*
X96558947Y-123593430D01*
X96558099Y-123688993D01*
X96556594Y-123765526D01*
X96554585Y-123816345D01*
X96552223Y-123834769D01*
X96551518Y-123834706D01*
X96527541Y-123827912D01*
X96483839Y-123813320D01*
X96422308Y-123791870D01*
X96422338Y-123515358D01*
X96422384Y-123490742D01*
X96424970Y-123362419D01*
X96432913Y-123265384D01*
X96448155Y-123193057D01*
X96472636Y-123138855D01*
X96508298Y-123096198D01*
X96557082Y-123058505D01*
X96604661Y-123034910D01*
X96680732Y-123016672D01*
X96755556Y-123015636D01*
X96813077Y-123033378D01*
X96817402Y-123035829D01*
X96830738Y-123035566D01*
X96839851Y-123015039D01*
X96846428Y-122967980D01*
X96852154Y-122888120D01*
X96861923Y-122724236D01*
X96988923Y-122777806D01*
G37*
X96988923Y-122777806D02*
X96988923Y-123312455D01*
X96988660Y-123451094D01*
X96987958Y-123575805D01*
X96986883Y-123681557D01*
X96985500Y-123763322D01*
X96983874Y-123816069D01*
X96982070Y-123834769D01*
X96981364Y-123834706D01*
X96957387Y-123827912D01*
X96913685Y-123813320D01*
X96852154Y-123791870D01*
X96852154Y-123516617D01*
X96851763Y-123408466D01*
X96849946Y-123330026D01*
X96845767Y-123276647D01*
X96838286Y-123241256D01*
X96826567Y-123216779D01*
X96809671Y-123196144D01*
X96798152Y-123185170D01*
X96735864Y-123154775D01*
X96667211Y-123157466D01*
X96604298Y-123193406D01*
X96595139Y-123202325D01*
X96580471Y-123220844D01*
X96570433Y-123245326D01*
X96564151Y-123282393D01*
X96560748Y-123338667D01*
X96559349Y-123420771D01*
X96559077Y-123535329D01*
X96558947Y-123593430D01*
X96558099Y-123688993D01*
X96556594Y-123765526D01*
X96554585Y-123816345D01*
X96552223Y-123834769D01*
X96551518Y-123834706D01*
X96527541Y-123827912D01*
X96483839Y-123813320D01*
X96422308Y-123791870D01*
X96422338Y-123515358D01*
X96422384Y-123490742D01*
X96424970Y-123362419D01*
X96432913Y-123265384D01*
X96448155Y-123193057D01*
X96472636Y-123138855D01*
X96508298Y-123096198D01*
X96557082Y-123058505D01*
X96604661Y-123034910D01*
X96680732Y-123016672D01*
X96755556Y-123015636D01*
X96813077Y-123033378D01*
X96817402Y-123035829D01*
X96830738Y-123035566D01*
X96839851Y-123015039D01*
X96846428Y-122967980D01*
X96852154Y-122888120D01*
X96861923Y-122724236D01*
X96988923Y-122777806D01*
G36*
X92623501Y-123022476D02*
G01*
X92704167Y-123052440D01*
X92737714Y-123074954D01*
X92771687Y-123107212D01*
X92795919Y-123148246D01*
X92812001Y-123204108D01*
X92821521Y-123280851D01*
X92826068Y-123384525D01*
X92827231Y-123521184D01*
X92827003Y-123591805D01*
X92825860Y-123688308D01*
X92823919Y-123765323D01*
X92821365Y-123816319D01*
X92818381Y-123834769D01*
X92798962Y-123828667D01*
X92759766Y-123812095D01*
X92758589Y-123811558D01*
X92738235Y-123800903D01*
X92724546Y-123786282D01*
X92716199Y-123760673D01*
X92711874Y-123717054D01*
X92710248Y-123648403D01*
X92710000Y-123547698D01*
X92709500Y-123483813D01*
X92704164Y-123363751D01*
X92691945Y-123275809D01*
X92671552Y-123215375D01*
X92641695Y-123177836D01*
X92601082Y-123158581D01*
X92595448Y-123157239D01*
X92519378Y-123156191D01*
X92460052Y-123190271D01*
X92419077Y-123258598D01*
X92411770Y-123278351D01*
X92395114Y-123322066D01*
X92386679Y-123342155D01*
X92369356Y-123339387D01*
X92331525Y-123324365D01*
X92296240Y-123299556D01*
X92280154Y-123252670D01*
X92284952Y-123219087D01*
X92314431Y-123150967D01*
X92362098Y-123087134D01*
X92417839Y-123042988D01*
X92441193Y-123032782D01*
X92529619Y-123015718D01*
X92623501Y-123022476D01*
G37*
X92623501Y-123022476D02*
X92704167Y-123052440D01*
X92737714Y-123074954D01*
X92771687Y-123107212D01*
X92795919Y-123148246D01*
X92812001Y-123204108D01*
X92821521Y-123280851D01*
X92826068Y-123384525D01*
X92827231Y-123521184D01*
X92827003Y-123591805D01*
X92825860Y-123688308D01*
X92823919Y-123765323D01*
X92821365Y-123816319D01*
X92818381Y-123834769D01*
X92798962Y-123828667D01*
X92759766Y-123812095D01*
X92758589Y-123811558D01*
X92738235Y-123800903D01*
X92724546Y-123786282D01*
X92716199Y-123760673D01*
X92711874Y-123717054D01*
X92710248Y-123648403D01*
X92710000Y-123547698D01*
X92709500Y-123483813D01*
X92704164Y-123363751D01*
X92691945Y-123275809D01*
X92671552Y-123215375D01*
X92641695Y-123177836D01*
X92601082Y-123158581D01*
X92595448Y-123157239D01*
X92519378Y-123156191D01*
X92460052Y-123190271D01*
X92419077Y-123258598D01*
X92411770Y-123278351D01*
X92395114Y-123322066D01*
X92386679Y-123342155D01*
X92369356Y-123339387D01*
X92331525Y-123324365D01*
X92296240Y-123299556D01*
X92280154Y-123252670D01*
X92284952Y-123219087D01*
X92314431Y-123150967D01*
X92362098Y-123087134D01*
X92417839Y-123042988D01*
X92441193Y-123032782D01*
X92529619Y-123015718D01*
X92623501Y-123022476D01*
G36*
X99661763Y-123644269D02*
G01*
X99662300Y-123687802D01*
X99664019Y-123833344D01*
X99664365Y-123944711D01*
X99662277Y-124025804D01*
X99656698Y-124080522D01*
X99646567Y-124112761D01*
X99630826Y-124126422D01*
X99608417Y-124125403D01*
X99578280Y-124113603D01*
X99539355Y-124094920D01*
X99531038Y-124090933D01*
X99496402Y-124071419D01*
X99478314Y-124048202D01*
X99471392Y-124009492D01*
X99470256Y-123943497D01*
X99470205Y-123825000D01*
X99348141Y-123825000D01*
X99273055Y-123821712D01*
X99214015Y-123808377D01*
X99164986Y-123781423D01*
X99161330Y-123778788D01*
X99111581Y-123734286D01*
X99076959Y-123680523D01*
X99055123Y-123610154D01*
X99043737Y-123515830D01*
X99040959Y-123409271D01*
X99235846Y-123409271D01*
X99235880Y-123427131D01*
X99237735Y-123507748D01*
X99243693Y-123560447D01*
X99255506Y-123594668D01*
X99274923Y-123619846D01*
X99276133Y-123621049D01*
X99323858Y-123653628D01*
X99370110Y-123650417D01*
X99422350Y-123610965D01*
X99435128Y-123597482D01*
X99453949Y-123569837D01*
X99464562Y-123533880D01*
X99469252Y-123479364D01*
X99470308Y-123396042D01*
X99469394Y-123345598D01*
X99459477Y-123253857D01*
X99436842Y-123193752D01*
X99399238Y-123160900D01*
X99344416Y-123150923D01*
X99321317Y-123153050D01*
X99281350Y-123174147D01*
X99254926Y-123221161D01*
X99240330Y-123298175D01*
X99235846Y-123409271D01*
X99040959Y-123409271D01*
X99040462Y-123390206D01*
X99041187Y-123298536D01*
X99044490Y-123229098D01*
X99051828Y-123180945D01*
X99064655Y-123144866D01*
X99084423Y-123111648D01*
X99102569Y-123086261D01*
X99168461Y-123017727D01*
X99243114Y-122980505D01*
X99336904Y-122968722D01*
X99444240Y-122980467D01*
X99537031Y-123022595D01*
X99610421Y-123096898D01*
X99615954Y-123104764D01*
X99628857Y-123125668D01*
X99638742Y-123149555D01*
X99646093Y-123181582D01*
X99651394Y-123226905D01*
X99655127Y-123290679D01*
X99657778Y-123378060D01*
X99658096Y-123396042D01*
X99659828Y-123494205D01*
X99661763Y-123644269D01*
G37*
X99661763Y-123644269D02*
X99662300Y-123687802D01*
X99664019Y-123833344D01*
X99664365Y-123944711D01*
X99662277Y-124025804D01*
X99656698Y-124080522D01*
X99646567Y-124112761D01*
X99630826Y-124126422D01*
X99608417Y-124125403D01*
X99578280Y-124113603D01*
X99539355Y-124094920D01*
X99531038Y-124090933D01*
X99496402Y-124071419D01*
X99478314Y-124048202D01*
X99471392Y-124009492D01*
X99470256Y-123943497D01*
X99470205Y-123825000D01*
X99348141Y-123825000D01*
X99273055Y-123821712D01*
X99214015Y-123808377D01*
X99164986Y-123781423D01*
X99161330Y-123778788D01*
X99111581Y-123734286D01*
X99076959Y-123680523D01*
X99055123Y-123610154D01*
X99043737Y-123515830D01*
X99040959Y-123409271D01*
X99235846Y-123409271D01*
X99235880Y-123427131D01*
X99237735Y-123507748D01*
X99243693Y-123560447D01*
X99255506Y-123594668D01*
X99274923Y-123619846D01*
X99276133Y-123621049D01*
X99323858Y-123653628D01*
X99370110Y-123650417D01*
X99422350Y-123610965D01*
X99435128Y-123597482D01*
X99453949Y-123569837D01*
X99464562Y-123533880D01*
X99469252Y-123479364D01*
X99470308Y-123396042D01*
X99469394Y-123345598D01*
X99459477Y-123253857D01*
X99436842Y-123193752D01*
X99399238Y-123160900D01*
X99344416Y-123150923D01*
X99321317Y-123153050D01*
X99281350Y-123174147D01*
X99254926Y-123221161D01*
X99240330Y-123298175D01*
X99235846Y-123409271D01*
X99040959Y-123409271D01*
X99040462Y-123390206D01*
X99041187Y-123298536D01*
X99044490Y-123229098D01*
X99051828Y-123180945D01*
X99064655Y-123144866D01*
X99084423Y-123111648D01*
X99102569Y-123086261D01*
X99168461Y-123017727D01*
X99243114Y-122980505D01*
X99336904Y-122968722D01*
X99444240Y-122980467D01*
X99537031Y-123022595D01*
X99610421Y-123096898D01*
X99615954Y-123104764D01*
X99628857Y-123125668D01*
X99638742Y-123149555D01*
X99646093Y-123181582D01*
X99651394Y-123226905D01*
X99655127Y-123290679D01*
X99657778Y-123378060D01*
X99658096Y-123396042D01*
X99659828Y-123494205D01*
X99661763Y-123644269D01*
%LPC*%
D15*
X91440000Y-70866000D03*
D16*
X91440000Y-75946000D03*
D17*
X198120000Y-65024000D03*
X198120000Y-67564000D03*
D18*
X109545000Y-74422000D03*
D19*
X109545000Y-79502000D03*
D20*
X111618000Y-66040000D03*
X100218000Y-66040000D03*
X169784000Y-77470000D03*
X158384000Y-77470000D03*
D21*
X111530000Y-118618000D03*
D22*
X106450000Y-118618000D03*
D23*
X110744000Y-89662000D03*
D24*
X110744000Y-87062000D03*
X110744000Y-84462000D03*
D23*
X193742000Y-74035000D03*
D24*
X196342000Y-74035000D03*
X198942000Y-74035000D03*
D25*
X104902000Y-83312000D03*
D26*
X97282000Y-83312000D03*
D25*
X104902000Y-73152000D03*
D26*
X97282000Y-73152000D03*
D25*
X192024000Y-86106000D03*
D26*
X199644000Y-86106000D03*
D25*
X192024000Y-82550000D03*
D26*
X199644000Y-82550000D03*
D27*
X89289000Y-64897000D03*
D28*
X89289000Y-64897000D03*
D27*
X209169000Y-64897000D03*
D28*
X209169000Y-64897000D03*
X209296000Y-121666000D03*
D27*
X209296000Y-121666000D03*
D28*
X88550000Y-120780000D03*
D27*
X88550000Y-120780000D03*
D21*
X181102000Y-118110000D03*
D22*
X176022000Y-118110000D03*
D29*
X181864000Y-84074000D03*
D30*
X179324000Y-84074000D03*
X176784000Y-84074000D03*
D29*
X124714000Y-80843000D03*
D30*
X122174000Y-80843000D03*
X119634000Y-80843000D03*
D31*
X88629000Y-111760000D03*
D32*
X88629000Y-109260000D03*
X88629000Y-106760000D03*
X88629000Y-104260000D03*
X88629000Y-101760000D03*
X88629000Y-99260000D03*
D21*
X134620000Y-118364000D03*
D22*
X129540000Y-118364000D03*
D21*
X158242000Y-67818000D03*
D22*
X163322000Y-67818000D03*
D33*
X88629000Y-90912000D03*
D34*
X88629000Y-88412000D03*
D21*
X171450000Y-67818000D03*
D22*
X176530000Y-67818000D03*
D21*
X157988000Y-118364000D03*
D22*
X152908000Y-118364000D03*
D35*
X186202000Y-66531000D03*
D36*
X188702000Y-66531000D03*
D21*
X201930000Y-118110000D03*
D22*
X196850000Y-118110000D03*
D21*
X206248000Y-75946000D03*
D22*
X206248000Y-70866000D03*
D21*
X206248000Y-88138000D03*
D22*
X206248000Y-83058000D03*
D37*
X140450000Y-94700000D03*
D38*
X137910000Y-94700000D03*
X135370000Y-94700000D03*
X132830000Y-94700000D03*
X130290000Y-94700000D03*
X127750000Y-94700000D03*
X125210000Y-94700000D03*
X122670000Y-94700000D03*
D39*
X133465000Y-110575000D03*
X129655000Y-110575000D03*
D37*
X133096000Y-81026000D03*
D38*
X135636000Y-81026000D03*
X138176000Y-81026000D03*
X140716000Y-81026000D03*
X143256000Y-81026000D03*
X145796000Y-81026000D03*
X148336000Y-81026000D03*
X150876000Y-81026000D03*
D39*
X140081000Y-65151000D03*
X143891000Y-65151000D03*
D37*
X163680000Y-94700000D03*
D38*
X161140000Y-94700000D03*
X158600000Y-94700000D03*
X156060000Y-94700000D03*
X153520000Y-94700000D03*
X150980000Y-94700000D03*
X148440000Y-94700000D03*
X145900000Y-94700000D03*
D39*
X156695000Y-110575000D03*
X152885000Y-110575000D03*
D37*
X186720000Y-94700000D03*
D38*
X184180000Y-94700000D03*
X181640000Y-94700000D03*
X179100000Y-94700000D03*
X176560000Y-94700000D03*
X174020000Y-94700000D03*
X171480000Y-94700000D03*
X168940000Y-94700000D03*
D39*
X179735000Y-110575000D03*
X175925000Y-110575000D03*
D37*
X209750000Y-94700000D03*
D38*
X207210000Y-94700000D03*
X204670000Y-94700000D03*
X202130000Y-94700000D03*
X199590000Y-94700000D03*
X197050000Y-94700000D03*
X194510000Y-94700000D03*
X191970000Y-94700000D03*
D39*
X202765000Y-110575000D03*
X198955000Y-110575000D03*
D25*
X192024000Y-78994000D03*
D26*
X199644000Y-78994000D03*
D25*
X104902000Y-76454000D03*
D26*
X97282000Y-76454000D03*
D40*
X123957000Y-65024000D03*
D41*
X121417000Y-65024000D03*
D18*
X191445000Y-121412000D03*
D19*
X191445000Y-116332000D03*
D18*
X101275000Y-121158000D03*
D19*
X101275000Y-116078000D03*
D18*
X124135000Y-121412000D03*
D19*
X124135000Y-116332000D03*
D18*
X156535000Y-83820000D03*
D19*
X156535000Y-88900000D03*
D37*
X117280000Y-94620000D03*
D38*
X114740000Y-94620000D03*
X112200000Y-94620000D03*
X109660000Y-94620000D03*
X107120000Y-94620000D03*
X104580000Y-94620000D03*
X102040000Y-94620000D03*
X99500000Y-94620000D03*
D39*
X110295000Y-110495000D03*
X106485000Y-110495000D03*
D42*
X89403000Y-82296000D03*
D43*
X91943000Y-82296000D03*
D18*
X147503000Y-121412000D03*
D19*
X147503000Y-116332000D03*
D25*
X97282000Y-79756000D03*
D26*
X104902000Y-79756000D03*
D44*
X187452000Y-76454000D03*
D45*
X177292000Y-76454000D03*
D44*
X127762000Y-70612000D03*
D45*
X117602000Y-70612000D03*
D18*
X170617000Y-121412000D03*
D19*
X170617000Y-116332000D03*
M02*
