M48
; DRILL file {KiCad (6.0.5)} date Thu Feb  8 12:48:14 2024
; FORMAT={-:-/ absolute / metric / decimal}
; #@! TF.CreationDate,2024-02-08T12:48:14+01:00
; #@! TF.GenerationSoftware,Kicad,Pcbnew,(6.0.5)
; #@! TF.FileFunction,Plated,1,2,PTH
FMAT,2
METRIC
; #@! TA.AperFunction,Plated,PTH,ViaDrill
T1C0.400
; #@! TA.AperFunction,Plated,PTH,ComponentDrill
T2C0.800
; #@! TA.AperFunction,Plated,PTH,ComponentDrill
T3C0.800
; #@! TA.AperFunction,Plated,PTH,ComponentDrill
T4C0.900
; #@! TA.AperFunction,Plated,PTH,ComponentDrill
T5C0.950
; #@! TA.AperFunction,Plated,PTH,ComponentDrill
T6C1.000
; #@! TA.AperFunction,Plated,PTH,ComponentDrill
T7C1.100
; #@! TA.AperFunction,Plated,PTH,ComponentDrill
T8C1.300
; #@! TA.AperFunction,Plated,PTH,ComponentDrill
T9C1.520
; #@! TA.AperFunction,Plated,PTH,ComponentDrill
T10C1.524
; #@! TA.AperFunction,Plated,PTH,ComponentDrill
T11C3.200
%
G90
G05
T1
X132.95Y-97.835
T2
X97.282Y-73.152
X97.282Y-76.454
X97.282Y-79.756
X97.282Y-83.312
X99.5Y-94.62
X102.04Y-94.62
X104.58Y-94.62
X104.902Y-73.152
X104.902Y-76.454
X104.902Y-79.756
X104.902Y-83.312
X106.485Y-110.495
X107.12Y-94.62
X109.66Y-94.62
X110.295Y-110.495
X112.2Y-94.62
X114.74Y-94.62
X117.28Y-94.62
X122.67Y-94.7
X125.21Y-94.7
X127.75Y-94.7
X129.655Y-110.575
X130.29Y-94.7
X132.83Y-94.7
X133.096Y-81.026
X133.465Y-110.575
X135.37Y-94.7
X135.636Y-81.026
X137.91Y-94.7
X138.176Y-81.026
X140.081Y-65.151
X140.45Y-94.7
X140.716Y-81.026
X143.256Y-81.026
X143.891Y-65.151
X145.796Y-81.026
X145.9Y-94.7
X148.336Y-81.026
X148.44Y-94.7
X150.876Y-81.026
X150.98Y-94.7
X152.885Y-110.575
X153.52Y-94.7
X156.06Y-94.7
X156.695Y-110.575
X158.6Y-94.7
X161.14Y-94.7
X163.68Y-94.7
X168.94Y-94.7
X171.48Y-94.7
X174.02Y-94.7
X175.925Y-110.575
X176.56Y-94.7
X179.1Y-94.7
X179.735Y-110.575
X181.64Y-94.7
X184.18Y-94.7
X186.72Y-94.7
X191.97Y-94.7
X192.024Y-78.994
X192.024Y-82.55
X192.024Y-86.106
X194.51Y-94.7
X197.05Y-94.7
X198.955Y-110.575
X199.59Y-94.7
X199.644Y-78.994
X199.644Y-82.55
X199.644Y-86.106
X202.13Y-94.7
X202.765Y-110.575
X204.67Y-94.7
X207.21Y-94.7
X209.75Y-94.7
T3
X198.12Y-65.024
X198.12Y-67.564
T4
X89.403Y-82.296
X91.943Y-82.296
X110.744Y-84.462
X110.744Y-87.062
X110.744Y-89.662
X193.742Y-74.035
X196.342Y-74.035
X198.942Y-74.035
T5
X88.629Y-99.26
X88.629Y-101.76
X88.629Y-104.26
X88.629Y-106.76
X88.629Y-109.26
X88.629Y-111.76
T6
X88.629Y-88.412
X88.629Y-90.912
X100.218Y-66.04
X111.618Y-66.04
X121.417Y-65.024
X123.957Y-65.024
X158.384Y-77.47
X169.784Y-77.47
X186.202Y-66.531
X188.702Y-66.531
T7
X101.275Y-116.078
X101.275Y-121.158
X109.545Y-74.422
X109.545Y-79.502
X119.634Y-80.843
X122.174Y-80.843
X124.135Y-116.332
X124.135Y-121.412
X124.714Y-80.843
X147.503Y-116.332
X147.503Y-121.412
X156.535Y-83.82
X156.535Y-88.9
X170.617Y-116.332
X170.617Y-121.412
X176.784Y-84.074
X179.324Y-84.074
X181.864Y-84.074
X191.445Y-116.332
X191.445Y-121.412
T8
X117.602Y-70.612
X127.762Y-70.612
X177.292Y-76.454
X187.452Y-76.454
T9
X106.45Y-118.618
X111.53Y-118.618
X129.54Y-118.364
X134.62Y-118.364
X152.908Y-118.364
X157.988Y-118.364
X158.242Y-67.818
X163.322Y-67.818
X171.45Y-67.818
X176.022Y-118.11
X176.53Y-67.818
X181.102Y-118.11
X196.85Y-118.11
X201.93Y-118.11
X206.248Y-70.866
X206.248Y-75.946
X206.248Y-83.058
X206.248Y-88.138
T10
X91.44Y-70.866
X91.44Y-75.946
T11
X88.55Y-120.78
X89.289Y-64.897
X209.169Y-64.897
X209.296Y-121.666
T0
M30
