G04 #@! TF.GenerationSoftware,KiCad,Pcbnew,(5.99.0-10988-gd8b1e827c7)*
G04 #@! TF.CreationDate,2021-11-29T13:02:15+01:00*
G04 #@! TF.ProjectId,charge_pcb,63686172-6765-45f7-9063-622e6b696361,rev?*
G04 #@! TF.SameCoordinates,Original*
G04 #@! TF.FileFunction,Soldermask,Bot*
G04 #@! TF.FilePolarity,Negative*
%FSLAX46Y46*%
G04 Gerber Fmt 4.6, Leading zero omitted, Abs format (unit mm)*
G04 Created by KiCad (PCBNEW (5.99.0-10988-gd8b1e827c7)) date 2021-11-29 13:02:15*
%MOMM*%
%LPD*%
G01*
G04 APERTURE LIST*
G04 Aperture macros list*
%AMRoundRect*
0 Rectangle with rounded corners*
0 $1 Rounding radius*
0 $2 $3 $4 $5 $6 $7 $8 $9 X,Y pos of 4 corners*
0 Add a 4 corners polygon primitive as box body*
4,1,4,$2,$3,$4,$5,$6,$7,$8,$9,$2,$3,0*
0 Add four circle primitives for the rounded corners*
1,1,$1+$1,$2,$3*
1,1,$1+$1,$4,$5*
1,1,$1+$1,$6,$7*
1,1,$1+$1,$8,$9*
0 Add four rect primitives between the rounded corners*
20,1,$1+$1,$2,$3,$4,$5,0*
20,1,$1+$1,$4,$5,$6,$7,0*
20,1,$1+$1,$6,$7,$8,$9,0*
20,1,$1+$1,$8,$9,$2,$3,0*%
G04 Aperture macros list end*
%ADD10O,2.200000X2.200000*%
%ADD11R,2.200000X2.200000*%
%ADD12O,2.000000X2.000000*%
%ADD13R,2.000000X2.000000*%
%ADD14C,3.000000*%
%ADD15R,3.000000X3.000000*%
%ADD16C,3.200000*%
%ADD17O,2.499360X4.000500*%
%ADD18O,2.000000X1.800000*%
%ADD19O,3.000000X3.000000*%
%ADD20R,2.000000X1.800000*%
%ADD21O,1.800000X2.000000*%
%ADD22R,1.800000X2.000000*%
%ADD23O,1.950000X1.700000*%
%ADD24RoundRect,0.250000X0.725000X-0.600000X0.725000X0.600000X-0.725000X0.600000X-0.725000X-0.600000X0*%
%ADD25O,2.000000X1.700000*%
%ADD26RoundRect,0.250000X0.750000X-0.600000X0.750000X0.600000X-0.750000X0.600000X-0.750000X-0.600000X0*%
%ADD27C,5.600000*%
%ADD28C,3.600000*%
%ADD29O,1.600000X1.600000*%
%ADD30C,1.600000*%
%ADD31O,1.905000X2.000000*%
%ADD32R,1.905000X2.000000*%
%ADD33O,2.000000X1.905000*%
%ADD34R,2.000000X1.905000*%
%ADD35O,1.700000X2.000000*%
%ADD36RoundRect,0.250000X0.600000X0.750000X-0.600000X0.750000X-0.600000X-0.750000X0.600000X-0.750000X0*%
%ADD37C,1.800000*%
%ADD38R,1.800000X1.800000*%
%ADD39R,1.500000X1.500000*%
%ADD40C,1.500000*%
%ADD41O,4.000500X2.499360*%
%ADD42R,1.600000X1.600000*%
%ADD43C,1.501140*%
%ADD44C,2.540000*%
%ADD45R,2.540000X2.540000*%
G04 APERTURE END LIST*
D10*
X129921000Y-88519000D03*
D11*
X140081000Y-88519000D03*
D10*
X109982000Y-77470000D03*
D11*
X99822000Y-77470000D03*
D12*
X151892000Y-80137000D03*
D13*
X151892000Y-85217000D03*
D14*
X113284000Y-120142000D03*
D15*
X108204000Y-120142000D03*
D16*
X166751000Y-76835000D03*
D17*
X166751000Y-65834260D03*
X166751000Y-87835740D03*
D12*
X185293000Y-112522000D03*
D13*
X185293000Y-117602000D03*
D12*
X167513000Y-116713000D03*
D13*
X167513000Y-121793000D03*
D12*
X145923000Y-116459000D03*
D13*
X145923000Y-121539000D03*
D12*
X122555000Y-116332000D03*
D13*
X122555000Y-121412000D03*
D18*
X176530000Y-106299000D03*
D19*
X192405000Y-95504000D03*
D18*
X176530000Y-103759000D03*
D19*
X192405000Y-99314000D03*
D18*
X176530000Y-101219000D03*
X176530000Y-98679000D03*
X176530000Y-96139000D03*
X176530000Y-93599000D03*
X176530000Y-91059000D03*
D20*
X176530000Y-88519000D03*
D21*
X153797000Y-94488000D03*
D19*
X164592000Y-110363000D03*
D21*
X156337000Y-94488000D03*
D19*
X160782000Y-110363000D03*
D21*
X158877000Y-94488000D03*
X161417000Y-94488000D03*
X163957000Y-94488000D03*
X166497000Y-94488000D03*
X169037000Y-94488000D03*
D22*
X171577000Y-94488000D03*
D21*
X130810000Y-94488000D03*
D19*
X141605000Y-110363000D03*
D21*
X133350000Y-94488000D03*
D19*
X137795000Y-110363000D03*
D21*
X135890000Y-94488000D03*
X138430000Y-94488000D03*
X140970000Y-94488000D03*
X143510000Y-94488000D03*
X146050000Y-94488000D03*
D22*
X148590000Y-94488000D03*
D21*
X107569000Y-94488000D03*
D19*
X118364000Y-110363000D03*
D21*
X110109000Y-94488000D03*
D19*
X114554000Y-110363000D03*
D21*
X112649000Y-94488000D03*
X115189000Y-94488000D03*
X117729000Y-94488000D03*
X120269000Y-94488000D03*
X122809000Y-94488000D03*
D22*
X125349000Y-94488000D03*
D18*
X176403000Y-83566000D03*
D19*
X192278000Y-72771000D03*
D18*
X176403000Y-81026000D03*
D19*
X192278000Y-76581000D03*
D18*
X176403000Y-78486000D03*
X176403000Y-75946000D03*
X176403000Y-73406000D03*
X176403000Y-70866000D03*
X176403000Y-68326000D03*
D20*
X176403000Y-65786000D03*
D14*
X199923000Y-72517000D03*
D15*
X199923000Y-67437000D03*
D14*
X200025000Y-84328000D03*
D15*
X200025000Y-79248000D03*
D14*
X201549000Y-120142000D03*
D15*
X196469000Y-120142000D03*
D14*
X178435000Y-120269000D03*
D15*
X173355000Y-120269000D03*
D14*
X159385000Y-120142000D03*
D15*
X154305000Y-120142000D03*
D14*
X136398000Y-120142000D03*
D15*
X131318000Y-120142000D03*
D23*
X88392000Y-85671000D03*
X88392000Y-88171000D03*
X88392000Y-90671000D03*
X88392000Y-93171000D03*
X88392000Y-95671000D03*
D24*
X88392000Y-98171000D03*
D25*
X88265000Y-108117000D03*
D26*
X88265000Y-110617000D03*
D12*
X191389000Y-112522000D03*
D13*
X191389000Y-117602000D03*
D21*
X144526000Y-82321400D03*
D19*
X133731000Y-66446400D03*
D21*
X141986000Y-82321400D03*
D19*
X137541000Y-66446400D03*
D21*
X139446000Y-82321400D03*
X136906000Y-82321400D03*
X134366000Y-82321400D03*
X131826000Y-82321400D03*
X129286000Y-82321400D03*
D22*
X126746000Y-82321400D03*
D27*
X209169000Y-64897000D03*
D28*
X209169000Y-64897000D03*
D27*
X89289000Y-118237000D03*
D28*
X89289000Y-118237000D03*
D27*
X209169000Y-118237000D03*
D28*
X209169000Y-118237000D03*
D27*
X89289000Y-64897000D03*
D28*
X89289000Y-64897000D03*
D29*
X101981000Y-99441000D03*
D30*
X94361000Y-99441000D03*
D14*
X205613000Y-98171000D03*
D15*
X205613000Y-93091000D03*
D14*
X205740000Y-110363000D03*
D15*
X205740000Y-105283000D03*
D31*
X109601000Y-87249000D03*
X112141000Y-87249000D03*
D32*
X114681000Y-87249000D03*
D33*
X158750000Y-75819000D03*
X158750000Y-78359000D03*
D34*
X158750000Y-80899000D03*
D29*
X101981000Y-96139000D03*
D30*
X94361000Y-96139000D03*
D35*
X152186000Y-68072000D03*
D36*
X154686000Y-68072000D03*
D37*
X121499000Y-82267000D03*
D38*
X118959000Y-82267000D03*
D29*
X122174000Y-77470000D03*
D30*
X114554000Y-77470000D03*
D29*
X150749000Y-90424000D03*
D30*
X143129000Y-90424000D03*
D29*
X101981000Y-92837000D03*
D30*
X94361000Y-92837000D03*
D29*
X94361000Y-106299000D03*
D30*
X101981000Y-106299000D03*
D29*
X94361000Y-102870000D03*
D30*
X101981000Y-102870000D03*
D39*
X158496000Y-90678000D03*
D40*
X158496000Y-85478000D03*
X158496000Y-88078000D03*
D39*
X96139000Y-89027000D03*
D40*
X101339000Y-89027000D03*
X98739000Y-89027000D03*
D16*
X109749000Y-69167000D03*
D41*
X98748260Y-69167000D03*
X120749740Y-69167000D03*
D29*
X106699000Y-82307000D03*
D42*
X114319000Y-82307000D03*
D12*
X95459000Y-82187000D03*
D13*
X100539000Y-82187000D03*
D43*
X125095000Y-88519000D03*
X122555000Y-88519000D03*
D44*
X91769000Y-77647000D03*
D45*
X91769000Y-72567000D03*
M02*
