%FSLAX45Y45*%
G04 Gerber Fmt 4.5, Leading zero omitted, Abs format (unit mm)*
G04 Created by KiCad (PCBNEW (5.99.0-10988-gd8b1e827c7)) date 2021-11-29 13:02:13*
%MOMM*%
%LPD*%
G01*
G04 APERTURE LIST*
%TA.AperFunction,Profile*%
%ADD10C,0.150000*%
%TD*%
%ADD11C,0.200000*%
G04 APERTURE END LIST*
D10*
X21285200Y-6121700D02*
X8470900Y-6121700D01*
X21285200Y-12521700D02*
X21285200Y-6121700D01*
X8470900Y-12521700D02*
X21285200Y-12521700D01*
X8470900Y-6121700D02*
X8470900Y-12521700D01*
D11*
X8721019Y-12839676D02*
X8721019Y-12639676D01*
X8768638Y-12639676D01*
X8797210Y-12649200D01*
X8816257Y-12668248D01*
X8825781Y-12687295D01*
X8835305Y-12725390D01*
X8835305Y-12753962D01*
X8825781Y-12792057D01*
X8816257Y-12811105D01*
X8797210Y-12830152D01*
X8768638Y-12839676D01*
X8721019Y-12839676D01*
X8921019Y-12839676D02*
X8921019Y-12706343D01*
X8921019Y-12744438D02*
X8930543Y-12725390D01*
X8940067Y-12715867D01*
X8959114Y-12706343D01*
X8978162Y-12706343D01*
X9044829Y-12839676D02*
X9044829Y-12706343D01*
X9044829Y-12639676D02*
X9035305Y-12649200D01*
X9044829Y-12658724D01*
X9054352Y-12649200D01*
X9044829Y-12639676D01*
X9044829Y-12658724D01*
X9168638Y-12839676D02*
X9149590Y-12830152D01*
X9140067Y-12811105D01*
X9140067Y-12639676D01*
X9273400Y-12839676D02*
X9254352Y-12830152D01*
X9244829Y-12811105D01*
X9244829Y-12639676D01*
X9501971Y-12839676D02*
X9501971Y-12639676D01*
X9568638Y-12782533D01*
X9635305Y-12639676D01*
X9635305Y-12839676D01*
X9816257Y-12839676D02*
X9816257Y-12734914D01*
X9806733Y-12715867D01*
X9787686Y-12706343D01*
X9749590Y-12706343D01*
X9730543Y-12715867D01*
X9816257Y-12830152D02*
X9797210Y-12839676D01*
X9749590Y-12839676D01*
X9730543Y-12830152D01*
X9721019Y-12811105D01*
X9721019Y-12792057D01*
X9730543Y-12773009D01*
X9749590Y-12763486D01*
X9797210Y-12763486D01*
X9816257Y-12753962D01*
X9911495Y-12706343D02*
X9911495Y-12906343D01*
X9911495Y-12715867D02*
X9930543Y-12706343D01*
X9968638Y-12706343D01*
X9987686Y-12715867D01*
X9997210Y-12725390D01*
X10006733Y-12744438D01*
X10006733Y-12801581D01*
X9997210Y-12820628D01*
X9987686Y-12830152D01*
X9968638Y-12839676D01*
X9930543Y-12839676D01*
X9911495Y-12830152D01*
X10092448Y-12820628D02*
X10101971Y-12830152D01*
X10092448Y-12839676D01*
X10082924Y-12830152D01*
X10092448Y-12820628D01*
X10092448Y-12839676D01*
X10092448Y-12715867D02*
X10101971Y-12725390D01*
X10092448Y-12734914D01*
X10082924Y-12725390D01*
X10092448Y-12715867D01*
X10092448Y-12734914D01*
M02*
