G04 #@! TF.GenerationSoftware,KiCad,Pcbnew,(5.99.0-10988-gd8b1e827c7)*
G04 #@! TF.CreationDate,2021-11-29T12:53:35+01:00*
G04 #@! TF.ProjectId,TeensyPCB,5465656e-7379-4504-9342-2e6b69636164,rev?*
G04 #@! TF.SameCoordinates,Original*
G04 #@! TF.FileFunction,Soldermask,Top*
G04 #@! TF.FilePolarity,Negative*
%FSLAX46Y46*%
G04 Gerber Fmt 4.6, Leading zero omitted, Abs format (unit mm)*
G04 Created by KiCad (PCBNEW (5.99.0-10988-gd8b1e827c7)) date 2021-11-29 12:53:35*
%MOMM*%
%LPD*%
G01*
G04 APERTURE LIST*
G04 Aperture macros list*
%AMRoundRect*
0 Rectangle with rounded corners*
0 $1 Rounding radius*
0 $2 $3 $4 $5 $6 $7 $8 $9 X,Y pos of 4 corners*
0 Add a 4 corners polygon primitive as box body*
4,1,4,$2,$3,$4,$5,$6,$7,$8,$9,$2,$3,0*
0 Add four circle primitives for the rounded corners*
1,1,$1+$1,$2,$3*
1,1,$1+$1,$4,$5*
1,1,$1+$1,$6,$7*
1,1,$1+$1,$8,$9*
0 Add four rect primitives between the rounded corners*
20,1,$1+$1,$2,$3,$4,$5,0*
20,1,$1+$1,$4,$5,$6,$7,0*
20,1,$1+$1,$6,$7,$8,$9,0*
20,1,$1+$1,$8,$9,$2,$3,0*%
G04 Aperture macros list end*
%ADD10RoundRect,0.250000X-0.725000X0.600000X-0.725000X-0.600000X0.725000X-0.600000X0.725000X0.600000X0*%
%ADD11O,1.950000X1.700000*%
%ADD12RoundRect,0.250000X0.600000X0.725000X-0.600000X0.725000X-0.600000X-0.725000X0.600000X-0.725000X0*%
%ADD13O,1.700000X1.950000*%
%ADD14RoundRect,0.250000X-0.600000X-0.750000X0.600000X-0.750000X0.600000X0.750000X-0.600000X0.750000X0*%
%ADD15O,1.700000X2.000000*%
%ADD16C,1.600000*%
%ADD17O,1.600000X1.600000*%
%ADD18C,2.000000*%
%ADD19R,1.800000X1.800000*%
%ADD20C,1.800000*%
%ADD21R,2.200000X2.200000*%
%ADD22O,2.200000X2.200000*%
%ADD23R,3.000000X3.000000*%
%ADD24C,3.000000*%
%ADD25RoundRect,0.250000X-0.600000X-0.725000X0.600000X-0.725000X0.600000X0.725000X-0.600000X0.725000X0*%
%ADD26C,3.600000*%
%ADD27C,6.400000*%
%ADD28R,1.600000X1.600000*%
%ADD29R,1.300000X1.300000*%
%ADD30C,1.300000*%
%ADD31R,1.700000X1.700000*%
%ADD32O,1.700000X1.700000*%
%ADD33O,2.268000X1.524000*%
%ADD34RoundRect,0.250000X0.725000X-0.600000X0.725000X0.600000X-0.725000X0.600000X-0.725000X-0.600000X0*%
%ADD35RoundRect,0.250000X0.750000X-0.600000X0.750000X0.600000X-0.750000X0.600000X-0.750000X-0.600000X0*%
%ADD36O,2.000000X1.700000*%
G04 APERTURE END LIST*
D10*
X100330000Y-39490000D03*
D11*
X100330000Y-41990000D03*
X100330000Y-44490000D03*
X100330000Y-46990000D03*
D10*
X81890000Y-39490000D03*
D11*
X81890000Y-41990000D03*
X81890000Y-44490000D03*
X81890000Y-46990000D03*
D12*
X122646000Y-58450000D03*
D13*
X120146000Y-58450000D03*
X117646000Y-58450000D03*
X115146000Y-58450000D03*
D12*
X136398000Y-58420000D03*
D13*
X133898000Y-58420000D03*
X131398000Y-58420000D03*
D10*
X113976000Y-39659000D03*
D11*
X113976000Y-42159000D03*
X113976000Y-44659000D03*
X113976000Y-47159000D03*
D10*
X123786000Y-39749000D03*
D11*
X123786000Y-42249000D03*
X123786000Y-44749000D03*
X123786000Y-47249000D03*
D12*
X92456000Y-58547000D03*
D13*
X89956000Y-58547000D03*
X87456000Y-58547000D03*
D14*
X85979000Y-123063000D03*
D15*
X88479000Y-123063000D03*
D16*
X79101000Y-56988000D03*
D17*
X79101000Y-54448000D03*
D16*
X74391000Y-56898000D03*
D17*
X74391000Y-54358000D03*
D16*
X64361000Y-56988000D03*
D17*
X64361000Y-54448000D03*
D16*
X69151000Y-56898000D03*
D17*
X69151000Y-54358000D03*
D16*
X55880000Y-121920000D03*
D17*
X55880000Y-124460000D03*
D18*
X170180000Y-43200360D03*
X170180000Y-50800040D03*
D19*
X55880000Y-128270000D03*
D20*
X55880000Y-130810000D03*
D12*
X105156000Y-58547000D03*
D13*
X102656000Y-58547000D03*
X100156000Y-58547000D03*
D21*
X52370000Y-42672000D03*
D22*
X52370000Y-52832000D03*
D21*
X52370000Y-57150000D03*
D22*
X52370000Y-67310000D03*
D23*
X44890000Y-45510000D03*
D24*
X44890000Y-50590000D03*
D23*
X44990000Y-56800000D03*
D24*
X44990000Y-61880000D03*
D10*
X91070000Y-39490000D03*
D11*
X91070000Y-41990000D03*
X91070000Y-44490000D03*
X91070000Y-46990000D03*
D16*
X74930000Y-45720000D03*
D17*
X74930000Y-48260000D03*
D16*
X74930000Y-39370000D03*
D17*
X74930000Y-41910000D03*
D25*
X132461000Y-80645000D03*
D13*
X134961000Y-80645000D03*
X137461000Y-80645000D03*
D26*
X43000000Y-38000000D03*
D27*
X43000000Y-38000000D03*
X176000000Y-38000000D03*
D26*
X176000000Y-38000000D03*
D27*
X176000000Y-130000000D03*
D26*
X176000000Y-130000000D03*
X43000000Y-130000000D03*
D27*
X43000000Y-130000000D03*
D12*
X174677000Y-97907600D03*
D13*
X172177000Y-97907600D03*
X169677000Y-97907600D03*
X167177000Y-97907600D03*
X164677000Y-97907600D03*
D28*
X78740000Y-125730000D03*
D16*
X78740000Y-123190000D03*
X78740000Y-120650000D03*
X78740000Y-118110000D03*
X78740000Y-115570000D03*
X78740000Y-113030000D03*
X78740000Y-110490000D03*
X78740000Y-107950000D03*
X78740000Y-105410000D03*
X78740000Y-102870000D03*
X78740000Y-100330000D03*
X78740000Y-97790000D03*
X78740000Y-95250000D03*
X78740000Y-92710000D03*
X78740000Y-90170000D03*
X78740000Y-87630000D03*
X78740000Y-85090000D03*
X78740000Y-82550000D03*
X78740000Y-80010000D03*
X78740000Y-77470000D03*
X78740000Y-74930000D03*
X78740000Y-72390000D03*
X78740000Y-69850000D03*
X78740000Y-67310000D03*
X63500000Y-67310000D03*
X63500000Y-69850000D03*
X63500000Y-72390000D03*
X63500000Y-74930000D03*
X63500000Y-77470000D03*
X63500000Y-80010000D03*
X63500000Y-82550000D03*
X63500000Y-85090000D03*
X63500000Y-87630000D03*
X63500000Y-90170000D03*
X63500000Y-92710000D03*
X63500000Y-95250000D03*
X63500000Y-97790000D03*
X63500000Y-100330000D03*
X63500000Y-102870000D03*
X63500000Y-105410000D03*
X63500000Y-107950000D03*
X63500000Y-110490000D03*
X63500000Y-113030000D03*
X63500000Y-115570000D03*
X63500000Y-118110000D03*
X63500000Y-120650000D03*
X63500000Y-123190000D03*
X63500000Y-125730000D03*
X66040000Y-123190000D03*
X76200000Y-80010000D03*
X73660000Y-80010000D03*
X71120000Y-80010000D03*
X68580000Y-80010000D03*
X66040000Y-80010000D03*
D28*
X75689200Y-119430800D03*
D16*
X75689200Y-116890800D03*
X75689200Y-114350800D03*
X75689200Y-111810800D03*
X75689200Y-109270800D03*
D29*
X65938400Y-112760000D03*
D30*
X67938400Y-112760000D03*
X69938400Y-112760000D03*
X69938400Y-110760000D03*
X67938400Y-110760000D03*
X65938400Y-110760000D03*
X69850000Y-125000000D03*
X72390000Y-125000000D03*
D31*
X54610000Y-38100000D03*
D32*
X52070000Y-38100000D03*
X49530000Y-38100000D03*
D25*
X134493000Y-91567000D03*
D13*
X136993000Y-91567000D03*
X139493000Y-91567000D03*
X141993000Y-91567000D03*
D25*
X119881000Y-91567000D03*
D13*
X122381000Y-91567000D03*
X124881000Y-91567000D03*
X127381000Y-91567000D03*
D10*
X148971000Y-66802000D03*
D11*
X148971000Y-69302000D03*
X148971000Y-71802000D03*
X148971000Y-74302000D03*
X148971000Y-76802000D03*
D10*
X159131000Y-66802000D03*
D11*
X159131000Y-69302000D03*
X159131000Y-71802000D03*
X159131000Y-74302000D03*
X159131000Y-76802000D03*
D10*
X174244000Y-66802000D03*
D11*
X174244000Y-69302000D03*
X174244000Y-71802000D03*
X174244000Y-74302000D03*
X174244000Y-76802000D03*
D31*
X159004000Y-59563000D03*
D32*
X161544000Y-59563000D03*
X164084000Y-59563000D03*
D31*
X170688000Y-59690000D03*
D32*
X173228000Y-59690000D03*
X175768000Y-59690000D03*
D16*
X124079000Y-72263000D03*
D17*
X126619000Y-72263000D03*
D16*
X130429000Y-68453000D03*
D17*
X132969000Y-68453000D03*
D16*
X124079000Y-68453000D03*
D17*
X126619000Y-68453000D03*
D16*
X130429000Y-72263000D03*
D17*
X132969000Y-72263000D03*
D16*
X59690000Y-45720000D03*
D17*
X59690000Y-48260000D03*
D16*
X59690000Y-41910000D03*
D17*
X59690000Y-39370000D03*
D33*
X54610000Y-92710000D03*
X54610000Y-90170000D03*
X54610000Y-87630000D03*
X54610000Y-85090000D03*
X54610000Y-82550000D03*
X54610000Y-80010000D03*
X54610000Y-77470000D03*
X54610000Y-74930000D03*
D10*
X67310000Y-39490000D03*
D11*
X67310000Y-41990000D03*
X67310000Y-44490000D03*
X67310000Y-46990000D03*
D34*
X43688000Y-120396000D03*
D11*
X43688000Y-117896000D03*
X43688000Y-115396000D03*
X43688000Y-112896000D03*
X43688000Y-110396000D03*
X43688000Y-107896000D03*
D23*
X134620000Y-46990000D03*
D24*
X155110000Y-46990000D03*
D35*
X43688000Y-101600000D03*
D36*
X43688000Y-99100000D03*
D25*
X97790000Y-123190000D03*
D13*
X100290000Y-123190000D03*
X102790000Y-123190000D03*
X105290000Y-123190000D03*
X107790000Y-123190000D03*
D12*
X175006000Y-86360000D03*
D13*
X172506000Y-86360000D03*
X170006000Y-86360000D03*
X167506000Y-86360000D03*
X165006000Y-86360000D03*
D12*
X124841000Y-81407000D03*
D13*
X122341000Y-81407000D03*
X119841000Y-81407000D03*
D10*
X155321000Y-87249000D03*
D11*
X155321000Y-89749000D03*
X155321000Y-92249000D03*
X155321000Y-94749000D03*
D25*
X120650000Y-127000000D03*
D13*
X123150000Y-127000000D03*
X125650000Y-127000000D03*
X128150000Y-127000000D03*
X130650000Y-127000000D03*
D25*
X120650000Y-116840000D03*
D13*
X123150000Y-116840000D03*
X125650000Y-116840000D03*
X128150000Y-116840000D03*
X130650000Y-116840000D03*
D25*
X138510000Y-127000000D03*
D13*
X141010000Y-127000000D03*
X143510000Y-127000000D03*
X146010000Y-127000000D03*
D16*
X140208000Y-117475000D03*
D17*
X137668000Y-117475000D03*
D16*
X146431000Y-117475000D03*
D17*
X143891000Y-117475000D03*
D18*
X86360000Y-73152000D03*
X86360000Y-75692000D03*
X86360000Y-78232000D03*
X86360000Y-80772000D03*
X86360000Y-83312000D03*
X86360000Y-85852000D03*
X86360000Y-88392000D03*
X86360000Y-90932000D03*
X86360000Y-93472000D03*
X86360000Y-96012000D03*
X86360000Y-98552000D03*
X86360000Y-101092000D03*
X86360000Y-103632000D03*
X86360000Y-106172000D03*
X86360000Y-108712000D03*
X111760000Y-108712000D03*
X111760000Y-106172000D03*
X111760000Y-103632000D03*
X111760000Y-101092000D03*
X111760000Y-98552000D03*
X111760000Y-96012000D03*
X111760000Y-93472000D03*
X111760000Y-90932000D03*
X111760000Y-88392000D03*
X111760000Y-85852000D03*
X111760000Y-83312000D03*
X111760000Y-80772000D03*
X111760000Y-78232000D03*
X111760000Y-75692000D03*
X111760000Y-73152000D03*
D25*
X153670000Y-115570000D03*
D13*
X156170000Y-115570000D03*
X158670000Y-115570000D03*
D12*
X129540000Y-107950000D03*
D13*
X127040000Y-107950000D03*
X124540000Y-107950000D03*
X122040000Y-107950000D03*
D25*
X153710000Y-127000000D03*
D13*
X156210000Y-127000000D03*
X158710000Y-127000000D03*
D12*
X146050000Y-107950000D03*
D13*
X143550000Y-107950000D03*
X141050000Y-107950000D03*
X138550000Y-107950000D03*
D16*
X166370000Y-106680000D03*
D17*
X168910000Y-106680000D03*
D16*
X172720000Y-106680000D03*
D17*
X175260000Y-106680000D03*
D16*
X166370000Y-113030000D03*
D17*
X168910000Y-113030000D03*
D16*
X172720000Y-113030000D03*
D17*
X175260000Y-113030000D03*
D14*
X170180000Y-120650000D03*
D15*
X172680000Y-120650000D03*
M02*
