%FSLAX45Y45*%
G04 Gerber Fmt 4.5, Leading zero omitted, Abs format (unit mm)*
G04 Created by KiCad (PCBNEW (5.99.0-10988-gd8b1e827c7)) date 2021-11-29 12:53:43*
%MOMM*%
%LPD*%
G01*
G04 APERTURE LIST*
%TA.AperFunction,Profile*%
%ADD10C,0.050000*%
%TD*%
%ADD11C,0.200000*%
G04 APERTURE END LIST*
D10*
X3810000Y-3400000D02*
X18000000Y-3400000D01*
X3810000Y-13400000D02*
X18000000Y-13400000D01*
X3810000Y-3400000D02*
X3810000Y-13400000D01*
X18000000Y-13400000D02*
X18000000Y-3400000D01*
D11*
X4065119Y-13712976D02*
X4065119Y-13512976D01*
X4112738Y-13512976D01*
X4141309Y-13522500D01*
X4160357Y-13541548D01*
X4169881Y-13560595D01*
X4179405Y-13598690D01*
X4179405Y-13627262D01*
X4169881Y-13665357D01*
X4160357Y-13684405D01*
X4141309Y-13703452D01*
X4112738Y-13712976D01*
X4065119Y-13712976D01*
X4265119Y-13712976D02*
X4265119Y-13579643D01*
X4265119Y-13617738D02*
X4274643Y-13598690D01*
X4284167Y-13589167D01*
X4303214Y-13579643D01*
X4322262Y-13579643D01*
X4388929Y-13712976D02*
X4388929Y-13579643D01*
X4388929Y-13512976D02*
X4379405Y-13522500D01*
X4388929Y-13532024D01*
X4398452Y-13522500D01*
X4388929Y-13512976D01*
X4388929Y-13532024D01*
X4512738Y-13712976D02*
X4493690Y-13703452D01*
X4484167Y-13684405D01*
X4484167Y-13512976D01*
X4617500Y-13712976D02*
X4598452Y-13703452D01*
X4588929Y-13684405D01*
X4588929Y-13512976D01*
X4846071Y-13712976D02*
X4846071Y-13512976D01*
X4912738Y-13655833D01*
X4979405Y-13512976D01*
X4979405Y-13712976D01*
X5160357Y-13712976D02*
X5160357Y-13608214D01*
X5150833Y-13589167D01*
X5131786Y-13579643D01*
X5093690Y-13579643D01*
X5074643Y-13589167D01*
X5160357Y-13703452D02*
X5141310Y-13712976D01*
X5093690Y-13712976D01*
X5074643Y-13703452D01*
X5065119Y-13684405D01*
X5065119Y-13665357D01*
X5074643Y-13646309D01*
X5093690Y-13636786D01*
X5141310Y-13636786D01*
X5160357Y-13627262D01*
X5255595Y-13579643D02*
X5255595Y-13779643D01*
X5255595Y-13589167D02*
X5274643Y-13579643D01*
X5312738Y-13579643D01*
X5331786Y-13589167D01*
X5341310Y-13598690D01*
X5350833Y-13617738D01*
X5350833Y-13674881D01*
X5341310Y-13693928D01*
X5331786Y-13703452D01*
X5312738Y-13712976D01*
X5274643Y-13712976D01*
X5255595Y-13703452D01*
X5436548Y-13693928D02*
X5446071Y-13703452D01*
X5436548Y-13712976D01*
X5427024Y-13703452D01*
X5436548Y-13693928D01*
X5436548Y-13712976D01*
X5436548Y-13589167D02*
X5446071Y-13598690D01*
X5436548Y-13608214D01*
X5427024Y-13598690D01*
X5436548Y-13589167D01*
X5436548Y-13608214D01*
M02*
