M48
; DRILL file {KiCad (6.0.5)} date Thu Sep 15 17:33:52 2022
; FORMAT={-:-/ absolute / metric / decimal}
; #@! TF.CreationDate,2022-09-15T17:33:52+02:00
; #@! TF.GenerationSoftware,Kicad,Pcbnew,(6.0.5)
; #@! TF.FileFunction,Plated,1,2,PTH
FMAT,2
METRIC
; #@! TA.AperFunction,Plated,PTH,ViaDrill
T1C0.400
; #@! TA.AperFunction,Plated,PTH,ComponentDrill
T2C0.800
; #@! TA.AperFunction,Plated,PTH,ComponentDrill
T3C0.800
; #@! TA.AperFunction,Plated,PTH,ComponentDrill
T4C0.900
; #@! TA.AperFunction,Plated,PTH,ComponentDrill
T5C0.950
; #@! TA.AperFunction,Plated,PTH,ComponentDrill
T6C1.000
; #@! TA.AperFunction,Plated,PTH,ComponentDrill
T7C1.100
; #@! TA.AperFunction,Plated,PTH,ComponentDrill
T8C1.501
; #@! TA.AperFunction,Plated,PTH,ComponentDrill
T9C1.520
; #@! TA.AperFunction,Plated,PTH,ComponentDrill
T10C1.524
; #@! TA.AperFunction,Plated,PTH,ComponentDrill
T11C3.200
%
G90
G05
T1
X170.798Y-97.291
T2
X95.25Y-81.026
X95.25Y-84.328
X99.5Y-94.62
X102.04Y-94.62
X102.87Y-81.026
X102.87Y-84.328
X104.58Y-94.62
X106.485Y-110.495
X106.68Y-88.138
X107.12Y-94.62
X109.66Y-94.62
X110.295Y-110.495
X112.2Y-94.62
X114.3Y-88.138
X114.74Y-94.62
X117.28Y-94.62
X122.67Y-94.7
X125.21Y-94.7
X125.476Y-85.852
X125.984Y-64.262
X127.75Y-94.7
X128.524Y-64.262
X129.655Y-110.575
X130.29Y-94.7
X131.064Y-64.262
X132.83Y-94.7
X132.969Y-80.137
X133.096Y-85.852
X133.465Y-110.575
X133.604Y-64.262
X135.37Y-94.7
X136.144Y-64.262
X136.779Y-80.137
X137.91Y-94.7
X138.684Y-64.262
X140.45Y-94.7
X141.224Y-64.262
X143.764Y-64.262
X145.9Y-94.7
X148.44Y-94.7
X150.98Y-94.7
X152.885Y-110.575
X153.52Y-94.7
X156.06Y-94.7
X156.695Y-110.575
X158.6Y-94.7
X161.14Y-94.7
X163.322Y-85.852
X163.68Y-94.7
X168.94Y-94.7
X170.942Y-85.852
X171.48Y-94.7
X174.02Y-94.7
X175.925Y-110.575
X176.56Y-94.7
X179.1Y-94.7
X179.735Y-110.575
X181.64Y-94.7
X184.18Y-94.7
X186.72Y-94.7
X189.992Y-78.994
X189.992Y-83.058
X191.97Y-94.7
X194.51Y-94.7
X197.05Y-94.7
X197.612Y-78.994
X197.612Y-83.058
X198.955Y-110.575
X199.59Y-94.7
X202.13Y-94.7
X202.765Y-110.575
X204.67Y-94.7
X207.21Y-94.7
X209.75Y-94.7
T3
X187.452Y-88.9
X189.992Y-88.9
T4
X89.149Y-82.296
X91.689Y-82.296
X112.909Y-79.188
X112.909Y-81.788
X112.909Y-84.388
X190.186Y-73.019
X192.786Y-73.019
X195.386Y-73.019
T5
X88.629Y-99.26
X88.629Y-101.76
X88.629Y-104.26
X88.629Y-106.76
X88.629Y-109.26
X88.629Y-111.76
T6
X88.629Y-88.412
X88.629Y-90.912
X177.058Y-66.785
X179.558Y-66.785
X186.436Y-65.278
X188.976Y-65.278
T7
X100.076Y-75.001
X105.156Y-75.001
X110.49Y-75.184
X120.65Y-75.184
X120.65Y-80.772
X120.65Y-83.312
X120.65Y-85.852
X139.192Y-85.415
X144.272Y-85.415
X149.606Y-85.852
X159.766Y-85.852
X178.562Y-75.692
X181.102Y-75.692
X183.642Y-75.692
X193.294Y-65.024
X203.454Y-65.024
T8
X98.473Y-67.056
X120.475Y-67.056
X149.273Y-78.232
X171.275Y-78.232
T9
X106.45Y-118.618
X111.53Y-118.618
X129.54Y-118.364
X134.62Y-118.364
X150.876Y-68.072
X152.908Y-118.364
X155.956Y-68.072
X157.988Y-118.364
X163.65Y-68.072
X168.73Y-68.072
X176.022Y-118.11
X181.102Y-118.11
X196.85Y-118.11
X201.93Y-118.11
X206.248Y-70.866
X206.248Y-75.946
X206.248Y-83.058
X206.248Y-88.138
T10
X91.44Y-70.866
X91.44Y-75.946
T11
X88.55Y-120.78
X89.289Y-64.897
X109.474Y-67.056
X160.274Y-78.232
X209.169Y-64.897
X209.296Y-121.666
T0
M30
