%TF.GenerationSoftware,KiCad,Pcbnew,(6.0.5)*%
%TF.CreationDate,2022-05-13T18:44:48+02:00*%
%TF.ProjectId,Teensy_MainPCB,5465656e-7379-45f4-9d61-696e5043422e,rev?*%
%TF.SameCoordinates,Original*%
%TF.FileFunction,Legend,Top*%
%TF.FilePolarity,Positive*%
%FSLAX46Y46*%
G04 Gerber Fmt 4.6, Leading zero omitted, Abs format (unit mm)*
G04 Created by KiCad (PCBNEW (6.0.5)) date 2022-05-13 18:44:48*
%MOMM*%
%LPD*%
G01*
G04 APERTURE LIST*
G04 Aperture macros list*
%AMRoundRect*
0 Rectangle with rounded corners*
0 $1 Rounding radius*
0 $2 $3 $4 $5 $6 $7 $8 $9 X,Y pos of 4 corners*
0 Add a 4 corners polygon primitive as box body*
4,1,4,$2,$3,$4,$5,$6,$7,$8,$9,$2,$3,0*
0 Add four circle primitives for the rounded corners*
1,1,$1+$1,$2,$3*
1,1,$1+$1,$4,$5*
1,1,$1+$1,$6,$7*
1,1,$1+$1,$8,$9*
0 Add four rect primitives between the rounded corners*
20,1,$1+$1,$2,$3,$4,$5,0*
20,1,$1+$1,$4,$5,$6,$7,0*
20,1,$1+$1,$6,$7,$8,$9,0*
20,1,$1+$1,$8,$9,$2,$3,0*%
G04 Aperture macros list end*
%ADD10C,0.800000*%
%ADD11C,0.120000*%
%ADD12C,0.150000*%
%ADD13C,0.375000*%
%ADD14C,0.250000*%
%ADD15C,0.200000*%
%ADD16C,0.100000*%
%ADD17C,2.000000*%
%ADD18RoundRect,0.250000X-0.725000X0.600000X-0.725000X-0.600000X0.725000X-0.600000X0.725000X0.600000X0*%
%ADD19O,1.950000X1.700000*%
%ADD20RoundRect,0.250000X0.600000X0.725000X-0.600000X0.725000X-0.600000X-0.725000X0.600000X-0.725000X0*%
%ADD21O,1.700000X1.950000*%
%ADD22RoundRect,0.250000X0.750000X-0.600000X0.750000X0.600000X-0.750000X0.600000X-0.750000X-0.600000X0*%
%ADD23O,2.000000X1.700000*%
%ADD24C,1.600000*%
%ADD25O,1.600000X1.600000*%
%ADD26R,2.200000X2.200000*%
%ADD27O,2.200000X2.200000*%
%ADD28R,3.000000X3.000000*%
%ADD29C,3.000000*%
%ADD30C,6.400000*%
%ADD31C,3.600000*%
%ADD32R,1.600000X1.600000*%
%ADD33R,1.300000X1.300000*%
%ADD34C,1.300000*%
%ADD35RoundRect,0.250000X0.725000X-0.600000X0.725000X0.600000X-0.725000X0.600000X-0.725000X-0.600000X0*%
%ADD36R,1.700000X1.700000*%
%ADD37O,1.700000X1.700000*%
%ADD38O,2.268000X1.524000*%
%ADD39RoundRect,0.250000X-0.600000X-0.725000X0.600000X-0.725000X0.600000X0.725000X-0.600000X0.725000X0*%
G04 APERTURE END LIST*
D10*
X157386020Y-106474260D02*
X152306020Y-101394260D01*
X110396020Y-101394260D02*
X110396020Y-133144260D01*
D11*
X78315000Y-34610000D02*
X96005000Y-34610000D01*
X96005000Y-34610000D02*
X96005000Y-52070000D01*
X96005000Y-52070000D02*
X78315000Y-52070000D01*
X78315000Y-52070000D02*
X78315000Y-34610000D01*
D10*
X152234900Y-101152960D02*
X110324900Y-101152960D01*
X157386020Y-133144260D02*
X157386020Y-106474260D01*
X110396020Y-133144260D02*
X157386020Y-133144260D01*
D12*
X85214583Y-65726364D02*
X85671726Y-65726364D01*
X85443155Y-66526364D02*
X85443155Y-65726364D01*
X85862202Y-65726364D02*
X86395536Y-66526364D01*
X86395536Y-65726364D02*
X85862202Y-66526364D01*
X86624107Y-65726364D02*
X87119345Y-65726364D01*
X86852679Y-66031126D01*
X86966964Y-66031126D01*
X87043155Y-66069221D01*
X87081250Y-66107317D01*
X87119345Y-66183507D01*
X87119345Y-66373983D01*
X87081250Y-66450174D01*
X87043155Y-66488269D01*
X86966964Y-66526364D01*
X86738393Y-66526364D01*
X86662202Y-66488269D01*
X86624107Y-66450174D01*
X85576474Y-69109544D02*
X85309807Y-68728592D01*
X85119331Y-69109544D02*
X85119331Y-68309544D01*
X85424093Y-68309544D01*
X85500283Y-68347640D01*
X85538379Y-68385735D01*
X85576474Y-68461925D01*
X85576474Y-68576211D01*
X85538379Y-68652401D01*
X85500283Y-68690497D01*
X85424093Y-68728592D01*
X85119331Y-68728592D01*
X85843140Y-68309544D02*
X86376474Y-69109544D01*
X86376474Y-68309544D02*
X85843140Y-69109544D01*
X86605045Y-68309544D02*
X87100283Y-68309544D01*
X86833617Y-68614306D01*
X86947902Y-68614306D01*
X87024093Y-68652401D01*
X87062188Y-68690497D01*
X87100283Y-68766687D01*
X87100283Y-68957163D01*
X87062188Y-69033354D01*
X87024093Y-69071449D01*
X86947902Y-69109544D01*
X86719331Y-69109544D01*
X86643140Y-69071449D01*
X86605045Y-69033354D01*
X70542319Y-45454529D02*
X70656604Y-45492624D01*
X70847080Y-45492624D01*
X70923271Y-45454529D01*
X70961366Y-45416434D01*
X70999461Y-45340243D01*
X70999461Y-45264053D01*
X70961366Y-45187862D01*
X70923271Y-45149767D01*
X70847080Y-45111672D01*
X70694700Y-45073577D01*
X70618509Y-45035481D01*
X70580414Y-44997386D01*
X70542319Y-44921196D01*
X70542319Y-44845005D01*
X70580414Y-44768815D01*
X70618509Y-44730720D01*
X70694700Y-44692624D01*
X70885176Y-44692624D01*
X70999461Y-44730720D01*
X71342319Y-45492624D02*
X71342319Y-44692624D01*
X71532795Y-44692624D01*
X71647080Y-44730720D01*
X71723271Y-44806910D01*
X71761366Y-44883100D01*
X71799461Y-45035481D01*
X71799461Y-45149767D01*
X71761366Y-45302148D01*
X71723271Y-45378339D01*
X71647080Y-45454529D01*
X71532795Y-45492624D01*
X71342319Y-45492624D01*
X72104223Y-45264053D02*
X72485176Y-45264053D01*
X72028033Y-45492624D02*
X72294700Y-44692624D01*
X72561366Y-45492624D01*
X72980414Y-44692624D02*
X73056604Y-44692624D01*
X73132795Y-44730720D01*
X73170890Y-44768815D01*
X73208985Y-44845005D01*
X73247080Y-44997386D01*
X73247080Y-45187862D01*
X73208985Y-45340243D01*
X73170890Y-45416434D01*
X73132795Y-45454529D01*
X73056604Y-45492624D01*
X72980414Y-45492624D01*
X72904223Y-45454529D01*
X72866128Y-45416434D01*
X72828033Y-45340243D01*
X72789938Y-45187862D01*
X72789938Y-44997386D01*
X72828033Y-44845005D01*
X72866128Y-44768815D01*
X72904223Y-44730720D01*
X72980414Y-44692624D01*
X70561366Y-47948809D02*
X70675652Y-47986904D01*
X70866128Y-47986904D01*
X70942319Y-47948809D01*
X70980414Y-47910714D01*
X71018509Y-47834523D01*
X71018509Y-47758333D01*
X70980414Y-47682142D01*
X70942319Y-47644047D01*
X70866128Y-47605952D01*
X70713747Y-47567857D01*
X70637557Y-47529761D01*
X70599461Y-47491666D01*
X70561366Y-47415476D01*
X70561366Y-47339285D01*
X70599461Y-47263095D01*
X70637557Y-47225000D01*
X70713747Y-47186904D01*
X70904223Y-47186904D01*
X71018509Y-47225000D01*
X71818509Y-47910714D02*
X71780414Y-47948809D01*
X71666128Y-47986904D01*
X71589938Y-47986904D01*
X71475652Y-47948809D01*
X71399461Y-47872619D01*
X71361366Y-47796428D01*
X71323271Y-47644047D01*
X71323271Y-47529761D01*
X71361366Y-47377380D01*
X71399461Y-47301190D01*
X71475652Y-47225000D01*
X71589938Y-47186904D01*
X71666128Y-47186904D01*
X71780414Y-47225000D01*
X71818509Y-47263095D01*
X72542319Y-47986904D02*
X72161366Y-47986904D01*
X72161366Y-47186904D01*
X72961366Y-47186904D02*
X73037557Y-47186904D01*
X73113747Y-47225000D01*
X73151842Y-47263095D01*
X73189938Y-47339285D01*
X73228033Y-47491666D01*
X73228033Y-47682142D01*
X73189938Y-47834523D01*
X73151842Y-47910714D01*
X73113747Y-47948809D01*
X73037557Y-47986904D01*
X72961366Y-47986904D01*
X72885176Y-47948809D01*
X72847080Y-47910714D01*
X72808985Y-47834523D01*
X72770890Y-47682142D01*
X72770890Y-47491666D01*
X72808985Y-47339285D01*
X72847080Y-47263095D01*
X72885176Y-47225000D01*
X72961366Y-47186904D01*
D13*
X38958571Y-51057142D02*
X40101428Y-51057142D01*
X39530000Y-51628571D02*
X39530000Y-50485714D01*
D12*
X85247627Y-60895284D02*
X85742865Y-60895284D01*
X85476199Y-61200046D01*
X85590484Y-61200046D01*
X85666675Y-61238141D01*
X85704770Y-61276237D01*
X85742865Y-61352427D01*
X85742865Y-61542903D01*
X85704770Y-61619094D01*
X85666675Y-61657189D01*
X85590484Y-61695284D01*
X85361913Y-61695284D01*
X85285722Y-61657189D01*
X85247627Y-61619094D01*
X86085722Y-61619094D02*
X86123818Y-61657189D01*
X86085722Y-61695284D01*
X86047627Y-61657189D01*
X86085722Y-61619094D01*
X86085722Y-61695284D01*
X86390484Y-60895284D02*
X86885722Y-60895284D01*
X86619056Y-61200046D01*
X86733341Y-61200046D01*
X86809532Y-61238141D01*
X86847627Y-61276237D01*
X86885722Y-61352427D01*
X86885722Y-61542903D01*
X86847627Y-61619094D01*
X86809532Y-61657189D01*
X86733341Y-61695284D01*
X86504770Y-61695284D01*
X86428580Y-61657189D01*
X86390484Y-61619094D01*
X87114294Y-60895284D02*
X87380960Y-61695284D01*
X87647627Y-60895284D01*
X85714859Y-58423864D02*
X85333906Y-58423864D01*
X85295811Y-58804817D01*
X85333906Y-58766721D01*
X85410097Y-58728626D01*
X85600573Y-58728626D01*
X85676763Y-58766721D01*
X85714859Y-58804817D01*
X85752954Y-58881007D01*
X85752954Y-59071483D01*
X85714859Y-59147674D01*
X85676763Y-59185769D01*
X85600573Y-59223864D01*
X85410097Y-59223864D01*
X85333906Y-59185769D01*
X85295811Y-59147674D01*
X85981525Y-58423864D02*
X86248192Y-59223864D01*
X86514859Y-58423864D01*
X85595536Y-63293040D02*
X85519345Y-63254944D01*
X85405060Y-63254944D01*
X85290774Y-63293040D01*
X85214583Y-63369230D01*
X85176488Y-63445420D01*
X85138393Y-63597801D01*
X85138393Y-63712087D01*
X85176488Y-63864468D01*
X85214583Y-63940659D01*
X85290774Y-64016849D01*
X85405060Y-64054944D01*
X85481250Y-64054944D01*
X85595536Y-64016849D01*
X85633631Y-63978754D01*
X85633631Y-63712087D01*
X85481250Y-63712087D01*
X85976488Y-64054944D02*
X85976488Y-63254944D01*
X86433631Y-64054944D01*
X86433631Y-63254944D01*
X86814583Y-64054944D02*
X86814583Y-63254944D01*
X87005060Y-63254944D01*
X87119345Y-63293040D01*
X87195536Y-63369230D01*
X87233631Y-63445420D01*
X87271726Y-63597801D01*
X87271726Y-63712087D01*
X87233631Y-63864468D01*
X87195536Y-63940659D01*
X87119345Y-64016849D01*
X87005060Y-64054944D01*
X86814583Y-64054944D01*
X142982995Y-45020299D02*
X142982995Y-44639346D01*
X143782995Y-44639346D01*
X143021090Y-45591727D02*
X142982995Y-45515537D01*
X142982995Y-45363156D01*
X143021090Y-45286965D01*
X143097280Y-45248870D01*
X143402042Y-45248870D01*
X143478233Y-45286965D01*
X143516328Y-45363156D01*
X143516328Y-45515537D01*
X143478233Y-45591727D01*
X143402042Y-45629822D01*
X143325852Y-45629822D01*
X143249661Y-45248870D01*
X143516328Y-45858394D02*
X143516328Y-46163156D01*
X142982995Y-45972680D02*
X143668709Y-45972680D01*
X143744900Y-46010775D01*
X143782995Y-46086965D01*
X143782995Y-46163156D01*
X143516328Y-46315537D02*
X143516328Y-46620299D01*
X143782995Y-46429822D02*
X143097280Y-46429822D01*
X143021090Y-46467918D01*
X142982995Y-46544108D01*
X142982995Y-46620299D01*
X138007135Y-44992401D02*
X138388087Y-44725735D01*
X138007135Y-44535259D02*
X138807135Y-44535259D01*
X138807135Y-44840020D01*
X138769040Y-44916211D01*
X138730944Y-44954306D01*
X138654754Y-44992401D01*
X138540468Y-44992401D01*
X138464278Y-44954306D01*
X138426182Y-44916211D01*
X138388087Y-44840020D01*
X138388087Y-44535259D01*
X138007135Y-45335259D02*
X138540468Y-45335259D01*
X138807135Y-45335259D02*
X138769040Y-45297163D01*
X138730944Y-45335259D01*
X138769040Y-45373354D01*
X138807135Y-45335259D01*
X138730944Y-45335259D01*
X138540468Y-46059068D02*
X137892849Y-46059068D01*
X137816659Y-46020973D01*
X137778563Y-45982878D01*
X137740468Y-45906687D01*
X137740468Y-45792401D01*
X137778563Y-45716211D01*
X138045230Y-46059068D02*
X138007135Y-45982878D01*
X138007135Y-45830497D01*
X138045230Y-45754306D01*
X138083325Y-45716211D01*
X138159516Y-45678116D01*
X138388087Y-45678116D01*
X138464278Y-45716211D01*
X138502373Y-45754306D01*
X138540468Y-45830497D01*
X138540468Y-45982878D01*
X138502373Y-46059068D01*
X138007135Y-46440020D02*
X138807135Y-46440020D01*
X138007135Y-46782878D02*
X138426182Y-46782878D01*
X138502373Y-46744782D01*
X138540468Y-46668592D01*
X138540468Y-46554306D01*
X138502373Y-46478116D01*
X138464278Y-46440020D01*
X138540468Y-47049544D02*
X138540468Y-47354306D01*
X138807135Y-47163830D02*
X138121420Y-47163830D01*
X138045230Y-47201925D01*
X138007135Y-47278116D01*
X138007135Y-47354306D01*
X141082980Y-45008876D02*
X141121075Y-44932685D01*
X141121075Y-44818400D01*
X141082980Y-44704114D01*
X141006789Y-44627923D01*
X140930599Y-44589828D01*
X140778218Y-44551733D01*
X140663932Y-44551733D01*
X140511551Y-44589828D01*
X140435360Y-44627923D01*
X140359170Y-44704114D01*
X140321075Y-44818400D01*
X140321075Y-44894590D01*
X140359170Y-45008876D01*
X140397265Y-45046971D01*
X140663932Y-45046971D01*
X140663932Y-44894590D01*
X140321075Y-45389828D02*
X141121075Y-45389828D01*
X140321075Y-45846971D01*
X141121075Y-45846971D01*
X140321075Y-46227923D02*
X141121075Y-46227923D01*
X141121075Y-46418400D01*
X141082980Y-46532685D01*
X141006789Y-46608876D01*
X140930599Y-46646971D01*
X140778218Y-46685066D01*
X140663932Y-46685066D01*
X140511551Y-46646971D01*
X140435360Y-46608876D01*
X140359170Y-46532685D01*
X140321075Y-46418400D01*
X140321075Y-46227923D01*
X146363640Y-45008876D02*
X146401735Y-44932685D01*
X146401735Y-44818400D01*
X146363640Y-44704114D01*
X146287449Y-44627923D01*
X146211259Y-44589828D01*
X146058878Y-44551733D01*
X145944592Y-44551733D01*
X145792211Y-44589828D01*
X145716020Y-44627923D01*
X145639830Y-44704114D01*
X145601735Y-44818400D01*
X145601735Y-44894590D01*
X145639830Y-45008876D01*
X145677925Y-45046971D01*
X145944592Y-45046971D01*
X145944592Y-44894590D01*
X145601735Y-45389828D02*
X146401735Y-45389828D01*
X145601735Y-45846971D01*
X146401735Y-45846971D01*
X145601735Y-46227923D02*
X146401735Y-46227923D01*
X146401735Y-46418400D01*
X146363640Y-46532685D01*
X146287449Y-46608876D01*
X146211259Y-46646971D01*
X146058878Y-46685066D01*
X145944592Y-46685066D01*
X145792211Y-46646971D01*
X145716020Y-46608876D01*
X145639830Y-46532685D01*
X145601735Y-46418400D01*
X145601735Y-46227923D01*
X136030920Y-60538436D02*
X136069015Y-60462245D01*
X136069015Y-60347960D01*
X136030920Y-60233674D01*
X135954729Y-60157483D01*
X135878539Y-60119388D01*
X135726158Y-60081293D01*
X135611872Y-60081293D01*
X135459491Y-60119388D01*
X135383300Y-60157483D01*
X135307110Y-60233674D01*
X135269015Y-60347960D01*
X135269015Y-60424150D01*
X135307110Y-60538436D01*
X135345205Y-60576531D01*
X135611872Y-60576531D01*
X135611872Y-60424150D01*
X135269015Y-60919388D02*
X136069015Y-60919388D01*
X135269015Y-61376531D01*
X136069015Y-61376531D01*
X135269015Y-61757483D02*
X136069015Y-61757483D01*
X136069015Y-61947960D01*
X136030920Y-62062245D01*
X135954729Y-62138436D01*
X135878539Y-62176531D01*
X135726158Y-62214626D01*
X135611872Y-62214626D01*
X135459491Y-62176531D01*
X135383300Y-62138436D01*
X135307110Y-62062245D01*
X135269015Y-61947960D01*
X135269015Y-61757483D01*
X138619175Y-60601879D02*
X138619175Y-60220926D01*
X138238222Y-60182831D01*
X138276318Y-60220926D01*
X138314413Y-60297117D01*
X138314413Y-60487593D01*
X138276318Y-60563783D01*
X138238222Y-60601879D01*
X138162032Y-60639974D01*
X137971556Y-60639974D01*
X137895365Y-60601879D01*
X137857270Y-60563783D01*
X137819175Y-60487593D01*
X137819175Y-60297117D01*
X137857270Y-60220926D01*
X137895365Y-60182831D01*
X138619175Y-60868545D02*
X137819175Y-61135212D01*
X138619175Y-61401879D01*
X159619895Y-44668587D02*
X159619895Y-45163825D01*
X159315133Y-44897159D01*
X159315133Y-45011444D01*
X159277038Y-45087635D01*
X159238942Y-45125730D01*
X159162752Y-45163825D01*
X158972276Y-45163825D01*
X158896085Y-45125730D01*
X158857990Y-45087635D01*
X158819895Y-45011444D01*
X158819895Y-44782873D01*
X158857990Y-44706682D01*
X158896085Y-44668587D01*
X158896085Y-45506682D02*
X158857990Y-45544778D01*
X158819895Y-45506682D01*
X158857990Y-45468587D01*
X158896085Y-45506682D01*
X158819895Y-45506682D01*
X159619895Y-45811444D02*
X159619895Y-46306682D01*
X159315133Y-46040016D01*
X159315133Y-46154301D01*
X159277038Y-46230492D01*
X159238942Y-46268587D01*
X159162752Y-46306682D01*
X158972276Y-46306682D01*
X158896085Y-46268587D01*
X158857990Y-46230492D01*
X158819895Y-46154301D01*
X158819895Y-45925730D01*
X158857990Y-45849540D01*
X158896085Y-45811444D01*
X159619895Y-46535254D02*
X158819895Y-46801920D01*
X159619895Y-47068587D01*
X132655355Y-60205672D02*
X133455355Y-60205672D01*
X132655355Y-60586624D02*
X133455355Y-60586624D01*
X132655355Y-61043767D01*
X133455355Y-61043767D01*
D14*
X48503413Y-98024581D02*
X48646270Y-98072200D01*
X48884365Y-98072200D01*
X48979603Y-98024581D01*
X49027222Y-97976962D01*
X49074841Y-97881724D01*
X49074841Y-97786486D01*
X49027222Y-97691248D01*
X48979603Y-97643629D01*
X48884365Y-97596010D01*
X48693889Y-97548391D01*
X48598651Y-97500772D01*
X48551032Y-97453153D01*
X48503413Y-97357915D01*
X48503413Y-97262677D01*
X48551032Y-97167439D01*
X48598651Y-97119820D01*
X48693889Y-97072200D01*
X48931984Y-97072200D01*
X49074841Y-97119820D01*
X50074841Y-97976962D02*
X50027222Y-98024581D01*
X49884365Y-98072200D01*
X49789127Y-98072200D01*
X49646270Y-98024581D01*
X49551032Y-97929343D01*
X49503413Y-97834105D01*
X49455794Y-97643629D01*
X49455794Y-97500772D01*
X49503413Y-97310296D01*
X49551032Y-97215058D01*
X49646270Y-97119820D01*
X49789127Y-97072200D01*
X49884365Y-97072200D01*
X50027222Y-97119820D01*
X50074841Y-97167439D01*
X50979603Y-98072200D02*
X50503413Y-98072200D01*
X50503413Y-97072200D01*
X51503413Y-97072200D02*
X51598651Y-97072200D01*
X51693889Y-97119820D01*
X51741508Y-97167439D01*
X51789127Y-97262677D01*
X51836746Y-97453153D01*
X51836746Y-97691248D01*
X51789127Y-97881724D01*
X51741508Y-97976962D01*
X51693889Y-98024581D01*
X51598651Y-98072200D01*
X51503413Y-98072200D01*
X51408175Y-98024581D01*
X51360556Y-97976962D01*
X51312937Y-97881724D01*
X51265318Y-97691248D01*
X51265318Y-97453153D01*
X51312937Y-97262677D01*
X51360556Y-97167439D01*
X51408175Y-97119820D01*
X51503413Y-97072200D01*
X48479603Y-95738581D02*
X48622460Y-95786200D01*
X48860556Y-95786200D01*
X48955794Y-95738581D01*
X49003413Y-95690962D01*
X49051032Y-95595724D01*
X49051032Y-95500486D01*
X49003413Y-95405248D01*
X48955794Y-95357629D01*
X48860556Y-95310010D01*
X48670080Y-95262391D01*
X48574841Y-95214772D01*
X48527222Y-95167153D01*
X48479603Y-95071915D01*
X48479603Y-94976677D01*
X48527222Y-94881439D01*
X48574841Y-94833820D01*
X48670080Y-94786200D01*
X48908175Y-94786200D01*
X49051032Y-94833820D01*
X49479603Y-95786200D02*
X49479603Y-94786200D01*
X49717699Y-94786200D01*
X49860556Y-94833820D01*
X49955794Y-94929058D01*
X50003413Y-95024296D01*
X50051032Y-95214772D01*
X50051032Y-95357629D01*
X50003413Y-95548105D01*
X49955794Y-95643343D01*
X49860556Y-95738581D01*
X49717699Y-95786200D01*
X49479603Y-95786200D01*
X50431984Y-95500486D02*
X50908175Y-95500486D01*
X50336746Y-95786200D02*
X50670080Y-94786200D01*
X51003413Y-95786200D01*
X51527222Y-94786200D02*
X51622460Y-94786200D01*
X51717699Y-94833820D01*
X51765318Y-94881439D01*
X51812937Y-94976677D01*
X51860556Y-95167153D01*
X51860556Y-95405248D01*
X51812937Y-95595724D01*
X51765318Y-95690962D01*
X51717699Y-95738581D01*
X51622460Y-95786200D01*
X51527222Y-95786200D01*
X51431984Y-95738581D01*
X51384365Y-95690962D01*
X51336746Y-95595724D01*
X51289127Y-95405248D01*
X51289127Y-95167153D01*
X51336746Y-94976677D01*
X51384365Y-94881439D01*
X51431984Y-94833820D01*
X51527222Y-94786200D01*
X49408175Y-92293820D02*
X49312937Y-92246200D01*
X49170080Y-92246200D01*
X49027222Y-92293820D01*
X48931984Y-92389058D01*
X48884365Y-92484296D01*
X48836746Y-92674772D01*
X48836746Y-92817629D01*
X48884365Y-93008105D01*
X48931984Y-93103343D01*
X49027222Y-93198581D01*
X49170080Y-93246200D01*
X49265318Y-93246200D01*
X49408175Y-93198581D01*
X49455794Y-93150962D01*
X49455794Y-92817629D01*
X49265318Y-92817629D01*
X49884365Y-93246200D02*
X49884365Y-92246200D01*
X50455794Y-93246200D01*
X50455794Y-92246200D01*
X50931984Y-93246200D02*
X50931984Y-92246200D01*
X51170080Y-92246200D01*
X51312937Y-92293820D01*
X51408175Y-92389058D01*
X51455794Y-92484296D01*
X51503413Y-92674772D01*
X51503413Y-92817629D01*
X51455794Y-93008105D01*
X51408175Y-93103343D01*
X51312937Y-93198581D01*
X51170080Y-93246200D01*
X50931984Y-93246200D01*
D12*
X105347619Y-45093809D02*
X105461904Y-45131904D01*
X105652380Y-45131904D01*
X105728571Y-45093809D01*
X105766666Y-45055714D01*
X105804761Y-44979523D01*
X105804761Y-44903333D01*
X105766666Y-44827142D01*
X105728571Y-44789047D01*
X105652380Y-44750952D01*
X105500000Y-44712857D01*
X105423809Y-44674761D01*
X105385714Y-44636666D01*
X105347619Y-44560476D01*
X105347619Y-44484285D01*
X105385714Y-44408095D01*
X105423809Y-44370000D01*
X105500000Y-44331904D01*
X105690476Y-44331904D01*
X105804761Y-44370000D01*
X106147619Y-45131904D02*
X106147619Y-44331904D01*
X106338095Y-44331904D01*
X106452380Y-44370000D01*
X106528571Y-44446190D01*
X106566666Y-44522380D01*
X106604761Y-44674761D01*
X106604761Y-44789047D01*
X106566666Y-44941428D01*
X106528571Y-45017619D01*
X106452380Y-45093809D01*
X106338095Y-45131904D01*
X106147619Y-45131904D01*
X106909523Y-44903333D02*
X107290476Y-44903333D01*
X106833333Y-45131904D02*
X107100000Y-44331904D01*
X107366666Y-45131904D01*
X107595238Y-44408095D02*
X107633333Y-44370000D01*
X107709523Y-44331904D01*
X107900000Y-44331904D01*
X107976190Y-44370000D01*
X108014285Y-44408095D01*
X108052380Y-44484285D01*
X108052380Y-44560476D01*
X108014285Y-44674761D01*
X107557142Y-45131904D01*
X108052380Y-45131904D01*
X105406666Y-47503809D02*
X105520952Y-47541904D01*
X105711428Y-47541904D01*
X105787619Y-47503809D01*
X105825714Y-47465714D01*
X105863809Y-47389523D01*
X105863809Y-47313333D01*
X105825714Y-47237142D01*
X105787619Y-47199047D01*
X105711428Y-47160952D01*
X105559047Y-47122857D01*
X105482857Y-47084761D01*
X105444761Y-47046666D01*
X105406666Y-46970476D01*
X105406666Y-46894285D01*
X105444761Y-46818095D01*
X105482857Y-46780000D01*
X105559047Y-46741904D01*
X105749523Y-46741904D01*
X105863809Y-46780000D01*
X106663809Y-47465714D02*
X106625714Y-47503809D01*
X106511428Y-47541904D01*
X106435238Y-47541904D01*
X106320952Y-47503809D01*
X106244761Y-47427619D01*
X106206666Y-47351428D01*
X106168571Y-47199047D01*
X106168571Y-47084761D01*
X106206666Y-46932380D01*
X106244761Y-46856190D01*
X106320952Y-46780000D01*
X106435238Y-46741904D01*
X106511428Y-46741904D01*
X106625714Y-46780000D01*
X106663809Y-46818095D01*
X107387619Y-47541904D02*
X107006666Y-47541904D01*
X107006666Y-46741904D01*
X107616190Y-46818095D02*
X107654285Y-46780000D01*
X107730476Y-46741904D01*
X107920952Y-46741904D01*
X107997142Y-46780000D01*
X108035238Y-46818095D01*
X108073333Y-46894285D01*
X108073333Y-46970476D01*
X108035238Y-47084761D01*
X107578095Y-47541904D01*
X108073333Y-47541904D01*
X168650996Y-77031900D02*
X168574805Y-76993804D01*
X168460520Y-76993804D01*
X168346234Y-77031900D01*
X168270043Y-77108090D01*
X168231948Y-77184280D01*
X168193853Y-77336661D01*
X168193853Y-77450947D01*
X168231948Y-77603328D01*
X168270043Y-77679519D01*
X168346234Y-77755709D01*
X168460520Y-77793804D01*
X168536710Y-77793804D01*
X168650996Y-77755709D01*
X168689091Y-77717614D01*
X168689091Y-77450947D01*
X168536710Y-77450947D01*
X169031948Y-77793804D02*
X169031948Y-76993804D01*
X169489091Y-77793804D01*
X169489091Y-76993804D01*
X169870043Y-77793804D02*
X169870043Y-76993804D01*
X170060520Y-76993804D01*
X170174805Y-77031900D01*
X170250996Y-77108090D01*
X170289091Y-77184280D01*
X170327186Y-77336661D01*
X170327186Y-77450947D01*
X170289091Y-77603328D01*
X170250996Y-77679519D01*
X170174805Y-77755709D01*
X170060520Y-77793804D01*
X169870043Y-77793804D01*
X168202750Y-80242364D02*
X168202750Y-79442364D01*
X168507512Y-79442364D01*
X168583702Y-79480460D01*
X168621798Y-79518555D01*
X168659893Y-79594745D01*
X168659893Y-79709031D01*
X168621798Y-79785221D01*
X168583702Y-79823317D01*
X168507512Y-79861412D01*
X168202750Y-79861412D01*
X168926560Y-79442364D02*
X169117036Y-80242364D01*
X169269417Y-79670936D01*
X169421798Y-80242364D01*
X169612274Y-79442364D01*
X169917036Y-80242364D02*
X169917036Y-79442364D01*
X170183702Y-80013793D01*
X170450369Y-79442364D01*
X170450369Y-80242364D01*
X168813527Y-75057308D02*
X169575432Y-75057308D01*
X169194480Y-75438260D02*
X169194480Y-74676356D01*
X168604003Y-84781397D02*
X168870670Y-84781397D01*
X168984956Y-85200444D02*
X168604003Y-85200444D01*
X168604003Y-84400444D01*
X168984956Y-84400444D01*
X169327813Y-85200444D02*
X169327813Y-84400444D01*
X169784956Y-85200444D01*
X169784956Y-84400444D01*
X168328440Y-82556304D02*
X168328440Y-81756304D01*
X168518916Y-81756304D01*
X168633201Y-81794400D01*
X168709392Y-81870590D01*
X168747487Y-81946780D01*
X168785582Y-82099161D01*
X168785582Y-82213447D01*
X168747487Y-82365828D01*
X168709392Y-82442019D01*
X168633201Y-82518209D01*
X168518916Y-82556304D01*
X168328440Y-82556304D01*
X169128440Y-82556304D02*
X169128440Y-81756304D01*
X169966535Y-82556304D02*
X169699868Y-82175352D01*
X169509392Y-82556304D02*
X169509392Y-81756304D01*
X169814154Y-81756304D01*
X169890344Y-81794400D01*
X169928440Y-81832495D01*
X169966535Y-81908685D01*
X169966535Y-82022971D01*
X169928440Y-82099161D01*
X169890344Y-82137257D01*
X169814154Y-82175352D01*
X169509392Y-82175352D01*
X164345696Y-74418240D02*
X164269505Y-74380144D01*
X164155220Y-74380144D01*
X164040934Y-74418240D01*
X163964743Y-74494430D01*
X163926648Y-74570620D01*
X163888553Y-74723001D01*
X163888553Y-74837287D01*
X163926648Y-74989668D01*
X163964743Y-75065859D01*
X164040934Y-75142049D01*
X164155220Y-75180144D01*
X164231410Y-75180144D01*
X164345696Y-75142049D01*
X164383791Y-75103954D01*
X164383791Y-74837287D01*
X164231410Y-74837287D01*
X164726648Y-75180144D02*
X164726648Y-74380144D01*
X165183791Y-75180144D01*
X165183791Y-74380144D01*
X165564743Y-75180144D02*
X165564743Y-74380144D01*
X165755220Y-74380144D01*
X165869505Y-74418240D01*
X165945696Y-74494430D01*
X165983791Y-74570620D01*
X166021886Y-74723001D01*
X166021886Y-74837287D01*
X165983791Y-74989668D01*
X165945696Y-75065859D01*
X165869505Y-75142049D01*
X165755220Y-75180144D01*
X165564743Y-75180144D01*
X163938052Y-77717609D02*
X164052338Y-77755704D01*
X164242814Y-77755704D01*
X164319004Y-77717609D01*
X164357100Y-77679514D01*
X164395195Y-77603323D01*
X164395195Y-77527133D01*
X164357100Y-77450942D01*
X164319004Y-77412847D01*
X164242814Y-77374752D01*
X164090433Y-77336657D01*
X164014242Y-77298561D01*
X163976147Y-77260466D01*
X163938052Y-77184276D01*
X163938052Y-77108085D01*
X163976147Y-77031895D01*
X164014242Y-76993800D01*
X164090433Y-76955704D01*
X164280909Y-76955704D01*
X164395195Y-76993800D01*
X164738052Y-77755704D02*
X164738052Y-76955704D01*
X165538052Y-76993800D02*
X165461861Y-76955704D01*
X165347576Y-76955704D01*
X165233290Y-76993800D01*
X165157100Y-77069990D01*
X165119004Y-77146180D01*
X165080909Y-77298561D01*
X165080909Y-77412847D01*
X165119004Y-77565228D01*
X165157100Y-77641419D01*
X165233290Y-77717609D01*
X165347576Y-77755704D01*
X165423766Y-77755704D01*
X165538052Y-77717609D01*
X165576147Y-77679514D01*
X165576147Y-77412847D01*
X165423766Y-77412847D01*
X164345639Y-71982384D02*
X163964686Y-71982384D01*
X163926591Y-72363337D01*
X163964686Y-72325241D01*
X164040877Y-72287146D01*
X164231353Y-72287146D01*
X164307543Y-72325241D01*
X164345639Y-72363337D01*
X164383734Y-72439527D01*
X164383734Y-72630003D01*
X164345639Y-72706194D01*
X164307543Y-72744289D01*
X164231353Y-72782384D01*
X164040877Y-72782384D01*
X163964686Y-72744289D01*
X163926591Y-72706194D01*
X164612305Y-71982384D02*
X164878972Y-72782384D01*
X165145639Y-71982384D01*
X163932947Y-69724304D02*
X164428185Y-69724304D01*
X164161519Y-70029066D01*
X164275804Y-70029066D01*
X164351995Y-70067161D01*
X164390090Y-70105257D01*
X164428185Y-70181447D01*
X164428185Y-70371923D01*
X164390090Y-70448114D01*
X164351995Y-70486209D01*
X164275804Y-70524304D01*
X164047233Y-70524304D01*
X163971042Y-70486209D01*
X163932947Y-70448114D01*
X164771042Y-70448114D02*
X164809138Y-70486209D01*
X164771042Y-70524304D01*
X164732947Y-70486209D01*
X164771042Y-70448114D01*
X164771042Y-70524304D01*
X165075804Y-69724304D02*
X165571042Y-69724304D01*
X165304376Y-70029066D01*
X165418661Y-70029066D01*
X165494852Y-70067161D01*
X165532947Y-70105257D01*
X165571042Y-70181447D01*
X165571042Y-70371923D01*
X165532947Y-70448114D01*
X165494852Y-70486209D01*
X165418661Y-70524304D01*
X165190090Y-70524304D01*
X165113900Y-70486209D01*
X165075804Y-70448114D01*
X165799614Y-69724304D02*
X166066280Y-70524304D01*
X166332947Y-69724304D01*
X164673356Y-89249300D02*
X164597165Y-89211204D01*
X164482880Y-89211204D01*
X164368594Y-89249300D01*
X164292403Y-89325490D01*
X164254308Y-89401680D01*
X164216213Y-89554061D01*
X164216213Y-89668347D01*
X164254308Y-89820728D01*
X164292403Y-89896919D01*
X164368594Y-89973109D01*
X164482880Y-90011204D01*
X164559070Y-90011204D01*
X164673356Y-89973109D01*
X164711451Y-89935014D01*
X164711451Y-89668347D01*
X164559070Y-89668347D01*
X165054308Y-90011204D02*
X165054308Y-89211204D01*
X165511451Y-90011204D01*
X165511451Y-89211204D01*
X165892403Y-90011204D02*
X165892403Y-89211204D01*
X166082880Y-89211204D01*
X166197165Y-89249300D01*
X166273356Y-89325490D01*
X166311451Y-89401680D01*
X166349546Y-89554061D01*
X166349546Y-89668347D01*
X166311451Y-89820728D01*
X166273356Y-89896919D01*
X166197165Y-89973109D01*
X166082880Y-90011204D01*
X165892403Y-90011204D01*
X164235232Y-92561369D02*
X164349518Y-92599464D01*
X164539994Y-92599464D01*
X164616184Y-92561369D01*
X164654280Y-92523274D01*
X164692375Y-92447083D01*
X164692375Y-92370893D01*
X164654280Y-92294702D01*
X164616184Y-92256607D01*
X164539994Y-92218512D01*
X164387613Y-92180417D01*
X164311422Y-92142321D01*
X164273327Y-92104226D01*
X164235232Y-92028036D01*
X164235232Y-91951845D01*
X164273327Y-91875655D01*
X164311422Y-91837560D01*
X164387613Y-91799464D01*
X164578089Y-91799464D01*
X164692375Y-91837560D01*
X165035232Y-92599464D02*
X165035232Y-91799464D01*
X165835232Y-91837560D02*
X165759041Y-91799464D01*
X165644756Y-91799464D01*
X165530470Y-91837560D01*
X165454280Y-91913750D01*
X165416184Y-91989940D01*
X165378089Y-92142321D01*
X165378089Y-92256607D01*
X165416184Y-92408988D01*
X165454280Y-92485179D01*
X165530470Y-92561369D01*
X165644756Y-92599464D01*
X165720946Y-92599464D01*
X165835232Y-92561369D01*
X165873327Y-92523274D01*
X165873327Y-92256607D01*
X165720946Y-92256607D01*
X164368627Y-84187084D02*
X164863865Y-84187084D01*
X164597199Y-84491846D01*
X164711484Y-84491846D01*
X164787675Y-84529941D01*
X164825770Y-84568037D01*
X164863865Y-84644227D01*
X164863865Y-84834703D01*
X164825770Y-84910894D01*
X164787675Y-84948989D01*
X164711484Y-84987084D01*
X164482913Y-84987084D01*
X164406722Y-84948989D01*
X164368627Y-84910894D01*
X165206722Y-84910894D02*
X165244818Y-84948989D01*
X165206722Y-84987084D01*
X165168627Y-84948989D01*
X165206722Y-84910894D01*
X165206722Y-84987084D01*
X165511484Y-84187084D02*
X166006722Y-84187084D01*
X165740056Y-84491846D01*
X165854341Y-84491846D01*
X165930532Y-84529941D01*
X165968627Y-84568037D01*
X166006722Y-84644227D01*
X166006722Y-84834703D01*
X165968627Y-84910894D01*
X165930532Y-84948989D01*
X165854341Y-84987084D01*
X165625770Y-84987084D01*
X165549580Y-84948989D01*
X165511484Y-84910894D01*
X166235294Y-84187084D02*
X166501960Y-84987084D01*
X166768627Y-84187084D01*
X164787599Y-86737244D02*
X164406646Y-86737244D01*
X164368551Y-87118197D01*
X164406646Y-87080101D01*
X164482837Y-87042006D01*
X164673313Y-87042006D01*
X164749503Y-87080101D01*
X164787599Y-87118197D01*
X164825694Y-87194387D01*
X164825694Y-87384863D01*
X164787599Y-87461054D01*
X164749503Y-87499149D01*
X164673313Y-87537244D01*
X164482837Y-87537244D01*
X164406646Y-87499149D01*
X164368551Y-87461054D01*
X165054265Y-86737244D02*
X165320932Y-87537244D01*
X165587599Y-86737244D01*
X48291428Y-84117142D02*
X48253333Y-84164761D01*
X48139047Y-84212380D01*
X48062857Y-84212380D01*
X47948571Y-84164761D01*
X47872380Y-84069523D01*
X47834285Y-83974285D01*
X47796190Y-83783809D01*
X47796190Y-83640952D01*
X47834285Y-83450476D01*
X47872380Y-83355238D01*
X47948571Y-83260000D01*
X48062857Y-83212380D01*
X48139047Y-83212380D01*
X48253333Y-83260000D01*
X48291428Y-83307619D01*
X48634285Y-84212380D02*
X48634285Y-83212380D01*
X48977142Y-84212380D02*
X48977142Y-83688571D01*
X48939047Y-83593333D01*
X48862857Y-83545714D01*
X48748571Y-83545714D01*
X48672380Y-83593333D01*
X48634285Y-83640952D01*
X49700952Y-84212380D02*
X49700952Y-83688571D01*
X49662857Y-83593333D01*
X49586666Y-83545714D01*
X49434285Y-83545714D01*
X49358095Y-83593333D01*
X49700952Y-84164761D02*
X49624761Y-84212380D01*
X49434285Y-84212380D01*
X49358095Y-84164761D01*
X49320000Y-84069523D01*
X49320000Y-83974285D01*
X49358095Y-83879047D01*
X49434285Y-83831428D01*
X49624761Y-83831428D01*
X49700952Y-83783809D01*
X50081904Y-84212380D02*
X50081904Y-83545714D01*
X50081904Y-83736190D02*
X50120000Y-83640952D01*
X50158095Y-83593333D01*
X50234285Y-83545714D01*
X50310476Y-83545714D01*
X50920000Y-83545714D02*
X50920000Y-84355238D01*
X50881904Y-84450476D01*
X50843809Y-84498095D01*
X50767619Y-84545714D01*
X50653333Y-84545714D01*
X50577142Y-84498095D01*
X50920000Y-84164761D02*
X50843809Y-84212380D01*
X50691428Y-84212380D01*
X50615238Y-84164761D01*
X50577142Y-84117142D01*
X50539047Y-84021904D01*
X50539047Y-83736190D01*
X50577142Y-83640952D01*
X50615238Y-83593333D01*
X50691428Y-83545714D01*
X50843809Y-83545714D01*
X50920000Y-83593333D01*
X51605714Y-84164761D02*
X51529523Y-84212380D01*
X51377142Y-84212380D01*
X51300952Y-84164761D01*
X51262857Y-84069523D01*
X51262857Y-83688571D01*
X51300952Y-83593333D01*
X51377142Y-83545714D01*
X51529523Y-83545714D01*
X51605714Y-83593333D01*
X51643809Y-83688571D01*
X51643809Y-83783809D01*
X51262857Y-83879047D01*
X51986666Y-83688571D02*
X52253333Y-83688571D01*
X52367619Y-84212380D02*
X51986666Y-84212380D01*
X51986666Y-83212380D01*
X52367619Y-83212380D01*
X52710476Y-83545714D02*
X52710476Y-84212380D01*
X52710476Y-83640952D02*
X52748571Y-83593333D01*
X52824761Y-83545714D01*
X52939047Y-83545714D01*
X53015238Y-83593333D01*
X53053333Y-83688571D01*
X53053333Y-84212380D01*
X53777142Y-84212380D02*
X53777142Y-83688571D01*
X53739047Y-83593333D01*
X53662857Y-83545714D01*
X53510476Y-83545714D01*
X53434285Y-83593333D01*
X53777142Y-84164761D02*
X53700952Y-84212380D01*
X53510476Y-84212380D01*
X53434285Y-84164761D01*
X53396190Y-84069523D01*
X53396190Y-83974285D01*
X53434285Y-83879047D01*
X53510476Y-83831428D01*
X53700952Y-83831428D01*
X53777142Y-83783809D01*
X54158095Y-84212380D02*
X54158095Y-83212380D01*
X54158095Y-83593333D02*
X54234285Y-83545714D01*
X54386666Y-83545714D01*
X54462857Y-83593333D01*
X54500952Y-83640952D01*
X54539047Y-83736190D01*
X54539047Y-84021904D01*
X54500952Y-84117142D01*
X54462857Y-84164761D01*
X54386666Y-84212380D01*
X54234285Y-84212380D01*
X54158095Y-84164761D01*
X54996190Y-84212380D02*
X54920000Y-84164761D01*
X54881904Y-84069523D01*
X54881904Y-83212380D01*
X55605714Y-84164761D02*
X55529523Y-84212380D01*
X55377142Y-84212380D01*
X55300952Y-84164761D01*
X55262857Y-84069523D01*
X55262857Y-83688571D01*
X55300952Y-83593333D01*
X55377142Y-83545714D01*
X55529523Y-83545714D01*
X55605714Y-83593333D01*
X55643809Y-83688571D01*
X55643809Y-83783809D01*
X55262857Y-83879047D01*
X98257436Y-63549580D02*
X98181245Y-63511484D01*
X98066960Y-63511484D01*
X97952674Y-63549580D01*
X97876483Y-63625770D01*
X97838388Y-63701960D01*
X97800293Y-63854341D01*
X97800293Y-63968627D01*
X97838388Y-64121008D01*
X97876483Y-64197199D01*
X97952674Y-64273389D01*
X98066960Y-64311484D01*
X98143150Y-64311484D01*
X98257436Y-64273389D01*
X98295531Y-64235294D01*
X98295531Y-63968627D01*
X98143150Y-63968627D01*
X98638388Y-64311484D02*
X98638388Y-63511484D01*
X99095531Y-64311484D01*
X99095531Y-63511484D01*
X99476483Y-64311484D02*
X99476483Y-63511484D01*
X99666960Y-63511484D01*
X99781245Y-63549580D01*
X99857436Y-63625770D01*
X99895531Y-63701960D01*
X99933626Y-63854341D01*
X99933626Y-63968627D01*
X99895531Y-64121008D01*
X99857436Y-64197199D01*
X99781245Y-64273389D01*
X99666960Y-64311484D01*
X99476483Y-64311484D01*
X98023827Y-61040064D02*
X98519065Y-61040064D01*
X98252399Y-61344826D01*
X98366684Y-61344826D01*
X98442875Y-61382921D01*
X98480970Y-61421017D01*
X98519065Y-61497207D01*
X98519065Y-61687683D01*
X98480970Y-61763874D01*
X98442875Y-61801969D01*
X98366684Y-61840064D01*
X98138113Y-61840064D01*
X98061922Y-61801969D01*
X98023827Y-61763874D01*
X98861922Y-61763874D02*
X98900018Y-61801969D01*
X98861922Y-61840064D01*
X98823827Y-61801969D01*
X98861922Y-61763874D01*
X98861922Y-61840064D01*
X99166684Y-61040064D02*
X99661922Y-61040064D01*
X99395256Y-61344826D01*
X99509541Y-61344826D01*
X99585732Y-61382921D01*
X99623827Y-61421017D01*
X99661922Y-61497207D01*
X99661922Y-61687683D01*
X99623827Y-61763874D01*
X99585732Y-61801969D01*
X99509541Y-61840064D01*
X99280970Y-61840064D01*
X99204780Y-61801969D01*
X99166684Y-61763874D01*
X99890494Y-61040064D02*
X100157160Y-61840064D01*
X100423827Y-61040064D01*
X98488519Y-58568644D02*
X98107566Y-58568644D01*
X98069471Y-58949597D01*
X98107566Y-58911501D01*
X98183757Y-58873406D01*
X98374233Y-58873406D01*
X98450423Y-58911501D01*
X98488519Y-58949597D01*
X98526614Y-59025787D01*
X98526614Y-59216263D01*
X98488519Y-59292454D01*
X98450423Y-59330549D01*
X98374233Y-59368644D01*
X98183757Y-59368644D01*
X98107566Y-59330549D01*
X98069471Y-59292454D01*
X98755185Y-58568644D02*
X99021852Y-59368644D01*
X99288519Y-58568644D01*
X98126614Y-69254324D02*
X97859947Y-68873372D01*
X97669471Y-69254324D02*
X97669471Y-68454324D01*
X97974233Y-68454324D01*
X98050423Y-68492420D01*
X98088519Y-68530515D01*
X98126614Y-68606705D01*
X98126614Y-68720991D01*
X98088519Y-68797181D01*
X98050423Y-68835277D01*
X97974233Y-68873372D01*
X97669471Y-68873372D01*
X98393280Y-68454324D02*
X98926614Y-69254324D01*
X98926614Y-68454324D02*
X98393280Y-69254324D01*
X99612328Y-68454324D02*
X99231376Y-68454324D01*
X99193280Y-68835277D01*
X99231376Y-68797181D01*
X99307566Y-68759086D01*
X99498042Y-68759086D01*
X99574233Y-68797181D01*
X99612328Y-68835277D01*
X99650423Y-68911467D01*
X99650423Y-69101943D01*
X99612328Y-69178134D01*
X99574233Y-69216229D01*
X99498042Y-69254324D01*
X99307566Y-69254324D01*
X99231376Y-69216229D01*
X99193280Y-69178134D01*
X97764723Y-66097204D02*
X98221866Y-66097204D01*
X97993295Y-66897204D02*
X97993295Y-66097204D01*
X98412342Y-66097204D02*
X98945676Y-66897204D01*
X98945676Y-66097204D02*
X98412342Y-66897204D01*
X99631390Y-66097204D02*
X99250438Y-66097204D01*
X99212342Y-66478157D01*
X99250438Y-66440061D01*
X99326628Y-66401966D01*
X99517104Y-66401966D01*
X99593295Y-66440061D01*
X99631390Y-66478157D01*
X99669485Y-66554347D01*
X99669485Y-66744823D01*
X99631390Y-66821014D01*
X99593295Y-66859109D01*
X99517104Y-66897204D01*
X99326628Y-66897204D01*
X99250438Y-66859109D01*
X99212342Y-66821014D01*
X168316855Y-51475787D02*
X168316855Y-51971025D01*
X168012093Y-51704359D01*
X168012093Y-51818644D01*
X167973998Y-51894835D01*
X167935902Y-51932930D01*
X167859712Y-51971025D01*
X167669236Y-51971025D01*
X167593045Y-51932930D01*
X167554950Y-51894835D01*
X167516855Y-51818644D01*
X167516855Y-51590073D01*
X167554950Y-51513882D01*
X167593045Y-51475787D01*
X167593045Y-52313882D02*
X167554950Y-52351978D01*
X167516855Y-52313882D01*
X167554950Y-52275787D01*
X167593045Y-52313882D01*
X167516855Y-52313882D01*
X168316855Y-52618644D02*
X168316855Y-53113882D01*
X168012093Y-52847216D01*
X168012093Y-52961501D01*
X167973998Y-53037692D01*
X167935902Y-53075787D01*
X167859712Y-53113882D01*
X167669236Y-53113882D01*
X167593045Y-53075787D01*
X167554950Y-53037692D01*
X167516855Y-52961501D01*
X167516855Y-52732930D01*
X167554950Y-52656740D01*
X167593045Y-52618644D01*
X168316855Y-53342454D02*
X167516855Y-53609120D01*
X168316855Y-53875787D01*
X165850515Y-51583673D02*
X165850515Y-51736054D01*
X165812420Y-51812244D01*
X165736229Y-51888435D01*
X165583848Y-51926530D01*
X165317181Y-51926530D01*
X165164800Y-51888435D01*
X165088610Y-51812244D01*
X165050515Y-51736054D01*
X165050515Y-51583673D01*
X165088610Y-51507482D01*
X165164800Y-51431292D01*
X165317181Y-51393197D01*
X165583848Y-51393197D01*
X165736229Y-51431292D01*
X165812420Y-51507482D01*
X165850515Y-51583673D01*
X165583848Y-52612244D02*
X165050515Y-52612244D01*
X165583848Y-52269387D02*
X165164800Y-52269387D01*
X165088610Y-52307482D01*
X165050515Y-52383673D01*
X165050515Y-52497959D01*
X165088610Y-52574149D01*
X165126705Y-52612244D01*
X165583848Y-52878911D02*
X165583848Y-53183673D01*
X165850515Y-52993197D02*
X165164800Y-52993197D01*
X165088610Y-53031292D01*
X165050515Y-53107482D01*
X165050515Y-53183673D01*
X163041275Y-51864279D02*
X163041275Y-51483326D01*
X162660322Y-51445231D01*
X162698418Y-51483326D01*
X162736513Y-51559517D01*
X162736513Y-51749993D01*
X162698418Y-51826183D01*
X162660322Y-51864279D01*
X162584132Y-51902374D01*
X162393656Y-51902374D01*
X162317465Y-51864279D01*
X162279370Y-51826183D01*
X162241275Y-51749993D01*
X162241275Y-51559517D01*
X162279370Y-51483326D01*
X162317465Y-51445231D01*
X163041275Y-52130945D02*
X162241275Y-52397612D01*
X163041275Y-52664279D01*
X175258675Y-51771633D02*
X175258675Y-51924014D01*
X175220580Y-52000204D01*
X175144389Y-52076395D01*
X174992008Y-52114490D01*
X174725341Y-52114490D01*
X174572960Y-52076395D01*
X174496770Y-52000204D01*
X174458675Y-51924014D01*
X174458675Y-51771633D01*
X174496770Y-51695442D01*
X174572960Y-51619252D01*
X174725341Y-51581157D01*
X174992008Y-51581157D01*
X175144389Y-51619252D01*
X175220580Y-51695442D01*
X175258675Y-51771633D01*
X174992008Y-52800204D02*
X174458675Y-52800204D01*
X174992008Y-52457347D02*
X174572960Y-52457347D01*
X174496770Y-52495442D01*
X174458675Y-52571633D01*
X174458675Y-52685919D01*
X174496770Y-52762109D01*
X174534865Y-52800204D01*
X174992008Y-53066871D02*
X174992008Y-53371633D01*
X175258675Y-53181157D02*
X174572960Y-53181157D01*
X174496770Y-53219252D01*
X174458675Y-53295442D01*
X174458675Y-53371633D01*
X177831695Y-51414827D02*
X177831695Y-51910065D01*
X177526933Y-51643399D01*
X177526933Y-51757684D01*
X177488838Y-51833875D01*
X177450742Y-51871970D01*
X177374552Y-51910065D01*
X177184076Y-51910065D01*
X177107885Y-51871970D01*
X177069790Y-51833875D01*
X177031695Y-51757684D01*
X177031695Y-51529113D01*
X177069790Y-51452922D01*
X177107885Y-51414827D01*
X177107885Y-52252922D02*
X177069790Y-52291018D01*
X177031695Y-52252922D01*
X177069790Y-52214827D01*
X177107885Y-52252922D01*
X177031695Y-52252922D01*
X177831695Y-52557684D02*
X177831695Y-53052922D01*
X177526933Y-52786256D01*
X177526933Y-52900541D01*
X177488838Y-52976732D01*
X177450742Y-53014827D01*
X177374552Y-53052922D01*
X177184076Y-53052922D01*
X177107885Y-53014827D01*
X177069790Y-52976732D01*
X177031695Y-52900541D01*
X177031695Y-52671970D01*
X177069790Y-52595780D01*
X177107885Y-52557684D01*
X177831695Y-53281494D02*
X177031695Y-53548160D01*
X177831695Y-53814827D01*
X172683115Y-51973499D02*
X172683115Y-51592546D01*
X172302162Y-51554451D01*
X172340258Y-51592546D01*
X172378353Y-51668737D01*
X172378353Y-51859213D01*
X172340258Y-51935403D01*
X172302162Y-51973499D01*
X172225972Y-52011594D01*
X172035496Y-52011594D01*
X171959305Y-51973499D01*
X171921210Y-51935403D01*
X171883115Y-51859213D01*
X171883115Y-51668737D01*
X171921210Y-51592546D01*
X171959305Y-51554451D01*
X172683115Y-52240165D02*
X171883115Y-52506832D01*
X172683115Y-52773499D01*
X149978095Y-98109047D02*
X149978095Y-98604285D01*
X149673333Y-98337619D01*
X149673333Y-98451904D01*
X149635238Y-98528095D01*
X149597142Y-98566190D01*
X149520952Y-98604285D01*
X149330476Y-98604285D01*
X149254285Y-98566190D01*
X149216190Y-98528095D01*
X149178095Y-98451904D01*
X149178095Y-98223333D01*
X149216190Y-98147142D01*
X149254285Y-98109047D01*
X149254285Y-98947142D02*
X149216190Y-98985238D01*
X149178095Y-98947142D01*
X149216190Y-98909047D01*
X149254285Y-98947142D01*
X149178095Y-98947142D01*
X149978095Y-99251904D02*
X149978095Y-99747142D01*
X149673333Y-99480476D01*
X149673333Y-99594761D01*
X149635238Y-99670952D01*
X149597142Y-99709047D01*
X149520952Y-99747142D01*
X149330476Y-99747142D01*
X149254285Y-99709047D01*
X149216190Y-99670952D01*
X149178095Y-99594761D01*
X149178095Y-99366190D01*
X149216190Y-99290000D01*
X149254285Y-99251904D01*
X149978095Y-99975714D02*
X149178095Y-100242380D01*
X149978095Y-100509047D01*
X147330000Y-98630476D02*
X147368095Y-98554285D01*
X147368095Y-98440000D01*
X147330000Y-98325714D01*
X147253809Y-98249523D01*
X147177619Y-98211428D01*
X147025238Y-98173333D01*
X146910952Y-98173333D01*
X146758571Y-98211428D01*
X146682380Y-98249523D01*
X146606190Y-98325714D01*
X146568095Y-98440000D01*
X146568095Y-98516190D01*
X146606190Y-98630476D01*
X146644285Y-98668571D01*
X146910952Y-98668571D01*
X146910952Y-98516190D01*
X146568095Y-99011428D02*
X147368095Y-99011428D01*
X146568095Y-99468571D01*
X147368095Y-99468571D01*
X146568095Y-99849523D02*
X147368095Y-99849523D01*
X147368095Y-100040000D01*
X147330000Y-100154285D01*
X147253809Y-100230476D01*
X147177619Y-100268571D01*
X147025238Y-100306666D01*
X146910952Y-100306666D01*
X146758571Y-100268571D01*
X146682380Y-100230476D01*
X146606190Y-100154285D01*
X146568095Y-100040000D01*
X146568095Y-99849523D01*
X141736666Y-98097619D02*
X141736666Y-98478571D01*
X141508095Y-98021428D02*
X142308095Y-98288095D01*
X141508095Y-98554761D01*
X141508095Y-99240476D02*
X141508095Y-98783333D01*
X141508095Y-99011904D02*
X142308095Y-99011904D01*
X142193809Y-98935714D01*
X142117619Y-98859523D01*
X142079523Y-98783333D01*
X142308095Y-99507142D02*
X142308095Y-100040476D01*
X141508095Y-99697619D01*
X144266666Y-98257619D02*
X144266666Y-98638571D01*
X144038095Y-98181428D02*
X144838095Y-98448095D01*
X144038095Y-98714761D01*
X144038095Y-99400476D02*
X144038095Y-98943333D01*
X144038095Y-99171904D02*
X144838095Y-99171904D01*
X144723809Y-99095714D01*
X144647619Y-99019523D01*
X144609523Y-98943333D01*
X144838095Y-100086190D02*
X144838095Y-99933809D01*
X144800000Y-99857619D01*
X144761904Y-99819523D01*
X144647619Y-99743333D01*
X144495238Y-99705238D01*
X144190476Y-99705238D01*
X144114285Y-99743333D01*
X144076190Y-99781428D01*
X144038095Y-99857619D01*
X144038095Y-100010000D01*
X144076190Y-100086190D01*
X144114285Y-100124285D01*
X144190476Y-100162380D01*
X144380952Y-100162380D01*
X144457142Y-100124285D01*
X144495238Y-100086190D01*
X144533333Y-100010000D01*
X144533333Y-99857619D01*
X144495238Y-99781428D01*
X144457142Y-99743333D01*
X144380952Y-99705238D01*
X135362900Y-98648596D02*
X135400995Y-98572405D01*
X135400995Y-98458120D01*
X135362900Y-98343834D01*
X135286709Y-98267643D01*
X135210519Y-98229548D01*
X135058138Y-98191453D01*
X134943852Y-98191453D01*
X134791471Y-98229548D01*
X134715280Y-98267643D01*
X134639090Y-98343834D01*
X134600995Y-98458120D01*
X134600995Y-98534310D01*
X134639090Y-98648596D01*
X134677185Y-98686691D01*
X134943852Y-98686691D01*
X134943852Y-98534310D01*
X134600995Y-99029548D02*
X135400995Y-99029548D01*
X134600995Y-99486691D01*
X135400995Y-99486691D01*
X134600995Y-99867643D02*
X135400995Y-99867643D01*
X135400995Y-100058120D01*
X135362900Y-100172405D01*
X135286709Y-100248596D01*
X135210519Y-100286691D01*
X135058138Y-100324786D01*
X134943852Y-100324786D01*
X134791471Y-100286691D01*
X134715280Y-100248596D01*
X134639090Y-100172405D01*
X134600995Y-100058120D01*
X134600995Y-99867643D01*
X70965207Y-39030964D02*
X71460445Y-39030964D01*
X71193779Y-39335726D01*
X71308064Y-39335726D01*
X71384255Y-39373821D01*
X71422350Y-39411917D01*
X71460445Y-39488107D01*
X71460445Y-39678583D01*
X71422350Y-39754774D01*
X71384255Y-39792869D01*
X71308064Y-39830964D01*
X71079493Y-39830964D01*
X71003302Y-39792869D01*
X70965207Y-39754774D01*
X71803302Y-39754774D02*
X71841398Y-39792869D01*
X71803302Y-39830964D01*
X71765207Y-39792869D01*
X71803302Y-39754774D01*
X71803302Y-39830964D01*
X72108064Y-39030964D02*
X72603302Y-39030964D01*
X72336636Y-39335726D01*
X72450921Y-39335726D01*
X72527112Y-39373821D01*
X72565207Y-39411917D01*
X72603302Y-39488107D01*
X72603302Y-39678583D01*
X72565207Y-39754774D01*
X72527112Y-39792869D01*
X72450921Y-39830964D01*
X72222350Y-39830964D01*
X72146160Y-39792869D01*
X72108064Y-39754774D01*
X72831874Y-39030964D02*
X73098540Y-39830964D01*
X73365207Y-39030964D01*
X71381696Y-41626840D02*
X71305505Y-41588744D01*
X71191220Y-41588744D01*
X71076934Y-41626840D01*
X71000743Y-41703030D01*
X70962648Y-41779220D01*
X70924553Y-41931601D01*
X70924553Y-42045887D01*
X70962648Y-42198268D01*
X71000743Y-42274459D01*
X71076934Y-42350649D01*
X71191220Y-42388744D01*
X71267410Y-42388744D01*
X71381696Y-42350649D01*
X71419791Y-42312554D01*
X71419791Y-42045887D01*
X71267410Y-42045887D01*
X71762648Y-42388744D02*
X71762648Y-41588744D01*
X72219791Y-42388744D01*
X72219791Y-41588744D01*
X72600743Y-42388744D02*
X72600743Y-41588744D01*
X72791220Y-41588744D01*
X72905505Y-41626840D01*
X72981696Y-41703030D01*
X73019791Y-41779220D01*
X73057886Y-41931601D01*
X73057886Y-42045887D01*
X73019791Y-42198268D01*
X72981696Y-42274459D01*
X72905505Y-42350649D01*
X72791220Y-42388744D01*
X72600743Y-42388744D01*
X85787619Y-45073809D02*
X85901904Y-45111904D01*
X86092380Y-45111904D01*
X86168571Y-45073809D01*
X86206666Y-45035714D01*
X86244761Y-44959523D01*
X86244761Y-44883333D01*
X86206666Y-44807142D01*
X86168571Y-44769047D01*
X86092380Y-44730952D01*
X85940000Y-44692857D01*
X85863809Y-44654761D01*
X85825714Y-44616666D01*
X85787619Y-44540476D01*
X85787619Y-44464285D01*
X85825714Y-44388095D01*
X85863809Y-44350000D01*
X85940000Y-44311904D01*
X86130476Y-44311904D01*
X86244761Y-44350000D01*
X86587619Y-45111904D02*
X86587619Y-44311904D01*
X86778095Y-44311904D01*
X86892380Y-44350000D01*
X86968571Y-44426190D01*
X87006666Y-44502380D01*
X87044761Y-44654761D01*
X87044761Y-44769047D01*
X87006666Y-44921428D01*
X86968571Y-44997619D01*
X86892380Y-45073809D01*
X86778095Y-45111904D01*
X86587619Y-45111904D01*
X87349523Y-44883333D02*
X87730476Y-44883333D01*
X87273333Y-45111904D02*
X87540000Y-44311904D01*
X87806666Y-45111904D01*
X88492380Y-45111904D02*
X88035238Y-45111904D01*
X88263809Y-45111904D02*
X88263809Y-44311904D01*
X88187619Y-44426190D01*
X88111428Y-44502380D01*
X88035238Y-44540476D01*
X85806666Y-47583809D02*
X85920952Y-47621904D01*
X86111428Y-47621904D01*
X86187619Y-47583809D01*
X86225714Y-47545714D01*
X86263809Y-47469523D01*
X86263809Y-47393333D01*
X86225714Y-47317142D01*
X86187619Y-47279047D01*
X86111428Y-47240952D01*
X85959047Y-47202857D01*
X85882857Y-47164761D01*
X85844761Y-47126666D01*
X85806666Y-47050476D01*
X85806666Y-46974285D01*
X85844761Y-46898095D01*
X85882857Y-46860000D01*
X85959047Y-46821904D01*
X86149523Y-46821904D01*
X86263809Y-46860000D01*
X87063809Y-47545714D02*
X87025714Y-47583809D01*
X86911428Y-47621904D01*
X86835238Y-47621904D01*
X86720952Y-47583809D01*
X86644761Y-47507619D01*
X86606666Y-47431428D01*
X86568571Y-47279047D01*
X86568571Y-47164761D01*
X86606666Y-47012380D01*
X86644761Y-46936190D01*
X86720952Y-46860000D01*
X86835238Y-46821904D01*
X86911428Y-46821904D01*
X87025714Y-46860000D01*
X87063809Y-46898095D01*
X87787619Y-47621904D02*
X87406666Y-47621904D01*
X87406666Y-46821904D01*
X88473333Y-47621904D02*
X88016190Y-47621904D01*
X88244761Y-47621904D02*
X88244761Y-46821904D01*
X88168571Y-46936190D01*
X88092380Y-47012380D01*
X88016190Y-47050476D01*
X149119540Y-60528276D02*
X149157635Y-60452085D01*
X149157635Y-60337800D01*
X149119540Y-60223514D01*
X149043349Y-60147323D01*
X148967159Y-60109228D01*
X148814778Y-60071133D01*
X148700492Y-60071133D01*
X148548111Y-60109228D01*
X148471920Y-60147323D01*
X148395730Y-60223514D01*
X148357635Y-60337800D01*
X148357635Y-60413990D01*
X148395730Y-60528276D01*
X148433825Y-60566371D01*
X148700492Y-60566371D01*
X148700492Y-60413990D01*
X148357635Y-60909228D02*
X149157635Y-60909228D01*
X148357635Y-61366371D01*
X149157635Y-61366371D01*
X148357635Y-61747323D02*
X149157635Y-61747323D01*
X149157635Y-61937800D01*
X149119540Y-62052085D01*
X149043349Y-62128276D01*
X148967159Y-62166371D01*
X148814778Y-62204466D01*
X148700492Y-62204466D01*
X148548111Y-62166371D01*
X148471920Y-62128276D01*
X148395730Y-62052085D01*
X148357635Y-61937800D01*
X148357635Y-61747323D01*
X151707795Y-60591719D02*
X151707795Y-60210766D01*
X151326842Y-60172671D01*
X151364938Y-60210766D01*
X151403033Y-60286957D01*
X151403033Y-60477433D01*
X151364938Y-60553623D01*
X151326842Y-60591719D01*
X151250652Y-60629814D01*
X151060176Y-60629814D01*
X150983985Y-60591719D01*
X150945890Y-60553623D01*
X150907795Y-60477433D01*
X150907795Y-60286957D01*
X150945890Y-60210766D01*
X150983985Y-60172671D01*
X151707795Y-60858385D02*
X150907795Y-61125052D01*
X151707795Y-61391719D01*
X145743975Y-60195512D02*
X146543975Y-60195512D01*
X145743975Y-60576464D02*
X146543975Y-60576464D01*
X145743975Y-61033607D01*
X146543975Y-61033607D01*
X168069307Y-57620208D02*
X168831212Y-57620208D01*
X168450260Y-58001160D02*
X168450260Y-57239256D01*
X167906776Y-59594800D02*
X167830585Y-59556704D01*
X167716300Y-59556704D01*
X167602014Y-59594800D01*
X167525823Y-59670990D01*
X167487728Y-59747180D01*
X167449633Y-59899561D01*
X167449633Y-60013847D01*
X167487728Y-60166228D01*
X167525823Y-60242419D01*
X167602014Y-60318609D01*
X167716300Y-60356704D01*
X167792490Y-60356704D01*
X167906776Y-60318609D01*
X167944871Y-60280514D01*
X167944871Y-60013847D01*
X167792490Y-60013847D01*
X168287728Y-60356704D02*
X168287728Y-59556704D01*
X168744871Y-60356704D01*
X168744871Y-59556704D01*
X169125823Y-60356704D02*
X169125823Y-59556704D01*
X169316300Y-59556704D01*
X169430585Y-59594800D01*
X169506776Y-59670990D01*
X169544871Y-59747180D01*
X169582966Y-59899561D01*
X169582966Y-60013847D01*
X169544871Y-60166228D01*
X169506776Y-60242419D01*
X169430585Y-60318609D01*
X169316300Y-60356704D01*
X169125823Y-60356704D01*
X167584220Y-65119204D02*
X167584220Y-64319204D01*
X167774696Y-64319204D01*
X167888981Y-64357300D01*
X167965172Y-64433490D01*
X168003267Y-64509680D01*
X168041362Y-64662061D01*
X168041362Y-64776347D01*
X168003267Y-64928728D01*
X167965172Y-65004919D01*
X167888981Y-65081109D01*
X167774696Y-65119204D01*
X167584220Y-65119204D01*
X168384220Y-65119204D02*
X168384220Y-64319204D01*
X169222315Y-65119204D02*
X168955648Y-64738252D01*
X168765172Y-65119204D02*
X168765172Y-64319204D01*
X169069934Y-64319204D01*
X169146124Y-64357300D01*
X169184220Y-64395395D01*
X169222315Y-64471585D01*
X169222315Y-64585871D01*
X169184220Y-64662061D01*
X169146124Y-64700157D01*
X169069934Y-64738252D01*
X168765172Y-64738252D01*
X167458530Y-62805264D02*
X167458530Y-62005264D01*
X167763292Y-62005264D01*
X167839482Y-62043360D01*
X167877578Y-62081455D01*
X167915673Y-62157645D01*
X167915673Y-62271931D01*
X167877578Y-62348121D01*
X167839482Y-62386217D01*
X167763292Y-62424312D01*
X167458530Y-62424312D01*
X168182340Y-62005264D02*
X168372816Y-62805264D01*
X168525197Y-62233836D01*
X168677578Y-62805264D01*
X168868054Y-62005264D01*
X169172816Y-62805264D02*
X169172816Y-62005264D01*
X169439482Y-62576693D01*
X169706149Y-62005264D01*
X169706149Y-62805264D01*
X167859783Y-67344297D02*
X168126450Y-67344297D01*
X168240736Y-67763344D02*
X167859783Y-67763344D01*
X167859783Y-66963344D01*
X168240736Y-66963344D01*
X168583593Y-67763344D02*
X168583593Y-66963344D01*
X169040736Y-67763344D01*
X169040736Y-66963344D01*
X39000000Y-123109523D02*
X38961904Y-123185714D01*
X38961904Y-123300000D01*
X39000000Y-123414285D01*
X39076190Y-123490476D01*
X39152380Y-123528571D01*
X39304761Y-123566666D01*
X39419047Y-123566666D01*
X39571428Y-123528571D01*
X39647619Y-123490476D01*
X39723809Y-123414285D01*
X39761904Y-123300000D01*
X39761904Y-123223809D01*
X39723809Y-123109523D01*
X39685714Y-123071428D01*
X39419047Y-123071428D01*
X39419047Y-123223809D01*
X39761904Y-122728571D02*
X38961904Y-122728571D01*
X39761904Y-122271428D01*
X38961904Y-122271428D01*
X39761904Y-121890476D02*
X38961904Y-121890476D01*
X38961904Y-121700000D01*
X39000000Y-121585714D01*
X39076190Y-121509523D01*
X39152380Y-121471428D01*
X39304761Y-121433333D01*
X39419047Y-121433333D01*
X39571428Y-121471428D01*
X39647619Y-121509523D01*
X39723809Y-121585714D01*
X39761904Y-121700000D01*
X39761904Y-121890476D01*
X55657804Y-123677532D02*
X55657804Y-123182294D01*
X55962566Y-123448960D01*
X55962566Y-123334675D01*
X56000661Y-123258484D01*
X56038757Y-123220389D01*
X56114947Y-123182294D01*
X56305423Y-123182294D01*
X56381614Y-123220389D01*
X56419709Y-123258484D01*
X56457804Y-123334675D01*
X56457804Y-123563246D01*
X56419709Y-123639437D01*
X56381614Y-123677532D01*
X56381614Y-122839437D02*
X56419709Y-122801341D01*
X56457804Y-122839437D01*
X56419709Y-122877532D01*
X56381614Y-122839437D01*
X56457804Y-122839437D01*
X55657804Y-122534675D02*
X55657804Y-122039437D01*
X55962566Y-122306103D01*
X55962566Y-122191818D01*
X56000661Y-122115627D01*
X56038757Y-122077532D01*
X56114947Y-122039437D01*
X56305423Y-122039437D01*
X56381614Y-122077532D01*
X56419709Y-122115627D01*
X56457804Y-122191818D01*
X56457804Y-122420389D01*
X56419709Y-122496580D01*
X56381614Y-122534675D01*
X55657804Y-121810865D02*
X56457804Y-121544199D01*
X55657804Y-121277532D01*
X58213040Y-123172143D02*
X58174944Y-123248334D01*
X58174944Y-123362620D01*
X58213040Y-123476905D01*
X58289230Y-123553096D01*
X58365420Y-123591191D01*
X58517801Y-123629286D01*
X58632087Y-123629286D01*
X58784468Y-123591191D01*
X58860659Y-123553096D01*
X58936849Y-123476905D01*
X58974944Y-123362620D01*
X58974944Y-123286429D01*
X58936849Y-123172143D01*
X58898754Y-123134048D01*
X58632087Y-123134048D01*
X58632087Y-123286429D01*
X58974944Y-122791191D02*
X58174944Y-122791191D01*
X58974944Y-122334048D01*
X58174944Y-122334048D01*
X58974944Y-121953096D02*
X58174944Y-121953096D01*
X58174944Y-121762620D01*
X58213040Y-121648334D01*
X58289230Y-121572143D01*
X58365420Y-121534048D01*
X58517801Y-121495953D01*
X58632087Y-121495953D01*
X58784468Y-121534048D01*
X58860659Y-121572143D01*
X58936849Y-121648334D01*
X58974944Y-121762620D01*
X58974944Y-121953096D01*
X61438754Y-123203867D02*
X61476849Y-123241962D01*
X61514944Y-123356248D01*
X61514944Y-123432439D01*
X61476849Y-123546724D01*
X61400659Y-123622915D01*
X61324468Y-123661010D01*
X61172087Y-123699105D01*
X61057801Y-123699105D01*
X60905420Y-123661010D01*
X60829230Y-123622915D01*
X60753040Y-123546724D01*
X60714944Y-123432439D01*
X60714944Y-123356248D01*
X60753040Y-123241962D01*
X60791135Y-123203867D01*
X60714944Y-122975296D02*
X60714944Y-122518153D01*
X61514944Y-122746724D02*
X60714944Y-122746724D01*
X60714944Y-122327677D02*
X61514944Y-121794343D01*
X60714944Y-121794343D02*
X61514944Y-122327677D01*
X60714944Y-121565772D02*
X60714944Y-121070534D01*
X61019706Y-121337200D01*
X61019706Y-121222915D01*
X61057801Y-121146724D01*
X61095897Y-121108629D01*
X61172087Y-121070534D01*
X61362563Y-121070534D01*
X61438754Y-121108629D01*
X61476849Y-121146724D01*
X61514944Y-121222915D01*
X61514944Y-121451486D01*
X61476849Y-121527677D01*
X61438754Y-121565772D01*
X64001614Y-123210205D02*
X64039709Y-123248300D01*
X64077804Y-123362586D01*
X64077804Y-123438777D01*
X64039709Y-123553062D01*
X63963519Y-123629253D01*
X63887328Y-123667348D01*
X63734947Y-123705443D01*
X63620661Y-123705443D01*
X63468280Y-123667348D01*
X63392090Y-123629253D01*
X63315900Y-123553062D01*
X63277804Y-123438777D01*
X63277804Y-123362586D01*
X63315900Y-123248300D01*
X63353995Y-123210205D01*
X64077804Y-122410205D02*
X63696852Y-122676872D01*
X64077804Y-122867348D02*
X63277804Y-122867348D01*
X63277804Y-122562586D01*
X63315900Y-122486396D01*
X63353995Y-122448300D01*
X63430185Y-122410205D01*
X63544471Y-122410205D01*
X63620661Y-122448300D01*
X63658757Y-122486396D01*
X63696852Y-122562586D01*
X63696852Y-122867348D01*
X63277804Y-122143539D02*
X64077804Y-121610205D01*
X63277804Y-121610205D02*
X64077804Y-122143539D01*
X63277804Y-121381634D02*
X63277804Y-120886396D01*
X63582566Y-121153062D01*
X63582566Y-121038777D01*
X63620661Y-120962586D01*
X63658757Y-120924491D01*
X63734947Y-120886396D01*
X63925423Y-120886396D01*
X64001614Y-120924491D01*
X64039709Y-120962586D01*
X64077804Y-121038777D01*
X64077804Y-121267348D01*
X64039709Y-121343539D01*
X64001614Y-121381634D01*
X168882107Y-93015108D02*
X169644012Y-93015108D01*
X169263060Y-93396060D02*
X169263060Y-92634156D01*
X168271330Y-98200164D02*
X168271330Y-97400164D01*
X168576092Y-97400164D01*
X168652282Y-97438260D01*
X168690378Y-97476355D01*
X168728473Y-97552545D01*
X168728473Y-97666831D01*
X168690378Y-97743021D01*
X168652282Y-97781117D01*
X168576092Y-97819212D01*
X168271330Y-97819212D01*
X168995140Y-97400164D02*
X169185616Y-98200164D01*
X169337997Y-97628736D01*
X169490378Y-98200164D01*
X169680854Y-97400164D01*
X169985616Y-98200164D02*
X169985616Y-97400164D01*
X170252282Y-97971593D01*
X170518949Y-97400164D01*
X170518949Y-98200164D01*
X168397020Y-100514104D02*
X168397020Y-99714104D01*
X168587496Y-99714104D01*
X168701781Y-99752200D01*
X168777972Y-99828390D01*
X168816067Y-99904580D01*
X168854162Y-100056961D01*
X168854162Y-100171247D01*
X168816067Y-100323628D01*
X168777972Y-100399819D01*
X168701781Y-100476009D01*
X168587496Y-100514104D01*
X168397020Y-100514104D01*
X169197020Y-100514104D02*
X169197020Y-99714104D01*
X170035115Y-100514104D02*
X169768448Y-100133152D01*
X169577972Y-100514104D02*
X169577972Y-99714104D01*
X169882734Y-99714104D01*
X169958924Y-99752200D01*
X169997020Y-99790295D01*
X170035115Y-99866485D01*
X170035115Y-99980771D01*
X169997020Y-100056961D01*
X169958924Y-100095057D01*
X169882734Y-100133152D01*
X169577972Y-100133152D01*
X168719576Y-94989700D02*
X168643385Y-94951604D01*
X168529100Y-94951604D01*
X168414814Y-94989700D01*
X168338623Y-95065890D01*
X168300528Y-95142080D01*
X168262433Y-95294461D01*
X168262433Y-95408747D01*
X168300528Y-95561128D01*
X168338623Y-95637319D01*
X168414814Y-95713509D01*
X168529100Y-95751604D01*
X168605290Y-95751604D01*
X168719576Y-95713509D01*
X168757671Y-95675414D01*
X168757671Y-95408747D01*
X168605290Y-95408747D01*
X169100528Y-95751604D02*
X169100528Y-94951604D01*
X169557671Y-95751604D01*
X169557671Y-94951604D01*
X169938623Y-95751604D02*
X169938623Y-94951604D01*
X170129100Y-94951604D01*
X170243385Y-94989700D01*
X170319576Y-95065890D01*
X170357671Y-95142080D01*
X170395766Y-95294461D01*
X170395766Y-95408747D01*
X170357671Y-95561128D01*
X170319576Y-95637319D01*
X170243385Y-95713509D01*
X170129100Y-95751604D01*
X169938623Y-95751604D01*
X168672583Y-102739197D02*
X168939250Y-102739197D01*
X169053536Y-103158244D02*
X168672583Y-103158244D01*
X168672583Y-102358244D01*
X169053536Y-102358244D01*
X169396393Y-103158244D02*
X169396393Y-102358244D01*
X169853536Y-103158244D01*
X169853536Y-102358244D01*
D14*
X48170080Y-90325248D02*
X48931984Y-90325248D01*
X48551032Y-90706200D02*
X48551032Y-89944296D01*
X49312937Y-89706200D02*
X49931984Y-89706200D01*
X49598651Y-90087153D01*
X49741508Y-90087153D01*
X49836746Y-90134772D01*
X49884365Y-90182391D01*
X49931984Y-90277629D01*
X49931984Y-90515724D01*
X49884365Y-90610962D01*
X49836746Y-90658581D01*
X49741508Y-90706200D01*
X49455794Y-90706200D01*
X49360556Y-90658581D01*
X49312937Y-90610962D01*
X50360556Y-90610962D02*
X50408175Y-90658581D01*
X50360556Y-90706200D01*
X50312937Y-90658581D01*
X50360556Y-90610962D01*
X50360556Y-90706200D01*
X50741508Y-89706200D02*
X51360556Y-89706200D01*
X51027222Y-90087153D01*
X51170080Y-90087153D01*
X51265318Y-90134772D01*
X51312937Y-90182391D01*
X51360556Y-90277629D01*
X51360556Y-90515724D01*
X51312937Y-90610962D01*
X51265318Y-90658581D01*
X51170080Y-90706200D01*
X50884365Y-90706200D01*
X50789127Y-90658581D01*
X50741508Y-90610962D01*
X51646270Y-89706200D02*
X51979603Y-90706200D01*
X52312937Y-89706200D01*
X74944178Y-130667261D02*
X76087035Y-130667261D01*
X75515606Y-132667261D02*
X75515606Y-130667261D01*
X77515606Y-132572023D02*
X77325130Y-132667261D01*
X76944178Y-132667261D01*
X76753701Y-132572023D01*
X76658463Y-132381547D01*
X76658463Y-131619642D01*
X76753701Y-131429166D01*
X76944178Y-131333928D01*
X77325130Y-131333928D01*
X77515606Y-131429166D01*
X77610844Y-131619642D01*
X77610844Y-131810119D01*
X76658463Y-132000595D01*
X79229892Y-132572023D02*
X79039416Y-132667261D01*
X78658463Y-132667261D01*
X78467987Y-132572023D01*
X78372749Y-132381547D01*
X78372749Y-131619642D01*
X78467987Y-131429166D01*
X78658463Y-131333928D01*
X79039416Y-131333928D01*
X79229892Y-131429166D01*
X79325130Y-131619642D01*
X79325130Y-131810119D01*
X78372749Y-132000595D01*
X80182273Y-131333928D02*
X80182273Y-132667261D01*
X80182273Y-131524404D02*
X80277511Y-131429166D01*
X80467987Y-131333928D01*
X80753701Y-131333928D01*
X80944178Y-131429166D01*
X81039416Y-131619642D01*
X81039416Y-132667261D01*
X81896559Y-132572023D02*
X82087035Y-132667261D01*
X82467987Y-132667261D01*
X82658463Y-132572023D01*
X82753701Y-132381547D01*
X82753701Y-132286309D01*
X82658463Y-132095833D01*
X82467987Y-132000595D01*
X82182273Y-132000595D01*
X81991797Y-131905357D01*
X81896559Y-131714880D01*
X81896559Y-131619642D01*
X81991797Y-131429166D01*
X82182273Y-131333928D01*
X82467987Y-131333928D01*
X82658463Y-131429166D01*
X83420368Y-131333928D02*
X83896559Y-132667261D01*
X84372749Y-131333928D02*
X83896559Y-132667261D01*
X83706082Y-133143452D01*
X83610844Y-133238690D01*
X83420368Y-133333928D01*
X86658463Y-132667261D02*
X86658463Y-130667261D01*
X87325130Y-132095833D01*
X87991797Y-130667261D01*
X87991797Y-132667261D01*
X89801320Y-132667261D02*
X89801320Y-131619642D01*
X89706082Y-131429166D01*
X89515606Y-131333928D01*
X89134654Y-131333928D01*
X88944178Y-131429166D01*
X89801320Y-132572023D02*
X89610844Y-132667261D01*
X89134654Y-132667261D01*
X88944178Y-132572023D01*
X88848940Y-132381547D01*
X88848940Y-132191071D01*
X88944178Y-132000595D01*
X89134654Y-131905357D01*
X89610844Y-131905357D01*
X89801320Y-131810119D01*
X90753701Y-132667261D02*
X90753701Y-131333928D01*
X90753701Y-130667261D02*
X90658463Y-130762500D01*
X90753701Y-130857738D01*
X90848940Y-130762500D01*
X90753701Y-130667261D01*
X90753701Y-130857738D01*
X91706082Y-131333928D02*
X91706082Y-132667261D01*
X91706082Y-131524404D02*
X91801320Y-131429166D01*
X91991797Y-131333928D01*
X92277511Y-131333928D01*
X92467987Y-131429166D01*
X92563225Y-131619642D01*
X92563225Y-132667261D01*
X93515606Y-132667261D02*
X93515606Y-130667261D01*
X94277511Y-130667261D01*
X94467987Y-130762500D01*
X94563225Y-130857738D01*
X94658463Y-131048214D01*
X94658463Y-131333928D01*
X94563225Y-131524404D01*
X94467987Y-131619642D01*
X94277511Y-131714880D01*
X93515606Y-131714880D01*
X96658463Y-132476785D02*
X96563225Y-132572023D01*
X96277511Y-132667261D01*
X96087035Y-132667261D01*
X95801320Y-132572023D01*
X95610844Y-132381547D01*
X95515606Y-132191071D01*
X95420368Y-131810119D01*
X95420368Y-131524404D01*
X95515606Y-131143452D01*
X95610844Y-130952976D01*
X95801320Y-130762500D01*
X96087035Y-130667261D01*
X96277511Y-130667261D01*
X96563225Y-130762500D01*
X96658463Y-130857738D01*
X98182273Y-131619642D02*
X98467987Y-131714880D01*
X98563225Y-131810119D01*
X98658463Y-132000595D01*
X98658463Y-132286309D01*
X98563225Y-132476785D01*
X98467987Y-132572023D01*
X98277511Y-132667261D01*
X97515606Y-132667261D01*
X97515606Y-130667261D01*
X98182273Y-130667261D01*
X98372749Y-130762500D01*
X98467987Y-130857738D01*
X98563225Y-131048214D01*
X98563225Y-131238690D01*
X98467987Y-131429166D01*
X98372749Y-131524404D01*
X98182273Y-131619642D01*
X97515606Y-131619642D01*
X100753701Y-130667261D02*
X101420368Y-132667261D01*
X102087035Y-130667261D01*
X103801320Y-132667261D02*
X102658463Y-132667261D01*
X103229892Y-132667261D02*
X103229892Y-130667261D01*
X103039416Y-130952976D01*
X102848940Y-131143452D01*
X102658463Y-131238690D01*
X104658463Y-132476785D02*
X104753701Y-132572023D01*
X104658463Y-132667261D01*
X104563225Y-132572023D01*
X104658463Y-132476785D01*
X104658463Y-132667261D01*
X105991797Y-130667261D02*
X106182273Y-130667261D01*
X106372749Y-130762500D01*
X106467987Y-130857738D01*
X106563225Y-131048214D01*
X106658463Y-131429166D01*
X106658463Y-131905357D01*
X106563225Y-132286309D01*
X106467987Y-132476785D01*
X106372749Y-132572023D01*
X106182273Y-132667261D01*
X105991797Y-132667261D01*
X105801320Y-132572023D01*
X105706082Y-132476785D01*
X105610844Y-132286309D01*
X105515606Y-131905357D01*
X105515606Y-131429166D01*
X105610844Y-131048214D01*
X105706082Y-130857738D01*
X105801320Y-130762500D01*
X105991797Y-130667261D01*
X107325130Y-130667261D02*
X108563225Y-130667261D01*
X107896559Y-131429166D01*
X108182273Y-131429166D01*
X108372749Y-131524404D01*
X108467987Y-131619642D01*
X108563225Y-131810119D01*
X108563225Y-132286309D01*
X108467987Y-132476785D01*
X108372749Y-132572023D01*
X108182273Y-132667261D01*
X107610844Y-132667261D01*
X107420368Y-132572023D01*
X107325130Y-132476785D01*
D12*
X118250476Y-42000000D02*
X118174285Y-41961904D01*
X118060000Y-41961904D01*
X117945714Y-42000000D01*
X117869523Y-42076190D01*
X117831428Y-42152380D01*
X117793333Y-42304761D01*
X117793333Y-42419047D01*
X117831428Y-42571428D01*
X117869523Y-42647619D01*
X117945714Y-42723809D01*
X118060000Y-42761904D01*
X118136190Y-42761904D01*
X118250476Y-42723809D01*
X118288571Y-42685714D01*
X118288571Y-42419047D01*
X118136190Y-42419047D01*
X118631428Y-42761904D02*
X118631428Y-41961904D01*
X119088571Y-42761904D01*
X119088571Y-41961904D01*
X119469523Y-42761904D02*
X119469523Y-41961904D01*
X119660000Y-41961904D01*
X119774285Y-42000000D01*
X119850476Y-42076190D01*
X119888571Y-42152380D01*
X119926666Y-42304761D01*
X119926666Y-42419047D01*
X119888571Y-42571428D01*
X119850476Y-42647619D01*
X119774285Y-42723809D01*
X119660000Y-42761904D01*
X119469523Y-42761904D01*
X129767142Y-98482380D02*
X129767142Y-98215714D01*
X129348095Y-98215714D02*
X130148095Y-98215714D01*
X130148095Y-98596666D01*
X130148095Y-99053809D02*
X130148095Y-99130000D01*
X130110000Y-99206190D01*
X130071904Y-99244285D01*
X129995714Y-99282380D01*
X129843333Y-99320476D01*
X129652857Y-99320476D01*
X129500476Y-99282380D01*
X129424285Y-99244285D01*
X129386190Y-99206190D01*
X129348095Y-99130000D01*
X129348095Y-99053809D01*
X129386190Y-98977619D01*
X129424285Y-98939523D01*
X129500476Y-98901428D01*
X129652857Y-98863333D01*
X129843333Y-98863333D01*
X129995714Y-98901428D01*
X130071904Y-98939523D01*
X130110000Y-98977619D01*
X130148095Y-99053809D01*
X130071904Y-99625238D02*
X130110000Y-99663333D01*
X130148095Y-99739523D01*
X130148095Y-99930000D01*
X130110000Y-100006190D01*
X130071904Y-100044285D01*
X129995714Y-100082380D01*
X129919523Y-100082380D01*
X129805238Y-100044285D01*
X129348095Y-99587142D01*
X129348095Y-100082380D01*
X85959047Y-39351904D02*
X86454285Y-39351904D01*
X86187619Y-39656666D01*
X86301904Y-39656666D01*
X86378095Y-39694761D01*
X86416190Y-39732857D01*
X86454285Y-39809047D01*
X86454285Y-39999523D01*
X86416190Y-40075714D01*
X86378095Y-40113809D01*
X86301904Y-40151904D01*
X86073333Y-40151904D01*
X85997142Y-40113809D01*
X85959047Y-40075714D01*
X86797142Y-40075714D02*
X86835238Y-40113809D01*
X86797142Y-40151904D01*
X86759047Y-40113809D01*
X86797142Y-40075714D01*
X86797142Y-40151904D01*
X87101904Y-39351904D02*
X87597142Y-39351904D01*
X87330476Y-39656666D01*
X87444761Y-39656666D01*
X87520952Y-39694761D01*
X87559047Y-39732857D01*
X87597142Y-39809047D01*
X87597142Y-39999523D01*
X87559047Y-40075714D01*
X87520952Y-40113809D01*
X87444761Y-40151904D01*
X87216190Y-40151904D01*
X87140000Y-40113809D01*
X87101904Y-40075714D01*
X87825714Y-39351904D02*
X88092380Y-40151904D01*
X88359047Y-39351904D01*
D14*
X48503413Y-103104581D02*
X48646270Y-103152200D01*
X48884365Y-103152200D01*
X48979603Y-103104581D01*
X49027222Y-103056962D01*
X49074841Y-102961724D01*
X49074841Y-102866486D01*
X49027222Y-102771248D01*
X48979603Y-102723629D01*
X48884365Y-102676010D01*
X48693889Y-102628391D01*
X48598651Y-102580772D01*
X48551032Y-102533153D01*
X48503413Y-102437915D01*
X48503413Y-102342677D01*
X48551032Y-102247439D01*
X48598651Y-102199820D01*
X48693889Y-102152200D01*
X48931984Y-102152200D01*
X49074841Y-102199820D01*
X50074841Y-103056962D02*
X50027222Y-103104581D01*
X49884365Y-103152200D01*
X49789127Y-103152200D01*
X49646270Y-103104581D01*
X49551032Y-103009343D01*
X49503413Y-102914105D01*
X49455794Y-102723629D01*
X49455794Y-102580772D01*
X49503413Y-102390296D01*
X49551032Y-102295058D01*
X49646270Y-102199820D01*
X49789127Y-102152200D01*
X49884365Y-102152200D01*
X50027222Y-102199820D01*
X50074841Y-102247439D01*
X50979603Y-103152200D02*
X50503413Y-103152200D01*
X50503413Y-102152200D01*
X51836746Y-103152200D02*
X51265318Y-103152200D01*
X51551032Y-103152200D02*
X51551032Y-102152200D01*
X51455794Y-102295058D01*
X51360556Y-102390296D01*
X51265318Y-102437915D01*
D12*
X153767835Y-44650712D02*
X154567835Y-44650712D01*
X153767835Y-45031664D02*
X154567835Y-45031664D01*
X153767835Y-45488807D01*
X154567835Y-45488807D01*
D14*
X48479603Y-100564581D02*
X48622460Y-100612200D01*
X48860556Y-100612200D01*
X48955794Y-100564581D01*
X49003413Y-100516962D01*
X49051032Y-100421724D01*
X49051032Y-100326486D01*
X49003413Y-100231248D01*
X48955794Y-100183629D01*
X48860556Y-100136010D01*
X48670080Y-100088391D01*
X48574841Y-100040772D01*
X48527222Y-99993153D01*
X48479603Y-99897915D01*
X48479603Y-99802677D01*
X48527222Y-99707439D01*
X48574841Y-99659820D01*
X48670080Y-99612200D01*
X48908175Y-99612200D01*
X49051032Y-99659820D01*
X49479603Y-100612200D02*
X49479603Y-99612200D01*
X49717699Y-99612200D01*
X49860556Y-99659820D01*
X49955794Y-99755058D01*
X50003413Y-99850296D01*
X50051032Y-100040772D01*
X50051032Y-100183629D01*
X50003413Y-100374105D01*
X49955794Y-100469343D01*
X49860556Y-100564581D01*
X49717699Y-100612200D01*
X49479603Y-100612200D01*
X50431984Y-100326486D02*
X50908175Y-100326486D01*
X50336746Y-100612200D02*
X50670080Y-99612200D01*
X51003413Y-100612200D01*
X51860556Y-100612200D02*
X51289127Y-100612200D01*
X51574841Y-100612200D02*
X51574841Y-99612200D01*
X51479603Y-99755058D01*
X51384365Y-99850296D01*
X51289127Y-99897915D01*
D12*
X145480305Y-107601402D02*
X146146972Y-107601402D01*
X146432686Y-108649021D02*
X145480305Y-108649021D01*
X145480305Y-106649021D01*
X146432686Y-106649021D01*
X147194591Y-108553783D02*
X147480305Y-108649021D01*
X147956496Y-108649021D01*
X148146972Y-108553783D01*
X148242210Y-108458545D01*
X148337448Y-108268069D01*
X148337448Y-108077593D01*
X148242210Y-107887117D01*
X148146972Y-107791879D01*
X147956496Y-107696640D01*
X147575543Y-107601402D01*
X147385067Y-107506164D01*
X147289829Y-107410926D01*
X147194591Y-107220450D01*
X147194591Y-107029974D01*
X147289829Y-106839498D01*
X147385067Y-106744260D01*
X147575543Y-106649021D01*
X148051734Y-106649021D01*
X148337448Y-106744260D01*
X149194591Y-108649021D02*
X149194591Y-106649021D01*
X149956496Y-106649021D01*
X150146972Y-106744260D01*
X150242210Y-106839498D01*
X150337448Y-107029974D01*
X150337448Y-107315688D01*
X150242210Y-107506164D01*
X150146972Y-107601402D01*
X149956496Y-107696640D01*
X149194591Y-107696640D01*
X151004115Y-106649021D02*
X152242210Y-106649021D01*
X151575543Y-107410926D01*
X151861258Y-107410926D01*
X152051734Y-107506164D01*
X152146972Y-107601402D01*
X152242210Y-107791879D01*
X152242210Y-108268069D01*
X152146972Y-108458545D01*
X152051734Y-108553783D01*
X151861258Y-108649021D01*
X151289829Y-108649021D01*
X151099353Y-108553783D01*
X151004115Y-108458545D01*
X153004115Y-106839498D02*
X153099353Y-106744260D01*
X153289829Y-106649021D01*
X153766020Y-106649021D01*
X153956496Y-106744260D01*
X154051734Y-106839498D01*
X154146972Y-107029974D01*
X154146972Y-107220450D01*
X154051734Y-107506164D01*
X152908877Y-108649021D01*
X154146972Y-108649021D01*
X116919047Y-44451904D02*
X117376190Y-44451904D01*
X117147619Y-45251904D02*
X117147619Y-44451904D01*
X117642857Y-45251904D02*
X117642857Y-44718571D01*
X117642857Y-44870952D02*
X117680952Y-44794761D01*
X117719047Y-44756666D01*
X117795238Y-44718571D01*
X117871428Y-44718571D01*
X118138095Y-45251904D02*
X118138095Y-44718571D01*
X118138095Y-44451904D02*
X118100000Y-44490000D01*
X118138095Y-44528095D01*
X118176190Y-44490000D01*
X118138095Y-44451904D01*
X118138095Y-44528095D01*
X118861904Y-44718571D02*
X118861904Y-45366190D01*
X118823809Y-45442380D01*
X118785714Y-45480476D01*
X118709523Y-45518571D01*
X118595238Y-45518571D01*
X118519047Y-45480476D01*
X118861904Y-45213809D02*
X118785714Y-45251904D01*
X118633333Y-45251904D01*
X118557142Y-45213809D01*
X118519047Y-45175714D01*
X118480952Y-45099523D01*
X118480952Y-44870952D01*
X118519047Y-44794761D01*
X118557142Y-44756666D01*
X118633333Y-44718571D01*
X118785714Y-44718571D01*
X118861904Y-44756666D01*
X119585714Y-44718571D02*
X119585714Y-45366190D01*
X119547619Y-45442380D01*
X119509523Y-45480476D01*
X119433333Y-45518571D01*
X119319047Y-45518571D01*
X119242857Y-45480476D01*
X119585714Y-45213809D02*
X119509523Y-45251904D01*
X119357142Y-45251904D01*
X119280952Y-45213809D01*
X119242857Y-45175714D01*
X119204761Y-45099523D01*
X119204761Y-44870952D01*
X119242857Y-44794761D01*
X119280952Y-44756666D01*
X119357142Y-44718571D01*
X119509523Y-44718571D01*
X119585714Y-44756666D01*
X120271428Y-45213809D02*
X120195238Y-45251904D01*
X120042857Y-45251904D01*
X119966666Y-45213809D01*
X119928571Y-45137619D01*
X119928571Y-44832857D01*
X119966666Y-44756666D01*
X120042857Y-44718571D01*
X120195238Y-44718571D01*
X120271428Y-44756666D01*
X120309523Y-44832857D01*
X120309523Y-44909047D01*
X119928571Y-44985238D01*
X120652380Y-45251904D02*
X120652380Y-44718571D01*
X120652380Y-44870952D02*
X120690476Y-44794761D01*
X120728571Y-44756666D01*
X120804761Y-44718571D01*
X120880952Y-44718571D01*
X86350476Y-41780000D02*
X86274285Y-41741904D01*
X86160000Y-41741904D01*
X86045714Y-41780000D01*
X85969523Y-41856190D01*
X85931428Y-41932380D01*
X85893333Y-42084761D01*
X85893333Y-42199047D01*
X85931428Y-42351428D01*
X85969523Y-42427619D01*
X86045714Y-42503809D01*
X86160000Y-42541904D01*
X86236190Y-42541904D01*
X86350476Y-42503809D01*
X86388571Y-42465714D01*
X86388571Y-42199047D01*
X86236190Y-42199047D01*
X86731428Y-42541904D02*
X86731428Y-41741904D01*
X87188571Y-42541904D01*
X87188571Y-41741904D01*
X87569523Y-42541904D02*
X87569523Y-41741904D01*
X87760000Y-41741904D01*
X87874285Y-41780000D01*
X87950476Y-41856190D01*
X87988571Y-41932380D01*
X88026666Y-42084761D01*
X88026666Y-42199047D01*
X87988571Y-42351428D01*
X87950476Y-42427619D01*
X87874285Y-42503809D01*
X87760000Y-42541904D01*
X87569523Y-42541904D01*
X105730476Y-41760000D02*
X105654285Y-41721904D01*
X105540000Y-41721904D01*
X105425714Y-41760000D01*
X105349523Y-41836190D01*
X105311428Y-41912380D01*
X105273333Y-42064761D01*
X105273333Y-42179047D01*
X105311428Y-42331428D01*
X105349523Y-42407619D01*
X105425714Y-42483809D01*
X105540000Y-42521904D01*
X105616190Y-42521904D01*
X105730476Y-42483809D01*
X105768571Y-42445714D01*
X105768571Y-42179047D01*
X105616190Y-42179047D01*
X106111428Y-42521904D02*
X106111428Y-41721904D01*
X106568571Y-42521904D01*
X106568571Y-41721904D01*
X106949523Y-42521904D02*
X106949523Y-41721904D01*
X107140000Y-41721904D01*
X107254285Y-41760000D01*
X107330476Y-41836190D01*
X107368571Y-41912380D01*
X107406666Y-42064761D01*
X107406666Y-42179047D01*
X107368571Y-42331428D01*
X107330476Y-42407619D01*
X107254285Y-42483809D01*
X107140000Y-42521904D01*
X106949523Y-42521904D01*
X48139047Y-80668571D02*
X48253333Y-80716190D01*
X48291428Y-80763809D01*
X48329523Y-80859047D01*
X48329523Y-81001904D01*
X48291428Y-81097142D01*
X48253333Y-81144761D01*
X48177142Y-81192380D01*
X47872380Y-81192380D01*
X47872380Y-80192380D01*
X48139047Y-80192380D01*
X48215238Y-80240000D01*
X48253333Y-80287619D01*
X48291428Y-80382857D01*
X48291428Y-80478095D01*
X48253333Y-80573333D01*
X48215238Y-80620952D01*
X48139047Y-80668571D01*
X47872380Y-80668571D01*
X49015238Y-81192380D02*
X49015238Y-80668571D01*
X48977142Y-80573333D01*
X48900952Y-80525714D01*
X48748571Y-80525714D01*
X48672380Y-80573333D01*
X49015238Y-81144761D02*
X48939047Y-81192380D01*
X48748571Y-81192380D01*
X48672380Y-81144761D01*
X48634285Y-81049523D01*
X48634285Y-80954285D01*
X48672380Y-80859047D01*
X48748571Y-80811428D01*
X48939047Y-80811428D01*
X49015238Y-80763809D01*
X49281904Y-80525714D02*
X49586666Y-80525714D01*
X49396190Y-80192380D02*
X49396190Y-81049523D01*
X49434285Y-81144761D01*
X49510476Y-81192380D01*
X49586666Y-81192380D01*
X49739047Y-80525714D02*
X50043809Y-80525714D01*
X49853333Y-80192380D02*
X49853333Y-81049523D01*
X49891428Y-81144761D01*
X49967619Y-81192380D01*
X50043809Y-81192380D01*
X50615238Y-81144761D02*
X50539047Y-81192380D01*
X50386666Y-81192380D01*
X50310476Y-81144761D01*
X50272380Y-81049523D01*
X50272380Y-80668571D01*
X50310476Y-80573333D01*
X50386666Y-80525714D01*
X50539047Y-80525714D01*
X50615238Y-80573333D01*
X50653333Y-80668571D01*
X50653333Y-80763809D01*
X50272380Y-80859047D01*
X50996190Y-81192380D02*
X50996190Y-80525714D01*
X50996190Y-80716190D02*
X51034285Y-80620952D01*
X51072380Y-80573333D01*
X51148571Y-80525714D01*
X51224761Y-80525714D01*
X51415238Y-80525714D02*
X51605714Y-81192380D01*
X51796190Y-80525714D02*
X51605714Y-81192380D01*
X51529523Y-81430476D01*
X51491428Y-81478095D01*
X51415238Y-81525714D01*
X52062857Y-81144761D02*
X52177142Y-81192380D01*
X52367619Y-81192380D01*
X52443809Y-81144761D01*
X52481904Y-81097142D01*
X52520000Y-81001904D01*
X52520000Y-80906666D01*
X52481904Y-80811428D01*
X52443809Y-80763809D01*
X52367619Y-80716190D01*
X52215238Y-80668571D01*
X52139047Y-80620952D01*
X52100952Y-80573333D01*
X52062857Y-80478095D01*
X52062857Y-80382857D01*
X52100952Y-80287619D01*
X52139047Y-80240000D01*
X52215238Y-80192380D01*
X52405714Y-80192380D01*
X52520000Y-80240000D01*
X52786666Y-80525714D02*
X52939047Y-81192380D01*
X53091428Y-80716190D01*
X53243809Y-81192380D01*
X53396190Y-80525714D01*
X53700952Y-81192380D02*
X53700952Y-80525714D01*
X53700952Y-80192380D02*
X53662857Y-80240000D01*
X53700952Y-80287619D01*
X53739047Y-80240000D01*
X53700952Y-80192380D01*
X53700952Y-80287619D01*
X53967619Y-80525714D02*
X54272380Y-80525714D01*
X54081904Y-80192380D02*
X54081904Y-81049523D01*
X54120000Y-81144761D01*
X54196190Y-81192380D01*
X54272380Y-81192380D01*
X54881904Y-81144761D02*
X54805714Y-81192380D01*
X54653333Y-81192380D01*
X54577142Y-81144761D01*
X54539047Y-81097142D01*
X54500952Y-81001904D01*
X54500952Y-80716190D01*
X54539047Y-80620952D01*
X54577142Y-80573333D01*
X54653333Y-80525714D01*
X54805714Y-80525714D01*
X54881904Y-80573333D01*
X55224761Y-81192380D02*
X55224761Y-80192380D01*
X55567619Y-81192380D02*
X55567619Y-80668571D01*
X55529523Y-80573333D01*
X55453333Y-80525714D01*
X55339047Y-80525714D01*
X55262857Y-80573333D01*
X55224761Y-80620952D01*
X117861904Y-47402857D02*
X118128571Y-47402857D01*
X118242857Y-47821904D02*
X117861904Y-47821904D01*
X117861904Y-47021904D01*
X118242857Y-47021904D01*
X118928571Y-47783809D02*
X118852380Y-47821904D01*
X118700000Y-47821904D01*
X118623809Y-47783809D01*
X118585714Y-47745714D01*
X118547619Y-47669523D01*
X118547619Y-47440952D01*
X118585714Y-47364761D01*
X118623809Y-47326666D01*
X118700000Y-47288571D01*
X118852380Y-47288571D01*
X118928571Y-47326666D01*
X119271428Y-47821904D02*
X119271428Y-47021904D01*
X119614285Y-47821904D02*
X119614285Y-47402857D01*
X119576190Y-47326666D01*
X119500000Y-47288571D01*
X119385714Y-47288571D01*
X119309523Y-47326666D01*
X119271428Y-47364761D01*
X120109523Y-47821904D02*
X120033333Y-47783809D01*
X119995238Y-47745714D01*
X119957142Y-47669523D01*
X119957142Y-47440952D01*
X119995238Y-47364761D01*
X120033333Y-47326666D01*
X120109523Y-47288571D01*
X120223809Y-47288571D01*
X120300000Y-47326666D01*
X120338095Y-47364761D01*
X120376190Y-47440952D01*
X120376190Y-47669523D01*
X120338095Y-47745714D01*
X120300000Y-47783809D01*
X120223809Y-47821904D01*
X120109523Y-47821904D01*
X117679047Y-39231904D02*
X118174285Y-39231904D01*
X117907619Y-39536666D01*
X118021904Y-39536666D01*
X118098095Y-39574761D01*
X118136190Y-39612857D01*
X118174285Y-39689047D01*
X118174285Y-39879523D01*
X118136190Y-39955714D01*
X118098095Y-39993809D01*
X118021904Y-40031904D01*
X117793333Y-40031904D01*
X117717142Y-39993809D01*
X117679047Y-39955714D01*
X118517142Y-39955714D02*
X118555238Y-39993809D01*
X118517142Y-40031904D01*
X118479047Y-39993809D01*
X118517142Y-39955714D01*
X118517142Y-40031904D01*
X118821904Y-39231904D02*
X119317142Y-39231904D01*
X119050476Y-39536666D01*
X119164761Y-39536666D01*
X119240952Y-39574761D01*
X119279047Y-39612857D01*
X119317142Y-39689047D01*
X119317142Y-39879523D01*
X119279047Y-39955714D01*
X119240952Y-39993809D01*
X119164761Y-40031904D01*
X118936190Y-40031904D01*
X118860000Y-39993809D01*
X118821904Y-39955714D01*
X119545714Y-39231904D02*
X119812380Y-40031904D01*
X120079047Y-39231904D01*
X132297142Y-98642380D02*
X132297142Y-98375714D01*
X131878095Y-98375714D02*
X132678095Y-98375714D01*
X132678095Y-98756666D01*
X132678095Y-99213809D02*
X132678095Y-99290000D01*
X132640000Y-99366190D01*
X132601904Y-99404285D01*
X132525714Y-99442380D01*
X132373333Y-99480476D01*
X132182857Y-99480476D01*
X132030476Y-99442380D01*
X131954285Y-99404285D01*
X131916190Y-99366190D01*
X131878095Y-99290000D01*
X131878095Y-99213809D01*
X131916190Y-99137619D01*
X131954285Y-99099523D01*
X132030476Y-99061428D01*
X132182857Y-99023333D01*
X132373333Y-99023333D01*
X132525714Y-99061428D01*
X132601904Y-99099523D01*
X132640000Y-99137619D01*
X132678095Y-99213809D01*
X131878095Y-100242380D02*
X131878095Y-99785238D01*
X131878095Y-100013809D02*
X132678095Y-100013809D01*
X132563809Y-99937619D01*
X132487619Y-99861428D01*
X132449523Y-99785238D01*
X53272744Y-123250940D02*
X53272744Y-123631893D01*
X53653697Y-123669988D01*
X53615601Y-123631893D01*
X53577506Y-123555702D01*
X53577506Y-123365226D01*
X53615601Y-123289036D01*
X53653697Y-123250940D01*
X53729887Y-123212845D01*
X53920363Y-123212845D01*
X53996554Y-123250940D01*
X54034649Y-123289036D01*
X54072744Y-123365226D01*
X54072744Y-123555702D01*
X54034649Y-123631893D01*
X53996554Y-123669988D01*
X53272744Y-122984274D02*
X54072744Y-122717607D01*
X53272744Y-122450940D01*
X105439047Y-39271904D02*
X105934285Y-39271904D01*
X105667619Y-39576666D01*
X105781904Y-39576666D01*
X105858095Y-39614761D01*
X105896190Y-39652857D01*
X105934285Y-39729047D01*
X105934285Y-39919523D01*
X105896190Y-39995714D01*
X105858095Y-40033809D01*
X105781904Y-40071904D01*
X105553333Y-40071904D01*
X105477142Y-40033809D01*
X105439047Y-39995714D01*
X106277142Y-39995714D02*
X106315238Y-40033809D01*
X106277142Y-40071904D01*
X106239047Y-40033809D01*
X106277142Y-39995714D01*
X106277142Y-40071904D01*
X106581904Y-39271904D02*
X107077142Y-39271904D01*
X106810476Y-39576666D01*
X106924761Y-39576666D01*
X107000952Y-39614761D01*
X107039047Y-39652857D01*
X107077142Y-39729047D01*
X107077142Y-39919523D01*
X107039047Y-39995714D01*
X107000952Y-40033809D01*
X106924761Y-40071904D01*
X106696190Y-40071904D01*
X106620000Y-40033809D01*
X106581904Y-39995714D01*
X107305714Y-39271904D02*
X107572380Y-40071904D01*
X107839047Y-39271904D01*
X157008780Y-45057136D02*
X157046875Y-44980945D01*
X157046875Y-44866660D01*
X157008780Y-44752374D01*
X156932589Y-44676183D01*
X156856399Y-44638088D01*
X156704018Y-44599993D01*
X156589732Y-44599993D01*
X156437351Y-44638088D01*
X156361160Y-44676183D01*
X156284970Y-44752374D01*
X156246875Y-44866660D01*
X156246875Y-44942850D01*
X156284970Y-45057136D01*
X156323065Y-45095231D01*
X156589732Y-45095231D01*
X156589732Y-44942850D01*
X156246875Y-45438088D02*
X157046875Y-45438088D01*
X156246875Y-45895231D01*
X157046875Y-45895231D01*
X156246875Y-46276183D02*
X157046875Y-46276183D01*
X157046875Y-46466660D01*
X157008780Y-46580945D01*
X156932589Y-46657136D01*
X156856399Y-46695231D01*
X156704018Y-46733326D01*
X156589732Y-46733326D01*
X156437351Y-46695231D01*
X156361160Y-46657136D01*
X156284970Y-46580945D01*
X156246875Y-46466660D01*
X156246875Y-46276183D01*
D15*
X101518006Y-50690180D02*
X101518006Y-51404466D01*
X101470387Y-51547323D01*
X101375149Y-51642561D01*
X101232292Y-51690180D01*
X101137054Y-51690180D01*
X101946578Y-50785419D02*
X101994197Y-50737800D01*
X102089435Y-50690180D01*
X102327530Y-50690180D01*
X102422768Y-50737800D01*
X102470387Y-50785419D01*
X102518006Y-50880657D01*
X102518006Y-50975895D01*
X102470387Y-51118752D01*
X101898959Y-51690180D01*
X102518006Y-51690180D01*
X82058966Y-50729540D02*
X82058966Y-51443826D01*
X82011347Y-51586683D01*
X81916109Y-51681921D01*
X81773252Y-51729540D01*
X81678014Y-51729540D01*
X82963728Y-51062874D02*
X82963728Y-51729540D01*
X82725633Y-50681921D02*
X82487538Y-51396207D01*
X83106585Y-51396207D01*
X146989066Y-35025080D02*
X146989066Y-35739366D01*
X146941447Y-35882223D01*
X146846209Y-35977461D01*
X146703352Y-36025080D01*
X146608114Y-36025080D01*
X147941447Y-35025080D02*
X147465257Y-35025080D01*
X147417638Y-35501271D01*
X147465257Y-35453652D01*
X147560495Y-35406033D01*
X147798590Y-35406033D01*
X147893828Y-35453652D01*
X147941447Y-35501271D01*
X147989066Y-35596509D01*
X147989066Y-35834604D01*
X147941447Y-35929842D01*
X147893828Y-35977461D01*
X147798590Y-36025080D01*
X147560495Y-36025080D01*
X147465257Y-35977461D01*
X147417638Y-35929842D01*
X160565246Y-35119020D02*
X160565246Y-35833306D01*
X160517627Y-35976163D01*
X160422389Y-36071401D01*
X160279532Y-36119020D01*
X160184294Y-36119020D01*
X161089056Y-36119020D02*
X161279532Y-36119020D01*
X161374770Y-36071401D01*
X161422389Y-36023782D01*
X161517627Y-35880925D01*
X161565246Y-35690449D01*
X161565246Y-35309497D01*
X161517627Y-35214259D01*
X161470008Y-35166640D01*
X161374770Y-35119020D01*
X161184294Y-35119020D01*
X161089056Y-35166640D01*
X161041437Y-35214259D01*
X160993818Y-35309497D01*
X160993818Y-35547592D01*
X161041437Y-35642830D01*
X161089056Y-35690449D01*
X161184294Y-35738068D01*
X161374770Y-35738068D01*
X161470008Y-35690449D01*
X161517627Y-35642830D01*
X161565246Y-35547592D01*
X112754496Y-50621520D02*
X112754496Y-51335806D01*
X112706877Y-51478663D01*
X112611639Y-51573901D01*
X112468781Y-51621520D01*
X112373543Y-51621520D01*
X113754496Y-51621520D02*
X113183067Y-51621520D01*
X113468781Y-51621520D02*
X113468781Y-50621520D01*
X113373543Y-50764378D01*
X113278305Y-50859616D01*
X113183067Y-50907235D01*
X114373543Y-50621520D02*
X114468781Y-50621520D01*
X114564020Y-50669140D01*
X114611639Y-50716759D01*
X114659258Y-50811997D01*
X114706877Y-51002473D01*
X114706877Y-51240568D01*
X114659258Y-51431044D01*
X114611639Y-51526282D01*
X114564020Y-51573901D01*
X114468781Y-51621520D01*
X114373543Y-51621520D01*
X114278305Y-51573901D01*
X114230686Y-51526282D01*
X114183067Y-51431044D01*
X114135448Y-51240568D01*
X114135448Y-51002473D01*
X114183067Y-50811997D01*
X114230686Y-50716759D01*
X114278305Y-50669140D01*
X114373543Y-50621520D01*
X123905916Y-50582960D02*
X123905916Y-51297246D01*
X123858297Y-51440103D01*
X123763059Y-51535341D01*
X123620201Y-51582960D01*
X123524963Y-51582960D01*
X124905916Y-51582960D02*
X124334487Y-51582960D01*
X124620201Y-51582960D02*
X124620201Y-50582960D01*
X124524963Y-50725818D01*
X124429725Y-50821056D01*
X124334487Y-50868675D01*
X125286868Y-50678199D02*
X125334487Y-50630580D01*
X125429725Y-50582960D01*
X125667820Y-50582960D01*
X125763059Y-50630580D01*
X125810678Y-50678199D01*
X125858297Y-50773437D01*
X125858297Y-50868675D01*
X125810678Y-51011532D01*
X125239249Y-51582960D01*
X125858297Y-51582960D01*
X138991516Y-50597940D02*
X138991516Y-51312226D01*
X138943897Y-51455083D01*
X138848659Y-51550321D01*
X138705801Y-51597940D01*
X138610563Y-51597940D01*
X139991516Y-51597940D02*
X139420087Y-51597940D01*
X139705801Y-51597940D02*
X139705801Y-50597940D01*
X139610563Y-50740798D01*
X139515325Y-50836036D01*
X139420087Y-50883655D01*
X140324849Y-50597940D02*
X140943897Y-50597940D01*
X140610563Y-50978893D01*
X140753420Y-50978893D01*
X140848659Y-51026512D01*
X140896278Y-51074131D01*
X140943897Y-51169369D01*
X140943897Y-51407464D01*
X140896278Y-51502702D01*
X140848659Y-51550321D01*
X140753420Y-51597940D01*
X140467706Y-51597940D01*
X140372468Y-51550321D01*
X140324849Y-51502702D01*
D12*
X38762380Y-119549523D02*
X39476666Y-119549523D01*
X39619523Y-119597142D01*
X39714761Y-119692380D01*
X39762380Y-119835238D01*
X39762380Y-119930476D01*
X39762380Y-118549523D02*
X39762380Y-119120952D01*
X39762380Y-118835238D02*
X38762380Y-118835238D01*
X38905238Y-118930476D01*
X39000476Y-119025714D01*
X39048095Y-119120952D01*
X38762380Y-117644761D02*
X38762380Y-118120952D01*
X39238571Y-118168571D01*
X39190952Y-118120952D01*
X39143333Y-118025714D01*
X39143333Y-117787619D01*
X39190952Y-117692380D01*
X39238571Y-117644761D01*
X39333809Y-117597142D01*
X39571904Y-117597142D01*
X39667142Y-117644761D01*
X39714761Y-117692380D01*
X39762380Y-117787619D01*
X39762380Y-118025714D01*
X39714761Y-118120952D01*
X39667142Y-118168571D01*
X131264380Y-65007766D02*
X130788190Y-65341100D01*
X131264380Y-65579195D02*
X130264380Y-65579195D01*
X130264380Y-65198242D01*
X130312000Y-65103004D01*
X130359619Y-65055385D01*
X130454857Y-65007766D01*
X130597714Y-65007766D01*
X130692952Y-65055385D01*
X130740571Y-65103004D01*
X130788190Y-65198242D01*
X130788190Y-65579195D01*
X130264380Y-64674433D02*
X130264380Y-64007766D01*
X131264380Y-64436338D01*
X136158380Y-64971766D02*
X135682190Y-65305100D01*
X136158380Y-65543195D02*
X135158380Y-65543195D01*
X135158380Y-65162242D01*
X135206000Y-65067004D01*
X135253619Y-65019385D01*
X135348857Y-64971766D01*
X135491714Y-64971766D01*
X135586952Y-65019385D01*
X135634571Y-65067004D01*
X135682190Y-65162242D01*
X135682190Y-65543195D01*
X135586952Y-64400338D02*
X135539333Y-64495576D01*
X135491714Y-64543195D01*
X135396476Y-64590814D01*
X135348857Y-64590814D01*
X135253619Y-64543195D01*
X135206000Y-64495576D01*
X135158380Y-64400338D01*
X135158380Y-64209861D01*
X135206000Y-64114623D01*
X135253619Y-64067004D01*
X135348857Y-64019385D01*
X135396476Y-64019385D01*
X135491714Y-64067004D01*
X135539333Y-64114623D01*
X135586952Y-64209861D01*
X135586952Y-64400338D01*
X135634571Y-64495576D01*
X135682190Y-64543195D01*
X135777428Y-64590814D01*
X135967904Y-64590814D01*
X136063142Y-64543195D01*
X136110761Y-64495576D01*
X136158380Y-64400338D01*
X136158380Y-64209861D01*
X136110761Y-64114623D01*
X136063142Y-64067004D01*
X135967904Y-64019385D01*
X135777428Y-64019385D01*
X135682190Y-64067004D01*
X135634571Y-64114623D01*
X135586952Y-64209861D01*
X144584380Y-64975366D02*
X144108190Y-65308700D01*
X144584380Y-65546795D02*
X143584380Y-65546795D01*
X143584380Y-65165842D01*
X143632000Y-65070604D01*
X143679619Y-65022985D01*
X143774857Y-64975366D01*
X143917714Y-64975366D01*
X144012952Y-65022985D01*
X144060571Y-65070604D01*
X144108190Y-65165842D01*
X144108190Y-65546795D01*
X144584380Y-64499176D02*
X144584380Y-64308700D01*
X144536761Y-64213461D01*
X144489142Y-64165842D01*
X144346285Y-64070604D01*
X144155809Y-64022985D01*
X143774857Y-64022985D01*
X143679619Y-64070604D01*
X143632000Y-64118223D01*
X143584380Y-64213461D01*
X143584380Y-64403938D01*
X143632000Y-64499176D01*
X143679619Y-64546795D01*
X143774857Y-64594414D01*
X144012952Y-64594414D01*
X144108190Y-64546795D01*
X144155809Y-64499176D01*
X144203428Y-64403938D01*
X144203428Y-64213461D01*
X144155809Y-64118223D01*
X144108190Y-64070604D01*
X144012952Y-64022985D01*
X149374380Y-65361557D02*
X148898190Y-65694890D01*
X149374380Y-65932985D02*
X148374380Y-65932985D01*
X148374380Y-65552033D01*
X148422000Y-65456795D01*
X148469619Y-65409176D01*
X148564857Y-65361557D01*
X148707714Y-65361557D01*
X148802952Y-65409176D01*
X148850571Y-65456795D01*
X148898190Y-65552033D01*
X148898190Y-65932985D01*
X149374380Y-64409176D02*
X149374380Y-64980604D01*
X149374380Y-64694890D02*
X148374380Y-64694890D01*
X148517238Y-64790128D01*
X148612476Y-64885366D01*
X148660095Y-64980604D01*
X148374380Y-63790128D02*
X148374380Y-63694890D01*
X148422000Y-63599652D01*
X148469619Y-63552033D01*
X148564857Y-63504414D01*
X148755333Y-63456795D01*
X148993428Y-63456795D01*
X149183904Y-63504414D01*
X149279142Y-63552033D01*
X149326761Y-63599652D01*
X149374380Y-63694890D01*
X149374380Y-63790128D01*
X149326761Y-63885366D01*
X149279142Y-63932985D01*
X149183904Y-63980604D01*
X148993428Y-64028223D01*
X148755333Y-64028223D01*
X148564857Y-63980604D01*
X148469619Y-63932985D01*
X148422000Y-63885366D01*
X148374380Y-63790128D01*
X171735095Y-117506761D02*
X171877952Y-117554380D01*
X172116047Y-117554380D01*
X172211285Y-117506761D01*
X172258904Y-117459142D01*
X172306523Y-117363904D01*
X172306523Y-117268666D01*
X172258904Y-117173428D01*
X172211285Y-117125809D01*
X172116047Y-117078190D01*
X171925571Y-117030571D01*
X171830333Y-116982952D01*
X171782714Y-116935333D01*
X171735095Y-116840095D01*
X171735095Y-116744857D01*
X171782714Y-116649619D01*
X171830333Y-116602000D01*
X171925571Y-116554380D01*
X172163666Y-116554380D01*
X172306523Y-116602000D01*
X172735095Y-117554380D02*
X172735095Y-116554380D01*
X173116047Y-116554380D01*
X173211285Y-116602000D01*
X173258904Y-116649619D01*
X173306523Y-116744857D01*
X173306523Y-116887714D01*
X173258904Y-116982952D01*
X173211285Y-117030571D01*
X173116047Y-117078190D01*
X172735095Y-117078190D01*
X174258904Y-117554380D02*
X173687476Y-117554380D01*
X173973190Y-117554380D02*
X173973190Y-116554380D01*
X173877952Y-116697238D01*
X173782714Y-116792476D01*
X173687476Y-116840095D01*
X175202428Y-119467952D02*
X175202428Y-118706047D01*
X175583380Y-119087000D02*
X174821476Y-119087000D01*
D15*
X152004356Y-50597940D02*
X152004356Y-51312226D01*
X151956737Y-51455083D01*
X151861499Y-51550321D01*
X151718641Y-51597940D01*
X151623403Y-51597940D01*
X153004356Y-51597940D02*
X152432927Y-51597940D01*
X152718641Y-51597940D02*
X152718641Y-50597940D01*
X152623403Y-50740798D01*
X152528165Y-50836036D01*
X152432927Y-50883655D01*
X153480546Y-51597940D02*
X153671022Y-51597940D01*
X153766260Y-51550321D01*
X153813880Y-51502702D01*
X153909118Y-51359845D01*
X153956737Y-51169369D01*
X153956737Y-50788417D01*
X153909118Y-50693179D01*
X153861499Y-50645560D01*
X153766260Y-50597940D01*
X153575784Y-50597940D01*
X153480546Y-50645560D01*
X153432927Y-50693179D01*
X153385308Y-50788417D01*
X153385308Y-51026512D01*
X153432927Y-51121750D01*
X153480546Y-51169369D01*
X153575784Y-51216988D01*
X153766260Y-51216988D01*
X153861499Y-51169369D01*
X153909118Y-51121750D01*
X153956737Y-51026512D01*
D12*
X55443140Y-50075055D02*
X54443140Y-50075055D01*
X54443140Y-49836960D01*
X54490760Y-49694102D01*
X54585998Y-49598864D01*
X54681236Y-49551245D01*
X54871712Y-49503626D01*
X55014569Y-49503626D01*
X55205045Y-49551245D01*
X55300283Y-49598864D01*
X55395521Y-49694102D01*
X55443140Y-49836960D01*
X55443140Y-50075055D01*
X54443140Y-49170293D02*
X54443140Y-48503626D01*
X55443140Y-48932198D01*
X55214540Y-40053544D02*
X54214540Y-40053544D01*
X55214540Y-39482116D02*
X54643112Y-39910687D01*
X54214540Y-39482116D02*
X54785969Y-40053544D01*
X39062380Y-44249523D02*
X39776666Y-44249523D01*
X39919523Y-44297142D01*
X40014761Y-44392380D01*
X40062380Y-44535238D01*
X40062380Y-44630476D01*
X39157619Y-43820952D02*
X39110000Y-43773333D01*
X39062380Y-43678095D01*
X39062380Y-43440000D01*
X39110000Y-43344761D01*
X39157619Y-43297142D01*
X39252857Y-43249523D01*
X39348095Y-43249523D01*
X39490952Y-43297142D01*
X40062380Y-43868571D01*
X40062380Y-43249523D01*
X39062380Y-42344761D02*
X39062380Y-42820952D01*
X39538571Y-42868571D01*
X39490952Y-42820952D01*
X39443333Y-42725714D01*
X39443333Y-42487619D01*
X39490952Y-42392380D01*
X39538571Y-42344761D01*
X39633809Y-42297142D01*
X39871904Y-42297142D01*
X39967142Y-42344761D01*
X40014761Y-42392380D01*
X40062380Y-42487619D01*
X40062380Y-42725714D01*
X40014761Y-42820952D01*
X39967142Y-42868571D01*
D15*
X91964996Y-50724460D02*
X91964996Y-51438746D01*
X91917377Y-51581603D01*
X91822139Y-51676841D01*
X91679281Y-51724460D01*
X91584043Y-51724460D01*
X92345948Y-50724460D02*
X92964996Y-50724460D01*
X92631662Y-51105413D01*
X92774520Y-51105413D01*
X92869758Y-51153032D01*
X92917377Y-51200651D01*
X92964996Y-51295889D01*
X92964996Y-51533984D01*
X92917377Y-51629222D01*
X92869758Y-51676841D01*
X92774520Y-51724460D01*
X92488805Y-51724460D01*
X92393567Y-51676841D01*
X92345948Y-51629222D01*
X93584043Y-50724460D02*
X93679281Y-50724460D01*
X93774520Y-50772080D01*
X93822139Y-50819699D01*
X93869758Y-50914937D01*
X93917377Y-51105413D01*
X93917377Y-51343508D01*
X93869758Y-51533984D01*
X93822139Y-51629222D01*
X93774520Y-51676841D01*
X93679281Y-51724460D01*
X93584043Y-51724460D01*
X93488805Y-51676841D01*
X93441186Y-51629222D01*
X93393567Y-51533984D01*
X93345948Y-51343508D01*
X93345948Y-51105413D01*
X93393567Y-50914937D01*
X93441186Y-50819699D01*
X93488805Y-50772080D01*
X93584043Y-50724460D01*
D12*
X75126633Y-51506380D02*
X74793300Y-51030190D01*
X74555204Y-51506380D02*
X74555204Y-50506380D01*
X74936157Y-50506380D01*
X75031395Y-50554000D01*
X75079014Y-50601619D01*
X75126633Y-50696857D01*
X75126633Y-50839714D01*
X75079014Y-50934952D01*
X75031395Y-50982571D01*
X74936157Y-51030190D01*
X74555204Y-51030190D01*
X75507585Y-50601619D02*
X75555204Y-50554000D01*
X75650442Y-50506380D01*
X75888538Y-50506380D01*
X75983776Y-50554000D01*
X76031395Y-50601619D01*
X76079014Y-50696857D01*
X76079014Y-50792095D01*
X76031395Y-50934952D01*
X75459966Y-51506380D01*
X76079014Y-51506380D01*
X75126633Y-37902080D02*
X74793300Y-37425890D01*
X74555204Y-37902080D02*
X74555204Y-36902080D01*
X74936157Y-36902080D01*
X75031395Y-36949700D01*
X75079014Y-36997319D01*
X75126633Y-37092557D01*
X75126633Y-37235414D01*
X75079014Y-37330652D01*
X75031395Y-37378271D01*
X74936157Y-37425890D01*
X74555204Y-37425890D01*
X75983776Y-37235414D02*
X75983776Y-37902080D01*
X75745680Y-36854461D02*
X75507585Y-37568747D01*
X76126633Y-37568747D01*
X75994420Y-57729483D02*
X76708706Y-57729483D01*
X76851563Y-57777102D01*
X76946801Y-57872340D01*
X76994420Y-58015198D01*
X76994420Y-58110436D01*
X75994420Y-57348531D02*
X75994420Y-56729483D01*
X76375373Y-57062817D01*
X76375373Y-56919960D01*
X76422992Y-56824721D01*
X76470611Y-56777102D01*
X76565849Y-56729483D01*
X76803944Y-56729483D01*
X76899182Y-56777102D01*
X76946801Y-56824721D01*
X76994420Y-56919960D01*
X76994420Y-57205674D01*
X76946801Y-57300912D01*
X76899182Y-57348531D01*
X76994420Y-55777102D02*
X76994420Y-56348531D01*
X76994420Y-56062817D02*
X75994420Y-56062817D01*
X76137278Y-56158055D01*
X76232516Y-56253293D01*
X76280135Y-56348531D01*
X54918380Y-87076204D02*
X55727904Y-87076204D01*
X55823142Y-87028585D01*
X55870761Y-86980966D01*
X55918380Y-86885728D01*
X55918380Y-86695252D01*
X55870761Y-86600014D01*
X55823142Y-86552395D01*
X55727904Y-86504776D01*
X54918380Y-86504776D01*
X54918380Y-86123823D02*
X54918380Y-85504776D01*
X55299333Y-85838109D01*
X55299333Y-85695252D01*
X55346952Y-85600014D01*
X55394571Y-85552395D01*
X55489809Y-85504776D01*
X55727904Y-85504776D01*
X55823142Y-85552395D01*
X55870761Y-85600014D01*
X55918380Y-85695252D01*
X55918380Y-85980966D01*
X55870761Y-86076204D01*
X55823142Y-86123823D01*
X59492257Y-98307871D02*
X59825590Y-98307871D01*
X59968447Y-98831680D02*
X59492257Y-98831680D01*
X59492257Y-97831680D01*
X59968447Y-97831680D01*
X60254161Y-98165014D02*
X60635114Y-98165014D01*
X60397019Y-97831680D02*
X60397019Y-98688823D01*
X60444638Y-98784061D01*
X60539876Y-98831680D01*
X60635114Y-98831680D01*
X60968447Y-98831680D02*
X60968447Y-97831680D01*
X61397019Y-98831680D02*
X61397019Y-98307871D01*
X61349400Y-98212633D01*
X61254161Y-98165014D01*
X61111304Y-98165014D01*
X61016066Y-98212633D01*
X60968447Y-98260252D01*
X62254161Y-98784061D02*
X62158923Y-98831680D01*
X61968447Y-98831680D01*
X61873209Y-98784061D01*
X61825590Y-98688823D01*
X61825590Y-98307871D01*
X61873209Y-98212633D01*
X61968447Y-98165014D01*
X62158923Y-98165014D01*
X62254161Y-98212633D01*
X62301780Y-98307871D01*
X62301780Y-98403109D01*
X61825590Y-98498347D01*
X62730352Y-98831680D02*
X62730352Y-98165014D01*
X62730352Y-98355490D02*
X62777971Y-98260252D01*
X62825590Y-98212633D01*
X62920828Y-98165014D01*
X63016066Y-98165014D01*
X63349400Y-98165014D02*
X63349400Y-98831680D01*
X63349400Y-98260252D02*
X63397019Y-98212633D01*
X63492257Y-98165014D01*
X63635114Y-98165014D01*
X63730352Y-98212633D01*
X63777971Y-98307871D01*
X63777971Y-98831680D01*
X64635114Y-98784061D02*
X64539876Y-98831680D01*
X64349400Y-98831680D01*
X64254161Y-98784061D01*
X64206542Y-98688823D01*
X64206542Y-98307871D01*
X64254161Y-98212633D01*
X64349400Y-98165014D01*
X64539876Y-98165014D01*
X64635114Y-98212633D01*
X64682733Y-98307871D01*
X64682733Y-98403109D01*
X64206542Y-98498347D01*
X64968447Y-98165014D02*
X65349400Y-98165014D01*
X65111304Y-97831680D02*
X65111304Y-98688823D01*
X65158923Y-98784061D01*
X65254161Y-98831680D01*
X65349400Y-98831680D01*
X66078380Y-65303347D02*
X65078380Y-65303347D01*
X65792666Y-64970014D01*
X65078380Y-64636680D01*
X66078380Y-64636680D01*
X66078380Y-64160490D02*
X65411714Y-64160490D01*
X65078380Y-64160490D02*
X65126000Y-64208109D01*
X65173619Y-64160490D01*
X65126000Y-64112871D01*
X65078380Y-64160490D01*
X65173619Y-64160490D01*
X66030761Y-63255728D02*
X66078380Y-63350966D01*
X66078380Y-63541442D01*
X66030761Y-63636680D01*
X65983142Y-63684300D01*
X65887904Y-63731919D01*
X65602190Y-63731919D01*
X65506952Y-63684300D01*
X65459333Y-63636680D01*
X65411714Y-63541442D01*
X65411714Y-63350966D01*
X65459333Y-63255728D01*
X66078380Y-62827157D02*
X65411714Y-62827157D01*
X65602190Y-62827157D02*
X65506952Y-62779538D01*
X65459333Y-62731919D01*
X65411714Y-62636680D01*
X65411714Y-62541442D01*
X66078380Y-62065252D02*
X66030761Y-62160490D01*
X65983142Y-62208109D01*
X65887904Y-62255728D01*
X65602190Y-62255728D01*
X65506952Y-62208109D01*
X65459333Y-62160490D01*
X65411714Y-62065252D01*
X65411714Y-61922395D01*
X65459333Y-61827157D01*
X65506952Y-61779538D01*
X65602190Y-61731919D01*
X65887904Y-61731919D01*
X65983142Y-61779538D01*
X66030761Y-61827157D01*
X66078380Y-61922395D01*
X66078380Y-62065252D01*
X66030761Y-60589061D02*
X66078380Y-60446204D01*
X66078380Y-60208109D01*
X66030761Y-60112871D01*
X65983142Y-60065252D01*
X65887904Y-60017633D01*
X65792666Y-60017633D01*
X65697428Y-60065252D01*
X65649809Y-60112871D01*
X65602190Y-60208109D01*
X65554571Y-60398585D01*
X65506952Y-60493823D01*
X65459333Y-60541442D01*
X65364095Y-60589061D01*
X65268857Y-60589061D01*
X65173619Y-60541442D01*
X65126000Y-60493823D01*
X65078380Y-60398585D01*
X65078380Y-60160490D01*
X65126000Y-60017633D01*
X66078380Y-59589061D02*
X65078380Y-59589061D01*
X65078380Y-59350966D01*
X65126000Y-59208109D01*
X65221238Y-59112871D01*
X65316476Y-59065252D01*
X65506952Y-59017633D01*
X65649809Y-59017633D01*
X65840285Y-59065252D01*
X65935523Y-59112871D01*
X66030761Y-59208109D01*
X66078380Y-59350966D01*
X66078380Y-59589061D01*
X67567580Y-108089623D02*
X68377104Y-108089623D01*
X68472342Y-108042004D01*
X68519961Y-107994385D01*
X68567580Y-107899147D01*
X68567580Y-107708671D01*
X68519961Y-107613433D01*
X68472342Y-107565814D01*
X68377104Y-107518195D01*
X67567580Y-107518195D01*
X68519961Y-107089623D02*
X68567580Y-106946766D01*
X68567580Y-106708671D01*
X68519961Y-106613433D01*
X68472342Y-106565814D01*
X68377104Y-106518195D01*
X68281866Y-106518195D01*
X68186628Y-106565814D01*
X68139009Y-106613433D01*
X68091390Y-106708671D01*
X68043771Y-106899147D01*
X67996152Y-106994385D01*
X67948533Y-107042004D01*
X67853295Y-107089623D01*
X67758057Y-107089623D01*
X67662819Y-107042004D01*
X67615200Y-106994385D01*
X67567580Y-106899147D01*
X67567580Y-106661052D01*
X67615200Y-106518195D01*
X68043771Y-105756290D02*
X68091390Y-105613433D01*
X68139009Y-105565814D01*
X68234247Y-105518195D01*
X68377104Y-105518195D01*
X68472342Y-105565814D01*
X68519961Y-105613433D01*
X68567580Y-105708671D01*
X68567580Y-106089623D01*
X67567580Y-106089623D01*
X67567580Y-105756290D01*
X67615200Y-105661052D01*
X67662819Y-105613433D01*
X67758057Y-105565814D01*
X67853295Y-105565814D01*
X67948533Y-105613433D01*
X67996152Y-105661052D01*
X68043771Y-105756290D01*
X68043771Y-106089623D01*
X68567580Y-104327719D02*
X67567580Y-104327719D01*
X68043771Y-104327719D02*
X68043771Y-103756290D01*
X68567580Y-103756290D02*
X67567580Y-103756290D01*
X68567580Y-103137242D02*
X68519961Y-103232480D01*
X68472342Y-103280100D01*
X68377104Y-103327719D01*
X68091390Y-103327719D01*
X67996152Y-103280100D01*
X67948533Y-103232480D01*
X67900914Y-103137242D01*
X67900914Y-102994385D01*
X67948533Y-102899147D01*
X67996152Y-102851528D01*
X68091390Y-102803909D01*
X68377104Y-102803909D01*
X68472342Y-102851528D01*
X68519961Y-102899147D01*
X68567580Y-102994385D01*
X68567580Y-103137242D01*
X68519961Y-102422957D02*
X68567580Y-102327719D01*
X68567580Y-102137242D01*
X68519961Y-102042004D01*
X68424723Y-101994385D01*
X68377104Y-101994385D01*
X68281866Y-102042004D01*
X68234247Y-102137242D01*
X68234247Y-102280100D01*
X68186628Y-102375338D01*
X68091390Y-102422957D01*
X68043771Y-102422957D01*
X67948533Y-102375338D01*
X67900914Y-102280100D01*
X67900914Y-102137242D01*
X67948533Y-102042004D01*
X67900914Y-101708671D02*
X67900914Y-101327719D01*
X67567580Y-101565814D02*
X68424723Y-101565814D01*
X68519961Y-101518195D01*
X68567580Y-101422957D01*
X68567580Y-101327719D01*
X62542666Y-87900966D02*
X62542666Y-87200966D01*
X62776000Y-87700966D01*
X63009333Y-87200966D01*
X63009333Y-87900966D01*
X63342666Y-87900966D02*
X63342666Y-87200966D01*
X63676000Y-87900966D02*
X63676000Y-87200966D01*
X63909333Y-87700966D01*
X64142666Y-87200966D01*
X64142666Y-87900966D01*
X64409333Y-87200966D02*
X64876000Y-87900966D01*
X64876000Y-87200966D02*
X64409333Y-87900966D01*
X65542666Y-87900966D02*
X65309333Y-87567633D01*
X65142666Y-87900966D02*
X65142666Y-87200966D01*
X65409333Y-87200966D01*
X65476000Y-87234300D01*
X65509333Y-87267633D01*
X65542666Y-87334300D01*
X65542666Y-87434300D01*
X65509333Y-87500966D01*
X65476000Y-87534300D01*
X65409333Y-87567633D01*
X65142666Y-87567633D01*
X65742666Y-87200966D02*
X66142666Y-87200966D01*
X65942666Y-87900966D02*
X65942666Y-87200966D01*
X66742666Y-87900966D02*
X66342666Y-87900966D01*
X66542666Y-87900966D02*
X66542666Y-87200966D01*
X66476000Y-87300966D01*
X66409333Y-87367633D01*
X66342666Y-87400966D01*
X67176000Y-87200966D02*
X67242666Y-87200966D01*
X67309333Y-87234300D01*
X67342666Y-87267633D01*
X67376000Y-87334300D01*
X67409333Y-87467633D01*
X67409333Y-87634300D01*
X67376000Y-87767633D01*
X67342666Y-87834300D01*
X67309333Y-87867633D01*
X67242666Y-87900966D01*
X67176000Y-87900966D01*
X67109333Y-87867633D01*
X67076000Y-87834300D01*
X67042666Y-87767633D01*
X67009333Y-87634300D01*
X67009333Y-87467633D01*
X67042666Y-87334300D01*
X67076000Y-87267633D01*
X67109333Y-87234300D01*
X67176000Y-87200966D01*
X68009333Y-87200966D02*
X67876000Y-87200966D01*
X67809333Y-87234300D01*
X67776000Y-87267633D01*
X67709333Y-87367633D01*
X67676000Y-87500966D01*
X67676000Y-87767633D01*
X67709333Y-87834300D01*
X67742666Y-87867633D01*
X67809333Y-87900966D01*
X67942666Y-87900966D01*
X68009333Y-87867633D01*
X68042666Y-87834300D01*
X68076000Y-87767633D01*
X68076000Y-87600966D01*
X68042666Y-87534300D01*
X68009333Y-87500966D01*
X67942666Y-87467633D01*
X67809333Y-87467633D01*
X67742666Y-87500966D01*
X67709333Y-87534300D01*
X67676000Y-87600966D01*
X68342666Y-87267633D02*
X68376000Y-87234300D01*
X68442666Y-87200966D01*
X68609333Y-87200966D01*
X68676000Y-87234300D01*
X68709333Y-87267633D01*
X68742666Y-87334300D01*
X68742666Y-87400966D01*
X68709333Y-87500966D01*
X68309333Y-87900966D01*
X68742666Y-87900966D01*
X64364095Y-112436680D02*
X64364095Y-113246204D01*
X64411714Y-113341442D01*
X64459333Y-113389061D01*
X64554571Y-113436680D01*
X64745047Y-113436680D01*
X64840285Y-113389061D01*
X64887904Y-113341442D01*
X64935523Y-113246204D01*
X64935523Y-112436680D01*
X65364095Y-113389061D02*
X65506952Y-113436680D01*
X65745047Y-113436680D01*
X65840285Y-113389061D01*
X65887904Y-113341442D01*
X65935523Y-113246204D01*
X65935523Y-113150966D01*
X65887904Y-113055728D01*
X65840285Y-113008109D01*
X65745047Y-112960490D01*
X65554571Y-112912871D01*
X65459333Y-112865252D01*
X65411714Y-112817633D01*
X65364095Y-112722395D01*
X65364095Y-112627157D01*
X65411714Y-112531919D01*
X65459333Y-112484300D01*
X65554571Y-112436680D01*
X65792666Y-112436680D01*
X65935523Y-112484300D01*
X66697428Y-112912871D02*
X66840285Y-112960490D01*
X66887904Y-113008109D01*
X66935523Y-113103347D01*
X66935523Y-113246204D01*
X66887904Y-113341442D01*
X66840285Y-113389061D01*
X66745047Y-113436680D01*
X66364095Y-113436680D01*
X66364095Y-112436680D01*
X66697428Y-112436680D01*
X66792666Y-112484300D01*
X66840285Y-112531919D01*
X66887904Y-112627157D01*
X66887904Y-112722395D01*
X66840285Y-112817633D01*
X66792666Y-112865252D01*
X66697428Y-112912871D01*
X66364095Y-112912871D01*
X64062666Y-89170966D02*
X64062666Y-88470966D01*
X64229333Y-88470966D01*
X64329333Y-88504300D01*
X64396000Y-88570966D01*
X64429333Y-88637633D01*
X64462666Y-88770966D01*
X64462666Y-88870966D01*
X64429333Y-89004300D01*
X64396000Y-89070966D01*
X64329333Y-89137633D01*
X64229333Y-89170966D01*
X64062666Y-89170966D01*
X64662666Y-88470966D02*
X64896000Y-89170966D01*
X65129333Y-88470966D01*
X65562666Y-88470966D02*
X65562666Y-88970966D01*
X65529333Y-89070966D01*
X65462666Y-89137633D01*
X65362666Y-89170966D01*
X65296000Y-89170966D01*
X66196000Y-88470966D02*
X66062666Y-88470966D01*
X65996000Y-88504300D01*
X65962666Y-88537633D01*
X65896000Y-88637633D01*
X65862666Y-88770966D01*
X65862666Y-89037633D01*
X65896000Y-89104300D01*
X65929333Y-89137633D01*
X65996000Y-89170966D01*
X66129333Y-89170966D01*
X66196000Y-89137633D01*
X66229333Y-89104300D01*
X66262666Y-89037633D01*
X66262666Y-88870966D01*
X66229333Y-88804300D01*
X66196000Y-88770966D01*
X66129333Y-88737633D01*
X65996000Y-88737633D01*
X65929333Y-88770966D01*
X65896000Y-88804300D01*
X65862666Y-88870966D01*
X66529333Y-88970966D02*
X66862666Y-88970966D01*
X66462666Y-89170966D02*
X66696000Y-88470966D01*
X66929333Y-89170966D01*
X155050620Y-83149733D02*
X155764906Y-83149733D01*
X155907763Y-83197352D01*
X156003001Y-83292590D01*
X156050620Y-83435447D01*
X156050620Y-83530685D01*
X156050620Y-82149733D02*
X156050620Y-82721161D01*
X156050620Y-82435447D02*
X155050620Y-82435447D01*
X155193478Y-82530685D01*
X155288716Y-82625923D01*
X155336335Y-82721161D01*
X155235560Y-68910993D02*
X155949846Y-68910993D01*
X156092703Y-68958612D01*
X156187941Y-69053850D01*
X156235560Y-69196707D01*
X156235560Y-69291945D01*
X155235560Y-68006231D02*
X155235560Y-68196707D01*
X155283180Y-68291945D01*
X155330799Y-68339564D01*
X155473656Y-68434802D01*
X155664132Y-68482421D01*
X156045084Y-68482421D01*
X156140322Y-68434802D01*
X156187941Y-68387183D01*
X156235560Y-68291945D01*
X156235560Y-68101469D01*
X156187941Y-68006231D01*
X156140322Y-67958612D01*
X156045084Y-67910993D01*
X155806989Y-67910993D01*
X155711751Y-67958612D01*
X155664132Y-68006231D01*
X155616513Y-68101469D01*
X155616513Y-68291945D01*
X155664132Y-68387183D01*
X155711751Y-68434802D01*
X155806989Y-68482421D01*
X178299340Y-91717413D02*
X179013626Y-91717413D01*
X179156483Y-91765032D01*
X179251721Y-91860270D01*
X179299340Y-92003127D01*
X179299340Y-92098365D01*
X178299340Y-91336460D02*
X178299340Y-90669794D01*
X179299340Y-91098365D01*
X178474540Y-73818073D02*
X179188826Y-73818073D01*
X179331683Y-73865692D01*
X179426921Y-73960930D01*
X179474540Y-74103787D01*
X179474540Y-74199025D01*
X178903112Y-73199025D02*
X178855493Y-73294263D01*
X178807874Y-73341882D01*
X178712636Y-73389501D01*
X178665017Y-73389501D01*
X178569779Y-73341882D01*
X178522160Y-73294263D01*
X178474540Y-73199025D01*
X178474540Y-73008549D01*
X178522160Y-72913311D01*
X178569779Y-72865692D01*
X178665017Y-72818073D01*
X178712636Y-72818073D01*
X178807874Y-72865692D01*
X178855493Y-72913311D01*
X178903112Y-73008549D01*
X178903112Y-73199025D01*
X178950731Y-73294263D01*
X178998350Y-73341882D01*
X179093588Y-73389501D01*
X179284064Y-73389501D01*
X179379302Y-73341882D01*
X179426921Y-73294263D01*
X179474540Y-73199025D01*
X179474540Y-73008549D01*
X179426921Y-72913311D01*
X179379302Y-72865692D01*
X179284064Y-72818073D01*
X179093588Y-72818073D01*
X178998350Y-72865692D01*
X178950731Y-72913311D01*
X178903112Y-73008549D01*
X178226820Y-56872443D02*
X178941106Y-56872443D01*
X179083963Y-56920062D01*
X179179201Y-57015300D01*
X179226820Y-57158158D01*
X179226820Y-57253396D01*
X179226820Y-55872443D02*
X179226820Y-56443872D01*
X179226820Y-56158158D02*
X178226820Y-56158158D01*
X178369678Y-56253396D01*
X178464916Y-56348634D01*
X178512535Y-56443872D01*
X179226820Y-54920062D02*
X179226820Y-55491491D01*
X179226820Y-55205777D02*
X178226820Y-55205777D01*
X178369678Y-55301015D01*
X178464916Y-55396253D01*
X178512535Y-55491491D01*
X159740380Y-49817133D02*
X160454666Y-49817133D01*
X160597523Y-49864752D01*
X160692761Y-49959990D01*
X160740380Y-50102847D01*
X160740380Y-50198085D01*
X160740380Y-49340942D02*
X159740380Y-49340942D01*
X159740380Y-48959990D01*
X159788000Y-48864752D01*
X159835619Y-48817133D01*
X159930857Y-48769514D01*
X160073714Y-48769514D01*
X160168952Y-48817133D01*
X160216571Y-48864752D01*
X160264190Y-48959990D01*
X160264190Y-49340942D01*
X159740380Y-48436180D02*
X159740380Y-47817133D01*
X160121333Y-48150466D01*
X160121333Y-48007609D01*
X160168952Y-47912371D01*
X160216571Y-47864752D01*
X160311809Y-47817133D01*
X160549904Y-47817133D01*
X160645142Y-47864752D01*
X160692761Y-47912371D01*
X160740380Y-48007609D01*
X160740380Y-48293323D01*
X160692761Y-48388561D01*
X160645142Y-48436180D01*
X169304380Y-49817133D02*
X170018666Y-49817133D01*
X170161523Y-49864752D01*
X170256761Y-49959990D01*
X170304380Y-50102847D01*
X170304380Y-50198085D01*
X170304380Y-49340942D02*
X169304380Y-49340942D01*
X169304380Y-48959990D01*
X169352000Y-48864752D01*
X169399619Y-48817133D01*
X169494857Y-48769514D01*
X169637714Y-48769514D01*
X169732952Y-48817133D01*
X169780571Y-48864752D01*
X169828190Y-48959990D01*
X169828190Y-49340942D01*
X169304380Y-47864752D02*
X169304380Y-48340942D01*
X169780571Y-48388561D01*
X169732952Y-48340942D01*
X169685333Y-48245704D01*
X169685333Y-48007609D01*
X169732952Y-47912371D01*
X169780571Y-47864752D01*
X169875809Y-47817133D01*
X170113904Y-47817133D01*
X170209142Y-47864752D01*
X170256761Y-47912371D01*
X170304380Y-48007609D01*
X170304380Y-48245704D01*
X170256761Y-48340942D01*
X170209142Y-48388561D01*
X156201333Y-104020380D02*
X155868000Y-103544190D01*
X155629904Y-104020380D02*
X155629904Y-103020380D01*
X156010857Y-103020380D01*
X156106095Y-103068000D01*
X156153714Y-103115619D01*
X156201333Y-103210857D01*
X156201333Y-103353714D01*
X156153714Y-103448952D01*
X156106095Y-103496571D01*
X156010857Y-103544190D01*
X155629904Y-103544190D01*
X157106095Y-103020380D02*
X156629904Y-103020380D01*
X156582285Y-103496571D01*
X156629904Y-103448952D01*
X156725142Y-103401333D01*
X156963238Y-103401333D01*
X157058476Y-103448952D01*
X157106095Y-103496571D01*
X157153714Y-103591809D01*
X157153714Y-103829904D01*
X157106095Y-103925142D01*
X157058476Y-103972761D01*
X156963238Y-104020380D01*
X156725142Y-104020380D01*
X156629904Y-103972761D01*
X156582285Y-103925142D01*
X163247333Y-58031580D02*
X162914000Y-57555390D01*
X162675904Y-58031580D02*
X162675904Y-57031580D01*
X163056857Y-57031580D01*
X163152095Y-57079200D01*
X163199714Y-57126819D01*
X163247333Y-57222057D01*
X163247333Y-57364914D01*
X163199714Y-57460152D01*
X163152095Y-57507771D01*
X163056857Y-57555390D01*
X162675904Y-57555390D01*
X164104476Y-57031580D02*
X163914000Y-57031580D01*
X163818761Y-57079200D01*
X163771142Y-57126819D01*
X163675904Y-57269676D01*
X163628285Y-57460152D01*
X163628285Y-57841104D01*
X163675904Y-57936342D01*
X163723523Y-57983961D01*
X163818761Y-58031580D01*
X164009238Y-58031580D01*
X164104476Y-57983961D01*
X164152095Y-57936342D01*
X164199714Y-57841104D01*
X164199714Y-57603009D01*
X164152095Y-57507771D01*
X164104476Y-57460152D01*
X164009238Y-57412533D01*
X163818761Y-57412533D01*
X163723523Y-57460152D01*
X163675904Y-57507771D01*
X163628285Y-57603009D01*
X155552142Y-99088180D02*
X155218809Y-98611990D01*
X154980714Y-99088180D02*
X154980714Y-98088180D01*
X155361666Y-98088180D01*
X155456904Y-98135800D01*
X155504523Y-98183419D01*
X155552142Y-98278657D01*
X155552142Y-98421514D01*
X155504523Y-98516752D01*
X155456904Y-98564371D01*
X155361666Y-98611990D01*
X154980714Y-98611990D01*
X156504523Y-99088180D02*
X155933095Y-99088180D01*
X156218809Y-99088180D02*
X156218809Y-98088180D01*
X156123571Y-98231038D01*
X156028333Y-98326276D01*
X155933095Y-98373895D01*
X156885476Y-98183419D02*
X156933095Y-98135800D01*
X157028333Y-98088180D01*
X157266428Y-98088180D01*
X157361666Y-98135800D01*
X157409285Y-98183419D01*
X157456904Y-98278657D01*
X157456904Y-98373895D01*
X157409285Y-98516752D01*
X156837857Y-99088180D01*
X157456904Y-99088180D01*
X163152142Y-63274180D02*
X162818809Y-62797990D01*
X162580714Y-63274180D02*
X162580714Y-62274180D01*
X162961666Y-62274180D01*
X163056904Y-62321800D01*
X163104523Y-62369419D01*
X163152142Y-62464657D01*
X163152142Y-62607514D01*
X163104523Y-62702752D01*
X163056904Y-62750371D01*
X162961666Y-62797990D01*
X162580714Y-62797990D01*
X164104523Y-63274180D02*
X163533095Y-63274180D01*
X163818809Y-63274180D02*
X163818809Y-62274180D01*
X163723571Y-62417038D01*
X163628333Y-62512276D01*
X163533095Y-62559895D01*
X164437857Y-62274180D02*
X165056904Y-62274180D01*
X164723571Y-62655133D01*
X164866428Y-62655133D01*
X164961666Y-62702752D01*
X165009285Y-62750371D01*
X165056904Y-62845609D01*
X165056904Y-63083704D01*
X165009285Y-63178942D01*
X164961666Y-63226561D01*
X164866428Y-63274180D01*
X164580714Y-63274180D01*
X164485476Y-63226561D01*
X164437857Y-63178942D01*
X59358233Y-51379380D02*
X59024900Y-50903190D01*
X58786804Y-51379380D02*
X58786804Y-50379380D01*
X59167757Y-50379380D01*
X59262995Y-50427000D01*
X59310614Y-50474619D01*
X59358233Y-50569857D01*
X59358233Y-50712714D01*
X59310614Y-50807952D01*
X59262995Y-50855571D01*
X59167757Y-50903190D01*
X58786804Y-50903190D01*
X60310614Y-51379380D02*
X59739185Y-51379380D01*
X60024900Y-51379380D02*
X60024900Y-50379380D01*
X59929661Y-50522238D01*
X59834423Y-50617476D01*
X59739185Y-50665095D01*
X59449733Y-37863980D02*
X59116400Y-37387790D01*
X58878304Y-37863980D02*
X58878304Y-36863980D01*
X59259257Y-36863980D01*
X59354495Y-36911600D01*
X59402114Y-36959219D01*
X59449733Y-37054457D01*
X59449733Y-37197314D01*
X59402114Y-37292552D01*
X59354495Y-37340171D01*
X59259257Y-37387790D01*
X58878304Y-37387790D01*
X59783066Y-36863980D02*
X60402114Y-36863980D01*
X60068780Y-37244933D01*
X60211638Y-37244933D01*
X60306876Y-37292552D01*
X60354495Y-37340171D01*
X60402114Y-37435409D01*
X60402114Y-37673504D01*
X60354495Y-37768742D01*
X60306876Y-37816361D01*
X60211638Y-37863980D01*
X59925923Y-37863980D01*
X59830685Y-37816361D01*
X59783066Y-37768742D01*
X50148280Y-60584004D02*
X50957804Y-60584004D01*
X51053042Y-60536385D01*
X51100661Y-60488766D01*
X51148280Y-60393528D01*
X51148280Y-60203052D01*
X51100661Y-60107814D01*
X51053042Y-60060195D01*
X50957804Y-60012576D01*
X50148280Y-60012576D01*
X50243519Y-59584004D02*
X50195900Y-59536385D01*
X50148280Y-59441147D01*
X50148280Y-59203052D01*
X50195900Y-59107814D01*
X50243519Y-59060195D01*
X50338757Y-59012576D01*
X50433995Y-59012576D01*
X50576852Y-59060195D01*
X51148280Y-59631623D01*
X51148280Y-59012576D01*
X41472566Y-58004480D02*
X42139233Y-59004480D01*
X42139233Y-58004480D02*
X41472566Y-59004480D01*
X48155900Y-64878290D02*
X48155900Y-65354480D01*
X47822566Y-64354480D02*
X48155900Y-64878290D01*
X48489233Y-64354480D01*
D15*
X66920066Y-50818280D02*
X66920066Y-51532566D01*
X66872447Y-51675423D01*
X66777209Y-51770661D01*
X66634352Y-51818280D01*
X66539114Y-51818280D01*
X67301019Y-50818280D02*
X67920066Y-50818280D01*
X67586733Y-51199233D01*
X67729590Y-51199233D01*
X67824828Y-51246852D01*
X67872447Y-51294471D01*
X67920066Y-51389709D01*
X67920066Y-51627804D01*
X67872447Y-51723042D01*
X67824828Y-51770661D01*
X67729590Y-51818280D01*
X67443876Y-51818280D01*
X67348638Y-51770661D01*
X67301019Y-51723042D01*
D12*
X38852380Y-98529523D02*
X39566666Y-98529523D01*
X39709523Y-98577142D01*
X39804761Y-98672380D01*
X39852380Y-98815238D01*
X39852380Y-98910476D01*
X39852380Y-97529523D02*
X39852380Y-98100952D01*
X39852380Y-97815238D02*
X38852380Y-97815238D01*
X38995238Y-97910476D01*
X39090476Y-98005714D01*
X39138095Y-98100952D01*
X38852380Y-96672380D02*
X38852380Y-96862857D01*
X38900000Y-96958095D01*
X38947619Y-97005714D01*
X39090476Y-97100952D01*
X39280952Y-97148571D01*
X39661904Y-97148571D01*
X39757142Y-97100952D01*
X39804761Y-97053333D01*
X39852380Y-96958095D01*
X39852380Y-96767619D01*
X39804761Y-96672380D01*
X39757142Y-96624761D01*
X39661904Y-96577142D01*
X39423809Y-96577142D01*
X39328571Y-96624761D01*
X39280952Y-96672380D01*
X39233333Y-96767619D01*
X39233333Y-96958095D01*
X39280952Y-97053333D01*
X39328571Y-97100952D01*
X39423809Y-97148571D01*
X113242971Y-73465314D02*
X113290590Y-73322457D01*
X113338209Y-73274838D01*
X113433447Y-73227219D01*
X113576304Y-73227219D01*
X113671542Y-73274838D01*
X113719161Y-73322457D01*
X113766780Y-73417695D01*
X113766780Y-73798647D01*
X112766780Y-73798647D01*
X112766780Y-73465314D01*
X112814400Y-73370076D01*
X112862019Y-73322457D01*
X112957257Y-73274838D01*
X113052495Y-73274838D01*
X113147733Y-73322457D01*
X113195352Y-73370076D01*
X113242971Y-73465314D01*
X113242971Y-73798647D01*
X112766780Y-72941504D02*
X112766780Y-72370076D01*
X113766780Y-72655790D02*
X112766780Y-72655790D01*
X113766780Y-71512933D02*
X113766780Y-72084361D01*
X113766780Y-71798647D02*
X112766780Y-71798647D01*
X112909638Y-71893885D01*
X113004876Y-71989123D01*
X113052495Y-72084361D01*
X111745142Y-82699828D02*
X111745142Y-81556971D01*
X112316571Y-82128400D02*
X111173714Y-82128400D01*
X38942380Y-83019523D02*
X39656666Y-83019523D01*
X39799523Y-83067142D01*
X39894761Y-83162380D01*
X39942380Y-83305238D01*
X39942380Y-83400476D01*
X39942380Y-82019523D02*
X39942380Y-82590952D01*
X39942380Y-82305238D02*
X38942380Y-82305238D01*
X39085238Y-82400476D01*
X39180476Y-82495714D01*
X39228095Y-82590952D01*
X38942380Y-81686190D02*
X38942380Y-81019523D01*
X39942380Y-81448095D01*
X64029016Y-132398800D02*
X64029016Y-133113086D01*
X63981397Y-133255943D01*
X63886159Y-133351181D01*
X63743301Y-133398800D01*
X63648063Y-133398800D01*
X64457587Y-132494039D02*
X64505206Y-132446420D01*
X64600444Y-132398800D01*
X64838540Y-132398800D01*
X64933778Y-132446420D01*
X64981397Y-132494039D01*
X65029016Y-132589277D01*
X65029016Y-132684515D01*
X64981397Y-132827372D01*
X64409968Y-133398800D01*
X65029016Y-133398800D01*
X65648063Y-132398800D02*
X65743301Y-132398800D01*
X65838540Y-132446420D01*
X65886159Y-132494039D01*
X65933778Y-132589277D01*
X65981397Y-132779753D01*
X65981397Y-133017848D01*
X65933778Y-133208324D01*
X65886159Y-133303562D01*
X65838540Y-133351181D01*
X65743301Y-133398800D01*
X65648063Y-133398800D01*
X65552825Y-133351181D01*
X65505206Y-133303562D01*
X65457587Y-133208324D01*
X65409968Y-133017848D01*
X65409968Y-132779753D01*
X65457587Y-132589277D01*
X65505206Y-132494039D01*
X65552825Y-132446420D01*
X65648063Y-132398800D01*
X88359940Y-58617903D02*
X89074226Y-58617903D01*
X89217083Y-58665522D01*
X89312321Y-58760760D01*
X89359940Y-58903618D01*
X89359940Y-58998856D01*
X88455179Y-58189332D02*
X88407560Y-58141713D01*
X88359940Y-58046475D01*
X88359940Y-57808380D01*
X88407560Y-57713141D01*
X88455179Y-57665522D01*
X88550417Y-57617903D01*
X88645655Y-57617903D01*
X88788512Y-57665522D01*
X89359940Y-58236951D01*
X89359940Y-57617903D01*
X89359940Y-56665522D02*
X89359940Y-57236951D01*
X89359940Y-56951237D02*
X88359940Y-56951237D01*
X88502798Y-57046475D01*
X88598036Y-57141713D01*
X88645655Y-57236951D01*
X135775296Y-89295100D02*
X135775296Y-90009386D01*
X135727677Y-90152243D01*
X135632439Y-90247481D01*
X135489581Y-90295100D01*
X135394343Y-90295100D01*
X136775296Y-90295100D02*
X136203867Y-90295100D01*
X136489581Y-90295100D02*
X136489581Y-89295100D01*
X136394343Y-89437958D01*
X136299105Y-89533196D01*
X136203867Y-89580815D01*
X137346724Y-89723672D02*
X137251486Y-89676053D01*
X137203867Y-89628434D01*
X137156248Y-89533196D01*
X137156248Y-89485577D01*
X137203867Y-89390339D01*
X137251486Y-89342720D01*
X137346724Y-89295100D01*
X137537200Y-89295100D01*
X137632439Y-89342720D01*
X137680058Y-89390339D01*
X137727677Y-89485577D01*
X137727677Y-89533196D01*
X137680058Y-89628434D01*
X137632439Y-89676053D01*
X137537200Y-89723672D01*
X137346724Y-89723672D01*
X137251486Y-89771291D01*
X137203867Y-89818910D01*
X137156248Y-89914148D01*
X137156248Y-90104624D01*
X137203867Y-90199862D01*
X137251486Y-90247481D01*
X137346724Y-90295100D01*
X137537200Y-90295100D01*
X137632439Y-90247481D01*
X137680058Y-90199862D01*
X137727677Y-90104624D01*
X137727677Y-89914148D01*
X137680058Y-89818910D01*
X137632439Y-89771291D01*
X137537200Y-89723672D01*
X150470476Y-89392380D02*
X150470476Y-90106666D01*
X150422857Y-90249523D01*
X150327619Y-90344761D01*
X150184761Y-90392380D01*
X150089523Y-90392380D01*
X150899047Y-89487619D02*
X150946666Y-89440000D01*
X151041904Y-89392380D01*
X151280000Y-89392380D01*
X151375238Y-89440000D01*
X151422857Y-89487619D01*
X151470476Y-89582857D01*
X151470476Y-89678095D01*
X151422857Y-89820952D01*
X150851428Y-90392380D01*
X151470476Y-90392380D01*
X151851428Y-89487619D02*
X151899047Y-89440000D01*
X151994285Y-89392380D01*
X152232380Y-89392380D01*
X152327619Y-89440000D01*
X152375238Y-89487619D01*
X152422857Y-89582857D01*
X152422857Y-89678095D01*
X152375238Y-89820952D01*
X151803809Y-90392380D01*
X152422857Y-90392380D01*
X124897596Y-131349240D02*
X124897596Y-132063526D01*
X124849977Y-132206383D01*
X124754739Y-132301621D01*
X124611881Y-132349240D01*
X124516643Y-132349240D01*
X125326167Y-131444479D02*
X125373786Y-131396860D01*
X125469024Y-131349240D01*
X125707120Y-131349240D01*
X125802358Y-131396860D01*
X125849977Y-131444479D01*
X125897596Y-131539717D01*
X125897596Y-131634955D01*
X125849977Y-131777812D01*
X125278548Y-132349240D01*
X125897596Y-132349240D01*
X126230929Y-131349240D02*
X126849977Y-131349240D01*
X126516643Y-131730193D01*
X126659500Y-131730193D01*
X126754739Y-131777812D01*
X126802358Y-131825431D01*
X126849977Y-131920669D01*
X126849977Y-132158764D01*
X126802358Y-132254002D01*
X126754739Y-132301621D01*
X126659500Y-132349240D01*
X126373786Y-132349240D01*
X126278548Y-132301621D01*
X126230929Y-132254002D01*
X125032216Y-121237500D02*
X125032216Y-121951786D01*
X124984597Y-122094643D01*
X124889359Y-122189881D01*
X124746501Y-122237500D01*
X124651263Y-122237500D01*
X125460787Y-121332739D02*
X125508406Y-121285120D01*
X125603644Y-121237500D01*
X125841740Y-121237500D01*
X125936978Y-121285120D01*
X125984597Y-121332739D01*
X126032216Y-121427977D01*
X126032216Y-121523215D01*
X125984597Y-121666072D01*
X125413168Y-122237500D01*
X126032216Y-122237500D01*
X126889359Y-121570834D02*
X126889359Y-122237500D01*
X126651263Y-121189881D02*
X126413168Y-121904167D01*
X127032216Y-121904167D01*
X140380476Y-131302380D02*
X140380476Y-132016666D01*
X140332857Y-132159523D01*
X140237619Y-132254761D01*
X140094761Y-132302380D01*
X139999523Y-132302380D01*
X140809047Y-131397619D02*
X140856666Y-131350000D01*
X140951904Y-131302380D01*
X141190000Y-131302380D01*
X141285238Y-131350000D01*
X141332857Y-131397619D01*
X141380476Y-131492857D01*
X141380476Y-131588095D01*
X141332857Y-131730952D01*
X140761428Y-132302380D01*
X141380476Y-132302380D01*
X142237619Y-131302380D02*
X142047142Y-131302380D01*
X141951904Y-131350000D01*
X141904285Y-131397619D01*
X141809047Y-131540476D01*
X141761428Y-131730952D01*
X141761428Y-132111904D01*
X141809047Y-132207142D01*
X141856666Y-132254761D01*
X141951904Y-132302380D01*
X142142380Y-132302380D01*
X142237619Y-132254761D01*
X142285238Y-132207142D01*
X142332857Y-132111904D01*
X142332857Y-131873809D01*
X142285238Y-131778571D01*
X142237619Y-131730952D01*
X142142380Y-131683333D01*
X141951904Y-131683333D01*
X141856666Y-131730952D01*
X141809047Y-131778571D01*
X141761428Y-131873809D01*
X131727142Y-121022380D02*
X131393809Y-120546190D01*
X131155714Y-121022380D02*
X131155714Y-120022380D01*
X131536666Y-120022380D01*
X131631904Y-120070000D01*
X131679523Y-120117619D01*
X131727142Y-120212857D01*
X131727142Y-120355714D01*
X131679523Y-120450952D01*
X131631904Y-120498571D01*
X131536666Y-120546190D01*
X131155714Y-120546190D01*
X132679523Y-121022380D02*
X132108095Y-121022380D01*
X132393809Y-121022380D02*
X132393809Y-120022380D01*
X132298571Y-120165238D01*
X132203333Y-120260476D01*
X132108095Y-120308095D01*
X133536666Y-120355714D02*
X133536666Y-121022380D01*
X133298571Y-119974761D02*
X133060476Y-120689047D01*
X133679523Y-120689047D01*
X137967142Y-121082380D02*
X137633809Y-120606190D01*
X137395714Y-121082380D02*
X137395714Y-120082380D01*
X137776666Y-120082380D01*
X137871904Y-120130000D01*
X137919523Y-120177619D01*
X137967142Y-120272857D01*
X137967142Y-120415714D01*
X137919523Y-120510952D01*
X137871904Y-120558571D01*
X137776666Y-120606190D01*
X137395714Y-120606190D01*
X138919523Y-121082380D02*
X138348095Y-121082380D01*
X138633809Y-121082380D02*
X138633809Y-120082380D01*
X138538571Y-120225238D01*
X138443333Y-120320476D01*
X138348095Y-120368095D01*
X139824285Y-120082380D02*
X139348095Y-120082380D01*
X139300476Y-120558571D01*
X139348095Y-120510952D01*
X139443333Y-120463333D01*
X139681428Y-120463333D01*
X139776666Y-120510952D01*
X139824285Y-120558571D01*
X139871904Y-120653809D01*
X139871904Y-120891904D01*
X139824285Y-120987142D01*
X139776666Y-121034761D01*
X139681428Y-121082380D01*
X139443333Y-121082380D01*
X139348095Y-121034761D01*
X139300476Y-120987142D01*
X92158895Y-78297380D02*
X92158895Y-79106904D01*
X92206514Y-79202142D01*
X92254133Y-79249761D01*
X92349371Y-79297380D01*
X92539847Y-79297380D01*
X92635085Y-79249761D01*
X92682704Y-79202142D01*
X92730323Y-79106904D01*
X92730323Y-78297380D01*
X93635085Y-78630714D02*
X93635085Y-79297380D01*
X93396990Y-78249761D02*
X93158895Y-78964047D01*
X93777942Y-78964047D01*
X148956476Y-111266380D02*
X148956476Y-111980666D01*
X148908857Y-112123523D01*
X148813619Y-112218761D01*
X148670761Y-112266380D01*
X148575523Y-112266380D01*
X149385047Y-111361619D02*
X149432666Y-111314000D01*
X149527904Y-111266380D01*
X149766000Y-111266380D01*
X149861238Y-111314000D01*
X149908857Y-111361619D01*
X149956476Y-111456857D01*
X149956476Y-111552095D01*
X149908857Y-111694952D01*
X149337428Y-112266380D01*
X149956476Y-112266380D01*
X150289809Y-111266380D02*
X150956476Y-111266380D01*
X150527904Y-112266380D01*
X123818096Y-111260380D02*
X123818096Y-111974666D01*
X123770477Y-112117523D01*
X123675239Y-112212761D01*
X123532381Y-112260380D01*
X123437143Y-112260380D01*
X124246667Y-111355619D02*
X124294286Y-111308000D01*
X124389524Y-111260380D01*
X124627620Y-111260380D01*
X124722858Y-111308000D01*
X124770477Y-111355619D01*
X124818096Y-111450857D01*
X124818096Y-111546095D01*
X124770477Y-111688952D01*
X124199048Y-112260380D01*
X124818096Y-112260380D01*
X125389524Y-111688952D02*
X125294286Y-111641333D01*
X125246667Y-111593714D01*
X125199048Y-111498476D01*
X125199048Y-111450857D01*
X125246667Y-111355619D01*
X125294286Y-111308000D01*
X125389524Y-111260380D01*
X125580000Y-111260380D01*
X125675239Y-111308000D01*
X125722858Y-111355619D01*
X125770477Y-111450857D01*
X125770477Y-111498476D01*
X125722858Y-111593714D01*
X125675239Y-111641333D01*
X125580000Y-111688952D01*
X125389524Y-111688952D01*
X125294286Y-111736571D01*
X125246667Y-111784190D01*
X125199048Y-111879428D01*
X125199048Y-112069904D01*
X125246667Y-112165142D01*
X125294286Y-112212761D01*
X125389524Y-112260380D01*
X125580000Y-112260380D01*
X125675239Y-112212761D01*
X125722858Y-112165142D01*
X125770477Y-112069904D01*
X125770477Y-111879428D01*
X125722858Y-111784190D01*
X125675239Y-111736571D01*
X125580000Y-111688952D01*
X154810476Y-131362380D02*
X154810476Y-132076666D01*
X154762857Y-132219523D01*
X154667619Y-132314761D01*
X154524761Y-132362380D01*
X154429523Y-132362380D01*
X155191428Y-131362380D02*
X155810476Y-131362380D01*
X155477142Y-131743333D01*
X155620000Y-131743333D01*
X155715238Y-131790952D01*
X155762857Y-131838571D01*
X155810476Y-131933809D01*
X155810476Y-132171904D01*
X155762857Y-132267142D01*
X155715238Y-132314761D01*
X155620000Y-132362380D01*
X155334285Y-132362380D01*
X155239047Y-132314761D01*
X155191428Y-132267142D01*
X156191428Y-131457619D02*
X156239047Y-131410000D01*
X156334285Y-131362380D01*
X156572380Y-131362380D01*
X156667619Y-131410000D01*
X156715238Y-131457619D01*
X156762857Y-131552857D01*
X156762857Y-131648095D01*
X156715238Y-131790952D01*
X156143809Y-132362380D01*
X156762857Y-132362380D01*
X141750496Y-111260380D02*
X141750496Y-111974666D01*
X141702877Y-112117523D01*
X141607639Y-112212761D01*
X141464781Y-112260380D01*
X141369543Y-112260380D01*
X142131448Y-111260380D02*
X142750496Y-111260380D01*
X142417162Y-111641333D01*
X142560020Y-111641333D01*
X142655258Y-111688952D01*
X142702877Y-111736571D01*
X142750496Y-111831809D01*
X142750496Y-112069904D01*
X142702877Y-112165142D01*
X142655258Y-112212761D01*
X142560020Y-112260380D01*
X142274305Y-112260380D01*
X142179067Y-112212761D01*
X142131448Y-112165142D01*
X143083829Y-111260380D02*
X143702877Y-111260380D01*
X143369543Y-111641333D01*
X143512400Y-111641333D01*
X143607639Y-111688952D01*
X143655258Y-111736571D01*
X143702877Y-111831809D01*
X143702877Y-112069904D01*
X143655258Y-112165142D01*
X143607639Y-112212761D01*
X143512400Y-112260380D01*
X143226686Y-112260380D01*
X143131448Y-112212761D01*
X143083829Y-112165142D01*
X160967142Y-122090380D02*
X160633809Y-121614190D01*
X160395714Y-122090380D02*
X160395714Y-121090380D01*
X160776666Y-121090380D01*
X160871904Y-121138000D01*
X160919523Y-121185619D01*
X160967142Y-121280857D01*
X160967142Y-121423714D01*
X160919523Y-121518952D01*
X160871904Y-121566571D01*
X160776666Y-121614190D01*
X160395714Y-121614190D01*
X161919523Y-122090380D02*
X161348095Y-122090380D01*
X161633809Y-122090380D02*
X161633809Y-121090380D01*
X161538571Y-121233238D01*
X161443333Y-121328476D01*
X161348095Y-121376095D01*
X162776666Y-121090380D02*
X162586190Y-121090380D01*
X162490952Y-121138000D01*
X162443333Y-121185619D01*
X162348095Y-121328476D01*
X162300476Y-121518952D01*
X162300476Y-121899904D01*
X162348095Y-121995142D01*
X162395714Y-122042761D01*
X162490952Y-122090380D01*
X162681428Y-122090380D01*
X162776666Y-122042761D01*
X162824285Y-121995142D01*
X162871904Y-121899904D01*
X162871904Y-121661809D01*
X162824285Y-121566571D01*
X162776666Y-121518952D01*
X162681428Y-121471333D01*
X162490952Y-121471333D01*
X162395714Y-121518952D01*
X162348095Y-121566571D01*
X162300476Y-121661809D01*
X167485142Y-122090380D02*
X167151809Y-121614190D01*
X166913714Y-122090380D02*
X166913714Y-121090380D01*
X167294666Y-121090380D01*
X167389904Y-121138000D01*
X167437523Y-121185619D01*
X167485142Y-121280857D01*
X167485142Y-121423714D01*
X167437523Y-121518952D01*
X167389904Y-121566571D01*
X167294666Y-121614190D01*
X166913714Y-121614190D01*
X168437523Y-122090380D02*
X167866095Y-122090380D01*
X168151809Y-122090380D02*
X168151809Y-121090380D01*
X168056571Y-121233238D01*
X167961333Y-121328476D01*
X167866095Y-121376095D01*
X168770857Y-121090380D02*
X169437523Y-121090380D01*
X169008952Y-122090380D01*
X160967142Y-128382380D02*
X160633809Y-127906190D01*
X160395714Y-128382380D02*
X160395714Y-127382380D01*
X160776666Y-127382380D01*
X160871904Y-127430000D01*
X160919523Y-127477619D01*
X160967142Y-127572857D01*
X160967142Y-127715714D01*
X160919523Y-127810952D01*
X160871904Y-127858571D01*
X160776666Y-127906190D01*
X160395714Y-127906190D01*
X161919523Y-128382380D02*
X161348095Y-128382380D01*
X161633809Y-128382380D02*
X161633809Y-127382380D01*
X161538571Y-127525238D01*
X161443333Y-127620476D01*
X161348095Y-127668095D01*
X162490952Y-127810952D02*
X162395714Y-127763333D01*
X162348095Y-127715714D01*
X162300476Y-127620476D01*
X162300476Y-127572857D01*
X162348095Y-127477619D01*
X162395714Y-127430000D01*
X162490952Y-127382380D01*
X162681428Y-127382380D01*
X162776666Y-127430000D01*
X162824285Y-127477619D01*
X162871904Y-127572857D01*
X162871904Y-127620476D01*
X162824285Y-127715714D01*
X162776666Y-127763333D01*
X162681428Y-127810952D01*
X162490952Y-127810952D01*
X162395714Y-127858571D01*
X162348095Y-127906190D01*
X162300476Y-128001428D01*
X162300476Y-128191904D01*
X162348095Y-128287142D01*
X162395714Y-128334761D01*
X162490952Y-128382380D01*
X162681428Y-128382380D01*
X162776666Y-128334761D01*
X162824285Y-128287142D01*
X162871904Y-128191904D01*
X162871904Y-128001428D01*
X162824285Y-127906190D01*
X162776666Y-127858571D01*
X162681428Y-127810952D01*
X167485142Y-128382380D02*
X167151809Y-127906190D01*
X166913714Y-128382380D02*
X166913714Y-127382380D01*
X167294666Y-127382380D01*
X167389904Y-127430000D01*
X167437523Y-127477619D01*
X167485142Y-127572857D01*
X167485142Y-127715714D01*
X167437523Y-127810952D01*
X167389904Y-127858571D01*
X167294666Y-127906190D01*
X166913714Y-127906190D01*
X168437523Y-128382380D02*
X167866095Y-128382380D01*
X168151809Y-128382380D02*
X168151809Y-127382380D01*
X168056571Y-127525238D01*
X167961333Y-127620476D01*
X167866095Y-127668095D01*
X168913714Y-128382380D02*
X169104190Y-128382380D01*
X169199428Y-128334761D01*
X169247047Y-128287142D01*
X169342285Y-128144285D01*
X169389904Y-127953809D01*
X169389904Y-127572857D01*
X169342285Y-127477619D01*
X169294666Y-127430000D01*
X169199428Y-127382380D01*
X169008952Y-127382380D01*
X168913714Y-127430000D01*
X168866095Y-127477619D01*
X168818476Y-127572857D01*
X168818476Y-127810952D01*
X168866095Y-127906190D01*
X168913714Y-127953809D01*
X169008952Y-128001428D01*
X169199428Y-128001428D01*
X169294666Y-127953809D01*
X169342285Y-127906190D01*
X169389904Y-127810952D01*
X38774120Y-112279823D02*
X39488406Y-112279823D01*
X39631263Y-112327442D01*
X39726501Y-112422680D01*
X39774120Y-112565538D01*
X39774120Y-112660776D01*
X38774120Y-111898871D02*
X38774120Y-111279823D01*
X39155073Y-111613157D01*
X39155073Y-111470300D01*
X39202692Y-111375061D01*
X39250311Y-111327442D01*
X39345549Y-111279823D01*
X39583644Y-111279823D01*
X39678882Y-111327442D01*
X39726501Y-111375061D01*
X39774120Y-111470300D01*
X39774120Y-111756014D01*
X39726501Y-111851252D01*
X39678882Y-111898871D01*
X39107454Y-110422680D02*
X39774120Y-110422680D01*
X38726501Y-110660776D02*
X39440787Y-110898871D01*
X39440787Y-110279823D01*
D11*
X104375000Y-46380000D02*
X104375000Y-40380000D01*
X102125000Y-37080000D02*
X102125000Y-37830000D01*
X102125000Y-37830000D02*
X99175000Y-37830000D01*
X99175000Y-37830000D02*
X99175000Y-43380000D01*
X104375000Y-47880000D02*
X103625000Y-47880000D01*
X104385000Y-49690000D02*
X104385000Y-37070000D01*
X98415000Y-37070000D02*
X98415000Y-49690000D01*
X104675000Y-38030000D02*
X104675000Y-36780000D01*
X99175000Y-48930000D02*
X99175000Y-43380000D01*
X104375000Y-49680000D02*
X104375000Y-47880000D01*
X103625000Y-47880000D02*
X103625000Y-49680000D01*
X104375000Y-40380000D02*
X103625000Y-40380000D01*
X102125000Y-49680000D02*
X102125000Y-48930000D01*
X102125000Y-48930000D02*
X99175000Y-48930000D01*
X98415000Y-49690000D02*
X104385000Y-49690000D01*
X103625000Y-40380000D02*
X103625000Y-46380000D01*
X103625000Y-37080000D02*
X103625000Y-38880000D01*
X104375000Y-38880000D02*
X104375000Y-37080000D01*
X104375000Y-37080000D02*
X103625000Y-37080000D01*
X104675000Y-36780000D02*
X103425000Y-36780000D01*
X104385000Y-37070000D02*
X98415000Y-37070000D01*
X103625000Y-49680000D02*
X104375000Y-49680000D01*
X103625000Y-46380000D02*
X104375000Y-46380000D01*
X103625000Y-38880000D02*
X104375000Y-38880000D01*
X78895000Y-37150000D02*
X78895000Y-49770000D01*
X78895000Y-49770000D02*
X84865000Y-49770000D01*
X84105000Y-47960000D02*
X84105000Y-49760000D01*
X84105000Y-46460000D02*
X84855000Y-46460000D01*
X84855000Y-40460000D02*
X84105000Y-40460000D01*
X84105000Y-40460000D02*
X84105000Y-46460000D01*
X85155000Y-38110000D02*
X85155000Y-36860000D01*
X82605000Y-37160000D02*
X82605000Y-37910000D01*
X84865000Y-49770000D02*
X84865000Y-37150000D01*
X82605000Y-49010000D02*
X79655000Y-49010000D01*
X82605000Y-49760000D02*
X82605000Y-49010000D01*
X84855000Y-49760000D02*
X84855000Y-47960000D01*
X84105000Y-49760000D02*
X84855000Y-49760000D01*
X84865000Y-37150000D02*
X78895000Y-37150000D01*
X84855000Y-47960000D02*
X84105000Y-47960000D01*
X84855000Y-38960000D02*
X84855000Y-37160000D01*
X84855000Y-46460000D02*
X84855000Y-40460000D01*
X82605000Y-37910000D02*
X79655000Y-37910000D01*
X84105000Y-38960000D02*
X84855000Y-38960000D01*
X85155000Y-36860000D02*
X83905000Y-36860000D01*
X84855000Y-37160000D02*
X84105000Y-37160000D01*
X84105000Y-37160000D02*
X84105000Y-38960000D01*
X79655000Y-37910000D02*
X79655000Y-43460000D01*
X79655000Y-49010000D02*
X79655000Y-43460000D01*
X148496000Y-43377300D02*
X148496000Y-42127300D01*
X136346000Y-40827300D02*
X136346000Y-37877300D01*
X148196000Y-43077300D02*
X148196000Y-42327300D01*
X146396000Y-43077300D02*
X148196000Y-43077300D01*
X148196000Y-42327300D02*
X146396000Y-42327300D01*
X135586000Y-43087300D02*
X148206000Y-43087300D01*
X137396000Y-43077300D02*
X137396000Y-42327300D01*
X147446000Y-37877300D02*
X141896000Y-37877300D01*
X137396000Y-42327300D02*
X135596000Y-42327300D01*
X135596000Y-40827300D02*
X136346000Y-40827300D01*
X135586000Y-37117300D02*
X135586000Y-43087300D01*
X136346000Y-37877300D02*
X141896000Y-37877300D01*
X147246000Y-43377300D02*
X148496000Y-43377300D01*
X144896000Y-43077300D02*
X144896000Y-42327300D01*
X138896000Y-43077300D02*
X144896000Y-43077300D01*
X138896000Y-42327300D02*
X138896000Y-43077300D01*
X144896000Y-42327300D02*
X138896000Y-42327300D01*
X148206000Y-37117300D02*
X135586000Y-37117300D01*
X148206000Y-43087300D02*
X148206000Y-37117300D01*
X135596000Y-42327300D02*
X135596000Y-43077300D01*
X135596000Y-43077300D02*
X137396000Y-43077300D01*
X146396000Y-42327300D02*
X146396000Y-43077300D01*
X147446000Y-40827300D02*
X147446000Y-37877300D01*
X148196000Y-40827300D02*
X147446000Y-40827300D01*
X151629000Y-40918700D02*
X152379000Y-40918700D01*
X160979000Y-37968700D02*
X156679000Y-37968700D01*
X161729000Y-43168700D02*
X161729000Y-42418700D01*
X154929000Y-43168700D02*
X158429000Y-43168700D01*
X158429000Y-43168700D02*
X158429000Y-42418700D01*
X153429000Y-43168700D02*
X153429000Y-42418700D01*
X159929000Y-43168700D02*
X161729000Y-43168700D01*
X160779000Y-43468700D02*
X162029000Y-43468700D01*
X153429000Y-42418700D02*
X151629000Y-42418700D01*
X161729000Y-42418700D02*
X159929000Y-42418700D01*
X151629000Y-42418700D02*
X151629000Y-43168700D01*
X152379000Y-37968700D02*
X156679000Y-37968700D01*
X160979000Y-40918700D02*
X160979000Y-37968700D01*
X161739000Y-43178700D02*
X161739000Y-37208700D01*
X151619000Y-37208700D02*
X151619000Y-43178700D01*
X161729000Y-40918700D02*
X160979000Y-40918700D01*
X151619000Y-43178700D02*
X161739000Y-43178700D01*
X158429000Y-42418700D02*
X154929000Y-42418700D01*
X151629000Y-43168700D02*
X153429000Y-43168700D01*
X161739000Y-37208700D02*
X151619000Y-37208700D01*
X162029000Y-43468700D02*
X162029000Y-42218700D01*
X159929000Y-42418700D02*
X159929000Y-43168700D01*
X152379000Y-40918700D02*
X152379000Y-37968700D01*
X154929000Y-42418700D02*
X154929000Y-43168700D01*
X115415000Y-37120000D02*
X115415000Y-38920000D01*
X116165000Y-46420000D02*
X116165000Y-40420000D01*
X116165000Y-49720000D02*
X116165000Y-47920000D01*
X116175000Y-37110000D02*
X110205000Y-37110000D01*
X110205000Y-49730000D02*
X116175000Y-49730000D01*
X116465000Y-38070000D02*
X116465000Y-36820000D01*
X116165000Y-40420000D02*
X115415000Y-40420000D01*
X113915000Y-37870000D02*
X110965000Y-37870000D01*
X110205000Y-37110000D02*
X110205000Y-49730000D01*
X116165000Y-47920000D02*
X115415000Y-47920000D01*
X116165000Y-37120000D02*
X115415000Y-37120000D01*
X115415000Y-40420000D02*
X115415000Y-46420000D01*
X113915000Y-37120000D02*
X113915000Y-37870000D01*
X115415000Y-38920000D02*
X116165000Y-38920000D01*
X110965000Y-37870000D02*
X110965000Y-43420000D01*
X110965000Y-48970000D02*
X110965000Y-43420000D01*
X116465000Y-36820000D02*
X115215000Y-36820000D01*
X116165000Y-38920000D02*
X116165000Y-37120000D01*
X115415000Y-47920000D02*
X115415000Y-49720000D01*
X113915000Y-49720000D02*
X113915000Y-48970000D01*
X113915000Y-48970000D02*
X110965000Y-48970000D01*
X116175000Y-49730000D02*
X116175000Y-37110000D01*
X115415000Y-46420000D02*
X116165000Y-46420000D01*
X115415000Y-49720000D02*
X116165000Y-49720000D01*
X127670000Y-40380000D02*
X126920000Y-40380000D01*
X127670000Y-38880000D02*
X127670000Y-37080000D01*
X126920000Y-46380000D02*
X127670000Y-46380000D01*
X126920000Y-40380000D02*
X126920000Y-46380000D01*
X126920000Y-38880000D02*
X127670000Y-38880000D01*
X127670000Y-49680000D02*
X127670000Y-47880000D01*
X126920000Y-47880000D02*
X126920000Y-49680000D01*
X126920000Y-49680000D02*
X127670000Y-49680000D01*
X125420000Y-49680000D02*
X125420000Y-48930000D01*
X121710000Y-49690000D02*
X127680000Y-49690000D01*
X126920000Y-37080000D02*
X126920000Y-38880000D01*
X121710000Y-37070000D02*
X121710000Y-49690000D01*
X122470000Y-37830000D02*
X122470000Y-43380000D01*
X125420000Y-37830000D02*
X122470000Y-37830000D01*
X125420000Y-48930000D02*
X122470000Y-48930000D01*
X127680000Y-37070000D02*
X121710000Y-37070000D01*
X127970000Y-38030000D02*
X127970000Y-36780000D01*
X127670000Y-37080000D02*
X126920000Y-37080000D01*
X127670000Y-47880000D02*
X126920000Y-47880000D01*
X122470000Y-48930000D02*
X122470000Y-43380000D01*
X127670000Y-46380000D02*
X127670000Y-40380000D01*
X127680000Y-49690000D02*
X127680000Y-37070000D01*
X125420000Y-37080000D02*
X125420000Y-37830000D01*
X127970000Y-36780000D02*
X126720000Y-36780000D01*
X133961000Y-58678100D02*
X137461000Y-58678100D01*
X140771000Y-52718100D02*
X130651000Y-52718100D01*
X140761000Y-57928100D02*
X138961000Y-57928100D01*
X140761000Y-56428100D02*
X140011000Y-56428100D01*
X140771000Y-58688100D02*
X140771000Y-52718100D01*
X139811000Y-58978100D02*
X141061000Y-58978100D01*
X137461000Y-58678100D02*
X137461000Y-57928100D01*
X132461000Y-58678100D02*
X132461000Y-57928100D01*
X130651000Y-58688100D02*
X140771000Y-58688100D01*
X133961000Y-57928100D02*
X133961000Y-58678100D01*
X138961000Y-58678100D02*
X140761000Y-58678100D01*
X140011000Y-53478100D02*
X135711000Y-53478100D01*
X140011000Y-56428100D02*
X140011000Y-53478100D01*
X137461000Y-57928100D02*
X133961000Y-57928100D01*
X130661000Y-56428100D02*
X131411000Y-56428100D01*
X132461000Y-57928100D02*
X130661000Y-57928100D01*
X130651000Y-52718100D02*
X130651000Y-58688100D01*
X131411000Y-53478100D02*
X135711000Y-53478100D01*
X131411000Y-56428100D02*
X131411000Y-53478100D01*
X130661000Y-57928100D02*
X130661000Y-58678100D01*
X140761000Y-58678100D02*
X140761000Y-57928100D01*
X138961000Y-57928100D02*
X138961000Y-58678100D01*
X141061000Y-58978100D02*
X141061000Y-57728100D01*
X130661000Y-58678100D02*
X132461000Y-58678100D01*
X41464800Y-123323000D02*
X40714800Y-123323000D01*
X41464800Y-125123000D02*
X41464800Y-123323000D01*
X45914800Y-124373000D02*
X45914800Y-121323000D01*
X40714800Y-119323000D02*
X41464800Y-119323000D01*
X42964800Y-125123000D02*
X42964800Y-124373000D01*
X41464800Y-121823000D02*
X41464800Y-120823000D01*
X42964800Y-117523000D02*
X42964800Y-118273000D01*
X41464800Y-119323000D02*
X41464800Y-117523000D01*
X40714800Y-123323000D02*
X40714800Y-125123000D01*
X41464800Y-120823000D02*
X40714800Y-120823000D01*
X40414800Y-125423000D02*
X41664800Y-125423000D01*
X46674800Y-125133000D02*
X46674800Y-117513000D01*
X40714800Y-125123000D02*
X41464800Y-125123000D01*
X46674800Y-117513000D02*
X40704800Y-117513000D01*
X40704800Y-117513000D02*
X40704800Y-125133000D01*
X40414800Y-124173000D02*
X40414800Y-125423000D01*
X40714800Y-121823000D02*
X41464800Y-121823000D01*
X40714800Y-117523000D02*
X40714800Y-119323000D01*
X40714800Y-120823000D02*
X40714800Y-121823000D01*
X41464800Y-117523000D02*
X40714800Y-117523000D01*
X40704800Y-125133000D02*
X46674800Y-125133000D01*
X45914800Y-118273000D02*
X45914800Y-121323000D01*
X42964800Y-118273000D02*
X45914800Y-118273000D01*
X42964800Y-124373000D02*
X45914800Y-124373000D01*
X133182000Y-64741100D02*
X133182000Y-64671100D01*
X134552000Y-66111100D02*
G75*
G03*
X134552000Y-66111100I-1370000J0D01*
G01*
X138076000Y-64705100D02*
X138076000Y-64635100D01*
X139446000Y-66075100D02*
G75*
G03*
X139446000Y-66075100I-1370000J0D01*
G01*
X146502000Y-64708700D02*
X146502000Y-64638700D01*
X147872000Y-66078700D02*
G75*
G03*
X147872000Y-66078700I-1370000J0D01*
G01*
X151292000Y-64618700D02*
X151292000Y-64548700D01*
X152662000Y-65988700D02*
G75*
G03*
X152662000Y-65988700I-1370000J0D01*
G01*
D12*
X174251760Y-115197000D02*
G75*
G03*
X174251760Y-115197000I-1000760J0D01*
G01*
X179451140Y-115197000D02*
G75*
G03*
X179451140Y-115197000I-6200140J0D01*
G01*
D11*
X153034000Y-56428100D02*
X153034000Y-53478100D01*
X154084000Y-58978100D02*
X154084000Y-57728100D01*
X153784000Y-58678100D02*
X153784000Y-57928100D01*
X144434000Y-56428100D02*
X144434000Y-53478100D01*
X143684000Y-58678100D02*
X145484000Y-58678100D01*
X150484000Y-57928100D02*
X146984000Y-57928100D01*
X146984000Y-58678100D02*
X150484000Y-58678100D01*
X145484000Y-58678100D02*
X145484000Y-57928100D01*
X150484000Y-58678100D02*
X150484000Y-57928100D01*
X153794000Y-52718100D02*
X143674000Y-52718100D01*
X143674000Y-58688100D02*
X153794000Y-58688100D01*
X151984000Y-58678100D02*
X153784000Y-58678100D01*
X146984000Y-57928100D02*
X146984000Y-58678100D01*
X152834000Y-58978100D02*
X154084000Y-58978100D01*
X153784000Y-56428100D02*
X153034000Y-56428100D01*
X153784000Y-57928100D02*
X151984000Y-57928100D01*
X151984000Y-57928100D02*
X151984000Y-58678100D01*
X143674000Y-52718100D02*
X143674000Y-58688100D01*
X145484000Y-57928100D02*
X143684000Y-57928100D01*
X143684000Y-56428100D02*
X144434000Y-56428100D01*
X153034000Y-53478100D02*
X148734000Y-53478100D01*
X143684000Y-57928100D02*
X143684000Y-58678100D01*
X153794000Y-58688100D02*
X153794000Y-52718100D01*
X144434000Y-53478100D02*
X148734000Y-53478100D01*
X50508600Y-47678000D02*
X53448600Y-47678000D01*
X50508600Y-42238000D02*
X50508600Y-47678000D01*
X53448600Y-43258000D02*
X50508600Y-43258000D01*
X51978600Y-41218000D02*
X51978600Y-42238000D01*
X53448600Y-47678000D02*
X53448600Y-42238000D01*
X51978600Y-48698000D02*
X51978600Y-47678000D01*
X53448600Y-42238000D02*
X50508600Y-42238000D01*
X53448600Y-43018000D02*
X50508600Y-43018000D01*
X53448600Y-43138000D02*
X50508600Y-43138000D01*
X41080000Y-43180000D02*
X41080000Y-53340000D01*
X48700000Y-43180000D02*
X41080000Y-43180000D01*
X42350000Y-53340000D02*
X42350000Y-43180000D01*
X41080000Y-53340000D02*
X48700000Y-53340000D01*
X48700000Y-53340000D02*
X48700000Y-43180000D01*
X95555000Y-36860000D02*
X94305000Y-36860000D01*
X94505000Y-38960000D02*
X95255000Y-38960000D01*
X93005000Y-37910000D02*
X90055000Y-37910000D01*
X95555000Y-38110000D02*
X95555000Y-36860000D01*
X94505000Y-40460000D02*
X94505000Y-46460000D01*
X90055000Y-49010000D02*
X90055000Y-43460000D01*
X93005000Y-37160000D02*
X93005000Y-37910000D01*
X89295000Y-37150000D02*
X89295000Y-49770000D01*
X94505000Y-47960000D02*
X94505000Y-49760000D01*
X95265000Y-49770000D02*
X95265000Y-37150000D01*
X94505000Y-37160000D02*
X94505000Y-38960000D01*
X95255000Y-47960000D02*
X94505000Y-47960000D01*
X95255000Y-38960000D02*
X95255000Y-37160000D01*
X94505000Y-46460000D02*
X95255000Y-46460000D01*
X95265000Y-37150000D02*
X89295000Y-37150000D01*
X89295000Y-49770000D02*
X95265000Y-49770000D01*
X95255000Y-37160000D02*
X94505000Y-37160000D01*
X90055000Y-37910000D02*
X90055000Y-43460000D01*
X95255000Y-40460000D02*
X94505000Y-40460000D01*
X95255000Y-46460000D02*
X95255000Y-40460000D01*
X93005000Y-49010000D02*
X90055000Y-49010000D01*
X95255000Y-49760000D02*
X95255000Y-47960000D01*
X93005000Y-49760000D02*
X93005000Y-49010000D01*
X94505000Y-49760000D02*
X95255000Y-49760000D01*
X75293300Y-47344000D02*
X75293300Y-47414000D01*
X76663300Y-45974000D02*
G75*
G03*
X76663300Y-45974000I-1370000J0D01*
G01*
X75293300Y-41359700D02*
X75293300Y-41429700D01*
X76663300Y-39989700D02*
G75*
G03*
X76663300Y-39989700I-1370000J0D01*
G01*
X84057400Y-71310100D02*
X84057400Y-56190100D01*
X83297400Y-71300100D02*
X84047400Y-71300100D01*
X84047400Y-69500100D02*
X83297400Y-69500100D01*
X84057400Y-56190100D02*
X78087400Y-56190100D01*
X78087400Y-71310100D02*
X84057400Y-71310100D01*
X84047400Y-71300100D02*
X84047400Y-69500100D01*
X81797400Y-56950100D02*
X78847400Y-56950100D01*
X83297400Y-58000100D02*
X84047400Y-58000100D01*
X78847400Y-70550100D02*
X78847400Y-63750100D01*
X78847400Y-56950100D02*
X78847400Y-63750100D01*
X81797400Y-70550100D02*
X78847400Y-70550100D01*
X84047400Y-58000100D02*
X84047400Y-56200100D01*
X78087400Y-56190100D02*
X78087400Y-71310100D01*
X81797400Y-56200100D02*
X81797400Y-56950100D01*
X84047400Y-56200100D02*
X83297400Y-56200100D01*
X83297400Y-69500100D02*
X83297400Y-71300100D01*
X83297400Y-59500100D02*
X83297400Y-68000100D01*
X84047400Y-59500100D02*
X83297400Y-59500100D01*
X84347400Y-55900100D02*
X83097400Y-55900100D01*
X84047400Y-68000100D02*
X84047400Y-59500100D01*
X81797400Y-71300100D02*
X81797400Y-70550100D01*
X84347400Y-57150100D02*
X84347400Y-55900100D01*
X83297400Y-68000100D02*
X84047400Y-68000100D01*
X83297400Y-56200100D02*
X83297400Y-58000100D01*
D12*
X71976000Y-68534300D02*
X71976000Y-55834300D01*
X70706000Y-57104300D02*
X70706000Y-55834300D01*
X71976000Y-81234300D02*
X59276000Y-81234300D01*
X56736000Y-55834300D02*
X74516000Y-55834300D01*
X74516000Y-55834300D02*
X74516000Y-116794300D01*
X69436000Y-116794300D02*
X69436000Y-118064300D01*
X68925200Y-97795100D02*
X71465200Y-97795100D01*
X60546000Y-55834300D02*
X60546000Y-57104300D01*
X64356000Y-76154300D02*
X64356000Y-72344300D01*
X65524400Y-99564300D02*
X59274400Y-99564300D01*
X66896000Y-72344300D02*
X66896000Y-76154300D01*
X61816000Y-118064300D02*
X61816000Y-116794300D01*
X59276000Y-68534300D02*
X71976000Y-68534300D01*
X59274400Y-103564300D02*
X59524400Y-103564300D01*
X61816000Y-111714300D02*
X61816000Y-116794300D01*
X71465200Y-110495100D02*
X68925200Y-110495100D01*
X68925200Y-110495100D02*
X68925200Y-107955100D01*
X56736000Y-116794300D02*
X56736000Y-55834300D01*
X59276000Y-81234300D02*
X59276000Y-93934300D01*
X60546000Y-57104300D02*
X70706000Y-57104300D01*
X68925200Y-110495100D02*
X68925200Y-97795100D01*
X66896000Y-76154300D02*
X64356000Y-76154300D01*
X65524400Y-103564300D02*
X65524400Y-99564300D01*
X74516000Y-116794300D02*
X56736000Y-116794300D01*
X69436000Y-118064300D02*
X61816000Y-118064300D01*
X69436000Y-111714300D02*
X61816000Y-111714300D01*
X59524400Y-103564300D02*
X65524400Y-103564300D01*
X59276000Y-55834300D02*
X59276000Y-68534300D01*
X71976000Y-93934300D02*
X71976000Y-81234300D01*
X59274400Y-99564300D02*
X59274400Y-103564300D01*
X69436000Y-111714300D02*
X69436000Y-116794300D01*
X68925200Y-107955100D02*
X71465200Y-107955100D01*
X59276000Y-93934300D02*
X71976000Y-93934300D01*
X71465200Y-97795100D02*
X71465200Y-110495100D01*
X64356000Y-72344300D02*
X66896000Y-72344300D01*
X66524026Y-74249300D02*
G75*
G03*
X66524026Y-74249300I-898026J0D01*
G01*
G36*
X65954000Y-83752300D02*
G01*
X65573000Y-84006300D01*
X65319000Y-83752300D01*
X65700000Y-83498300D01*
X65954000Y-83752300D01*
G37*
D16*
X65954000Y-83752300D02*
X65573000Y-84006300D01*
X65319000Y-83752300D01*
X65700000Y-83498300D01*
X65954000Y-83752300D01*
G36*
X65192000Y-85657300D02*
G01*
X64811000Y-85911300D01*
X64557000Y-85657300D01*
X64938000Y-85403300D01*
X65192000Y-85657300D01*
G37*
X65192000Y-85657300D02*
X64811000Y-85911300D01*
X64557000Y-85657300D01*
X64938000Y-85403300D01*
X65192000Y-85657300D01*
G36*
X66208000Y-84895300D02*
G01*
X65827000Y-85149300D01*
X65573000Y-84895300D01*
X65954000Y-84641300D01*
X66208000Y-84895300D01*
G37*
X66208000Y-84895300D02*
X65827000Y-85149300D01*
X65573000Y-84895300D01*
X65954000Y-84641300D01*
X66208000Y-84895300D01*
G36*
X65319000Y-84895300D02*
G01*
X64938000Y-85149300D01*
X64684000Y-84895300D01*
X65065000Y-84641300D01*
X65319000Y-84895300D01*
G37*
X65319000Y-84895300D02*
X64938000Y-85149300D01*
X64684000Y-84895300D01*
X65065000Y-84641300D01*
X65319000Y-84895300D01*
G36*
X66335000Y-84133300D02*
G01*
X65954000Y-84387300D01*
X65700000Y-84133300D01*
X66081000Y-83879300D01*
X66335000Y-84133300D01*
G37*
X66335000Y-84133300D02*
X65954000Y-84387300D01*
X65700000Y-84133300D01*
X66081000Y-83879300D01*
X66335000Y-84133300D01*
G36*
X65573000Y-83371300D02*
G01*
X65192000Y-83625300D01*
X64938000Y-83371300D01*
X65319000Y-83117300D01*
X65573000Y-83371300D01*
G37*
X65573000Y-83371300D02*
X65192000Y-83625300D01*
X64938000Y-83371300D01*
X65319000Y-83117300D01*
X65573000Y-83371300D01*
G36*
X65700000Y-85276300D02*
G01*
X65319000Y-85530300D01*
X65065000Y-85276300D01*
X65446000Y-85022300D01*
X65700000Y-85276300D01*
G37*
X65700000Y-85276300D02*
X65319000Y-85530300D01*
X65065000Y-85276300D01*
X65446000Y-85022300D01*
X65700000Y-85276300D01*
G36*
X65827000Y-84514300D02*
G01*
X65446000Y-84768300D01*
X65192000Y-84514300D01*
X65573000Y-84260300D01*
X65827000Y-84514300D01*
G37*
X65827000Y-84514300D02*
X65446000Y-84768300D01*
X65192000Y-84514300D01*
X65573000Y-84260300D01*
X65827000Y-84514300D01*
D11*
X160736000Y-94492000D02*
X160736000Y-93742000D01*
X162236000Y-81892000D02*
X162236000Y-83692000D01*
X162236000Y-91192000D02*
X162986000Y-91192000D01*
X157026000Y-94502000D02*
X162996000Y-94502000D01*
X163286000Y-82842000D02*
X163286000Y-81592000D01*
X162986000Y-91192000D02*
X162986000Y-85192000D01*
X160736000Y-81892000D02*
X160736000Y-82642000D01*
X162986000Y-83692000D02*
X162986000Y-81892000D01*
X162236000Y-85192000D02*
X162236000Y-91192000D01*
X157786000Y-82642000D02*
X157786000Y-88192000D01*
X162236000Y-92692000D02*
X162236000Y-94492000D01*
X162986000Y-94492000D02*
X162986000Y-92692000D01*
X162986000Y-85192000D02*
X162236000Y-85192000D01*
X162986000Y-81892000D02*
X162236000Y-81892000D01*
X162986000Y-92692000D02*
X162236000Y-92692000D01*
X160736000Y-82642000D02*
X157786000Y-82642000D01*
X157026000Y-81882000D02*
X157026000Y-94502000D01*
X163286000Y-81592000D02*
X162036000Y-81592000D01*
X157786000Y-93742000D02*
X157786000Y-88192000D01*
X162996000Y-81882000D02*
X157026000Y-81882000D01*
X162236000Y-94492000D02*
X162986000Y-94492000D01*
X162236000Y-83692000D02*
X162986000Y-83692000D01*
X160736000Y-93742000D02*
X157786000Y-93742000D01*
X162996000Y-94502000D02*
X162996000Y-81882000D01*
X157850000Y-76524000D02*
X157850000Y-70524000D01*
X157850000Y-69024000D02*
X157850000Y-67224000D01*
X162300000Y-67974000D02*
X162300000Y-73524000D01*
X159350000Y-67224000D02*
X159350000Y-67974000D01*
X163060000Y-67214000D02*
X157090000Y-67214000D01*
X157100000Y-67224000D02*
X157100000Y-69024000D01*
X163060000Y-79834000D02*
X163060000Y-67214000D01*
X159350000Y-79824000D02*
X159350000Y-79074000D01*
X156800000Y-78874000D02*
X156800000Y-80124000D01*
X157850000Y-79824000D02*
X157850000Y-78024000D01*
X159350000Y-67974000D02*
X162300000Y-67974000D01*
X157100000Y-69024000D02*
X157850000Y-69024000D01*
X157850000Y-67224000D02*
X157100000Y-67224000D01*
X157090000Y-67214000D02*
X157090000Y-79834000D01*
X157850000Y-70524000D02*
X157100000Y-70524000D01*
X157090000Y-79834000D02*
X163060000Y-79834000D01*
X162300000Y-79074000D02*
X162300000Y-73524000D01*
X157100000Y-76524000D02*
X157850000Y-76524000D01*
X159350000Y-79074000D02*
X162300000Y-79074000D01*
X156800000Y-80124000D02*
X158050000Y-80124000D01*
X157850000Y-78024000D02*
X157100000Y-78024000D01*
X157100000Y-79824000D02*
X157850000Y-79824000D01*
X157100000Y-78024000D02*
X157100000Y-79824000D01*
X157100000Y-70524000D02*
X157100000Y-76524000D01*
X177436000Y-90470000D02*
X171466000Y-90470000D01*
X176676000Y-105580000D02*
X177426000Y-105580000D01*
X177726000Y-91430000D02*
X177726000Y-90180000D01*
X177426000Y-90480000D02*
X176676000Y-90480000D01*
X177426000Y-92280000D02*
X177426000Y-90480000D01*
X175176000Y-104830000D02*
X172226000Y-104830000D01*
X177426000Y-103780000D02*
X176676000Y-103780000D01*
X177426000Y-93780000D02*
X176676000Y-93780000D01*
X171466000Y-90470000D02*
X171466000Y-105590000D01*
X172226000Y-91230000D02*
X172226000Y-98030000D01*
X176676000Y-103780000D02*
X176676000Y-105580000D01*
X177426000Y-102280000D02*
X177426000Y-93780000D01*
X172226000Y-104830000D02*
X172226000Y-98030000D01*
X175176000Y-90480000D02*
X175176000Y-91230000D01*
X177726000Y-90180000D02*
X176476000Y-90180000D01*
X176676000Y-92280000D02*
X177426000Y-92280000D01*
X171466000Y-105590000D02*
X177436000Y-105590000D01*
X176676000Y-90480000D02*
X176676000Y-92280000D01*
X175176000Y-91230000D02*
X172226000Y-91230000D01*
X176676000Y-93780000D02*
X176676000Y-102280000D01*
X175176000Y-105580000D02*
X175176000Y-104830000D01*
X176676000Y-102280000D02*
X177426000Y-102280000D01*
X177426000Y-105580000D02*
X177426000Y-103780000D01*
X177436000Y-105590000D02*
X177436000Y-90470000D01*
X175148000Y-86831600D02*
X172198000Y-86831600D01*
X176648000Y-74281600D02*
X177398000Y-74281600D01*
X177698000Y-73431600D02*
X177698000Y-72181600D01*
X177398000Y-85781600D02*
X176648000Y-85781600D01*
X176648000Y-84281600D02*
X177398000Y-84281600D01*
X177398000Y-87581600D02*
X177398000Y-85781600D01*
X175148000Y-87581600D02*
X175148000Y-86831600D01*
X176648000Y-75781600D02*
X176648000Y-84281600D01*
X177408000Y-72471600D02*
X171438000Y-72471600D01*
X176648000Y-85781600D02*
X176648000Y-87581600D01*
X176648000Y-87581600D02*
X177398000Y-87581600D01*
X175148000Y-72481600D02*
X175148000Y-73231600D01*
X172198000Y-86831600D02*
X172198000Y-80031600D01*
X171438000Y-72471600D02*
X171438000Y-87591600D01*
X177398000Y-72481600D02*
X176648000Y-72481600D01*
X177398000Y-74281600D02*
X177398000Y-72481600D01*
X177698000Y-72181600D02*
X176448000Y-72181600D01*
X177398000Y-84281600D02*
X177398000Y-75781600D01*
X177408000Y-87591600D02*
X177408000Y-72471600D01*
X177398000Y-75781600D02*
X176648000Y-75781600D01*
X175148000Y-73231600D02*
X172198000Y-73231600D01*
X172198000Y-73231600D02*
X172198000Y-80031600D01*
X176648000Y-72481600D02*
X176648000Y-74281600D01*
X171438000Y-87591600D02*
X177408000Y-87591600D01*
X177196000Y-66448300D02*
X177196000Y-57948300D01*
X176446000Y-66448300D02*
X177196000Y-66448300D01*
X177206000Y-54638300D02*
X171236000Y-54638300D01*
X176446000Y-57948300D02*
X176446000Y-66448300D01*
X177196000Y-67948300D02*
X176446000Y-67948300D01*
X171996000Y-68998300D02*
X171996000Y-62198300D01*
X177496000Y-55598300D02*
X177496000Y-54348300D01*
X177206000Y-69758300D02*
X177206000Y-54638300D01*
X171236000Y-69758300D02*
X177206000Y-69758300D01*
X176446000Y-54648300D02*
X176446000Y-56448300D01*
X174946000Y-55398300D02*
X171996000Y-55398300D01*
X171236000Y-54638300D02*
X171236000Y-69758300D01*
X171996000Y-55398300D02*
X171996000Y-62198300D01*
X177196000Y-56448300D02*
X177196000Y-54648300D01*
X177196000Y-57948300D02*
X176446000Y-57948300D01*
X177496000Y-54348300D02*
X176246000Y-54348300D01*
X174946000Y-68998300D02*
X171996000Y-68998300D01*
X176446000Y-67948300D02*
X176446000Y-69748300D01*
X174946000Y-54648300D02*
X174946000Y-55398300D01*
X176446000Y-56448300D02*
X177196000Y-56448300D01*
X176446000Y-69748300D02*
X177196000Y-69748300D01*
X174946000Y-69748300D02*
X174946000Y-68998300D01*
X177196000Y-69748300D02*
X177196000Y-67948300D01*
X177196000Y-54648300D02*
X176446000Y-54648300D01*
X169028000Y-50313800D02*
X169028000Y-47653800D01*
X161288000Y-50313800D02*
X161288000Y-48983800D01*
X163888000Y-50313800D02*
X163888000Y-47653800D01*
X162618000Y-50313800D02*
X161288000Y-50313800D01*
X163888000Y-47653800D02*
X169028000Y-47653800D01*
X163888000Y-50313800D02*
X169028000Y-50313800D01*
X172182000Y-50313800D02*
X170852000Y-50313800D01*
X173452000Y-50313800D02*
X178592000Y-50313800D01*
X178592000Y-50313800D02*
X178592000Y-47653800D01*
X173452000Y-50313800D02*
X173452000Y-47653800D01*
X173452000Y-47653800D02*
X178592000Y-47653800D01*
X170852000Y-50313800D02*
X170852000Y-48983800D01*
X160532000Y-103441000D02*
X160602000Y-103441000D01*
X160532000Y-103441000D02*
G75*
G03*
X160532000Y-103441000I-1370000J0D01*
G01*
X160212000Y-57706200D02*
X160282000Y-57706200D01*
X160212000Y-57706200D02*
G75*
G03*
X160212000Y-57706200I-1370000J0D01*
G01*
X160613000Y-98508800D02*
X160683000Y-98508800D01*
X160613000Y-98508800D02*
G75*
G03*
X160613000Y-98508800I-1370000J0D01*
G01*
X160212000Y-62821800D02*
X160282000Y-62821800D01*
X160212000Y-62821800D02*
G75*
G03*
X160212000Y-62821800I-1370000J0D01*
G01*
X59524900Y-47217000D02*
X59524900Y-47287000D01*
X60894900Y-45847000D02*
G75*
G03*
X60894900Y-45847000I-1370000J0D01*
G01*
X59616400Y-40613600D02*
X59616400Y-40543600D01*
X60986400Y-41983600D02*
G75*
G03*
X60986400Y-41983600I-1370000J0D01*
G01*
D12*
X48155900Y-63632100D02*
X49425900Y-62362100D01*
X48155900Y-58552100D02*
X48155900Y-63632100D01*
X54505900Y-56012100D02*
X54505900Y-76332100D01*
X43075900Y-58552100D02*
X48155900Y-58552100D01*
X39265900Y-76332100D02*
X39265900Y-56012100D01*
X46885900Y-62362100D02*
X48155900Y-63632100D01*
X44345900Y-59822100D02*
X43075900Y-58552100D01*
X54505900Y-76332100D02*
X39265900Y-76332100D01*
X43075900Y-58552100D02*
X44345900Y-57282100D01*
X39265900Y-56012100D02*
X54505900Y-56012100D01*
D11*
X67555000Y-38040000D02*
X64605000Y-38040000D01*
X69055000Y-39090000D02*
X69805000Y-39090000D01*
X69055000Y-37290000D02*
X69055000Y-39090000D01*
X69805000Y-39090000D02*
X69805000Y-37290000D01*
X69805000Y-48090000D02*
X69055000Y-48090000D01*
X69055000Y-48090000D02*
X69055000Y-49890000D01*
X69805000Y-46590000D02*
X69805000Y-40590000D01*
X67555000Y-37290000D02*
X67555000Y-38040000D01*
X67555000Y-49890000D02*
X67555000Y-49140000D01*
X63845000Y-49900000D02*
X69815000Y-49900000D01*
X70105000Y-36990000D02*
X68855000Y-36990000D01*
X64605000Y-38040000D02*
X64605000Y-43590000D01*
X69805000Y-37290000D02*
X69055000Y-37290000D01*
X69815000Y-49900000D02*
X69815000Y-37280000D01*
X69805000Y-40590000D02*
X69055000Y-40590000D01*
X69805000Y-49890000D02*
X69805000Y-48090000D01*
X70105000Y-38240000D02*
X70105000Y-36990000D01*
X69055000Y-46590000D02*
X69805000Y-46590000D01*
X69815000Y-37280000D02*
X63845000Y-37280000D01*
X64605000Y-49140000D02*
X64605000Y-43590000D01*
X69055000Y-49890000D02*
X69805000Y-49890000D01*
X63845000Y-37280000D02*
X63845000Y-49900000D01*
X69055000Y-40590000D02*
X69055000Y-46590000D01*
X67555000Y-49140000D02*
X64605000Y-49140000D01*
X40841900Y-87762000D02*
X40841900Y-105382000D01*
X46051900Y-104622000D02*
X46051900Y-96572000D01*
X43101900Y-88522000D02*
X46051900Y-88522000D01*
X40851900Y-87772000D02*
X40851900Y-89572000D01*
X40851900Y-91072000D02*
X40851900Y-102072000D01*
X41601900Y-105372000D02*
X41601900Y-103572000D01*
X40851900Y-103572000D02*
X40851900Y-105372000D01*
X46811900Y-105382000D02*
X46811900Y-87762000D01*
X41601900Y-87772000D02*
X40851900Y-87772000D01*
X40551900Y-104422000D02*
X40551900Y-105672000D01*
X43101900Y-105372000D02*
X43101900Y-104622000D01*
X41601900Y-102072000D02*
X41601900Y-91072000D01*
X43101900Y-87772000D02*
X43101900Y-88522000D01*
X41601900Y-91072000D02*
X40851900Y-91072000D01*
X40851900Y-105372000D02*
X41601900Y-105372000D01*
X40841900Y-105382000D02*
X46811900Y-105382000D01*
X41601900Y-103572000D02*
X40851900Y-103572000D01*
X43101900Y-104622000D02*
X46051900Y-104622000D01*
X46051900Y-88522000D02*
X46051900Y-96572000D01*
X46811900Y-87762000D02*
X40841900Y-87762000D01*
X40851900Y-102072000D02*
X41601900Y-102072000D01*
X40551900Y-105672000D02*
X41801900Y-105672000D01*
X40851900Y-89572000D02*
X41601900Y-89572000D01*
X41601900Y-89572000D02*
X41601900Y-87772000D01*
X112956000Y-84328400D02*
X112956000Y-78628400D01*
X118956000Y-84328400D02*
X112956000Y-84328400D01*
X118956000Y-84328400D02*
X118956000Y-78628400D01*
X119456000Y-77878400D02*
G75*
G03*
X115910719Y-55432729I-3500000J10950000D01*
G01*
X119482384Y-77876646D02*
G75*
G03*
X118956000Y-78628400I273616J-751754D01*
G01*
X112956000Y-78628400D02*
G75*
G03*
X112429616Y-77876646I-800000J0D01*
G01*
X116001281Y-55432729D02*
G75*
G03*
X112456000Y-77878400I-45281J-11495671D01*
G01*
X46148400Y-85076700D02*
X46148400Y-82026700D01*
X40948400Y-78226700D02*
X40948400Y-80026700D01*
X46908400Y-78216700D02*
X40938400Y-78216700D01*
X40648400Y-84876700D02*
X40648400Y-86126700D01*
X43198400Y-78226700D02*
X43198400Y-78976700D01*
X40648400Y-86126700D02*
X41898400Y-86126700D01*
X43198400Y-78976700D02*
X46148400Y-78976700D01*
X41698400Y-85826700D02*
X41698400Y-84026700D01*
X40948400Y-81526700D02*
X40948400Y-82526700D01*
X40938400Y-78216700D02*
X40938400Y-85836700D01*
X40948400Y-84026700D02*
X40948400Y-85826700D01*
X46148400Y-78976700D02*
X46148400Y-82026700D01*
X40948400Y-85826700D02*
X41698400Y-85826700D01*
X40938400Y-85836700D02*
X46908400Y-85836700D01*
X40948400Y-80026700D02*
X41698400Y-80026700D01*
X43198400Y-85076700D02*
X46148400Y-85076700D01*
X46908400Y-85836700D02*
X46908400Y-78216700D01*
X43198400Y-85826700D02*
X43198400Y-85076700D01*
X41698400Y-80026700D02*
X41698400Y-78226700D01*
X41698400Y-82526700D02*
X41698400Y-81526700D01*
X41698400Y-78226700D02*
X40948400Y-78226700D01*
X41698400Y-84026700D02*
X40948400Y-84026700D01*
X40948400Y-82526700D02*
X41698400Y-82526700D01*
X41698400Y-81526700D02*
X40948400Y-81526700D01*
X65333000Y-127608000D02*
X65333000Y-130558000D01*
X66083000Y-126108000D02*
X66083000Y-125358000D01*
X54283000Y-125358000D02*
X54283000Y-126108000D01*
X50973000Y-131318000D02*
X66093000Y-131318000D01*
X66083000Y-127608000D02*
X65333000Y-127608000D01*
X62783000Y-126108000D02*
X62783000Y-125358000D01*
X51733000Y-130558000D02*
X58533000Y-130558000D01*
X50983000Y-125358000D02*
X50983000Y-126108000D01*
X50973000Y-125348000D02*
X50973000Y-131318000D01*
X64283000Y-126108000D02*
X66083000Y-126108000D01*
X65333000Y-130558000D02*
X58533000Y-130558000D01*
X51933000Y-125058000D02*
X50683000Y-125058000D01*
X66093000Y-131318000D02*
X66093000Y-125348000D01*
X50683000Y-125058000D02*
X50683000Y-126308000D01*
X64283000Y-125358000D02*
X64283000Y-126108000D01*
X52783000Y-125358000D02*
X50983000Y-125358000D01*
X66083000Y-125358000D02*
X64283000Y-125358000D01*
X50983000Y-127608000D02*
X51733000Y-127608000D01*
X52783000Y-126108000D02*
X52783000Y-125358000D01*
X66093000Y-125348000D02*
X50973000Y-125348000D01*
X54283000Y-126108000D02*
X62783000Y-126108000D01*
X51733000Y-127608000D02*
X51733000Y-130558000D01*
X50983000Y-126108000D02*
X52783000Y-126108000D01*
X62783000Y-125358000D02*
X54283000Y-125358000D01*
X96287700Y-69797900D02*
X95537700Y-69797900D01*
X91087700Y-57247900D02*
X91087700Y-64047900D01*
X96587700Y-57447900D02*
X96587700Y-56197900D01*
X91087700Y-70847900D02*
X91087700Y-64047900D01*
X96297700Y-56487900D02*
X90327700Y-56487900D01*
X94037700Y-71597900D02*
X94037700Y-70847900D01*
X96287700Y-68297900D02*
X96287700Y-59797900D01*
X95537700Y-69797900D02*
X95537700Y-71597900D01*
X96297700Y-71607900D02*
X96297700Y-56487900D01*
X96287700Y-59797900D02*
X95537700Y-59797900D01*
X90327700Y-71607900D02*
X96297700Y-71607900D01*
X96287700Y-71597900D02*
X96287700Y-69797900D01*
X95537700Y-58297900D02*
X96287700Y-58297900D01*
X94037700Y-56497900D02*
X94037700Y-57247900D01*
X94037700Y-70847900D02*
X91087700Y-70847900D01*
X95537700Y-71597900D02*
X96287700Y-71597900D01*
X95537700Y-68297900D02*
X96287700Y-68297900D01*
X95537700Y-56497900D02*
X95537700Y-58297900D01*
X90327700Y-56487900D02*
X90327700Y-71607900D01*
X94037700Y-57247900D02*
X91087700Y-57247900D01*
X96287700Y-58297900D02*
X96287700Y-56497900D01*
X96287700Y-56497900D02*
X95537700Y-56497900D01*
X96587700Y-56197900D02*
X95337700Y-56197900D01*
X95537700Y-59797900D02*
X95537700Y-68297900D01*
X137400000Y-94950000D02*
X136650000Y-94950000D01*
X129100000Y-96450000D02*
X127300000Y-96450000D01*
X129100000Y-97200000D02*
X129100000Y-96450000D01*
X134100000Y-97200000D02*
X134100000Y-96450000D01*
X130600000Y-97200000D02*
X134100000Y-97200000D01*
X137700000Y-97500000D02*
X137700000Y-96250000D01*
X127300000Y-96450000D02*
X127300000Y-97200000D01*
X137400000Y-97200000D02*
X137400000Y-96450000D01*
X137410000Y-97210000D02*
X137410000Y-91240000D01*
X136450000Y-97500000D02*
X137700000Y-97500000D01*
X136650000Y-92000000D02*
X132350000Y-92000000D01*
X135600000Y-96450000D02*
X135600000Y-97200000D01*
X134100000Y-96450000D02*
X130600000Y-96450000D01*
X137400000Y-96450000D02*
X135600000Y-96450000D01*
X127290000Y-91240000D02*
X127290000Y-97210000D01*
X127290000Y-97210000D02*
X137410000Y-97210000D01*
X136650000Y-94950000D02*
X136650000Y-92000000D01*
X128050000Y-92000000D02*
X132350000Y-92000000D01*
X128050000Y-94950000D02*
X128050000Y-92000000D01*
X137410000Y-91240000D02*
X127290000Y-91240000D01*
X130600000Y-96450000D02*
X130600000Y-97200000D01*
X135600000Y-97200000D02*
X137400000Y-97200000D01*
X127300000Y-94950000D02*
X128050000Y-94950000D01*
X127300000Y-97200000D02*
X129100000Y-97200000D01*
X139528000Y-97212300D02*
X141328000Y-97212300D01*
X140278000Y-94962300D02*
X140278000Y-92012300D01*
X139528000Y-96462300D02*
X139528000Y-97212300D01*
X150328000Y-96462300D02*
X150328000Y-97212300D01*
X140278000Y-92012300D02*
X145828000Y-92012300D01*
X141328000Y-96462300D02*
X139528000Y-96462300D01*
X142828000Y-96462300D02*
X142828000Y-97212300D01*
X152138000Y-91252300D02*
X139518000Y-91252300D01*
X152128000Y-94962300D02*
X151378000Y-94962300D01*
X152428000Y-97512300D02*
X152428000Y-96262300D01*
X152138000Y-97222300D02*
X152138000Y-91252300D01*
X150328000Y-97212300D02*
X152128000Y-97212300D01*
X139518000Y-97222300D02*
X152138000Y-97222300D01*
X148828000Y-96462300D02*
X142828000Y-96462300D01*
X151378000Y-94962300D02*
X151378000Y-92012300D01*
X148828000Y-97212300D02*
X148828000Y-96462300D01*
X139518000Y-91252300D02*
X139518000Y-97222300D01*
X141328000Y-97212300D02*
X141328000Y-96462300D01*
X151178000Y-97512300D02*
X152428000Y-97512300D01*
X152128000Y-97212300D02*
X152128000Y-96462300D01*
X142828000Y-97212300D02*
X148828000Y-97212300D01*
X139528000Y-94962300D02*
X140278000Y-94962300D01*
X152128000Y-96462300D02*
X150328000Y-96462300D01*
X151378000Y-92012300D02*
X145828000Y-92012300D01*
X126766000Y-124334000D02*
X111646000Y-124334000D01*
X112606000Y-124044000D02*
X111356000Y-124044000D01*
X112406000Y-129544000D02*
X119206000Y-129544000D01*
X112406000Y-126594000D02*
X112406000Y-129544000D01*
X123456000Y-124344000D02*
X114956000Y-124344000D01*
X126006000Y-126594000D02*
X126006000Y-129544000D01*
X114956000Y-125094000D02*
X123456000Y-125094000D01*
X114956000Y-124344000D02*
X114956000Y-125094000D01*
X113456000Y-125094000D02*
X113456000Y-124344000D01*
X126766000Y-130304000D02*
X126766000Y-124334000D01*
X126756000Y-124344000D02*
X124956000Y-124344000D01*
X111646000Y-124334000D02*
X111646000Y-130304000D01*
X113456000Y-124344000D02*
X111656000Y-124344000D01*
X124956000Y-124344000D02*
X124956000Y-125094000D01*
X111646000Y-130304000D02*
X126766000Y-130304000D01*
X111656000Y-126594000D02*
X112406000Y-126594000D01*
X124956000Y-125094000D02*
X126756000Y-125094000D01*
X111656000Y-125094000D02*
X113456000Y-125094000D01*
X126006000Y-129544000D02*
X119206000Y-129544000D01*
X126756000Y-125094000D02*
X126756000Y-124344000D01*
X111356000Y-124044000D02*
X111356000Y-125294000D01*
X126756000Y-126594000D02*
X126006000Y-126594000D01*
X123456000Y-125094000D02*
X123456000Y-124344000D01*
X111656000Y-124344000D02*
X111656000Y-125094000D01*
X126006000Y-119384000D02*
X119206000Y-119384000D01*
X126766000Y-114174000D02*
X111646000Y-114174000D01*
X126006000Y-116434000D02*
X126006000Y-119384000D01*
X124956000Y-114184000D02*
X124956000Y-114934000D01*
X123456000Y-114934000D02*
X123456000Y-114184000D01*
X112606000Y-113884000D02*
X111356000Y-113884000D01*
X123456000Y-114184000D02*
X114956000Y-114184000D01*
X111356000Y-113884000D02*
X111356000Y-115134000D01*
X114956000Y-114934000D02*
X123456000Y-114934000D01*
X113456000Y-114934000D02*
X113456000Y-114184000D01*
X126756000Y-114934000D02*
X126756000Y-114184000D01*
X111656000Y-116434000D02*
X112406000Y-116434000D01*
X111646000Y-114174000D02*
X111646000Y-120144000D01*
X111646000Y-120144000D02*
X126766000Y-120144000D01*
X126756000Y-114184000D02*
X124956000Y-114184000D01*
X114956000Y-114184000D02*
X114956000Y-114934000D01*
X112406000Y-119384000D02*
X119206000Y-119384000D01*
X124956000Y-114934000D02*
X126756000Y-114934000D01*
X126756000Y-116434000D02*
X126006000Y-116434000D01*
X113456000Y-114184000D02*
X111656000Y-114184000D01*
X111656000Y-114934000D02*
X113456000Y-114934000D01*
X126766000Y-120144000D02*
X126766000Y-114174000D01*
X111656000Y-114184000D02*
X111656000Y-114934000D01*
X112406000Y-116434000D02*
X112406000Y-119384000D01*
X140316000Y-125094000D02*
X142116000Y-125094000D01*
X131316000Y-124344000D02*
X129516000Y-124344000D01*
X129516000Y-124344000D02*
X129516000Y-125094000D01*
X130266000Y-126594000D02*
X130266000Y-129544000D01*
X131316000Y-125094000D02*
X131316000Y-124344000D01*
X129516000Y-126594000D02*
X130266000Y-126594000D01*
X142126000Y-130304000D02*
X142126000Y-124334000D01*
X142126000Y-124334000D02*
X129506000Y-124334000D01*
X140316000Y-124344000D02*
X140316000Y-125094000D01*
X129216000Y-124044000D02*
X129216000Y-125294000D01*
X141366000Y-126594000D02*
X141366000Y-129544000D01*
X138816000Y-124344000D02*
X132816000Y-124344000D01*
X129516000Y-125094000D02*
X131316000Y-125094000D01*
X130266000Y-129544000D02*
X135816000Y-129544000D01*
X129506000Y-130304000D02*
X142126000Y-130304000D01*
X138816000Y-125094000D02*
X138816000Y-124344000D01*
X142116000Y-124344000D02*
X140316000Y-124344000D01*
X132816000Y-124344000D02*
X132816000Y-125094000D01*
X130466000Y-124044000D02*
X129216000Y-124044000D01*
X141366000Y-129544000D02*
X135816000Y-129544000D01*
X142116000Y-125094000D02*
X142116000Y-124344000D01*
X132816000Y-125094000D02*
X138816000Y-125094000D01*
X142116000Y-126594000D02*
X141366000Y-126594000D01*
X129506000Y-124334000D02*
X129506000Y-130304000D01*
X132259000Y-118214000D02*
X132189000Y-118214000D01*
X134999000Y-118214000D02*
G75*
G03*
X134999000Y-118214000I-1370000J0D01*
G01*
X138482000Y-118214000D02*
X138412000Y-118214000D01*
X141222000Y-118214000D02*
G75*
G03*
X141222000Y-118214000I-1370000J0D01*
G01*
X85300800Y-105895000D02*
X85300800Y-81765000D01*
X100540800Y-81130000D02*
X100540800Y-105895000D01*
X85300800Y-81765000D02*
X85300800Y-81130000D01*
X90380800Y-124310000D02*
X90380800Y-128755000D01*
X87687467Y-80205000D02*
X87687467Y-79845000D01*
X100540800Y-105895000D02*
X85300800Y-105895000D01*
X90380800Y-128755000D02*
X95460800Y-128755000D01*
X98154133Y-79845000D02*
X98154133Y-80205000D01*
X77220800Y-129405000D02*
X108620799Y-129405000D01*
X85300800Y-81130000D02*
X100540800Y-81130000D01*
X98154133Y-80205000D02*
X87687467Y-80205000D01*
X77220801Y-79845000D02*
X77220800Y-129405000D01*
X108620800Y-79845000D02*
X98154133Y-79845000D01*
X108620799Y-129405000D02*
X108620800Y-79845000D01*
X95460800Y-128755000D02*
X95460800Y-124310000D01*
X87687467Y-79845000D02*
X77220801Y-79845000D01*
X95460800Y-124310000D02*
X90380800Y-124310000D01*
X154776000Y-112914000D02*
X152976000Y-112914000D01*
X145426000Y-115164000D02*
X145426000Y-118114000D01*
X154776000Y-113664000D02*
X154776000Y-112914000D01*
X145426000Y-118114000D02*
X149726000Y-118114000D01*
X154026000Y-115164000D02*
X154026000Y-118114000D01*
X151476000Y-113664000D02*
X151476000Y-112914000D01*
X144376000Y-112614000D02*
X144376000Y-113864000D01*
X154776000Y-115164000D02*
X154026000Y-115164000D01*
X144666000Y-112904000D02*
X144666000Y-118874000D01*
X147976000Y-113664000D02*
X151476000Y-113664000D01*
X146476000Y-113664000D02*
X146476000Y-112914000D01*
X152976000Y-112914000D02*
X152976000Y-113664000D01*
X154786000Y-112904000D02*
X144666000Y-112904000D01*
X144676000Y-115164000D02*
X145426000Y-115164000D01*
X144676000Y-113664000D02*
X146476000Y-113664000D01*
X147976000Y-112914000D02*
X147976000Y-113664000D01*
X152976000Y-113664000D02*
X154776000Y-113664000D01*
X154786000Y-118874000D02*
X154786000Y-112904000D01*
X154026000Y-118114000D02*
X149726000Y-118114000D01*
X151476000Y-112914000D02*
X147976000Y-112914000D01*
X145626000Y-112614000D02*
X144376000Y-112614000D01*
X146476000Y-112914000D02*
X144676000Y-112914000D01*
X144676000Y-112914000D02*
X144676000Y-113664000D01*
X144666000Y-118874000D02*
X154786000Y-118874000D01*
X122346000Y-109444000D02*
X116346000Y-109444000D01*
X113036000Y-110204000D02*
X125656000Y-110204000D01*
X122346000Y-110194000D02*
X122346000Y-109444000D01*
X123846000Y-109444000D02*
X123846000Y-110194000D01*
X113046000Y-109444000D02*
X113046000Y-110194000D01*
X113796000Y-107944000D02*
X113796000Y-104994000D01*
X116346000Y-109444000D02*
X116346000Y-110194000D01*
X125946000Y-110494000D02*
X125946000Y-109244000D01*
X123846000Y-110194000D02*
X125646000Y-110194000D01*
X114846000Y-109444000D02*
X113046000Y-109444000D01*
X113046000Y-110194000D02*
X114846000Y-110194000D01*
X114846000Y-110194000D02*
X114846000Y-109444000D01*
X125656000Y-104234000D02*
X113036000Y-104234000D01*
X124896000Y-104994000D02*
X119346000Y-104994000D01*
X124896000Y-107944000D02*
X124896000Y-104994000D01*
X125656000Y-110204000D02*
X125656000Y-104234000D01*
X124696000Y-110494000D02*
X125946000Y-110494000D01*
X113036000Y-104234000D02*
X113036000Y-110204000D01*
X125646000Y-109444000D02*
X123846000Y-109444000D01*
X116346000Y-110194000D02*
X122346000Y-110194000D01*
X125646000Y-107944000D02*
X124896000Y-107944000D01*
X113796000Y-104994000D02*
X119346000Y-104994000D01*
X113046000Y-107944000D02*
X113796000Y-107944000D01*
X125646000Y-110194000D02*
X125646000Y-109444000D01*
X154066000Y-126594000D02*
X154066000Y-129544000D01*
X154066000Y-129544000D02*
X149766000Y-129544000D01*
X148016000Y-124344000D02*
X148016000Y-125094000D01*
X146516000Y-124344000D02*
X144716000Y-124344000D01*
X154816000Y-124344000D02*
X153016000Y-124344000D01*
X145666000Y-124044000D02*
X144416000Y-124044000D01*
X144716000Y-126594000D02*
X145466000Y-126594000D01*
X151516000Y-124344000D02*
X148016000Y-124344000D01*
X154826000Y-124334000D02*
X144706000Y-124334000D01*
X153016000Y-124344000D02*
X153016000Y-125094000D01*
X144716000Y-125094000D02*
X146516000Y-125094000D01*
X154816000Y-126594000D02*
X154066000Y-126594000D01*
X145466000Y-126594000D02*
X145466000Y-129544000D01*
X154816000Y-125094000D02*
X154816000Y-124344000D01*
X151516000Y-125094000D02*
X151516000Y-124344000D01*
X153016000Y-125094000D02*
X154816000Y-125094000D01*
X144706000Y-130304000D02*
X154826000Y-130304000D01*
X148016000Y-125094000D02*
X151516000Y-125094000D01*
X144716000Y-124344000D02*
X144716000Y-125094000D01*
X146516000Y-125094000D02*
X146516000Y-124344000D01*
X144416000Y-124044000D02*
X144416000Y-125294000D01*
X144706000Y-124334000D02*
X144706000Y-130304000D01*
X145466000Y-129544000D02*
X149766000Y-129544000D01*
X154826000Y-130304000D02*
X154826000Y-124334000D01*
X142156000Y-109444000D02*
X140356000Y-109444000D01*
X131356000Y-110194000D02*
X131356000Y-109444000D01*
X129556000Y-109444000D02*
X129556000Y-110194000D01*
X142456000Y-110494000D02*
X142456000Y-109244000D01*
X129546000Y-110204000D02*
X142166000Y-110204000D01*
X130306000Y-104994000D02*
X135856000Y-104994000D01*
X129556000Y-107944000D02*
X130306000Y-107944000D01*
X142166000Y-110204000D02*
X142166000Y-104234000D01*
X142166000Y-104234000D02*
X129546000Y-104234000D01*
X141206000Y-110494000D02*
X142456000Y-110494000D01*
X131356000Y-109444000D02*
X129556000Y-109444000D01*
X141406000Y-107944000D02*
X141406000Y-104994000D01*
X132856000Y-109444000D02*
X132856000Y-110194000D01*
X129556000Y-110194000D02*
X131356000Y-110194000D01*
X130306000Y-107944000D02*
X130306000Y-104994000D01*
X142156000Y-110194000D02*
X142156000Y-109444000D01*
X138856000Y-109444000D02*
X132856000Y-109444000D01*
X138856000Y-110194000D02*
X138856000Y-109444000D01*
X129546000Y-104234000D02*
X129546000Y-110204000D01*
X140356000Y-109444000D02*
X140356000Y-110194000D01*
X140356000Y-110194000D02*
X142156000Y-110194000D01*
X142156000Y-107944000D02*
X141406000Y-107944000D01*
X141406000Y-104994000D02*
X135856000Y-104994000D01*
X132856000Y-110194000D02*
X138856000Y-110194000D01*
X161710000Y-124008000D02*
X161780000Y-124008000D01*
X161710000Y-124008000D02*
G75*
G03*
X161710000Y-124008000I-1370000J0D01*
G01*
X168228000Y-124008000D02*
X168298000Y-124008000D01*
X168228000Y-124008000D02*
G75*
G03*
X168228000Y-124008000I-1370000J0D01*
G01*
X161710000Y-130300000D02*
X161780000Y-130300000D01*
X161710000Y-130300000D02*
G75*
G03*
X161710000Y-130300000I-1370000J0D01*
G01*
X168228000Y-130300000D02*
X168298000Y-130300000D01*
X168228000Y-130300000D02*
G75*
G03*
X168228000Y-130300000I-1370000J0D01*
G01*
X43107000Y-108453000D02*
X46057000Y-108453000D01*
X46057000Y-108453000D02*
X46057000Y-111503000D01*
X41607000Y-109503000D02*
X41607000Y-107703000D01*
X40557000Y-114353000D02*
X40557000Y-115603000D01*
X40857000Y-111003000D02*
X40857000Y-112003000D01*
X40857000Y-113503000D02*
X40857000Y-115303000D01*
X40857000Y-109503000D02*
X41607000Y-109503000D01*
X40857000Y-115303000D02*
X41607000Y-115303000D01*
X46817000Y-115313000D02*
X46817000Y-107693000D01*
X43107000Y-115303000D02*
X43107000Y-114553000D01*
X40847000Y-115313000D02*
X46817000Y-115313000D01*
X43107000Y-107703000D02*
X43107000Y-108453000D01*
X40857000Y-107703000D02*
X40857000Y-109503000D01*
X40847000Y-107693000D02*
X40847000Y-115313000D01*
X41607000Y-112003000D02*
X41607000Y-111003000D01*
X41607000Y-113503000D02*
X40857000Y-113503000D01*
X41607000Y-107703000D02*
X40857000Y-107703000D01*
X43107000Y-114553000D02*
X46057000Y-114553000D01*
X41607000Y-111003000D02*
X40857000Y-111003000D01*
X40857000Y-112003000D02*
X41607000Y-112003000D01*
X40557000Y-115603000D02*
X41807000Y-115603000D01*
X46057000Y-114553000D02*
X46057000Y-111503000D01*
X46817000Y-107693000D02*
X40847000Y-107693000D01*
X41607000Y-115303000D02*
X41607000Y-113503000D01*
D17*
X173251000Y-111397160D03*
X173251000Y-118996840D03*
%LPC*%
D18*
X101925000Y-39630000D03*
D19*
X101925000Y-42130000D03*
X101925000Y-44630000D03*
X101925000Y-47130000D03*
D18*
X82405000Y-39710000D03*
D19*
X82405000Y-42210000D03*
X82405000Y-44710000D03*
X82405000Y-47210000D03*
D20*
X145646000Y-40627300D03*
D21*
X143146000Y-40627300D03*
X140646000Y-40627300D03*
X138146000Y-40627300D03*
D20*
X159179000Y-40718700D03*
D21*
X156679000Y-40718700D03*
X154179000Y-40718700D03*
D18*
X113715000Y-39670000D03*
D19*
X113715000Y-42170000D03*
X113715000Y-44670000D03*
X113715000Y-47170000D03*
D18*
X125220000Y-39630000D03*
D19*
X125220000Y-42130000D03*
X125220000Y-44630000D03*
X125220000Y-47130000D03*
D20*
X138211000Y-56228100D03*
D21*
X135711000Y-56228100D03*
X133211000Y-56228100D03*
D22*
X43164800Y-122573000D03*
D23*
X43164800Y-120073000D03*
D24*
X133182000Y-66111100D03*
D25*
X133182000Y-63571100D03*
D24*
X138076000Y-66075100D03*
D25*
X138076000Y-63535100D03*
D24*
X146502000Y-66078700D03*
D25*
X146502000Y-63538700D03*
D24*
X151292000Y-65988700D03*
D25*
X151292000Y-63448700D03*
D17*
X173251000Y-111397160D03*
X173251000Y-118996840D03*
D20*
X151234000Y-56228100D03*
D21*
X148734000Y-56228100D03*
X146234000Y-56228100D03*
D26*
X51978600Y-39878000D03*
D27*
X51978600Y-50038000D03*
D28*
X44890000Y-45720000D03*
D29*
X44890000Y-50800000D03*
D18*
X92805000Y-39710000D03*
D19*
X92805000Y-42210000D03*
X92805000Y-44710000D03*
X92805000Y-47210000D03*
D24*
X75293300Y-45974000D03*
D25*
X75293300Y-48514000D03*
D24*
X75293300Y-39989700D03*
D25*
X75293300Y-42529700D03*
D30*
X43000000Y-38000000D03*
D31*
X43000000Y-38000000D03*
D30*
X176000000Y-38000000D03*
D31*
X176000000Y-38000000D03*
X176000000Y-130000000D03*
D30*
X176000000Y-130000000D03*
X43000000Y-130000000D03*
D31*
X43000000Y-130000000D03*
D18*
X81597400Y-58750100D03*
D19*
X81597400Y-61250100D03*
X81597400Y-63750100D03*
X81597400Y-66250100D03*
X81597400Y-68750100D03*
D32*
X73246000Y-115524300D03*
D24*
X73246000Y-112984300D03*
X73246000Y-110444300D03*
X73246000Y-107904300D03*
X73246000Y-105364300D03*
X73246000Y-102824300D03*
X73246000Y-100284300D03*
X73246000Y-97744300D03*
X73246000Y-95204300D03*
X73246000Y-92664300D03*
X73246000Y-90124300D03*
X73246000Y-87584300D03*
X73246000Y-85044300D03*
X73246000Y-82504300D03*
X73246000Y-79964300D03*
X73246000Y-77424300D03*
X73246000Y-74884300D03*
X73246000Y-72344300D03*
X73246000Y-69804300D03*
X73246000Y-67264300D03*
X73246000Y-64724300D03*
X73246000Y-62184300D03*
X73246000Y-59644300D03*
X73246000Y-57104300D03*
X58006000Y-57104300D03*
X58006000Y-59644300D03*
X58006000Y-62184300D03*
X58006000Y-64724300D03*
X58006000Y-67264300D03*
X58006000Y-69804300D03*
X58006000Y-72344300D03*
X58006000Y-74884300D03*
X58006000Y-77424300D03*
X58006000Y-79964300D03*
X58006000Y-82504300D03*
X58006000Y-85044300D03*
X58006000Y-87584300D03*
X58006000Y-90124300D03*
X58006000Y-92664300D03*
X58006000Y-95204300D03*
X58006000Y-97744300D03*
X58006000Y-100284300D03*
X58006000Y-102824300D03*
X58006000Y-105364300D03*
X58006000Y-107904300D03*
X58006000Y-110444300D03*
X58006000Y-112984300D03*
X58006000Y-115524300D03*
X60546000Y-112984300D03*
X70706000Y-69804300D03*
X68166000Y-69804300D03*
X65626000Y-69804300D03*
X63086000Y-69804300D03*
X60546000Y-69804300D03*
D32*
X70195200Y-109225100D03*
D24*
X70195200Y-106685100D03*
X70195200Y-104145100D03*
X70195200Y-101605100D03*
X70195200Y-99065100D03*
D33*
X60444400Y-102554300D03*
D34*
X62444400Y-102554300D03*
X64444400Y-102554300D03*
X64444400Y-100554300D03*
X62444400Y-100554300D03*
X60444400Y-100554300D03*
X64356000Y-114794300D03*
X66896000Y-114794300D03*
D18*
X160536000Y-84442000D03*
D19*
X160536000Y-86942000D03*
X160536000Y-89442000D03*
X160536000Y-91942000D03*
D35*
X159550000Y-77274000D03*
D19*
X159550000Y-74774000D03*
X159550000Y-72274000D03*
X159550000Y-69774000D03*
D18*
X174976000Y-93030000D03*
D19*
X174976000Y-95530000D03*
X174976000Y-98030000D03*
X174976000Y-100530000D03*
X174976000Y-103030000D03*
D18*
X174948000Y-75031600D03*
D19*
X174948000Y-77531600D03*
X174948000Y-80031600D03*
X174948000Y-82531600D03*
X174948000Y-85031600D03*
D18*
X174746000Y-57198300D03*
D19*
X174746000Y-59698300D03*
X174746000Y-62198300D03*
X174746000Y-64698300D03*
X174746000Y-67198300D03*
D36*
X162618000Y-48983800D03*
D37*
X165158000Y-48983800D03*
X167698000Y-48983800D03*
D36*
X172182000Y-48983800D03*
D37*
X174722000Y-48983800D03*
X177262000Y-48983800D03*
D24*
X159162000Y-103441000D03*
D25*
X161702000Y-103441000D03*
D24*
X158842000Y-57706200D03*
D25*
X161382000Y-57706200D03*
D24*
X159243000Y-98508800D03*
D25*
X161783000Y-98508800D03*
D24*
X158842000Y-62821800D03*
D25*
X161382000Y-62821800D03*
D24*
X59524900Y-45847000D03*
D25*
X59524900Y-48387000D03*
D24*
X59616400Y-41983600D03*
D25*
X59616400Y-39443600D03*
D38*
X53235900Y-75062100D03*
X53235900Y-72522100D03*
X53235900Y-69982100D03*
X53235900Y-67442100D03*
X53235900Y-64902100D03*
X53235900Y-62362100D03*
X53235900Y-59822100D03*
X53235900Y-57282100D03*
D18*
X67355000Y-39840000D03*
D19*
X67355000Y-42340000D03*
X67355000Y-44840000D03*
X67355000Y-47340000D03*
D35*
X43301900Y-102822000D03*
D19*
X43301900Y-100322000D03*
X43301900Y-97822000D03*
X43301900Y-95322000D03*
X43301900Y-92822000D03*
X43301900Y-90322000D03*
D28*
X115956000Y-82128400D03*
D29*
X115956000Y-61638400D03*
D22*
X43398400Y-83276700D03*
D23*
X43398400Y-80776700D03*
D39*
X53533000Y-127808000D03*
D21*
X56033000Y-127808000D03*
X58533000Y-127808000D03*
X61033000Y-127808000D03*
X63533000Y-127808000D03*
D18*
X93837700Y-59047900D03*
D19*
X93837700Y-61547900D03*
X93837700Y-64047900D03*
X93837700Y-66547900D03*
X93837700Y-69047900D03*
D20*
X134850000Y-94750000D03*
D21*
X132350000Y-94750000D03*
X129850000Y-94750000D03*
D20*
X149578000Y-94762300D03*
D21*
X147078000Y-94762300D03*
X144578000Y-94762300D03*
X142078000Y-94762300D03*
D39*
X114206000Y-126794000D03*
D21*
X116706000Y-126794000D03*
X119206000Y-126794000D03*
X121706000Y-126794000D03*
X124206000Y-126794000D03*
D39*
X114206000Y-116634000D03*
D21*
X116706000Y-116634000D03*
X119206000Y-116634000D03*
X121706000Y-116634000D03*
X124206000Y-116634000D03*
D39*
X132066000Y-126794000D03*
D21*
X134566000Y-126794000D03*
X137066000Y-126794000D03*
X139566000Y-126794000D03*
D24*
X133629000Y-118214000D03*
D25*
X131089000Y-118214000D03*
D24*
X139852000Y-118214000D03*
D25*
X137312000Y-118214000D03*
D17*
X80220800Y-86845000D03*
X80220800Y-89385000D03*
X80220800Y-91925000D03*
X80220800Y-94465000D03*
X80220800Y-97005000D03*
X80220800Y-99545000D03*
X80220800Y-102085000D03*
X80220800Y-104625000D03*
X80220800Y-107165000D03*
X80220800Y-109705000D03*
X80220800Y-112245000D03*
X80220800Y-114785000D03*
X80220800Y-117325000D03*
X80220800Y-119865000D03*
X80220800Y-122405000D03*
X105620800Y-122405000D03*
X105620800Y-119865000D03*
X105620800Y-117325000D03*
X105620800Y-114785000D03*
X105620800Y-112245000D03*
X105620800Y-109705000D03*
X105620800Y-107165000D03*
X105620800Y-104625000D03*
X105620800Y-102085000D03*
X105620800Y-99545000D03*
X105620800Y-97005000D03*
X105620800Y-94465000D03*
X105620800Y-91925000D03*
X105620800Y-89385000D03*
X105620800Y-86845000D03*
D39*
X147226000Y-115364000D03*
D21*
X149726000Y-115364000D03*
X152226000Y-115364000D03*
D20*
X123096000Y-107744000D03*
D21*
X120596000Y-107744000D03*
X118096000Y-107744000D03*
X115596000Y-107744000D03*
D39*
X147266000Y-126794000D03*
D21*
X149766000Y-126794000D03*
X152266000Y-126794000D03*
D20*
X139606000Y-107744000D03*
D21*
X137106000Y-107744000D03*
X134606000Y-107744000D03*
X132106000Y-107744000D03*
D24*
X160340000Y-124008000D03*
D25*
X162880000Y-124008000D03*
D24*
X166858000Y-124008000D03*
D25*
X169398000Y-124008000D03*
D24*
X160340000Y-130300000D03*
D25*
X162880000Y-130300000D03*
D24*
X166858000Y-130300000D03*
D25*
X169398000Y-130300000D03*
D22*
X43307000Y-112753000D03*
D23*
X43307000Y-110253000D03*
M02*
