%TF.GenerationSoftware,KiCad,Pcbnew,(6.0.5)*%
%TF.CreationDate,2022-05-13T18:44:48+02:00*%
%TF.ProjectId,Teensy_MainPCB,5465656e-7379-45f4-9d61-696e5043422e,rev?*%
%TF.SameCoordinates,Original*%
%TF.FileFunction,Soldermask,Top*%
%TF.FilePolarity,Negative*%
%FSLAX46Y46*%
G04 Gerber Fmt 4.6, Leading zero omitted, Abs format (unit mm)*
G04 Created by KiCad (PCBNEW (6.0.5)) date 2022-05-13 18:44:48*
%MOMM*%
%LPD*%
G01*
G04 APERTURE LIST*
G04 Aperture macros list*
%AMRoundRect*
0 Rectangle with rounded corners*
0 $1 Rounding radius*
0 $2 $3 $4 $5 $6 $7 $8 $9 X,Y pos of 4 corners*
0 Add a 4 corners polygon primitive as box body*
4,1,4,$2,$3,$4,$5,$6,$7,$8,$9,$2,$3,0*
0 Add four circle primitives for the rounded corners*
1,1,$1+$1,$2,$3*
1,1,$1+$1,$4,$5*
1,1,$1+$1,$6,$7*
1,1,$1+$1,$8,$9*
0 Add four rect primitives between the rounded corners*
20,1,$1+$1,$2,$3,$4,$5,0*
20,1,$1+$1,$4,$5,$6,$7,0*
20,1,$1+$1,$6,$7,$8,$9,0*
20,1,$1+$1,$8,$9,$2,$3,0*%
G04 Aperture macros list end*
%ADD10RoundRect,0.250000X-0.725000X0.600000X-0.725000X-0.600000X0.725000X-0.600000X0.725000X0.600000X0*%
%ADD11O,1.950000X1.700000*%
%ADD12RoundRect,0.250000X0.600000X0.725000X-0.600000X0.725000X-0.600000X-0.725000X0.600000X-0.725000X0*%
%ADD13O,1.700000X1.950000*%
%ADD14RoundRect,0.250000X0.750000X-0.600000X0.750000X0.600000X-0.750000X0.600000X-0.750000X-0.600000X0*%
%ADD15O,2.000000X1.700000*%
%ADD16C,1.600000*%
%ADD17O,1.600000X1.600000*%
%ADD18C,2.000000*%
%ADD19R,2.200000X2.200000*%
%ADD20O,2.200000X2.200000*%
%ADD21R,3.000000X3.000000*%
%ADD22C,3.000000*%
%ADD23C,6.400000*%
%ADD24C,3.600000*%
%ADD25R,1.600000X1.600000*%
%ADD26R,1.300000X1.300000*%
%ADD27C,1.300000*%
%ADD28RoundRect,0.250000X0.725000X-0.600000X0.725000X0.600000X-0.725000X0.600000X-0.725000X-0.600000X0*%
%ADD29R,1.700000X1.700000*%
%ADD30O,1.700000X1.700000*%
%ADD31O,2.268000X1.524000*%
%ADD32RoundRect,0.250000X-0.600000X-0.725000X0.600000X-0.725000X0.600000X0.725000X-0.600000X0.725000X0*%
G04 APERTURE END LIST*
D10*
X101925000Y-39630000D03*
D11*
X101925000Y-42130000D03*
X101925000Y-44630000D03*
X101925000Y-47130000D03*
D10*
X82405000Y-39710000D03*
D11*
X82405000Y-42210000D03*
X82405000Y-44710000D03*
X82405000Y-47210000D03*
D12*
X145646000Y-40627300D03*
D13*
X143146000Y-40627300D03*
X140646000Y-40627300D03*
X138146000Y-40627300D03*
D12*
X159179000Y-40718700D03*
D13*
X156679000Y-40718700D03*
X154179000Y-40718700D03*
D10*
X113715000Y-39670000D03*
D11*
X113715000Y-42170000D03*
X113715000Y-44670000D03*
X113715000Y-47170000D03*
D10*
X125220000Y-39630000D03*
D11*
X125220000Y-42130000D03*
X125220000Y-44630000D03*
X125220000Y-47130000D03*
D12*
X138211000Y-56228100D03*
D13*
X135711000Y-56228100D03*
X133211000Y-56228100D03*
D14*
X43164800Y-122573000D03*
D15*
X43164800Y-120073000D03*
D16*
X133182000Y-66111100D03*
D17*
X133182000Y-63571100D03*
D16*
X138076000Y-66075100D03*
D17*
X138076000Y-63535100D03*
D16*
X146502000Y-66078700D03*
D17*
X146502000Y-63538700D03*
D16*
X151292000Y-65988700D03*
D17*
X151292000Y-63448700D03*
D18*
X173251000Y-111397160D03*
X173251000Y-118996840D03*
D12*
X151234000Y-56228100D03*
D13*
X148734000Y-56228100D03*
X146234000Y-56228100D03*
D19*
X51978600Y-39878000D03*
D20*
X51978600Y-50038000D03*
D21*
X44890000Y-45720000D03*
D22*
X44890000Y-50800000D03*
D10*
X92805000Y-39710000D03*
D11*
X92805000Y-42210000D03*
X92805000Y-44710000D03*
X92805000Y-47210000D03*
D16*
X75293300Y-45974000D03*
D17*
X75293300Y-48514000D03*
D16*
X75293300Y-39989700D03*
D17*
X75293300Y-42529700D03*
D23*
X43000000Y-38000000D03*
D24*
X43000000Y-38000000D03*
D23*
X176000000Y-38000000D03*
D24*
X176000000Y-38000000D03*
X176000000Y-130000000D03*
D23*
X176000000Y-130000000D03*
X43000000Y-130000000D03*
D24*
X43000000Y-130000000D03*
D10*
X81597400Y-58750100D03*
D11*
X81597400Y-61250100D03*
X81597400Y-63750100D03*
X81597400Y-66250100D03*
X81597400Y-68750100D03*
D25*
X73246000Y-115524300D03*
D16*
X73246000Y-112984300D03*
X73246000Y-110444300D03*
X73246000Y-107904300D03*
X73246000Y-105364300D03*
X73246000Y-102824300D03*
X73246000Y-100284300D03*
X73246000Y-97744300D03*
X73246000Y-95204300D03*
X73246000Y-92664300D03*
X73246000Y-90124300D03*
X73246000Y-87584300D03*
X73246000Y-85044300D03*
X73246000Y-82504300D03*
X73246000Y-79964300D03*
X73246000Y-77424300D03*
X73246000Y-74884300D03*
X73246000Y-72344300D03*
X73246000Y-69804300D03*
X73246000Y-67264300D03*
X73246000Y-64724300D03*
X73246000Y-62184300D03*
X73246000Y-59644300D03*
X73246000Y-57104300D03*
X58006000Y-57104300D03*
X58006000Y-59644300D03*
X58006000Y-62184300D03*
X58006000Y-64724300D03*
X58006000Y-67264300D03*
X58006000Y-69804300D03*
X58006000Y-72344300D03*
X58006000Y-74884300D03*
X58006000Y-77424300D03*
X58006000Y-79964300D03*
X58006000Y-82504300D03*
X58006000Y-85044300D03*
X58006000Y-87584300D03*
X58006000Y-90124300D03*
X58006000Y-92664300D03*
X58006000Y-95204300D03*
X58006000Y-97744300D03*
X58006000Y-100284300D03*
X58006000Y-102824300D03*
X58006000Y-105364300D03*
X58006000Y-107904300D03*
X58006000Y-110444300D03*
X58006000Y-112984300D03*
X58006000Y-115524300D03*
X60546000Y-112984300D03*
X70706000Y-69804300D03*
X68166000Y-69804300D03*
X65626000Y-69804300D03*
X63086000Y-69804300D03*
X60546000Y-69804300D03*
D25*
X70195200Y-109225100D03*
D16*
X70195200Y-106685100D03*
X70195200Y-104145100D03*
X70195200Y-101605100D03*
X70195200Y-99065100D03*
D26*
X60444400Y-102554300D03*
D27*
X62444400Y-102554300D03*
X64444400Y-102554300D03*
X64444400Y-100554300D03*
X62444400Y-100554300D03*
X60444400Y-100554300D03*
X64356000Y-114794300D03*
X66896000Y-114794300D03*
D10*
X160536000Y-84442000D03*
D11*
X160536000Y-86942000D03*
X160536000Y-89442000D03*
X160536000Y-91942000D03*
D28*
X159550000Y-77274000D03*
D11*
X159550000Y-74774000D03*
X159550000Y-72274000D03*
X159550000Y-69774000D03*
D10*
X174976000Y-93030000D03*
D11*
X174976000Y-95530000D03*
X174976000Y-98030000D03*
X174976000Y-100530000D03*
X174976000Y-103030000D03*
D10*
X174948000Y-75031600D03*
D11*
X174948000Y-77531600D03*
X174948000Y-80031600D03*
X174948000Y-82531600D03*
X174948000Y-85031600D03*
D10*
X174746000Y-57198300D03*
D11*
X174746000Y-59698300D03*
X174746000Y-62198300D03*
X174746000Y-64698300D03*
X174746000Y-67198300D03*
D29*
X162618000Y-48983800D03*
D30*
X165158000Y-48983800D03*
X167698000Y-48983800D03*
D29*
X172182000Y-48983800D03*
D30*
X174722000Y-48983800D03*
X177262000Y-48983800D03*
D16*
X159162000Y-103441000D03*
D17*
X161702000Y-103441000D03*
D16*
X158842000Y-57706200D03*
D17*
X161382000Y-57706200D03*
D16*
X159243000Y-98508800D03*
D17*
X161783000Y-98508800D03*
D16*
X158842000Y-62821800D03*
D17*
X161382000Y-62821800D03*
D16*
X59524900Y-45847000D03*
D17*
X59524900Y-48387000D03*
D16*
X59616400Y-41983600D03*
D17*
X59616400Y-39443600D03*
D31*
X53235900Y-75062100D03*
X53235900Y-72522100D03*
X53235900Y-69982100D03*
X53235900Y-67442100D03*
X53235900Y-64902100D03*
X53235900Y-62362100D03*
X53235900Y-59822100D03*
X53235900Y-57282100D03*
D10*
X67355000Y-39840000D03*
D11*
X67355000Y-42340000D03*
X67355000Y-44840000D03*
X67355000Y-47340000D03*
D28*
X43301900Y-102822000D03*
D11*
X43301900Y-100322000D03*
X43301900Y-97822000D03*
X43301900Y-95322000D03*
X43301900Y-92822000D03*
X43301900Y-90322000D03*
D21*
X115956000Y-82128400D03*
D22*
X115956000Y-61638400D03*
D14*
X43398400Y-83276700D03*
D15*
X43398400Y-80776700D03*
D32*
X53533000Y-127808000D03*
D13*
X56033000Y-127808000D03*
X58533000Y-127808000D03*
X61033000Y-127808000D03*
X63533000Y-127808000D03*
D10*
X93837700Y-59047900D03*
D11*
X93837700Y-61547900D03*
X93837700Y-64047900D03*
X93837700Y-66547900D03*
X93837700Y-69047900D03*
D12*
X134850000Y-94750000D03*
D13*
X132350000Y-94750000D03*
X129850000Y-94750000D03*
D12*
X149578000Y-94762300D03*
D13*
X147078000Y-94762300D03*
X144578000Y-94762300D03*
X142078000Y-94762300D03*
D32*
X114206000Y-126794000D03*
D13*
X116706000Y-126794000D03*
X119206000Y-126794000D03*
X121706000Y-126794000D03*
X124206000Y-126794000D03*
D32*
X114206000Y-116634000D03*
D13*
X116706000Y-116634000D03*
X119206000Y-116634000D03*
X121706000Y-116634000D03*
X124206000Y-116634000D03*
D32*
X132066000Y-126794000D03*
D13*
X134566000Y-126794000D03*
X137066000Y-126794000D03*
X139566000Y-126794000D03*
D16*
X133629000Y-118214000D03*
D17*
X131089000Y-118214000D03*
D16*
X139852000Y-118214000D03*
D17*
X137312000Y-118214000D03*
D18*
X80220800Y-86845000D03*
X80220800Y-89385000D03*
X80220800Y-91925000D03*
X80220800Y-94465000D03*
X80220800Y-97005000D03*
X80220800Y-99545000D03*
X80220800Y-102085000D03*
X80220800Y-104625000D03*
X80220800Y-107165000D03*
X80220800Y-109705000D03*
X80220800Y-112245000D03*
X80220800Y-114785000D03*
X80220800Y-117325000D03*
X80220800Y-119865000D03*
X80220800Y-122405000D03*
X105620800Y-122405000D03*
X105620800Y-119865000D03*
X105620800Y-117325000D03*
X105620800Y-114785000D03*
X105620800Y-112245000D03*
X105620800Y-109705000D03*
X105620800Y-107165000D03*
X105620800Y-104625000D03*
X105620800Y-102085000D03*
X105620800Y-99545000D03*
X105620800Y-97005000D03*
X105620800Y-94465000D03*
X105620800Y-91925000D03*
X105620800Y-89385000D03*
X105620800Y-86845000D03*
D32*
X147226000Y-115364000D03*
D13*
X149726000Y-115364000D03*
X152226000Y-115364000D03*
D12*
X123096000Y-107744000D03*
D13*
X120596000Y-107744000D03*
X118096000Y-107744000D03*
X115596000Y-107744000D03*
D32*
X147266000Y-126794000D03*
D13*
X149766000Y-126794000D03*
X152266000Y-126794000D03*
D12*
X139606000Y-107744000D03*
D13*
X137106000Y-107744000D03*
X134606000Y-107744000D03*
X132106000Y-107744000D03*
D16*
X160340000Y-124008000D03*
D17*
X162880000Y-124008000D03*
D16*
X166858000Y-124008000D03*
D17*
X169398000Y-124008000D03*
D16*
X160340000Y-130300000D03*
D17*
X162880000Y-130300000D03*
D16*
X166858000Y-130300000D03*
D17*
X169398000Y-130300000D03*
D14*
X43307000Y-112753000D03*
D15*
X43307000Y-110253000D03*
M02*
