%TF.GenerationSoftware,KiCad,Pcbnew,(6.0.5)*%
%TF.CreationDate,2022-12-20T21:12:00+01:00*%
%TF.ProjectId,sender_V1.00,73656e64-6572-45f5-9631-2e30302e6b69,rev?*%
%TF.SameCoordinates,Original*%
%TF.FileFunction,Copper,L2,Bot*%
%TF.FilePolarity,Positive*%
%FSLAX46Y46*%
G04 Gerber Fmt 4.6, Leading zero omitted, Abs format (unit mm)*
G04 Created by KiCad (PCBNEW (6.0.5)) date 2022-12-20 21:12:00*
%MOMM*%
%LPD*%
G01*
G04 APERTURE LIST*
G04 Aperture macros list*
%AMRoundRect*
0 Rectangle with rounded corners*
0 $1 Rounding radius*
0 $2 $3 $4 $5 $6 $7 $8 $9 X,Y pos of 4 corners*
0 Add a 4 corners polygon primitive as box body*
4,1,4,$2,$3,$4,$5,$6,$7,$8,$9,$2,$3,0*
0 Add four circle primitives for the rounded corners*
1,1,$1+$1,$2,$3*
1,1,$1+$1,$4,$5*
1,1,$1+$1,$6,$7*
1,1,$1+$1,$8,$9*
0 Add four rect primitives between the rounded corners*
20,1,$1+$1,$2,$3,$4,$5,0*
20,1,$1+$1,$4,$5,$6,$7,0*
20,1,$1+$1,$6,$7,$8,$9,0*
20,1,$1+$1,$8,$9,$2,$3,0*%
G04 Aperture macros list end*
%TA.AperFunction,ComponentPad*%
%ADD10R,2.000000X1.800000*%
%TD*%
%TA.AperFunction,ComponentPad*%
%ADD11O,2.000000X1.800000*%
%TD*%
%TA.AperFunction,ComponentPad*%
%ADD12O,3.000000X3.000000*%
%TD*%
%TA.AperFunction,ComponentPad*%
%ADD13RoundRect,0.250000X-0.600000X-0.750000X0.600000X-0.750000X0.600000X0.750000X-0.600000X0.750000X0*%
%TD*%
%TA.AperFunction,ComponentPad*%
%ADD14O,1.700000X2.000000*%
%TD*%
%TA.AperFunction,ComponentPad*%
%ADD15RoundRect,0.250000X-0.725000X0.600000X-0.725000X-0.600000X0.725000X-0.600000X0.725000X0.600000X0*%
%TD*%
%TA.AperFunction,ComponentPad*%
%ADD16O,1.950000X1.700000*%
%TD*%
%TA.AperFunction,ComponentPad*%
%ADD17R,1.700000X1.700000*%
%TD*%
%TA.AperFunction,ComponentPad*%
%ADD18O,1.700000X1.700000*%
%TD*%
%TA.AperFunction,ComponentPad*%
%ADD19C,1.600000*%
%TD*%
%TA.AperFunction,ComponentPad*%
%ADD20O,1.600000X1.600000*%
%TD*%
%TA.AperFunction,ComponentPad*%
%ADD21R,2.540000X2.540000*%
%TD*%
%TA.AperFunction,ComponentPad*%
%ADD22RoundRect,0.250000X0.725000X-0.600000X0.725000X0.600000X-0.725000X0.600000X-0.725000X-0.600000X0*%
%TD*%
%TA.AperFunction,ComponentPad*%
%ADD23C,2.000000*%
%TD*%
%TA.AperFunction,ComponentPad*%
%ADD24RoundRect,0.249999X-0.790001X-1.550001X0.790001X-1.550001X0.790001X1.550001X-0.790001X1.550001X0*%
%TD*%
%TA.AperFunction,ComponentPad*%
%ADD25O,2.080000X3.600000*%
%TD*%
%TA.AperFunction,ComponentPad*%
%ADD26RoundRect,0.249999X0.790001X1.550001X-0.790001X1.550001X-0.790001X-1.550001X0.790001X-1.550001X0*%
%TD*%
%TA.AperFunction,ComponentPad*%
%ADD27R,2.000000X2.000000*%
%TD*%
%TA.AperFunction,ViaPad*%
%ADD28C,0.800000*%
%TD*%
%TA.AperFunction,Conductor*%
%ADD29C,0.254000*%
%TD*%
%TA.AperFunction,Conductor*%
%ADD30C,2.000000*%
%TD*%
G04 APERTURE END LIST*
D10*
%TO.P,U1,1,IN+*%
%TO.N,unconnected-(U1-Pad1)*%
X81280000Y-50038000D03*
D11*
%TO.P,U1,2,IN-*%
%TO.N,unconnected-(U1-Pad2)*%
X81280000Y-47498000D03*
%TO.P,U1,3,VBS*%
%TO.N,Net-(DC-DC1-PadI+)*%
X81280000Y-44958000D03*
%TO.P,U1,4,ALE*%
%TO.N,unconnected-(U1-Pad4)*%
X81280000Y-42418000D03*
%TO.P,U1,5,SCL*%
%TO.N,SCL*%
X81280000Y-39878000D03*
%TO.P,U1,6,SDA*%
%TO.N,SDA*%
X81280000Y-37338000D03*
%TO.P,U1,7,GND*%
%TO.N,GND*%
X81280000Y-34798000D03*
%TO.P,U1,8,VCC*%
%TO.N,+3V3*%
X81280000Y-32258000D03*
D12*
%TO.P,U1,9,IN1+*%
%TO.N,Net-(DC-DC1-PadI+)*%
X65405000Y-43053000D03*
%TO.P,U1,10,IN1-*%
%TO.N,Net-(J2-Pad1)*%
X65405000Y-39243000D03*
%TD*%
D13*
%TO.P,J10,1,Pin_1*%
%TO.N,GND*%
X110744000Y-18288000D03*
D14*
%TO.P,J10,2,Pin_2*%
%TO.N,Door_Open*%
X113244000Y-18288000D03*
%TD*%
D15*
%TO.P,J9,1,Pin_1*%
%TO.N,GND*%
X125239000Y-56936000D03*
D16*
%TO.P,J9,2,Pin_2*%
%TO.N,Net-(J9-Pad2)*%
X125239000Y-59436000D03*
%TO.P,J9,3,Pin_3*%
%TO.N,Net-(J9-Pad3)*%
X125239000Y-61936000D03*
%TD*%
D17*
%TO.P,SW1,1,1*%
%TO.N,Net-(J1-Pad1)*%
X59177000Y-88646000D03*
D18*
%TO.P,SW1,2,2*%
%TO.N,Net-(DC-DC1-PadI+)*%
X61717000Y-88646000D03*
%TD*%
D19*
%TO.P,R1,1*%
%TO.N,Net-(J9-Pad2)*%
X126746000Y-51816000D03*
D20*
%TO.P,R1,2*%
%TO.N,RED*%
X126746000Y-41656000D03*
%TD*%
D21*
%TO.P,DC-DC1,I+,IN+*%
%TO.N,Net-(DC-DC1-PadI+)*%
X38285000Y-78510000D03*
%TO.P,DC-DC1,I-,IN-*%
%TO.N,GND*%
X59460000Y-78510000D03*
%TO.P,DC-DC1,O+,OUT+*%
%TO.N,Net-(DC-DC1-PadO+)*%
X38285000Y-27215000D03*
%TO.P,DC-DC1,O-,OUT-*%
%TO.N,GND*%
X59460000Y-27215000D03*
%TD*%
D22*
%TO.P,J12,1,Pin_1*%
%TO.N,SDA*%
X86868000Y-25400000D03*
D16*
%TO.P,J12,2,Pin_2*%
%TO.N,SCL*%
X86868000Y-22900000D03*
%TO.P,J12,3,Pin_3*%
%TO.N,GND*%
X86868000Y-20400000D03*
%TO.P,J12,4,Pin_4*%
%TO.N,+3V3*%
X86868000Y-17900000D03*
%TD*%
D10*
%TO.P,U3,1,IN+*%
%TO.N,unconnected-(U3-Pad1)*%
X65024000Y-56134000D03*
D11*
%TO.P,U3,2,IN-*%
%TO.N,unconnected-(U3-Pad2)*%
X65024000Y-58674000D03*
%TO.P,U3,3,VBS*%
%TO.N,Net-(DC-DC1-PadO+)*%
X65024000Y-61214000D03*
%TO.P,U3,4,ALE*%
%TO.N,unconnected-(U3-Pad4)*%
X65024000Y-63754000D03*
%TO.P,U3,5,SCL*%
%TO.N,SCL*%
X65024000Y-66294000D03*
%TO.P,U3,6,SDA*%
%TO.N,SDA*%
X65024000Y-68834000D03*
%TO.P,U3,7,GND*%
%TO.N,GND*%
X65024000Y-71374000D03*
%TO.P,U3,8,VCC*%
%TO.N,+3V3*%
X65024000Y-73914000D03*
D12*
%TO.P,U3,9,IN1+*%
%TO.N,Net-(DC-DC1-PadO+)*%
X80899000Y-63119000D03*
%TO.P,U3,10,IN1-*%
%TO.N,Net-(J3-Pad1)*%
X80899000Y-66929000D03*
%TD*%
D23*
%TO.P,U2,1,EN*%
%TO.N,unconnected-(U2-Pad1)*%
X90932000Y-37338000D03*
%TO.P,U2,2,VP*%
%TO.N,unconnected-(U2-Pad2)*%
X90932000Y-39878000D03*
%TO.P,U2,3,VN*%
%TO.N,unconnected-(U2-Pad3)*%
X90932000Y-42418000D03*
%TO.P,U2,4,GPIO34_ADC1-CH6_RTC-GPIO4*%
%TO.N,Door_Open*%
X90932000Y-44958000D03*
%TO.P,U2,5,GPIO35_ADC1-CH7_RTC-GPIO5*%
%TO.N,Door_Closed*%
X90932000Y-47498000D03*
%TO.P,U2,6,GPIO32_ADC1-CH4_RTC-GPIO9*%
%TO.N,D0*%
X90932000Y-50038000D03*
%TO.P,U2,7,GPIO33_ADC1-CH5_RTC-GPIO8*%
%TO.N,unconnected-(U2-Pad7)*%
X90932000Y-52578000D03*
%TO.P,U2,8,GPIO25_ADC2-CH8_DAC1_RTC-GPIO6*%
%TO.N,Green*%
X90932000Y-55118000D03*
%TO.P,U2,9,GPIO26_ADC2-CH9_DAC2_RTC-GPIO7*%
%TO.N,RED*%
X90932000Y-57658000D03*
%TO.P,U2,10,GPIO27_ADC2-CH7_RTC-GPIO17*%
%TO.N,unconnected-(U2-Pad10)*%
X90932000Y-60198000D03*
%TO.P,U2,11,GPIO14_ADC2-CH6_HSPI-CLK_RTC-GPIO16*%
%TO.N,Input_3*%
X90932000Y-62738000D03*
%TO.P,U2,12,GPIO12_ADC2-CH5_HSPI-MISO_RTC-GPIO15*%
%TO.N,Input_1*%
X90932000Y-65278000D03*
%TO.P,U2,13,GPIO13_ADC2-CH4_HSPI-MOSI_RTC-GPIO14*%
%TO.N,Input_2*%
X90932000Y-67818000D03*
%TO.P,U2,14,GND*%
%TO.N,GND*%
X90932000Y-70358000D03*
%TO.P,U2,15,VIN*%
%TO.N,Net-(U2-Pad15)*%
X90932000Y-72898000D03*
%TO.P,U2,16,3V3*%
%TO.N,+3V3*%
X116332000Y-72898000D03*
%TO.P,U2,17,GND*%
%TO.N,GND*%
X116332000Y-70358000D03*
%TO.P,U2,18,GPIO15_ADC2-CH3_HSPI-CS0_RTC-GPIO13*%
%TO.N,unconnected-(U2-Pad18)*%
X116332000Y-67818000D03*
%TO.P,U2,19,GPIO2_ADC2-CH2_RTC-GPIO12*%
%TO.N,unconnected-(U2-Pad19)*%
X116332000Y-65278000D03*
%TO.P,U2,20,GPIO4_ADC2-CH0_RTC-GPIO10*%
%TO.N,unconnected-(U2-Pad20)*%
X116332000Y-62738000D03*
%TO.P,U2,21,RX2*%
%TO.N,unconnected-(U2-Pad21)*%
X116332000Y-60198000D03*
%TO.P,U2,22,TX2*%
%TO.N,unconnected-(U2-Pad22)*%
X116332000Y-57658000D03*
%TO.P,U2,23,GPIO5_VSPI-CS0*%
%TO.N,unconnected-(U2-Pad23)*%
X116332000Y-55118000D03*
%TO.P,U2,24,GPIO18_VSPI-CLK*%
%TO.N,Input_4*%
X116332000Y-52578000D03*
%TO.P,U2,25,GPIO19_VSPI-MISO*%
%TO.N,Enable_B*%
X116332000Y-50038000D03*
%TO.P,U2,26,GPIO21_I2C-SDA*%
%TO.N,SDA*%
X116332000Y-47498000D03*
%TO.P,U2,27,GPIO3__UART0-RX*%
%TO.N,unconnected-(U2-Pad27)*%
X116332000Y-44958000D03*
%TO.P,U2,28,GPIO1_UART0-TX*%
%TO.N,unconnected-(U2-Pad28)*%
X116332000Y-42418000D03*
%TO.P,U2,29,GPIO22_I2C-SCL*%
%TO.N,SCL*%
X116332000Y-39878000D03*
%TO.P,U2,30,GPIO23_VSPI-MOSI*%
%TO.N,Enable_A*%
X116332000Y-37338000D03*
%TD*%
D15*
%TO.P,J5,1,Pin_1*%
%TO.N,Enable_B*%
X115587000Y-84368000D03*
D16*
%TO.P,J5,2,Pin_2*%
%TO.N,Input_4*%
X115587000Y-86868000D03*
%TO.P,J5,3,Pin_3*%
%TO.N,Input_3*%
X115587000Y-89368000D03*
%TD*%
D15*
%TO.P,J6,1,Pin_1*%
%TO.N,Enable_A*%
X97807000Y-84368000D03*
D16*
%TO.P,J6,2,Pin_2*%
%TO.N,Input_1*%
X97807000Y-86868000D03*
%TO.P,J6,3,Pin_3*%
%TO.N,Input_2*%
X97807000Y-89368000D03*
%TD*%
D22*
%TO.P,J7,1,Pin_1*%
%TO.N,SDA*%
X77707000Y-25340000D03*
D16*
%TO.P,J7,2,Pin_2*%
%TO.N,SCL*%
X77707000Y-22840000D03*
%TO.P,J7,3,Pin_3*%
%TO.N,GND*%
X77707000Y-20340000D03*
%TO.P,J7,4,Pin_4*%
%TO.N,+3V3*%
X77707000Y-17840000D03*
%TD*%
D22*
%TO.P,J4,1,Pin_1*%
%TO.N,SDA*%
X68817000Y-25340000D03*
D16*
%TO.P,J4,2,Pin_2*%
%TO.N,SCL*%
X68817000Y-22840000D03*
%TO.P,J4,3,Pin_3*%
%TO.N,GND*%
X68817000Y-20340000D03*
%TO.P,J4,4,Pin_4*%
%TO.N,+3V3*%
X68817000Y-17840000D03*
%TD*%
D24*
%TO.P,J2,1,Pin_1*%
%TO.N,Net-(J2-Pad1)*%
X47752000Y-20828000D03*
D25*
%TO.P,J2,2,Pin_2*%
%TO.N,GND*%
X52832000Y-20828000D03*
%TD*%
D26*
%TO.P,J1,1,Pin_1*%
%TO.N,Net-(J1-Pad1)*%
X51816000Y-85129500D03*
D25*
%TO.P,J1,2,Pin_2*%
%TO.N,GND*%
X46736000Y-85129500D03*
%TD*%
D26*
%TO.P,J3,1,Pin_1*%
%TO.N,Net-(J3-Pad1)*%
X75184000Y-85129500D03*
D25*
%TO.P,J3,2,Pin_2*%
%TO.N,GND*%
X70104000Y-85129500D03*
%TD*%
D19*
%TO.P,R2,1*%
%TO.N,Net-(J9-Pad3)*%
X122174000Y-51816000D03*
D20*
%TO.P,R2,2*%
%TO.N,Green*%
X122174000Y-41656000D03*
%TD*%
D15*
%TO.P,J8,1,Pin_1*%
%TO.N,+3V3*%
X100601000Y-18328000D03*
D16*
%TO.P,J8,2,Pin_2*%
%TO.N,GND*%
X100601000Y-20828000D03*
%TO.P,J8,3,Pin_3*%
%TO.N,D0*%
X100601000Y-23328000D03*
%TD*%
D27*
%TO.P,U4,1,IN*%
%TO.N,Net-(DC-DC1-PadO+)*%
X86106000Y-88392000D03*
D23*
%TO.P,U4,2,GND*%
%TO.N,GND*%
X86106000Y-85852000D03*
%TO.P,U4,3,OUT*%
%TO.N,Net-(U2-Pad15)*%
X86106000Y-83312000D03*
%TD*%
D13*
%TO.P,J11,1,Pin_1*%
%TO.N,GND*%
X120924000Y-18271000D03*
D14*
%TO.P,J11,2,Pin_2*%
%TO.N,Door_Closed*%
X123424000Y-18271000D03*
%TD*%
D28*
%TO.N,Enable_A*%
X103397000Y-74581700D03*
%TD*%
D29*
%TO.N,SDA*%
X68817000Y-65041000D02*
X68817000Y-25340000D01*
X65024000Y-68834000D02*
X68817000Y-65041000D01*
%TO.N,SCL*%
X68817000Y-22840000D02*
X68817000Y-24071300D01*
X86868000Y-22900000D02*
X86868000Y-24131300D01*
X68817000Y-24071300D02*
X67816600Y-24071300D01*
X85867600Y-24131300D02*
X84219200Y-25779700D01*
X67447000Y-63871000D02*
X65024000Y-66294000D01*
X67447000Y-24440900D02*
X67447000Y-63871000D01*
X84219200Y-36938800D02*
X81280000Y-39878000D01*
X86868000Y-24131300D02*
X85867600Y-24131300D01*
X84219200Y-25779700D02*
X84219200Y-36938800D01*
X67816600Y-24071300D02*
X67447000Y-24440900D01*
%TO.N,GND*%
X87364600Y-20400000D02*
X86868000Y-20400000D01*
%TO.N,+3V3*%
X72943200Y-40594800D02*
X72943200Y-65994800D01*
X81280000Y-32258000D02*
X72943200Y-40594800D01*
X72943200Y-65994800D02*
X65024000Y-73914000D01*
%TO.N,Enable_B*%
X117778000Y-82177000D02*
X117778000Y-51484000D01*
X117778000Y-51484000D02*
X116332000Y-50038000D01*
X115587000Y-84368000D02*
X117778000Y-82177000D01*
%TO.N,Input_4*%
X114202400Y-54707600D02*
X116332000Y-52578000D01*
X115587000Y-85636700D02*
X114586600Y-85636700D01*
X114202400Y-85252500D02*
X114202400Y-54707600D01*
X115587000Y-86868000D02*
X115587000Y-85636700D01*
X114586600Y-85636700D02*
X114202400Y-85252500D01*
%TO.N,Input_3*%
X90932000Y-63221400D02*
X105894900Y-78184300D01*
X114971400Y-88136700D02*
X115587000Y-88136700D01*
X105894900Y-79060200D02*
X114971400Y-88136700D01*
X90932000Y-62738000D02*
X90932000Y-63221400D01*
X115587000Y-89368000D02*
X115587000Y-88136700D01*
X105894900Y-78184300D02*
X105894900Y-79060200D01*
%TO.N,Enable_A*%
X103397000Y-50273000D02*
X116332000Y-37338000D01*
X103397000Y-74581700D02*
X103397000Y-50273000D01*
%TO.N,Input_1*%
X97807000Y-85636700D02*
X96806600Y-85636700D01*
X97807000Y-86868000D02*
X97807000Y-85636700D01*
X96426900Y-70772900D02*
X90932000Y-65278000D01*
X96426900Y-85257000D02*
X96426900Y-70772900D01*
X96806600Y-85636700D02*
X96426900Y-85257000D01*
%TO.N,Input_2*%
X92631500Y-69517500D02*
X90932000Y-67818000D01*
X97191400Y-88136700D02*
X92631500Y-83576800D01*
X97807000Y-89368000D02*
X97807000Y-88136700D01*
X92631500Y-83576800D02*
X92631500Y-69517500D01*
X97807000Y-88136700D02*
X97191400Y-88136700D01*
%TO.N,D0*%
X100601000Y-24559300D02*
X89508800Y-35651500D01*
X89508800Y-48614800D02*
X90932000Y-50038000D01*
X100601000Y-23328000D02*
X100601000Y-24559300D01*
X89508800Y-35651500D02*
X89508800Y-48614800D01*
%TO.N,Door_Closed*%
X123424000Y-18271000D02*
X122192700Y-18271000D01*
X122192700Y-18271000D02*
X122192700Y-19271400D01*
X93966100Y-47498000D02*
X90932000Y-47498000D01*
X122192700Y-19271400D02*
X93966100Y-47498000D01*
%TO.N,Door_Open*%
X113244000Y-22646000D02*
X113244000Y-18288000D01*
X90932000Y-44958000D02*
X113244000Y-22646000D01*
D30*
%TO.N,Net-(DC-DC1-PadO+)*%
X38285000Y-42857000D02*
X38285000Y-27215000D01*
X65024000Y-61214000D02*
X56642000Y-61214000D01*
X56642000Y-61214000D02*
X38285000Y-42857000D01*
D29*
%TO.N,RED*%
X112639900Y-35950100D02*
X116897700Y-35950100D01*
X90932000Y-57658000D02*
X112639900Y-35950100D01*
X116897700Y-35950100D02*
X119624600Y-38677000D01*
X121680700Y-42837600D02*
X124383100Y-42837600D01*
X126746000Y-41656000D02*
X125564700Y-41656000D01*
X119624600Y-38677000D02*
X119624600Y-40781500D01*
X119624600Y-40781500D02*
X121680700Y-42837600D01*
X124383100Y-42837600D02*
X125564700Y-41656000D01*
%TO.N,Green*%
X117141000Y-35441700D02*
X110608300Y-35441700D01*
X122174000Y-40474700D02*
X117141000Y-35441700D01*
X122174000Y-41656000D02*
X122174000Y-40474700D01*
X110608300Y-35441700D02*
X90932000Y-55118000D01*
%TO.N,Net-(J9-Pad2)*%
X126746000Y-57705500D02*
X126246800Y-58204700D01*
X126746000Y-51816000D02*
X126746000Y-57705500D01*
X126246800Y-58204700D02*
X125239000Y-58204700D01*
X125239000Y-59436000D02*
X125239000Y-58204700D01*
%TO.N,Net-(J9-Pad3)*%
X124603800Y-60704700D02*
X125239000Y-60704700D01*
X122174000Y-58274900D02*
X124603800Y-60704700D01*
X125239000Y-61936000D02*
X125239000Y-60704700D01*
X122174000Y-51816000D02*
X122174000Y-58274900D01*
%TD*%
%TA.AperFunction,Conductor*%
%TO.N,GND*%
G36*
X63335152Y-12776369D02*
G01*
X129921834Y-12952992D01*
X129989902Y-12973175D01*
X130036252Y-13026954D01*
X130047500Y-13078992D01*
X130047500Y-92837500D01*
X130027498Y-92905621D01*
X129973842Y-92952114D01*
X129921500Y-92963500D01*
X34924500Y-92963500D01*
X34856379Y-92943498D01*
X34809886Y-92889842D01*
X34798500Y-92837500D01*
X34798500Y-88270703D01*
X36498743Y-88270703D01*
X36536268Y-88555734D01*
X36612129Y-88833036D01*
X36613813Y-88836984D01*
X36657337Y-88939023D01*
X36724923Y-89097476D01*
X36736693Y-89117142D01*
X36856972Y-89318113D01*
X36872561Y-89344161D01*
X37052313Y-89568528D01*
X37112225Y-89625382D01*
X37249089Y-89755261D01*
X37260851Y-89766423D01*
X37494317Y-89934186D01*
X37498112Y-89936195D01*
X37498113Y-89936196D01*
X37539346Y-89958028D01*
X37748392Y-90068712D01*
X38018373Y-90167511D01*
X38299264Y-90228755D01*
X38327841Y-90231004D01*
X38522282Y-90246307D01*
X38522291Y-90246307D01*
X38524739Y-90246500D01*
X38680271Y-90246500D01*
X38682407Y-90246354D01*
X38682418Y-90246354D01*
X38890548Y-90232165D01*
X38890554Y-90232164D01*
X38894825Y-90231873D01*
X38899020Y-90231004D01*
X38899022Y-90231004D01*
X39049942Y-90199750D01*
X39176342Y-90173574D01*
X39447343Y-90077607D01*
X39702812Y-89945750D01*
X39706313Y-89943289D01*
X39706317Y-89943287D01*
X39825873Y-89859261D01*
X39938023Y-89780441D01*
X40110745Y-89619938D01*
X40145479Y-89587661D01*
X40145481Y-89587658D01*
X40148622Y-89584740D01*
X40181858Y-89544134D01*
X57818500Y-89544134D01*
X57825255Y-89606316D01*
X57876385Y-89742705D01*
X57963739Y-89859261D01*
X58080295Y-89946615D01*
X58216684Y-89997745D01*
X58278866Y-90004500D01*
X60075134Y-90004500D01*
X60137316Y-89997745D01*
X60273705Y-89946615D01*
X60390261Y-89859261D01*
X60477615Y-89742705D01*
X60519755Y-89630297D01*
X60521598Y-89625382D01*
X60564240Y-89568618D01*
X60630802Y-89543918D01*
X60700150Y-89559126D01*
X60734817Y-89587114D01*
X60763250Y-89619938D01*
X60818577Y-89665871D01*
X60926248Y-89755261D01*
X60935126Y-89762632D01*
X61128000Y-89875338D01*
X61132825Y-89877180D01*
X61132826Y-89877181D01*
X61205612Y-89904975D01*
X61336692Y-89955030D01*
X61341760Y-89956061D01*
X61341763Y-89956062D01*
X61431018Y-89974221D01*
X61555597Y-89999567D01*
X61560772Y-89999757D01*
X61560774Y-89999757D01*
X61773673Y-90007564D01*
X61773677Y-90007564D01*
X61778837Y-90007753D01*
X61783957Y-90007097D01*
X61783959Y-90007097D01*
X61995288Y-89980025D01*
X61995289Y-89980025D01*
X62000416Y-89979368D01*
X62034121Y-89969256D01*
X62209429Y-89916661D01*
X62209434Y-89916659D01*
X62214384Y-89915174D01*
X62414994Y-89816896D01*
X62596860Y-89687173D01*
X62623353Y-89660773D01*
X62740616Y-89543918D01*
X62755096Y-89529489D01*
X62885453Y-89348077D01*
X62957727Y-89201842D01*
X62982136Y-89152453D01*
X62982137Y-89152451D01*
X62984430Y-89147811D01*
X63049370Y-88934069D01*
X63078529Y-88712590D01*
X63079953Y-88654297D01*
X63080074Y-88649365D01*
X63080074Y-88649361D01*
X63080156Y-88646000D01*
X63061852Y-88423361D01*
X63007431Y-88206702D01*
X62918354Y-88001840D01*
X62797014Y-87814277D01*
X62646670Y-87649051D01*
X62642619Y-87645852D01*
X62642615Y-87645848D01*
X62475414Y-87513800D01*
X62475410Y-87513798D01*
X62471359Y-87510598D01*
X62275789Y-87402638D01*
X62270920Y-87400914D01*
X62270916Y-87400912D01*
X62070087Y-87329795D01*
X62070083Y-87329794D01*
X62065212Y-87328069D01*
X62060119Y-87327162D01*
X62060116Y-87327161D01*
X61850373Y-87289800D01*
X61850367Y-87289799D01*
X61845284Y-87288894D01*
X61771452Y-87287992D01*
X61627081Y-87286228D01*
X61627079Y-87286228D01*
X61621911Y-87286165D01*
X61401091Y-87319955D01*
X61188756Y-87389357D01*
X60990607Y-87492507D01*
X60986474Y-87495610D01*
X60986471Y-87495612D01*
X60816100Y-87623530D01*
X60811965Y-87626635D01*
X60743200Y-87698594D01*
X60731283Y-87711064D01*
X60669759Y-87746494D01*
X60598846Y-87743037D01*
X60541060Y-87701791D01*
X60522207Y-87668243D01*
X60480767Y-87557703D01*
X60477615Y-87549295D01*
X60390261Y-87432739D01*
X60273705Y-87345385D01*
X60137316Y-87294255D01*
X60075134Y-87287500D01*
X58278866Y-87287500D01*
X58216684Y-87294255D01*
X58080295Y-87345385D01*
X57963739Y-87432739D01*
X57876385Y-87549295D01*
X57825255Y-87685684D01*
X57818500Y-87747866D01*
X57818500Y-89544134D01*
X40181858Y-89544134D01*
X40330713Y-89362268D01*
X40480927Y-89117142D01*
X40495960Y-89082897D01*
X40594757Y-88857830D01*
X40596483Y-88853898D01*
X40609064Y-88809734D01*
X40674068Y-88581534D01*
X40675244Y-88577406D01*
X40715751Y-88292784D01*
X40715845Y-88274951D01*
X40717235Y-88009583D01*
X40717235Y-88009576D01*
X40717257Y-88005297D01*
X40716230Y-87997492D01*
X40691606Y-87810457D01*
X40679732Y-87720266D01*
X40670272Y-87685684D01*
X40643126Y-87586458D01*
X40603871Y-87442964D01*
X40554864Y-87328069D01*
X40492763Y-87182476D01*
X40492761Y-87182472D01*
X40491077Y-87178524D01*
X40405730Y-87035919D01*
X40345643Y-86935521D01*
X40345640Y-86935517D01*
X40343439Y-86931839D01*
X40163687Y-86707472D01*
X39990325Y-86542958D01*
X39958258Y-86512527D01*
X39958255Y-86512525D01*
X39955149Y-86509577D01*
X39721683Y-86341814D01*
X39699843Y-86330250D01*
X39646786Y-86302158D01*
X39467608Y-86207288D01*
X39327842Y-86156141D01*
X39201658Y-86109964D01*
X39201656Y-86109963D01*
X39197627Y-86108489D01*
X38916736Y-86047245D01*
X38885685Y-86044801D01*
X38693718Y-86029693D01*
X38693709Y-86029693D01*
X38691261Y-86029500D01*
X38535729Y-86029500D01*
X38533593Y-86029646D01*
X38533582Y-86029646D01*
X38325452Y-86043835D01*
X38325446Y-86043836D01*
X38321175Y-86044127D01*
X38316980Y-86044996D01*
X38316978Y-86044996D01*
X38241373Y-86060653D01*
X38039658Y-86102426D01*
X37768657Y-86198393D01*
X37764848Y-86200359D01*
X37645849Y-86261779D01*
X37513188Y-86330250D01*
X37509687Y-86332711D01*
X37509683Y-86332713D01*
X37436183Y-86384370D01*
X37277977Y-86495559D01*
X37067378Y-86691260D01*
X36885287Y-86913732D01*
X36735073Y-87158858D01*
X36733347Y-87162791D01*
X36733346Y-87162792D01*
X36678441Y-87287869D01*
X36619517Y-87422102D01*
X36618342Y-87426229D01*
X36618341Y-87426230D01*
X36617837Y-87427998D01*
X36540756Y-87698594D01*
X36510485Y-87911296D01*
X36505195Y-87948466D01*
X36500249Y-87983216D01*
X36500227Y-87987505D01*
X36500226Y-87987512D01*
X36498780Y-88263583D01*
X36498743Y-88270703D01*
X34798500Y-88270703D01*
X34798500Y-85949572D01*
X45188000Y-85949572D01*
X45188202Y-85954604D01*
X45202536Y-86132759D01*
X45204148Y-86142712D01*
X45261154Y-86374800D01*
X45264337Y-86384370D01*
X45357718Y-86604360D01*
X45362392Y-86613299D01*
X45489739Y-86815524D01*
X45495780Y-86823599D01*
X45653827Y-87002868D01*
X45661079Y-87009871D01*
X45845750Y-87161562D01*
X45854033Y-87167318D01*
X46060579Y-87287531D01*
X46069684Y-87291893D01*
X46292785Y-87377534D01*
X46302474Y-87380385D01*
X46464264Y-87414185D01*
X46478325Y-87413062D01*
X46482000Y-87402954D01*
X46482000Y-87400358D01*
X46990000Y-87400358D01*
X46994136Y-87414444D01*
X47007114Y-87416493D01*
X47032631Y-87413540D01*
X47042521Y-87411581D01*
X47272476Y-87346511D01*
X47281927Y-87342997D01*
X47498528Y-87241994D01*
X47507292Y-87237015D01*
X47704951Y-87102686D01*
X47712815Y-87096362D01*
X47886451Y-86932164D01*
X47893210Y-86924657D01*
X48038357Y-86734812D01*
X48043821Y-86726333D01*
X48156752Y-86515717D01*
X48160792Y-86506471D01*
X48238596Y-86280513D01*
X48241107Y-86270732D01*
X48281969Y-86034166D01*
X48282824Y-86026294D01*
X48283936Y-86001815D01*
X48284000Y-85998982D01*
X48284000Y-85401615D01*
X48279525Y-85386376D01*
X48278135Y-85385171D01*
X48270452Y-85383500D01*
X47008115Y-85383500D01*
X46992876Y-85387975D01*
X46991671Y-85389365D01*
X46990000Y-85397048D01*
X46990000Y-87400358D01*
X46482000Y-87400358D01*
X46482000Y-85401615D01*
X46477525Y-85386376D01*
X46476135Y-85385171D01*
X46468452Y-85383500D01*
X45206115Y-85383500D01*
X45190876Y-85387975D01*
X45189671Y-85389365D01*
X45188000Y-85397048D01*
X45188000Y-85949572D01*
X34798500Y-85949572D01*
X34798500Y-84857385D01*
X45188000Y-84857385D01*
X45192475Y-84872624D01*
X45193865Y-84873829D01*
X45201548Y-84875500D01*
X46463885Y-84875500D01*
X46479124Y-84871025D01*
X46480329Y-84869635D01*
X46482000Y-84861952D01*
X46482000Y-84857385D01*
X46990000Y-84857385D01*
X46994475Y-84872624D01*
X46995865Y-84873829D01*
X47003548Y-84875500D01*
X48265885Y-84875500D01*
X48281124Y-84871025D01*
X48282329Y-84869635D01*
X48284000Y-84861952D01*
X48284000Y-84309428D01*
X48283798Y-84304396D01*
X48269464Y-84126241D01*
X48267852Y-84116288D01*
X48210846Y-83884200D01*
X48207663Y-83874630D01*
X48114282Y-83654640D01*
X48109608Y-83645701D01*
X48036180Y-83529099D01*
X50267500Y-83529099D01*
X50267501Y-86729900D01*
X50278474Y-86835667D01*
X50280658Y-86842213D01*
X50331730Y-86995292D01*
X50334450Y-87003446D01*
X50427521Y-87153849D01*
X50432703Y-87159022D01*
X50490879Y-87217097D01*
X50552697Y-87278806D01*
X50566852Y-87287531D01*
X50655595Y-87342233D01*
X50703261Y-87371615D01*
X50783004Y-87398064D01*
X50864610Y-87425132D01*
X50864612Y-87425132D01*
X50871138Y-87427297D01*
X50877974Y-87427997D01*
X50877977Y-87427998D01*
X50921030Y-87432409D01*
X50975599Y-87438000D01*
X51809519Y-87438000D01*
X52656400Y-87437999D01*
X52762167Y-87427026D01*
X52835266Y-87402638D01*
X52923002Y-87373367D01*
X52923004Y-87373366D01*
X52929946Y-87371050D01*
X53080349Y-87277979D01*
X53205306Y-87152803D01*
X53298115Y-87002239D01*
X53353797Y-86834362D01*
X53364500Y-86729901D01*
X53364500Y-85949572D01*
X68556000Y-85949572D01*
X68556202Y-85954604D01*
X68570536Y-86132759D01*
X68572148Y-86142712D01*
X68629154Y-86374800D01*
X68632337Y-86384370D01*
X68725718Y-86604360D01*
X68730392Y-86613299D01*
X68857739Y-86815524D01*
X68863780Y-86823599D01*
X69021827Y-87002868D01*
X69029079Y-87009871D01*
X69213750Y-87161562D01*
X69222033Y-87167318D01*
X69428579Y-87287531D01*
X69437684Y-87291893D01*
X69660785Y-87377534D01*
X69670474Y-87380385D01*
X69832264Y-87414185D01*
X69846325Y-87413062D01*
X69850000Y-87402954D01*
X69850000Y-87400358D01*
X70358000Y-87400358D01*
X70362136Y-87414444D01*
X70375114Y-87416493D01*
X70400631Y-87413540D01*
X70410521Y-87411581D01*
X70640476Y-87346511D01*
X70649927Y-87342997D01*
X70866528Y-87241994D01*
X70875292Y-87237015D01*
X71072951Y-87102686D01*
X71080815Y-87096362D01*
X71254451Y-86932164D01*
X71261210Y-86924657D01*
X71406357Y-86734812D01*
X71411821Y-86726333D01*
X71524752Y-86515717D01*
X71528792Y-86506471D01*
X71606596Y-86280513D01*
X71609107Y-86270732D01*
X71649969Y-86034166D01*
X71650824Y-86026294D01*
X71651936Y-86001815D01*
X71652000Y-85998982D01*
X71652000Y-85401615D01*
X71647525Y-85386376D01*
X71646135Y-85385171D01*
X71638452Y-85383500D01*
X70376115Y-85383500D01*
X70360876Y-85387975D01*
X70359671Y-85389365D01*
X70358000Y-85397048D01*
X70358000Y-87400358D01*
X69850000Y-87400358D01*
X69850000Y-85401615D01*
X69845525Y-85386376D01*
X69844135Y-85385171D01*
X69836452Y-85383500D01*
X68574115Y-85383500D01*
X68558876Y-85387975D01*
X68557671Y-85389365D01*
X68556000Y-85397048D01*
X68556000Y-85949572D01*
X53364500Y-85949572D01*
X53364499Y-84857385D01*
X68556000Y-84857385D01*
X68560475Y-84872624D01*
X68561865Y-84873829D01*
X68569548Y-84875500D01*
X69831885Y-84875500D01*
X69847124Y-84871025D01*
X69848329Y-84869635D01*
X69850000Y-84861952D01*
X69850000Y-84857385D01*
X70358000Y-84857385D01*
X70362475Y-84872624D01*
X70363865Y-84873829D01*
X70371548Y-84875500D01*
X71633885Y-84875500D01*
X71649124Y-84871025D01*
X71650329Y-84869635D01*
X71652000Y-84861952D01*
X71652000Y-84309428D01*
X71651798Y-84304396D01*
X71637464Y-84126241D01*
X71635852Y-84116288D01*
X71578846Y-83884200D01*
X71575663Y-83874630D01*
X71482282Y-83654640D01*
X71477608Y-83645701D01*
X71404180Y-83529099D01*
X73635500Y-83529099D01*
X73635501Y-86729900D01*
X73646474Y-86835667D01*
X73648658Y-86842213D01*
X73699730Y-86995292D01*
X73702450Y-87003446D01*
X73795521Y-87153849D01*
X73800703Y-87159022D01*
X73858879Y-87217097D01*
X73920697Y-87278806D01*
X73934852Y-87287531D01*
X74023595Y-87342233D01*
X74071261Y-87371615D01*
X74151004Y-87398064D01*
X74232610Y-87425132D01*
X74232612Y-87425132D01*
X74239138Y-87427297D01*
X74245974Y-87427997D01*
X74245977Y-87427998D01*
X74289030Y-87432409D01*
X74343599Y-87438000D01*
X75177519Y-87438000D01*
X76024400Y-87437999D01*
X76130167Y-87427026D01*
X76203266Y-87402638D01*
X76291002Y-87373367D01*
X76291004Y-87373366D01*
X76297946Y-87371050D01*
X76448349Y-87277979D01*
X76573306Y-87152803D01*
X76666115Y-87002239D01*
X76721797Y-86834362D01*
X76732500Y-86729901D01*
X76732500Y-85856930D01*
X84593725Y-85856930D01*
X84611572Y-86083699D01*
X84613115Y-86093446D01*
X84666217Y-86314627D01*
X84669266Y-86324012D01*
X84756313Y-86534163D01*
X84760795Y-86542958D01*
X84879643Y-86736899D01*
X84885443Y-86744883D01*
X84891619Y-86752114D01*
X84920651Y-86816904D01*
X84910047Y-86887104D01*
X84863823Y-86939688D01*
X84859295Y-86941385D01*
X84852110Y-86946770D01*
X84852108Y-86946771D01*
X84787367Y-86995292D01*
X84742739Y-87028739D01*
X84655385Y-87145295D01*
X84604255Y-87281684D01*
X84597500Y-87343866D01*
X84597500Y-89440134D01*
X84604255Y-89502316D01*
X84655385Y-89638705D01*
X84742739Y-89755261D01*
X84859295Y-89842615D01*
X84995684Y-89893745D01*
X85057866Y-89900500D01*
X87154134Y-89900500D01*
X87216316Y-89893745D01*
X87352705Y-89842615D01*
X87469261Y-89755261D01*
X87556615Y-89638705D01*
X87607745Y-89502316D01*
X87614500Y-89440134D01*
X87614500Y-87343866D01*
X87607745Y-87281684D01*
X87556615Y-87145295D01*
X87469261Y-87028739D01*
X87424633Y-86995292D01*
X87359892Y-86946771D01*
X87359890Y-86946770D01*
X87352705Y-86941385D01*
X87352550Y-86941327D01*
X87305537Y-86894209D01*
X87290522Y-86824818D01*
X87315406Y-86758325D01*
X87320381Y-86752114D01*
X87326557Y-86744883D01*
X87332357Y-86736899D01*
X87451205Y-86542958D01*
X87455687Y-86534163D01*
X87542734Y-86324012D01*
X87545783Y-86314627D01*
X87598885Y-86093446D01*
X87600428Y-86083699D01*
X87618275Y-85856930D01*
X87618275Y-85847070D01*
X87600428Y-85620301D01*
X87598885Y-85610554D01*
X87545783Y-85389373D01*
X87542734Y-85379988D01*
X87455687Y-85169837D01*
X87451205Y-85161042D01*
X87348568Y-84993555D01*
X87338110Y-84984093D01*
X87329334Y-84987876D01*
X86195095Y-86122115D01*
X86132783Y-86156141D01*
X86061968Y-86151076D01*
X86016905Y-86122115D01*
X84885710Y-84990920D01*
X84873330Y-84984160D01*
X84865680Y-84989887D01*
X84760795Y-85161042D01*
X84756313Y-85169837D01*
X84669266Y-85379988D01*
X84666217Y-85389373D01*
X84613115Y-85610554D01*
X84611572Y-85620301D01*
X84593725Y-85847070D01*
X84593725Y-85856930D01*
X76732500Y-85856930D01*
X76732499Y-83529100D01*
X76721526Y-83423333D01*
X76709920Y-83388547D01*
X76684382Y-83312000D01*
X84592835Y-83312000D01*
X84611465Y-83548711D01*
X84612619Y-83553518D01*
X84612620Y-83553524D01*
X84628266Y-83618692D01*
X84666895Y-83779594D01*
X84668788Y-83784165D01*
X84668789Y-83784167D01*
X84754378Y-83990797D01*
X84757760Y-83998963D01*
X84760346Y-84003183D01*
X84879241Y-84197202D01*
X84879245Y-84197208D01*
X84881824Y-84201416D01*
X85036031Y-84381969D01*
X85039787Y-84385177D01*
X85039792Y-84385182D01*
X85192616Y-84515706D01*
X85231426Y-84575156D01*
X85233640Y-84609558D01*
X85241877Y-84628667D01*
X86093188Y-85479978D01*
X86107132Y-85487592D01*
X86108965Y-85487461D01*
X86115580Y-85483210D01*
X86967080Y-84631710D01*
X86976260Y-84614898D01*
X86990020Y-84551650D01*
X87018776Y-84516225D01*
X87172213Y-84385177D01*
X87175969Y-84381969D01*
X87330176Y-84201416D01*
X87332755Y-84197208D01*
X87332759Y-84197202D01*
X87451654Y-84003183D01*
X87454240Y-83998963D01*
X87457623Y-83990797D01*
X87543211Y-83784167D01*
X87543212Y-83784165D01*
X87545105Y-83779594D01*
X87583734Y-83618692D01*
X87599380Y-83553524D01*
X87599381Y-83553518D01*
X87600535Y-83548711D01*
X87619165Y-83312000D01*
X87600535Y-83075289D01*
X87584820Y-83009828D01*
X87561450Y-82912489D01*
X87545105Y-82844406D01*
X87539553Y-82831002D01*
X87456135Y-82629611D01*
X87456133Y-82629607D01*
X87454240Y-82625037D01*
X87432880Y-82590181D01*
X87332759Y-82426798D01*
X87332755Y-82426792D01*
X87330176Y-82422584D01*
X87175969Y-82242031D01*
X86995416Y-82087824D01*
X86991208Y-82085245D01*
X86991202Y-82085241D01*
X86797183Y-81966346D01*
X86792963Y-81963760D01*
X86788393Y-81961867D01*
X86788389Y-81961865D01*
X86578167Y-81874789D01*
X86578165Y-81874788D01*
X86573594Y-81872895D01*
X86493391Y-81853640D01*
X86347524Y-81818620D01*
X86347518Y-81818619D01*
X86342711Y-81817465D01*
X86106000Y-81798835D01*
X85869289Y-81817465D01*
X85864482Y-81818619D01*
X85864476Y-81818620D01*
X85718609Y-81853640D01*
X85638406Y-81872895D01*
X85633835Y-81874788D01*
X85633833Y-81874789D01*
X85423611Y-81961865D01*
X85423607Y-81961867D01*
X85419037Y-81963760D01*
X85414817Y-81966346D01*
X85220798Y-82085241D01*
X85220792Y-82085245D01*
X85216584Y-82087824D01*
X85036031Y-82242031D01*
X84881824Y-82422584D01*
X84879245Y-82426792D01*
X84879241Y-82426798D01*
X84779120Y-82590181D01*
X84757760Y-82625037D01*
X84755867Y-82629607D01*
X84755865Y-82629611D01*
X84672447Y-82831002D01*
X84666895Y-82844406D01*
X84650550Y-82912489D01*
X84627181Y-83009828D01*
X84611465Y-83075289D01*
X84592835Y-83312000D01*
X76684382Y-83312000D01*
X76667867Y-83262498D01*
X76667866Y-83262496D01*
X76665550Y-83255554D01*
X76572479Y-83105151D01*
X76564753Y-83097438D01*
X76486680Y-83019502D01*
X76447303Y-82980194D01*
X76296739Y-82887385D01*
X76202254Y-82856046D01*
X76135390Y-82833868D01*
X76135388Y-82833868D01*
X76128862Y-82831703D01*
X76122026Y-82831003D01*
X76122023Y-82831002D01*
X76078970Y-82826591D01*
X76024401Y-82821000D01*
X75190481Y-82821000D01*
X74343600Y-82821001D01*
X74237833Y-82831974D01*
X74231286Y-82834158D01*
X74231287Y-82834158D01*
X74076998Y-82885633D01*
X74076996Y-82885634D01*
X74070054Y-82887950D01*
X73919651Y-82981021D01*
X73794694Y-83106197D01*
X73701885Y-83256761D01*
X73646203Y-83424638D01*
X73645503Y-83431474D01*
X73645502Y-83431477D01*
X73643502Y-83451002D01*
X73635500Y-83529099D01*
X71404180Y-83529099D01*
X71350261Y-83443476D01*
X71344220Y-83435401D01*
X71186173Y-83256132D01*
X71178921Y-83249129D01*
X70994250Y-83097438D01*
X70985967Y-83091682D01*
X70779421Y-82971469D01*
X70770316Y-82967107D01*
X70547215Y-82881466D01*
X70537526Y-82878615D01*
X70375736Y-82844815D01*
X70361675Y-82845938D01*
X70358000Y-82856046D01*
X70358000Y-84857385D01*
X69850000Y-84857385D01*
X69850000Y-82858642D01*
X69845864Y-82844556D01*
X69832886Y-82842507D01*
X69807369Y-82845460D01*
X69797479Y-82847419D01*
X69567524Y-82912489D01*
X69558073Y-82916003D01*
X69341472Y-83017006D01*
X69332708Y-83021985D01*
X69135049Y-83156314D01*
X69127185Y-83162638D01*
X68953549Y-83326836D01*
X68946790Y-83334343D01*
X68801643Y-83524188D01*
X68796179Y-83532667D01*
X68683248Y-83743283D01*
X68679208Y-83752529D01*
X68601404Y-83978487D01*
X68598893Y-83988268D01*
X68558031Y-84224834D01*
X68557176Y-84232706D01*
X68556064Y-84257185D01*
X68556000Y-84260018D01*
X68556000Y-84857385D01*
X53364499Y-84857385D01*
X53364499Y-83529100D01*
X53353526Y-83423333D01*
X53341920Y-83388547D01*
X53299867Y-83262498D01*
X53299866Y-83262496D01*
X53297550Y-83255554D01*
X53204479Y-83105151D01*
X53196753Y-83097438D01*
X53118680Y-83019502D01*
X53079303Y-82980194D01*
X52928739Y-82887385D01*
X52834254Y-82856046D01*
X52767390Y-82833868D01*
X52767388Y-82833868D01*
X52760862Y-82831703D01*
X52754026Y-82831003D01*
X52754023Y-82831002D01*
X52710970Y-82826591D01*
X52656401Y-82821000D01*
X51822481Y-82821000D01*
X50975600Y-82821001D01*
X50869833Y-82831974D01*
X50863286Y-82834158D01*
X50863287Y-82834158D01*
X50708998Y-82885633D01*
X50708996Y-82885634D01*
X50702054Y-82887950D01*
X50551651Y-82981021D01*
X50426694Y-83106197D01*
X50333885Y-83256761D01*
X50278203Y-83424638D01*
X50277503Y-83431474D01*
X50277502Y-83431477D01*
X50275502Y-83451002D01*
X50267500Y-83529099D01*
X48036180Y-83529099D01*
X47982261Y-83443476D01*
X47976220Y-83435401D01*
X47818173Y-83256132D01*
X47810921Y-83249129D01*
X47626250Y-83097438D01*
X47617967Y-83091682D01*
X47411421Y-82971469D01*
X47402316Y-82967107D01*
X47179215Y-82881466D01*
X47169526Y-82878615D01*
X47007736Y-82844815D01*
X46993675Y-82845938D01*
X46990000Y-82856046D01*
X46990000Y-84857385D01*
X46482000Y-84857385D01*
X46482000Y-82858642D01*
X46477864Y-82844556D01*
X46464886Y-82842507D01*
X46439369Y-82845460D01*
X46429479Y-82847419D01*
X46199524Y-82912489D01*
X46190073Y-82916003D01*
X45973472Y-83017006D01*
X45964708Y-83021985D01*
X45767049Y-83156314D01*
X45759185Y-83162638D01*
X45585549Y-83326836D01*
X45578790Y-83334343D01*
X45433643Y-83524188D01*
X45428179Y-83532667D01*
X45315248Y-83743283D01*
X45311208Y-83752529D01*
X45233404Y-83978487D01*
X45230893Y-83988268D01*
X45190031Y-84224834D01*
X45189176Y-84232706D01*
X45188064Y-84257185D01*
X45188000Y-84260018D01*
X45188000Y-84857385D01*
X34798500Y-84857385D01*
X34798500Y-79828134D01*
X36506500Y-79828134D01*
X36513255Y-79890316D01*
X36564385Y-80026705D01*
X36651739Y-80143261D01*
X36768295Y-80230615D01*
X36904684Y-80281745D01*
X36966866Y-80288500D01*
X39603134Y-80288500D01*
X39665316Y-80281745D01*
X39801705Y-80230615D01*
X39918261Y-80143261D01*
X40005615Y-80026705D01*
X40056745Y-79890316D01*
X40063500Y-79828134D01*
X40063500Y-79824669D01*
X57682001Y-79824669D01*
X57682371Y-79831490D01*
X57687895Y-79882352D01*
X57691521Y-79897604D01*
X57736676Y-80018054D01*
X57745214Y-80033649D01*
X57821715Y-80135724D01*
X57834276Y-80148285D01*
X57936351Y-80224786D01*
X57951946Y-80233324D01*
X58072394Y-80278478D01*
X58087649Y-80282105D01*
X58138514Y-80287631D01*
X58145328Y-80288000D01*
X59187885Y-80288000D01*
X59203124Y-80283525D01*
X59204329Y-80282135D01*
X59206000Y-80274452D01*
X59206000Y-80269884D01*
X59714000Y-80269884D01*
X59718475Y-80285123D01*
X59719865Y-80286328D01*
X59727548Y-80287999D01*
X60774669Y-80287999D01*
X60781490Y-80287629D01*
X60832352Y-80282105D01*
X60847604Y-80278479D01*
X60968054Y-80233324D01*
X60983649Y-80224786D01*
X61085724Y-80148285D01*
X61098285Y-80135724D01*
X61174786Y-80033649D01*
X61183324Y-80018054D01*
X61228478Y-79897606D01*
X61232105Y-79882351D01*
X61237631Y-79831486D01*
X61238000Y-79824672D01*
X61238000Y-78782115D01*
X61233525Y-78766876D01*
X61232135Y-78765671D01*
X61224452Y-78764000D01*
X59732115Y-78764000D01*
X59716876Y-78768475D01*
X59715671Y-78769865D01*
X59714000Y-78777548D01*
X59714000Y-80269884D01*
X59206000Y-80269884D01*
X59206000Y-78782115D01*
X59201525Y-78766876D01*
X59200135Y-78765671D01*
X59192452Y-78764000D01*
X57700116Y-78764000D01*
X57684877Y-78768475D01*
X57683672Y-78769865D01*
X57682001Y-78777548D01*
X57682001Y-79824669D01*
X40063500Y-79824669D01*
X40063500Y-78237885D01*
X57682000Y-78237885D01*
X57686475Y-78253124D01*
X57687865Y-78254329D01*
X57695548Y-78256000D01*
X59187885Y-78256000D01*
X59203124Y-78251525D01*
X59204329Y-78250135D01*
X59206000Y-78242452D01*
X59206000Y-78237885D01*
X59714000Y-78237885D01*
X59718475Y-78253124D01*
X59719865Y-78254329D01*
X59727548Y-78256000D01*
X61219884Y-78256000D01*
X61235123Y-78251525D01*
X61236328Y-78250135D01*
X61237999Y-78242452D01*
X61237999Y-77195331D01*
X61237629Y-77188510D01*
X61232105Y-77137648D01*
X61228479Y-77122396D01*
X61183324Y-77001946D01*
X61174786Y-76986351D01*
X61098285Y-76884276D01*
X61085724Y-76871715D01*
X60983649Y-76795214D01*
X60968054Y-76786676D01*
X60847606Y-76741522D01*
X60832351Y-76737895D01*
X60781486Y-76732369D01*
X60774672Y-76732000D01*
X59732115Y-76732000D01*
X59716876Y-76736475D01*
X59715671Y-76737865D01*
X59714000Y-76745548D01*
X59714000Y-78237885D01*
X59206000Y-78237885D01*
X59206000Y-76750116D01*
X59201525Y-76734877D01*
X59200135Y-76733672D01*
X59192452Y-76732001D01*
X58145331Y-76732001D01*
X58138510Y-76732371D01*
X58087648Y-76737895D01*
X58072396Y-76741521D01*
X57951946Y-76786676D01*
X57936351Y-76795214D01*
X57834276Y-76871715D01*
X57821715Y-76884276D01*
X57745214Y-76986351D01*
X57736676Y-77001946D01*
X57691522Y-77122394D01*
X57687895Y-77137649D01*
X57682369Y-77188514D01*
X57682000Y-77195328D01*
X57682000Y-78237885D01*
X40063500Y-78237885D01*
X40063500Y-77191866D01*
X40056745Y-77129684D01*
X40005615Y-76993295D01*
X39918261Y-76876739D01*
X39801705Y-76789385D01*
X39665316Y-76738255D01*
X39603134Y-76731500D01*
X36966866Y-76731500D01*
X36904684Y-76738255D01*
X36768295Y-76789385D01*
X36651739Y-76876739D01*
X36564385Y-76993295D01*
X36513255Y-77129684D01*
X36506500Y-77191866D01*
X36506500Y-79828134D01*
X34798500Y-79828134D01*
X34798500Y-28533134D01*
X36506500Y-28533134D01*
X36513255Y-28595316D01*
X36564385Y-28731705D01*
X36651739Y-28848261D01*
X36658919Y-28853642D01*
X36726065Y-28903965D01*
X36768580Y-28960824D01*
X36776500Y-29004791D01*
X36776500Y-42832984D01*
X36776451Y-42836502D01*
X36775014Y-42887961D01*
X36773666Y-42936205D01*
X36774335Y-42941219D01*
X36784058Y-43014086D01*
X36784758Y-43020639D01*
X36791060Y-43098965D01*
X36793570Y-43109183D01*
X36798897Y-43130870D01*
X36801426Y-43144258D01*
X36805771Y-43176820D01*
X36807232Y-43181661D01*
X36807233Y-43181663D01*
X36828478Y-43252029D01*
X36830219Y-43258390D01*
X36848963Y-43334706D01*
X36850941Y-43339366D01*
X36861801Y-43364951D01*
X36866438Y-43377761D01*
X36875933Y-43409208D01*
X36878151Y-43413756D01*
X36878154Y-43413763D01*
X36910371Y-43479818D01*
X36913107Y-43485820D01*
X36927474Y-43519666D01*
X36943812Y-43558156D01*
X36959123Y-43582468D01*
X36961319Y-43585956D01*
X36967945Y-43597860D01*
X36982346Y-43627388D01*
X37025104Y-43688000D01*
X37027641Y-43691597D01*
X37031301Y-43697086D01*
X37070471Y-43759286D01*
X37073167Y-43763567D01*
X37076508Y-43767356D01*
X37076512Y-43767362D01*
X37094898Y-43788217D01*
X37103344Y-43798912D01*
X37122274Y-43825747D01*
X37124944Y-43828671D01*
X37132527Y-43836975D01*
X37141909Y-43847250D01*
X37181625Y-43886966D01*
X37187044Y-43892736D01*
X37230350Y-43941858D01*
X37230353Y-43941861D01*
X37233698Y-43945655D01*
X37237606Y-43948865D01*
X37237607Y-43948866D01*
X37265989Y-43972179D01*
X37275108Y-43980449D01*
X55558343Y-62263685D01*
X55560797Y-62266207D01*
X55629332Y-62338681D01*
X55633349Y-62341752D01*
X55633352Y-62341755D01*
X55691761Y-62386412D01*
X55696892Y-62390553D01*
X55756720Y-62441470D01*
X55761046Y-62444090D01*
X55761053Y-62444095D01*
X55784824Y-62458491D01*
X55796071Y-62466163D01*
X55822174Y-62486120D01*
X55891416Y-62523247D01*
X55897137Y-62526510D01*
X55948038Y-62557337D01*
X55964357Y-62567220D01*
X55994834Y-62579534D01*
X56007150Y-62585303D01*
X56036109Y-62600831D01*
X56110433Y-62626423D01*
X56116561Y-62628714D01*
X56148906Y-62641782D01*
X56184733Y-62656258D01*
X56184737Y-62656259D01*
X56189429Y-62658155D01*
X56194368Y-62659277D01*
X56194371Y-62659278D01*
X56221460Y-62665432D01*
X56234559Y-62669163D01*
X56265631Y-62679862D01*
X56343100Y-62693243D01*
X56349504Y-62694523D01*
X56426144Y-62711935D01*
X56458953Y-62713999D01*
X56472453Y-62715585D01*
X56504836Y-62721179D01*
X56508793Y-62721359D01*
X56508796Y-62721359D01*
X56532506Y-62722436D01*
X56532525Y-62722436D01*
X56533925Y-62722500D01*
X56590107Y-62722500D01*
X56598018Y-62722749D01*
X56668412Y-62727178D01*
X56709991Y-62723101D01*
X56722287Y-62722500D01*
X63685039Y-62722500D01*
X63753160Y-62742502D01*
X63799653Y-62796158D01*
X63809757Y-62866432D01*
X63786128Y-62923712D01*
X63722598Y-63009100D01*
X63720182Y-63013851D01*
X63720180Y-63013855D01*
X63666722Y-63119000D01*
X63614267Y-63222172D01*
X63591830Y-63294430D01*
X63544968Y-63445349D01*
X63544967Y-63445355D01*
X63543384Y-63450452D01*
X63535626Y-63508985D01*
X63515184Y-63663218D01*
X63511977Y-63687411D01*
X63512177Y-63692740D01*
X63512177Y-63692741D01*
X63512633Y-63704895D01*
X63520945Y-63926274D01*
X63522040Y-63931492D01*
X63565783Y-64139968D01*
X63570030Y-64160211D01*
X63657829Y-64382533D01*
X63781832Y-64586883D01*
X63785329Y-64590913D01*
X63923370Y-64749991D01*
X63938493Y-64767419D01*
X63942619Y-64770802D01*
X63942623Y-64770806D01*
X64091936Y-64893234D01*
X64123333Y-64918978D01*
X64127969Y-64921617D01*
X64129901Y-64922945D01*
X64174708Y-64978016D01*
X64182629Y-65048570D01*
X64151148Y-65112205D01*
X64128894Y-65131301D01*
X64038238Y-65192334D01*
X64034381Y-65196013D01*
X64034379Y-65196015D01*
X63980423Y-65247487D01*
X63865282Y-65357326D01*
X63722598Y-65549100D01*
X63720182Y-65553851D01*
X63720180Y-65553855D01*
X63666765Y-65658916D01*
X63614267Y-65762172D01*
X63581364Y-65868136D01*
X63544968Y-65985349D01*
X63544967Y-65985355D01*
X63543384Y-65990452D01*
X63535626Y-66048985D01*
X63513383Y-66216805D01*
X63511977Y-66227411D01*
X63520945Y-66466274D01*
X63526716Y-66493777D01*
X63555450Y-66630721D01*
X63570030Y-66700211D01*
X63657829Y-66922533D01*
X63781832Y-67126883D01*
X63785329Y-67130913D01*
X63883403Y-67243933D01*
X63938493Y-67307419D01*
X63942619Y-67310802D01*
X63942623Y-67310806D01*
X64119202Y-67455591D01*
X64123333Y-67458978D01*
X64127969Y-67461617D01*
X64129901Y-67462945D01*
X64174708Y-67518016D01*
X64182629Y-67588570D01*
X64151148Y-67652205D01*
X64128894Y-67671301D01*
X64038238Y-67732334D01*
X63865282Y-67897326D01*
X63722598Y-68089100D01*
X63720182Y-68093851D01*
X63720180Y-68093855D01*
X63653514Y-68224978D01*
X63614267Y-68302172D01*
X63590453Y-68378867D01*
X63544968Y-68525349D01*
X63544967Y-68525355D01*
X63543384Y-68530452D01*
X63542683Y-68535744D01*
X63519096Y-68713703D01*
X63511977Y-68767411D01*
X63520945Y-69006274D01*
X63570030Y-69240211D01*
X63657829Y-69462533D01*
X63781832Y-69666883D01*
X63785329Y-69670913D01*
X63875090Y-69774353D01*
X63938493Y-69847419D01*
X63942619Y-69850802D01*
X63942623Y-69850806D01*
X63985531Y-69885988D01*
X64123333Y-69998978D01*
X64127973Y-70001619D01*
X64130337Y-70003244D01*
X64175148Y-70058312D01*
X64183073Y-70128865D01*
X64151597Y-70192502D01*
X64129338Y-70211604D01*
X64042971Y-70269751D01*
X64034693Y-70276406D01*
X63869522Y-70433971D01*
X63862470Y-70441942D01*
X63726210Y-70625082D01*
X63720606Y-70634119D01*
X63617149Y-70837606D01*
X63613148Y-70847459D01*
X63545456Y-71065461D01*
X63543172Y-71075848D01*
X63539700Y-71102043D01*
X63541896Y-71116207D01*
X63555081Y-71120000D01*
X65152000Y-71120000D01*
X65220121Y-71140002D01*
X65266614Y-71193658D01*
X65278000Y-71246000D01*
X65278000Y-71502000D01*
X65257998Y-71570121D01*
X65204342Y-71616614D01*
X65152000Y-71628000D01*
X63556718Y-71628000D01*
X63543187Y-71631973D01*
X63541662Y-71642580D01*
X63569413Y-71774840D01*
X63572473Y-71785037D01*
X63656315Y-71997340D01*
X63661049Y-72006876D01*
X63779468Y-72202025D01*
X63785734Y-72210618D01*
X63935342Y-72383027D01*
X63942972Y-72390447D01*
X64119489Y-72535181D01*
X64130344Y-72542642D01*
X64175153Y-72597712D01*
X64183076Y-72668265D01*
X64151598Y-72731901D01*
X64129341Y-72751000D01*
X64038238Y-72812334D01*
X63865282Y-72977326D01*
X63722598Y-73169100D01*
X63614267Y-73382172D01*
X63584555Y-73477859D01*
X63544968Y-73605349D01*
X63544967Y-73605355D01*
X63543384Y-73610452D01*
X63542683Y-73615744D01*
X63519096Y-73793703D01*
X63511977Y-73847411D01*
X63520945Y-74086274D01*
X63570030Y-74320211D01*
X63657829Y-74542533D01*
X63781832Y-74746883D01*
X63785329Y-74750913D01*
X63875090Y-74854353D01*
X63938493Y-74927419D01*
X63942619Y-74930802D01*
X63942623Y-74930806D01*
X63976983Y-74958979D01*
X64123333Y-75078978D01*
X64127969Y-75081617D01*
X64127972Y-75081619D01*
X64193016Y-75118644D01*
X64331066Y-75197227D01*
X64555753Y-75278784D01*
X64561002Y-75279733D01*
X64561005Y-75279734D01*
X64786885Y-75320580D01*
X64786893Y-75320581D01*
X64790969Y-75321318D01*
X64809359Y-75322185D01*
X64814544Y-75322430D01*
X64814551Y-75322430D01*
X64816032Y-75322500D01*
X65184012Y-75322500D01*
X65362175Y-75307383D01*
X65367339Y-75306043D01*
X65367343Y-75306042D01*
X65588375Y-75248673D01*
X65588380Y-75248671D01*
X65593540Y-75247332D01*
X65710636Y-75194584D01*
X65806619Y-75151347D01*
X65806622Y-75151346D01*
X65811480Y-75149157D01*
X66009762Y-75015666D01*
X66075185Y-74953256D01*
X66178861Y-74854353D01*
X66182718Y-74850674D01*
X66325402Y-74658900D01*
X66364653Y-74581700D01*
X66431314Y-74450586D01*
X66431314Y-74450585D01*
X66433733Y-74445828D01*
X66481677Y-74291424D01*
X66503032Y-74222651D01*
X66503033Y-74222645D01*
X66504616Y-74217548D01*
X66536023Y-73980589D01*
X66527055Y-73741726D01*
X66477970Y-73507789D01*
X66466150Y-73477858D01*
X66459733Y-73407153D01*
X66494248Y-73342484D01*
X69473803Y-70362930D01*
X89419725Y-70362930D01*
X89437572Y-70589699D01*
X89439115Y-70599446D01*
X89492217Y-70820627D01*
X89495266Y-70830012D01*
X89582313Y-71040163D01*
X89586795Y-71048958D01*
X89689432Y-71216445D01*
X89699890Y-71225907D01*
X89708666Y-71222124D01*
X90559978Y-70370812D01*
X90567592Y-70356868D01*
X90567461Y-70355035D01*
X90563210Y-70348420D01*
X89711710Y-69496920D01*
X89699330Y-69490160D01*
X89691680Y-69495887D01*
X89586795Y-69667042D01*
X89582313Y-69675837D01*
X89495266Y-69885988D01*
X89492217Y-69895373D01*
X89439115Y-70116554D01*
X89437572Y-70126301D01*
X89419725Y-70353070D01*
X89419725Y-70362930D01*
X69473803Y-70362930D01*
X69898087Y-69938646D01*
X72928815Y-66907918D01*
X78885917Y-66907918D01*
X78901682Y-67181320D01*
X78902507Y-67185525D01*
X78902508Y-67185533D01*
X78913127Y-67239657D01*
X78954405Y-67450053D01*
X78955792Y-67454103D01*
X78955793Y-67454108D01*
X79041723Y-67705088D01*
X79043112Y-67709144D01*
X79166160Y-67953799D01*
X79168586Y-67957328D01*
X79168589Y-67957334D01*
X79238823Y-68059524D01*
X79321274Y-68179490D01*
X79505582Y-68382043D01*
X79715675Y-68557707D01*
X79719316Y-68559991D01*
X79944024Y-68700951D01*
X79944028Y-68700953D01*
X79947664Y-68703234D01*
X80015544Y-68733883D01*
X80193345Y-68814164D01*
X80193349Y-68814166D01*
X80197257Y-68815930D01*
X80201377Y-68817150D01*
X80201376Y-68817150D01*
X80455723Y-68892491D01*
X80455727Y-68892492D01*
X80459836Y-68893709D01*
X80464070Y-68894357D01*
X80464075Y-68894358D01*
X80726298Y-68934483D01*
X80726300Y-68934483D01*
X80730540Y-68935132D01*
X80869912Y-68937322D01*
X81000071Y-68939367D01*
X81000077Y-68939367D01*
X81004362Y-68939434D01*
X81276235Y-68906534D01*
X81541127Y-68837041D01*
X81545087Y-68835401D01*
X81545092Y-68835399D01*
X81667631Y-68784641D01*
X81794136Y-68732241D01*
X82030582Y-68594073D01*
X82246089Y-68425094D01*
X82287809Y-68382043D01*
X82433686Y-68231509D01*
X82436669Y-68228431D01*
X82439202Y-68224983D01*
X82439206Y-68224978D01*
X82596257Y-68011178D01*
X82598795Y-68007723D01*
X82626154Y-67957334D01*
X82727418Y-67770830D01*
X82727419Y-67770828D01*
X82729468Y-67767054D01*
X82777869Y-67638965D01*
X82824751Y-67514895D01*
X82824752Y-67514891D01*
X82826269Y-67510877D01*
X82851107Y-67402427D01*
X82886449Y-67248117D01*
X82886450Y-67248113D01*
X82887407Y-67243933D01*
X82897075Y-67135611D01*
X82911531Y-66973627D01*
X82911531Y-66973625D01*
X82911751Y-66971161D01*
X82912193Y-66929000D01*
X82912024Y-66926519D01*
X82893859Y-66660055D01*
X82893858Y-66660049D01*
X82893567Y-66655778D01*
X82878420Y-66582634D01*
X82838901Y-66391809D01*
X82838032Y-66387612D01*
X82746617Y-66129465D01*
X82621013Y-65886112D01*
X82611040Y-65871921D01*
X82530563Y-65757414D01*
X82463545Y-65662057D01*
X82354600Y-65544818D01*
X82280046Y-65464588D01*
X82280043Y-65464585D01*
X82277125Y-65461445D01*
X82273810Y-65458731D01*
X82273806Y-65458728D01*
X82068523Y-65290706D01*
X82065205Y-65287990D01*
X81872683Y-65170013D01*
X81835366Y-65147145D01*
X81835365Y-65147145D01*
X81831704Y-65144901D01*
X81819100Y-65139368D01*
X81764765Y-65093674D01*
X81743759Y-65025856D01*
X81762753Y-64957447D01*
X81806174Y-64915207D01*
X82026879Y-64786237D01*
X82026880Y-64786236D01*
X82030582Y-64784073D01*
X82246089Y-64615094D01*
X82264970Y-64595611D01*
X82433686Y-64421509D01*
X82436669Y-64418431D01*
X82439202Y-64414983D01*
X82439206Y-64414978D01*
X82596257Y-64201178D01*
X82598795Y-64197723D01*
X82616464Y-64165181D01*
X82727418Y-63960830D01*
X82727419Y-63960828D01*
X82729468Y-63957054D01*
X82826269Y-63700877D01*
X82883624Y-63450452D01*
X82886449Y-63438117D01*
X82886450Y-63438113D01*
X82887407Y-63433933D01*
X82887831Y-63429189D01*
X82911531Y-63163627D01*
X82911531Y-63163625D01*
X82911751Y-63161161D01*
X82912193Y-63119000D01*
X82904409Y-63004818D01*
X82893859Y-62850055D01*
X82893858Y-62850049D01*
X82893567Y-62845778D01*
X82838032Y-62577612D01*
X82746617Y-62319465D01*
X82621013Y-62076112D01*
X82611040Y-62061921D01*
X82502955Y-61908132D01*
X82463545Y-61852057D01*
X82277125Y-61651445D01*
X82273810Y-61648731D01*
X82273806Y-61648728D01*
X82068523Y-61480706D01*
X82065205Y-61477990D01*
X81831704Y-61334901D01*
X81827768Y-61333173D01*
X81584873Y-61226549D01*
X81584869Y-61226548D01*
X81580945Y-61224825D01*
X81317566Y-61149800D01*
X81313324Y-61149196D01*
X81313318Y-61149195D01*
X81112834Y-61120662D01*
X81046443Y-61111213D01*
X80902589Y-61110460D01*
X80776877Y-61109802D01*
X80776871Y-61109802D01*
X80772591Y-61109780D01*
X80768347Y-61110339D01*
X80768343Y-61110339D01*
X80649302Y-61126011D01*
X80501078Y-61145525D01*
X80496938Y-61146658D01*
X80496936Y-61146658D01*
X80469115Y-61154269D01*
X80236928Y-61217788D01*
X80232980Y-61219472D01*
X79988982Y-61323546D01*
X79988978Y-61323548D01*
X79985030Y-61325232D01*
X79906570Y-61372189D01*
X79753725Y-61463664D01*
X79753721Y-61463667D01*
X79750043Y-61465868D01*
X79536318Y-61637094D01*
X79347808Y-61835742D01*
X79188002Y-62058136D01*
X79059857Y-62300161D01*
X79058385Y-62304184D01*
X79058383Y-62304188D01*
X78999105Y-62466171D01*
X78965743Y-62557337D01*
X78907404Y-62824907D01*
X78885917Y-63097918D01*
X78901682Y-63371320D01*
X78902507Y-63375525D01*
X78902508Y-63375533D01*
X78911309Y-63420389D01*
X78954405Y-63640053D01*
X78955792Y-63644103D01*
X78955793Y-63644108D01*
X79041723Y-63895088D01*
X79043112Y-63899144D01*
X79056757Y-63926274D01*
X79120908Y-64053824D01*
X79166160Y-64143799D01*
X79168586Y-64147328D01*
X79168589Y-64147334D01*
X79268081Y-64292094D01*
X79321274Y-64369490D01*
X79324161Y-64372663D01*
X79324162Y-64372664D01*
X79362665Y-64414978D01*
X79505582Y-64572043D01*
X79508877Y-64574798D01*
X79508878Y-64574799D01*
X79528150Y-64590913D01*
X79715675Y-64747707D01*
X79719316Y-64749991D01*
X79944024Y-64890951D01*
X79944028Y-64890953D01*
X79947664Y-64893234D01*
X79951576Y-64895000D01*
X79951581Y-64895003D01*
X79980475Y-64908049D01*
X80034330Y-64954311D01*
X80054624Y-65022346D01*
X80034914Y-65090552D01*
X79986371Y-65134660D01*
X79985030Y-65135232D01*
X79981356Y-65137431D01*
X79753725Y-65273664D01*
X79753721Y-65273667D01*
X79750043Y-65275868D01*
X79536318Y-65447094D01*
X79439518Y-65549100D01*
X79395661Y-65595316D01*
X79347808Y-65645742D01*
X79188002Y-65868136D01*
X79059857Y-66110161D01*
X79058385Y-66114184D01*
X79058383Y-66114188D01*
X78972831Y-66347969D01*
X78965743Y-66367337D01*
X78907404Y-66634907D01*
X78885917Y-66907918D01*
X72928815Y-66907918D01*
X73336683Y-66500050D01*
X73345009Y-66492474D01*
X73351503Y-66488353D01*
X73398286Y-66438534D01*
X73401040Y-66435693D01*
X73420839Y-66415894D01*
X73423263Y-66412769D01*
X73423271Y-66412760D01*
X73423337Y-66412674D01*
X73431045Y-66403649D01*
X73446105Y-66387612D01*
X73461417Y-66371306D01*
X73471223Y-66353469D01*
X73482073Y-66336953D01*
X73494550Y-66320867D01*
X73512176Y-66280134D01*
X73517393Y-66269486D01*
X73523785Y-66257858D01*
X73538769Y-66230603D01*
X73540740Y-66222928D01*
X73540742Y-66222922D01*
X73543831Y-66210889D01*
X73550234Y-66192187D01*
X73558317Y-66173508D01*
X73565260Y-66129673D01*
X73567667Y-66118051D01*
X73578700Y-66075082D01*
X73578700Y-66054735D01*
X73580251Y-66035024D01*
X73582195Y-66022750D01*
X73583435Y-66014921D01*
X73579259Y-65970744D01*
X73578700Y-65958886D01*
X73578700Y-40910222D01*
X73598702Y-40842101D01*
X73615605Y-40821127D01*
X79562018Y-34874715D01*
X79624330Y-34840689D01*
X79695145Y-34845754D01*
X79751981Y-34888301D01*
X79777024Y-34959081D01*
X79777242Y-34964880D01*
X79778537Y-34975430D01*
X79825413Y-35198840D01*
X79828473Y-35209037D01*
X79912315Y-35421340D01*
X79917049Y-35430876D01*
X80035468Y-35626025D01*
X80041734Y-35634618D01*
X80191342Y-35807027D01*
X80198972Y-35814447D01*
X80375489Y-35959181D01*
X80386344Y-35966642D01*
X80431153Y-36021712D01*
X80439076Y-36092265D01*
X80407598Y-36155901D01*
X80385341Y-36175000D01*
X80294238Y-36236334D01*
X80290381Y-36240013D01*
X80290379Y-36240015D01*
X80235576Y-36292295D01*
X80121282Y-36401326D01*
X79978598Y-36593100D01*
X79976182Y-36597851D01*
X79976180Y-36597855D01*
X79872686Y-36801414D01*
X79870267Y-36806172D01*
X79836554Y-36914744D01*
X79800968Y-37029349D01*
X79800967Y-37029355D01*
X79799384Y-37034452D01*
X79789414Y-37109677D01*
X79771184Y-37247218D01*
X79767977Y-37271411D01*
X79776945Y-37510274D01*
X79826030Y-37744211D01*
X79913829Y-37966533D01*
X80037832Y-38170883D01*
X80194493Y-38351419D01*
X80198619Y-38354802D01*
X80198623Y-38354806D01*
X80375202Y-38499591D01*
X80379333Y-38502978D01*
X80383969Y-38505617D01*
X80385901Y-38506945D01*
X80430708Y-38562016D01*
X80438629Y-38632570D01*
X80407148Y-38696205D01*
X80384894Y-38715301D01*
X80294238Y-38776334D01*
X80121282Y-38941326D01*
X80118099Y-38945603D01*
X80118099Y-38945604D01*
X80112465Y-38953177D01*
X79978598Y-39133100D01*
X79976182Y-39137851D01*
X79976180Y-39137855D01*
X79890445Y-39306485D01*
X79870267Y-39346172D01*
X79864435Y-39364954D01*
X79800968Y-39569349D01*
X79800967Y-39569355D01*
X79799384Y-39574452D01*
X79783327Y-39695602D01*
X79774298Y-39763723D01*
X79767977Y-39811411D01*
X79776945Y-40050274D01*
X79778040Y-40055492D01*
X79823918Y-40274144D01*
X79826030Y-40284211D01*
X79913829Y-40506533D01*
X80037832Y-40710883D01*
X80041329Y-40714913D01*
X80186064Y-40881705D01*
X80194493Y-40891419D01*
X80198619Y-40894802D01*
X80198623Y-40894806D01*
X80358074Y-41025547D01*
X80379333Y-41042978D01*
X80383969Y-41045617D01*
X80385901Y-41046945D01*
X80430708Y-41102016D01*
X80438629Y-41172570D01*
X80407148Y-41236205D01*
X80384894Y-41255301D01*
X80294238Y-41316334D01*
X80290381Y-41320013D01*
X80290379Y-41320015D01*
X80264379Y-41344818D01*
X80121282Y-41481326D01*
X79978598Y-41673100D01*
X79976182Y-41677851D01*
X79976180Y-41677855D01*
X79921754Y-41784904D01*
X79870267Y-41886172D01*
X79837364Y-41992136D01*
X79800968Y-42109349D01*
X79800967Y-42109355D01*
X79799384Y-42114452D01*
X79767977Y-42351411D01*
X79776945Y-42590274D01*
X79778040Y-42595492D01*
X79818929Y-42790366D01*
X79826030Y-42824211D01*
X79913829Y-43046533D01*
X80037832Y-43250883D01*
X80041329Y-43254913D01*
X80180343Y-43415112D01*
X80194493Y-43431419D01*
X80198619Y-43434802D01*
X80198623Y-43434806D01*
X80375202Y-43579591D01*
X80379333Y-43582978D01*
X80383969Y-43585617D01*
X80385901Y-43586945D01*
X80430708Y-43642016D01*
X80438629Y-43712570D01*
X80407148Y-43776205D01*
X80384894Y-43795301D01*
X80294238Y-43856334D01*
X80121282Y-44021326D01*
X79978598Y-44213100D01*
X79976182Y-44217851D01*
X79976180Y-44217855D01*
X79921754Y-44324904D01*
X79870267Y-44426172D01*
X79851742Y-44485833D01*
X79800968Y-44649349D01*
X79800967Y-44649355D01*
X79799384Y-44654452D01*
X79767977Y-44891411D01*
X79776945Y-45130274D01*
X79826030Y-45364211D01*
X79913829Y-45586533D01*
X80037832Y-45790883D01*
X80041329Y-45794913D01*
X80131090Y-45898353D01*
X80194493Y-45971419D01*
X80198619Y-45974802D01*
X80198623Y-45974806D01*
X80375202Y-46119591D01*
X80379333Y-46122978D01*
X80383969Y-46125617D01*
X80385901Y-46126945D01*
X80430708Y-46182016D01*
X80438629Y-46252570D01*
X80407148Y-46316205D01*
X80384894Y-46335301D01*
X80294238Y-46396334D01*
X80121282Y-46561326D01*
X79978598Y-46753100D01*
X79976182Y-46757851D01*
X79976180Y-46757855D01*
X79933146Y-46842498D01*
X79870267Y-46966172D01*
X79851742Y-47025833D01*
X79800968Y-47189349D01*
X79800967Y-47189355D01*
X79799384Y-47194452D01*
X79767977Y-47431411D01*
X79776945Y-47670274D01*
X79826030Y-47904211D01*
X79913829Y-48126533D01*
X80037832Y-48330883D01*
X80041329Y-48334913D01*
X80151324Y-48461671D01*
X80180863Y-48526230D01*
X80170809Y-48596511D01*
X80124354Y-48650200D01*
X80100387Y-48662233D01*
X80041705Y-48684232D01*
X80041704Y-48684233D01*
X80033295Y-48687385D01*
X79916739Y-48774739D01*
X79829385Y-48891295D01*
X79778255Y-49027684D01*
X79771500Y-49089866D01*
X79771500Y-50986134D01*
X79778255Y-51048316D01*
X79829385Y-51184705D01*
X79916739Y-51301261D01*
X80033295Y-51388615D01*
X80169684Y-51439745D01*
X80231866Y-51446500D01*
X82328134Y-51446500D01*
X82390316Y-51439745D01*
X82526705Y-51388615D01*
X82643261Y-51301261D01*
X82730615Y-51184705D01*
X82781745Y-51048316D01*
X82788500Y-50986134D01*
X82788500Y-49089866D01*
X82781745Y-49027684D01*
X82730615Y-48891295D01*
X82643261Y-48774739D01*
X82526705Y-48687385D01*
X82518296Y-48684233D01*
X82518295Y-48684232D01*
X82461445Y-48662920D01*
X82404680Y-48620279D01*
X82379980Y-48553717D01*
X82395187Y-48484369D01*
X82418703Y-48453767D01*
X82434862Y-48438352D01*
X82438718Y-48434674D01*
X82581402Y-48242900D01*
X82606435Y-48193665D01*
X82687314Y-48034586D01*
X82687314Y-48034585D01*
X82689733Y-48029828D01*
X82730361Y-47898984D01*
X82759032Y-47806651D01*
X82759033Y-47806645D01*
X82760616Y-47801548D01*
X82792023Y-47564589D01*
X82783055Y-47325726D01*
X82733970Y-47091789D01*
X82646171Y-46869467D01*
X82522168Y-46665117D01*
X82432103Y-46561326D01*
X82369007Y-46488614D01*
X82369005Y-46488612D01*
X82365507Y-46484581D01*
X82361381Y-46481198D01*
X82361377Y-46481194D01*
X82184798Y-46336409D01*
X82184796Y-46336408D01*
X82180667Y-46333022D01*
X82176031Y-46330383D01*
X82174099Y-46329055D01*
X82129292Y-46273984D01*
X82121371Y-46203430D01*
X82152852Y-46139795D01*
X82175106Y-46120699D01*
X82176752Y-46119591D01*
X82265762Y-46059666D01*
X82438718Y-45894674D01*
X82581402Y-45702900D01*
X82689733Y-45489828D01*
X82730361Y-45358984D01*
X82759032Y-45266651D01*
X82759033Y-45266645D01*
X82760616Y-45261548D01*
X82778722Y-45124943D01*
X82791323Y-45029873D01*
X82791323Y-45029869D01*
X82792023Y-45024589D01*
X82789576Y-44959399D01*
X82787023Y-44891411D01*
X82783055Y-44785726D01*
X82733970Y-44551789D01*
X82646171Y-44329467D01*
X82522168Y-44125117D01*
X82432103Y-44021326D01*
X82369007Y-43948614D01*
X82369005Y-43948612D01*
X82365507Y-43944581D01*
X82361381Y-43941198D01*
X82361377Y-43941194D01*
X82184798Y-43796409D01*
X82184796Y-43796408D01*
X82180667Y-43793022D01*
X82176031Y-43790383D01*
X82174099Y-43789055D01*
X82129292Y-43733984D01*
X82121371Y-43663430D01*
X82152852Y-43599795D01*
X82175106Y-43580699D01*
X82184978Y-43574053D01*
X82265762Y-43519666D01*
X82307534Y-43479818D01*
X82358269Y-43431419D01*
X82438718Y-43354674D01*
X82450108Y-43339366D01*
X82578216Y-43167182D01*
X82581402Y-43162900D01*
X82611414Y-43103872D01*
X82687314Y-42954586D01*
X82687314Y-42954585D01*
X82689733Y-42949828D01*
X82738267Y-42793523D01*
X82759032Y-42726651D01*
X82759033Y-42726645D01*
X82760616Y-42721548D01*
X82790539Y-42495789D01*
X82791323Y-42489873D01*
X82791323Y-42489869D01*
X82792023Y-42484589D01*
X82783055Y-42245726D01*
X82743701Y-42058168D01*
X82735067Y-42017016D01*
X82735066Y-42017013D01*
X82733970Y-42011789D01*
X82646171Y-41789467D01*
X82522168Y-41585117D01*
X82512695Y-41574200D01*
X82369007Y-41408614D01*
X82369005Y-41408612D01*
X82365507Y-41404581D01*
X82361381Y-41401198D01*
X82361377Y-41401194D01*
X82184798Y-41256409D01*
X82184796Y-41256408D01*
X82180667Y-41253022D01*
X82176031Y-41250383D01*
X82174099Y-41249055D01*
X82129292Y-41193984D01*
X82121371Y-41123430D01*
X82152852Y-41059795D01*
X82175106Y-41040699D01*
X82178387Y-41038490D01*
X82265762Y-40979666D01*
X82279280Y-40966771D01*
X82421169Y-40831415D01*
X82438718Y-40814674D01*
X82454500Y-40793463D01*
X82522193Y-40702480D01*
X82581402Y-40622900D01*
X82601907Y-40582571D01*
X82687314Y-40414586D01*
X82687314Y-40414585D01*
X82689733Y-40409828D01*
X82733544Y-40268733D01*
X82759032Y-40186651D01*
X82759033Y-40186645D01*
X82760616Y-40181548D01*
X82792023Y-39944589D01*
X82783055Y-39705726D01*
X82754440Y-39569349D01*
X82735067Y-39477016D01*
X82735066Y-39477013D01*
X82733970Y-39471789D01*
X82722151Y-39441861D01*
X82715733Y-39371155D01*
X82750248Y-39306485D01*
X84612683Y-37444050D01*
X84621009Y-37436474D01*
X84627503Y-37432353D01*
X84674286Y-37382534D01*
X84677040Y-37379693D01*
X84696839Y-37359894D01*
X84699268Y-37356763D01*
X84699272Y-37356758D01*
X84699339Y-37356672D01*
X84707047Y-37347647D01*
X84731992Y-37321083D01*
X84737417Y-37315306D01*
X84741235Y-37308361D01*
X84741238Y-37308357D01*
X84747226Y-37297466D01*
X84758078Y-37280945D01*
X84765692Y-37271129D01*
X84765692Y-37271128D01*
X84770550Y-37264866D01*
X84788174Y-37224138D01*
X84793396Y-37213481D01*
X84810948Y-37181554D01*
X84810949Y-37181551D01*
X84814769Y-37174603D01*
X84819832Y-37154885D01*
X84826234Y-37136186D01*
X84834317Y-37117507D01*
X84835556Y-37109683D01*
X84835558Y-37109677D01*
X84841260Y-37073680D01*
X84843666Y-37062060D01*
X84852728Y-37026763D01*
X84852728Y-37026762D01*
X84854700Y-37019082D01*
X84854700Y-36998734D01*
X84856251Y-36979023D01*
X84858195Y-36966749D01*
X84859435Y-36958920D01*
X84855259Y-36914744D01*
X84854700Y-36902886D01*
X84854700Y-35631379D01*
X88868565Y-35631379D01*
X88869311Y-35639271D01*
X88872741Y-35675556D01*
X88873300Y-35687414D01*
X88873300Y-48535780D01*
X88872770Y-48547014D01*
X88871092Y-48554519D01*
X88871341Y-48562438D01*
X88873238Y-48622812D01*
X88873300Y-48626769D01*
X88873300Y-48654783D01*
X88873796Y-48658708D01*
X88873796Y-48658709D01*
X88873808Y-48658804D01*
X88874741Y-48670649D01*
X88876135Y-48715005D01*
X88878347Y-48722617D01*
X88881813Y-48734548D01*
X88885823Y-48753912D01*
X88888373Y-48774099D01*
X88891289Y-48781463D01*
X88891290Y-48781468D01*
X88904707Y-48815356D01*
X88908552Y-48826585D01*
X88920931Y-48869193D01*
X88924969Y-48876020D01*
X88924970Y-48876023D01*
X88931288Y-48886706D01*
X88939988Y-48904464D01*
X88944561Y-48916015D01*
X88944565Y-48916021D01*
X88947481Y-48923388D01*
X88952139Y-48929799D01*
X88952140Y-48929801D01*
X88973564Y-48959288D01*
X88980081Y-48969210D01*
X88998626Y-49000568D01*
X88998629Y-49000572D01*
X89002666Y-49007398D01*
X89017050Y-49021782D01*
X89029891Y-49036816D01*
X89041858Y-49053287D01*
X89074064Y-49079930D01*
X89076050Y-49081573D01*
X89084831Y-49089563D01*
X89457089Y-49461822D01*
X89491114Y-49524134D01*
X89490512Y-49580331D01*
X89442709Y-49779447D01*
X89437465Y-49801289D01*
X89418835Y-50038000D01*
X89437465Y-50274711D01*
X89438619Y-50279518D01*
X89438620Y-50279524D01*
X89444249Y-50302969D01*
X89492895Y-50505594D01*
X89494788Y-50510165D01*
X89494789Y-50510167D01*
X89565813Y-50681634D01*
X89583760Y-50724963D01*
X89586346Y-50729183D01*
X89705241Y-50923202D01*
X89705245Y-50923208D01*
X89707824Y-50927416D01*
X89862031Y-51107969D01*
X89865787Y-51111177D01*
X89865792Y-51111182D01*
X89984056Y-51212189D01*
X90022866Y-51271639D01*
X90023372Y-51342634D01*
X89984056Y-51403811D01*
X89865792Y-51504818D01*
X89865787Y-51504823D01*
X89862031Y-51508031D01*
X89707824Y-51688584D01*
X89705245Y-51692792D01*
X89705241Y-51692798D01*
X89633098Y-51810525D01*
X89583760Y-51891037D01*
X89581867Y-51895607D01*
X89581865Y-51895611D01*
X89494789Y-52105833D01*
X89492895Y-52110406D01*
X89437465Y-52341289D01*
X89418835Y-52578000D01*
X89437465Y-52814711D01*
X89438619Y-52819518D01*
X89438620Y-52819524D01*
X89465331Y-52930780D01*
X89492895Y-53045594D01*
X89583760Y-53264963D01*
X89586346Y-53269183D01*
X89705241Y-53463202D01*
X89705245Y-53463208D01*
X89707824Y-53467416D01*
X89862031Y-53647969D01*
X89865787Y-53651177D01*
X89865792Y-53651182D01*
X89984056Y-53752189D01*
X90022866Y-53811639D01*
X90023372Y-53882634D01*
X89984056Y-53943811D01*
X89865792Y-54044818D01*
X89865787Y-54044823D01*
X89862031Y-54048031D01*
X89707824Y-54228584D01*
X89705245Y-54232792D01*
X89705241Y-54232798D01*
X89667480Y-54294419D01*
X89583760Y-54431037D01*
X89581867Y-54435607D01*
X89581865Y-54435611D01*
X89505637Y-54619644D01*
X89492895Y-54650406D01*
X89488821Y-54667376D01*
X89439998Y-54870739D01*
X89437465Y-54881289D01*
X89418835Y-55118000D01*
X89437465Y-55354711D01*
X89492895Y-55585594D01*
X89494788Y-55590165D01*
X89494789Y-55590167D01*
X89516503Y-55642588D01*
X89583760Y-55804963D01*
X89586346Y-55809183D01*
X89705241Y-56003202D01*
X89705245Y-56003208D01*
X89707824Y-56007416D01*
X89862031Y-56187969D01*
X89865787Y-56191177D01*
X89865792Y-56191182D01*
X89984056Y-56292189D01*
X90022866Y-56351639D01*
X90023372Y-56422634D01*
X89984056Y-56483811D01*
X89865792Y-56584818D01*
X89865787Y-56584823D01*
X89862031Y-56588031D01*
X89707824Y-56768584D01*
X89705245Y-56772792D01*
X89705241Y-56772798D01*
X89652253Y-56859267D01*
X89583760Y-56971037D01*
X89581867Y-56975607D01*
X89581865Y-56975611D01*
X89511986Y-57144316D01*
X89492895Y-57190406D01*
X89489740Y-57203548D01*
X89441942Y-57402642D01*
X89437465Y-57421289D01*
X89418835Y-57658000D01*
X89437465Y-57894711D01*
X89438619Y-57899518D01*
X89438620Y-57899524D01*
X89466394Y-58015208D01*
X89492895Y-58125594D01*
X89494788Y-58130165D01*
X89494789Y-58130167D01*
X89572927Y-58318809D01*
X89583760Y-58344963D01*
X89586346Y-58349183D01*
X89705241Y-58543202D01*
X89705245Y-58543208D01*
X89707824Y-58547416D01*
X89862031Y-58727969D01*
X89865787Y-58731177D01*
X89865792Y-58731182D01*
X89984056Y-58832189D01*
X90022866Y-58891639D01*
X90023372Y-58962634D01*
X89984056Y-59023811D01*
X89865792Y-59124818D01*
X89865787Y-59124823D01*
X89862031Y-59128031D01*
X89707824Y-59308584D01*
X89705245Y-59312792D01*
X89705241Y-59312798D01*
X89642144Y-59415763D01*
X89583760Y-59511037D01*
X89581867Y-59515607D01*
X89581865Y-59515611D01*
X89503211Y-59705500D01*
X89492895Y-59730406D01*
X89491740Y-59735218D01*
X89440428Y-59948949D01*
X89437465Y-59961289D01*
X89418835Y-60198000D01*
X89437465Y-60434711D01*
X89438619Y-60439518D01*
X89438620Y-60439524D01*
X89453509Y-60501539D01*
X89492895Y-60665594D01*
X89494788Y-60670165D01*
X89494789Y-60670167D01*
X89558305Y-60823508D01*
X89583760Y-60884963D01*
X89586346Y-60889183D01*
X89705241Y-61083202D01*
X89705245Y-61083208D01*
X89707824Y-61087416D01*
X89862031Y-61267969D01*
X89865787Y-61271177D01*
X89865792Y-61271182D01*
X89984056Y-61372189D01*
X90022866Y-61431639D01*
X90023372Y-61502634D01*
X89984056Y-61563811D01*
X89865792Y-61664818D01*
X89865787Y-61664823D01*
X89862031Y-61668031D01*
X89707824Y-61848584D01*
X89705245Y-61852792D01*
X89705241Y-61852798D01*
X89586346Y-62046817D01*
X89583760Y-62051037D01*
X89581867Y-62055607D01*
X89581865Y-62055611D01*
X89510140Y-62228773D01*
X89492895Y-62270406D01*
X89481117Y-62319465D01*
X89441107Y-62486120D01*
X89437465Y-62501289D01*
X89418835Y-62738000D01*
X89437465Y-62974711D01*
X89438619Y-62979518D01*
X89438620Y-62979524D01*
X89457038Y-63056240D01*
X89492895Y-63205594D01*
X89494788Y-63210165D01*
X89494789Y-63210167D01*
X89563286Y-63375533D01*
X89583760Y-63424963D01*
X89586346Y-63429183D01*
X89705241Y-63623202D01*
X89705245Y-63623208D01*
X89707824Y-63627416D01*
X89862031Y-63807969D01*
X89865787Y-63811177D01*
X89865792Y-63811182D01*
X89984056Y-63912189D01*
X90022866Y-63971639D01*
X90023372Y-64042634D01*
X89984056Y-64103811D01*
X89865792Y-64204818D01*
X89865787Y-64204823D01*
X89862031Y-64208031D01*
X89707824Y-64388584D01*
X89705245Y-64392792D01*
X89705241Y-64392798D01*
X89652253Y-64479267D01*
X89583760Y-64591037D01*
X89581867Y-64595607D01*
X89581865Y-64595611D01*
X89503802Y-64784073D01*
X89492895Y-64810406D01*
X89491740Y-64815218D01*
X89439017Y-65034825D01*
X89437465Y-65041289D01*
X89418835Y-65278000D01*
X89437465Y-65514711D01*
X89438619Y-65519518D01*
X89438620Y-65519524D01*
X89468176Y-65642633D01*
X89492895Y-65745594D01*
X89494788Y-65750165D01*
X89494789Y-65750167D01*
X89581243Y-65958886D01*
X89583760Y-65964963D01*
X89586346Y-65969183D01*
X89705241Y-66163202D01*
X89705245Y-66163208D01*
X89707824Y-66167416D01*
X89862031Y-66347969D01*
X89865787Y-66351177D01*
X89865792Y-66351182D01*
X89984056Y-66452189D01*
X90022866Y-66511639D01*
X90023372Y-66582634D01*
X89984056Y-66643811D01*
X89865792Y-66744818D01*
X89865787Y-66744823D01*
X89862031Y-66748031D01*
X89707824Y-66928584D01*
X89705245Y-66932792D01*
X89705241Y-66932798D01*
X89652253Y-67019267D01*
X89583760Y-67131037D01*
X89581867Y-67135607D01*
X89581865Y-67135611D01*
X89509298Y-67310806D01*
X89492895Y-67350406D01*
X89491740Y-67355218D01*
X89453405Y-67514895D01*
X89437465Y-67581289D01*
X89418835Y-67818000D01*
X89437465Y-68054711D01*
X89438619Y-68059518D01*
X89438620Y-68059524D01*
X89467422Y-68179490D01*
X89492895Y-68285594D01*
X89494788Y-68290165D01*
X89494789Y-68290167D01*
X89553959Y-68433016D01*
X89583760Y-68504963D01*
X89586346Y-68509183D01*
X89705241Y-68703202D01*
X89705245Y-68703208D01*
X89707824Y-68707416D01*
X89862031Y-68887969D01*
X89865787Y-68891177D01*
X89865792Y-68891182D01*
X90018616Y-69021706D01*
X90057426Y-69081156D01*
X90059640Y-69115558D01*
X90067877Y-69134667D01*
X91202115Y-70268905D01*
X91236141Y-70331217D01*
X91231076Y-70402032D01*
X91202115Y-70447095D01*
X90070920Y-71578290D01*
X90061740Y-71595102D01*
X90047980Y-71658350D01*
X90019224Y-71693775D01*
X89912370Y-71785037D01*
X89862031Y-71828031D01*
X89707824Y-72008584D01*
X89705245Y-72012792D01*
X89705241Y-72012798D01*
X89652253Y-72099267D01*
X89583760Y-72211037D01*
X89492895Y-72430406D01*
X89491740Y-72435218D01*
X89465950Y-72542642D01*
X89437465Y-72661289D01*
X89418835Y-72898000D01*
X89437465Y-73134711D01*
X89438619Y-73139518D01*
X89438620Y-73139524D01*
X89473640Y-73285391D01*
X89492895Y-73365594D01*
X89494788Y-73370165D01*
X89494789Y-73370167D01*
X89553959Y-73513016D01*
X89583760Y-73584963D01*
X89586346Y-73589183D01*
X89705241Y-73783202D01*
X89705245Y-73783208D01*
X89707824Y-73787416D01*
X89862031Y-73967969D01*
X90042584Y-74122176D01*
X90046792Y-74124755D01*
X90046798Y-74124759D01*
X90153758Y-74190304D01*
X90245037Y-74246240D01*
X90249607Y-74248133D01*
X90249611Y-74248135D01*
X90459833Y-74335211D01*
X90464406Y-74337105D01*
X90528456Y-74352482D01*
X90690476Y-74391380D01*
X90690482Y-74391381D01*
X90695289Y-74392535D01*
X90932000Y-74411165D01*
X91168711Y-74392535D01*
X91173518Y-74391381D01*
X91173524Y-74391380D01*
X91335544Y-74352482D01*
X91399594Y-74337105D01*
X91404167Y-74335211D01*
X91614389Y-74248135D01*
X91614393Y-74248133D01*
X91618963Y-74246240D01*
X91623183Y-74243654D01*
X91623193Y-74243649D01*
X91804165Y-74132748D01*
X91872698Y-74114209D01*
X91940375Y-74135665D01*
X91985708Y-74190304D01*
X91996000Y-74240180D01*
X91996000Y-83497780D01*
X91995470Y-83509014D01*
X91993792Y-83516519D01*
X91994649Y-83543777D01*
X91995938Y-83584812D01*
X91996000Y-83588769D01*
X91996000Y-83616783D01*
X91996496Y-83620708D01*
X91996496Y-83620709D01*
X91996508Y-83620804D01*
X91997441Y-83632649D01*
X91998835Y-83677005D01*
X92001047Y-83684617D01*
X92004513Y-83696548D01*
X92008523Y-83715912D01*
X92011073Y-83736099D01*
X92013989Y-83743463D01*
X92013990Y-83743468D01*
X92027407Y-83777356D01*
X92031252Y-83788585D01*
X92043631Y-83831193D01*
X92047669Y-83838020D01*
X92047670Y-83838023D01*
X92053988Y-83848706D01*
X92062688Y-83866464D01*
X92067261Y-83878015D01*
X92067265Y-83878021D01*
X92070181Y-83885388D01*
X92074839Y-83891799D01*
X92074840Y-83891801D01*
X92096264Y-83921288D01*
X92102781Y-83931210D01*
X92121326Y-83962568D01*
X92121329Y-83962572D01*
X92125366Y-83969398D01*
X92139750Y-83983782D01*
X92152591Y-83998816D01*
X92164558Y-84015287D01*
X92170666Y-84020340D01*
X92198755Y-84043577D01*
X92207535Y-84051567D01*
X96566691Y-88410723D01*
X96600717Y-88473035D01*
X96595652Y-88543850D01*
X96578689Y-88575025D01*
X96523246Y-88649542D01*
X96418760Y-88855051D01*
X96417178Y-88860145D01*
X96417177Y-88860148D01*
X96355115Y-89060020D01*
X96350393Y-89075227D01*
X96349692Y-89080516D01*
X96334304Y-89196623D01*
X96320102Y-89303774D01*
X96320302Y-89309103D01*
X96320302Y-89309105D01*
X96322483Y-89367208D01*
X96328751Y-89534158D01*
X96376093Y-89759791D01*
X96378051Y-89764750D01*
X96378052Y-89764752D01*
X96453605Y-89956062D01*
X96460776Y-89974221D01*
X96463543Y-89978780D01*
X96463544Y-89978783D01*
X96481009Y-90007564D01*
X96580377Y-90171317D01*
X96583874Y-90175347D01*
X96720711Y-90333038D01*
X96731477Y-90345445D01*
X96735608Y-90348832D01*
X96905627Y-90488240D01*
X96905633Y-90488244D01*
X96909755Y-90491624D01*
X96914391Y-90494263D01*
X96914394Y-90494265D01*
X97023422Y-90556327D01*
X97110114Y-90605675D01*
X97326825Y-90684337D01*
X97332074Y-90685286D01*
X97332077Y-90685287D01*
X97549608Y-90724623D01*
X97549615Y-90724624D01*
X97553692Y-90725361D01*
X97571414Y-90726197D01*
X97576356Y-90726430D01*
X97576363Y-90726430D01*
X97577844Y-90726500D01*
X97989890Y-90726500D01*
X98056809Y-90720822D01*
X98156409Y-90712371D01*
X98156413Y-90712370D01*
X98161720Y-90711920D01*
X98166875Y-90710582D01*
X98166881Y-90710581D01*
X98379703Y-90655343D01*
X98379707Y-90655342D01*
X98384872Y-90654001D01*
X98389738Y-90651809D01*
X98389741Y-90651808D01*
X98590202Y-90561507D01*
X98595075Y-90559312D01*
X98786319Y-90430559D01*
X98953135Y-90271424D01*
X99090754Y-90086458D01*
X99195240Y-89880949D01*
X99196983Y-89875338D01*
X99262024Y-89665871D01*
X99263607Y-89660773D01*
X99271866Y-89598460D01*
X99293198Y-89437511D01*
X99293198Y-89437506D01*
X99293898Y-89432226D01*
X99291135Y-89358614D01*
X99285449Y-89207173D01*
X99285249Y-89201842D01*
X99237907Y-88976209D01*
X99235948Y-88971248D01*
X99155185Y-88766744D01*
X99155184Y-88766742D01*
X99153224Y-88761779D01*
X99123376Y-88712590D01*
X99043848Y-88581534D01*
X99033623Y-88564683D01*
X99029452Y-88559876D01*
X98886023Y-88394588D01*
X98886021Y-88394586D01*
X98882523Y-88390555D01*
X98840970Y-88356484D01*
X98708373Y-88247760D01*
X98708367Y-88247756D01*
X98704245Y-88244376D01*
X98672750Y-88226448D01*
X98623445Y-88175368D01*
X98609583Y-88105738D01*
X98635566Y-88039667D01*
X98664716Y-88012427D01*
X98686900Y-87997492D01*
X98786319Y-87930559D01*
X98953135Y-87771424D01*
X98971684Y-87746494D01*
X99087568Y-87590740D01*
X99090754Y-87586458D01*
X99195240Y-87380949D01*
X99197595Y-87373367D01*
X99262024Y-87165871D01*
X99263607Y-87160773D01*
X99264308Y-87155484D01*
X99293198Y-86937511D01*
X99293198Y-86937506D01*
X99293898Y-86932226D01*
X99285249Y-86701842D01*
X99237907Y-86476209D01*
X99232809Y-86463299D01*
X99155185Y-86266744D01*
X99155184Y-86266742D01*
X99153224Y-86261779D01*
X99115954Y-86200359D01*
X99036390Y-86069243D01*
X99033623Y-86064683D01*
X99016540Y-86044996D01*
X98886023Y-85894588D01*
X98886021Y-85894586D01*
X98882523Y-85890555D01*
X98846880Y-85861330D01*
X98806886Y-85802671D01*
X98804954Y-85731701D01*
X98841698Y-85670952D01*
X98860468Y-85656752D01*
X99000120Y-85570332D01*
X99006348Y-85566478D01*
X99026128Y-85546664D01*
X99126134Y-85446483D01*
X99131305Y-85441303D01*
X99135146Y-85435072D01*
X99220275Y-85296968D01*
X99220276Y-85296966D01*
X99224115Y-85290738D01*
X99259073Y-85185341D01*
X99277632Y-85129389D01*
X99277632Y-85129387D01*
X99279797Y-85122861D01*
X99290500Y-85018400D01*
X99290500Y-83717600D01*
X99285466Y-83669082D01*
X99280238Y-83618692D01*
X99280237Y-83618688D01*
X99279526Y-83611834D01*
X99258467Y-83548711D01*
X99225868Y-83451002D01*
X99223550Y-83444054D01*
X99130478Y-83293652D01*
X99005303Y-83168695D01*
X98995477Y-83162638D01*
X98860968Y-83079725D01*
X98860966Y-83079724D01*
X98854738Y-83075885D01*
X98774995Y-83049436D01*
X98693389Y-83022368D01*
X98693387Y-83022368D01*
X98686861Y-83020203D01*
X98680025Y-83019503D01*
X98680022Y-83019502D01*
X98636969Y-83015091D01*
X98582400Y-83009500D01*
X97188400Y-83009500D01*
X97120279Y-82989498D01*
X97073786Y-82935842D01*
X97062400Y-82883500D01*
X97062400Y-70851920D01*
X97062930Y-70840686D01*
X97064608Y-70833181D01*
X97062462Y-70764888D01*
X97062400Y-70760931D01*
X97062400Y-70732917D01*
X97061892Y-70728896D01*
X97060958Y-70717044D01*
X97059814Y-70680618D01*
X97059814Y-70680617D01*
X97059565Y-70672695D01*
X97053887Y-70653151D01*
X97049877Y-70633788D01*
X97048320Y-70621460D01*
X97048320Y-70621458D01*
X97047327Y-70613601D01*
X97044411Y-70606237D01*
X97044410Y-70606232D01*
X97030993Y-70572344D01*
X97027148Y-70561115D01*
X97022441Y-70544914D01*
X97022643Y-70473918D01*
X97061197Y-70414301D01*
X97125861Y-70384992D01*
X97196106Y-70395296D01*
X97232532Y-70420664D01*
X101252592Y-74440725D01*
X105222495Y-78410628D01*
X105256521Y-78472940D01*
X105259400Y-78499723D01*
X105259400Y-78981180D01*
X105258870Y-78992414D01*
X105257192Y-78999919D01*
X105257441Y-79007838D01*
X105259338Y-79068212D01*
X105259400Y-79072169D01*
X105259400Y-79100183D01*
X105259896Y-79104108D01*
X105259896Y-79104109D01*
X105259908Y-79104204D01*
X105260841Y-79116049D01*
X105262235Y-79160405D01*
X105264447Y-79168017D01*
X105267913Y-79179948D01*
X105271923Y-79199312D01*
X105274473Y-79219499D01*
X105277389Y-79226863D01*
X105277390Y-79226868D01*
X105290807Y-79260756D01*
X105294652Y-79271985D01*
X105307031Y-79314593D01*
X105311069Y-79321420D01*
X105311070Y-79321423D01*
X105317388Y-79332106D01*
X105326088Y-79349864D01*
X105330661Y-79361415D01*
X105330665Y-79361421D01*
X105333581Y-79368788D01*
X105338239Y-79375199D01*
X105338240Y-79375201D01*
X105359664Y-79404688D01*
X105366181Y-79414610D01*
X105384726Y-79445968D01*
X105384729Y-79445972D01*
X105388766Y-79452798D01*
X105403150Y-79467182D01*
X105415991Y-79482216D01*
X105427958Y-79498687D01*
X105434066Y-79503740D01*
X105462155Y-79526977D01*
X105470935Y-79534967D01*
X114346691Y-88410723D01*
X114380717Y-88473035D01*
X114375652Y-88543850D01*
X114358689Y-88575025D01*
X114303246Y-88649542D01*
X114198760Y-88855051D01*
X114197178Y-88860145D01*
X114197177Y-88860148D01*
X114135115Y-89060020D01*
X114130393Y-89075227D01*
X114129692Y-89080516D01*
X114114304Y-89196623D01*
X114100102Y-89303774D01*
X114100302Y-89309103D01*
X114100302Y-89309105D01*
X114102483Y-89367208D01*
X114108751Y-89534158D01*
X114156093Y-89759791D01*
X114158051Y-89764750D01*
X114158052Y-89764752D01*
X114233605Y-89956062D01*
X114240776Y-89974221D01*
X114243543Y-89978780D01*
X114243544Y-89978783D01*
X114261009Y-90007564D01*
X114360377Y-90171317D01*
X114363874Y-90175347D01*
X114500711Y-90333038D01*
X114511477Y-90345445D01*
X114515608Y-90348832D01*
X114685627Y-90488240D01*
X114685633Y-90488244D01*
X114689755Y-90491624D01*
X114694391Y-90494263D01*
X114694394Y-90494265D01*
X114803422Y-90556327D01*
X114890114Y-90605675D01*
X115106825Y-90684337D01*
X115112074Y-90685286D01*
X115112077Y-90685287D01*
X115329608Y-90724623D01*
X115329615Y-90724624D01*
X115333692Y-90725361D01*
X115351414Y-90726197D01*
X115356356Y-90726430D01*
X115356363Y-90726430D01*
X115357844Y-90726500D01*
X115769890Y-90726500D01*
X115836809Y-90720822D01*
X115936409Y-90712371D01*
X115936413Y-90712370D01*
X115941720Y-90711920D01*
X115946875Y-90710582D01*
X115946881Y-90710581D01*
X116159703Y-90655343D01*
X116159707Y-90655342D01*
X116164872Y-90654001D01*
X116169738Y-90651809D01*
X116169741Y-90651808D01*
X116370202Y-90561507D01*
X116375075Y-90559312D01*
X116566319Y-90430559D01*
X116733135Y-90271424D01*
X116870754Y-90086458D01*
X116975240Y-89880949D01*
X116976983Y-89875338D01*
X117042024Y-89665871D01*
X117043607Y-89660773D01*
X117051866Y-89598460D01*
X117073198Y-89437511D01*
X117073198Y-89437506D01*
X117073898Y-89432226D01*
X117071135Y-89358614D01*
X117065449Y-89207173D01*
X117065249Y-89201842D01*
X117017907Y-88976209D01*
X117015948Y-88971248D01*
X116935185Y-88766744D01*
X116935184Y-88766742D01*
X116933224Y-88761779D01*
X116903376Y-88712590D01*
X116823848Y-88581534D01*
X116813623Y-88564683D01*
X116809452Y-88559876D01*
X116778931Y-88524703D01*
X122858743Y-88524703D01*
X122859302Y-88528947D01*
X122859302Y-88528951D01*
X122863476Y-88560653D01*
X122896268Y-88809734D01*
X122897401Y-88813874D01*
X122897401Y-88813876D01*
X122910060Y-88860148D01*
X122972129Y-89087036D01*
X123084923Y-89351476D01*
X123133251Y-89432226D01*
X123224529Y-89584740D01*
X123232561Y-89598161D01*
X123412313Y-89822528D01*
X123507540Y-89912895D01*
X123607500Y-90007753D01*
X123620851Y-90020423D01*
X123706131Y-90081703D01*
X123824496Y-90166757D01*
X123854317Y-90188186D01*
X123858112Y-90190195D01*
X123858113Y-90190196D01*
X123879869Y-90201715D01*
X124108392Y-90322712D01*
X124378373Y-90421511D01*
X124659264Y-90482755D01*
X124687841Y-90485004D01*
X124882282Y-90500307D01*
X124882291Y-90500307D01*
X124884739Y-90500500D01*
X125040271Y-90500500D01*
X125042407Y-90500354D01*
X125042418Y-90500354D01*
X125250548Y-90486165D01*
X125250554Y-90486164D01*
X125254825Y-90485873D01*
X125259020Y-90485004D01*
X125259022Y-90485004D01*
X125395584Y-90456723D01*
X125536342Y-90427574D01*
X125807343Y-90331607D01*
X126062812Y-90199750D01*
X126066313Y-90197289D01*
X126066317Y-90197287D01*
X126180417Y-90117096D01*
X126298023Y-90034441D01*
X126424769Y-89916661D01*
X126505479Y-89841661D01*
X126505481Y-89841658D01*
X126508622Y-89838740D01*
X126690713Y-89616268D01*
X126840927Y-89371142D01*
X126844823Y-89362268D01*
X126954757Y-89111830D01*
X126956483Y-89107898D01*
X127035244Y-88831406D01*
X127065515Y-88618704D01*
X127075146Y-88551036D01*
X127075146Y-88551034D01*
X127075751Y-88546784D01*
X127075845Y-88528951D01*
X127077235Y-88263583D01*
X127077235Y-88263576D01*
X127077257Y-88259297D01*
X127074946Y-88241738D01*
X127057041Y-88105738D01*
X127039732Y-87974266D01*
X126963871Y-87696964D01*
X126904471Y-87557703D01*
X126852763Y-87436476D01*
X126852761Y-87436472D01*
X126851077Y-87432524D01*
X126765116Y-87288894D01*
X126705643Y-87189521D01*
X126705640Y-87189517D01*
X126703439Y-87185839D01*
X126523687Y-86961472D01*
X126315149Y-86763577D01*
X126081683Y-86595814D01*
X126059843Y-86584250D01*
X126036654Y-86571972D01*
X125827608Y-86461288D01*
X125617420Y-86384370D01*
X125561658Y-86363964D01*
X125561656Y-86363963D01*
X125557627Y-86362489D01*
X125276736Y-86301245D01*
X125245685Y-86298801D01*
X125053718Y-86283693D01*
X125053709Y-86283693D01*
X125051261Y-86283500D01*
X124895729Y-86283500D01*
X124893593Y-86283646D01*
X124893582Y-86283646D01*
X124685452Y-86297835D01*
X124685446Y-86297836D01*
X124681175Y-86298127D01*
X124676980Y-86298996D01*
X124676978Y-86298996D01*
X124601499Y-86314627D01*
X124399658Y-86356426D01*
X124128657Y-86452393D01*
X123873188Y-86584250D01*
X123869687Y-86586711D01*
X123869683Y-86586713D01*
X123859594Y-86593804D01*
X123637977Y-86749559D01*
X123622892Y-86763577D01*
X123441821Y-86931839D01*
X123427378Y-86945260D01*
X123245287Y-87167732D01*
X123095073Y-87412858D01*
X123093347Y-87416791D01*
X123093346Y-87416792D01*
X123020955Y-87581703D01*
X122979517Y-87676102D01*
X122978342Y-87680229D01*
X122978341Y-87680230D01*
X122965724Y-87724522D01*
X122900756Y-87952594D01*
X122892241Y-88012427D01*
X122863878Y-88211720D01*
X122860249Y-88237216D01*
X122860227Y-88241505D01*
X122860226Y-88241512D01*
X122858765Y-88520417D01*
X122858743Y-88524703D01*
X116778931Y-88524703D01*
X116666023Y-88394588D01*
X116666021Y-88394586D01*
X116662523Y-88390555D01*
X116620970Y-88356484D01*
X116488373Y-88247760D01*
X116488367Y-88247756D01*
X116484245Y-88244376D01*
X116452750Y-88226448D01*
X116403445Y-88175368D01*
X116389583Y-88105738D01*
X116415566Y-88039667D01*
X116444716Y-88012427D01*
X116466900Y-87997492D01*
X116566319Y-87930559D01*
X116733135Y-87771424D01*
X116751684Y-87746494D01*
X116867568Y-87590740D01*
X116870754Y-87586458D01*
X116975240Y-87380949D01*
X116977595Y-87373367D01*
X117042024Y-87165871D01*
X117043607Y-87160773D01*
X117044308Y-87155484D01*
X117073198Y-86937511D01*
X117073198Y-86937506D01*
X117073898Y-86932226D01*
X117065249Y-86701842D01*
X117017907Y-86476209D01*
X117012809Y-86463299D01*
X116935185Y-86266744D01*
X116935184Y-86266742D01*
X116933224Y-86261779D01*
X116895954Y-86200359D01*
X116816390Y-86069243D01*
X116813623Y-86064683D01*
X116796540Y-86044996D01*
X116666023Y-85894588D01*
X116666021Y-85894586D01*
X116662523Y-85890555D01*
X116626880Y-85861330D01*
X116586886Y-85802671D01*
X116584954Y-85731701D01*
X116621698Y-85670952D01*
X116640468Y-85656752D01*
X116780120Y-85570332D01*
X116786348Y-85566478D01*
X116806128Y-85546664D01*
X116906134Y-85446483D01*
X116911305Y-85441303D01*
X116915146Y-85435072D01*
X117000275Y-85296968D01*
X117000276Y-85296966D01*
X117004115Y-85290738D01*
X117039073Y-85185341D01*
X117057632Y-85129389D01*
X117057632Y-85129387D01*
X117059797Y-85122861D01*
X117070500Y-85018400D01*
X117070500Y-83835422D01*
X117090502Y-83767301D01*
X117107405Y-83746327D01*
X118171483Y-82682250D01*
X118179809Y-82674674D01*
X118186303Y-82670553D01*
X118233086Y-82620734D01*
X118235840Y-82617893D01*
X118255639Y-82598094D01*
X118258063Y-82594969D01*
X118258071Y-82594960D01*
X118258137Y-82594874D01*
X118265845Y-82585849D01*
X118290790Y-82559285D01*
X118296217Y-82553506D01*
X118306023Y-82535669D01*
X118316873Y-82519153D01*
X118329350Y-82503067D01*
X118346976Y-82462334D01*
X118352193Y-82451686D01*
X118369749Y-82419751D01*
X118373569Y-82412803D01*
X118375540Y-82405128D01*
X118375542Y-82405122D01*
X118378631Y-82393089D01*
X118385034Y-82374387D01*
X118393117Y-82355708D01*
X118400060Y-82311873D01*
X118402467Y-82300251D01*
X118413500Y-82257282D01*
X118413500Y-82236935D01*
X118415051Y-82217224D01*
X118416995Y-82204950D01*
X118418235Y-82197121D01*
X118414059Y-82152944D01*
X118413500Y-82141086D01*
X118413500Y-51816000D01*
X120860502Y-51816000D01*
X120880457Y-52044087D01*
X120881881Y-52049400D01*
X120881881Y-52049402D01*
X120899517Y-52115218D01*
X120939716Y-52265243D01*
X120942039Y-52270224D01*
X120942039Y-52270225D01*
X121034151Y-52467762D01*
X121034154Y-52467767D01*
X121036477Y-52472749D01*
X121167802Y-52660300D01*
X121329700Y-52822198D01*
X121334208Y-52825355D01*
X121334211Y-52825357D01*
X121484771Y-52930780D01*
X121529099Y-52986237D01*
X121538500Y-53033993D01*
X121538500Y-58195880D01*
X121537970Y-58207114D01*
X121536292Y-58214619D01*
X121536541Y-58222538D01*
X121538438Y-58282912D01*
X121538500Y-58286869D01*
X121538500Y-58314883D01*
X121538996Y-58318808D01*
X121538996Y-58318809D01*
X121539008Y-58318904D01*
X121539941Y-58330749D01*
X121541335Y-58375105D01*
X121543547Y-58382717D01*
X121547013Y-58394648D01*
X121551023Y-58414012D01*
X121552178Y-58423153D01*
X121553573Y-58434199D01*
X121556489Y-58441563D01*
X121556490Y-58441568D01*
X121569907Y-58475456D01*
X121573752Y-58486685D01*
X121586131Y-58529293D01*
X121590169Y-58536120D01*
X121590170Y-58536123D01*
X121596488Y-58546806D01*
X121605188Y-58564564D01*
X121609761Y-58576115D01*
X121609765Y-58576121D01*
X121612681Y-58583488D01*
X121633935Y-58612741D01*
X121638764Y-58619388D01*
X121645281Y-58629310D01*
X121663826Y-58660668D01*
X121663829Y-58660672D01*
X121667866Y-58667498D01*
X121682250Y-58681882D01*
X121695091Y-58696916D01*
X121707058Y-58713387D01*
X121713166Y-58718440D01*
X121741255Y-58741677D01*
X121750035Y-58749667D01*
X123990329Y-60989961D01*
X124024355Y-61052273D01*
X124019290Y-61123088D01*
X124002324Y-61154267D01*
X123955246Y-61217542D01*
X123952830Y-61222293D01*
X123952828Y-61222297D01*
X123927974Y-61271182D01*
X123850760Y-61423051D01*
X123849178Y-61428145D01*
X123849177Y-61428148D01*
X123787115Y-61628020D01*
X123782393Y-61643227D01*
X123781692Y-61648516D01*
X123753239Y-61863199D01*
X123752102Y-61871774D01*
X123760751Y-62102158D01*
X123808093Y-62327791D01*
X123810051Y-62332750D01*
X123810052Y-62332752D01*
X123878560Y-62506223D01*
X123892776Y-62542221D01*
X123895543Y-62546780D01*
X123895544Y-62546783D01*
X123928341Y-62600831D01*
X124012377Y-62739317D01*
X124015874Y-62743347D01*
X124102438Y-62843103D01*
X124163477Y-62913445D01*
X124167608Y-62916832D01*
X124337627Y-63056240D01*
X124337633Y-63056244D01*
X124341755Y-63059624D01*
X124346391Y-63062263D01*
X124346394Y-63062265D01*
X124460666Y-63127312D01*
X124542114Y-63173675D01*
X124758825Y-63252337D01*
X124764074Y-63253286D01*
X124764077Y-63253287D01*
X124981608Y-63292623D01*
X124981615Y-63292624D01*
X124985692Y-63293361D01*
X125003414Y-63294197D01*
X125008356Y-63294430D01*
X125008363Y-63294430D01*
X125009844Y-63294500D01*
X125421890Y-63294500D01*
X125488809Y-63288822D01*
X125588409Y-63280371D01*
X125588413Y-63280370D01*
X125593720Y-63279920D01*
X125598875Y-63278582D01*
X125598881Y-63278581D01*
X125811703Y-63223343D01*
X125811707Y-63223342D01*
X125816872Y-63222001D01*
X125821738Y-63219809D01*
X125821741Y-63219808D01*
X126022202Y-63129507D01*
X126027075Y-63127312D01*
X126218319Y-62998559D01*
X126385135Y-62839424D01*
X126399051Y-62820721D01*
X126519568Y-62658740D01*
X126522754Y-62654458D01*
X126536468Y-62627486D01*
X126588671Y-62524808D01*
X126627240Y-62448949D01*
X126629563Y-62441470D01*
X126694024Y-62233871D01*
X126695607Y-62228773D01*
X126696308Y-62223484D01*
X126725198Y-62005511D01*
X126725198Y-62005506D01*
X126725898Y-62000226D01*
X126723610Y-61939267D01*
X126717449Y-61775173D01*
X126717249Y-61769842D01*
X126669907Y-61544209D01*
X126659378Y-61517548D01*
X126587185Y-61334744D01*
X126587184Y-61334742D01*
X126585224Y-61329779D01*
X126549667Y-61271182D01*
X126468390Y-61137243D01*
X126465623Y-61132683D01*
X126429604Y-61091175D01*
X126318023Y-60962588D01*
X126318021Y-60962586D01*
X126314523Y-60958555D01*
X126272970Y-60924484D01*
X126140373Y-60815760D01*
X126140367Y-60815756D01*
X126136245Y-60812376D01*
X126104750Y-60794448D01*
X126055445Y-60743368D01*
X126041583Y-60673738D01*
X126067566Y-60607667D01*
X126096716Y-60580427D01*
X126112398Y-60569870D01*
X126218319Y-60498559D01*
X126280204Y-60439524D01*
X126381278Y-60343103D01*
X126385135Y-60339424D01*
X126522754Y-60154458D01*
X126554002Y-60092999D01*
X126574997Y-60051703D01*
X126627240Y-59948949D01*
X126695607Y-59728773D01*
X126698692Y-59705500D01*
X126725198Y-59505511D01*
X126725198Y-59505506D01*
X126725898Y-59500226D01*
X126717249Y-59269842D01*
X126669907Y-59044209D01*
X126667950Y-59039253D01*
X126667948Y-59039247D01*
X126596307Y-58857842D01*
X126589889Y-58787136D01*
X126622716Y-58724184D01*
X126634054Y-58713995D01*
X126639398Y-58710834D01*
X126653782Y-58696450D01*
X126668816Y-58683609D01*
X126678873Y-58676302D01*
X126685287Y-58671642D01*
X126713578Y-58637444D01*
X126721567Y-58628665D01*
X127139477Y-58210755D01*
X127147803Y-58203178D01*
X127154303Y-58199053D01*
X127174730Y-58177301D01*
X127201100Y-58149219D01*
X127203855Y-58146377D01*
X127223638Y-58126594D01*
X127226129Y-58123383D01*
X127233838Y-58114356D01*
X127258789Y-58087786D01*
X127264217Y-58082006D01*
X127274022Y-58064171D01*
X127284876Y-58047647D01*
X127292491Y-58037830D01*
X127292492Y-58037829D01*
X127297349Y-58031567D01*
X127314969Y-57990850D01*
X127320192Y-57980189D01*
X127337749Y-57948253D01*
X127337751Y-57948248D01*
X127341569Y-57941303D01*
X127343539Y-57933629D01*
X127343542Y-57933622D01*
X127346632Y-57921587D01*
X127353036Y-57902882D01*
X127357967Y-57891487D01*
X127361117Y-57884208D01*
X127368060Y-57840373D01*
X127370467Y-57828751D01*
X127370610Y-57828194D01*
X127381500Y-57785782D01*
X127381500Y-57765435D01*
X127383051Y-57745724D01*
X127384995Y-57733450D01*
X127386235Y-57725621D01*
X127382059Y-57681444D01*
X127381500Y-57669586D01*
X127381500Y-53033993D01*
X127401502Y-52965872D01*
X127435229Y-52930780D01*
X127585789Y-52825357D01*
X127585792Y-52825355D01*
X127590300Y-52822198D01*
X127752198Y-52660300D01*
X127883523Y-52472749D01*
X127885846Y-52467767D01*
X127885849Y-52467762D01*
X127977961Y-52270225D01*
X127977961Y-52270224D01*
X127980284Y-52265243D01*
X128020484Y-52115218D01*
X128038119Y-52049402D01*
X128038119Y-52049400D01*
X128039543Y-52044087D01*
X128059498Y-51816000D01*
X128039543Y-51587913D01*
X128001651Y-51446500D01*
X127981707Y-51372067D01*
X127981706Y-51372065D01*
X127980284Y-51366757D01*
X127974253Y-51353824D01*
X127885849Y-51164238D01*
X127885846Y-51164233D01*
X127883523Y-51159251D01*
X127800344Y-51040460D01*
X127755357Y-50976211D01*
X127755355Y-50976208D01*
X127752198Y-50971700D01*
X127590300Y-50809802D01*
X127585792Y-50806645D01*
X127585789Y-50806643D01*
X127475164Y-50729183D01*
X127402749Y-50678477D01*
X127397767Y-50676154D01*
X127397762Y-50676151D01*
X127200225Y-50584039D01*
X127200224Y-50584039D01*
X127195243Y-50581716D01*
X127189935Y-50580294D01*
X127189933Y-50580293D01*
X126979402Y-50523881D01*
X126979400Y-50523881D01*
X126974087Y-50522457D01*
X126746000Y-50502502D01*
X126517913Y-50522457D01*
X126512600Y-50523881D01*
X126512598Y-50523881D01*
X126302067Y-50580293D01*
X126302065Y-50580294D01*
X126296757Y-50581716D01*
X126291776Y-50584039D01*
X126291775Y-50584039D01*
X126094238Y-50676151D01*
X126094233Y-50676154D01*
X126089251Y-50678477D01*
X126016836Y-50729183D01*
X125906211Y-50806643D01*
X125906208Y-50806645D01*
X125901700Y-50809802D01*
X125739802Y-50971700D01*
X125736645Y-50976208D01*
X125736643Y-50976211D01*
X125691656Y-51040460D01*
X125608477Y-51159251D01*
X125606154Y-51164233D01*
X125606151Y-51164238D01*
X125517747Y-51353824D01*
X125511716Y-51366757D01*
X125510294Y-51372065D01*
X125510293Y-51372067D01*
X125490349Y-51446500D01*
X125452457Y-51587913D01*
X125432502Y-51816000D01*
X125452457Y-52044087D01*
X125453881Y-52049400D01*
X125453881Y-52049402D01*
X125471517Y-52115218D01*
X125511716Y-52265243D01*
X125514039Y-52270224D01*
X125514039Y-52270225D01*
X125606151Y-52467762D01*
X125606154Y-52467767D01*
X125608477Y-52472749D01*
X125739802Y-52660300D01*
X125901700Y-52822198D01*
X125906208Y-52825355D01*
X125906211Y-52825357D01*
X126056771Y-52930780D01*
X126101099Y-52986237D01*
X126110500Y-53033993D01*
X126110500Y-55452000D01*
X126090498Y-55520121D01*
X126036842Y-55566614D01*
X125984500Y-55578000D01*
X125511115Y-55578000D01*
X125495876Y-55582475D01*
X125494671Y-55583865D01*
X125493000Y-55591548D01*
X125493000Y-57064000D01*
X125472998Y-57132121D01*
X125419342Y-57178614D01*
X125367000Y-57190000D01*
X123774116Y-57190000D01*
X123758877Y-57194475D01*
X123757672Y-57195865D01*
X123756001Y-57203548D01*
X123756001Y-57583095D01*
X123756338Y-57589614D01*
X123766257Y-57685206D01*
X123769149Y-57698600D01*
X123820588Y-57852784D01*
X123826761Y-57865962D01*
X123912063Y-58003807D01*
X123921099Y-58015208D01*
X124035829Y-58129739D01*
X124047243Y-58138753D01*
X124186713Y-58224723D01*
X124234207Y-58277495D01*
X124245631Y-58347566D01*
X124217357Y-58412690D01*
X124207574Y-58423149D01*
X124092865Y-58532576D01*
X124089682Y-58536854D01*
X124081824Y-58547416D01*
X123955246Y-58717542D01*
X123952830Y-58722293D01*
X123952828Y-58722297D01*
X123938913Y-58749667D01*
X123887143Y-58851492D01*
X123885654Y-58854420D01*
X123836951Y-58906077D01*
X123768051Y-58923204D01*
X123700829Y-58900362D01*
X123684248Y-58886416D01*
X122846403Y-58048570D01*
X122812379Y-57986260D01*
X122809500Y-57959477D01*
X122809500Y-56663885D01*
X123756000Y-56663885D01*
X123760475Y-56679124D01*
X123761865Y-56680329D01*
X123769548Y-56682000D01*
X124966885Y-56682000D01*
X124982124Y-56677525D01*
X124983329Y-56676135D01*
X124985000Y-56668452D01*
X124985000Y-55596116D01*
X124980525Y-55580877D01*
X124979135Y-55579672D01*
X124971452Y-55578001D01*
X124466905Y-55578001D01*
X124460386Y-55578338D01*
X124364794Y-55588257D01*
X124351400Y-55591149D01*
X124197216Y-55642588D01*
X124184038Y-55648761D01*
X124046193Y-55734063D01*
X124034792Y-55743099D01*
X123920261Y-55857829D01*
X123911249Y-55869240D01*
X123826184Y-56007243D01*
X123820037Y-56020424D01*
X123768862Y-56174710D01*
X123765995Y-56188086D01*
X123756328Y-56282438D01*
X123756000Y-56288855D01*
X123756000Y-56663885D01*
X122809500Y-56663885D01*
X122809500Y-53033993D01*
X122829502Y-52965872D01*
X122863229Y-52930780D01*
X123013789Y-52825357D01*
X123013792Y-52825355D01*
X123018300Y-52822198D01*
X123180198Y-52660300D01*
X123311523Y-52472749D01*
X123313846Y-52467767D01*
X123313849Y-52467762D01*
X123405961Y-52270225D01*
X123405961Y-52270224D01*
X123408284Y-52265243D01*
X123448484Y-52115218D01*
X123466119Y-52049402D01*
X123466119Y-52049400D01*
X123467543Y-52044087D01*
X123487498Y-51816000D01*
X123467543Y-51587913D01*
X123429651Y-51446500D01*
X123409707Y-51372067D01*
X123409706Y-51372065D01*
X123408284Y-51366757D01*
X123402253Y-51353824D01*
X123313849Y-51164238D01*
X123313846Y-51164233D01*
X123311523Y-51159251D01*
X123228344Y-51040460D01*
X123183357Y-50976211D01*
X123183355Y-50976208D01*
X123180198Y-50971700D01*
X123018300Y-50809802D01*
X123013792Y-50806645D01*
X123013789Y-50806643D01*
X122903164Y-50729183D01*
X122830749Y-50678477D01*
X122825767Y-50676154D01*
X122825762Y-50676151D01*
X122628225Y-50584039D01*
X122628224Y-50584039D01*
X122623243Y-50581716D01*
X122617935Y-50580294D01*
X122617933Y-50580293D01*
X122407402Y-50523881D01*
X122407400Y-50523881D01*
X122402087Y-50522457D01*
X122174000Y-50502502D01*
X121945913Y-50522457D01*
X121940600Y-50523881D01*
X121940598Y-50523881D01*
X121730067Y-50580293D01*
X121730065Y-50580294D01*
X121724757Y-50581716D01*
X121719776Y-50584039D01*
X121719775Y-50584039D01*
X121522238Y-50676151D01*
X121522233Y-50676154D01*
X121517251Y-50678477D01*
X121444836Y-50729183D01*
X121334211Y-50806643D01*
X121334208Y-50806645D01*
X121329700Y-50809802D01*
X121167802Y-50971700D01*
X121164645Y-50976208D01*
X121164643Y-50976211D01*
X121119656Y-51040460D01*
X121036477Y-51159251D01*
X121034154Y-51164233D01*
X121034151Y-51164238D01*
X120945747Y-51353824D01*
X120939716Y-51366757D01*
X120938294Y-51372065D01*
X120938293Y-51372067D01*
X120918349Y-51446500D01*
X120880457Y-51587913D01*
X120860502Y-51816000D01*
X118413500Y-51816000D01*
X118413500Y-51563032D01*
X118414030Y-51551793D01*
X118415709Y-51544281D01*
X118413562Y-51475969D01*
X118413500Y-51472012D01*
X118413500Y-51444017D01*
X118412992Y-51439994D01*
X118412059Y-51428152D01*
X118410916Y-51391767D01*
X118410665Y-51383795D01*
X118404987Y-51364251D01*
X118400977Y-51344888D01*
X118399420Y-51332560D01*
X118399420Y-51332558D01*
X118398427Y-51324701D01*
X118395511Y-51317337D01*
X118395510Y-51317332D01*
X118382093Y-51283444D01*
X118378248Y-51272215D01*
X118368081Y-51237222D01*
X118365869Y-51229607D01*
X118361830Y-51222777D01*
X118355512Y-51212094D01*
X118346812Y-51194336D01*
X118342239Y-51182785D01*
X118342235Y-51182779D01*
X118339319Y-51175412D01*
X118327578Y-51159251D01*
X118313236Y-51139512D01*
X118306719Y-51129590D01*
X118288174Y-51098232D01*
X118288171Y-51098228D01*
X118284134Y-51091402D01*
X118269750Y-51077018D01*
X118256909Y-51061984D01*
X118249602Y-51051927D01*
X118244942Y-51045513D01*
X118210750Y-51017227D01*
X118201969Y-51009237D01*
X117806911Y-50614178D01*
X117772886Y-50551866D01*
X117773488Y-50495669D01*
X117825380Y-50279524D01*
X117825381Y-50279518D01*
X117826535Y-50274711D01*
X117845165Y-50038000D01*
X117826535Y-49801289D01*
X117821292Y-49779447D01*
X117772260Y-49575218D01*
X117771105Y-49570406D01*
X117749789Y-49518944D01*
X117682135Y-49355611D01*
X117682133Y-49355607D01*
X117680240Y-49351037D01*
X117677654Y-49346817D01*
X117558759Y-49152798D01*
X117558755Y-49152792D01*
X117556176Y-49148584D01*
X117401969Y-48968031D01*
X117398213Y-48964823D01*
X117398208Y-48964818D01*
X117279944Y-48863811D01*
X117241134Y-48804361D01*
X117240628Y-48733366D01*
X117279944Y-48672189D01*
X117398208Y-48571182D01*
X117398213Y-48571177D01*
X117401969Y-48567969D01*
X117556176Y-48387416D01*
X117558755Y-48383208D01*
X117558759Y-48383202D01*
X117677654Y-48189183D01*
X117680240Y-48184963D01*
X117702077Y-48132245D01*
X117769211Y-47970167D01*
X117769212Y-47970165D01*
X117771105Y-47965594D01*
X117810489Y-47801548D01*
X117825380Y-47739524D01*
X117825381Y-47739518D01*
X117826535Y-47734711D01*
X117845165Y-47498000D01*
X117826535Y-47261289D01*
X117811760Y-47199744D01*
X117785842Y-47091789D01*
X117771105Y-47030406D01*
X117769211Y-47025833D01*
X117682135Y-46815611D01*
X117682133Y-46815607D01*
X117680240Y-46811037D01*
X117590820Y-46665117D01*
X117558759Y-46612798D01*
X117558755Y-46612792D01*
X117556176Y-46608584D01*
X117401969Y-46428031D01*
X117398213Y-46424823D01*
X117398208Y-46424818D01*
X117279944Y-46323811D01*
X117241134Y-46264361D01*
X117240628Y-46193366D01*
X117279944Y-46132189D01*
X117398208Y-46031182D01*
X117398213Y-46031177D01*
X117401969Y-46027969D01*
X117556176Y-45847416D01*
X117558755Y-45843208D01*
X117558759Y-45843202D01*
X117677654Y-45649183D01*
X117680240Y-45644963D01*
X117702553Y-45591096D01*
X117769211Y-45430167D01*
X117769212Y-45430165D01*
X117771105Y-45425594D01*
X117810489Y-45261548D01*
X117825380Y-45199524D01*
X117825381Y-45199518D01*
X117826535Y-45194711D01*
X117845165Y-44958000D01*
X117826535Y-44721289D01*
X117825129Y-44715429D01*
X117785195Y-44549094D01*
X117771105Y-44490406D01*
X117769211Y-44485833D01*
X117682135Y-44275611D01*
X117682133Y-44275607D01*
X117680240Y-44271037D01*
X117590820Y-44125117D01*
X117558759Y-44072798D01*
X117558755Y-44072792D01*
X117556176Y-44068584D01*
X117422968Y-43912618D01*
X117405177Y-43891787D01*
X117401969Y-43888031D01*
X117398213Y-43884823D01*
X117398208Y-43884818D01*
X117279944Y-43783811D01*
X117241134Y-43724361D01*
X117240628Y-43653366D01*
X117279944Y-43592189D01*
X117398208Y-43491182D01*
X117398213Y-43491177D01*
X117401969Y-43487969D01*
X117556176Y-43307416D01*
X117558755Y-43303208D01*
X117558759Y-43303202D01*
X117677654Y-43109183D01*
X117680240Y-43104963D01*
X117682725Y-43098965D01*
X117769211Y-42890167D01*
X117769212Y-42890165D01*
X117771105Y-42885594D01*
X117810489Y-42721548D01*
X117825380Y-42659524D01*
X117825381Y-42659518D01*
X117826535Y-42654711D01*
X117845165Y-42418000D01*
X117826535Y-42181289D01*
X117822672Y-42165196D01*
X117785842Y-42011789D01*
X117771105Y-41950406D01*
X117769211Y-41945833D01*
X117682135Y-41735611D01*
X117682133Y-41735607D01*
X117680240Y-41731037D01*
X117590820Y-41585117D01*
X117558759Y-41532798D01*
X117558755Y-41532792D01*
X117556176Y-41528584D01*
X117401969Y-41348031D01*
X117398213Y-41344823D01*
X117398208Y-41344818D01*
X117279944Y-41243811D01*
X117241134Y-41184361D01*
X117240628Y-41113366D01*
X117279944Y-41052189D01*
X117398208Y-40951182D01*
X117398213Y-40951177D01*
X117401969Y-40947969D01*
X117556176Y-40767416D01*
X117558755Y-40763208D01*
X117558759Y-40763202D01*
X117677654Y-40569183D01*
X117680240Y-40564963D01*
X117684543Y-40554576D01*
X117769211Y-40350167D01*
X117769212Y-40350165D01*
X117771105Y-40345594D01*
X117797385Y-40236129D01*
X117825380Y-40119524D01*
X117825381Y-40119518D01*
X117826535Y-40114711D01*
X117845165Y-39878000D01*
X117826535Y-39641289D01*
X117811760Y-39579744D01*
X117782899Y-39459533D01*
X117771105Y-39410406D01*
X117754847Y-39371155D01*
X117682135Y-39195611D01*
X117682133Y-39195607D01*
X117680240Y-39191037D01*
X117642112Y-39128818D01*
X117558759Y-38992798D01*
X117558755Y-38992792D01*
X117556176Y-38988584D01*
X117401969Y-38808031D01*
X117398213Y-38804823D01*
X117398208Y-38804818D01*
X117279944Y-38703811D01*
X117241134Y-38644361D01*
X117240628Y-38573366D01*
X117279944Y-38512189D01*
X117398208Y-38411182D01*
X117398213Y-38411177D01*
X117401969Y-38407969D01*
X117556176Y-38227416D01*
X117558755Y-38223208D01*
X117558759Y-38223202D01*
X117677654Y-38029183D01*
X117680240Y-38024963D01*
X117682135Y-38020389D01*
X117723357Y-37920870D01*
X117767906Y-37865589D01*
X117835269Y-37843168D01*
X117904060Y-37860726D01*
X117928860Y-37879993D01*
X118952195Y-38903328D01*
X118986221Y-38965640D01*
X118989100Y-38992423D01*
X118989100Y-40702480D01*
X118988570Y-40713714D01*
X118986892Y-40721219D01*
X118987141Y-40729138D01*
X118989038Y-40789505D01*
X118989100Y-40793463D01*
X118989100Y-40821483D01*
X118989596Y-40825408D01*
X118989596Y-40825409D01*
X118989608Y-40825504D01*
X118990541Y-40837349D01*
X118991935Y-40881705D01*
X118997613Y-40901248D01*
X119001623Y-40920612D01*
X119004173Y-40940799D01*
X119007089Y-40948163D01*
X119007090Y-40948168D01*
X119020507Y-40982056D01*
X119024352Y-40993285D01*
X119027534Y-41004238D01*
X119036731Y-41035893D01*
X119040769Y-41042720D01*
X119040770Y-41042723D01*
X119047088Y-41053406D01*
X119055788Y-41071164D01*
X119060361Y-41082715D01*
X119060365Y-41082721D01*
X119063281Y-41090088D01*
X119067939Y-41096499D01*
X119067940Y-41096501D01*
X119089364Y-41125988D01*
X119095881Y-41135910D01*
X119114426Y-41167268D01*
X119114429Y-41167272D01*
X119118466Y-41174098D01*
X119132850Y-41188482D01*
X119145691Y-41203516D01*
X119157658Y-41219987D01*
X119163766Y-41225040D01*
X119191855Y-41248277D01*
X119200635Y-41256267D01*
X121175450Y-43231083D01*
X121183026Y-43239409D01*
X121187147Y-43245903D01*
X121203830Y-43261569D01*
X121236965Y-43292685D01*
X121239807Y-43295440D01*
X121259606Y-43315239D01*
X121262737Y-43317668D01*
X121262742Y-43317672D01*
X121262828Y-43317739D01*
X121271853Y-43325447D01*
X121304194Y-43355817D01*
X121311139Y-43359635D01*
X121311143Y-43359638D01*
X121322034Y-43365626D01*
X121338555Y-43376478D01*
X121354634Y-43388950D01*
X121395362Y-43406574D01*
X121406019Y-43411796D01*
X121437946Y-43429348D01*
X121437949Y-43429349D01*
X121444897Y-43433169D01*
X121464615Y-43438232D01*
X121483311Y-43444633D01*
X121501993Y-43452717D01*
X121509817Y-43453956D01*
X121509823Y-43453958D01*
X121545820Y-43459660D01*
X121557440Y-43462066D01*
X121592737Y-43471128D01*
X121600418Y-43473100D01*
X121620766Y-43473100D01*
X121640478Y-43474651D01*
X121660580Y-43477835D01*
X121704755Y-43473659D01*
X121716614Y-43473100D01*
X124304080Y-43473100D01*
X124315314Y-43473630D01*
X124322819Y-43475308D01*
X124391112Y-43473162D01*
X124395069Y-43473100D01*
X124423083Y-43473100D01*
X124427008Y-43472604D01*
X124427009Y-43472604D01*
X124427104Y-43472592D01*
X124438949Y-43471659D01*
X124468770Y-43470722D01*
X124475382Y-43470514D01*
X124475383Y-43470514D01*
X124483305Y-43470265D01*
X124502849Y-43464587D01*
X124522212Y-43460577D01*
X124534540Y-43459020D01*
X124534542Y-43459020D01*
X124542399Y-43458027D01*
X124549763Y-43455111D01*
X124549768Y-43455110D01*
X124583656Y-43441693D01*
X124594885Y-43437848D01*
X124611565Y-43433002D01*
X124637493Y-43425469D01*
X124644320Y-43421431D01*
X124644323Y-43421430D01*
X124655006Y-43415112D01*
X124672764Y-43406412D01*
X124684315Y-43401839D01*
X124684321Y-43401835D01*
X124691688Y-43398919D01*
X124727591Y-43372834D01*
X124737510Y-43366319D01*
X124768868Y-43347774D01*
X124768872Y-43347771D01*
X124775698Y-43343734D01*
X124790082Y-43329350D01*
X124805116Y-43316509D01*
X124815173Y-43309202D01*
X124821587Y-43304542D01*
X124849873Y-43270350D01*
X124857863Y-43261569D01*
X125590373Y-42529060D01*
X125652685Y-42495035D01*
X125723501Y-42500100D01*
X125768563Y-42529061D01*
X125901700Y-42662198D01*
X125906208Y-42665355D01*
X125906211Y-42665357D01*
X125978903Y-42716256D01*
X126089251Y-42793523D01*
X126094233Y-42795846D01*
X126094238Y-42795849D01*
X126286699Y-42885594D01*
X126296757Y-42890284D01*
X126302065Y-42891706D01*
X126302067Y-42891707D01*
X126512598Y-42948119D01*
X126512600Y-42948119D01*
X126517913Y-42949543D01*
X126746000Y-42969498D01*
X126974087Y-42949543D01*
X126979400Y-42948119D01*
X126979402Y-42948119D01*
X127189933Y-42891707D01*
X127189935Y-42891706D01*
X127195243Y-42890284D01*
X127205301Y-42885594D01*
X127397762Y-42795849D01*
X127397767Y-42795846D01*
X127402749Y-42793523D01*
X127513097Y-42716256D01*
X127585789Y-42665357D01*
X127585792Y-42665355D01*
X127590300Y-42662198D01*
X127752198Y-42500300D01*
X127883523Y-42312749D01*
X127885846Y-42307767D01*
X127885849Y-42307762D01*
X127977961Y-42110225D01*
X127977961Y-42110224D01*
X127980284Y-42105243D01*
X128011524Y-41988657D01*
X128038119Y-41889402D01*
X128038119Y-41889400D01*
X128039543Y-41884087D01*
X128059498Y-41656000D01*
X128039543Y-41427913D01*
X128036004Y-41414706D01*
X127981707Y-41212067D01*
X127981706Y-41212065D01*
X127980284Y-41206757D01*
X127977462Y-41200705D01*
X127885849Y-41004238D01*
X127885846Y-41004233D01*
X127883523Y-40999251D01*
X127795815Y-40873991D01*
X127755357Y-40816211D01*
X127755355Y-40816208D01*
X127752198Y-40811700D01*
X127590300Y-40649802D01*
X127585792Y-40646645D01*
X127585789Y-40646643D01*
X127494284Y-40582571D01*
X127402749Y-40518477D01*
X127397767Y-40516154D01*
X127397762Y-40516151D01*
X127200225Y-40424039D01*
X127200224Y-40424039D01*
X127195243Y-40421716D01*
X127189935Y-40420294D01*
X127189933Y-40420293D01*
X126979402Y-40363881D01*
X126979400Y-40363881D01*
X126974087Y-40362457D01*
X126746000Y-40342502D01*
X126517913Y-40362457D01*
X126512600Y-40363881D01*
X126512598Y-40363881D01*
X126302067Y-40420293D01*
X126302065Y-40420294D01*
X126296757Y-40421716D01*
X126291776Y-40424039D01*
X126291775Y-40424039D01*
X126094238Y-40516151D01*
X126094233Y-40516154D01*
X126089251Y-40518477D01*
X125997716Y-40582571D01*
X125906211Y-40646643D01*
X125906208Y-40646645D01*
X125901700Y-40649802D01*
X125739802Y-40811700D01*
X125736645Y-40816208D01*
X125736643Y-40816211D01*
X125696185Y-40873991D01*
X125642136Y-40951182D01*
X125631220Y-40966771D01*
X125575763Y-41011099D01*
X125532585Y-41019599D01*
X125532626Y-41020252D01*
X125528683Y-41020500D01*
X125524717Y-41020500D01*
X125520783Y-41020997D01*
X125520781Y-41020997D01*
X125520694Y-41021008D01*
X125508860Y-41021940D01*
X125464495Y-41023335D01*
X125456882Y-41025547D01*
X125456881Y-41025547D01*
X125444952Y-41029013D01*
X125425588Y-41033023D01*
X125413260Y-41034580D01*
X125413258Y-41034580D01*
X125405401Y-41035573D01*
X125398037Y-41038489D01*
X125398032Y-41038490D01*
X125364144Y-41051907D01*
X125352915Y-41055752D01*
X125339000Y-41059795D01*
X125310307Y-41068131D01*
X125303480Y-41072169D01*
X125303477Y-41072170D01*
X125292794Y-41078488D01*
X125275036Y-41087188D01*
X125263485Y-41091761D01*
X125263479Y-41091765D01*
X125256112Y-41094681D01*
X125249701Y-41099339D01*
X125249699Y-41099340D01*
X125220212Y-41120764D01*
X125210290Y-41127281D01*
X125178932Y-41145826D01*
X125178928Y-41145829D01*
X125172102Y-41149866D01*
X125157718Y-41164250D01*
X125142684Y-41177091D01*
X125126213Y-41189058D01*
X125105933Y-41213573D01*
X125097927Y-41223250D01*
X125089937Y-41232031D01*
X124156771Y-42165196D01*
X124094459Y-42199221D01*
X124067676Y-42202100D01*
X123546538Y-42202100D01*
X123478417Y-42182098D01*
X123431924Y-42128442D01*
X123421820Y-42058168D01*
X123424831Y-42043489D01*
X123466119Y-41889402D01*
X123466119Y-41889400D01*
X123467543Y-41884087D01*
X123487498Y-41656000D01*
X123467543Y-41427913D01*
X123464004Y-41414706D01*
X123409707Y-41212067D01*
X123409706Y-41212065D01*
X123408284Y-41206757D01*
X123405462Y-41200705D01*
X123313849Y-41004238D01*
X123313846Y-41004233D01*
X123311523Y-40999251D01*
X123223815Y-40873991D01*
X123183357Y-40816211D01*
X123183355Y-40816208D01*
X123180198Y-40811700D01*
X123018300Y-40649802D01*
X123013792Y-40646645D01*
X123013789Y-40646643D01*
X122883155Y-40555172D01*
X122863229Y-40541220D01*
X122818901Y-40485763D01*
X122810401Y-40442585D01*
X122809748Y-40442626D01*
X122809500Y-40438683D01*
X122809500Y-40434717D01*
X122808992Y-40430694D01*
X122808059Y-40418852D01*
X122807973Y-40416092D01*
X122806665Y-40374495D01*
X122800987Y-40354951D01*
X122796977Y-40335588D01*
X122795420Y-40323260D01*
X122795420Y-40323258D01*
X122794427Y-40315401D01*
X122791511Y-40308037D01*
X122791510Y-40308032D01*
X122778093Y-40274144D01*
X122774248Y-40262915D01*
X122768989Y-40244814D01*
X122761869Y-40220307D01*
X122757261Y-40212515D01*
X122751512Y-40202794D01*
X122742812Y-40185036D01*
X122738239Y-40173485D01*
X122738235Y-40173479D01*
X122735319Y-40166112D01*
X122709234Y-40130209D01*
X122702719Y-40120290D01*
X122684174Y-40088932D01*
X122684171Y-40088928D01*
X122680134Y-40082102D01*
X122665750Y-40067718D01*
X122652909Y-40052684D01*
X122645602Y-40042627D01*
X122640942Y-40036213D01*
X122606744Y-40007922D01*
X122597965Y-39999933D01*
X117646250Y-35048217D01*
X117638674Y-35039891D01*
X117634553Y-35033397D01*
X117584734Y-34986614D01*
X117581893Y-34983860D01*
X117562094Y-34964061D01*
X117558969Y-34961637D01*
X117558960Y-34961629D01*
X117558874Y-34961563D01*
X117549849Y-34953855D01*
X117523285Y-34928910D01*
X117517506Y-34923483D01*
X117499669Y-34913677D01*
X117483153Y-34902827D01*
X117467067Y-34890350D01*
X117426334Y-34872724D01*
X117415686Y-34867507D01*
X117386789Y-34851621D01*
X117376803Y-34846131D01*
X117369128Y-34844160D01*
X117369122Y-34844158D01*
X117357089Y-34841069D01*
X117338387Y-34834666D01*
X117319708Y-34826583D01*
X117279907Y-34820279D01*
X117275873Y-34819640D01*
X117264260Y-34817235D01*
X117221282Y-34806200D01*
X117200935Y-34806200D01*
X117181224Y-34804649D01*
X117168950Y-34802705D01*
X117161121Y-34801465D01*
X117153229Y-34802211D01*
X117116944Y-34805641D01*
X117105086Y-34806200D01*
X110687320Y-34806200D01*
X110676091Y-34805671D01*
X110668581Y-34803992D01*
X110660655Y-34804241D01*
X110660654Y-34804241D01*
X110600302Y-34806138D01*
X110596344Y-34806200D01*
X110568317Y-34806200D01*
X110564271Y-34806711D01*
X110552443Y-34807642D01*
X110508095Y-34809036D01*
X110500477Y-34811249D01*
X110500478Y-34811249D01*
X110488554Y-34814713D01*
X110469194Y-34818722D01*
X110456866Y-34820279D01*
X110456863Y-34820280D01*
X110449001Y-34821273D01*
X110441635Y-34824190D01*
X110441629Y-34824191D01*
X110407739Y-34837609D01*
X110396512Y-34841453D01*
X110353907Y-34853831D01*
X110347088Y-34857864D01*
X110347083Y-34857866D01*
X110336391Y-34864190D01*
X110318641Y-34872887D01*
X110299712Y-34880381D01*
X110293296Y-34885042D01*
X110293295Y-34885043D01*
X110263819Y-34906459D01*
X110253895Y-34912978D01*
X110222524Y-34931530D01*
X110222519Y-34931534D01*
X110215701Y-34935566D01*
X110201314Y-34949953D01*
X110186280Y-34962794D01*
X110169813Y-34974758D01*
X110164760Y-34980866D01*
X110141528Y-35008949D01*
X110133538Y-35017729D01*
X92647774Y-52503493D01*
X92585462Y-52537519D01*
X92514647Y-52532454D01*
X92457811Y-52489907D01*
X92433067Y-52424284D01*
X92426923Y-52346223D01*
X92426535Y-52341289D01*
X92371105Y-52110406D01*
X92369211Y-52105833D01*
X92282135Y-51895611D01*
X92282133Y-51895607D01*
X92280240Y-51891037D01*
X92230902Y-51810525D01*
X92158759Y-51692798D01*
X92158755Y-51692792D01*
X92156176Y-51688584D01*
X92001969Y-51508031D01*
X91998213Y-51504823D01*
X91998208Y-51504818D01*
X91879944Y-51403811D01*
X91841134Y-51344361D01*
X91840628Y-51273366D01*
X91879944Y-51212189D01*
X91998208Y-51111182D01*
X91998213Y-51111177D01*
X92001969Y-51107969D01*
X92156176Y-50927416D01*
X92158755Y-50923208D01*
X92158759Y-50923202D01*
X92277654Y-50729183D01*
X92280240Y-50724963D01*
X92298188Y-50681634D01*
X92369211Y-50510167D01*
X92369212Y-50510165D01*
X92371105Y-50505594D01*
X92419751Y-50302969D01*
X92425380Y-50279524D01*
X92425381Y-50279518D01*
X92426535Y-50274711D01*
X92445165Y-50038000D01*
X92426535Y-49801289D01*
X92421292Y-49779447D01*
X92372260Y-49575218D01*
X92371105Y-49570406D01*
X92349789Y-49518944D01*
X92282135Y-49355611D01*
X92282133Y-49355607D01*
X92280240Y-49351037D01*
X92277654Y-49346817D01*
X92158759Y-49152798D01*
X92158755Y-49152792D01*
X92156176Y-49148584D01*
X92001969Y-48968031D01*
X91998213Y-48964823D01*
X91998208Y-48964818D01*
X91879944Y-48863811D01*
X91841134Y-48804361D01*
X91840628Y-48733366D01*
X91879944Y-48672189D01*
X91998208Y-48571182D01*
X91998213Y-48571177D01*
X92001969Y-48567969D01*
X92156176Y-48387416D01*
X92274908Y-48193664D01*
X92327555Y-48146034D01*
X92382340Y-48133500D01*
X93887080Y-48133500D01*
X93898314Y-48134030D01*
X93905819Y-48135708D01*
X93974112Y-48133562D01*
X93978069Y-48133500D01*
X94006083Y-48133500D01*
X94010008Y-48133004D01*
X94010009Y-48133004D01*
X94010104Y-48132992D01*
X94021949Y-48132059D01*
X94052587Y-48131096D01*
X94058382Y-48130914D01*
X94058383Y-48130914D01*
X94066305Y-48130665D01*
X94085849Y-48124987D01*
X94105212Y-48120977D01*
X94117540Y-48119420D01*
X94117542Y-48119420D01*
X94125399Y-48118427D01*
X94132763Y-48115511D01*
X94132768Y-48115510D01*
X94166656Y-48102093D01*
X94177885Y-48098248D01*
X94194565Y-48093402D01*
X94220493Y-48085869D01*
X94227320Y-48081831D01*
X94227323Y-48081830D01*
X94238006Y-48075512D01*
X94255764Y-48066812D01*
X94267315Y-48062239D01*
X94267321Y-48062235D01*
X94274688Y-48059319D01*
X94310591Y-48033234D01*
X94320510Y-48026719D01*
X94351868Y-48008174D01*
X94351872Y-48008171D01*
X94358698Y-48004134D01*
X94373082Y-47989750D01*
X94388116Y-47976909D01*
X94398173Y-47969602D01*
X94404587Y-47964942D01*
X94432878Y-47930744D01*
X94440867Y-47921965D01*
X111496130Y-30866703D01*
X123874743Y-30866703D01*
X123912268Y-31151734D01*
X123988129Y-31429036D01*
X123989813Y-31432984D01*
X124073621Y-31629467D01*
X124100923Y-31693476D01*
X124248561Y-31940161D01*
X124428313Y-32164528D01*
X124551711Y-32281628D01*
X124591366Y-32319259D01*
X124636851Y-32362423D01*
X124870317Y-32530186D01*
X124874112Y-32532195D01*
X124874113Y-32532196D01*
X124895869Y-32543715D01*
X125124392Y-32664712D01*
X125394373Y-32763511D01*
X125675264Y-32824755D01*
X125703841Y-32827004D01*
X125898282Y-32842307D01*
X125898291Y-32842307D01*
X125900739Y-32842500D01*
X126056271Y-32842500D01*
X126058407Y-32842354D01*
X126058418Y-32842354D01*
X126266548Y-32828165D01*
X126266554Y-32828164D01*
X126270825Y-32827873D01*
X126275020Y-32827004D01*
X126275022Y-32827004D01*
X126431563Y-32794586D01*
X126552342Y-32769574D01*
X126823343Y-32673607D01*
X127078812Y-32541750D01*
X127082313Y-32539289D01*
X127082317Y-32539287D01*
X127237426Y-32430274D01*
X127314023Y-32376441D01*
X127524622Y-32180740D01*
X127706713Y-31958268D01*
X127856927Y-31713142D01*
X127972483Y-31449898D01*
X128051244Y-31173406D01*
X128091751Y-30888784D01*
X128091845Y-30870951D01*
X128093235Y-30605583D01*
X128093235Y-30605576D01*
X128093257Y-30601297D01*
X128055732Y-30316266D01*
X127979871Y-30038964D01*
X127867077Y-29774524D01*
X127719439Y-29527839D01*
X127539687Y-29303472D01*
X127331149Y-29105577D01*
X127097683Y-28937814D01*
X127075843Y-28926250D01*
X127033753Y-28903965D01*
X126843608Y-28803288D01*
X126647998Y-28731705D01*
X126577658Y-28705964D01*
X126577656Y-28705963D01*
X126573627Y-28704489D01*
X126292736Y-28643245D01*
X126261685Y-28640801D01*
X126069718Y-28625693D01*
X126069709Y-28625693D01*
X126067261Y-28625500D01*
X125911729Y-28625500D01*
X125909593Y-28625646D01*
X125909582Y-28625646D01*
X125701452Y-28639835D01*
X125701446Y-28639836D01*
X125697175Y-28640127D01*
X125692980Y-28640996D01*
X125692978Y-28640996D01*
X125556417Y-28669276D01*
X125415658Y-28698426D01*
X125144657Y-28794393D01*
X125140848Y-28796359D01*
X124932365Y-28903965D01*
X124889188Y-28926250D01*
X124885687Y-28928711D01*
X124885683Y-28928713D01*
X124798306Y-28990123D01*
X124653977Y-29091559D01*
X124443378Y-29287260D01*
X124261287Y-29509732D01*
X124111073Y-29754858D01*
X123995517Y-30018102D01*
X123916756Y-30294594D01*
X123876249Y-30579216D01*
X123876227Y-30583505D01*
X123876226Y-30583512D01*
X123874823Y-30851420D01*
X123874743Y-30866703D01*
X111496130Y-30866703D01*
X122586183Y-19776650D01*
X122594509Y-19769074D01*
X122601003Y-19764953D01*
X122647786Y-19715134D01*
X122650540Y-19712293D01*
X122670339Y-19692494D01*
X122672768Y-19689363D01*
X122672772Y-19689358D01*
X122672839Y-19689272D01*
X122680549Y-19680245D01*
X122687798Y-19672526D01*
X122749012Y-19636562D01*
X122819952Y-19639402D01*
X122836750Y-19646463D01*
X122911051Y-19684240D01*
X122916145Y-19685822D01*
X122916148Y-19685823D01*
X123056614Y-19729439D01*
X123131227Y-19752607D01*
X123136516Y-19753308D01*
X123354489Y-19782198D01*
X123354494Y-19782198D01*
X123359774Y-19782898D01*
X123365103Y-19782698D01*
X123365105Y-19782698D01*
X123493332Y-19777884D01*
X123590158Y-19774249D01*
X123815791Y-19726907D01*
X123820750Y-19724949D01*
X123820752Y-19724948D01*
X124025256Y-19644185D01*
X124025258Y-19644184D01*
X124030221Y-19642224D01*
X124035647Y-19638932D01*
X124210302Y-19532948D01*
X124227317Y-19522623D01*
X124356037Y-19410926D01*
X124397412Y-19375023D01*
X124397414Y-19375021D01*
X124401445Y-19371523D01*
X124454868Y-19306369D01*
X124544240Y-19197373D01*
X124544244Y-19197367D01*
X124547624Y-19193245D01*
X124553115Y-19183600D01*
X124659032Y-18997529D01*
X124661675Y-18992886D01*
X124740337Y-18776175D01*
X124743417Y-18759142D01*
X124780623Y-18553392D01*
X124780624Y-18553385D01*
X124781361Y-18549308D01*
X124782500Y-18525156D01*
X124782500Y-18063110D01*
X124771972Y-17939036D01*
X124768371Y-17896591D01*
X124768370Y-17896587D01*
X124767920Y-17891280D01*
X124766582Y-17886125D01*
X124766581Y-17886119D01*
X124711343Y-17673297D01*
X124711342Y-17673293D01*
X124710001Y-17668128D01*
X124700618Y-17647297D01*
X124617507Y-17462798D01*
X124615312Y-17457925D01*
X124486559Y-17266681D01*
X124470186Y-17249517D01*
X124355715Y-17129522D01*
X124327424Y-17099865D01*
X124142458Y-16962246D01*
X124137707Y-16959830D01*
X124137703Y-16959828D01*
X123975141Y-16877178D01*
X123936949Y-16857760D01*
X123931855Y-16856178D01*
X123931852Y-16856177D01*
X123721871Y-16790976D01*
X123716773Y-16789393D01*
X123680240Y-16784551D01*
X123493511Y-16759802D01*
X123493506Y-16759802D01*
X123488226Y-16759102D01*
X123482897Y-16759302D01*
X123482895Y-16759302D01*
X123384368Y-16763001D01*
X123257842Y-16767751D01*
X123252623Y-16768846D01*
X123191494Y-16781672D01*
X123032209Y-16815093D01*
X123027250Y-16817051D01*
X123027248Y-16817052D01*
X122822744Y-16897815D01*
X122822742Y-16897816D01*
X122817779Y-16899776D01*
X122813220Y-16902543D01*
X122813217Y-16902544D01*
X122702337Y-16969828D01*
X122620683Y-17019377D01*
X122616653Y-17022874D01*
X122488746Y-17133866D01*
X122446555Y-17170477D01*
X122443168Y-17174608D01*
X122416994Y-17206529D01*
X122358334Y-17246524D01*
X122287364Y-17248455D01*
X122226616Y-17211710D01*
X122212416Y-17192941D01*
X122125937Y-17053193D01*
X122116901Y-17041792D01*
X122002171Y-16927261D01*
X121990760Y-16918249D01*
X121852757Y-16833184D01*
X121839576Y-16827037D01*
X121685290Y-16775862D01*
X121671914Y-16772995D01*
X121577562Y-16763328D01*
X121571145Y-16763000D01*
X121196115Y-16763000D01*
X121180876Y-16767475D01*
X121179671Y-16768865D01*
X121178000Y-16776548D01*
X121178000Y-18399000D01*
X121157998Y-18467121D01*
X121104342Y-18513614D01*
X121052000Y-18525000D01*
X119584116Y-18525000D01*
X119568877Y-18529475D01*
X119567672Y-18530865D01*
X119566001Y-18538548D01*
X119566001Y-19068095D01*
X119566338Y-19074614D01*
X119576257Y-19170206D01*
X119579149Y-19183600D01*
X119630588Y-19337784D01*
X119636761Y-19350962D01*
X119722063Y-19488807D01*
X119731099Y-19500208D01*
X119845829Y-19614739D01*
X119857240Y-19623751D01*
X119995243Y-19708816D01*
X120008424Y-19714963D01*
X120162710Y-19766138D01*
X120176086Y-19769005D01*
X120270438Y-19778672D01*
X120276854Y-19779000D01*
X120482177Y-19779000D01*
X120550298Y-19799002D01*
X120596791Y-19852658D01*
X120606895Y-19922932D01*
X120577401Y-19987512D01*
X120571272Y-19994095D01*
X93739772Y-46825595D01*
X93677460Y-46859621D01*
X93650677Y-46862500D01*
X92382340Y-46862500D01*
X92314219Y-46842498D01*
X92274907Y-46802335D01*
X92247650Y-46757855D01*
X92156176Y-46608584D01*
X92001969Y-46428031D01*
X91998213Y-46424823D01*
X91998208Y-46424818D01*
X91879944Y-46323811D01*
X91841134Y-46264361D01*
X91840628Y-46193366D01*
X91879944Y-46132189D01*
X91998208Y-46031182D01*
X91998213Y-46031177D01*
X92001969Y-46027969D01*
X92156176Y-45847416D01*
X92158755Y-45843208D01*
X92158759Y-45843202D01*
X92277654Y-45649183D01*
X92280240Y-45644963D01*
X92302553Y-45591096D01*
X92369211Y-45430167D01*
X92369212Y-45430165D01*
X92371105Y-45425594D01*
X92410489Y-45261548D01*
X92425380Y-45199524D01*
X92425381Y-45199518D01*
X92426535Y-45194711D01*
X92445165Y-44958000D01*
X92426535Y-44721289D01*
X92425129Y-44715429D01*
X92400443Y-44612608D01*
X92373487Y-44500328D01*
X92377034Y-44429422D01*
X92406911Y-44381821D01*
X102999760Y-33788973D01*
X113637483Y-23151250D01*
X113645809Y-23143674D01*
X113652303Y-23139553D01*
X113699086Y-23089734D01*
X113701840Y-23086893D01*
X113721639Y-23067094D01*
X113724063Y-23063969D01*
X113724071Y-23063960D01*
X113724137Y-23063874D01*
X113731845Y-23054849D01*
X113744383Y-23041497D01*
X113762217Y-23022506D01*
X113768336Y-23011377D01*
X113772022Y-23004671D01*
X113782873Y-22988153D01*
X113795350Y-22972067D01*
X113812976Y-22931334D01*
X113818193Y-22920686D01*
X113827242Y-22904226D01*
X113839569Y-22881803D01*
X113841540Y-22874128D01*
X113841542Y-22874122D01*
X113844631Y-22862089D01*
X113851034Y-22843387D01*
X113859117Y-22824708D01*
X113866060Y-22780873D01*
X113868467Y-22769251D01*
X113876190Y-22739173D01*
X113879500Y-22726282D01*
X113879500Y-22705935D01*
X113881051Y-22686224D01*
X113882995Y-22673950D01*
X113884235Y-22666121D01*
X113880059Y-22621944D01*
X113879500Y-22610086D01*
X113879500Y-19712382D01*
X113899502Y-19644261D01*
X113940133Y-19604664D01*
X114047317Y-19539623D01*
X114100783Y-19493228D01*
X114217412Y-19392023D01*
X114217414Y-19392021D01*
X114221445Y-19388523D01*
X114288807Y-19306369D01*
X114364240Y-19214373D01*
X114364244Y-19214367D01*
X114367624Y-19210245D01*
X114373115Y-19200600D01*
X114479032Y-19014529D01*
X114481675Y-19009886D01*
X114560337Y-18793175D01*
X114568668Y-18747103D01*
X114600623Y-18570392D01*
X114600624Y-18570385D01*
X114601361Y-18566308D01*
X114602372Y-18544876D01*
X114602430Y-18543644D01*
X114602430Y-18543637D01*
X114602500Y-18542156D01*
X114602500Y-18080110D01*
X114596225Y-18006158D01*
X114595608Y-17998885D01*
X119566000Y-17998885D01*
X119570475Y-18014124D01*
X119571865Y-18015329D01*
X119579548Y-18017000D01*
X120651885Y-18017000D01*
X120667124Y-18012525D01*
X120668329Y-18011135D01*
X120670000Y-18003452D01*
X120670000Y-16781116D01*
X120665525Y-16765877D01*
X120664135Y-16764672D01*
X120656452Y-16763001D01*
X120276905Y-16763001D01*
X120270386Y-16763338D01*
X120174794Y-16773257D01*
X120161400Y-16776149D01*
X120007216Y-16827588D01*
X119994038Y-16833761D01*
X119856193Y-16919063D01*
X119844792Y-16928099D01*
X119730261Y-17042829D01*
X119721249Y-17054240D01*
X119636184Y-17192243D01*
X119630037Y-17205424D01*
X119578862Y-17359710D01*
X119575995Y-17373086D01*
X119566328Y-17467438D01*
X119566000Y-17473855D01*
X119566000Y-17998885D01*
X114595608Y-17998885D01*
X114588371Y-17913591D01*
X114588370Y-17913587D01*
X114587920Y-17908280D01*
X114586582Y-17903125D01*
X114586581Y-17903119D01*
X114531343Y-17690297D01*
X114531342Y-17690293D01*
X114530001Y-17685128D01*
X114527319Y-17679173D01*
X114450305Y-17508209D01*
X114435312Y-17474925D01*
X114306559Y-17283681D01*
X114286661Y-17262822D01*
X114198567Y-17170477D01*
X114147424Y-17116865D01*
X113962458Y-16979246D01*
X113957707Y-16976830D01*
X113957703Y-16976828D01*
X113844087Y-16919063D01*
X113756949Y-16874760D01*
X113751855Y-16873178D01*
X113751852Y-16873177D01*
X113541871Y-16807976D01*
X113536773Y-16806393D01*
X113531484Y-16805692D01*
X113313511Y-16776802D01*
X113313506Y-16776802D01*
X113308226Y-16776102D01*
X113302897Y-16776302D01*
X113302895Y-16776302D01*
X113204368Y-16780001D01*
X113077842Y-16784751D01*
X113072623Y-16785846D01*
X113039185Y-16792862D01*
X112852209Y-16832093D01*
X112847250Y-16834051D01*
X112847248Y-16834052D01*
X112642744Y-16914815D01*
X112642742Y-16914816D01*
X112637779Y-16916776D01*
X112633220Y-16919543D01*
X112633217Y-16919544D01*
X112534832Y-16979246D01*
X112440683Y-17036377D01*
X112436653Y-17039874D01*
X112273395Y-17181542D01*
X112266555Y-17187477D01*
X112263168Y-17191608D01*
X112236994Y-17223529D01*
X112178334Y-17263524D01*
X112107364Y-17265455D01*
X112046616Y-17228710D01*
X112032416Y-17209941D01*
X111945937Y-17070193D01*
X111936901Y-17058792D01*
X111822171Y-16944261D01*
X111810760Y-16935249D01*
X111672757Y-16850184D01*
X111659576Y-16844037D01*
X111505290Y-16792862D01*
X111491914Y-16789995D01*
X111397562Y-16780328D01*
X111391145Y-16780000D01*
X111016115Y-16780000D01*
X111000876Y-16784475D01*
X110999671Y-16785865D01*
X110998000Y-16793548D01*
X110998000Y-19777884D01*
X111002475Y-19793123D01*
X111003865Y-19794328D01*
X111011548Y-19795999D01*
X111391095Y-19795999D01*
X111397614Y-19795662D01*
X111493206Y-19785743D01*
X111506600Y-19782851D01*
X111660784Y-19731412D01*
X111673962Y-19725239D01*
X111811807Y-19639937D01*
X111823208Y-19630901D01*
X111937739Y-19516171D01*
X111946753Y-19504757D01*
X112032723Y-19365287D01*
X112085495Y-19317793D01*
X112155566Y-19306369D01*
X112220690Y-19334643D01*
X112231149Y-19344426D01*
X112340576Y-19459135D01*
X112525542Y-19596754D01*
X112530293Y-19599170D01*
X112530297Y-19599172D01*
X112539605Y-19603904D01*
X112591263Y-19652607D01*
X112608500Y-19716221D01*
X112608500Y-22330578D01*
X112588498Y-22398699D01*
X112571595Y-22419673D01*
X92647774Y-42343493D01*
X92585462Y-42377519D01*
X92514647Y-42372454D01*
X92457811Y-42329907D01*
X92433067Y-42264284D01*
X92426923Y-42186223D01*
X92426535Y-42181289D01*
X92422672Y-42165196D01*
X92385842Y-42011789D01*
X92371105Y-41950406D01*
X92369211Y-41945833D01*
X92282135Y-41735611D01*
X92282133Y-41735607D01*
X92280240Y-41731037D01*
X92190820Y-41585117D01*
X92158759Y-41532798D01*
X92158755Y-41532792D01*
X92156176Y-41528584D01*
X92001969Y-41348031D01*
X91998213Y-41344823D01*
X91998208Y-41344818D01*
X91879944Y-41243811D01*
X91841134Y-41184361D01*
X91840628Y-41113366D01*
X91879944Y-41052189D01*
X91998208Y-40951182D01*
X91998213Y-40951177D01*
X92001969Y-40947969D01*
X92156176Y-40767416D01*
X92158755Y-40763208D01*
X92158759Y-40763202D01*
X92277654Y-40569183D01*
X92280240Y-40564963D01*
X92284543Y-40554576D01*
X92369211Y-40350167D01*
X92369212Y-40350165D01*
X92371105Y-40345594D01*
X92397385Y-40236129D01*
X92425380Y-40119524D01*
X92425381Y-40119518D01*
X92426535Y-40114711D01*
X92445165Y-39878000D01*
X92426535Y-39641289D01*
X92411760Y-39579744D01*
X92382899Y-39459533D01*
X92371105Y-39410406D01*
X92354847Y-39371155D01*
X92282135Y-39195611D01*
X92282133Y-39195607D01*
X92280240Y-39191037D01*
X92242112Y-39128818D01*
X92158759Y-38992798D01*
X92158755Y-38992792D01*
X92156176Y-38988584D01*
X92001969Y-38808031D01*
X91998213Y-38804823D01*
X91998208Y-38804818D01*
X91879944Y-38703811D01*
X91841134Y-38644361D01*
X91840628Y-38573366D01*
X91879944Y-38512189D01*
X91998208Y-38411182D01*
X91998213Y-38411177D01*
X92001969Y-38407969D01*
X92156176Y-38227416D01*
X92158755Y-38223208D01*
X92158759Y-38223202D01*
X92277654Y-38029183D01*
X92280240Y-38024963D01*
X92302553Y-37971096D01*
X92369211Y-37810167D01*
X92369212Y-37810165D01*
X92371105Y-37805594D01*
X92420263Y-37600836D01*
X92425380Y-37579524D01*
X92425381Y-37579518D01*
X92426535Y-37574711D01*
X92445165Y-37338000D01*
X92426535Y-37101289D01*
X92411760Y-37039744D01*
X92385842Y-36931789D01*
X92371105Y-36870406D01*
X92369211Y-36865833D01*
X92282135Y-36655611D01*
X92282133Y-36655607D01*
X92280240Y-36651037D01*
X92263290Y-36623377D01*
X92158759Y-36452798D01*
X92158755Y-36452792D01*
X92156176Y-36448584D01*
X92001969Y-36268031D01*
X91821416Y-36113824D01*
X91817208Y-36111245D01*
X91817202Y-36111241D01*
X91623183Y-35992346D01*
X91618963Y-35989760D01*
X91614393Y-35987867D01*
X91614389Y-35987865D01*
X91404167Y-35900789D01*
X91404165Y-35900788D01*
X91399594Y-35898895D01*
X91319391Y-35879640D01*
X91173524Y-35844620D01*
X91173518Y-35844619D01*
X91168711Y-35843465D01*
X90932000Y-35824835D01*
X90695289Y-35843465D01*
X90690482Y-35844619D01*
X90690476Y-35844620D01*
X90498428Y-35890727D01*
X90427520Y-35887180D01*
X90369786Y-35845860D01*
X90343556Y-35779886D01*
X90357159Y-35710205D01*
X90379919Y-35679113D01*
X100994483Y-25064550D01*
X101002809Y-25056974D01*
X101009303Y-25052853D01*
X101056086Y-25003034D01*
X101058840Y-25000193D01*
X101078639Y-24980394D01*
X101081063Y-24977269D01*
X101081071Y-24977260D01*
X101081137Y-24977174D01*
X101088845Y-24968149D01*
X101113790Y-24941585D01*
X101119217Y-24935806D01*
X101129023Y-24917969D01*
X101139873Y-24901453D01*
X101152350Y-24885367D01*
X101169976Y-24844634D01*
X101175193Y-24833986D01*
X101192749Y-24802051D01*
X101196569Y-24795103D01*
X101198540Y-24787428D01*
X101198542Y-24787422D01*
X101201631Y-24775389D01*
X101208034Y-24756687D01*
X101216117Y-24738008D01*
X101217357Y-24730182D01*
X101217358Y-24730177D01*
X101223060Y-24694180D01*
X101225466Y-24682561D01*
X101236400Y-24639972D01*
X101272713Y-24578965D01*
X101306690Y-24556423D01*
X101389075Y-24519312D01*
X101580319Y-24390559D01*
X101747135Y-24231424D01*
X101884754Y-24046458D01*
X101889539Y-24037048D01*
X101944942Y-23928076D01*
X101989240Y-23840949D01*
X101996539Y-23817445D01*
X102056024Y-23625871D01*
X102057607Y-23620773D01*
X102061368Y-23592394D01*
X102087198Y-23397511D01*
X102087198Y-23397506D01*
X102087898Y-23392226D01*
X102086424Y-23352949D01*
X102081679Y-23226572D01*
X102079249Y-23161842D01*
X102031907Y-22936209D01*
X102025777Y-22920686D01*
X101949185Y-22726744D01*
X101949184Y-22726742D01*
X101947224Y-22721779D01*
X101938966Y-22708169D01*
X101854955Y-22569724D01*
X101827623Y-22524683D01*
X101818374Y-22514024D01*
X101680023Y-22354588D01*
X101680021Y-22354586D01*
X101676523Y-22350555D01*
X101601716Y-22289217D01*
X101502373Y-22207760D01*
X101502367Y-22207756D01*
X101498245Y-22204376D01*
X101493602Y-22201733D01*
X101466265Y-22186171D01*
X101416959Y-22135088D01*
X101403098Y-22065458D01*
X101429082Y-21999387D01*
X101458232Y-21972149D01*
X101575578Y-21893148D01*
X101583870Y-21886481D01*
X101742900Y-21734772D01*
X101749941Y-21726814D01*
X101881141Y-21550475D01*
X101886745Y-21541438D01*
X101986357Y-21345516D01*
X101990357Y-21335665D01*
X102055534Y-21125760D01*
X102057817Y-21115376D01*
X102059861Y-21099957D01*
X102057665Y-21085793D01*
X102044478Y-21082000D01*
X99159808Y-21082000D01*
X99146277Y-21085973D01*
X99144752Y-21096580D01*
X99169477Y-21214421D01*
X99172537Y-21224617D01*
X99253263Y-21429029D01*
X99257994Y-21438561D01*
X99372016Y-21626462D01*
X99378280Y-21635052D01*
X99522327Y-21801052D01*
X99529958Y-21808472D01*
X99699911Y-21947826D01*
X99708674Y-21953848D01*
X99735711Y-21969238D01*
X99785018Y-22020320D01*
X99798880Y-22089951D01*
X99772897Y-22156022D01*
X99743747Y-22183261D01*
X99739425Y-22186171D01*
X99621681Y-22265441D01*
X99617824Y-22269120D01*
X99617822Y-22269122D01*
X99582456Y-22302860D01*
X99454865Y-22424576D01*
X99451682Y-22428854D01*
X99448365Y-22433312D01*
X99317246Y-22609542D01*
X99314830Y-22614293D01*
X99314828Y-22614297D01*
X99306507Y-22630664D01*
X99212760Y-22815051D01*
X99211178Y-22820145D01*
X99211177Y-22820148D01*
X99164244Y-22971297D01*
X99144393Y-23035227D01*
X99143692Y-23040516D01*
X99119033Y-23226572D01*
X99114102Y-23263774D01*
X99122751Y-23494158D01*
X99170093Y-23719791D01*
X99172051Y-23724750D01*
X99172052Y-23724752D01*
X99250326Y-23922952D01*
X99254776Y-23934221D01*
X99257543Y-23938780D01*
X99257544Y-23938783D01*
X99306710Y-24019806D01*
X99374377Y-24131317D01*
X99377874Y-24135347D01*
X99490947Y-24265652D01*
X99525477Y-24305445D01*
X99529608Y-24308832D01*
X99654553Y-24411281D01*
X99694548Y-24469941D01*
X99696479Y-24540911D01*
X99663757Y-24597810D01*
X89115317Y-35146250D01*
X89106991Y-35153826D01*
X89100497Y-35157947D01*
X89095074Y-35163722D01*
X89053715Y-35207765D01*
X89050960Y-35210607D01*
X89031161Y-35230406D01*
X89028737Y-35233531D01*
X89028729Y-35233540D01*
X89028663Y-35233626D01*
X89020955Y-35242651D01*
X88990583Y-35274994D01*
X88986765Y-35281938D01*
X88986764Y-35281940D01*
X88980778Y-35292829D01*
X88969927Y-35309347D01*
X88957450Y-35325433D01*
X88939824Y-35366166D01*
X88934607Y-35376814D01*
X88913231Y-35415697D01*
X88911260Y-35423372D01*
X88911258Y-35423378D01*
X88908169Y-35435411D01*
X88901766Y-35454113D01*
X88893683Y-35472792D01*
X88892444Y-35480617D01*
X88886740Y-35516627D01*
X88884335Y-35528240D01*
X88873300Y-35571218D01*
X88873300Y-35591565D01*
X88871749Y-35611276D01*
X88868565Y-35631379D01*
X84854700Y-35631379D01*
X84854700Y-26095122D01*
X84874702Y-26027001D01*
X84891605Y-26006027D01*
X85169405Y-25728227D01*
X85231717Y-25694201D01*
X85302532Y-25699266D01*
X85359368Y-25741813D01*
X85384179Y-25808333D01*
X85384500Y-25817322D01*
X85384500Y-26050400D01*
X85384837Y-26053646D01*
X85384837Y-26053650D01*
X85389249Y-26096166D01*
X85395474Y-26156166D01*
X85451450Y-26323946D01*
X85544522Y-26474348D01*
X85669697Y-26599305D01*
X85675927Y-26603145D01*
X85675928Y-26603146D01*
X85813090Y-26687694D01*
X85820262Y-26692115D01*
X85873840Y-26709886D01*
X85981611Y-26745632D01*
X85981613Y-26745632D01*
X85988139Y-26747797D01*
X85994975Y-26748497D01*
X85994978Y-26748498D01*
X86038031Y-26752909D01*
X86092600Y-26758500D01*
X87643400Y-26758500D01*
X87646646Y-26758163D01*
X87646650Y-26758163D01*
X87742308Y-26748238D01*
X87742312Y-26748237D01*
X87749166Y-26747526D01*
X87755702Y-26745345D01*
X87755704Y-26745345D01*
X87896114Y-26698500D01*
X87916946Y-26691550D01*
X88067348Y-26598478D01*
X88192305Y-26473303D01*
X88285115Y-26322738D01*
X88340797Y-26154861D01*
X88351500Y-26050400D01*
X88351500Y-24749600D01*
X88345750Y-24694180D01*
X88341238Y-24650692D01*
X88341237Y-24650688D01*
X88340526Y-24643834D01*
X88323226Y-24591978D01*
X88286868Y-24483002D01*
X88284550Y-24476054D01*
X88191478Y-24325652D01*
X88066303Y-24200695D01*
X87920660Y-24110919D01*
X87873168Y-24058148D01*
X87861744Y-23988076D01*
X87890018Y-23922952D01*
X87899805Y-23912490D01*
X88010278Y-23807103D01*
X88014135Y-23803424D01*
X88151754Y-23618458D01*
X88155818Y-23610466D01*
X88217662Y-23488827D01*
X88256240Y-23412949D01*
X88276454Y-23347852D01*
X88323024Y-23197871D01*
X88324607Y-23192773D01*
X88332065Y-23136500D01*
X88354198Y-22969511D01*
X88354198Y-22969506D01*
X88354898Y-22964226D01*
X88353264Y-22920686D01*
X88346449Y-22739173D01*
X88346249Y-22733842D01*
X88298907Y-22508209D01*
X88269329Y-22433312D01*
X88216185Y-22298744D01*
X88216184Y-22298742D01*
X88214224Y-22293779D01*
X88094623Y-22096683D01*
X88074332Y-22073300D01*
X87947023Y-21926588D01*
X87947021Y-21926586D01*
X87943523Y-21922555D01*
X87899528Y-21886481D01*
X87769373Y-21779760D01*
X87769367Y-21779756D01*
X87765245Y-21776376D01*
X87760602Y-21773733D01*
X87733265Y-21758171D01*
X87683959Y-21707088D01*
X87670098Y-21637458D01*
X87696082Y-21571387D01*
X87725232Y-21544149D01*
X87842578Y-21465148D01*
X87850870Y-21458481D01*
X88009900Y-21306772D01*
X88016941Y-21298814D01*
X88148141Y-21122475D01*
X88153745Y-21113438D01*
X88253357Y-20917516D01*
X88257357Y-20907665D01*
X88322534Y-20697760D01*
X88324817Y-20687376D01*
X88326861Y-20671957D01*
X88324665Y-20657793D01*
X88311478Y-20654000D01*
X85426808Y-20654000D01*
X85413277Y-20657973D01*
X85411752Y-20668580D01*
X85436477Y-20786421D01*
X85439537Y-20796617D01*
X85520263Y-21001029D01*
X85524994Y-21010561D01*
X85639016Y-21198462D01*
X85645280Y-21207052D01*
X85789327Y-21373052D01*
X85796958Y-21380472D01*
X85966911Y-21519826D01*
X85975674Y-21525848D01*
X86002711Y-21541238D01*
X86052018Y-21592320D01*
X86065880Y-21661951D01*
X86039897Y-21728022D01*
X86010747Y-21755261D01*
X85979384Y-21776376D01*
X85888681Y-21837441D01*
X85721865Y-21996576D01*
X85584246Y-22181542D01*
X85581830Y-22186293D01*
X85581828Y-22186297D01*
X85572334Y-22204971D01*
X85479760Y-22387051D01*
X85478178Y-22392145D01*
X85478177Y-22392148D01*
X85438275Y-22520653D01*
X85411393Y-22607227D01*
X85410692Y-22612516D01*
X85382569Y-22824708D01*
X85381102Y-22835774D01*
X85381302Y-22841103D01*
X85381302Y-22841105D01*
X85381685Y-22851303D01*
X85389751Y-23066158D01*
X85390846Y-23071377D01*
X85402264Y-23125797D01*
X85437093Y-23291791D01*
X85439050Y-23296747D01*
X85439052Y-23296753D01*
X85512428Y-23482551D01*
X85518846Y-23553257D01*
X85486019Y-23616209D01*
X85478079Y-23623345D01*
X85475002Y-23625165D01*
X85460614Y-23639553D01*
X85445580Y-23652394D01*
X85429113Y-23664358D01*
X85424060Y-23670466D01*
X85400828Y-23698549D01*
X85392838Y-23707329D01*
X83825717Y-25274450D01*
X83817391Y-25282026D01*
X83810897Y-25286147D01*
X83805474Y-25291922D01*
X83764115Y-25335965D01*
X83761360Y-25338807D01*
X83741561Y-25358606D01*
X83739137Y-25361731D01*
X83739129Y-25361740D01*
X83739063Y-25361826D01*
X83731355Y-25370851D01*
X83700983Y-25403194D01*
X83697165Y-25410138D01*
X83697164Y-25410140D01*
X83691178Y-25421029D01*
X83680327Y-25437547D01*
X83667850Y-25453633D01*
X83650224Y-25494366D01*
X83645007Y-25505014D01*
X83623631Y-25543897D01*
X83621660Y-25551572D01*
X83621658Y-25551578D01*
X83618569Y-25563611D01*
X83612166Y-25582313D01*
X83604083Y-25600992D01*
X83602844Y-25608817D01*
X83597140Y-25644827D01*
X83594735Y-25656440D01*
X83583700Y-25699418D01*
X83583700Y-25719765D01*
X83582149Y-25739476D01*
X83578965Y-25759579D01*
X83579711Y-25767471D01*
X83583141Y-25803756D01*
X83583700Y-25815614D01*
X83583700Y-36623377D01*
X83563698Y-36691498D01*
X83546795Y-36712472D01*
X82998463Y-37260804D01*
X82936151Y-37294830D01*
X82865336Y-37289765D01*
X82808500Y-37247218D01*
X82783457Y-37176435D01*
X82783255Y-37171057D01*
X82783055Y-37165726D01*
X82750622Y-37011153D01*
X82735067Y-36937016D01*
X82735066Y-36937013D01*
X82733970Y-36931789D01*
X82646171Y-36709467D01*
X82522168Y-36505117D01*
X82432103Y-36401326D01*
X82369007Y-36328614D01*
X82369005Y-36328612D01*
X82365507Y-36324581D01*
X82361381Y-36321198D01*
X82361377Y-36321194D01*
X82184795Y-36176407D01*
X82180667Y-36173022D01*
X82176027Y-36170381D01*
X82173663Y-36168756D01*
X82128852Y-36113688D01*
X82120927Y-36043135D01*
X82152403Y-35979498D01*
X82174662Y-35960396D01*
X82261029Y-35902249D01*
X82269307Y-35895594D01*
X82434478Y-35738029D01*
X82441530Y-35730058D01*
X82577790Y-35546918D01*
X82583394Y-35537881D01*
X82686851Y-35334394D01*
X82690852Y-35324541D01*
X82758544Y-35106539D01*
X82760828Y-35096152D01*
X82764300Y-35069957D01*
X82762104Y-35055793D01*
X82748919Y-35052000D01*
X81152000Y-35052000D01*
X81083879Y-35031998D01*
X81037386Y-34978342D01*
X81026000Y-34926000D01*
X81026000Y-34670000D01*
X81046002Y-34601879D01*
X81099658Y-34555386D01*
X81152000Y-34544000D01*
X82747282Y-34544000D01*
X82760813Y-34540027D01*
X82762338Y-34529420D01*
X82734587Y-34397160D01*
X82731527Y-34386963D01*
X82647685Y-34174660D01*
X82642951Y-34165124D01*
X82524532Y-33969975D01*
X82518266Y-33961382D01*
X82368658Y-33788973D01*
X82361028Y-33781553D01*
X82184511Y-33636819D01*
X82173656Y-33629358D01*
X82128847Y-33574288D01*
X82120924Y-33503735D01*
X82152402Y-33440099D01*
X82174659Y-33421000D01*
X82265762Y-33359666D01*
X82438718Y-33194674D01*
X82581402Y-33002900D01*
X82663052Y-32842307D01*
X82687314Y-32794586D01*
X82687314Y-32794585D01*
X82689733Y-32789828D01*
X82730361Y-32658984D01*
X82759032Y-32566651D01*
X82759033Y-32566645D01*
X82760616Y-32561548D01*
X82784824Y-32378904D01*
X82791323Y-32329873D01*
X82791323Y-32329869D01*
X82792023Y-32324589D01*
X82783055Y-32085726D01*
X82733970Y-31851789D01*
X82646171Y-31629467D01*
X82522168Y-31425117D01*
X82432103Y-31321326D01*
X82369007Y-31248614D01*
X82369005Y-31248612D01*
X82365507Y-31244581D01*
X82361381Y-31241198D01*
X82361377Y-31241194D01*
X82184795Y-31096407D01*
X82180667Y-31093022D01*
X82176031Y-31090383D01*
X82176028Y-31090381D01*
X81977577Y-30977416D01*
X81972934Y-30974773D01*
X81748247Y-30893216D01*
X81742998Y-30892267D01*
X81742995Y-30892266D01*
X81517115Y-30851420D01*
X81517107Y-30851419D01*
X81513031Y-30850682D01*
X81494641Y-30849815D01*
X81489456Y-30849570D01*
X81489449Y-30849570D01*
X81487968Y-30849500D01*
X81119988Y-30849500D01*
X80941825Y-30864617D01*
X80936661Y-30865957D01*
X80936657Y-30865958D01*
X80715625Y-30923327D01*
X80715620Y-30923329D01*
X80710460Y-30924668D01*
X80705594Y-30926860D01*
X80497381Y-31020653D01*
X80497378Y-31020654D01*
X80492520Y-31022843D01*
X80294238Y-31156334D01*
X80290381Y-31160013D01*
X80290379Y-31160015D01*
X80218536Y-31228550D01*
X80121282Y-31321326D01*
X79978598Y-31513100D01*
X79870267Y-31726172D01*
X79834826Y-31840312D01*
X79800968Y-31949349D01*
X79800967Y-31949355D01*
X79799384Y-31954452D01*
X79782676Y-32080508D01*
X79771150Y-32167475D01*
X79767977Y-32191411D01*
X79776945Y-32430274D01*
X79826030Y-32664211D01*
X79827993Y-32669181D01*
X79827993Y-32669182D01*
X79837849Y-32694139D01*
X79844267Y-32764845D01*
X79809752Y-32829515D01*
X72549717Y-40089550D01*
X72541391Y-40097126D01*
X72534897Y-40101247D01*
X72529474Y-40107022D01*
X72488115Y-40151065D01*
X72485360Y-40153907D01*
X72465561Y-40173706D01*
X72463137Y-40176831D01*
X72463129Y-40176840D01*
X72463063Y-40176926D01*
X72455355Y-40185951D01*
X72424983Y-40218294D01*
X72421165Y-40225238D01*
X72421164Y-40225240D01*
X72415178Y-40236129D01*
X72404327Y-40252647D01*
X72391850Y-40268733D01*
X72374224Y-40309466D01*
X72369007Y-40320114D01*
X72347631Y-40358997D01*
X72345660Y-40366672D01*
X72345658Y-40366678D01*
X72342569Y-40378711D01*
X72336166Y-40397413D01*
X72328083Y-40416092D01*
X72325133Y-40434717D01*
X72321140Y-40459927D01*
X72318735Y-40471540D01*
X72307700Y-40514518D01*
X72307700Y-40534865D01*
X72306149Y-40554576D01*
X72302965Y-40574679D01*
X72303711Y-40582571D01*
X72307141Y-40618856D01*
X72307700Y-40630714D01*
X72307700Y-65679378D01*
X72287698Y-65747499D01*
X72270795Y-65768473D01*
X66741982Y-71297285D01*
X66679670Y-71331311D01*
X66608855Y-71326246D01*
X66552019Y-71283699D01*
X66526976Y-71212919D01*
X66526758Y-71207120D01*
X66525463Y-71196570D01*
X66478587Y-70973160D01*
X66475527Y-70962963D01*
X66391685Y-70750660D01*
X66386951Y-70741124D01*
X66268532Y-70545975D01*
X66262266Y-70537382D01*
X66112658Y-70364973D01*
X66105028Y-70357553D01*
X65928511Y-70212819D01*
X65917656Y-70205358D01*
X65872847Y-70150288D01*
X65864924Y-70079735D01*
X65896402Y-70016099D01*
X65918659Y-69997000D01*
X65920749Y-69995593D01*
X66009762Y-69935666D01*
X66182718Y-69770674D01*
X66325402Y-69578900D01*
X66362715Y-69505512D01*
X66431314Y-69370586D01*
X66431314Y-69370585D01*
X66433733Y-69365828D01*
X66476581Y-69227836D01*
X66503032Y-69142651D01*
X66503033Y-69142645D01*
X66504616Y-69137548D01*
X66522722Y-69000943D01*
X66535323Y-68905873D01*
X66535323Y-68905869D01*
X66536023Y-68900589D01*
X66533576Y-68835399D01*
X66531023Y-68767411D01*
X66527055Y-68661726D01*
X66477970Y-68427789D01*
X66466151Y-68397861D01*
X66459733Y-68327155D01*
X66494248Y-68262485D01*
X69210483Y-65546250D01*
X69218809Y-65538674D01*
X69225303Y-65534553D01*
X69272086Y-65484734D01*
X69274840Y-65481893D01*
X69294639Y-65462094D01*
X69297063Y-65458969D01*
X69297071Y-65458960D01*
X69297137Y-65458874D01*
X69304845Y-65449849D01*
X69329790Y-65423285D01*
X69335217Y-65417506D01*
X69345023Y-65399669D01*
X69355873Y-65383153D01*
X69368350Y-65367067D01*
X69385976Y-65326334D01*
X69391193Y-65315686D01*
X69408749Y-65283751D01*
X69412569Y-65276803D01*
X69414540Y-65269128D01*
X69414542Y-65269122D01*
X69417631Y-65257089D01*
X69424034Y-65238387D01*
X69432117Y-65219708D01*
X69439060Y-65175873D01*
X69441467Y-65164251D01*
X69452500Y-65121282D01*
X69452500Y-65100935D01*
X69454051Y-65081224D01*
X69455995Y-65068950D01*
X69457235Y-65061121D01*
X69453059Y-65016944D01*
X69452500Y-65005086D01*
X69452500Y-26824500D01*
X69472502Y-26756379D01*
X69526158Y-26709886D01*
X69578500Y-26698500D01*
X69592400Y-26698500D01*
X69595646Y-26698163D01*
X69595650Y-26698163D01*
X69691308Y-26688238D01*
X69691312Y-26688237D01*
X69698166Y-26687526D01*
X69704702Y-26685345D01*
X69704704Y-26685345D01*
X69836806Y-26641272D01*
X69865946Y-26631550D01*
X70016348Y-26538478D01*
X70141305Y-26413303D01*
X70145146Y-26407072D01*
X70230275Y-26268968D01*
X70230276Y-26268966D01*
X70234115Y-26262738D01*
X70289797Y-26094861D01*
X70294020Y-26053650D01*
X70300172Y-25993598D01*
X70300500Y-25990400D01*
X70300500Y-24689600D01*
X70296463Y-24650692D01*
X70290238Y-24590692D01*
X70290237Y-24590688D01*
X70289526Y-24583834D01*
X70233550Y-24416054D01*
X70140478Y-24265652D01*
X70015303Y-24140695D01*
X69992692Y-24126757D01*
X69963185Y-24108569D01*
X69869660Y-24050919D01*
X69822168Y-23998148D01*
X69810744Y-23928076D01*
X69839018Y-23862952D01*
X69848805Y-23852490D01*
X69959278Y-23747103D01*
X69963135Y-23743424D01*
X70100754Y-23558458D01*
X70103399Y-23553257D01*
X70160342Y-23441256D01*
X70205240Y-23352949D01*
X70222690Y-23296753D01*
X70272024Y-23137871D01*
X70273607Y-23132773D01*
X70274532Y-23125797D01*
X70303198Y-22909511D01*
X70303198Y-22909506D01*
X70303898Y-22904226D01*
X70301951Y-22852349D01*
X70299076Y-22775774D01*
X76220102Y-22775774D01*
X76220302Y-22781103D01*
X76220302Y-22781105D01*
X76224343Y-22888751D01*
X76228751Y-23006158D01*
X76229846Y-23011377D01*
X76242052Y-23069550D01*
X76276093Y-23231791D01*
X76278051Y-23236750D01*
X76278052Y-23236752D01*
X76286637Y-23258489D01*
X76360776Y-23446221D01*
X76363543Y-23450780D01*
X76363544Y-23450783D01*
X76441684Y-23579553D01*
X76480377Y-23643317D01*
X76483874Y-23647347D01*
X76622503Y-23807103D01*
X76631477Y-23817445D01*
X76667120Y-23846670D01*
X76707114Y-23905329D01*
X76709046Y-23976299D01*
X76672302Y-24037048D01*
X76653532Y-24051248D01*
X76560903Y-24108569D01*
X76507652Y-24141522D01*
X76382695Y-24266697D01*
X76378855Y-24272927D01*
X76378854Y-24272928D01*
X76306145Y-24390884D01*
X76289885Y-24417262D01*
X76234203Y-24585139D01*
X76233503Y-24591975D01*
X76233502Y-24591978D01*
X76231726Y-24609315D01*
X76223500Y-24689600D01*
X76223500Y-25990400D01*
X76223837Y-25993646D01*
X76223837Y-25993650D01*
X76230063Y-26053650D01*
X76234474Y-26096166D01*
X76236655Y-26102702D01*
X76236655Y-26102704D01*
X76256234Y-26161389D01*
X76290450Y-26263946D01*
X76383522Y-26414348D01*
X76508697Y-26539305D01*
X76514927Y-26543145D01*
X76514928Y-26543146D01*
X76652090Y-26627694D01*
X76659262Y-26632115D01*
X76739005Y-26658564D01*
X76820611Y-26685632D01*
X76820613Y-26685632D01*
X76827139Y-26687797D01*
X76833975Y-26688497D01*
X76833978Y-26688498D01*
X76877031Y-26692909D01*
X76931600Y-26698500D01*
X78482400Y-26698500D01*
X78485646Y-26698163D01*
X78485650Y-26698163D01*
X78581308Y-26688238D01*
X78581312Y-26688237D01*
X78588166Y-26687526D01*
X78594702Y-26685345D01*
X78594704Y-26685345D01*
X78726806Y-26641272D01*
X78755946Y-26631550D01*
X78906348Y-26538478D01*
X79031305Y-26413303D01*
X79035146Y-26407072D01*
X79120275Y-26268968D01*
X79120276Y-26268966D01*
X79124115Y-26262738D01*
X79179797Y-26094861D01*
X79184020Y-26053650D01*
X79190172Y-25993598D01*
X79190500Y-25990400D01*
X79190500Y-24689600D01*
X79186463Y-24650692D01*
X79180238Y-24590692D01*
X79180237Y-24590688D01*
X79179526Y-24583834D01*
X79123550Y-24416054D01*
X79030478Y-24265652D01*
X78905303Y-24140695D01*
X78882692Y-24126757D01*
X78853185Y-24108569D01*
X78759660Y-24050919D01*
X78712168Y-23998148D01*
X78700744Y-23928076D01*
X78729018Y-23862952D01*
X78738805Y-23852490D01*
X78849278Y-23747103D01*
X78853135Y-23743424D01*
X78990754Y-23558458D01*
X78993399Y-23553257D01*
X79050342Y-23441256D01*
X79095240Y-23352949D01*
X79112690Y-23296753D01*
X79162024Y-23137871D01*
X79163607Y-23132773D01*
X79164532Y-23125797D01*
X79193198Y-22909511D01*
X79193198Y-22909506D01*
X79193898Y-22904226D01*
X79191951Y-22852349D01*
X79187506Y-22733956D01*
X79185249Y-22673842D01*
X79137907Y-22448209D01*
X79131369Y-22431653D01*
X79055185Y-22238744D01*
X79055184Y-22238742D01*
X79053224Y-22233779D01*
X79041354Y-22214217D01*
X78936390Y-22041243D01*
X78933623Y-22036683D01*
X78883580Y-21979013D01*
X78786023Y-21866588D01*
X78786021Y-21866586D01*
X78782523Y-21862555D01*
X78707515Y-21801052D01*
X78608373Y-21719760D01*
X78608367Y-21719756D01*
X78604245Y-21716376D01*
X78599602Y-21713733D01*
X78572265Y-21698171D01*
X78522959Y-21647088D01*
X78509098Y-21577458D01*
X78535082Y-21511387D01*
X78564232Y-21484149D01*
X78681578Y-21405148D01*
X78689870Y-21398481D01*
X78848900Y-21246772D01*
X78855941Y-21238814D01*
X78987141Y-21062475D01*
X78992745Y-21053438D01*
X79092357Y-20857516D01*
X79096357Y-20847665D01*
X79161534Y-20637760D01*
X79163817Y-20627376D01*
X79165861Y-20611957D01*
X79163665Y-20597793D01*
X79150478Y-20594000D01*
X76265808Y-20594000D01*
X76252277Y-20597973D01*
X76250752Y-20608580D01*
X76275477Y-20726421D01*
X76278537Y-20736617D01*
X76359263Y-20941029D01*
X76363994Y-20950561D01*
X76478016Y-21138462D01*
X76484280Y-21147052D01*
X76628327Y-21313052D01*
X76635958Y-21320472D01*
X76805911Y-21459826D01*
X76814674Y-21465848D01*
X76841711Y-21481238D01*
X76891018Y-21532320D01*
X76904880Y-21601951D01*
X76878897Y-21668022D01*
X76849747Y-21695261D01*
X76802880Y-21726814D01*
X76727681Y-21777441D01*
X76560865Y-21936576D01*
X76423246Y-22121542D01*
X76420830Y-22126293D01*
X76420828Y-22126297D01*
X76379411Y-22207760D01*
X76318760Y-22327051D01*
X76317178Y-22332145D01*
X76317177Y-22332148D01*
X76257393Y-22524683D01*
X76250393Y-22547227D01*
X76249692Y-22552516D01*
X76220967Y-22769251D01*
X76220102Y-22775774D01*
X70299076Y-22775774D01*
X70297506Y-22733956D01*
X70295249Y-22673842D01*
X70247907Y-22448209D01*
X70241369Y-22431653D01*
X70165185Y-22238744D01*
X70165184Y-22238742D01*
X70163224Y-22233779D01*
X70151354Y-22214217D01*
X70046390Y-22041243D01*
X70043623Y-22036683D01*
X69993580Y-21979013D01*
X69896023Y-21866588D01*
X69896021Y-21866586D01*
X69892523Y-21862555D01*
X69817515Y-21801052D01*
X69718373Y-21719760D01*
X69718367Y-21719756D01*
X69714245Y-21716376D01*
X69709602Y-21713733D01*
X69682265Y-21698171D01*
X69632959Y-21647088D01*
X69619098Y-21577458D01*
X69645082Y-21511387D01*
X69674232Y-21484149D01*
X69791578Y-21405148D01*
X69799870Y-21398481D01*
X69958900Y-21246772D01*
X69965941Y-21238814D01*
X70097141Y-21062475D01*
X70102745Y-21053438D01*
X70202357Y-20857516D01*
X70206357Y-20847665D01*
X70271534Y-20637760D01*
X70273817Y-20627376D01*
X70275861Y-20611957D01*
X70273665Y-20597793D01*
X70260478Y-20594000D01*
X67375808Y-20594000D01*
X67362277Y-20597973D01*
X67360752Y-20608580D01*
X67385477Y-20726421D01*
X67388537Y-20736617D01*
X67469263Y-20941029D01*
X67473994Y-20950561D01*
X67588016Y-21138462D01*
X67594280Y-21147052D01*
X67738327Y-21313052D01*
X67745958Y-21320472D01*
X67915911Y-21459826D01*
X67924674Y-21465848D01*
X67951711Y-21481238D01*
X68001018Y-21532320D01*
X68014880Y-21601951D01*
X67988897Y-21668022D01*
X67959747Y-21695261D01*
X67912880Y-21726814D01*
X67837681Y-21777441D01*
X67670865Y-21936576D01*
X67533246Y-22121542D01*
X67530830Y-22126293D01*
X67530828Y-22126297D01*
X67489411Y-22207760D01*
X67428760Y-22327051D01*
X67427178Y-22332145D01*
X67427177Y-22332148D01*
X67367393Y-22524683D01*
X67360393Y-22547227D01*
X67359692Y-22552516D01*
X67330967Y-22769251D01*
X67330102Y-22775774D01*
X67330302Y-22781103D01*
X67330302Y-22781105D01*
X67334343Y-22888751D01*
X67338751Y-23006158D01*
X67339846Y-23011377D01*
X67352052Y-23069550D01*
X67386093Y-23231791D01*
X67388050Y-23236747D01*
X67388052Y-23236753D01*
X67461428Y-23422551D01*
X67467846Y-23493257D01*
X67435019Y-23556209D01*
X67427077Y-23563347D01*
X67424001Y-23565166D01*
X67409614Y-23579553D01*
X67394580Y-23592394D01*
X67378113Y-23604358D01*
X67373060Y-23610466D01*
X67349828Y-23638549D01*
X67341838Y-23647329D01*
X67053517Y-23935650D01*
X67045191Y-23943226D01*
X67038697Y-23947347D01*
X67033274Y-23953122D01*
X66991915Y-23997165D01*
X66989160Y-24000007D01*
X66969361Y-24019806D01*
X66966937Y-24022931D01*
X66966929Y-24022940D01*
X66966863Y-24023026D01*
X66959155Y-24032051D01*
X66928783Y-24064394D01*
X66924965Y-24071338D01*
X66924964Y-24071340D01*
X66918978Y-24082229D01*
X66908127Y-24098747D01*
X66895650Y-24114833D01*
X66878024Y-24155566D01*
X66872807Y-24166214D01*
X66851431Y-24205097D01*
X66849460Y-24212772D01*
X66849458Y-24212778D01*
X66846369Y-24224811D01*
X66839966Y-24243513D01*
X66831883Y-24262192D01*
X66830644Y-24270017D01*
X66824940Y-24306027D01*
X66822535Y-24317640D01*
X66811500Y-24360618D01*
X66811500Y-24380965D01*
X66809949Y-24400676D01*
X66806765Y-24420779D01*
X66807511Y-24428671D01*
X66810941Y-24464956D01*
X66811500Y-24476814D01*
X66811500Y-37532715D01*
X66791498Y-37600836D01*
X66737842Y-37647329D01*
X66667568Y-37657433D01*
X66605694Y-37630219D01*
X66574523Y-37604706D01*
X66571205Y-37601990D01*
X66337704Y-37458901D01*
X66333768Y-37457173D01*
X66090873Y-37350549D01*
X66090869Y-37350548D01*
X66086945Y-37348825D01*
X65823566Y-37273800D01*
X65819324Y-37273196D01*
X65819318Y-37273195D01*
X65618834Y-37244662D01*
X65552443Y-37235213D01*
X65408589Y-37234460D01*
X65282877Y-37233802D01*
X65282871Y-37233802D01*
X65278591Y-37233780D01*
X65274347Y-37234339D01*
X65274343Y-37234339D01*
X65176518Y-37247218D01*
X65007078Y-37269525D01*
X65002938Y-37270658D01*
X65002936Y-37270658D01*
X64965333Y-37280945D01*
X64742928Y-37341788D01*
X64738980Y-37343472D01*
X64494982Y-37447546D01*
X64494978Y-37447548D01*
X64491030Y-37449232D01*
X64471125Y-37461145D01*
X64259725Y-37587664D01*
X64259721Y-37587667D01*
X64256043Y-37589868D01*
X64042318Y-37761094D01*
X63853808Y-37959742D01*
X63694002Y-38182136D01*
X63565857Y-38424161D01*
X63471743Y-38681337D01*
X63413404Y-38948907D01*
X63391917Y-39221918D01*
X63407682Y-39495320D01*
X63408507Y-39499525D01*
X63408508Y-39499533D01*
X63435872Y-39639005D01*
X63460405Y-39764053D01*
X63461792Y-39768103D01*
X63461793Y-39768108D01*
X63547723Y-40019088D01*
X63549112Y-40023144D01*
X63551039Y-40026975D01*
X63669704Y-40262915D01*
X63672160Y-40267799D01*
X63674586Y-40271328D01*
X63674589Y-40271334D01*
X63779541Y-40424039D01*
X63827274Y-40493490D01*
X63830161Y-40496663D01*
X63830162Y-40496664D01*
X63966632Y-40646643D01*
X64011582Y-40696043D01*
X64014877Y-40698798D01*
X64014878Y-40698799D01*
X64029878Y-40711341D01*
X64221675Y-40871707D01*
X64225316Y-40873991D01*
X64450024Y-41014951D01*
X64450028Y-41014953D01*
X64453664Y-41017234D01*
X64457576Y-41019000D01*
X64457581Y-41019003D01*
X64486475Y-41032049D01*
X64540330Y-41078311D01*
X64560624Y-41146346D01*
X64540914Y-41214552D01*
X64492371Y-41258660D01*
X64491030Y-41259232D01*
X64487356Y-41261431D01*
X64259725Y-41397664D01*
X64259721Y-41397667D01*
X64256043Y-41399868D01*
X64042318Y-41571094D01*
X63853808Y-41769742D01*
X63694002Y-41992136D01*
X63565857Y-42234161D01*
X63564385Y-42238184D01*
X63564383Y-42238188D01*
X63476163Y-42479259D01*
X63471743Y-42491337D01*
X63413404Y-42758907D01*
X63413068Y-42763177D01*
X63398363Y-42950022D01*
X63391917Y-43031918D01*
X63407682Y-43305320D01*
X63408507Y-43309525D01*
X63408508Y-43309533D01*
X63433683Y-43437848D01*
X63460405Y-43574053D01*
X63461792Y-43578103D01*
X63461793Y-43578108D01*
X63547723Y-43829088D01*
X63549112Y-43833144D01*
X63672160Y-44077799D01*
X63674586Y-44081328D01*
X63674589Y-44081334D01*
X63808113Y-44275611D01*
X63827274Y-44303490D01*
X63830161Y-44306663D01*
X63830162Y-44306664D01*
X64001732Y-44495218D01*
X64011582Y-44506043D01*
X64221675Y-44681707D01*
X64225316Y-44683991D01*
X64450024Y-44824951D01*
X64450028Y-44824953D01*
X64453664Y-44827234D01*
X64521544Y-44857883D01*
X64699345Y-44938164D01*
X64699349Y-44938166D01*
X64703257Y-44939930D01*
X64707377Y-44941150D01*
X64707376Y-44941150D01*
X64961723Y-45016491D01*
X64961727Y-45016492D01*
X64965836Y-45017709D01*
X64970070Y-45018357D01*
X64970075Y-45018358D01*
X65232298Y-45058483D01*
X65232300Y-45058483D01*
X65236540Y-45059132D01*
X65375912Y-45061322D01*
X65506071Y-45063367D01*
X65506077Y-45063367D01*
X65510362Y-45063434D01*
X65782235Y-45030534D01*
X66047127Y-44961041D01*
X66051087Y-44959401D01*
X66051092Y-44959399D01*
X66173631Y-44908641D01*
X66300136Y-44856241D01*
X66522635Y-44726223D01*
X66532879Y-44720237D01*
X66532880Y-44720236D01*
X66536582Y-44718073D01*
X66607755Y-44662266D01*
X66673702Y-44635975D01*
X66743396Y-44649510D01*
X66794709Y-44698577D01*
X66811500Y-44761421D01*
X66811500Y-63555577D01*
X66791498Y-63623698D01*
X66774595Y-63644672D01*
X66742463Y-63676804D01*
X66680151Y-63710830D01*
X66609336Y-63705765D01*
X66552500Y-63663218D01*
X66527457Y-63592435D01*
X66527255Y-63587057D01*
X66527055Y-63581726D01*
X66495148Y-63429657D01*
X66479067Y-63353016D01*
X66479066Y-63353013D01*
X66477970Y-63347789D01*
X66390171Y-63125467D01*
X66266168Y-62921117D01*
X66197150Y-62841581D01*
X66113007Y-62744614D01*
X66113005Y-62744612D01*
X66109507Y-62740581D01*
X66105381Y-62737198D01*
X66105377Y-62737194D01*
X65946405Y-62606846D01*
X65906411Y-62548187D01*
X65904479Y-62477216D01*
X65942971Y-62414898D01*
X66108858Y-62268650D01*
X66108861Y-62268647D01*
X66112655Y-62265302D01*
X66142660Y-62228773D01*
X66263526Y-62081628D01*
X66263528Y-62081625D01*
X66266734Y-62077722D01*
X66381592Y-61880377D01*
X66386299Y-61872290D01*
X66386300Y-61872288D01*
X66388841Y-61867922D01*
X66397707Y-61844825D01*
X66474018Y-61646028D01*
X66474020Y-61646021D01*
X66475833Y-61641298D01*
X66494435Y-61552256D01*
X66497433Y-61540680D01*
X66504616Y-61517548D01*
X66509088Y-61483811D01*
X66510658Y-61474603D01*
X66524439Y-61408634D01*
X66525474Y-61403680D01*
X66528232Y-61342953D01*
X66529194Y-61332115D01*
X66535323Y-61285873D01*
X66535323Y-61285869D01*
X66536023Y-61280589D01*
X66533974Y-61226026D01*
X66534015Y-61215584D01*
X66536256Y-61166237D01*
X66536486Y-61161183D01*
X66529725Y-61102754D01*
X66528980Y-61093006D01*
X66527255Y-61047057D01*
X66527055Y-61041726D01*
X66525961Y-61036514D01*
X66525960Y-61036503D01*
X66518452Y-61000721D01*
X66516602Y-60989331D01*
X66509167Y-60925076D01*
X66508585Y-60920044D01*
X66482449Y-60827680D01*
X66480380Y-60819273D01*
X66477970Y-60807789D01*
X66476010Y-60802825D01*
X66475749Y-60801956D01*
X66472198Y-60791453D01*
X66442490Y-60686468D01*
X66440356Y-60681892D01*
X66440354Y-60681886D01*
X66342038Y-60471046D01*
X66342036Y-60471042D01*
X66339901Y-60466464D01*
X66321593Y-60439524D01*
X66206302Y-60269881D01*
X66203456Y-60265693D01*
X66036668Y-60089319D01*
X65945347Y-60019498D01*
X65903380Y-59962234D01*
X65899035Y-59891370D01*
X65933691Y-59829407D01*
X65951505Y-59814887D01*
X66009762Y-59775666D01*
X66052163Y-59735218D01*
X66122001Y-59668595D01*
X66182718Y-59610674D01*
X66325402Y-59418900D01*
X66381490Y-59308584D01*
X66431314Y-59210586D01*
X66431314Y-59210585D01*
X66433733Y-59205828D01*
X66490765Y-59022155D01*
X66503032Y-58982651D01*
X66503033Y-58982645D01*
X66504616Y-58977548D01*
X66532278Y-58768846D01*
X66535323Y-58745873D01*
X66535323Y-58745869D01*
X66536023Y-58740589D01*
X66535192Y-58718440D01*
X66531023Y-58607411D01*
X66527055Y-58501726D01*
X66488675Y-58318809D01*
X66479067Y-58273016D01*
X66479066Y-58273013D01*
X66477970Y-58267789D01*
X66390171Y-58045467D01*
X66266168Y-57841117D01*
X66152676Y-57710329D01*
X66123137Y-57645770D01*
X66133191Y-57575489D01*
X66179646Y-57521800D01*
X66203613Y-57509767D01*
X66262295Y-57487768D01*
X66262296Y-57487767D01*
X66270705Y-57484615D01*
X66387261Y-57397261D01*
X66474615Y-57280705D01*
X66525745Y-57144316D01*
X66532500Y-57082134D01*
X66532500Y-55185866D01*
X66525745Y-55123684D01*
X66474615Y-54987295D01*
X66387261Y-54870739D01*
X66270705Y-54783385D01*
X66134316Y-54732255D01*
X66072134Y-54725500D01*
X63975866Y-54725500D01*
X63913684Y-54732255D01*
X63777295Y-54783385D01*
X63660739Y-54870739D01*
X63573385Y-54987295D01*
X63522255Y-55123684D01*
X63515500Y-55185866D01*
X63515500Y-57082134D01*
X63522255Y-57144316D01*
X63573385Y-57280705D01*
X63660739Y-57397261D01*
X63777295Y-57484615D01*
X63785704Y-57487767D01*
X63785705Y-57487768D01*
X63842555Y-57509080D01*
X63899320Y-57551721D01*
X63924020Y-57618283D01*
X63908813Y-57687631D01*
X63885298Y-57718232D01*
X63865282Y-57737326D01*
X63722598Y-57929100D01*
X63720182Y-57933851D01*
X63720180Y-57933855D01*
X63622696Y-58125594D01*
X63614267Y-58142172D01*
X63591772Y-58214619D01*
X63544968Y-58365349D01*
X63544967Y-58365355D01*
X63543384Y-58370452D01*
X63535626Y-58428985D01*
X63514298Y-58589901D01*
X63511977Y-58607411D01*
X63512177Y-58612740D01*
X63512177Y-58612741D01*
X63514444Y-58673109D01*
X63520945Y-58846274D01*
X63522040Y-58851492D01*
X63557849Y-59022155D01*
X63570030Y-59080211D01*
X63657829Y-59302533D01*
X63781725Y-59506706D01*
X63781725Y-59506707D01*
X63781832Y-59506883D01*
X63781796Y-59506905D01*
X63805182Y-59572082D01*
X63789226Y-59641262D01*
X63738400Y-59690833D01*
X63679401Y-59705500D01*
X57319031Y-59705500D01*
X57250910Y-59685498D01*
X57229936Y-59668595D01*
X39830405Y-42269064D01*
X39796379Y-42206752D01*
X39793500Y-42179969D01*
X39793500Y-29004791D01*
X39813502Y-28936670D01*
X39843935Y-28903965D01*
X39911081Y-28853642D01*
X39918261Y-28848261D01*
X40005615Y-28731705D01*
X40056745Y-28595316D01*
X40063500Y-28533134D01*
X40063500Y-28529669D01*
X57682001Y-28529669D01*
X57682371Y-28536490D01*
X57687895Y-28587352D01*
X57691521Y-28602604D01*
X57736676Y-28723054D01*
X57745214Y-28738649D01*
X57821715Y-28840724D01*
X57834276Y-28853285D01*
X57936351Y-28929786D01*
X57951946Y-28938324D01*
X58072394Y-28983478D01*
X58087649Y-28987105D01*
X58138514Y-28992631D01*
X58145328Y-28993000D01*
X59187885Y-28993000D01*
X59203124Y-28988525D01*
X59204329Y-28987135D01*
X59206000Y-28979452D01*
X59206000Y-28974884D01*
X59714000Y-28974884D01*
X59718475Y-28990123D01*
X59719865Y-28991328D01*
X59727548Y-28992999D01*
X60774669Y-28992999D01*
X60781490Y-28992629D01*
X60832352Y-28987105D01*
X60847604Y-28983479D01*
X60968054Y-28938324D01*
X60983649Y-28929786D01*
X61085724Y-28853285D01*
X61098285Y-28840724D01*
X61174786Y-28738649D01*
X61183324Y-28723054D01*
X61228478Y-28602606D01*
X61232105Y-28587351D01*
X61237631Y-28536486D01*
X61238000Y-28529672D01*
X61238000Y-27487115D01*
X61233525Y-27471876D01*
X61232135Y-27470671D01*
X61224452Y-27469000D01*
X59732115Y-27469000D01*
X59716876Y-27473475D01*
X59715671Y-27474865D01*
X59714000Y-27482548D01*
X59714000Y-28974884D01*
X59206000Y-28974884D01*
X59206000Y-27487115D01*
X59201525Y-27471876D01*
X59200135Y-27470671D01*
X59192452Y-27469000D01*
X57700116Y-27469000D01*
X57684877Y-27473475D01*
X57683672Y-27474865D01*
X57682001Y-27482548D01*
X57682001Y-28529669D01*
X40063500Y-28529669D01*
X40063500Y-26942885D01*
X57682000Y-26942885D01*
X57686475Y-26958124D01*
X57687865Y-26959329D01*
X57695548Y-26961000D01*
X59187885Y-26961000D01*
X59203124Y-26956525D01*
X59204329Y-26955135D01*
X59206000Y-26947452D01*
X59206000Y-26942885D01*
X59714000Y-26942885D01*
X59718475Y-26958124D01*
X59719865Y-26959329D01*
X59727548Y-26961000D01*
X61219884Y-26961000D01*
X61235123Y-26956525D01*
X61236328Y-26955135D01*
X61237999Y-26947452D01*
X61237999Y-25900331D01*
X61237629Y-25893510D01*
X61232105Y-25842648D01*
X61228479Y-25827396D01*
X61183324Y-25706946D01*
X61174786Y-25691351D01*
X61098285Y-25589276D01*
X61085724Y-25576715D01*
X60983649Y-25500214D01*
X60968054Y-25491676D01*
X60847606Y-25446522D01*
X60832351Y-25442895D01*
X60781486Y-25437369D01*
X60774672Y-25437000D01*
X59732115Y-25437000D01*
X59716876Y-25441475D01*
X59715671Y-25442865D01*
X59714000Y-25450548D01*
X59714000Y-26942885D01*
X59206000Y-26942885D01*
X59206000Y-25455116D01*
X59201525Y-25439877D01*
X59200135Y-25438672D01*
X59192452Y-25437001D01*
X58145331Y-25437001D01*
X58138510Y-25437371D01*
X58087648Y-25442895D01*
X58072396Y-25446521D01*
X57951946Y-25491676D01*
X57936351Y-25500214D01*
X57834276Y-25576715D01*
X57821715Y-25589276D01*
X57745214Y-25691351D01*
X57736676Y-25706946D01*
X57691522Y-25827394D01*
X57687895Y-25842649D01*
X57682369Y-25893514D01*
X57682000Y-25900328D01*
X57682000Y-26942885D01*
X40063500Y-26942885D01*
X40063500Y-25896866D01*
X40056745Y-25834684D01*
X40005615Y-25698295D01*
X39918261Y-25581739D01*
X39801705Y-25494385D01*
X39665316Y-25443255D01*
X39603134Y-25436500D01*
X36966866Y-25436500D01*
X36904684Y-25443255D01*
X36768295Y-25494385D01*
X36651739Y-25581739D01*
X36564385Y-25698295D01*
X36513255Y-25834684D01*
X36506500Y-25896866D01*
X36506500Y-28533134D01*
X34798500Y-28533134D01*
X34798500Y-17912703D01*
X35990743Y-17912703D01*
X35991302Y-17916947D01*
X35991302Y-17916951D01*
X36003512Y-18009692D01*
X36028268Y-18197734D01*
X36104129Y-18475036D01*
X36105813Y-18478984D01*
X36208823Y-18720485D01*
X36216923Y-18739476D01*
X36228693Y-18759142D01*
X36357991Y-18975183D01*
X36364561Y-18986161D01*
X36544313Y-19210528D01*
X36657347Y-19317793D01*
X36731881Y-19388523D01*
X36752851Y-19408423D01*
X36986317Y-19576186D01*
X36990112Y-19578195D01*
X36990113Y-19578196D01*
X37011869Y-19589715D01*
X37240392Y-19710712D01*
X37356791Y-19753308D01*
X37498921Y-19805320D01*
X37510373Y-19809511D01*
X37791264Y-19870755D01*
X37819841Y-19873004D01*
X38014282Y-19888307D01*
X38014291Y-19888307D01*
X38016739Y-19888500D01*
X38172271Y-19888500D01*
X38174407Y-19888354D01*
X38174418Y-19888354D01*
X38382548Y-19874165D01*
X38382554Y-19874164D01*
X38386825Y-19873873D01*
X38391020Y-19873004D01*
X38391022Y-19873004D01*
X38527583Y-19844724D01*
X38668342Y-19815574D01*
X38939343Y-19719607D01*
X39035215Y-19670124D01*
X39191005Y-19589715D01*
X39191006Y-19589715D01*
X39194812Y-19587750D01*
X39198313Y-19585289D01*
X39198317Y-19585287D01*
X39335594Y-19488807D01*
X39430023Y-19422441D01*
X39524505Y-19334643D01*
X39637479Y-19229661D01*
X39637481Y-19229658D01*
X39639697Y-19227599D01*
X46203500Y-19227599D01*
X46203501Y-22428400D01*
X46214474Y-22534167D01*
X46216658Y-22540713D01*
X46267730Y-22693792D01*
X46270450Y-22701946D01*
X46363521Y-22852349D01*
X46368703Y-22857522D01*
X46373278Y-22862089D01*
X46488697Y-22977306D01*
X46562025Y-23022506D01*
X46632842Y-23066158D01*
X46639261Y-23070115D01*
X46698414Y-23089735D01*
X46800610Y-23123632D01*
X46800612Y-23123632D01*
X46807138Y-23125797D01*
X46813974Y-23126497D01*
X46813977Y-23126498D01*
X46857030Y-23130909D01*
X46911599Y-23136500D01*
X47745519Y-23136500D01*
X48592400Y-23136499D01*
X48698167Y-23125526D01*
X48809725Y-23088307D01*
X48859002Y-23071867D01*
X48859004Y-23071866D01*
X48865946Y-23069550D01*
X49016349Y-22976479D01*
X49066852Y-22925888D01*
X49093797Y-22898895D01*
X49141306Y-22851303D01*
X49221146Y-22721779D01*
X49230275Y-22706969D01*
X49230276Y-22706967D01*
X49234115Y-22700739D01*
X49283278Y-22552516D01*
X49287632Y-22539390D01*
X49287632Y-22539388D01*
X49289797Y-22532862D01*
X49300500Y-22428401D01*
X49300500Y-21648072D01*
X51284000Y-21648072D01*
X51284202Y-21653104D01*
X51298536Y-21831259D01*
X51300148Y-21841212D01*
X51357154Y-22073300D01*
X51360337Y-22082870D01*
X51453718Y-22302860D01*
X51458392Y-22311799D01*
X51585739Y-22514024D01*
X51591780Y-22522099D01*
X51749827Y-22701368D01*
X51757079Y-22708371D01*
X51941750Y-22860062D01*
X51950033Y-22865818D01*
X52156579Y-22986031D01*
X52165684Y-22990393D01*
X52388785Y-23076034D01*
X52398474Y-23078885D01*
X52560264Y-23112685D01*
X52574325Y-23111562D01*
X52578000Y-23101454D01*
X52578000Y-23098858D01*
X53086000Y-23098858D01*
X53090136Y-23112944D01*
X53103114Y-23114993D01*
X53128631Y-23112040D01*
X53138521Y-23110081D01*
X53368476Y-23045011D01*
X53377927Y-23041497D01*
X53594528Y-22940494D01*
X53603292Y-22935515D01*
X53800951Y-22801186D01*
X53808815Y-22794862D01*
X53982451Y-22630664D01*
X53989210Y-22623157D01*
X54134357Y-22433312D01*
X54139821Y-22424833D01*
X54252752Y-22214217D01*
X54256792Y-22204971D01*
X54334596Y-21979013D01*
X54337107Y-21969232D01*
X54377969Y-21732666D01*
X54378824Y-21724794D01*
X54379936Y-21700315D01*
X54380000Y-21697482D01*
X54380000Y-21100115D01*
X54375525Y-21084876D01*
X54374135Y-21083671D01*
X54366452Y-21082000D01*
X53104115Y-21082000D01*
X53088876Y-21086475D01*
X53087671Y-21087865D01*
X53086000Y-21095548D01*
X53086000Y-23098858D01*
X52578000Y-23098858D01*
X52578000Y-21100115D01*
X52573525Y-21084876D01*
X52572135Y-21083671D01*
X52564452Y-21082000D01*
X51302115Y-21082000D01*
X51286876Y-21086475D01*
X51285671Y-21087865D01*
X51284000Y-21095548D01*
X51284000Y-21648072D01*
X49300500Y-21648072D01*
X49300499Y-20555885D01*
X51284000Y-20555885D01*
X51288475Y-20571124D01*
X51289865Y-20572329D01*
X51297548Y-20574000D01*
X52559885Y-20574000D01*
X52575124Y-20569525D01*
X52576329Y-20568135D01*
X52578000Y-20560452D01*
X52578000Y-20555885D01*
X53086000Y-20555885D01*
X53090475Y-20571124D01*
X53091865Y-20572329D01*
X53099548Y-20574000D01*
X54361885Y-20574000D01*
X54377124Y-20569525D01*
X54378329Y-20568135D01*
X54380000Y-20560452D01*
X54380000Y-20007928D01*
X54379798Y-20002896D01*
X54365464Y-19824741D01*
X54363852Y-19814788D01*
X54306846Y-19582700D01*
X54303663Y-19573130D01*
X54210282Y-19353140D01*
X54205608Y-19344201D01*
X54078261Y-19141976D01*
X54072220Y-19133901D01*
X53914173Y-18954632D01*
X53906921Y-18947629D01*
X53722250Y-18795938D01*
X53713967Y-18790182D01*
X53507421Y-18669969D01*
X53498316Y-18665607D01*
X53275215Y-18579966D01*
X53265526Y-18577115D01*
X53103736Y-18543315D01*
X53089675Y-18544438D01*
X53086000Y-18554546D01*
X53086000Y-20555885D01*
X52578000Y-20555885D01*
X52578000Y-18557142D01*
X52573864Y-18543056D01*
X52560886Y-18541007D01*
X52535369Y-18543960D01*
X52525479Y-18545919D01*
X52295524Y-18610989D01*
X52286073Y-18614503D01*
X52069472Y-18715506D01*
X52060708Y-18720485D01*
X51863049Y-18854814D01*
X51855185Y-18861138D01*
X51681549Y-19025336D01*
X51674790Y-19032843D01*
X51529643Y-19222688D01*
X51524179Y-19231167D01*
X51411248Y-19441783D01*
X51407208Y-19451029D01*
X51329404Y-19676987D01*
X51326893Y-19686768D01*
X51286031Y-19923334D01*
X51285176Y-19931206D01*
X51284064Y-19955685D01*
X51284000Y-19958518D01*
X51284000Y-20555885D01*
X49300499Y-20555885D01*
X49300499Y-19227600D01*
X49289526Y-19121833D01*
X49259326Y-19031312D01*
X49235867Y-18960998D01*
X49235866Y-18960996D01*
X49233550Y-18954054D01*
X49140479Y-18803651D01*
X49132753Y-18795938D01*
X49057167Y-18720485D01*
X49015303Y-18678694D01*
X48864739Y-18585885D01*
X48744245Y-18545919D01*
X48703390Y-18532368D01*
X48703388Y-18532368D01*
X48696862Y-18530203D01*
X48690026Y-18529503D01*
X48690023Y-18529502D01*
X48646081Y-18525000D01*
X48592401Y-18519500D01*
X47758481Y-18519500D01*
X46911600Y-18519501D01*
X46805833Y-18530474D01*
X46775275Y-18540669D01*
X46644998Y-18584133D01*
X46644996Y-18584134D01*
X46638054Y-18586450D01*
X46487651Y-18679521D01*
X46362694Y-18804697D01*
X46269885Y-18955261D01*
X46244660Y-19031312D01*
X46229831Y-19076022D01*
X46214203Y-19123138D01*
X46213503Y-19129974D01*
X46213502Y-19129977D01*
X46212675Y-19138049D01*
X46203500Y-19227599D01*
X39639697Y-19227599D01*
X39640622Y-19226740D01*
X39822713Y-19004268D01*
X39972927Y-18759142D01*
X39997433Y-18703317D01*
X40086757Y-18499830D01*
X40088483Y-18495898D01*
X40167244Y-18219406D01*
X40198628Y-17998885D01*
X40207146Y-17939036D01*
X40207146Y-17939034D01*
X40207751Y-17934784D01*
X40207845Y-17916951D01*
X40208584Y-17775774D01*
X67330102Y-17775774D01*
X67330302Y-17781103D01*
X67330302Y-17781105D01*
X67332555Y-17841105D01*
X67338751Y-18006158D01*
X67339846Y-18011377D01*
X67354826Y-18082770D01*
X67386093Y-18231791D01*
X67470776Y-18446221D01*
X67473543Y-18450780D01*
X67473544Y-18450783D01*
X67531274Y-18545919D01*
X67590377Y-18643317D01*
X67593874Y-18647347D01*
X67732503Y-18807103D01*
X67741477Y-18817445D01*
X67745608Y-18820832D01*
X67915627Y-18960240D01*
X67915633Y-18960244D01*
X67919755Y-18963624D01*
X67924398Y-18966267D01*
X67951735Y-18981829D01*
X68001041Y-19032912D01*
X68014902Y-19102542D01*
X67988918Y-19168613D01*
X67959768Y-19195851D01*
X67842422Y-19274852D01*
X67834130Y-19281519D01*
X67675100Y-19433228D01*
X67668059Y-19441186D01*
X67536859Y-19617525D01*
X67531255Y-19626562D01*
X67431643Y-19822484D01*
X67427643Y-19832335D01*
X67362466Y-20042240D01*
X67360183Y-20052624D01*
X67358139Y-20068043D01*
X67360335Y-20082207D01*
X67373522Y-20086000D01*
X70258192Y-20086000D01*
X70271723Y-20082027D01*
X70273248Y-20071420D01*
X70248523Y-19953579D01*
X70245463Y-19943383D01*
X70164737Y-19738971D01*
X70160006Y-19729439D01*
X70045984Y-19541538D01*
X70039720Y-19532948D01*
X69895673Y-19366948D01*
X69888042Y-19359528D01*
X69718089Y-19220174D01*
X69709326Y-19214152D01*
X69682289Y-19198762D01*
X69632982Y-19147680D01*
X69619120Y-19078049D01*
X69645103Y-19011978D01*
X69674253Y-18984739D01*
X69729374Y-18947629D01*
X69796319Y-18902559D01*
X69963135Y-18743424D01*
X70100754Y-18558458D01*
X70105407Y-18549308D01*
X70177326Y-18407852D01*
X70205240Y-18352949D01*
X70241321Y-18236752D01*
X70272024Y-18137871D01*
X70273607Y-18132773D01*
X70282436Y-18066158D01*
X70303198Y-17909511D01*
X70303198Y-17909506D01*
X70303898Y-17904226D01*
X70303612Y-17896591D01*
X70299276Y-17781105D01*
X70299076Y-17775774D01*
X76220102Y-17775774D01*
X76220302Y-17781103D01*
X76220302Y-17781105D01*
X76222555Y-17841105D01*
X76228751Y-18006158D01*
X76229846Y-18011377D01*
X76244826Y-18082770D01*
X76276093Y-18231791D01*
X76360776Y-18446221D01*
X76363543Y-18450780D01*
X76363544Y-18450783D01*
X76421274Y-18545919D01*
X76480377Y-18643317D01*
X76483874Y-18647347D01*
X76622503Y-18807103D01*
X76631477Y-18817445D01*
X76635608Y-18820832D01*
X76805627Y-18960240D01*
X76805633Y-18960244D01*
X76809755Y-18963624D01*
X76814398Y-18966267D01*
X76841735Y-18981829D01*
X76891041Y-19032912D01*
X76904902Y-19102542D01*
X76878918Y-19168613D01*
X76849768Y-19195851D01*
X76732422Y-19274852D01*
X76724130Y-19281519D01*
X76565100Y-19433228D01*
X76558059Y-19441186D01*
X76426859Y-19617525D01*
X76421255Y-19626562D01*
X76321643Y-19822484D01*
X76317643Y-19832335D01*
X76252466Y-20042240D01*
X76250183Y-20052624D01*
X76248139Y-20068043D01*
X76250335Y-20082207D01*
X76263522Y-20086000D01*
X79148192Y-20086000D01*
X79161723Y-20082027D01*
X79163248Y-20071420D01*
X79138523Y-19953579D01*
X79135463Y-19943383D01*
X79054737Y-19738971D01*
X79050006Y-19729439D01*
X78935984Y-19541538D01*
X78929720Y-19532948D01*
X78785673Y-19366948D01*
X78778042Y-19359528D01*
X78608089Y-19220174D01*
X78599326Y-19214152D01*
X78572289Y-19198762D01*
X78522982Y-19147680D01*
X78509120Y-19078049D01*
X78535103Y-19011978D01*
X78564253Y-18984739D01*
X78619374Y-18947629D01*
X78686319Y-18902559D01*
X78853135Y-18743424D01*
X78990754Y-18558458D01*
X78995407Y-18549308D01*
X79067326Y-18407852D01*
X79095240Y-18352949D01*
X79131321Y-18236752D01*
X79162024Y-18137871D01*
X79163607Y-18132773D01*
X79172436Y-18066158D01*
X79193198Y-17909511D01*
X79193198Y-17909506D01*
X79193898Y-17904226D01*
X79193612Y-17896591D01*
X79191329Y-17835774D01*
X85381102Y-17835774D01*
X85381302Y-17841103D01*
X85381302Y-17841105D01*
X85384556Y-17927776D01*
X85389751Y-18066158D01*
X85390846Y-18071377D01*
X85402618Y-18127484D01*
X85437093Y-18291791D01*
X85439051Y-18296750D01*
X85439052Y-18296752D01*
X85511020Y-18478984D01*
X85521776Y-18506221D01*
X85524543Y-18510780D01*
X85524544Y-18510783D01*
X85614045Y-18658276D01*
X85641377Y-18703317D01*
X85644874Y-18707347D01*
X85778327Y-18861138D01*
X85792477Y-18877445D01*
X85823106Y-18902559D01*
X85966627Y-19020240D01*
X85966633Y-19020244D01*
X85970755Y-19023624D01*
X85975398Y-19026267D01*
X86002735Y-19041829D01*
X86052041Y-19092912D01*
X86065902Y-19162542D01*
X86039918Y-19228613D01*
X86010768Y-19255851D01*
X85893422Y-19334852D01*
X85885130Y-19341519D01*
X85726100Y-19493228D01*
X85719059Y-19501186D01*
X85587859Y-19677525D01*
X85582255Y-19686562D01*
X85482643Y-19882484D01*
X85478643Y-19892335D01*
X85413466Y-20102240D01*
X85411183Y-20112624D01*
X85409139Y-20128043D01*
X85411335Y-20142207D01*
X85424522Y-20146000D01*
X88309192Y-20146000D01*
X88322723Y-20142027D01*
X88324248Y-20131420D01*
X88299523Y-20013579D01*
X88296463Y-20003383D01*
X88215737Y-19798971D01*
X88211006Y-19789439D01*
X88096984Y-19601538D01*
X88090720Y-19592948D01*
X87946673Y-19426948D01*
X87939042Y-19419528D01*
X87769089Y-19280174D01*
X87760326Y-19274152D01*
X87733289Y-19258762D01*
X87683982Y-19207680D01*
X87670120Y-19138049D01*
X87696103Y-19071978D01*
X87725253Y-19044739D01*
X87780438Y-19007586D01*
X87823790Y-18978400D01*
X99117500Y-18978400D01*
X99117837Y-18981646D01*
X99117837Y-18981650D01*
X99127483Y-19074614D01*
X99128474Y-19084166D01*
X99184450Y-19251946D01*
X99277522Y-19402348D01*
X99402697Y-19527305D01*
X99408927Y-19531145D01*
X99408928Y-19531146D01*
X99417007Y-19536126D01*
X99548258Y-19617030D01*
X99548780Y-19617352D01*
X99596273Y-19670124D01*
X99607697Y-19740196D01*
X99579423Y-19805320D01*
X99569636Y-19815782D01*
X99459094Y-19921234D01*
X99452059Y-19929186D01*
X99320859Y-20105525D01*
X99315255Y-20114562D01*
X99215643Y-20310484D01*
X99211643Y-20320335D01*
X99146466Y-20530240D01*
X99144183Y-20540624D01*
X99142139Y-20556043D01*
X99144335Y-20570207D01*
X99157522Y-20574000D01*
X102042192Y-20574000D01*
X102055723Y-20570027D01*
X102057248Y-20559420D01*
X102032523Y-20441579D01*
X102029463Y-20431383D01*
X101948737Y-20226971D01*
X101944006Y-20217439D01*
X101829984Y-20029538D01*
X101823720Y-20020948D01*
X101679673Y-19854948D01*
X101672044Y-19847530D01*
X101640431Y-19821609D01*
X101600436Y-19762949D01*
X101598504Y-19691979D01*
X101635248Y-19631230D01*
X101654018Y-19617030D01*
X101675230Y-19603904D01*
X101800348Y-19526478D01*
X101925305Y-19401303D01*
X101960362Y-19344430D01*
X102014275Y-19256968D01*
X102014276Y-19256966D01*
X102018115Y-19250738D01*
X102056868Y-19133901D01*
X102071632Y-19089389D01*
X102071632Y-19089387D01*
X102073056Y-19085095D01*
X109386001Y-19085095D01*
X109386338Y-19091614D01*
X109396257Y-19187206D01*
X109399149Y-19200600D01*
X109450588Y-19354784D01*
X109456761Y-19367962D01*
X109542063Y-19505807D01*
X109551099Y-19517208D01*
X109665829Y-19631739D01*
X109677240Y-19640751D01*
X109815243Y-19725816D01*
X109828424Y-19731963D01*
X109982710Y-19783138D01*
X109996086Y-19786005D01*
X110090438Y-19795672D01*
X110096854Y-19796000D01*
X110471885Y-19796000D01*
X110487124Y-19791525D01*
X110488329Y-19790135D01*
X110490000Y-19782452D01*
X110490000Y-18560115D01*
X110485525Y-18544876D01*
X110484135Y-18543671D01*
X110476452Y-18542000D01*
X109404116Y-18542000D01*
X109388877Y-18546475D01*
X109387672Y-18547865D01*
X109386001Y-18555548D01*
X109386001Y-19085095D01*
X102073056Y-19085095D01*
X102073797Y-19082861D01*
X102084500Y-18978400D01*
X102084500Y-18015885D01*
X109386000Y-18015885D01*
X109390475Y-18031124D01*
X109391865Y-18032329D01*
X109399548Y-18034000D01*
X110471885Y-18034000D01*
X110487124Y-18029525D01*
X110488329Y-18028135D01*
X110490000Y-18020452D01*
X110490000Y-16798116D01*
X110485525Y-16782877D01*
X110484135Y-16781672D01*
X110476452Y-16780001D01*
X110096905Y-16780001D01*
X110090386Y-16780338D01*
X109994794Y-16790257D01*
X109981400Y-16793149D01*
X109827216Y-16844588D01*
X109814038Y-16850761D01*
X109676193Y-16936063D01*
X109664792Y-16945099D01*
X109550261Y-17059829D01*
X109541249Y-17071240D01*
X109456184Y-17209243D01*
X109450037Y-17222424D01*
X109398862Y-17376710D01*
X109395995Y-17390086D01*
X109386328Y-17484438D01*
X109386000Y-17490855D01*
X109386000Y-18015885D01*
X102084500Y-18015885D01*
X102084500Y-17677600D01*
X102084054Y-17673297D01*
X102074238Y-17578692D01*
X102074237Y-17578688D01*
X102073526Y-17571834D01*
X102065317Y-17547227D01*
X102019868Y-17411002D01*
X102017550Y-17404054D01*
X101924478Y-17253652D01*
X101899493Y-17228710D01*
X101804483Y-17133866D01*
X101799303Y-17128695D01*
X101787699Y-17121542D01*
X101654968Y-17039725D01*
X101654966Y-17039724D01*
X101648738Y-17035885D01*
X101543122Y-17000854D01*
X101487389Y-16982368D01*
X101487387Y-16982368D01*
X101480861Y-16980203D01*
X101474025Y-16979503D01*
X101474022Y-16979502D01*
X101430969Y-16975091D01*
X101376400Y-16969500D01*
X99825600Y-16969500D01*
X99822354Y-16969837D01*
X99822350Y-16969837D01*
X99726692Y-16979762D01*
X99726688Y-16979763D01*
X99719834Y-16980474D01*
X99713298Y-16982655D01*
X99713296Y-16982655D01*
X99603228Y-17019377D01*
X99552054Y-17036450D01*
X99401652Y-17129522D01*
X99276695Y-17254697D01*
X99272855Y-17260927D01*
X99272854Y-17260928D01*
X99191969Y-17392148D01*
X99183885Y-17405262D01*
X99181581Y-17412209D01*
X99136798Y-17547227D01*
X99128203Y-17573139D01*
X99117500Y-17677600D01*
X99117500Y-18978400D01*
X87823790Y-18978400D01*
X87847319Y-18962559D01*
X87854970Y-18955261D01*
X87953635Y-18861138D01*
X88014135Y-18803424D01*
X88018029Y-18798191D01*
X88148568Y-18622740D01*
X88151754Y-18618458D01*
X88155552Y-18610989D01*
X88226778Y-18470897D01*
X88256240Y-18412949D01*
X88260572Y-18399000D01*
X88323024Y-18197871D01*
X88324607Y-18192773D01*
X88333260Y-18127484D01*
X88354198Y-17969511D01*
X88354198Y-17969506D01*
X88354898Y-17964226D01*
X88353632Y-17930488D01*
X88346449Y-17739173D01*
X88346249Y-17733842D01*
X88298907Y-17508209D01*
X88292054Y-17490855D01*
X88216185Y-17298744D01*
X88216184Y-17298742D01*
X88214224Y-17293779D01*
X88208097Y-17283681D01*
X88097390Y-17101243D01*
X88094623Y-17096683D01*
X88057793Y-17054240D01*
X87947023Y-16926588D01*
X87947021Y-16926586D01*
X87943523Y-16922555D01*
X87883302Y-16873177D01*
X87769373Y-16779760D01*
X87769367Y-16779756D01*
X87765245Y-16776376D01*
X87760609Y-16773737D01*
X87760606Y-16773735D01*
X87569529Y-16664968D01*
X87564886Y-16662325D01*
X87348175Y-16583663D01*
X87342926Y-16582714D01*
X87342923Y-16582713D01*
X87125392Y-16543377D01*
X87125385Y-16543376D01*
X87121308Y-16542639D01*
X87103586Y-16541803D01*
X87098644Y-16541570D01*
X87098637Y-16541570D01*
X87097156Y-16541500D01*
X86685110Y-16541500D01*
X86618191Y-16547178D01*
X86518591Y-16555629D01*
X86518587Y-16555630D01*
X86513280Y-16556080D01*
X86508125Y-16557418D01*
X86508119Y-16557419D01*
X86295297Y-16612657D01*
X86295293Y-16612658D01*
X86290128Y-16613999D01*
X86285262Y-16616191D01*
X86285259Y-16616192D01*
X86176980Y-16664968D01*
X86079925Y-16708688D01*
X85888681Y-16837441D01*
X85884824Y-16841120D01*
X85884822Y-16841122D01*
X85862355Y-16862555D01*
X85721865Y-16996576D01*
X85718682Y-17000854D01*
X85702299Y-17022874D01*
X85584246Y-17181542D01*
X85581830Y-17186293D01*
X85581828Y-17186297D01*
X85549686Y-17249517D01*
X85479760Y-17387051D01*
X85478178Y-17392145D01*
X85478177Y-17392148D01*
X85431607Y-17542129D01*
X85411393Y-17607227D01*
X85410692Y-17612516D01*
X85385306Y-17804058D01*
X85381102Y-17835774D01*
X79191329Y-17835774D01*
X79189276Y-17781105D01*
X79185249Y-17673842D01*
X79183029Y-17663259D01*
X79146855Y-17490855D01*
X79137907Y-17448209D01*
X79123213Y-17411002D01*
X79055185Y-17238744D01*
X79055184Y-17238742D01*
X79053224Y-17233779D01*
X79036689Y-17206529D01*
X78944277Y-17054240D01*
X78933623Y-17036683D01*
X78875617Y-16969837D01*
X78786023Y-16866588D01*
X78786021Y-16866586D01*
X78782523Y-16862555D01*
X78698363Y-16793548D01*
X78608373Y-16719760D01*
X78608367Y-16719756D01*
X78604245Y-16716376D01*
X78599609Y-16713737D01*
X78599606Y-16713735D01*
X78408529Y-16604968D01*
X78403886Y-16602325D01*
X78187175Y-16523663D01*
X78181926Y-16522714D01*
X78181923Y-16522713D01*
X77964392Y-16483377D01*
X77964385Y-16483376D01*
X77960308Y-16482639D01*
X77942586Y-16481803D01*
X77937644Y-16481570D01*
X77937637Y-16481570D01*
X77936156Y-16481500D01*
X77524110Y-16481500D01*
X77457191Y-16487178D01*
X77357591Y-16495629D01*
X77357587Y-16495630D01*
X77352280Y-16496080D01*
X77347125Y-16497418D01*
X77347119Y-16497419D01*
X77134297Y-16552657D01*
X77134293Y-16552658D01*
X77129128Y-16553999D01*
X77124262Y-16556191D01*
X77124259Y-16556192D01*
X77015980Y-16604968D01*
X76918925Y-16648688D01*
X76727681Y-16777441D01*
X76723829Y-16781116D01*
X76723822Y-16781122D01*
X76667909Y-16834461D01*
X76560865Y-16936576D01*
X76557682Y-16940854D01*
X76528927Y-16979502D01*
X76423246Y-17121542D01*
X76420830Y-17126293D01*
X76420828Y-17126297D01*
X76392740Y-17181542D01*
X76318760Y-17327051D01*
X76317178Y-17332145D01*
X76317177Y-17332148D01*
X76260888Y-17513428D01*
X76250393Y-17547227D01*
X76249692Y-17552516D01*
X76225660Y-17733842D01*
X76220102Y-17775774D01*
X70299076Y-17775774D01*
X70295249Y-17673842D01*
X70293029Y-17663259D01*
X70256855Y-17490855D01*
X70247907Y-17448209D01*
X70233213Y-17411002D01*
X70165185Y-17238744D01*
X70165184Y-17238742D01*
X70163224Y-17233779D01*
X70146689Y-17206529D01*
X70054277Y-17054240D01*
X70043623Y-17036683D01*
X69985617Y-16969837D01*
X69896023Y-16866588D01*
X69896021Y-16866586D01*
X69892523Y-16862555D01*
X69808363Y-16793548D01*
X69718373Y-16719760D01*
X69718367Y-16719756D01*
X69714245Y-16716376D01*
X69709609Y-16713737D01*
X69709606Y-16713735D01*
X69518529Y-16604968D01*
X69513886Y-16602325D01*
X69297175Y-16523663D01*
X69291926Y-16522714D01*
X69291923Y-16522713D01*
X69074392Y-16483377D01*
X69074385Y-16483376D01*
X69070308Y-16482639D01*
X69052586Y-16481803D01*
X69047644Y-16481570D01*
X69047637Y-16481570D01*
X69046156Y-16481500D01*
X68634110Y-16481500D01*
X68567191Y-16487178D01*
X68467591Y-16495629D01*
X68467587Y-16495630D01*
X68462280Y-16496080D01*
X68457125Y-16497418D01*
X68457119Y-16497419D01*
X68244297Y-16552657D01*
X68244293Y-16552658D01*
X68239128Y-16553999D01*
X68234262Y-16556191D01*
X68234259Y-16556192D01*
X68125980Y-16604968D01*
X68028925Y-16648688D01*
X67837681Y-16777441D01*
X67833829Y-16781116D01*
X67833822Y-16781122D01*
X67777909Y-16834461D01*
X67670865Y-16936576D01*
X67667682Y-16940854D01*
X67638927Y-16979502D01*
X67533246Y-17121542D01*
X67530830Y-17126293D01*
X67530828Y-17126297D01*
X67502740Y-17181542D01*
X67428760Y-17327051D01*
X67427178Y-17332145D01*
X67427177Y-17332148D01*
X67370888Y-17513428D01*
X67360393Y-17547227D01*
X67359692Y-17552516D01*
X67335660Y-17733842D01*
X67330102Y-17775774D01*
X40208584Y-17775774D01*
X40209235Y-17651583D01*
X40209235Y-17651576D01*
X40209257Y-17647297D01*
X40198635Y-17566611D01*
X40183734Y-17453428D01*
X40171732Y-17362266D01*
X40160798Y-17322296D01*
X40120395Y-17174608D01*
X40095871Y-17084964D01*
X40035856Y-16944261D01*
X39984763Y-16824476D01*
X39984761Y-16824472D01*
X39983077Y-16820524D01*
X39860787Y-16616192D01*
X39837643Y-16577521D01*
X39837640Y-16577517D01*
X39835439Y-16573839D01*
X39655687Y-16349472D01*
X39447149Y-16151577D01*
X39213683Y-15983814D01*
X39191843Y-15972250D01*
X39168654Y-15959972D01*
X38959608Y-15849288D01*
X38689627Y-15750489D01*
X38408736Y-15689245D01*
X38377685Y-15686801D01*
X38185718Y-15671693D01*
X38185709Y-15671693D01*
X38183261Y-15671500D01*
X38027729Y-15671500D01*
X38025593Y-15671646D01*
X38025582Y-15671646D01*
X37817452Y-15685835D01*
X37817446Y-15685836D01*
X37813175Y-15686127D01*
X37808980Y-15686996D01*
X37808978Y-15686996D01*
X37672416Y-15715277D01*
X37531658Y-15744426D01*
X37260657Y-15840393D01*
X37005188Y-15972250D01*
X37001687Y-15974711D01*
X37001683Y-15974713D01*
X36991594Y-15981804D01*
X36769977Y-16137559D01*
X36559378Y-16333260D01*
X36377287Y-16555732D01*
X36227073Y-16800858D01*
X36225347Y-16804791D01*
X36225346Y-16804792D01*
X36131150Y-17019377D01*
X36111517Y-17064102D01*
X36110342Y-17068229D01*
X36110341Y-17068230D01*
X36095388Y-17120722D01*
X36032756Y-17340594D01*
X36013638Y-17474925D01*
X35999661Y-17573139D01*
X35992249Y-17625216D01*
X35992227Y-17629505D01*
X35992226Y-17629512D01*
X35990882Y-17886119D01*
X35990743Y-17912703D01*
X34798500Y-17912703D01*
X34798500Y-12827010D01*
X34818502Y-12758889D01*
X34872158Y-12712396D01*
X34924833Y-12701010D01*
X63335152Y-12776369D01*
G37*
%TD.AperFunction*%
%TA.AperFunction,Conductor*%
G36*
X115046412Y-68618479D02*
G01*
X115071332Y-68647867D01*
X115107824Y-68707416D01*
X115262031Y-68887969D01*
X115265787Y-68891177D01*
X115265792Y-68891182D01*
X115418616Y-69021706D01*
X115457426Y-69081156D01*
X115459640Y-69115558D01*
X115467877Y-69134667D01*
X116602115Y-70268905D01*
X116636141Y-70331217D01*
X116631076Y-70402032D01*
X116602115Y-70447095D01*
X115470920Y-71578290D01*
X115461740Y-71595102D01*
X115447980Y-71658350D01*
X115419224Y-71693775D01*
X115312370Y-71785037D01*
X115262031Y-71828031D01*
X115107824Y-72008584D01*
X115105242Y-72012798D01*
X115071333Y-72068132D01*
X115018685Y-72115763D01*
X114948644Y-72127370D01*
X114883446Y-72099267D01*
X114843792Y-72040377D01*
X114837900Y-72002297D01*
X114837900Y-71252744D01*
X114857902Y-71184623D01*
X114911558Y-71138130D01*
X114981832Y-71128026D01*
X115046412Y-71157520D01*
X115071332Y-71186909D01*
X115089432Y-71216445D01*
X115099890Y-71225907D01*
X115108666Y-71222124D01*
X115959978Y-70370812D01*
X115967592Y-70356868D01*
X115967461Y-70355035D01*
X115963210Y-70348420D01*
X115111710Y-69496920D01*
X115099330Y-69490160D01*
X115091680Y-69495887D01*
X115071332Y-69529091D01*
X115018684Y-69576723D01*
X114948643Y-69588329D01*
X114883445Y-69560225D01*
X114843792Y-69501335D01*
X114837900Y-69463256D01*
X114837900Y-68713703D01*
X114857902Y-68645582D01*
X114911558Y-68599089D01*
X114981832Y-68588985D01*
X115046412Y-68618479D01*
G37*
%TD.AperFunction*%
%TD*%
M02*
