%TF.GenerationSoftware,KiCad,Pcbnew,(6.0.5)*%
%TF.CreationDate,2022-12-20T21:12:00+01:00*%
%TF.ProjectId,sender_V1.00,73656e64-6572-45f5-9631-2e30302e6b69,rev?*%
%TF.SameCoordinates,Original*%
%TF.FileFunction,Copper,L1,Top*%
%TF.FilePolarity,Positive*%
%FSLAX46Y46*%
G04 Gerber Fmt 4.6, Leading zero omitted, Abs format (unit mm)*
G04 Created by KiCad (PCBNEW (6.0.5)) date 2022-12-20 21:12:00*
%MOMM*%
%LPD*%
G01*
G04 APERTURE LIST*
G04 Aperture macros list*
%AMRoundRect*
0 Rectangle with rounded corners*
0 $1 Rounding radius*
0 $2 $3 $4 $5 $6 $7 $8 $9 X,Y pos of 4 corners*
0 Add a 4 corners polygon primitive as box body*
4,1,4,$2,$3,$4,$5,$6,$7,$8,$9,$2,$3,0*
0 Add four circle primitives for the rounded corners*
1,1,$1+$1,$2,$3*
1,1,$1+$1,$4,$5*
1,1,$1+$1,$6,$7*
1,1,$1+$1,$8,$9*
0 Add four rect primitives between the rounded corners*
20,1,$1+$1,$2,$3,$4,$5,0*
20,1,$1+$1,$4,$5,$6,$7,0*
20,1,$1+$1,$6,$7,$8,$9,0*
20,1,$1+$1,$8,$9,$2,$3,0*%
G04 Aperture macros list end*
%TA.AperFunction,ComponentPad*%
%ADD10R,2.000000X1.800000*%
%TD*%
%TA.AperFunction,ComponentPad*%
%ADD11O,2.000000X1.800000*%
%TD*%
%TA.AperFunction,ComponentPad*%
%ADD12O,3.000000X3.000000*%
%TD*%
%TA.AperFunction,ComponentPad*%
%ADD13RoundRect,0.250000X-0.600000X-0.750000X0.600000X-0.750000X0.600000X0.750000X-0.600000X0.750000X0*%
%TD*%
%TA.AperFunction,ComponentPad*%
%ADD14O,1.700000X2.000000*%
%TD*%
%TA.AperFunction,ComponentPad*%
%ADD15RoundRect,0.250000X-0.725000X0.600000X-0.725000X-0.600000X0.725000X-0.600000X0.725000X0.600000X0*%
%TD*%
%TA.AperFunction,ComponentPad*%
%ADD16O,1.950000X1.700000*%
%TD*%
%TA.AperFunction,ComponentPad*%
%ADD17R,1.700000X1.700000*%
%TD*%
%TA.AperFunction,ComponentPad*%
%ADD18O,1.700000X1.700000*%
%TD*%
%TA.AperFunction,ComponentPad*%
%ADD19C,1.600000*%
%TD*%
%TA.AperFunction,ComponentPad*%
%ADD20O,1.600000X1.600000*%
%TD*%
%TA.AperFunction,ComponentPad*%
%ADD21R,2.540000X2.540000*%
%TD*%
%TA.AperFunction,ComponentPad*%
%ADD22RoundRect,0.250000X0.725000X-0.600000X0.725000X0.600000X-0.725000X0.600000X-0.725000X-0.600000X0*%
%TD*%
%TA.AperFunction,ComponentPad*%
%ADD23C,2.000000*%
%TD*%
%TA.AperFunction,ComponentPad*%
%ADD24RoundRect,0.249999X-0.790001X-1.550001X0.790001X-1.550001X0.790001X1.550001X-0.790001X1.550001X0*%
%TD*%
%TA.AperFunction,ComponentPad*%
%ADD25O,2.080000X3.600000*%
%TD*%
%TA.AperFunction,ComponentPad*%
%ADD26RoundRect,0.249999X0.790001X1.550001X-0.790001X1.550001X-0.790001X-1.550001X0.790001X-1.550001X0*%
%TD*%
%TA.AperFunction,ComponentPad*%
%ADD27R,2.000000X2.000000*%
%TD*%
%TA.AperFunction,ViaPad*%
%ADD28C,0.800000*%
%TD*%
%TA.AperFunction,Conductor*%
%ADD29C,0.254000*%
%TD*%
%TA.AperFunction,Conductor*%
%ADD30C,2.000000*%
%TD*%
%TA.AperFunction,Conductor*%
%ADD31C,2.250000*%
%TD*%
G04 APERTURE END LIST*
D10*
%TO.P,U1,1,IN+*%
%TO.N,unconnected-(U1-Pad1)*%
X81280000Y-50038000D03*
D11*
%TO.P,U1,2,IN-*%
%TO.N,unconnected-(U1-Pad2)*%
X81280000Y-47498000D03*
%TO.P,U1,3,VBS*%
%TO.N,Net-(DC-DC1-PadI+)*%
X81280000Y-44958000D03*
%TO.P,U1,4,ALE*%
%TO.N,unconnected-(U1-Pad4)*%
X81280000Y-42418000D03*
%TO.P,U1,5,SCL*%
%TO.N,SCL*%
X81280000Y-39878000D03*
%TO.P,U1,6,SDA*%
%TO.N,SDA*%
X81280000Y-37338000D03*
%TO.P,U1,7,GND*%
%TO.N,GND*%
X81280000Y-34798000D03*
%TO.P,U1,8,VCC*%
%TO.N,+3V3*%
X81280000Y-32258000D03*
D12*
%TO.P,U1,9,IN1+*%
%TO.N,Net-(DC-DC1-PadI+)*%
X65405000Y-43053000D03*
%TO.P,U1,10,IN1-*%
%TO.N,Net-(J2-Pad1)*%
X65405000Y-39243000D03*
%TD*%
D13*
%TO.P,J10,1,Pin_1*%
%TO.N,GND*%
X110744000Y-18288000D03*
D14*
%TO.P,J10,2,Pin_2*%
%TO.N,Door_Open*%
X113244000Y-18288000D03*
%TD*%
D15*
%TO.P,J9,1,Pin_1*%
%TO.N,GND*%
X125239000Y-56936000D03*
D16*
%TO.P,J9,2,Pin_2*%
%TO.N,Net-(J9-Pad2)*%
X125239000Y-59436000D03*
%TO.P,J9,3,Pin_3*%
%TO.N,Net-(J9-Pad3)*%
X125239000Y-61936000D03*
%TD*%
D17*
%TO.P,SW1,1,1*%
%TO.N,Net-(J1-Pad1)*%
X59177000Y-88646000D03*
D18*
%TO.P,SW1,2,2*%
%TO.N,Net-(DC-DC1-PadI+)*%
X61717000Y-88646000D03*
%TD*%
D19*
%TO.P,R1,1*%
%TO.N,Net-(J9-Pad2)*%
X126746000Y-51816000D03*
D20*
%TO.P,R1,2*%
%TO.N,RED*%
X126746000Y-41656000D03*
%TD*%
D21*
%TO.P,DC-DC1,I+,IN+*%
%TO.N,Net-(DC-DC1-PadI+)*%
X38285000Y-78510000D03*
%TO.P,DC-DC1,I-,IN-*%
%TO.N,GND*%
X59460000Y-78510000D03*
%TO.P,DC-DC1,O+,OUT+*%
%TO.N,Net-(DC-DC1-PadO+)*%
X38285000Y-27215000D03*
%TO.P,DC-DC1,O-,OUT-*%
%TO.N,GND*%
X59460000Y-27215000D03*
%TD*%
D22*
%TO.P,J12,1,Pin_1*%
%TO.N,SDA*%
X86868000Y-25400000D03*
D16*
%TO.P,J12,2,Pin_2*%
%TO.N,SCL*%
X86868000Y-22900000D03*
%TO.P,J12,3,Pin_3*%
%TO.N,GND*%
X86868000Y-20400000D03*
%TO.P,J12,4,Pin_4*%
%TO.N,+3V3*%
X86868000Y-17900000D03*
%TD*%
D10*
%TO.P,U3,1,IN+*%
%TO.N,unconnected-(U3-Pad1)*%
X65024000Y-56134000D03*
D11*
%TO.P,U3,2,IN-*%
%TO.N,unconnected-(U3-Pad2)*%
X65024000Y-58674000D03*
%TO.P,U3,3,VBS*%
%TO.N,Net-(DC-DC1-PadO+)*%
X65024000Y-61214000D03*
%TO.P,U3,4,ALE*%
%TO.N,unconnected-(U3-Pad4)*%
X65024000Y-63754000D03*
%TO.P,U3,5,SCL*%
%TO.N,SCL*%
X65024000Y-66294000D03*
%TO.P,U3,6,SDA*%
%TO.N,SDA*%
X65024000Y-68834000D03*
%TO.P,U3,7,GND*%
%TO.N,GND*%
X65024000Y-71374000D03*
%TO.P,U3,8,VCC*%
%TO.N,+3V3*%
X65024000Y-73914000D03*
D12*
%TO.P,U3,9,IN1+*%
%TO.N,Net-(DC-DC1-PadO+)*%
X80899000Y-63119000D03*
%TO.P,U3,10,IN1-*%
%TO.N,Net-(J3-Pad1)*%
X80899000Y-66929000D03*
%TD*%
D23*
%TO.P,U2,1,EN*%
%TO.N,unconnected-(U2-Pad1)*%
X90932000Y-37338000D03*
%TO.P,U2,2,VP*%
%TO.N,unconnected-(U2-Pad2)*%
X90932000Y-39878000D03*
%TO.P,U2,3,VN*%
%TO.N,unconnected-(U2-Pad3)*%
X90932000Y-42418000D03*
%TO.P,U2,4,GPIO34_ADC1-CH6_RTC-GPIO4*%
%TO.N,Door_Open*%
X90932000Y-44958000D03*
%TO.P,U2,5,GPIO35_ADC1-CH7_RTC-GPIO5*%
%TO.N,Door_Closed*%
X90932000Y-47498000D03*
%TO.P,U2,6,GPIO32_ADC1-CH4_RTC-GPIO9*%
%TO.N,D0*%
X90932000Y-50038000D03*
%TO.P,U2,7,GPIO33_ADC1-CH5_RTC-GPIO8*%
%TO.N,unconnected-(U2-Pad7)*%
X90932000Y-52578000D03*
%TO.P,U2,8,GPIO25_ADC2-CH8_DAC1_RTC-GPIO6*%
%TO.N,Green*%
X90932000Y-55118000D03*
%TO.P,U2,9,GPIO26_ADC2-CH9_DAC2_RTC-GPIO7*%
%TO.N,RED*%
X90932000Y-57658000D03*
%TO.P,U2,10,GPIO27_ADC2-CH7_RTC-GPIO17*%
%TO.N,unconnected-(U2-Pad10)*%
X90932000Y-60198000D03*
%TO.P,U2,11,GPIO14_ADC2-CH6_HSPI-CLK_RTC-GPIO16*%
%TO.N,Input_3*%
X90932000Y-62738000D03*
%TO.P,U2,12,GPIO12_ADC2-CH5_HSPI-MISO_RTC-GPIO15*%
%TO.N,Input_1*%
X90932000Y-65278000D03*
%TO.P,U2,13,GPIO13_ADC2-CH4_HSPI-MOSI_RTC-GPIO14*%
%TO.N,Input_2*%
X90932000Y-67818000D03*
%TO.P,U2,14,GND*%
%TO.N,GND*%
X90932000Y-70358000D03*
%TO.P,U2,15,VIN*%
%TO.N,Net-(U2-Pad15)*%
X90932000Y-72898000D03*
%TO.P,U2,16,3V3*%
%TO.N,+3V3*%
X116332000Y-72898000D03*
%TO.P,U2,17,GND*%
%TO.N,GND*%
X116332000Y-70358000D03*
%TO.P,U2,18,GPIO15_ADC2-CH3_HSPI-CS0_RTC-GPIO13*%
%TO.N,unconnected-(U2-Pad18)*%
X116332000Y-67818000D03*
%TO.P,U2,19,GPIO2_ADC2-CH2_RTC-GPIO12*%
%TO.N,unconnected-(U2-Pad19)*%
X116332000Y-65278000D03*
%TO.P,U2,20,GPIO4_ADC2-CH0_RTC-GPIO10*%
%TO.N,unconnected-(U2-Pad20)*%
X116332000Y-62738000D03*
%TO.P,U2,21,RX2*%
%TO.N,unconnected-(U2-Pad21)*%
X116332000Y-60198000D03*
%TO.P,U2,22,TX2*%
%TO.N,unconnected-(U2-Pad22)*%
X116332000Y-57658000D03*
%TO.P,U2,23,GPIO5_VSPI-CS0*%
%TO.N,unconnected-(U2-Pad23)*%
X116332000Y-55118000D03*
%TO.P,U2,24,GPIO18_VSPI-CLK*%
%TO.N,Input_4*%
X116332000Y-52578000D03*
%TO.P,U2,25,GPIO19_VSPI-MISO*%
%TO.N,Enable_B*%
X116332000Y-50038000D03*
%TO.P,U2,26,GPIO21_I2C-SDA*%
%TO.N,SDA*%
X116332000Y-47498000D03*
%TO.P,U2,27,GPIO3__UART0-RX*%
%TO.N,unconnected-(U2-Pad27)*%
X116332000Y-44958000D03*
%TO.P,U2,28,GPIO1_UART0-TX*%
%TO.N,unconnected-(U2-Pad28)*%
X116332000Y-42418000D03*
%TO.P,U2,29,GPIO22_I2C-SCL*%
%TO.N,SCL*%
X116332000Y-39878000D03*
%TO.P,U2,30,GPIO23_VSPI-MOSI*%
%TO.N,Enable_A*%
X116332000Y-37338000D03*
%TD*%
D15*
%TO.P,J5,1,Pin_1*%
%TO.N,Enable_B*%
X115587000Y-84368000D03*
D16*
%TO.P,J5,2,Pin_2*%
%TO.N,Input_4*%
X115587000Y-86868000D03*
%TO.P,J5,3,Pin_3*%
%TO.N,Input_3*%
X115587000Y-89368000D03*
%TD*%
D15*
%TO.P,J6,1,Pin_1*%
%TO.N,Enable_A*%
X97807000Y-84368000D03*
D16*
%TO.P,J6,2,Pin_2*%
%TO.N,Input_1*%
X97807000Y-86868000D03*
%TO.P,J6,3,Pin_3*%
%TO.N,Input_2*%
X97807000Y-89368000D03*
%TD*%
D22*
%TO.P,J7,1,Pin_1*%
%TO.N,SDA*%
X77707000Y-25340000D03*
D16*
%TO.P,J7,2,Pin_2*%
%TO.N,SCL*%
X77707000Y-22840000D03*
%TO.P,J7,3,Pin_3*%
%TO.N,GND*%
X77707000Y-20340000D03*
%TO.P,J7,4,Pin_4*%
%TO.N,+3V3*%
X77707000Y-17840000D03*
%TD*%
D22*
%TO.P,J4,1,Pin_1*%
%TO.N,SDA*%
X68817000Y-25340000D03*
D16*
%TO.P,J4,2,Pin_2*%
%TO.N,SCL*%
X68817000Y-22840000D03*
%TO.P,J4,3,Pin_3*%
%TO.N,GND*%
X68817000Y-20340000D03*
%TO.P,J4,4,Pin_4*%
%TO.N,+3V3*%
X68817000Y-17840000D03*
%TD*%
D24*
%TO.P,J2,1,Pin_1*%
%TO.N,Net-(J2-Pad1)*%
X47752000Y-20828000D03*
D25*
%TO.P,J2,2,Pin_2*%
%TO.N,GND*%
X52832000Y-20828000D03*
%TD*%
D26*
%TO.P,J1,1,Pin_1*%
%TO.N,Net-(J1-Pad1)*%
X51816000Y-85129500D03*
D25*
%TO.P,J1,2,Pin_2*%
%TO.N,GND*%
X46736000Y-85129500D03*
%TD*%
D26*
%TO.P,J3,1,Pin_1*%
%TO.N,Net-(J3-Pad1)*%
X75184000Y-85129500D03*
D25*
%TO.P,J3,2,Pin_2*%
%TO.N,GND*%
X70104000Y-85129500D03*
%TD*%
D19*
%TO.P,R2,1*%
%TO.N,Net-(J9-Pad3)*%
X122174000Y-51816000D03*
D20*
%TO.P,R2,2*%
%TO.N,Green*%
X122174000Y-41656000D03*
%TD*%
D15*
%TO.P,J8,1,Pin_1*%
%TO.N,+3V3*%
X100601000Y-18328000D03*
D16*
%TO.P,J8,2,Pin_2*%
%TO.N,GND*%
X100601000Y-20828000D03*
%TO.P,J8,3,Pin_3*%
%TO.N,D0*%
X100601000Y-23328000D03*
%TD*%
D27*
%TO.P,U4,1,IN*%
%TO.N,Net-(DC-DC1-PadO+)*%
X86106000Y-88392000D03*
D23*
%TO.P,U4,2,GND*%
%TO.N,GND*%
X86106000Y-85852000D03*
%TO.P,U4,3,OUT*%
%TO.N,Net-(U2-Pad15)*%
X86106000Y-83312000D03*
%TD*%
D13*
%TO.P,J11,1,Pin_1*%
%TO.N,GND*%
X120924000Y-18271000D03*
D14*
%TO.P,J11,2,Pin_2*%
%TO.N,Door_Closed*%
X123424000Y-18271000D03*
%TD*%
D28*
%TO.N,Enable_A*%
X103397000Y-74581700D03*
%TD*%
D29*
%TO.N,GND*%
X121042400Y-65647600D02*
X116332000Y-70358000D01*
%TO.N,SDA*%
X81280000Y-37338000D02*
X83179800Y-35438200D01*
X116394100Y-35438200D02*
X117749300Y-36793400D01*
X79893600Y-25370000D02*
X79893600Y-35951600D01*
X117749300Y-46080700D02*
X116332000Y-47498000D01*
X83179800Y-35438200D02*
X116394100Y-35438200D01*
X68817000Y-25340000D02*
X77707000Y-25340000D01*
X86838000Y-25370000D02*
X79893600Y-25370000D01*
X77737000Y-25370000D02*
X77707000Y-25340000D01*
X117749300Y-36793400D02*
X117749300Y-46080700D01*
X79893600Y-35951600D02*
X81280000Y-37338000D01*
X79893600Y-25370000D02*
X77737000Y-25370000D01*
%TO.N,SCL*%
X116332000Y-39878000D02*
X112406400Y-35952400D01*
X77707000Y-22840000D02*
X79063300Y-22840000D01*
X112406400Y-35952400D02*
X85205600Y-35952400D01*
X68817000Y-22840000D02*
X77707000Y-22840000D01*
X86838000Y-22870000D02*
X79093300Y-22870000D01*
X79093300Y-22870000D02*
X79063300Y-22840000D01*
X85205600Y-35952400D02*
X81280000Y-39878000D01*
%TO.N,GND*%
X125239000Y-56936000D02*
X121042400Y-61132600D01*
X121042400Y-61132600D02*
X121042400Y-65647600D01*
D30*
%TO.N,+3V3*%
X68817000Y-17840000D02*
X77707000Y-17840000D01*
D29*
X65024000Y-75195300D02*
X72412000Y-82583300D01*
D30*
X86868000Y-17900000D02*
X91828000Y-17900000D01*
D29*
X72412000Y-85621700D02*
X76572000Y-89781700D01*
D30*
X91828000Y-28314000D02*
X87884000Y-32258000D01*
X91828000Y-17900000D02*
X100173000Y-17900000D01*
D29*
X96977800Y-88118000D02*
X101112000Y-88118000D01*
X65024000Y-73914000D02*
X65024000Y-75195300D01*
X76572000Y-89781700D02*
X95314100Y-89781700D01*
D30*
X91828000Y-17900000D02*
X91828000Y-28314000D01*
D29*
X72412000Y-82583300D02*
X72412000Y-85621700D01*
X101112000Y-88118000D02*
X116332000Y-72898000D01*
D30*
X100173000Y-17900000D02*
X100601000Y-18328000D01*
X87884000Y-32258000D02*
X81280000Y-32258000D01*
X77707000Y-17840000D02*
X86808000Y-17840000D01*
X86808000Y-17840000D02*
X86868000Y-17900000D01*
D29*
X95314100Y-89781700D02*
X96977800Y-88118000D01*
%TO.N,Enable_A*%
X103397000Y-78778000D02*
X103397000Y-74581700D01*
X97807000Y-84368000D02*
X103397000Y-78778000D01*
D31*
%TO.N,Net-(J1-Pad1)*%
X55332500Y-88646000D02*
X51816000Y-85129500D01*
X59177000Y-88646000D02*
X55332500Y-88646000D01*
%TO.N,Net-(DC-DC1-PadI+)*%
X53498000Y-54960000D02*
X53498000Y-78510000D01*
D30*
X67310000Y-44958000D02*
X65405000Y-43053000D01*
D31*
X53498000Y-78510000D02*
X38285000Y-78510000D01*
X61717000Y-86729000D02*
X53498000Y-78510000D01*
X61717000Y-88646000D02*
X61717000Y-86729000D01*
X64928800Y-43529200D02*
X53498000Y-54960000D01*
D30*
X81280000Y-44958000D02*
X67310000Y-44958000D01*
D31*
X65405000Y-43053000D02*
X64928800Y-43529200D01*
D30*
%TO.N,Net-(DC-DC1-PadO+)*%
X83652500Y-64348500D02*
X82423000Y-63119000D01*
X80899000Y-63119000D02*
X78994000Y-61214000D01*
X82423000Y-63119000D02*
X80899000Y-63119000D01*
X86106000Y-88392000D02*
X84199000Y-88392000D01*
X78994000Y-61214000D02*
X65024000Y-61214000D01*
X84199000Y-88392000D02*
X83652500Y-87845500D01*
X83652500Y-87845500D02*
X83652500Y-64348500D01*
D31*
%TO.N,Net-(J2-Pad1)*%
X65405000Y-39243000D02*
X50673000Y-39243000D01*
X50673000Y-39243000D02*
X47752000Y-36322000D01*
X47752000Y-36322000D02*
X47752000Y-20828000D01*
%TO.N,Net-(J3-Pad1)*%
X75184000Y-72644000D02*
X80899000Y-66929000D01*
X75184000Y-85129500D02*
X75184000Y-72644000D01*
D30*
%TO.N,Net-(U2-Pad15)*%
X86106000Y-77724000D02*
X90932000Y-72898000D01*
X86106000Y-83312000D02*
X86106000Y-77724000D01*
%TD*%
M02*
