%TF.GenerationSoftware,KiCad,Pcbnew,(6.0.5)*%
%TF.CreationDate,2022-06-17T21:53:16+02:00*%
%TF.ProjectId,Teensy_MainPCB,5465656e-7379-45f4-9d61-696e5043422e,rev?*%
%TF.SameCoordinates,Original*%
%TF.FileFunction,Copper,L1,Top*%
%TF.FilePolarity,Positive*%
%FSLAX46Y46*%
G04 Gerber Fmt 4.6, Leading zero omitted, Abs format (unit mm)*
G04 Created by KiCad (PCBNEW (6.0.5)) date 2022-06-17 21:53:16*
%MOMM*%
%LPD*%
G01*
G04 APERTURE LIST*
G04 Aperture macros list*
%AMRoundRect*
0 Rectangle with rounded corners*
0 $1 Rounding radius*
0 $2 $3 $4 $5 $6 $7 $8 $9 X,Y pos of 4 corners*
0 Add a 4 corners polygon primitive as box body*
4,1,4,$2,$3,$4,$5,$6,$7,$8,$9,$2,$3,0*
0 Add four circle primitives for the rounded corners*
1,1,$1+$1,$2,$3*
1,1,$1+$1,$4,$5*
1,1,$1+$1,$6,$7*
1,1,$1+$1,$8,$9*
0 Add four rect primitives between the rounded corners*
20,1,$1+$1,$2,$3,$4,$5,0*
20,1,$1+$1,$4,$5,$6,$7,0*
20,1,$1+$1,$6,$7,$8,$9,0*
20,1,$1+$1,$8,$9,$2,$3,0*%
G04 Aperture macros list end*
%TA.AperFunction,ComponentPad*%
%ADD10RoundRect,0.250000X-0.725000X0.600000X-0.725000X-0.600000X0.725000X-0.600000X0.725000X0.600000X0*%
%TD*%
%TA.AperFunction,ComponentPad*%
%ADD11O,1.950000X1.700000*%
%TD*%
%TA.AperFunction,ComponentPad*%
%ADD12RoundRect,0.250000X0.600000X0.725000X-0.600000X0.725000X-0.600000X-0.725000X0.600000X-0.725000X0*%
%TD*%
%TA.AperFunction,ComponentPad*%
%ADD13O,1.700000X1.950000*%
%TD*%
%TA.AperFunction,ComponentPad*%
%ADD14RoundRect,0.250000X0.725000X-0.600000X0.725000X0.600000X-0.725000X0.600000X-0.725000X-0.600000X0*%
%TD*%
%TA.AperFunction,ComponentPad*%
%ADD15C,1.600000*%
%TD*%
%TA.AperFunction,ComponentPad*%
%ADD16O,1.600000X1.600000*%
%TD*%
%TA.AperFunction,ComponentPad*%
%ADD17C,2.000000*%
%TD*%
%TA.AperFunction,ComponentPad*%
%ADD18RoundRect,0.250000X-0.600000X-0.725000X0.600000X-0.725000X0.600000X0.725000X-0.600000X0.725000X0*%
%TD*%
%TA.AperFunction,ConnectorPad*%
%ADD19C,6.400000*%
%TD*%
%TA.AperFunction,ComponentPad*%
%ADD20C,3.600000*%
%TD*%
%TA.AperFunction,CastellatedPad*%
%ADD21R,3.000000X3.000000*%
%TD*%
%TA.AperFunction,ComponentPad*%
%ADD22C,3.000000*%
%TD*%
%TA.AperFunction,ComponentPad*%
%ADD23O,2.268000X1.524000*%
%TD*%
%TA.AperFunction,ComponentPad*%
%ADD24RoundRect,0.250000X0.750000X-0.600000X0.750000X0.600000X-0.750000X0.600000X-0.750000X-0.600000X0*%
%TD*%
%TA.AperFunction,ComponentPad*%
%ADD25O,2.000000X1.700000*%
%TD*%
%TA.AperFunction,ComponentPad*%
%ADD26R,3.000000X3.000000*%
%TD*%
%TA.AperFunction,ComponentPad*%
%ADD27R,1.600000X1.600000*%
%TD*%
%TA.AperFunction,ComponentPad*%
%ADD28R,1.300000X1.300000*%
%TD*%
%TA.AperFunction,ComponentPad*%
%ADD29C,1.300000*%
%TD*%
%TA.AperFunction,ComponentPad*%
%ADD30O,2.200000X2.200000*%
%TD*%
%TA.AperFunction,ComponentPad*%
%ADD31R,2.200000X2.200000*%
%TD*%
%TA.AperFunction,ComponentPad*%
%ADD32R,1.700000X1.700000*%
%TD*%
%TA.AperFunction,ComponentPad*%
%ADD33O,1.700000X1.700000*%
%TD*%
%TA.AperFunction,ViaPad*%
%ADD34C,0.889000*%
%TD*%
%TA.AperFunction,Conductor*%
%ADD35C,0.508000*%
%TD*%
%TA.AperFunction,Conductor*%
%ADD36C,0.254000*%
%TD*%
G04 APERTURE END LIST*
D10*
X102515000Y-39790000D03*
D11*
X102515000Y-42290000D03*
X102515000Y-44790000D03*
X102515000Y-47290000D03*
D10*
X138160000Y-39660000D03*
D11*
X138160000Y-42160000D03*
X138160000Y-44660000D03*
X138160000Y-47160000D03*
D10*
X129825000Y-39620000D03*
D11*
X129825000Y-42120000D03*
X129825000Y-44620000D03*
X129825000Y-47120000D03*
D12*
X114089800Y-60828700D03*
D13*
X111589800Y-60828700D03*
X109089800Y-60828700D03*
D12*
X125950000Y-60850000D03*
D13*
X123450000Y-60850000D03*
X120950000Y-60850000D03*
D10*
X63450000Y-39780000D03*
D11*
X63450000Y-42280000D03*
X63450000Y-44780000D03*
X63450000Y-47280000D03*
D10*
X81820000Y-39750000D03*
D11*
X81820000Y-42250000D03*
X81820000Y-44750000D03*
X81820000Y-47250000D03*
D14*
X43535000Y-103300000D03*
D11*
X43535000Y-100800000D03*
X43535000Y-98300000D03*
X43535000Y-95800000D03*
X43535000Y-93300000D03*
X43535000Y-90800000D03*
D15*
X142850000Y-72515000D03*
D16*
X142850000Y-69975000D03*
D15*
X158380000Y-72560000D03*
D16*
X158380000Y-70020000D03*
D15*
X108950000Y-71395000D03*
D16*
X108950000Y-68855000D03*
D15*
X120910000Y-71405000D03*
D16*
X120910000Y-68865000D03*
D17*
X166340000Y-44159840D03*
X166340000Y-36560160D03*
D18*
X53950000Y-128075000D03*
D13*
X56450000Y-128075000D03*
X58950000Y-128075000D03*
X61450000Y-128075000D03*
X63950000Y-128075000D03*
D18*
X137945000Y-126270000D03*
D13*
X140445000Y-126270000D03*
X142945000Y-126270000D03*
X145445000Y-126270000D03*
D15*
X153960000Y-70500000D03*
D16*
X153960000Y-73040000D03*
D15*
X126320000Y-71435000D03*
D16*
X126320000Y-68895000D03*
D19*
X43010000Y-37940000D03*
D20*
X43010000Y-37940000D03*
D19*
X176000000Y-38000000D03*
D20*
X176000000Y-38000000D03*
X176000000Y-130000000D03*
D19*
X176000000Y-130000000D03*
X43000000Y-130000000D03*
D20*
X43000000Y-130000000D03*
D10*
X174075000Y-56900000D03*
D11*
X174075000Y-59400000D03*
X174075000Y-61900000D03*
X174075000Y-64400000D03*
X174075000Y-66900000D03*
X174075000Y-69400000D03*
D17*
X85200000Y-87080000D03*
X85200000Y-89620000D03*
X85200000Y-92160000D03*
X85200000Y-94700000D03*
X85200000Y-97240000D03*
X85200000Y-99780000D03*
X85200000Y-102320000D03*
X85200000Y-104860000D03*
X85200000Y-107400000D03*
X85200000Y-109940000D03*
X85200000Y-112480000D03*
X85200000Y-115020000D03*
X85200000Y-117560000D03*
X85200000Y-120100000D03*
X85200000Y-122640000D03*
X110600000Y-122640000D03*
X110600000Y-120100000D03*
X110600000Y-117560000D03*
X110600000Y-115020000D03*
X110600000Y-112480000D03*
X110600000Y-109940000D03*
X110600000Y-107400000D03*
X110600000Y-104860000D03*
X110600000Y-102320000D03*
X110600000Y-99780000D03*
X110600000Y-97240000D03*
X110600000Y-94700000D03*
X110600000Y-92160000D03*
X110600000Y-89620000D03*
X110600000Y-87080000D03*
D21*
X44550000Y-45440000D03*
D22*
X44550000Y-50520000D03*
D12*
X142830000Y-60855000D03*
D13*
X140330000Y-60855000D03*
X137830000Y-60855000D03*
X135330000Y-60855000D03*
D12*
X158370000Y-60850000D03*
D13*
X155870000Y-60850000D03*
X153370000Y-60850000D03*
X150870000Y-60850000D03*
D10*
X114855000Y-39800000D03*
D11*
X114855000Y-42300000D03*
X114855000Y-44800000D03*
X114855000Y-47300000D03*
D15*
X57665000Y-45980000D03*
D16*
X55125000Y-45980000D03*
D15*
X75795000Y-47030000D03*
D16*
X73255000Y-47030000D03*
X51130000Y-50600000D03*
D15*
X51130000Y-53140000D03*
X75865000Y-39270000D03*
D16*
X73325000Y-39270000D03*
D15*
X138640000Y-70420000D03*
D16*
X138640000Y-72960000D03*
D15*
X114350000Y-71445000D03*
D16*
X114350000Y-68905000D03*
D23*
X53235900Y-75062100D03*
X53235900Y-72522100D03*
X53235900Y-69982100D03*
X53235900Y-67442100D03*
X53235900Y-64902100D03*
X53235900Y-62362100D03*
X53235900Y-59822100D03*
X53235900Y-57282100D03*
D10*
X151575000Y-39630000D03*
D11*
X151575000Y-42130000D03*
X151575000Y-44630000D03*
D24*
X43510000Y-83190000D03*
D25*
X43510000Y-80690000D03*
D26*
X118807600Y-87490000D03*
D22*
X139297600Y-87490000D03*
D18*
X150670000Y-93285000D03*
D13*
X153170000Y-93285000D03*
X155670000Y-93285000D03*
D18*
X119845000Y-126265000D03*
D13*
X122345000Y-126265000D03*
X124845000Y-126265000D03*
X127345000Y-126265000D03*
X129845000Y-126265000D03*
D18*
X152455000Y-112615000D03*
D13*
X154955000Y-112615000D03*
X157455000Y-112615000D03*
D24*
X43565000Y-112880000D03*
D25*
X43565000Y-110380000D03*
D18*
X153035000Y-126325000D03*
D13*
X155535000Y-126325000D03*
X158035000Y-126325000D03*
D18*
X135915000Y-106525000D03*
D13*
X138415000Y-106525000D03*
X140915000Y-106525000D03*
X143415000Y-106525000D03*
D10*
X97430000Y-59910000D03*
D11*
X97430000Y-62410000D03*
X97430000Y-64910000D03*
X97430000Y-67410000D03*
X97430000Y-69910000D03*
D10*
X173820000Y-100120000D03*
D11*
X173820000Y-102620000D03*
X173820000Y-105120000D03*
X173820000Y-107620000D03*
X173820000Y-110120000D03*
X173820000Y-112620000D03*
D15*
X158695000Y-106625000D03*
D16*
X156155000Y-106625000D03*
D15*
X149485000Y-121540000D03*
D16*
X146945000Y-121540000D03*
D10*
X173920000Y-78270000D03*
D11*
X173920000Y-80770000D03*
X173920000Y-83270000D03*
X173920000Y-85770000D03*
X173920000Y-88270000D03*
X173920000Y-90770000D03*
D18*
X119735000Y-106565000D03*
D13*
X122235000Y-106565000D03*
X124735000Y-106565000D03*
X127235000Y-106565000D03*
D15*
X152775000Y-106655000D03*
D16*
X150235000Y-106655000D03*
D15*
X155470000Y-121600000D03*
D16*
X158010000Y-121600000D03*
D15*
X143650000Y-120210000D03*
D16*
X141110000Y-120210000D03*
D15*
X137910000Y-120270000D03*
D16*
X135370000Y-120270000D03*
D27*
X76570000Y-116945000D03*
D15*
X76570000Y-114405000D03*
X76570000Y-111865000D03*
X76570000Y-109325000D03*
X76570000Y-106785000D03*
X76570000Y-104245000D03*
X76570000Y-101705000D03*
X76570000Y-99165000D03*
X76570000Y-96625000D03*
X76570000Y-94085000D03*
X76570000Y-91545000D03*
X76570000Y-89005000D03*
X76570000Y-86465000D03*
X76570000Y-83925000D03*
X76570000Y-81385000D03*
X76570000Y-78845000D03*
X76570000Y-76305000D03*
X76570000Y-73765000D03*
X76570000Y-71225000D03*
X76570000Y-68685000D03*
X76570000Y-66145000D03*
X76570000Y-63605000D03*
X76570000Y-61065000D03*
X76570000Y-58525000D03*
X61330000Y-58525000D03*
X61330000Y-61065000D03*
X61330000Y-63605000D03*
X61330000Y-66145000D03*
X61330000Y-68685000D03*
X61330000Y-71225000D03*
X61330000Y-73765000D03*
X61330000Y-76305000D03*
X61330000Y-78845000D03*
X61330000Y-81385000D03*
X61330000Y-83925000D03*
X61330000Y-86465000D03*
X61330000Y-89005000D03*
X61330000Y-91545000D03*
X61330000Y-94085000D03*
X61330000Y-96625000D03*
X61330000Y-99165000D03*
X61330000Y-101705000D03*
X61330000Y-104245000D03*
X61330000Y-106785000D03*
X61330000Y-109325000D03*
X61330000Y-111865000D03*
X61330000Y-114405000D03*
X61330000Y-116945000D03*
X63870000Y-114405000D03*
X74030000Y-71225000D03*
X71490000Y-71225000D03*
X68950000Y-71225000D03*
X66410000Y-71225000D03*
X63870000Y-71225000D03*
D27*
X73519200Y-110645800D03*
D15*
X73519200Y-108105800D03*
X73519200Y-105565800D03*
X73519200Y-103025800D03*
X73519200Y-100485800D03*
D28*
X63768400Y-103975000D03*
D29*
X65768400Y-103975000D03*
X67768400Y-103975000D03*
X67768400Y-101975000D03*
X65768400Y-101975000D03*
X63768400Y-101975000D03*
X67680000Y-116215000D03*
X70220000Y-116215000D03*
D30*
X51130000Y-36950000D03*
D31*
X51130000Y-47110000D03*
D10*
X94180000Y-39780000D03*
D11*
X94180000Y-42280000D03*
X94180000Y-44780000D03*
X94180000Y-47280000D03*
D15*
X55455000Y-38780000D03*
D16*
X57995000Y-38780000D03*
D32*
X171020000Y-121700000D03*
D33*
X173560000Y-121700000D03*
X176100000Y-121700000D03*
D32*
X171567000Y-48952500D03*
D33*
X174107000Y-48952500D03*
X176647000Y-48952500D03*
D10*
X85095000Y-59930000D03*
D11*
X85095000Y-62430000D03*
X85095000Y-64930000D03*
X85095000Y-67430000D03*
X85095000Y-69930000D03*
D18*
X119695000Y-117070000D03*
D13*
X122195000Y-117070000D03*
X124695000Y-117070000D03*
X127195000Y-117070000D03*
X129695000Y-117070000D03*
D24*
X43470000Y-122440000D03*
D25*
X43470000Y-119940000D03*
D27*
X53470000Y-119200000D03*
D15*
X53470000Y-115400000D03*
D34*
X53310666Y-121089334D03*
X51985310Y-122456642D03*
X80251500Y-58525000D03*
X144083600Y-78276900D03*
X101931300Y-72495000D03*
X90160700Y-123909900D03*
X88489000Y-124357200D03*
X148784300Y-110807500D03*
X99684900Y-61526200D03*
X48792100Y-70993700D03*
D35*
X51130000Y-50600000D02*
X53390000Y-50600000D01*
X53950000Y-127580000D02*
X52120000Y-125750000D01*
X53950000Y-128075000D02*
X53950000Y-127580000D01*
X52120000Y-126123213D02*
X52120000Y-125750000D01*
X52120000Y-125750000D02*
X52120000Y-122321952D01*
X53470000Y-120930000D02*
X53310666Y-121089334D01*
X53470000Y-120500000D02*
X53470000Y-120930000D01*
X53470000Y-119200000D02*
X53470000Y-120500000D01*
X52120000Y-122321952D02*
X51985310Y-122456642D01*
X44535702Y-133707511D02*
X52120000Y-126123213D01*
X41464298Y-133707511D02*
X44535702Y-133707511D01*
X39292489Y-131535702D02*
X41464298Y-133707511D01*
X39292489Y-74127511D02*
X39292489Y-131535702D01*
X54133752Y-61091620D02*
X52328380Y-61091620D01*
X52328380Y-61091620D02*
X39292489Y-74127511D01*
X54877420Y-60347952D02*
X54133752Y-61091620D01*
X54877420Y-59296248D02*
X54877420Y-60347952D01*
X54133752Y-58552580D02*
X54877420Y-59296248D01*
X52338048Y-58552580D02*
X54133752Y-58552580D01*
X51303632Y-57518164D02*
X52338048Y-58552580D01*
X51303632Y-57046996D02*
X51303632Y-57518164D01*
X53390000Y-54960628D02*
X51303632Y-57046996D01*
X53390000Y-50600000D02*
X53390000Y-54960628D01*
X119845000Y-126265000D02*
X113680000Y-120100000D01*
X121332800Y-124777200D02*
X119845000Y-126265000D01*
X137945000Y-126270000D02*
X136452200Y-124777200D01*
X166340000Y-44159800D02*
X153604800Y-44159800D01*
X153960000Y-70500000D02*
X155870000Y-68590000D01*
X155870000Y-68590000D02*
X155870000Y-60850000D01*
X153604800Y-44159800D02*
X151575000Y-42130000D01*
D36*
X174075000Y-69400000D02*
X174075000Y-70631300D01*
X72703600Y-95298600D02*
X61330000Y-83925000D01*
X77086000Y-95298600D02*
X72703600Y-95298600D01*
X80708300Y-91676300D02*
X77086000Y-95298600D01*
X80708300Y-85978700D02*
X80708300Y-91676300D01*
X84616600Y-82070400D02*
X80708300Y-85978700D01*
X162635900Y-82070400D02*
X84616600Y-82070400D01*
X174075000Y-70631300D02*
X162635900Y-82070400D01*
X174555200Y-89538700D02*
X173920000Y-89538700D01*
X175476200Y-88617700D02*
X174555200Y-89538700D01*
X175476200Y-61398600D02*
X175476200Y-88617700D01*
X174727600Y-60650000D02*
X175476200Y-61398600D01*
X171677800Y-60650000D02*
X174727600Y-60650000D01*
X169748200Y-58720400D02*
X171677800Y-60650000D01*
X137353900Y-58720400D02*
X169748200Y-58720400D01*
X136575700Y-59498600D02*
X137353900Y-58720400D01*
X132744900Y-59498600D02*
X136575700Y-59498600D01*
X122068500Y-70175000D02*
X132744900Y-59498600D01*
X108315800Y-70175000D02*
X122068500Y-70175000D01*
X107282100Y-71208700D02*
X108315800Y-70175000D01*
X83223900Y-71208700D02*
X107282100Y-71208700D01*
X82031200Y-70016000D02*
X83223900Y-71208700D01*
X68399700Y-70016000D02*
X82031200Y-70016000D01*
X67680000Y-70735700D02*
X68399700Y-70016000D01*
X67680000Y-71625700D02*
X67680000Y-70735700D01*
X63000700Y-76305000D02*
X67680000Y-71625700D01*
X61330000Y-76305000D02*
X63000700Y-76305000D01*
X173920000Y-90770000D02*
X173920000Y-89538700D01*
X76570000Y-58525000D02*
X80251500Y-58525000D01*
X175236600Y-101536600D02*
X173820000Y-100120000D01*
X175236600Y-118792100D02*
X175236600Y-101536600D01*
X173560000Y-120468700D02*
X175236600Y-118792100D01*
X173560000Y-121700000D02*
X173560000Y-120468700D01*
X158010000Y-121600000D02*
X156828700Y-121600000D01*
X156828700Y-121230800D02*
X156828700Y-121600000D01*
X144657400Y-109059500D02*
X156828700Y-121230800D01*
X134659700Y-109059500D02*
X144657400Y-109059500D01*
X111272600Y-85672400D02*
X134659700Y-109059500D01*
X96767600Y-85672400D02*
X111272600Y-85672400D01*
X85200000Y-97240000D02*
X96767600Y-85672400D01*
X94742700Y-85157300D02*
X85200000Y-94700000D01*
X127556000Y-85157300D02*
X94742700Y-85157300D01*
X149053700Y-106655000D02*
X127556000Y-85157300D01*
X150235000Y-106655000D02*
X149053700Y-106655000D01*
X142945000Y-126270000D02*
X141713700Y-126270000D01*
X134188700Y-119694000D02*
X134188700Y-120270000D01*
X126974700Y-112480000D02*
X134188700Y-119694000D01*
X110600000Y-112480000D02*
X126974700Y-112480000D01*
X135370000Y-120270000D02*
X136551300Y-120270000D01*
X141713700Y-125634800D02*
X141713700Y-126270000D01*
X137740700Y-121661800D02*
X141713700Y-125634800D01*
X137591800Y-121661800D02*
X137740700Y-121661800D01*
X136551300Y-120621300D02*
X137591800Y-121661800D01*
X136551300Y-120270000D02*
X136551300Y-120621300D01*
X135370000Y-120270000D02*
X134188700Y-120270000D01*
X117304000Y-117560000D02*
X110600000Y-117560000D01*
X123138700Y-123394700D02*
X117304000Y-117560000D01*
X137338800Y-123394700D02*
X123138700Y-123394700D01*
X139213700Y-125269600D02*
X137338800Y-123394700D01*
X139213700Y-126270000D02*
X139213700Y-125269600D01*
X140445000Y-126270000D02*
X139213700Y-126270000D01*
X145445000Y-126270000D02*
X145445000Y-124913700D01*
X142439200Y-121907900D02*
X145445000Y-124913700D01*
X142439200Y-121420800D02*
X142439200Y-121907900D01*
X139060800Y-121420800D02*
X142439200Y-121420800D01*
X137910000Y-120270000D02*
X139060800Y-121420800D01*
X142439200Y-121420800D02*
X143650000Y-120210000D01*
X149545000Y-121600000D02*
X149485000Y-121540000D01*
X155470000Y-121600000D02*
X149545000Y-121600000D01*
X40835000Y-106418700D02*
X43565000Y-109148700D01*
X40835000Y-91223500D02*
X40835000Y-106418700D01*
X51213500Y-80845000D02*
X40835000Y-91223500D01*
X51213500Y-72515900D02*
X51213500Y-80845000D01*
X52382700Y-71346700D02*
X51213500Y-72515900D01*
X54644500Y-71346700D02*
X52382700Y-71346700D01*
X60811200Y-77513400D02*
X54644500Y-71346700D01*
X62661600Y-77513400D02*
X60811200Y-77513400D01*
X68950000Y-71225000D02*
X62661600Y-77513400D01*
X43565000Y-110380000D02*
X43565000Y-109148700D01*
X108950000Y-62324800D02*
X109089800Y-62185000D01*
X108950000Y-68855000D02*
X108950000Y-62324800D01*
X109089800Y-60828700D02*
X109089800Y-62185000D01*
D35*
X47170000Y-53140000D02*
X44550000Y-50520000D01*
X51130000Y-53140000D02*
X47170000Y-53140000D01*
D36*
X114794300Y-97240000D02*
X110600000Y-97240000D01*
X123503700Y-105949400D02*
X114794300Y-97240000D01*
X123503700Y-106565000D02*
X123503700Y-105949400D01*
X124735000Y-106565000D02*
X123503700Y-106565000D01*
X126003700Y-105023700D02*
X110600000Y-89620000D01*
X126003700Y-106565000D02*
X126003700Y-105023700D01*
X127235000Y-106565000D02*
X126003700Y-106565000D01*
X83888700Y-78276900D02*
X144083600Y-78276900D01*
X77043600Y-85122000D02*
X83888700Y-78276900D01*
X67607000Y-85122000D02*
X77043600Y-85122000D01*
X61330000Y-78845000D02*
X67607000Y-85122000D01*
X75300000Y-72495000D02*
X101931300Y-72495000D01*
X74030000Y-71225000D02*
X75300000Y-72495000D01*
X96630100Y-123909900D02*
X110600000Y-109940000D01*
X90160700Y-123909900D02*
X96630100Y-123909900D01*
X105446200Y-107400000D02*
X110600000Y-107400000D01*
X88489000Y-124357200D02*
X105446200Y-107400000D01*
X142405000Y-72960000D02*
X142850000Y-72515000D01*
X138640000Y-72960000D02*
X142405000Y-72960000D01*
X138640000Y-72960000D02*
X137458700Y-72960000D01*
X132760200Y-77658500D02*
X137458700Y-72960000D01*
X82836500Y-77658500D02*
X132760200Y-77658500D01*
X76570000Y-83925000D02*
X82836500Y-77658500D01*
X157900000Y-73040000D02*
X153960000Y-73040000D01*
X158380000Y-72560000D02*
X157900000Y-73040000D01*
X153960000Y-73040000D02*
X152778700Y-73040000D01*
X146602000Y-79216700D02*
X152778700Y-73040000D01*
X83818300Y-79216700D02*
X146602000Y-79216700D01*
X76570000Y-86465000D02*
X83818300Y-79216700D01*
X173820000Y-110120000D02*
X172463700Y-110120000D01*
X171776200Y-110807500D02*
X148784300Y-110807500D01*
X172463700Y-110120000D02*
X171776200Y-110807500D01*
X102515000Y-47290000D02*
X102515000Y-48521300D01*
X99684900Y-51351400D02*
X102515000Y-48521300D01*
X99684900Y-61526200D02*
X99684900Y-51351400D01*
X61330000Y-61364300D02*
X61330000Y-61065000D01*
X53982200Y-68712100D02*
X61330000Y-61364300D01*
X52496100Y-68712100D02*
X53982200Y-68712100D01*
X46646900Y-74561300D02*
X52496100Y-68712100D01*
X46646900Y-80053100D02*
X46646900Y-74561300D01*
X43510000Y-83190000D02*
X46646900Y-80053100D01*
X173920000Y-88270000D02*
X173920000Y-87038700D01*
X82233300Y-96041700D02*
X76570000Y-101705000D01*
X82233300Y-86610100D02*
X82233300Y-96041700D01*
X85248100Y-83595300D02*
X82233300Y-86610100D01*
X169245300Y-83595300D02*
X85248100Y-83595300D01*
X172688700Y-87038700D02*
X169245300Y-83595300D01*
X173920000Y-87038700D02*
X172688700Y-87038700D01*
D35*
X102505000Y-39780000D02*
X102515000Y-39790000D01*
X94180000Y-39780000D02*
X102505000Y-39780000D01*
X102525000Y-39800000D02*
X102515000Y-39790000D01*
X114855000Y-39800000D02*
X102525000Y-39800000D01*
X41507200Y-92827800D02*
X43535000Y-90800000D01*
X41507200Y-103720500D02*
X41507200Y-92827800D01*
X49651700Y-111865000D02*
X41507200Y-103720500D01*
X61330000Y-111865000D02*
X49651700Y-111865000D01*
X94150000Y-39750000D02*
X94180000Y-39780000D01*
X81820000Y-39750000D02*
X94150000Y-39750000D01*
X53235900Y-79740800D02*
X43535000Y-89441700D01*
X53235900Y-75062100D02*
X53235900Y-79740800D01*
X43535000Y-90800000D02*
X43535000Y-89441700D01*
X95926700Y-62430000D02*
X95946700Y-62410000D01*
X86578300Y-62430000D02*
X95926700Y-62430000D01*
X85095000Y-62430000D02*
X86578300Y-62430000D01*
X96688400Y-62410000D02*
X95946700Y-62410000D01*
X96688400Y-62410000D02*
X97430000Y-62410000D01*
X76062600Y-49837600D02*
X73255000Y-47030000D01*
X89802500Y-49837600D02*
X76062600Y-49837600D01*
X98918900Y-58954000D02*
X89802500Y-49837600D01*
X98918900Y-60921100D02*
X98918900Y-58954000D01*
X97430000Y-62410000D02*
X98918900Y-60921100D01*
X136815300Y-62340300D02*
X135330000Y-60855000D01*
X148021400Y-62340300D02*
X136815300Y-62340300D01*
X149511700Y-60850000D02*
X148021400Y-62340300D01*
X150870000Y-60850000D02*
X149511700Y-60850000D01*
X80963800Y-40606200D02*
X81820000Y-39750000D01*
X74661200Y-40606200D02*
X80963800Y-40606200D01*
X73325000Y-39270000D02*
X74661200Y-40606200D01*
X167324500Y-39630000D02*
X176647000Y-48952500D01*
X151575000Y-39630000D02*
X167324500Y-39630000D01*
X63960000Y-39270000D02*
X63450000Y-39780000D01*
X73325000Y-39270000D02*
X63960000Y-39270000D01*
X56781700Y-40106700D02*
X55455000Y-38780000D01*
X63123300Y-40106700D02*
X56781700Y-40106700D01*
X63450000Y-39780000D02*
X63123300Y-40106700D01*
X97410000Y-59930000D02*
X97430000Y-59910000D01*
X85095000Y-59930000D02*
X97410000Y-59930000D01*
X57033300Y-116945000D02*
X54778300Y-119200000D01*
X61330000Y-116945000D02*
X57033300Y-116945000D01*
X53470000Y-119200000D02*
X54778300Y-119200000D01*
X115594500Y-62333400D02*
X114089800Y-60828700D01*
X124466600Y-62333400D02*
X115594500Y-62333400D01*
X125950000Y-60850000D02*
X124466600Y-62333400D01*
X67025000Y-122640000D02*
X85200000Y-122640000D01*
X61330000Y-116945000D02*
X67025000Y-122640000D01*
X120855600Y-127754400D02*
X122345000Y-126265000D01*
X90314400Y-127754400D02*
X120855600Y-127754400D01*
X85200000Y-122640000D02*
X90314400Y-127754400D01*
X151596900Y-127763100D02*
X153035000Y-126325000D01*
X123843100Y-127763100D02*
X151596900Y-127763100D01*
X122345000Y-126265000D02*
X123843100Y-127763100D01*
X171020000Y-121700000D02*
X169661700Y-121700000D01*
X159393400Y-121700000D02*
X169661700Y-121700000D01*
X159393400Y-119553400D02*
X159393400Y-121700000D01*
X152455000Y-112615000D02*
X159393400Y-119553400D01*
X156301700Y-123058300D02*
X153035000Y-126325000D01*
X158459700Y-123058300D02*
X156301700Y-123058300D01*
X159393400Y-122124600D02*
X158459700Y-123058300D01*
X159393400Y-121700000D02*
X159393400Y-122124600D01*
X151886600Y-59366600D02*
X153370000Y-60850000D01*
X139318400Y-59366600D02*
X151886600Y-59366600D01*
X137830000Y-60855000D02*
X139318400Y-59366600D01*
D36*
X43535000Y-95800000D02*
X44891300Y-95800000D01*
X45716300Y-96625000D02*
X61330000Y-96625000D01*
X44891300Y-95800000D02*
X45716300Y-96625000D01*
X52343700Y-67442100D02*
X48792100Y-70993700D01*
X53235900Y-67442100D02*
X52343700Y-67442100D01*
X45756300Y-99165000D02*
X44891300Y-98300000D01*
X61330000Y-99165000D02*
X45756300Y-99165000D01*
X43535000Y-98300000D02*
X44891300Y-98300000D01*
X58965000Y-47280000D02*
X63450000Y-47280000D01*
X57665000Y-45980000D02*
X58965000Y-47280000D01*
X43510000Y-75108000D02*
X43510000Y-80690000D01*
X52445900Y-66172100D02*
X43510000Y-75108000D01*
X53955000Y-66172100D02*
X52445900Y-66172100D01*
X61330000Y-58797100D02*
X53955000Y-66172100D01*
X61330000Y-58525000D02*
X61330000Y-58797100D01*
X120940000Y-71435000D02*
X120910000Y-71405000D01*
X126320000Y-71435000D02*
X120940000Y-71435000D01*
X114300000Y-71395000D02*
X114350000Y-71445000D01*
X108950000Y-71395000D02*
X114300000Y-71395000D01*
X151575000Y-44630000D02*
X151575000Y-45861300D01*
X63009500Y-73765000D02*
X61330000Y-73765000D01*
X65140000Y-71634500D02*
X63009500Y-73765000D01*
X65140000Y-70815300D02*
X65140000Y-71634500D01*
X68488300Y-67467000D02*
X65140000Y-70815300D01*
X80552300Y-67467000D02*
X68488300Y-67467000D01*
X81763900Y-68678600D02*
X80552300Y-67467000D01*
X99248300Y-68678600D02*
X81763900Y-68678600D01*
X109195700Y-58731200D02*
X99248300Y-68678600D01*
X135420700Y-58731200D02*
X109195700Y-58731200D01*
X148290600Y-45861300D02*
X135420700Y-58731200D01*
X151575000Y-45861300D02*
X148290600Y-45861300D01*
X137524800Y-43391300D02*
X138160000Y-43391300D01*
X136767900Y-44148200D02*
X137524800Y-43391300D01*
X136767900Y-45173600D02*
X136767900Y-44148200D01*
X137504300Y-45910000D02*
X136767900Y-45173600D01*
X138831900Y-45910000D02*
X137504300Y-45910000D01*
X139564800Y-46642900D02*
X138831900Y-45910000D01*
X139564800Y-47744200D02*
X139564800Y-46642900D01*
X129086200Y-58222800D02*
X139564800Y-47744200D01*
X108873500Y-58222800D02*
X129086200Y-58222800D01*
X100917700Y-66178600D02*
X108873500Y-58222800D01*
X82141700Y-66178600D02*
X100917700Y-66178600D01*
X80902600Y-64939500D02*
X82141700Y-66178600D01*
X62535500Y-64939500D02*
X80902600Y-64939500D01*
X61330000Y-66145000D02*
X62535500Y-64939500D01*
X138160000Y-42160000D02*
X138160000Y-43391300D01*
X117986000Y-48391300D02*
X138160000Y-48391300D01*
X102698800Y-63678500D02*
X117986000Y-48391300D01*
X83217700Y-63678500D02*
X102698800Y-63678500D01*
X81941200Y-62402000D02*
X83217700Y-63678500D01*
X62533000Y-62402000D02*
X81941200Y-62402000D01*
X61330000Y-63605000D02*
X62533000Y-62402000D01*
X138160000Y-47160000D02*
X138160000Y-48391300D01*
X174075000Y-66900000D02*
X174075000Y-68131300D01*
X80200000Y-90455000D02*
X76570000Y-94085000D01*
X80200000Y-85768200D02*
X80200000Y-90455000D01*
X84406100Y-81562100D02*
X80200000Y-85768200D01*
X158694100Y-81562100D02*
X84406100Y-81562100D01*
X172124900Y-68131300D02*
X158694100Y-81562100D01*
X174075000Y-68131300D02*
X172124900Y-68131300D01*
X174075000Y-64400000D02*
X174075000Y-65631300D01*
X79691700Y-88423300D02*
X76570000Y-91545000D01*
X79691700Y-85557700D02*
X79691700Y-88423300D01*
X84195600Y-81053800D02*
X79691700Y-85557700D01*
X156702400Y-81053800D02*
X84195600Y-81053800D01*
X172124900Y-65631300D02*
X156702400Y-81053800D01*
X174075000Y-65631300D02*
X172124900Y-65631300D01*
X174075000Y-61900000D02*
X174075000Y-63131300D01*
X79183400Y-86391600D02*
X76570000Y-89005000D01*
X79183400Y-85347200D02*
X79183400Y-86391600D01*
X83985100Y-80545500D02*
X79183400Y-85347200D01*
X155429500Y-80545500D02*
X83985100Y-80545500D01*
X172843700Y-63131300D02*
X155429500Y-80545500D01*
X174075000Y-63131300D02*
X172843700Y-63131300D01*
X173920000Y-85770000D02*
X172563700Y-85770000D01*
X81724900Y-94010100D02*
X76570000Y-99165000D01*
X81724900Y-86399700D02*
X81724900Y-94010100D01*
X85037600Y-83087000D02*
X81724900Y-86399700D01*
X169880700Y-83087000D02*
X85037600Y-83087000D01*
X172563700Y-85770000D02*
X169880700Y-83087000D01*
X173920000Y-83270000D02*
X172563700Y-83270000D01*
X81216600Y-91978400D02*
X76570000Y-96625000D01*
X81216600Y-86189200D02*
X81216600Y-91978400D01*
X84827100Y-82578700D02*
X81216600Y-86189200D01*
X171872400Y-82578700D02*
X84827100Y-82578700D01*
X172563700Y-83270000D02*
X171872400Y-82578700D01*
X173820000Y-107620000D02*
X172463700Y-107620000D01*
X171697200Y-108386500D02*
X172463700Y-107620000D01*
X152771400Y-108386500D02*
X171697200Y-108386500D01*
X151505000Y-107120100D02*
X152771400Y-108386500D01*
X151505000Y-106247000D02*
X151505000Y-107120100D01*
X129896500Y-84638500D02*
X151505000Y-106247000D01*
X85684000Y-84638500D02*
X129896500Y-84638500D01*
X83704400Y-86618100D02*
X85684000Y-84638500D01*
X83704400Y-99650600D02*
X83704400Y-86618100D01*
X76570000Y-106785000D02*
X83704400Y-99650600D01*
X82921100Y-97893900D02*
X76570000Y-104245000D01*
X82921100Y-86641100D02*
X82921100Y-97893900D01*
X85458600Y-84103600D02*
X82921100Y-86641100D01*
X131992100Y-84103600D02*
X85458600Y-84103600D01*
X154883700Y-106995200D02*
X131992100Y-84103600D01*
X154883700Y-107099600D02*
X154883700Y-106995200D01*
X155613800Y-107829700D02*
X154883700Y-107099600D01*
X171110300Y-107829700D02*
X155613800Y-107829700D01*
X172588700Y-106351300D02*
X171110300Y-107829700D01*
X173820000Y-106351300D02*
X172588700Y-106351300D01*
X173820000Y-105120000D02*
X173820000Y-106351300D01*
D35*
X64311900Y-117386900D02*
X61330000Y-114405000D01*
X74819800Y-117386900D02*
X64311900Y-117386900D01*
X75261700Y-116945000D02*
X74819800Y-117386900D01*
X76570000Y-116945000D02*
X75261700Y-116945000D01*
X57192600Y-76478800D02*
X53235900Y-72522100D01*
X57192600Y-77247600D02*
X57192600Y-76478800D01*
X61330000Y-81385000D02*
X57192600Y-77247600D01*
X113680000Y-120100000D02*
X110600000Y-120100000D01*
X81033300Y-120100000D02*
X77878300Y-116945000D01*
X85200000Y-120100000D02*
X81033300Y-120100000D01*
X76570000Y-116945000D02*
X77878300Y-116945000D01*
X136452200Y-124777200D02*
X121332800Y-124777200D01*
X55450000Y-81385000D02*
X61330000Y-81385000D01*
X43535000Y-93300000D02*
X55450000Y-81385000D01*
X85095000Y-64930000D02*
X86578300Y-64930000D01*
X86598300Y-64910000D02*
X97430000Y-64910000D01*
X86578300Y-64930000D02*
X86598300Y-64910000D01*
X137115000Y-68895000D02*
X126320000Y-68895000D01*
X138640000Y-70420000D02*
X137115000Y-68895000D01*
X60335000Y-115400000D02*
X53470000Y-115400000D01*
X61330000Y-114405000D02*
X60335000Y-115400000D01*
X51222400Y-117647600D02*
X51222400Y-120347400D01*
X53470000Y-115400000D02*
X51222400Y-117647600D01*
X49129800Y-122440000D02*
X51222400Y-120347400D01*
X43470000Y-122440000D02*
X49129800Y-122440000D01*
X51222400Y-120347400D02*
X58950000Y-128075000D01*
X42541700Y-49456600D02*
X44550000Y-47448300D01*
X42541700Y-51375600D02*
X42541700Y-49456600D01*
X50988200Y-59822100D02*
X42541700Y-51375600D01*
X53235900Y-59822100D02*
X50988200Y-59822100D01*
X44550000Y-45440000D02*
X44550000Y-47448300D01*
D36*
X62518500Y-95273500D02*
X61330000Y-94085000D01*
X62518500Y-99698100D02*
X62518500Y-95273500D01*
X61781600Y-100435000D02*
X62518500Y-99698100D01*
X45256300Y-100435000D02*
X61781600Y-100435000D01*
X44891300Y-100800000D02*
X45256300Y-100435000D01*
X43535000Y-100800000D02*
X44891300Y-100800000D01*
X83206300Y-44780000D02*
X83176300Y-44750000D01*
X94180000Y-44780000D02*
X83206300Y-44780000D01*
X81820000Y-44750000D02*
X83176300Y-44750000D01*
X42174300Y-101939300D02*
X43535000Y-103300000D01*
X42174300Y-95283300D02*
X42174300Y-101939300D01*
X42907600Y-94550000D02*
X42174300Y-95283300D01*
X58325000Y-94550000D02*
X42907600Y-94550000D01*
X61330000Y-91545000D02*
X58325000Y-94550000D01*
X80243700Y-47030000D02*
X80463700Y-47250000D01*
X75795000Y-47030000D02*
X80243700Y-47030000D01*
X81820000Y-47250000D02*
X80463700Y-47250000D01*
X83206300Y-47280000D02*
X83176300Y-47250000D01*
X94180000Y-47280000D02*
X83206300Y-47280000D01*
X81820000Y-47250000D02*
X83176300Y-47250000D01*
M02*
