M48
; DRILL file {KiCad (6.0.5)} date Fri Jun 17 21:53:11 2022
; FORMAT={-:-/ absolute / metric / decimal}
; #@! TF.CreationDate,2022-06-17T21:53:11+02:00
; #@! TF.GenerationSoftware,Kicad,Pcbnew,(6.0.5)
; #@! TF.FileFunction,Plated,1,2,PTH
FMAT,2
METRIC
; #@! TA.AperFunction,Plated,PTH,ViaDrill
T1C0.635
; #@! TA.AperFunction,Plated,PTH,ComponentDrill
T2C0.762
; #@! TA.AperFunction,Plated,PTH,ComponentDrill
T3C0.800
; #@! TA.AperFunction,Plated,PTH,ComponentDrill
T4C0.950
; #@! TA.AperFunction,Plated,PTH,ComponentDrill
T5C1.000
; #@! TA.AperFunction,Plated,PTH,ComponentDrill
T6C1.001
; #@! TA.AperFunction,Plated,PTH,ComponentDrill
T7C1.100
; #@! TA.AperFunction,Plated,PTH,ComponentDrill
T8C1.500
; #@! TA.AperFunction,Plated,PTH,ComponentDrill
T9C1.520
; #@! TA.AperFunction,Plated,PTH,ComponentDrill
T10C3.200
%
G90
G05
T1
X48.792Y-70.994
X51.985Y-122.457
X53.311Y-121.089
X80.251Y-58.525
X88.489Y-124.357
X90.161Y-123.91
X99.685Y-61.526
X101.931Y-72.495
X144.084Y-78.277
X148.784Y-110.807
T2
X53.236Y-57.282
X53.236Y-59.822
X53.236Y-62.362
X53.236Y-64.902
X53.236Y-67.442
X53.236Y-69.982
X53.236Y-72.522
X53.236Y-75.062
T3
X51.13Y-50.6
X51.13Y-53.14
X53.47Y-115.4
X53.47Y-119.2
X55.125Y-45.98
X55.455Y-38.78
X57.665Y-45.98
X57.995Y-38.78
X63.768Y-101.975
X63.768Y-103.975
X65.768Y-101.975
X65.768Y-103.975
X67.68Y-116.215
X67.768Y-101.975
X67.768Y-103.975
X70.22Y-116.215
X73.255Y-47.03
X73.325Y-39.27
X75.795Y-47.03
X75.865Y-39.27
X85.2Y-87.08
X85.2Y-89.62
X85.2Y-92.16
X85.2Y-94.7
X85.2Y-97.24
X85.2Y-99.78
X85.2Y-102.32
X85.2Y-104.86
X85.2Y-107.4
X85.2Y-109.94
X85.2Y-112.48
X85.2Y-115.02
X85.2Y-117.56
X85.2Y-120.1
X85.2Y-122.64
X108.95Y-68.855
X108.95Y-71.395
X110.6Y-87.08
X110.6Y-89.62
X110.6Y-92.16
X110.6Y-94.7
X110.6Y-97.24
X110.6Y-99.78
X110.6Y-102.32
X110.6Y-104.86
X110.6Y-107.4
X110.6Y-109.94
X110.6Y-112.48
X110.6Y-115.02
X110.6Y-117.56
X110.6Y-120.1
X110.6Y-122.64
X114.35Y-68.905
X114.35Y-71.445
X120.91Y-68.865
X120.91Y-71.405
X126.32Y-68.895
X126.32Y-71.435
X135.37Y-120.27
X137.91Y-120.27
X138.64Y-70.42
X138.64Y-72.96
X141.11Y-120.21
X142.85Y-69.975
X142.85Y-72.515
X143.65Y-120.21
X146.945Y-121.54
X149.485Y-121.54
X150.235Y-106.655
X152.775Y-106.655
X153.96Y-70.5
X153.96Y-73.04
X155.47Y-121.6
X156.155Y-106.625
X158.01Y-121.6
X158.38Y-70.02
X158.38Y-72.56
X158.695Y-106.625
T4
X43.535Y-90.8
X43.535Y-93.3
X43.535Y-95.8
X43.535Y-98.3
X43.535Y-100.8
X43.535Y-103.3
X53.95Y-128.075
X56.45Y-128.075
X58.95Y-128.075
X61.45Y-128.075
X63.45Y-39.78
X63.45Y-42.28
X63.45Y-44.78
X63.45Y-47.28
X63.95Y-128.075
X81.82Y-39.75
X81.82Y-42.25
X81.82Y-44.75
X81.82Y-47.25
X85.095Y-59.93
X85.095Y-62.43
X85.095Y-64.93
X85.095Y-67.43
X85.095Y-69.93
X94.18Y-39.78
X94.18Y-42.28
X94.18Y-44.78
X94.18Y-47.28
X97.43Y-59.91
X97.43Y-62.41
X97.43Y-64.91
X97.43Y-67.41
X97.43Y-69.91
X102.515Y-39.79
X102.515Y-42.29
X102.515Y-44.79
X102.515Y-47.29
X109.09Y-60.829
X111.59Y-60.829
X114.09Y-60.829
X114.855Y-39.8
X114.855Y-42.3
X114.855Y-44.8
X114.855Y-47.3
X119.695Y-117.07
X119.735Y-106.565
X119.845Y-126.265
X120.95Y-60.85
X122.195Y-117.07
X122.235Y-106.565
X122.345Y-126.265
X123.45Y-60.85
X124.695Y-117.07
X124.735Y-106.565
X124.845Y-126.265
X125.95Y-60.85
X127.195Y-117.07
X127.235Y-106.565
X127.345Y-126.265
X129.695Y-117.07
X129.825Y-39.62
X129.825Y-42.12
X129.825Y-44.62
X129.825Y-47.12
X129.845Y-126.265
X135.33Y-60.855
X135.915Y-106.525
X137.83Y-60.855
X137.945Y-126.27
X138.16Y-39.66
X138.16Y-42.16
X138.16Y-44.66
X138.16Y-47.16
X138.415Y-106.525
X140.33Y-60.855
X140.445Y-126.27
X140.915Y-106.525
X142.83Y-60.855
X142.945Y-126.27
X143.415Y-106.525
X145.445Y-126.27
X150.67Y-93.285
X150.87Y-60.85
X151.575Y-39.63
X151.575Y-42.13
X151.575Y-44.63
X152.455Y-112.615
X153.035Y-126.325
X153.17Y-93.285
X153.37Y-60.85
X154.955Y-112.615
X155.535Y-126.325
X155.67Y-93.285
X155.87Y-60.85
X157.455Y-112.615
X158.035Y-126.325
X158.37Y-60.85
X173.82Y-100.12
X173.82Y-102.62
X173.82Y-105.12
X173.82Y-107.62
X173.82Y-110.12
X173.82Y-112.62
X173.92Y-78.27
X173.92Y-80.77
X173.92Y-83.27
X173.92Y-85.77
X173.92Y-88.27
X173.92Y-90.77
X174.075Y-56.9
X174.075Y-59.4
X174.075Y-61.9
X174.075Y-64.4
X174.075Y-66.9
X174.075Y-69.4
T5
X43.47Y-119.94
X43.47Y-122.44
X43.51Y-80.69
X43.51Y-83.19
X43.565Y-110.38
X43.565Y-112.88
X171.02Y-121.7
X171.567Y-48.953
X173.56Y-121.7
X174.107Y-48.953
X176.1Y-121.7
X176.647Y-48.953
T6
X166.34Y-36.56
X166.34Y-44.16
T7
X51.13Y-36.95
X51.13Y-47.11
X61.33Y-58.525
X61.33Y-61.065
X61.33Y-63.605
X61.33Y-66.145
X61.33Y-68.685
X61.33Y-71.225
X61.33Y-73.765
X61.33Y-76.305
X61.33Y-78.845
X61.33Y-81.385
X61.33Y-83.925
X61.33Y-86.465
X61.33Y-89.005
X61.33Y-91.545
X61.33Y-94.085
X61.33Y-96.625
X61.33Y-99.165
X61.33Y-101.705
X61.33Y-104.245
X61.33Y-106.785
X61.33Y-109.325
X61.33Y-111.865
X61.33Y-114.405
X61.33Y-116.945
X63.87Y-71.225
X63.87Y-114.405
X66.41Y-71.225
X68.95Y-71.225
X71.49Y-71.225
X73.519Y-100.486
X73.519Y-103.026
X73.519Y-105.566
X73.519Y-108.106
X73.519Y-110.646
X74.03Y-71.225
X76.57Y-58.525
X76.57Y-61.065
X76.57Y-63.605
X76.57Y-66.145
X76.57Y-68.685
X76.57Y-71.225
X76.57Y-73.765
X76.57Y-76.305
X76.57Y-78.845
X76.57Y-81.385
X76.57Y-83.925
X76.57Y-86.465
X76.57Y-89.005
X76.57Y-91.545
X76.57Y-94.085
X76.57Y-96.625
X76.57Y-99.165
X76.57Y-101.705
X76.57Y-104.245
X76.57Y-106.785
X76.57Y-109.325
X76.57Y-111.865
X76.57Y-114.405
X76.57Y-116.945
T8
X118.808Y-87.49
X139.298Y-87.49
T9
X44.55Y-45.44
X44.55Y-50.52
T10
X43.0Y-130.0
X43.01Y-37.94
X176.0Y-38.0
X176.0Y-130.0
T0
M30
