%TF.GenerationSoftware,KiCad,Pcbnew,(5.1.12-5-g2758acfd42)-1*%
%TF.CreationDate,2022-03-05T16:45:09+01:00*%
%TF.ProjectId,Teensy_MainPCB,5465656e-7379-45f4-9d61-696e5043422e,rev?*%
%TF.SameCoordinates,Original*%
%TF.FileFunction,Legend,Top*%
%TF.FilePolarity,Positive*%
%FSLAX46Y46*%
G04 Gerber Fmt 4.6, Leading zero omitted, Abs format (unit mm)*
G04 Created by KiCad (PCBNEW (5.1.12-5-g2758acfd42)-1) date 2022-03-05 16:45:09*
%MOMM*%
%LPD*%
G01*
G04 APERTURE LIST*
%ADD10C,0.150000*%
%ADD11C,0.250000*%
%ADD12C,0.800000*%
%ADD13C,0.375000*%
%ADD14C,0.120000*%
%ADD15C,0.100000*%
%ADD16C,0.200000*%
%ADD17R,3.000000X3.000000*%
%ADD18C,3.000000*%
%ADD19O,2.000000X1.700000*%
%ADD20O,1.600000X1.600000*%
%ADD21C,1.600000*%
%ADD22O,1.700000X1.950000*%
%ADD23C,2.000000*%
%ADD24O,1.950000X1.700000*%
%ADD25O,2.268000X1.524000*%
%ADD26C,6.400000*%
%ADD27C,3.600000*%
%ADD28O,1.700000X1.700000*%
%ADD29R,1.700000X1.700000*%
%ADD30R,1.600000X1.600000*%
%ADD31R,1.300000X1.300000*%
%ADD32C,1.300000*%
%ADD33O,2.200000X2.200000*%
%ADD34R,2.200000X2.200000*%
G04 APERTURE END LIST*
D10*
X168672583Y-102739197D02*
X168939250Y-102739197D01*
X169053536Y-103158244D02*
X168672583Y-103158244D01*
X168672583Y-102358244D01*
X169053536Y-102358244D01*
X169396393Y-103158244D02*
X169396393Y-102358244D01*
X169853536Y-103158244D01*
X169853536Y-102358244D01*
X168719576Y-94989700D02*
X168643385Y-94951604D01*
X168529100Y-94951604D01*
X168414814Y-94989700D01*
X168338623Y-95065890D01*
X168300528Y-95142080D01*
X168262433Y-95294461D01*
X168262433Y-95408747D01*
X168300528Y-95561128D01*
X168338623Y-95637319D01*
X168414814Y-95713509D01*
X168529100Y-95751604D01*
X168605290Y-95751604D01*
X168719576Y-95713509D01*
X168757671Y-95675414D01*
X168757671Y-95408747D01*
X168605290Y-95408747D01*
X169100528Y-95751604D02*
X169100528Y-94951604D01*
X169557671Y-95751604D01*
X169557671Y-94951604D01*
X169938623Y-95751604D02*
X169938623Y-94951604D01*
X170129100Y-94951604D01*
X170243385Y-94989700D01*
X170319576Y-95065890D01*
X170357671Y-95142080D01*
X170395766Y-95294461D01*
X170395766Y-95408747D01*
X170357671Y-95561128D01*
X170319576Y-95637319D01*
X170243385Y-95713509D01*
X170129100Y-95751604D01*
X169938623Y-95751604D01*
X168397020Y-100514104D02*
X168397020Y-99714104D01*
X168587496Y-99714104D01*
X168701781Y-99752200D01*
X168777972Y-99828390D01*
X168816067Y-99904580D01*
X168854162Y-100056961D01*
X168854162Y-100171247D01*
X168816067Y-100323628D01*
X168777972Y-100399819D01*
X168701781Y-100476009D01*
X168587496Y-100514104D01*
X168397020Y-100514104D01*
X169197020Y-100514104D02*
X169197020Y-99714104D01*
X170035115Y-100514104D02*
X169768448Y-100133152D01*
X169577972Y-100514104D02*
X169577972Y-99714104D01*
X169882734Y-99714104D01*
X169958924Y-99752200D01*
X169997020Y-99790295D01*
X170035115Y-99866485D01*
X170035115Y-99980771D01*
X169997020Y-100056961D01*
X169958924Y-100095057D01*
X169882734Y-100133152D01*
X169577972Y-100133152D01*
X168271330Y-98200164D02*
X168271330Y-97400164D01*
X168576092Y-97400164D01*
X168652282Y-97438260D01*
X168690378Y-97476355D01*
X168728473Y-97552545D01*
X168728473Y-97666831D01*
X168690378Y-97743021D01*
X168652282Y-97781117D01*
X168576092Y-97819212D01*
X168271330Y-97819212D01*
X168995140Y-97400164D02*
X169185616Y-98200164D01*
X169337997Y-97628736D01*
X169490378Y-98200164D01*
X169680854Y-97400164D01*
X169985616Y-98200164D02*
X169985616Y-97400164D01*
X170252282Y-97971593D01*
X170518949Y-97400164D01*
X170518949Y-98200164D01*
X168882107Y-93015108D02*
X169644012Y-93015108D01*
X169263060Y-93396060D02*
X169263060Y-92634156D01*
X64001614Y-123210205D02*
X64039709Y-123248300D01*
X64077804Y-123362586D01*
X64077804Y-123438777D01*
X64039709Y-123553062D01*
X63963519Y-123629253D01*
X63887328Y-123667348D01*
X63734947Y-123705443D01*
X63620661Y-123705443D01*
X63468280Y-123667348D01*
X63392090Y-123629253D01*
X63315900Y-123553062D01*
X63277804Y-123438777D01*
X63277804Y-123362586D01*
X63315900Y-123248300D01*
X63353995Y-123210205D01*
X64077804Y-122410205D02*
X63696852Y-122676872D01*
X64077804Y-122867348D02*
X63277804Y-122867348D01*
X63277804Y-122562586D01*
X63315900Y-122486396D01*
X63353995Y-122448300D01*
X63430185Y-122410205D01*
X63544471Y-122410205D01*
X63620661Y-122448300D01*
X63658757Y-122486396D01*
X63696852Y-122562586D01*
X63696852Y-122867348D01*
X63277804Y-122143539D02*
X64077804Y-121610205D01*
X63277804Y-121610205D02*
X64077804Y-122143539D01*
X63277804Y-121381634D02*
X63277804Y-120886396D01*
X63582566Y-121153062D01*
X63582566Y-121038777D01*
X63620661Y-120962586D01*
X63658757Y-120924491D01*
X63734947Y-120886396D01*
X63925423Y-120886396D01*
X64001614Y-120924491D01*
X64039709Y-120962586D01*
X64077804Y-121038777D01*
X64077804Y-121267348D01*
X64039709Y-121343539D01*
X64001614Y-121381634D01*
X61438754Y-123203867D02*
X61476849Y-123241962D01*
X61514944Y-123356248D01*
X61514944Y-123432439D01*
X61476849Y-123546724D01*
X61400659Y-123622915D01*
X61324468Y-123661010D01*
X61172087Y-123699105D01*
X61057801Y-123699105D01*
X60905420Y-123661010D01*
X60829230Y-123622915D01*
X60753040Y-123546724D01*
X60714944Y-123432439D01*
X60714944Y-123356248D01*
X60753040Y-123241962D01*
X60791135Y-123203867D01*
X60714944Y-122975296D02*
X60714944Y-122518153D01*
X61514944Y-122746724D02*
X60714944Y-122746724D01*
X60714944Y-122327677D02*
X61514944Y-121794343D01*
X60714944Y-121794343D02*
X61514944Y-122327677D01*
X60714944Y-121565772D02*
X60714944Y-121070534D01*
X61019706Y-121337200D01*
X61019706Y-121222915D01*
X61057801Y-121146724D01*
X61095897Y-121108629D01*
X61172087Y-121070534D01*
X61362563Y-121070534D01*
X61438754Y-121108629D01*
X61476849Y-121146724D01*
X61514944Y-121222915D01*
X61514944Y-121451486D01*
X61476849Y-121527677D01*
X61438754Y-121565772D01*
X58213040Y-123172143D02*
X58174944Y-123248334D01*
X58174944Y-123362620D01*
X58213040Y-123476905D01*
X58289230Y-123553096D01*
X58365420Y-123591191D01*
X58517801Y-123629286D01*
X58632087Y-123629286D01*
X58784468Y-123591191D01*
X58860659Y-123553096D01*
X58936849Y-123476905D01*
X58974944Y-123362620D01*
X58974944Y-123286429D01*
X58936849Y-123172143D01*
X58898754Y-123134048D01*
X58632087Y-123134048D01*
X58632087Y-123286429D01*
X58974944Y-122791191D02*
X58174944Y-122791191D01*
X58974944Y-122334048D01*
X58174944Y-122334048D01*
X58974944Y-121953096D02*
X58174944Y-121953096D01*
X58174944Y-121762620D01*
X58213040Y-121648334D01*
X58289230Y-121572143D01*
X58365420Y-121534048D01*
X58517801Y-121495953D01*
X58632087Y-121495953D01*
X58784468Y-121534048D01*
X58860659Y-121572143D01*
X58936849Y-121648334D01*
X58974944Y-121762620D01*
X58974944Y-121953096D01*
X55657804Y-123677532D02*
X55657804Y-123182294D01*
X55962566Y-123448960D01*
X55962566Y-123334675D01*
X56000661Y-123258484D01*
X56038757Y-123220389D01*
X56114947Y-123182294D01*
X56305423Y-123182294D01*
X56381614Y-123220389D01*
X56419709Y-123258484D01*
X56457804Y-123334675D01*
X56457804Y-123563246D01*
X56419709Y-123639437D01*
X56381614Y-123677532D01*
X56381614Y-122839437D02*
X56419709Y-122801341D01*
X56457804Y-122839437D01*
X56419709Y-122877532D01*
X56381614Y-122839437D01*
X56457804Y-122839437D01*
X55657804Y-122534675D02*
X55657804Y-122039437D01*
X55962566Y-122306103D01*
X55962566Y-122191818D01*
X56000661Y-122115627D01*
X56038757Y-122077532D01*
X56114947Y-122039437D01*
X56305423Y-122039437D01*
X56381614Y-122077532D01*
X56419709Y-122115627D01*
X56457804Y-122191818D01*
X56457804Y-122420389D01*
X56419709Y-122496580D01*
X56381614Y-122534675D01*
X55657804Y-121810865D02*
X56457804Y-121544199D01*
X55657804Y-121277532D01*
X53272744Y-123250940D02*
X53272744Y-123631893D01*
X53653697Y-123669988D01*
X53615601Y-123631893D01*
X53577506Y-123555702D01*
X53577506Y-123365226D01*
X53615601Y-123289036D01*
X53653697Y-123250940D01*
X53729887Y-123212845D01*
X53920363Y-123212845D01*
X53996554Y-123250940D01*
X54034649Y-123289036D01*
X54072744Y-123365226D01*
X54072744Y-123555702D01*
X54034649Y-123631893D01*
X53996554Y-123669988D01*
X53272744Y-122984274D02*
X54072744Y-122717607D01*
X53272744Y-122450940D01*
X38634720Y-123116263D02*
X38596624Y-123192454D01*
X38596624Y-123306740D01*
X38634720Y-123421025D01*
X38710910Y-123497216D01*
X38787100Y-123535311D01*
X38939481Y-123573406D01*
X39053767Y-123573406D01*
X39206148Y-123535311D01*
X39282339Y-123497216D01*
X39358529Y-123421025D01*
X39396624Y-123306740D01*
X39396624Y-123230549D01*
X39358529Y-123116263D01*
X39320434Y-123078168D01*
X39053767Y-123078168D01*
X39053767Y-123230549D01*
X39396624Y-122735311D02*
X38596624Y-122735311D01*
X39396624Y-122278168D01*
X38596624Y-122278168D01*
X39396624Y-121897216D02*
X38596624Y-121897216D01*
X38596624Y-121706740D01*
X38634720Y-121592454D01*
X38710910Y-121516263D01*
X38787100Y-121478168D01*
X38939481Y-121440073D01*
X39053767Y-121440073D01*
X39206148Y-121478168D01*
X39282339Y-121516263D01*
X39358529Y-121592454D01*
X39396624Y-121706740D01*
X39396624Y-121897216D01*
X167859783Y-67344297D02*
X168126450Y-67344297D01*
X168240736Y-67763344D02*
X167859783Y-67763344D01*
X167859783Y-66963344D01*
X168240736Y-66963344D01*
X168583593Y-67763344D02*
X168583593Y-66963344D01*
X169040736Y-67763344D01*
X169040736Y-66963344D01*
X167458530Y-62805264D02*
X167458530Y-62005264D01*
X167763292Y-62005264D01*
X167839482Y-62043360D01*
X167877578Y-62081455D01*
X167915673Y-62157645D01*
X167915673Y-62271931D01*
X167877578Y-62348121D01*
X167839482Y-62386217D01*
X167763292Y-62424312D01*
X167458530Y-62424312D01*
X168182340Y-62005264D02*
X168372816Y-62805264D01*
X168525197Y-62233836D01*
X168677578Y-62805264D01*
X168868054Y-62005264D01*
X169172816Y-62805264D02*
X169172816Y-62005264D01*
X169439482Y-62576693D01*
X169706149Y-62005264D01*
X169706149Y-62805264D01*
X167584220Y-65119204D02*
X167584220Y-64319204D01*
X167774696Y-64319204D01*
X167888981Y-64357300D01*
X167965172Y-64433490D01*
X168003267Y-64509680D01*
X168041362Y-64662061D01*
X168041362Y-64776347D01*
X168003267Y-64928728D01*
X167965172Y-65004919D01*
X167888981Y-65081109D01*
X167774696Y-65119204D01*
X167584220Y-65119204D01*
X168384220Y-65119204D02*
X168384220Y-64319204D01*
X169222315Y-65119204D02*
X168955648Y-64738252D01*
X168765172Y-65119204D02*
X168765172Y-64319204D01*
X169069934Y-64319204D01*
X169146124Y-64357300D01*
X169184220Y-64395395D01*
X169222315Y-64471585D01*
X169222315Y-64585871D01*
X169184220Y-64662061D01*
X169146124Y-64700157D01*
X169069934Y-64738252D01*
X168765172Y-64738252D01*
X167906776Y-59594800D02*
X167830585Y-59556704D01*
X167716300Y-59556704D01*
X167602014Y-59594800D01*
X167525823Y-59670990D01*
X167487728Y-59747180D01*
X167449633Y-59899561D01*
X167449633Y-60013847D01*
X167487728Y-60166228D01*
X167525823Y-60242419D01*
X167602014Y-60318609D01*
X167716300Y-60356704D01*
X167792490Y-60356704D01*
X167906776Y-60318609D01*
X167944871Y-60280514D01*
X167944871Y-60013847D01*
X167792490Y-60013847D01*
X168287728Y-60356704D02*
X168287728Y-59556704D01*
X168744871Y-60356704D01*
X168744871Y-59556704D01*
X169125823Y-60356704D02*
X169125823Y-59556704D01*
X169316300Y-59556704D01*
X169430585Y-59594800D01*
X169506776Y-59670990D01*
X169544871Y-59747180D01*
X169582966Y-59899561D01*
X169582966Y-60013847D01*
X169544871Y-60166228D01*
X169506776Y-60242419D01*
X169430585Y-60318609D01*
X169316300Y-60356704D01*
X169125823Y-60356704D01*
X168069307Y-57620208D02*
X168831212Y-57620208D01*
X168450260Y-58001160D02*
X168450260Y-57239256D01*
D11*
X74944178Y-130667261D02*
X76087035Y-130667261D01*
X75515606Y-132667261D02*
X75515606Y-130667261D01*
X77515606Y-132572023D02*
X77325130Y-132667261D01*
X76944178Y-132667261D01*
X76753701Y-132572023D01*
X76658463Y-132381547D01*
X76658463Y-131619642D01*
X76753701Y-131429166D01*
X76944178Y-131333928D01*
X77325130Y-131333928D01*
X77515606Y-131429166D01*
X77610844Y-131619642D01*
X77610844Y-131810119D01*
X76658463Y-132000595D01*
X79229892Y-132572023D02*
X79039416Y-132667261D01*
X78658463Y-132667261D01*
X78467987Y-132572023D01*
X78372749Y-132381547D01*
X78372749Y-131619642D01*
X78467987Y-131429166D01*
X78658463Y-131333928D01*
X79039416Y-131333928D01*
X79229892Y-131429166D01*
X79325130Y-131619642D01*
X79325130Y-131810119D01*
X78372749Y-132000595D01*
X80182273Y-131333928D02*
X80182273Y-132667261D01*
X80182273Y-131524404D02*
X80277511Y-131429166D01*
X80467987Y-131333928D01*
X80753701Y-131333928D01*
X80944178Y-131429166D01*
X81039416Y-131619642D01*
X81039416Y-132667261D01*
X81896559Y-132572023D02*
X82087035Y-132667261D01*
X82467987Y-132667261D01*
X82658463Y-132572023D01*
X82753701Y-132381547D01*
X82753701Y-132286309D01*
X82658463Y-132095833D01*
X82467987Y-132000595D01*
X82182273Y-132000595D01*
X81991797Y-131905357D01*
X81896559Y-131714880D01*
X81896559Y-131619642D01*
X81991797Y-131429166D01*
X82182273Y-131333928D01*
X82467987Y-131333928D01*
X82658463Y-131429166D01*
X83420368Y-131333928D02*
X83896559Y-132667261D01*
X84372749Y-131333928D02*
X83896559Y-132667261D01*
X83706082Y-133143452D01*
X83610844Y-133238690D01*
X83420368Y-133333928D01*
X86658463Y-132667261D02*
X86658463Y-130667261D01*
X87325130Y-132095833D01*
X87991797Y-130667261D01*
X87991797Y-132667261D01*
X89801320Y-132667261D02*
X89801320Y-131619642D01*
X89706082Y-131429166D01*
X89515606Y-131333928D01*
X89134654Y-131333928D01*
X88944178Y-131429166D01*
X89801320Y-132572023D02*
X89610844Y-132667261D01*
X89134654Y-132667261D01*
X88944178Y-132572023D01*
X88848940Y-132381547D01*
X88848940Y-132191071D01*
X88944178Y-132000595D01*
X89134654Y-131905357D01*
X89610844Y-131905357D01*
X89801320Y-131810119D01*
X90753701Y-132667261D02*
X90753701Y-131333928D01*
X90753701Y-130667261D02*
X90658463Y-130762500D01*
X90753701Y-130857738D01*
X90848940Y-130762500D01*
X90753701Y-130667261D01*
X90753701Y-130857738D01*
X91706082Y-131333928D02*
X91706082Y-132667261D01*
X91706082Y-131524404D02*
X91801320Y-131429166D01*
X91991797Y-131333928D01*
X92277511Y-131333928D01*
X92467987Y-131429166D01*
X92563225Y-131619642D01*
X92563225Y-132667261D01*
X93515606Y-132667261D02*
X93515606Y-130667261D01*
X94277511Y-130667261D01*
X94467987Y-130762500D01*
X94563225Y-130857738D01*
X94658463Y-131048214D01*
X94658463Y-131333928D01*
X94563225Y-131524404D01*
X94467987Y-131619642D01*
X94277511Y-131714880D01*
X93515606Y-131714880D01*
X96658463Y-132476785D02*
X96563225Y-132572023D01*
X96277511Y-132667261D01*
X96087035Y-132667261D01*
X95801320Y-132572023D01*
X95610844Y-132381547D01*
X95515606Y-132191071D01*
X95420368Y-131810119D01*
X95420368Y-131524404D01*
X95515606Y-131143452D01*
X95610844Y-130952976D01*
X95801320Y-130762500D01*
X96087035Y-130667261D01*
X96277511Y-130667261D01*
X96563225Y-130762500D01*
X96658463Y-130857738D01*
X98182273Y-131619642D02*
X98467987Y-131714880D01*
X98563225Y-131810119D01*
X98658463Y-132000595D01*
X98658463Y-132286309D01*
X98563225Y-132476785D01*
X98467987Y-132572023D01*
X98277511Y-132667261D01*
X97515606Y-132667261D01*
X97515606Y-130667261D01*
X98182273Y-130667261D01*
X98372749Y-130762500D01*
X98467987Y-130857738D01*
X98563225Y-131048214D01*
X98563225Y-131238690D01*
X98467987Y-131429166D01*
X98372749Y-131524404D01*
X98182273Y-131619642D01*
X97515606Y-131619642D01*
X100753701Y-130667261D02*
X101420368Y-132667261D01*
X102087035Y-130667261D01*
X103801320Y-132667261D02*
X102658463Y-132667261D01*
X103229892Y-132667261D02*
X103229892Y-130667261D01*
X103039416Y-130952976D01*
X102848940Y-131143452D01*
X102658463Y-131238690D01*
X104658463Y-132476785D02*
X104753701Y-132572023D01*
X104658463Y-132667261D01*
X104563225Y-132572023D01*
X104658463Y-132476785D01*
X104658463Y-132667261D01*
X105991797Y-130667261D02*
X106182273Y-130667261D01*
X106372749Y-130762500D01*
X106467987Y-130857738D01*
X106563225Y-131048214D01*
X106658463Y-131429166D01*
X106658463Y-131905357D01*
X106563225Y-132286309D01*
X106467987Y-132476785D01*
X106372749Y-132572023D01*
X106182273Y-132667261D01*
X105991797Y-132667261D01*
X105801320Y-132572023D01*
X105706082Y-132476785D01*
X105610844Y-132286309D01*
X105515606Y-131905357D01*
X105515606Y-131429166D01*
X105610844Y-131048214D01*
X105706082Y-130857738D01*
X105801320Y-130762500D01*
X105991797Y-130667261D01*
X107325130Y-130667261D02*
X108563225Y-130667261D01*
X107896559Y-131429166D01*
X108182273Y-131429166D01*
X108372749Y-131524404D01*
X108467987Y-131619642D01*
X108563225Y-131810119D01*
X108563225Y-132286309D01*
X108467987Y-132476785D01*
X108372749Y-132572023D01*
X108182273Y-132667261D01*
X107610844Y-132667261D01*
X107420368Y-132572023D01*
X107325130Y-132476785D01*
D10*
X145743975Y-60195512D02*
X146543975Y-60195512D01*
X145743975Y-60576464D02*
X146543975Y-60576464D01*
X145743975Y-61033607D01*
X146543975Y-61033607D01*
X151707795Y-60591719D02*
X151707795Y-60210766D01*
X151326842Y-60172671D01*
X151364938Y-60210766D01*
X151403033Y-60286957D01*
X151403033Y-60477433D01*
X151364938Y-60553623D01*
X151326842Y-60591719D01*
X151250652Y-60629814D01*
X151060176Y-60629814D01*
X150983985Y-60591719D01*
X150945890Y-60553623D01*
X150907795Y-60477433D01*
X150907795Y-60286957D01*
X150945890Y-60210766D01*
X150983985Y-60172671D01*
X151707795Y-60858385D02*
X150907795Y-61125052D01*
X151707795Y-61391719D01*
X149119540Y-60528276D02*
X149157635Y-60452085D01*
X149157635Y-60337800D01*
X149119540Y-60223514D01*
X149043349Y-60147323D01*
X148967159Y-60109228D01*
X148814778Y-60071133D01*
X148700492Y-60071133D01*
X148548111Y-60109228D01*
X148471920Y-60147323D01*
X148395730Y-60223514D01*
X148357635Y-60337800D01*
X148357635Y-60413990D01*
X148395730Y-60528276D01*
X148433825Y-60566371D01*
X148700492Y-60566371D01*
X148700492Y-60413990D01*
X148357635Y-60909228D02*
X149157635Y-60909228D01*
X148357635Y-61366371D01*
X149157635Y-61366371D01*
X148357635Y-61747323D02*
X149157635Y-61747323D01*
X149157635Y-61937800D01*
X149119540Y-62052085D01*
X149043349Y-62128276D01*
X148967159Y-62166371D01*
X148814778Y-62204466D01*
X148700492Y-62204466D01*
X148548111Y-62166371D01*
X148471920Y-62128276D01*
X148395730Y-62052085D01*
X148357635Y-61937800D01*
X148357635Y-61747323D01*
X113631980Y-47688500D02*
X131511040Y-47833280D01*
X113710720Y-45438060D02*
X131467860Y-45516800D01*
X129606040Y-42880280D02*
X132941060Y-40863520D01*
X66951860Y-42646600D02*
X129606040Y-42880280D01*
X129529840Y-40243760D02*
X132862320Y-37840920D01*
X67106800Y-40165020D02*
X129529840Y-40243760D01*
X85676906Y-48103749D02*
X85791192Y-48141844D01*
X85981668Y-48141844D01*
X86057859Y-48103749D01*
X86095954Y-48065654D01*
X86134049Y-47989463D01*
X86134049Y-47913273D01*
X86095954Y-47837082D01*
X86057859Y-47798987D01*
X85981668Y-47760892D01*
X85829287Y-47722797D01*
X85753097Y-47684701D01*
X85715001Y-47646606D01*
X85676906Y-47570416D01*
X85676906Y-47494225D01*
X85715001Y-47418035D01*
X85753097Y-47379940D01*
X85829287Y-47341844D01*
X86019763Y-47341844D01*
X86134049Y-47379940D01*
X86934049Y-48065654D02*
X86895954Y-48103749D01*
X86781668Y-48141844D01*
X86705478Y-48141844D01*
X86591192Y-48103749D01*
X86515001Y-48027559D01*
X86476906Y-47951368D01*
X86438811Y-47798987D01*
X86438811Y-47684701D01*
X86476906Y-47532320D01*
X86515001Y-47456130D01*
X86591192Y-47379940D01*
X86705478Y-47341844D01*
X86781668Y-47341844D01*
X86895954Y-47379940D01*
X86934049Y-47418035D01*
X87657859Y-48141844D02*
X87276906Y-48141844D01*
X87276906Y-47341844D01*
X88343573Y-48141844D02*
X87886430Y-48141844D01*
X88115001Y-48141844D02*
X88115001Y-47341844D01*
X88038811Y-47456130D01*
X87962620Y-47532320D01*
X87886430Y-47570416D01*
X85657859Y-45518029D02*
X85772144Y-45556124D01*
X85962620Y-45556124D01*
X86038811Y-45518029D01*
X86076906Y-45479934D01*
X86115001Y-45403743D01*
X86115001Y-45327553D01*
X86076906Y-45251362D01*
X86038811Y-45213267D01*
X85962620Y-45175172D01*
X85810240Y-45137077D01*
X85734049Y-45098981D01*
X85695954Y-45060886D01*
X85657859Y-44984696D01*
X85657859Y-44908505D01*
X85695954Y-44832315D01*
X85734049Y-44794220D01*
X85810240Y-44756124D01*
X86000716Y-44756124D01*
X86115001Y-44794220D01*
X86457859Y-45556124D02*
X86457859Y-44756124D01*
X86648335Y-44756124D01*
X86762620Y-44794220D01*
X86838811Y-44870410D01*
X86876906Y-44946600D01*
X86915001Y-45098981D01*
X86915001Y-45213267D01*
X86876906Y-45365648D01*
X86838811Y-45441839D01*
X86762620Y-45518029D01*
X86648335Y-45556124D01*
X86457859Y-45556124D01*
X87219763Y-45327553D02*
X87600716Y-45327553D01*
X87143573Y-45556124D02*
X87410240Y-44756124D01*
X87676906Y-45556124D01*
X88362620Y-45556124D02*
X87905478Y-45556124D01*
X88134049Y-45556124D02*
X88134049Y-44756124D01*
X88057859Y-44870410D01*
X87981668Y-44946600D01*
X87905478Y-44984696D01*
X71381696Y-41626840D02*
X71305505Y-41588744D01*
X71191220Y-41588744D01*
X71076934Y-41626840D01*
X71000743Y-41703030D01*
X70962648Y-41779220D01*
X70924553Y-41931601D01*
X70924553Y-42045887D01*
X70962648Y-42198268D01*
X71000743Y-42274459D01*
X71076934Y-42350649D01*
X71191220Y-42388744D01*
X71267410Y-42388744D01*
X71381696Y-42350649D01*
X71419791Y-42312554D01*
X71419791Y-42045887D01*
X71267410Y-42045887D01*
X71762648Y-42388744D02*
X71762648Y-41588744D01*
X72219791Y-42388744D01*
X72219791Y-41588744D01*
X72600743Y-42388744D02*
X72600743Y-41588744D01*
X72791220Y-41588744D01*
X72905505Y-41626840D01*
X72981696Y-41703030D01*
X73019791Y-41779220D01*
X73057886Y-41931601D01*
X73057886Y-42045887D01*
X73019791Y-42198268D01*
X72981696Y-42274459D01*
X72905505Y-42350649D01*
X72791220Y-42388744D01*
X72600743Y-42388744D01*
X70965207Y-39030964D02*
X71460445Y-39030964D01*
X71193779Y-39335726D01*
X71308064Y-39335726D01*
X71384255Y-39373821D01*
X71422350Y-39411917D01*
X71460445Y-39488107D01*
X71460445Y-39678583D01*
X71422350Y-39754774D01*
X71384255Y-39792869D01*
X71308064Y-39830964D01*
X71079493Y-39830964D01*
X71003302Y-39792869D01*
X70965207Y-39754774D01*
X71803302Y-39754774D02*
X71841398Y-39792869D01*
X71803302Y-39830964D01*
X71765207Y-39792869D01*
X71803302Y-39754774D01*
X71803302Y-39830964D01*
X72108064Y-39030964D02*
X72603302Y-39030964D01*
X72336636Y-39335726D01*
X72450921Y-39335726D01*
X72527112Y-39373821D01*
X72565207Y-39411917D01*
X72603302Y-39488107D01*
X72603302Y-39678583D01*
X72565207Y-39754774D01*
X72527112Y-39792869D01*
X72450921Y-39830964D01*
X72222350Y-39830964D01*
X72146160Y-39792869D01*
X72108064Y-39754774D01*
X72831874Y-39030964D02*
X73098540Y-39830964D01*
X73365207Y-39030964D01*
D12*
X157386020Y-106474260D02*
X152306020Y-101394260D01*
X157386020Y-133144260D02*
X157386020Y-106474260D01*
X110396020Y-133144260D02*
X157386020Y-133144260D01*
X110396020Y-101394260D02*
X110396020Y-133144260D01*
X152234900Y-101152960D02*
X110324900Y-101152960D01*
D10*
X145480305Y-107601402D02*
X146146972Y-107601402D01*
X146432686Y-108649021D02*
X145480305Y-108649021D01*
X145480305Y-106649021D01*
X146432686Y-106649021D01*
X147194591Y-108553783D02*
X147480305Y-108649021D01*
X147956496Y-108649021D01*
X148146972Y-108553783D01*
X148242210Y-108458545D01*
X148337448Y-108268069D01*
X148337448Y-108077593D01*
X148242210Y-107887117D01*
X148146972Y-107791879D01*
X147956496Y-107696640D01*
X147575543Y-107601402D01*
X147385067Y-107506164D01*
X147289829Y-107410926D01*
X147194591Y-107220450D01*
X147194591Y-107029974D01*
X147289829Y-106839498D01*
X147385067Y-106744260D01*
X147575543Y-106649021D01*
X148051734Y-106649021D01*
X148337448Y-106744260D01*
X149194591Y-108649021D02*
X149194591Y-106649021D01*
X149956496Y-106649021D01*
X150146972Y-106744260D01*
X150242210Y-106839498D01*
X150337448Y-107029974D01*
X150337448Y-107315688D01*
X150242210Y-107506164D01*
X150146972Y-107601402D01*
X149956496Y-107696640D01*
X149194591Y-107696640D01*
X151004115Y-106649021D02*
X152242210Y-106649021D01*
X151575543Y-107410926D01*
X151861258Y-107410926D01*
X152051734Y-107506164D01*
X152146972Y-107601402D01*
X152242210Y-107791879D01*
X152242210Y-108268069D01*
X152146972Y-108458545D01*
X152051734Y-108553783D01*
X151861258Y-108649021D01*
X151289829Y-108649021D01*
X151099353Y-108553783D01*
X151004115Y-108458545D01*
X153004115Y-106839498D02*
X153099353Y-106744260D01*
X153289829Y-106649021D01*
X153766020Y-106649021D01*
X153956496Y-106744260D01*
X154051734Y-106839498D01*
X154146972Y-107029974D01*
X154146972Y-107220450D01*
X154051734Y-107506164D01*
X152908877Y-108649021D01*
X154146972Y-108649021D01*
X135362900Y-98648596D02*
X135400995Y-98572405D01*
X135400995Y-98458120D01*
X135362900Y-98343834D01*
X135286709Y-98267643D01*
X135210519Y-98229548D01*
X135058138Y-98191453D01*
X134943852Y-98191453D01*
X134791471Y-98229548D01*
X134715280Y-98267643D01*
X134639090Y-98343834D01*
X134600995Y-98458120D01*
X134600995Y-98534310D01*
X134639090Y-98648596D01*
X134677185Y-98686691D01*
X134943852Y-98686691D01*
X134943852Y-98534310D01*
X134600995Y-99029548D02*
X135400995Y-99029548D01*
X134600995Y-99486691D01*
X135400995Y-99486691D01*
X134600995Y-99867643D02*
X135400995Y-99867643D01*
X135400995Y-100058120D01*
X135362900Y-100172405D01*
X135286709Y-100248596D01*
X135210519Y-100286691D01*
X135058138Y-100324786D01*
X134943852Y-100324786D01*
X134791471Y-100286691D01*
X134715280Y-100248596D01*
X134639090Y-100172405D01*
X134600995Y-100058120D01*
X134600995Y-99867643D01*
X144649206Y-98277799D02*
X144649206Y-98658751D01*
X144420635Y-98201608D02*
X145220635Y-98468275D01*
X144420635Y-98734941D01*
X144420635Y-99420656D02*
X144420635Y-98963513D01*
X144420635Y-99192084D02*
X145220635Y-99192084D01*
X145106349Y-99115894D01*
X145030159Y-99039703D01*
X144992063Y-98963513D01*
X145220635Y-100106370D02*
X145220635Y-99953989D01*
X145182540Y-99877799D01*
X145144444Y-99839703D01*
X145030159Y-99763513D01*
X144877778Y-99725418D01*
X144573016Y-99725418D01*
X144496825Y-99763513D01*
X144458730Y-99801608D01*
X144420635Y-99877799D01*
X144420635Y-100030180D01*
X144458730Y-100106370D01*
X144496825Y-100144465D01*
X144573016Y-100182560D01*
X144763492Y-100182560D01*
X144839682Y-100144465D01*
X144877778Y-100106370D01*
X144915873Y-100030180D01*
X144915873Y-99877799D01*
X144877778Y-99801608D01*
X144839682Y-99763513D01*
X144763492Y-99725418D01*
X142109206Y-98277799D02*
X142109206Y-98658751D01*
X141880635Y-98201608D02*
X142680635Y-98468275D01*
X141880635Y-98734941D01*
X141880635Y-99420656D02*
X141880635Y-98963513D01*
X141880635Y-99192084D02*
X142680635Y-99192084D01*
X142566349Y-99115894D01*
X142490159Y-99039703D01*
X142452063Y-98963513D01*
X142680635Y-99687322D02*
X142680635Y-100220656D01*
X141880635Y-99877799D01*
X147849540Y-98874656D02*
X147887635Y-98798465D01*
X147887635Y-98684180D01*
X147849540Y-98569894D01*
X147773349Y-98493703D01*
X147697159Y-98455608D01*
X147544778Y-98417513D01*
X147430492Y-98417513D01*
X147278111Y-98455608D01*
X147201920Y-98493703D01*
X147125730Y-98569894D01*
X147087635Y-98684180D01*
X147087635Y-98760370D01*
X147125730Y-98874656D01*
X147163825Y-98912751D01*
X147430492Y-98912751D01*
X147430492Y-98760370D01*
X147087635Y-99255608D02*
X147887635Y-99255608D01*
X147087635Y-99712751D01*
X147887635Y-99712751D01*
X147087635Y-100093703D02*
X147887635Y-100093703D01*
X147887635Y-100284180D01*
X147849540Y-100398465D01*
X147773349Y-100474656D01*
X147697159Y-100512751D01*
X147544778Y-100550846D01*
X147430492Y-100550846D01*
X147278111Y-100512751D01*
X147201920Y-100474656D01*
X147125730Y-100398465D01*
X147087635Y-100284180D01*
X147087635Y-100093703D01*
X150130455Y-98369267D02*
X150130455Y-98864505D01*
X149825693Y-98597839D01*
X149825693Y-98712124D01*
X149787598Y-98788315D01*
X149749502Y-98826410D01*
X149673312Y-98864505D01*
X149482836Y-98864505D01*
X149406645Y-98826410D01*
X149368550Y-98788315D01*
X149330455Y-98712124D01*
X149330455Y-98483553D01*
X149368550Y-98407362D01*
X149406645Y-98369267D01*
X149406645Y-99207362D02*
X149368550Y-99245458D01*
X149330455Y-99207362D01*
X149368550Y-99169267D01*
X149406645Y-99207362D01*
X149330455Y-99207362D01*
X150130455Y-99512124D02*
X150130455Y-100007362D01*
X149825693Y-99740696D01*
X149825693Y-99854981D01*
X149787598Y-99931172D01*
X149749502Y-99969267D01*
X149673312Y-100007362D01*
X149482836Y-100007362D01*
X149406645Y-99969267D01*
X149368550Y-99931172D01*
X149330455Y-99854981D01*
X149330455Y-99626410D01*
X149368550Y-99550220D01*
X149406645Y-99512124D01*
X150130455Y-100235934D02*
X149330455Y-100502600D01*
X150130455Y-100769267D01*
X172683115Y-51973499D02*
X172683115Y-51592546D01*
X172302162Y-51554451D01*
X172340258Y-51592546D01*
X172378353Y-51668737D01*
X172378353Y-51859213D01*
X172340258Y-51935403D01*
X172302162Y-51973499D01*
X172225972Y-52011594D01*
X172035496Y-52011594D01*
X171959305Y-51973499D01*
X171921210Y-51935403D01*
X171883115Y-51859213D01*
X171883115Y-51668737D01*
X171921210Y-51592546D01*
X171959305Y-51554451D01*
X172683115Y-52240165D02*
X171883115Y-52506832D01*
X172683115Y-52773499D01*
X177831695Y-51414827D02*
X177831695Y-51910065D01*
X177526933Y-51643399D01*
X177526933Y-51757684D01*
X177488838Y-51833875D01*
X177450742Y-51871970D01*
X177374552Y-51910065D01*
X177184076Y-51910065D01*
X177107885Y-51871970D01*
X177069790Y-51833875D01*
X177031695Y-51757684D01*
X177031695Y-51529113D01*
X177069790Y-51452922D01*
X177107885Y-51414827D01*
X177107885Y-52252922D02*
X177069790Y-52291018D01*
X177031695Y-52252922D01*
X177069790Y-52214827D01*
X177107885Y-52252922D01*
X177031695Y-52252922D01*
X177831695Y-52557684D02*
X177831695Y-53052922D01*
X177526933Y-52786256D01*
X177526933Y-52900541D01*
X177488838Y-52976732D01*
X177450742Y-53014827D01*
X177374552Y-53052922D01*
X177184076Y-53052922D01*
X177107885Y-53014827D01*
X177069790Y-52976732D01*
X177031695Y-52900541D01*
X177031695Y-52671970D01*
X177069790Y-52595780D01*
X177107885Y-52557684D01*
X177831695Y-53281494D02*
X177031695Y-53548160D01*
X177831695Y-53814827D01*
X175258675Y-51771633D02*
X175258675Y-51924014D01*
X175220580Y-52000204D01*
X175144389Y-52076395D01*
X174992008Y-52114490D01*
X174725341Y-52114490D01*
X174572960Y-52076395D01*
X174496770Y-52000204D01*
X174458675Y-51924014D01*
X174458675Y-51771633D01*
X174496770Y-51695442D01*
X174572960Y-51619252D01*
X174725341Y-51581157D01*
X174992008Y-51581157D01*
X175144389Y-51619252D01*
X175220580Y-51695442D01*
X175258675Y-51771633D01*
X174992008Y-52800204D02*
X174458675Y-52800204D01*
X174992008Y-52457347D02*
X174572960Y-52457347D01*
X174496770Y-52495442D01*
X174458675Y-52571633D01*
X174458675Y-52685919D01*
X174496770Y-52762109D01*
X174534865Y-52800204D01*
X174992008Y-53066871D02*
X174992008Y-53371633D01*
X175258675Y-53181157D02*
X174572960Y-53181157D01*
X174496770Y-53219252D01*
X174458675Y-53295442D01*
X174458675Y-53371633D01*
X163041275Y-51864279D02*
X163041275Y-51483326D01*
X162660322Y-51445231D01*
X162698418Y-51483326D01*
X162736513Y-51559517D01*
X162736513Y-51749993D01*
X162698418Y-51826183D01*
X162660322Y-51864279D01*
X162584132Y-51902374D01*
X162393656Y-51902374D01*
X162317465Y-51864279D01*
X162279370Y-51826183D01*
X162241275Y-51749993D01*
X162241275Y-51559517D01*
X162279370Y-51483326D01*
X162317465Y-51445231D01*
X163041275Y-52130945D02*
X162241275Y-52397612D01*
X163041275Y-52664279D01*
X165850515Y-51583673D02*
X165850515Y-51736054D01*
X165812420Y-51812244D01*
X165736229Y-51888435D01*
X165583848Y-51926530D01*
X165317181Y-51926530D01*
X165164800Y-51888435D01*
X165088610Y-51812244D01*
X165050515Y-51736054D01*
X165050515Y-51583673D01*
X165088610Y-51507482D01*
X165164800Y-51431292D01*
X165317181Y-51393197D01*
X165583848Y-51393197D01*
X165736229Y-51431292D01*
X165812420Y-51507482D01*
X165850515Y-51583673D01*
X165583848Y-52612244D02*
X165050515Y-52612244D01*
X165583848Y-52269387D02*
X165164800Y-52269387D01*
X165088610Y-52307482D01*
X165050515Y-52383673D01*
X165050515Y-52497959D01*
X165088610Y-52574149D01*
X165126705Y-52612244D01*
X165583848Y-52878911D02*
X165583848Y-53183673D01*
X165850515Y-52993197D02*
X165164800Y-52993197D01*
X165088610Y-53031292D01*
X165050515Y-53107482D01*
X165050515Y-53183673D01*
X168316855Y-51475787D02*
X168316855Y-51971025D01*
X168012093Y-51704359D01*
X168012093Y-51818644D01*
X167973998Y-51894835D01*
X167935902Y-51932930D01*
X167859712Y-51971025D01*
X167669236Y-51971025D01*
X167593045Y-51932930D01*
X167554950Y-51894835D01*
X167516855Y-51818644D01*
X167516855Y-51590073D01*
X167554950Y-51513882D01*
X167593045Y-51475787D01*
X167593045Y-52313882D02*
X167554950Y-52351978D01*
X167516855Y-52313882D01*
X167554950Y-52275787D01*
X167593045Y-52313882D01*
X167516855Y-52313882D01*
X168316855Y-52618644D02*
X168316855Y-53113882D01*
X168012093Y-52847216D01*
X168012093Y-52961501D01*
X167973998Y-53037692D01*
X167935902Y-53075787D01*
X167859712Y-53113882D01*
X167669236Y-53113882D01*
X167593045Y-53075787D01*
X167554950Y-53037692D01*
X167516855Y-52961501D01*
X167516855Y-52732930D01*
X167554950Y-52656740D01*
X167593045Y-52618644D01*
X168316855Y-53342454D02*
X167516855Y-53609120D01*
X168316855Y-53875787D01*
X97764723Y-66097204D02*
X98221866Y-66097204D01*
X97993295Y-66897204D02*
X97993295Y-66097204D01*
X98412342Y-66097204D02*
X98945676Y-66897204D01*
X98945676Y-66097204D02*
X98412342Y-66897204D01*
X99631390Y-66097204D02*
X99250438Y-66097204D01*
X99212342Y-66478157D01*
X99250438Y-66440061D01*
X99326628Y-66401966D01*
X99517104Y-66401966D01*
X99593295Y-66440061D01*
X99631390Y-66478157D01*
X99669485Y-66554347D01*
X99669485Y-66744823D01*
X99631390Y-66821014D01*
X99593295Y-66859109D01*
X99517104Y-66897204D01*
X99326628Y-66897204D01*
X99250438Y-66859109D01*
X99212342Y-66821014D01*
X98126614Y-69254324D02*
X97859947Y-68873372D01*
X97669471Y-69254324D02*
X97669471Y-68454324D01*
X97974233Y-68454324D01*
X98050423Y-68492420D01*
X98088519Y-68530515D01*
X98126614Y-68606705D01*
X98126614Y-68720991D01*
X98088519Y-68797181D01*
X98050423Y-68835277D01*
X97974233Y-68873372D01*
X97669471Y-68873372D01*
X98393280Y-68454324D02*
X98926614Y-69254324D01*
X98926614Y-68454324D02*
X98393280Y-69254324D01*
X99612328Y-68454324D02*
X99231376Y-68454324D01*
X99193280Y-68835277D01*
X99231376Y-68797181D01*
X99307566Y-68759086D01*
X99498042Y-68759086D01*
X99574233Y-68797181D01*
X99612328Y-68835277D01*
X99650423Y-68911467D01*
X99650423Y-69101943D01*
X99612328Y-69178134D01*
X99574233Y-69216229D01*
X99498042Y-69254324D01*
X99307566Y-69254324D01*
X99231376Y-69216229D01*
X99193280Y-69178134D01*
X98488519Y-58568644D02*
X98107566Y-58568644D01*
X98069471Y-58949597D01*
X98107566Y-58911501D01*
X98183757Y-58873406D01*
X98374233Y-58873406D01*
X98450423Y-58911501D01*
X98488519Y-58949597D01*
X98526614Y-59025787D01*
X98526614Y-59216263D01*
X98488519Y-59292454D01*
X98450423Y-59330549D01*
X98374233Y-59368644D01*
X98183757Y-59368644D01*
X98107566Y-59330549D01*
X98069471Y-59292454D01*
X98755185Y-58568644D02*
X99021852Y-59368644D01*
X99288519Y-58568644D01*
X98023827Y-61040064D02*
X98519065Y-61040064D01*
X98252399Y-61344826D01*
X98366684Y-61344826D01*
X98442875Y-61382921D01*
X98480970Y-61421017D01*
X98519065Y-61497207D01*
X98519065Y-61687683D01*
X98480970Y-61763874D01*
X98442875Y-61801969D01*
X98366684Y-61840064D01*
X98138113Y-61840064D01*
X98061922Y-61801969D01*
X98023827Y-61763874D01*
X98861922Y-61763874D02*
X98900018Y-61801969D01*
X98861922Y-61840064D01*
X98823827Y-61801969D01*
X98861922Y-61763874D01*
X98861922Y-61840064D01*
X99166684Y-61040064D02*
X99661922Y-61040064D01*
X99395256Y-61344826D01*
X99509541Y-61344826D01*
X99585732Y-61382921D01*
X99623827Y-61421017D01*
X99661922Y-61497207D01*
X99661922Y-61687683D01*
X99623827Y-61763874D01*
X99585732Y-61801969D01*
X99509541Y-61840064D01*
X99280970Y-61840064D01*
X99204780Y-61801969D01*
X99166684Y-61763874D01*
X99890494Y-61040064D02*
X100157160Y-61840064D01*
X100423827Y-61040064D01*
X98257436Y-63549580D02*
X98181245Y-63511484D01*
X98066960Y-63511484D01*
X97952674Y-63549580D01*
X97876483Y-63625770D01*
X97838388Y-63701960D01*
X97800293Y-63854341D01*
X97800293Y-63968627D01*
X97838388Y-64121008D01*
X97876483Y-64197199D01*
X97952674Y-64273389D01*
X98066960Y-64311484D01*
X98143150Y-64311484D01*
X98257436Y-64273389D01*
X98295531Y-64235294D01*
X98295531Y-63968627D01*
X98143150Y-63968627D01*
X98638388Y-64311484D02*
X98638388Y-63511484D01*
X99095531Y-64311484D01*
X99095531Y-63511484D01*
X99476483Y-64311484D02*
X99476483Y-63511484D01*
X99666960Y-63511484D01*
X99781245Y-63549580D01*
X99857436Y-63625770D01*
X99895531Y-63701960D01*
X99933626Y-63854341D01*
X99933626Y-63968627D01*
X99895531Y-64121008D01*
X99857436Y-64197199D01*
X99781245Y-64273389D01*
X99666960Y-64311484D01*
X99476483Y-64311484D01*
X48645345Y-83834242D02*
X48597726Y-83881861D01*
X48454869Y-83929480D01*
X48359631Y-83929480D01*
X48216774Y-83881861D01*
X48121536Y-83786623D01*
X48073917Y-83691385D01*
X48026298Y-83500909D01*
X48026298Y-83358052D01*
X48073917Y-83167576D01*
X48121536Y-83072338D01*
X48216774Y-82977100D01*
X48359631Y-82929480D01*
X48454869Y-82929480D01*
X48597726Y-82977100D01*
X48645345Y-83024719D01*
X49073917Y-83929480D02*
X49073917Y-82929480D01*
X49502488Y-83929480D02*
X49502488Y-83405671D01*
X49454869Y-83310433D01*
X49359631Y-83262814D01*
X49216774Y-83262814D01*
X49121536Y-83310433D01*
X49073917Y-83358052D01*
X50407250Y-83929480D02*
X50407250Y-83405671D01*
X50359631Y-83310433D01*
X50264393Y-83262814D01*
X50073917Y-83262814D01*
X49978679Y-83310433D01*
X50407250Y-83881861D02*
X50312012Y-83929480D01*
X50073917Y-83929480D01*
X49978679Y-83881861D01*
X49931060Y-83786623D01*
X49931060Y-83691385D01*
X49978679Y-83596147D01*
X50073917Y-83548528D01*
X50312012Y-83548528D01*
X50407250Y-83500909D01*
X50883440Y-83929480D02*
X50883440Y-83262814D01*
X50883440Y-83453290D02*
X50931060Y-83358052D01*
X50978679Y-83310433D01*
X51073917Y-83262814D01*
X51169155Y-83262814D01*
X51931060Y-83262814D02*
X51931060Y-84072338D01*
X51883440Y-84167576D01*
X51835821Y-84215195D01*
X51740583Y-84262814D01*
X51597726Y-84262814D01*
X51502488Y-84215195D01*
X51931060Y-83881861D02*
X51835821Y-83929480D01*
X51645345Y-83929480D01*
X51550107Y-83881861D01*
X51502488Y-83834242D01*
X51454869Y-83739004D01*
X51454869Y-83453290D01*
X51502488Y-83358052D01*
X51550107Y-83310433D01*
X51645345Y-83262814D01*
X51835821Y-83262814D01*
X51931060Y-83310433D01*
X52788202Y-83881861D02*
X52692964Y-83929480D01*
X52502488Y-83929480D01*
X52407250Y-83881861D01*
X52359631Y-83786623D01*
X52359631Y-83405671D01*
X52407250Y-83310433D01*
X52502488Y-83262814D01*
X52692964Y-83262814D01*
X52788202Y-83310433D01*
X52835821Y-83405671D01*
X52835821Y-83500909D01*
X52359631Y-83596147D01*
X53264393Y-83405671D02*
X53597726Y-83405671D01*
X53740583Y-83929480D02*
X53264393Y-83929480D01*
X53264393Y-82929480D01*
X53740583Y-82929480D01*
X54169155Y-83262814D02*
X54169155Y-83929480D01*
X54169155Y-83358052D02*
X54216774Y-83310433D01*
X54312012Y-83262814D01*
X54454869Y-83262814D01*
X54550107Y-83310433D01*
X54597726Y-83405671D01*
X54597726Y-83929480D01*
X55502488Y-83929480D02*
X55502488Y-83405671D01*
X55454869Y-83310433D01*
X55359631Y-83262814D01*
X55169155Y-83262814D01*
X55073917Y-83310433D01*
X55502488Y-83881861D02*
X55407250Y-83929480D01*
X55169155Y-83929480D01*
X55073917Y-83881861D01*
X55026298Y-83786623D01*
X55026298Y-83691385D01*
X55073917Y-83596147D01*
X55169155Y-83548528D01*
X55407250Y-83548528D01*
X55502488Y-83500909D01*
X55978679Y-83929480D02*
X55978679Y-82929480D01*
X55978679Y-83310433D02*
X56073917Y-83262814D01*
X56264393Y-83262814D01*
X56359631Y-83310433D01*
X56407250Y-83358052D01*
X56454869Y-83453290D01*
X56454869Y-83739004D01*
X56407250Y-83834242D01*
X56359631Y-83881861D01*
X56264393Y-83929480D01*
X56073917Y-83929480D01*
X55978679Y-83881861D01*
X57026298Y-83929480D02*
X56931060Y-83881861D01*
X56883440Y-83786623D01*
X56883440Y-82929480D01*
X57788202Y-83881861D02*
X57692964Y-83929480D01*
X57502488Y-83929480D01*
X57407250Y-83881861D01*
X57359631Y-83786623D01*
X57359631Y-83405671D01*
X57407250Y-83310433D01*
X57502488Y-83262814D01*
X57692964Y-83262814D01*
X57788202Y-83310433D01*
X57835821Y-83405671D01*
X57835821Y-83500909D01*
X57359631Y-83596147D01*
X48371049Y-80906311D02*
X48513906Y-80953930D01*
X48561525Y-81001549D01*
X48609144Y-81096787D01*
X48609144Y-81239644D01*
X48561525Y-81334882D01*
X48513906Y-81382501D01*
X48418668Y-81430120D01*
X48037716Y-81430120D01*
X48037716Y-80430120D01*
X48371049Y-80430120D01*
X48466287Y-80477740D01*
X48513906Y-80525359D01*
X48561525Y-80620597D01*
X48561525Y-80715835D01*
X48513906Y-80811073D01*
X48466287Y-80858692D01*
X48371049Y-80906311D01*
X48037716Y-80906311D01*
X49466287Y-81430120D02*
X49466287Y-80906311D01*
X49418668Y-80811073D01*
X49323430Y-80763454D01*
X49132954Y-80763454D01*
X49037716Y-80811073D01*
X49466287Y-81382501D02*
X49371049Y-81430120D01*
X49132954Y-81430120D01*
X49037716Y-81382501D01*
X48990097Y-81287263D01*
X48990097Y-81192025D01*
X49037716Y-81096787D01*
X49132954Y-81049168D01*
X49371049Y-81049168D01*
X49466287Y-81001549D01*
X49799620Y-80763454D02*
X50180573Y-80763454D01*
X49942478Y-80430120D02*
X49942478Y-81287263D01*
X49990097Y-81382501D01*
X50085335Y-81430120D01*
X50180573Y-81430120D01*
X50371049Y-80763454D02*
X50752001Y-80763454D01*
X50513906Y-80430120D02*
X50513906Y-81287263D01*
X50561525Y-81382501D01*
X50656763Y-81430120D01*
X50752001Y-81430120D01*
X51466287Y-81382501D02*
X51371049Y-81430120D01*
X51180573Y-81430120D01*
X51085335Y-81382501D01*
X51037716Y-81287263D01*
X51037716Y-80906311D01*
X51085335Y-80811073D01*
X51180573Y-80763454D01*
X51371049Y-80763454D01*
X51466287Y-80811073D01*
X51513906Y-80906311D01*
X51513906Y-81001549D01*
X51037716Y-81096787D01*
X51942478Y-81430120D02*
X51942478Y-80763454D01*
X51942478Y-80953930D02*
X51990097Y-80858692D01*
X52037716Y-80811073D01*
X52132954Y-80763454D01*
X52228192Y-80763454D01*
X52466287Y-80763454D02*
X52704382Y-81430120D01*
X52942478Y-80763454D02*
X52704382Y-81430120D01*
X52609144Y-81668216D01*
X52561525Y-81715835D01*
X52466287Y-81763454D01*
X53275811Y-81382501D02*
X53418668Y-81430120D01*
X53656763Y-81430120D01*
X53752001Y-81382501D01*
X53799620Y-81334882D01*
X53847240Y-81239644D01*
X53847240Y-81144406D01*
X53799620Y-81049168D01*
X53752001Y-81001549D01*
X53656763Y-80953930D01*
X53466287Y-80906311D01*
X53371049Y-80858692D01*
X53323430Y-80811073D01*
X53275811Y-80715835D01*
X53275811Y-80620597D01*
X53323430Y-80525359D01*
X53371049Y-80477740D01*
X53466287Y-80430120D01*
X53704382Y-80430120D01*
X53847240Y-80477740D01*
X54180573Y-80763454D02*
X54371049Y-81430120D01*
X54561525Y-80953930D01*
X54752001Y-81430120D01*
X54942478Y-80763454D01*
X55323430Y-81430120D02*
X55323430Y-80763454D01*
X55323430Y-80430120D02*
X55275811Y-80477740D01*
X55323430Y-80525359D01*
X55371049Y-80477740D01*
X55323430Y-80430120D01*
X55323430Y-80525359D01*
X55656763Y-80763454D02*
X56037716Y-80763454D01*
X55799620Y-80430120D02*
X55799620Y-81287263D01*
X55847240Y-81382501D01*
X55942478Y-81430120D01*
X56037716Y-81430120D01*
X56799620Y-81382501D02*
X56704382Y-81430120D01*
X56513906Y-81430120D01*
X56418668Y-81382501D01*
X56371049Y-81334882D01*
X56323430Y-81239644D01*
X56323430Y-80953930D01*
X56371049Y-80858692D01*
X56418668Y-80811073D01*
X56513906Y-80763454D01*
X56704382Y-80763454D01*
X56799620Y-80811073D01*
X57228192Y-81430120D02*
X57228192Y-80430120D01*
X57656763Y-81430120D02*
X57656763Y-80906311D01*
X57609144Y-80811073D01*
X57513906Y-80763454D01*
X57371049Y-80763454D01*
X57275811Y-80811073D01*
X57228192Y-80858692D01*
X164787599Y-86737244D02*
X164406646Y-86737244D01*
X164368551Y-87118197D01*
X164406646Y-87080101D01*
X164482837Y-87042006D01*
X164673313Y-87042006D01*
X164749503Y-87080101D01*
X164787599Y-87118197D01*
X164825694Y-87194387D01*
X164825694Y-87384863D01*
X164787599Y-87461054D01*
X164749503Y-87499149D01*
X164673313Y-87537244D01*
X164482837Y-87537244D01*
X164406646Y-87499149D01*
X164368551Y-87461054D01*
X165054265Y-86737244D02*
X165320932Y-87537244D01*
X165587599Y-86737244D01*
X164368627Y-84187084D02*
X164863865Y-84187084D01*
X164597199Y-84491846D01*
X164711484Y-84491846D01*
X164787675Y-84529941D01*
X164825770Y-84568037D01*
X164863865Y-84644227D01*
X164863865Y-84834703D01*
X164825770Y-84910894D01*
X164787675Y-84948989D01*
X164711484Y-84987084D01*
X164482913Y-84987084D01*
X164406722Y-84948989D01*
X164368627Y-84910894D01*
X165206722Y-84910894D02*
X165244818Y-84948989D01*
X165206722Y-84987084D01*
X165168627Y-84948989D01*
X165206722Y-84910894D01*
X165206722Y-84987084D01*
X165511484Y-84187084D02*
X166006722Y-84187084D01*
X165740056Y-84491846D01*
X165854341Y-84491846D01*
X165930532Y-84529941D01*
X165968627Y-84568037D01*
X166006722Y-84644227D01*
X166006722Y-84834703D01*
X165968627Y-84910894D01*
X165930532Y-84948989D01*
X165854341Y-84987084D01*
X165625770Y-84987084D01*
X165549580Y-84948989D01*
X165511484Y-84910894D01*
X166235294Y-84187084D02*
X166501960Y-84987084D01*
X166768627Y-84187084D01*
X164235232Y-92561369D02*
X164349518Y-92599464D01*
X164539994Y-92599464D01*
X164616184Y-92561369D01*
X164654280Y-92523274D01*
X164692375Y-92447083D01*
X164692375Y-92370893D01*
X164654280Y-92294702D01*
X164616184Y-92256607D01*
X164539994Y-92218512D01*
X164387613Y-92180417D01*
X164311422Y-92142321D01*
X164273327Y-92104226D01*
X164235232Y-92028036D01*
X164235232Y-91951845D01*
X164273327Y-91875655D01*
X164311422Y-91837560D01*
X164387613Y-91799464D01*
X164578089Y-91799464D01*
X164692375Y-91837560D01*
X165035232Y-92599464D02*
X165035232Y-91799464D01*
X165835232Y-91837560D02*
X165759041Y-91799464D01*
X165644756Y-91799464D01*
X165530470Y-91837560D01*
X165454280Y-91913750D01*
X165416184Y-91989940D01*
X165378089Y-92142321D01*
X165378089Y-92256607D01*
X165416184Y-92408988D01*
X165454280Y-92485179D01*
X165530470Y-92561369D01*
X165644756Y-92599464D01*
X165720946Y-92599464D01*
X165835232Y-92561369D01*
X165873327Y-92523274D01*
X165873327Y-92256607D01*
X165720946Y-92256607D01*
X164673356Y-89249300D02*
X164597165Y-89211204D01*
X164482880Y-89211204D01*
X164368594Y-89249300D01*
X164292403Y-89325490D01*
X164254308Y-89401680D01*
X164216213Y-89554061D01*
X164216213Y-89668347D01*
X164254308Y-89820728D01*
X164292403Y-89896919D01*
X164368594Y-89973109D01*
X164482880Y-90011204D01*
X164559070Y-90011204D01*
X164673356Y-89973109D01*
X164711451Y-89935014D01*
X164711451Y-89668347D01*
X164559070Y-89668347D01*
X165054308Y-90011204D02*
X165054308Y-89211204D01*
X165511451Y-90011204D01*
X165511451Y-89211204D01*
X165892403Y-90011204D02*
X165892403Y-89211204D01*
X166082880Y-89211204D01*
X166197165Y-89249300D01*
X166273356Y-89325490D01*
X166311451Y-89401680D01*
X166349546Y-89554061D01*
X166349546Y-89668347D01*
X166311451Y-89820728D01*
X166273356Y-89896919D01*
X166197165Y-89973109D01*
X166082880Y-90011204D01*
X165892403Y-90011204D01*
X163932947Y-69724304D02*
X164428185Y-69724304D01*
X164161519Y-70029066D01*
X164275804Y-70029066D01*
X164351995Y-70067161D01*
X164390090Y-70105257D01*
X164428185Y-70181447D01*
X164428185Y-70371923D01*
X164390090Y-70448114D01*
X164351995Y-70486209D01*
X164275804Y-70524304D01*
X164047233Y-70524304D01*
X163971042Y-70486209D01*
X163932947Y-70448114D01*
X164771042Y-70448114D02*
X164809138Y-70486209D01*
X164771042Y-70524304D01*
X164732947Y-70486209D01*
X164771042Y-70448114D01*
X164771042Y-70524304D01*
X165075804Y-69724304D02*
X165571042Y-69724304D01*
X165304376Y-70029066D01*
X165418661Y-70029066D01*
X165494852Y-70067161D01*
X165532947Y-70105257D01*
X165571042Y-70181447D01*
X165571042Y-70371923D01*
X165532947Y-70448114D01*
X165494852Y-70486209D01*
X165418661Y-70524304D01*
X165190090Y-70524304D01*
X165113900Y-70486209D01*
X165075804Y-70448114D01*
X165799614Y-69724304D02*
X166066280Y-70524304D01*
X166332947Y-69724304D01*
X164345639Y-71982384D02*
X163964686Y-71982384D01*
X163926591Y-72363337D01*
X163964686Y-72325241D01*
X164040877Y-72287146D01*
X164231353Y-72287146D01*
X164307543Y-72325241D01*
X164345639Y-72363337D01*
X164383734Y-72439527D01*
X164383734Y-72630003D01*
X164345639Y-72706194D01*
X164307543Y-72744289D01*
X164231353Y-72782384D01*
X164040877Y-72782384D01*
X163964686Y-72744289D01*
X163926591Y-72706194D01*
X164612305Y-71982384D02*
X164878972Y-72782384D01*
X165145639Y-71982384D01*
X163938052Y-77717609D02*
X164052338Y-77755704D01*
X164242814Y-77755704D01*
X164319004Y-77717609D01*
X164357100Y-77679514D01*
X164395195Y-77603323D01*
X164395195Y-77527133D01*
X164357100Y-77450942D01*
X164319004Y-77412847D01*
X164242814Y-77374752D01*
X164090433Y-77336657D01*
X164014242Y-77298561D01*
X163976147Y-77260466D01*
X163938052Y-77184276D01*
X163938052Y-77108085D01*
X163976147Y-77031895D01*
X164014242Y-76993800D01*
X164090433Y-76955704D01*
X164280909Y-76955704D01*
X164395195Y-76993800D01*
X164738052Y-77755704D02*
X164738052Y-76955704D01*
X165538052Y-76993800D02*
X165461861Y-76955704D01*
X165347576Y-76955704D01*
X165233290Y-76993800D01*
X165157100Y-77069990D01*
X165119004Y-77146180D01*
X165080909Y-77298561D01*
X165080909Y-77412847D01*
X165119004Y-77565228D01*
X165157100Y-77641419D01*
X165233290Y-77717609D01*
X165347576Y-77755704D01*
X165423766Y-77755704D01*
X165538052Y-77717609D01*
X165576147Y-77679514D01*
X165576147Y-77412847D01*
X165423766Y-77412847D01*
X164345696Y-74418240D02*
X164269505Y-74380144D01*
X164155220Y-74380144D01*
X164040934Y-74418240D01*
X163964743Y-74494430D01*
X163926648Y-74570620D01*
X163888553Y-74723001D01*
X163888553Y-74837287D01*
X163926648Y-74989668D01*
X163964743Y-75065859D01*
X164040934Y-75142049D01*
X164155220Y-75180144D01*
X164231410Y-75180144D01*
X164345696Y-75142049D01*
X164383791Y-75103954D01*
X164383791Y-74837287D01*
X164231410Y-74837287D01*
X164726648Y-75180144D02*
X164726648Y-74380144D01*
X165183791Y-75180144D01*
X165183791Y-74380144D01*
X165564743Y-75180144D02*
X165564743Y-74380144D01*
X165755220Y-74380144D01*
X165869505Y-74418240D01*
X165945696Y-74494430D01*
X165983791Y-74570620D01*
X166021886Y-74723001D01*
X166021886Y-74837287D01*
X165983791Y-74989668D01*
X165945696Y-75065859D01*
X165869505Y-75142049D01*
X165755220Y-75180144D01*
X165564743Y-75180144D01*
X168328440Y-82556304D02*
X168328440Y-81756304D01*
X168518916Y-81756304D01*
X168633201Y-81794400D01*
X168709392Y-81870590D01*
X168747487Y-81946780D01*
X168785582Y-82099161D01*
X168785582Y-82213447D01*
X168747487Y-82365828D01*
X168709392Y-82442019D01*
X168633201Y-82518209D01*
X168518916Y-82556304D01*
X168328440Y-82556304D01*
X169128440Y-82556304D02*
X169128440Y-81756304D01*
X169966535Y-82556304D02*
X169699868Y-82175352D01*
X169509392Y-82556304D02*
X169509392Y-81756304D01*
X169814154Y-81756304D01*
X169890344Y-81794400D01*
X169928440Y-81832495D01*
X169966535Y-81908685D01*
X169966535Y-82022971D01*
X169928440Y-82099161D01*
X169890344Y-82137257D01*
X169814154Y-82175352D01*
X169509392Y-82175352D01*
X168604003Y-84781397D02*
X168870670Y-84781397D01*
X168984956Y-85200444D02*
X168604003Y-85200444D01*
X168604003Y-84400444D01*
X168984956Y-84400444D01*
X169327813Y-85200444D02*
X169327813Y-84400444D01*
X169784956Y-85200444D01*
X169784956Y-84400444D01*
X168813527Y-75057308D02*
X169575432Y-75057308D01*
X169194480Y-75438260D02*
X169194480Y-74676356D01*
X168202750Y-80242364D02*
X168202750Y-79442364D01*
X168507512Y-79442364D01*
X168583702Y-79480460D01*
X168621798Y-79518555D01*
X168659893Y-79594745D01*
X168659893Y-79709031D01*
X168621798Y-79785221D01*
X168583702Y-79823317D01*
X168507512Y-79861412D01*
X168202750Y-79861412D01*
X168926560Y-79442364D02*
X169117036Y-80242364D01*
X169269417Y-79670936D01*
X169421798Y-80242364D01*
X169612274Y-79442364D01*
X169917036Y-80242364D02*
X169917036Y-79442364D01*
X170183702Y-80013793D01*
X170450369Y-79442364D01*
X170450369Y-80242364D01*
X168650996Y-77031900D02*
X168574805Y-76993804D01*
X168460520Y-76993804D01*
X168346234Y-77031900D01*
X168270043Y-77108090D01*
X168231948Y-77184280D01*
X168193853Y-77336661D01*
X168193853Y-77450947D01*
X168231948Y-77603328D01*
X168270043Y-77679519D01*
X168346234Y-77755709D01*
X168460520Y-77793804D01*
X168536710Y-77793804D01*
X168650996Y-77755709D01*
X168689091Y-77717614D01*
X168689091Y-77450947D01*
X168536710Y-77450947D01*
X169031948Y-77793804D02*
X169031948Y-76993804D01*
X169489091Y-77793804D01*
X169489091Y-76993804D01*
X169870043Y-77793804D02*
X169870043Y-76993804D01*
X170060520Y-76993804D01*
X170174805Y-77031900D01*
X170250996Y-77108090D01*
X170289091Y-77184280D01*
X170327186Y-77336661D01*
X170327186Y-77450947D01*
X170289091Y-77603328D01*
X170250996Y-77679519D01*
X170174805Y-77755709D01*
X170060520Y-77793804D01*
X169870043Y-77793804D01*
X105115526Y-48118989D02*
X105229812Y-48157084D01*
X105420288Y-48157084D01*
X105496479Y-48118989D01*
X105534574Y-48080894D01*
X105572669Y-48004703D01*
X105572669Y-47928513D01*
X105534574Y-47852322D01*
X105496479Y-47814227D01*
X105420288Y-47776132D01*
X105267907Y-47738037D01*
X105191717Y-47699941D01*
X105153621Y-47661846D01*
X105115526Y-47585656D01*
X105115526Y-47509465D01*
X105153621Y-47433275D01*
X105191717Y-47395180D01*
X105267907Y-47357084D01*
X105458383Y-47357084D01*
X105572669Y-47395180D01*
X106372669Y-48080894D02*
X106334574Y-48118989D01*
X106220288Y-48157084D01*
X106144098Y-48157084D01*
X106029812Y-48118989D01*
X105953621Y-48042799D01*
X105915526Y-47966608D01*
X105877431Y-47814227D01*
X105877431Y-47699941D01*
X105915526Y-47547560D01*
X105953621Y-47471370D01*
X106029812Y-47395180D01*
X106144098Y-47357084D01*
X106220288Y-47357084D01*
X106334574Y-47395180D01*
X106372669Y-47433275D01*
X107096479Y-48157084D02*
X106715526Y-48157084D01*
X106715526Y-47357084D01*
X107325050Y-47433275D02*
X107363145Y-47395180D01*
X107439336Y-47357084D01*
X107629812Y-47357084D01*
X107706002Y-47395180D01*
X107744098Y-47433275D01*
X107782193Y-47509465D01*
X107782193Y-47585656D01*
X107744098Y-47699941D01*
X107286955Y-48157084D01*
X107782193Y-48157084D01*
X105190459Y-45683129D02*
X105304744Y-45721224D01*
X105495220Y-45721224D01*
X105571411Y-45683129D01*
X105609506Y-45645034D01*
X105647601Y-45568843D01*
X105647601Y-45492653D01*
X105609506Y-45416462D01*
X105571411Y-45378367D01*
X105495220Y-45340272D01*
X105342840Y-45302177D01*
X105266649Y-45264081D01*
X105228554Y-45225986D01*
X105190459Y-45149796D01*
X105190459Y-45073605D01*
X105228554Y-44997415D01*
X105266649Y-44959320D01*
X105342840Y-44921224D01*
X105533316Y-44921224D01*
X105647601Y-44959320D01*
X105990459Y-45721224D02*
X105990459Y-44921224D01*
X106180935Y-44921224D01*
X106295220Y-44959320D01*
X106371411Y-45035510D01*
X106409506Y-45111700D01*
X106447601Y-45264081D01*
X106447601Y-45378367D01*
X106409506Y-45530748D01*
X106371411Y-45606939D01*
X106295220Y-45683129D01*
X106180935Y-45721224D01*
X105990459Y-45721224D01*
X106752363Y-45492653D02*
X107133316Y-45492653D01*
X106676173Y-45721224D02*
X106942840Y-44921224D01*
X107209506Y-45721224D01*
X107438078Y-44997415D02*
X107476173Y-44959320D01*
X107552363Y-44921224D01*
X107742840Y-44921224D01*
X107819030Y-44959320D01*
X107857125Y-44997415D01*
X107895220Y-45073605D01*
X107895220Y-45149796D01*
X107857125Y-45264081D01*
X107399982Y-45721224D01*
X107895220Y-45721224D01*
D11*
X49408175Y-92293820D02*
X49312937Y-92246200D01*
X49170080Y-92246200D01*
X49027222Y-92293820D01*
X48931984Y-92389058D01*
X48884365Y-92484296D01*
X48836746Y-92674772D01*
X48836746Y-92817629D01*
X48884365Y-93008105D01*
X48931984Y-93103343D01*
X49027222Y-93198581D01*
X49170080Y-93246200D01*
X49265318Y-93246200D01*
X49408175Y-93198581D01*
X49455794Y-93150962D01*
X49455794Y-92817629D01*
X49265318Y-92817629D01*
X49884365Y-93246200D02*
X49884365Y-92246200D01*
X50455794Y-93246200D01*
X50455794Y-92246200D01*
X50931984Y-93246200D02*
X50931984Y-92246200D01*
X51170080Y-92246200D01*
X51312937Y-92293820D01*
X51408175Y-92389058D01*
X51455794Y-92484296D01*
X51503413Y-92674772D01*
X51503413Y-92817629D01*
X51455794Y-93008105D01*
X51408175Y-93103343D01*
X51312937Y-93198581D01*
X51170080Y-93246200D01*
X50931984Y-93246200D01*
X48479603Y-95738581D02*
X48622460Y-95786200D01*
X48860556Y-95786200D01*
X48955794Y-95738581D01*
X49003413Y-95690962D01*
X49051032Y-95595724D01*
X49051032Y-95500486D01*
X49003413Y-95405248D01*
X48955794Y-95357629D01*
X48860556Y-95310010D01*
X48670080Y-95262391D01*
X48574841Y-95214772D01*
X48527222Y-95167153D01*
X48479603Y-95071915D01*
X48479603Y-94976677D01*
X48527222Y-94881439D01*
X48574841Y-94833820D01*
X48670080Y-94786200D01*
X48908175Y-94786200D01*
X49051032Y-94833820D01*
X49479603Y-95786200D02*
X49479603Y-94786200D01*
X49717699Y-94786200D01*
X49860556Y-94833820D01*
X49955794Y-94929058D01*
X50003413Y-95024296D01*
X50051032Y-95214772D01*
X50051032Y-95357629D01*
X50003413Y-95548105D01*
X49955794Y-95643343D01*
X49860556Y-95738581D01*
X49717699Y-95786200D01*
X49479603Y-95786200D01*
X50431984Y-95500486D02*
X50908175Y-95500486D01*
X50336746Y-95786200D02*
X50670080Y-94786200D01*
X51003413Y-95786200D01*
X51527222Y-94786200D02*
X51622460Y-94786200D01*
X51717699Y-94833820D01*
X51765318Y-94881439D01*
X51812937Y-94976677D01*
X51860556Y-95167153D01*
X51860556Y-95405248D01*
X51812937Y-95595724D01*
X51765318Y-95690962D01*
X51717699Y-95738581D01*
X51622460Y-95786200D01*
X51527222Y-95786200D01*
X51431984Y-95738581D01*
X51384365Y-95690962D01*
X51336746Y-95595724D01*
X51289127Y-95405248D01*
X51289127Y-95167153D01*
X51336746Y-94976677D01*
X51384365Y-94881439D01*
X51431984Y-94833820D01*
X51527222Y-94786200D01*
X48503413Y-98024581D02*
X48646270Y-98072200D01*
X48884365Y-98072200D01*
X48979603Y-98024581D01*
X49027222Y-97976962D01*
X49074841Y-97881724D01*
X49074841Y-97786486D01*
X49027222Y-97691248D01*
X48979603Y-97643629D01*
X48884365Y-97596010D01*
X48693889Y-97548391D01*
X48598651Y-97500772D01*
X48551032Y-97453153D01*
X48503413Y-97357915D01*
X48503413Y-97262677D01*
X48551032Y-97167439D01*
X48598651Y-97119820D01*
X48693889Y-97072200D01*
X48931984Y-97072200D01*
X49074841Y-97119820D01*
X50074841Y-97976962D02*
X50027222Y-98024581D01*
X49884365Y-98072200D01*
X49789127Y-98072200D01*
X49646270Y-98024581D01*
X49551032Y-97929343D01*
X49503413Y-97834105D01*
X49455794Y-97643629D01*
X49455794Y-97500772D01*
X49503413Y-97310296D01*
X49551032Y-97215058D01*
X49646270Y-97119820D01*
X49789127Y-97072200D01*
X49884365Y-97072200D01*
X50027222Y-97119820D01*
X50074841Y-97167439D01*
X50979603Y-98072200D02*
X50503413Y-98072200D01*
X50503413Y-97072200D01*
X51503413Y-97072200D02*
X51598651Y-97072200D01*
X51693889Y-97119820D01*
X51741508Y-97167439D01*
X51789127Y-97262677D01*
X51836746Y-97453153D01*
X51836746Y-97691248D01*
X51789127Y-97881724D01*
X51741508Y-97976962D01*
X51693889Y-98024581D01*
X51598651Y-98072200D01*
X51503413Y-98072200D01*
X51408175Y-98024581D01*
X51360556Y-97976962D01*
X51312937Y-97881724D01*
X51265318Y-97691248D01*
X51265318Y-97453153D01*
X51312937Y-97262677D01*
X51360556Y-97167439D01*
X51408175Y-97119820D01*
X51503413Y-97072200D01*
D10*
X132655355Y-60205672D02*
X133455355Y-60205672D01*
X132655355Y-60586624D02*
X133455355Y-60586624D01*
X132655355Y-61043767D01*
X133455355Y-61043767D01*
X153767835Y-44650712D02*
X154567835Y-44650712D01*
X153767835Y-45031664D02*
X154567835Y-45031664D01*
X153767835Y-45488807D01*
X154567835Y-45488807D01*
X159619895Y-44668587D02*
X159619895Y-45163825D01*
X159315133Y-44897159D01*
X159315133Y-45011444D01*
X159277038Y-45087635D01*
X159238942Y-45125730D01*
X159162752Y-45163825D01*
X158972276Y-45163825D01*
X158896085Y-45125730D01*
X158857990Y-45087635D01*
X158819895Y-45011444D01*
X158819895Y-44782873D01*
X158857990Y-44706682D01*
X158896085Y-44668587D01*
X158896085Y-45506682D02*
X158857990Y-45544778D01*
X158819895Y-45506682D01*
X158857990Y-45468587D01*
X158896085Y-45506682D01*
X158819895Y-45506682D01*
X159619895Y-45811444D02*
X159619895Y-46306682D01*
X159315133Y-46040016D01*
X159315133Y-46154301D01*
X159277038Y-46230492D01*
X159238942Y-46268587D01*
X159162752Y-46306682D01*
X158972276Y-46306682D01*
X158896085Y-46268587D01*
X158857990Y-46230492D01*
X158819895Y-46154301D01*
X158819895Y-45925730D01*
X158857990Y-45849540D01*
X158896085Y-45811444D01*
X159619895Y-46535254D02*
X158819895Y-46801920D01*
X159619895Y-47068587D01*
X138619175Y-60601879D02*
X138619175Y-60220926D01*
X138238222Y-60182831D01*
X138276318Y-60220926D01*
X138314413Y-60297117D01*
X138314413Y-60487593D01*
X138276318Y-60563783D01*
X138238222Y-60601879D01*
X138162032Y-60639974D01*
X137971556Y-60639974D01*
X137895365Y-60601879D01*
X137857270Y-60563783D01*
X137819175Y-60487593D01*
X137819175Y-60297117D01*
X137857270Y-60220926D01*
X137895365Y-60182831D01*
X138619175Y-60868545D02*
X137819175Y-61135212D01*
X138619175Y-61401879D01*
X136030920Y-60538436D02*
X136069015Y-60462245D01*
X136069015Y-60347960D01*
X136030920Y-60233674D01*
X135954729Y-60157483D01*
X135878539Y-60119388D01*
X135726158Y-60081293D01*
X135611872Y-60081293D01*
X135459491Y-60119388D01*
X135383300Y-60157483D01*
X135307110Y-60233674D01*
X135269015Y-60347960D01*
X135269015Y-60424150D01*
X135307110Y-60538436D01*
X135345205Y-60576531D01*
X135611872Y-60576531D01*
X135611872Y-60424150D01*
X135269015Y-60919388D02*
X136069015Y-60919388D01*
X135269015Y-61376531D01*
X136069015Y-61376531D01*
X135269015Y-61757483D02*
X136069015Y-61757483D01*
X136069015Y-61947960D01*
X136030920Y-62062245D01*
X135954729Y-62138436D01*
X135878539Y-62176531D01*
X135726158Y-62214626D01*
X135611872Y-62214626D01*
X135459491Y-62176531D01*
X135383300Y-62138436D01*
X135307110Y-62062245D01*
X135269015Y-61947960D01*
X135269015Y-61757483D01*
X157008780Y-45057136D02*
X157046875Y-44980945D01*
X157046875Y-44866660D01*
X157008780Y-44752374D01*
X156932589Y-44676183D01*
X156856399Y-44638088D01*
X156704018Y-44599993D01*
X156589732Y-44599993D01*
X156437351Y-44638088D01*
X156361160Y-44676183D01*
X156284970Y-44752374D01*
X156246875Y-44866660D01*
X156246875Y-44942850D01*
X156284970Y-45057136D01*
X156323065Y-45095231D01*
X156589732Y-45095231D01*
X156589732Y-44942850D01*
X156246875Y-45438088D02*
X157046875Y-45438088D01*
X156246875Y-45895231D01*
X157046875Y-45895231D01*
X156246875Y-46276183D02*
X157046875Y-46276183D01*
X157046875Y-46466660D01*
X157008780Y-46580945D01*
X156932589Y-46657136D01*
X156856399Y-46695231D01*
X156704018Y-46733326D01*
X156589732Y-46733326D01*
X156437351Y-46695231D01*
X156361160Y-46657136D01*
X156284970Y-46580945D01*
X156246875Y-46466660D01*
X156246875Y-46276183D01*
X146363640Y-45008876D02*
X146401735Y-44932685D01*
X146401735Y-44818400D01*
X146363640Y-44704114D01*
X146287449Y-44627923D01*
X146211259Y-44589828D01*
X146058878Y-44551733D01*
X145944592Y-44551733D01*
X145792211Y-44589828D01*
X145716020Y-44627923D01*
X145639830Y-44704114D01*
X145601735Y-44818400D01*
X145601735Y-44894590D01*
X145639830Y-45008876D01*
X145677925Y-45046971D01*
X145944592Y-45046971D01*
X145944592Y-44894590D01*
X145601735Y-45389828D02*
X146401735Y-45389828D01*
X145601735Y-45846971D01*
X146401735Y-45846971D01*
X145601735Y-46227923D02*
X146401735Y-46227923D01*
X146401735Y-46418400D01*
X146363640Y-46532685D01*
X146287449Y-46608876D01*
X146211259Y-46646971D01*
X146058878Y-46685066D01*
X145944592Y-46685066D01*
X145792211Y-46646971D01*
X145716020Y-46608876D01*
X145639830Y-46532685D01*
X145601735Y-46418400D01*
X145601735Y-46227923D01*
X141082980Y-45008876D02*
X141121075Y-44932685D01*
X141121075Y-44818400D01*
X141082980Y-44704114D01*
X141006789Y-44627923D01*
X140930599Y-44589828D01*
X140778218Y-44551733D01*
X140663932Y-44551733D01*
X140511551Y-44589828D01*
X140435360Y-44627923D01*
X140359170Y-44704114D01*
X140321075Y-44818400D01*
X140321075Y-44894590D01*
X140359170Y-45008876D01*
X140397265Y-45046971D01*
X140663932Y-45046971D01*
X140663932Y-44894590D01*
X140321075Y-45389828D02*
X141121075Y-45389828D01*
X140321075Y-45846971D01*
X141121075Y-45846971D01*
X140321075Y-46227923D02*
X141121075Y-46227923D01*
X141121075Y-46418400D01*
X141082980Y-46532685D01*
X141006789Y-46608876D01*
X140930599Y-46646971D01*
X140778218Y-46685066D01*
X140663932Y-46685066D01*
X140511551Y-46646971D01*
X140435360Y-46608876D01*
X140359170Y-46532685D01*
X140321075Y-46418400D01*
X140321075Y-46227923D01*
X138007135Y-44992401D02*
X138388087Y-44725735D01*
X138007135Y-44535259D02*
X138807135Y-44535259D01*
X138807135Y-44840020D01*
X138769040Y-44916211D01*
X138730944Y-44954306D01*
X138654754Y-44992401D01*
X138540468Y-44992401D01*
X138464278Y-44954306D01*
X138426182Y-44916211D01*
X138388087Y-44840020D01*
X138388087Y-44535259D01*
X138007135Y-45335259D02*
X138540468Y-45335259D01*
X138807135Y-45335259D02*
X138769040Y-45297163D01*
X138730944Y-45335259D01*
X138769040Y-45373354D01*
X138807135Y-45335259D01*
X138730944Y-45335259D01*
X138540468Y-46059068D02*
X137892849Y-46059068D01*
X137816659Y-46020973D01*
X137778563Y-45982878D01*
X137740468Y-45906687D01*
X137740468Y-45792401D01*
X137778563Y-45716211D01*
X138045230Y-46059068D02*
X138007135Y-45982878D01*
X138007135Y-45830497D01*
X138045230Y-45754306D01*
X138083325Y-45716211D01*
X138159516Y-45678116D01*
X138388087Y-45678116D01*
X138464278Y-45716211D01*
X138502373Y-45754306D01*
X138540468Y-45830497D01*
X138540468Y-45982878D01*
X138502373Y-46059068D01*
X138007135Y-46440020D02*
X138807135Y-46440020D01*
X138007135Y-46782878D02*
X138426182Y-46782878D01*
X138502373Y-46744782D01*
X138540468Y-46668592D01*
X138540468Y-46554306D01*
X138502373Y-46478116D01*
X138464278Y-46440020D01*
X138540468Y-47049544D02*
X138540468Y-47354306D01*
X138807135Y-47163830D02*
X138121420Y-47163830D01*
X138045230Y-47201925D01*
X138007135Y-47278116D01*
X138007135Y-47354306D01*
X142982995Y-45020299D02*
X142982995Y-44639346D01*
X143782995Y-44639346D01*
X143021090Y-45591727D02*
X142982995Y-45515537D01*
X142982995Y-45363156D01*
X143021090Y-45286965D01*
X143097280Y-45248870D01*
X143402042Y-45248870D01*
X143478233Y-45286965D01*
X143516328Y-45363156D01*
X143516328Y-45515537D01*
X143478233Y-45591727D01*
X143402042Y-45629822D01*
X143325852Y-45629822D01*
X143249661Y-45248870D01*
X143516328Y-45858394D02*
X143516328Y-46163156D01*
X142982995Y-45972680D02*
X143668709Y-45972680D01*
X143744900Y-46010775D01*
X143782995Y-46086965D01*
X143782995Y-46163156D01*
X143516328Y-46315537D02*
X143516328Y-46620299D01*
X143782995Y-46429822D02*
X143097280Y-46429822D01*
X143021090Y-46467918D01*
X142982995Y-46544108D01*
X142982995Y-46620299D01*
X85595536Y-63293040D02*
X85519345Y-63254944D01*
X85405060Y-63254944D01*
X85290774Y-63293040D01*
X85214583Y-63369230D01*
X85176488Y-63445420D01*
X85138393Y-63597801D01*
X85138393Y-63712087D01*
X85176488Y-63864468D01*
X85214583Y-63940659D01*
X85290774Y-64016849D01*
X85405060Y-64054944D01*
X85481250Y-64054944D01*
X85595536Y-64016849D01*
X85633631Y-63978754D01*
X85633631Y-63712087D01*
X85481250Y-63712087D01*
X85976488Y-64054944D02*
X85976488Y-63254944D01*
X86433631Y-64054944D01*
X86433631Y-63254944D01*
X86814583Y-64054944D02*
X86814583Y-63254944D01*
X87005060Y-63254944D01*
X87119345Y-63293040D01*
X87195536Y-63369230D01*
X87233631Y-63445420D01*
X87271726Y-63597801D01*
X87271726Y-63712087D01*
X87233631Y-63864468D01*
X87195536Y-63940659D01*
X87119345Y-64016849D01*
X87005060Y-64054944D01*
X86814583Y-64054944D01*
X85714859Y-58423864D02*
X85333906Y-58423864D01*
X85295811Y-58804817D01*
X85333906Y-58766721D01*
X85410097Y-58728626D01*
X85600573Y-58728626D01*
X85676763Y-58766721D01*
X85714859Y-58804817D01*
X85752954Y-58881007D01*
X85752954Y-59071483D01*
X85714859Y-59147674D01*
X85676763Y-59185769D01*
X85600573Y-59223864D01*
X85410097Y-59223864D01*
X85333906Y-59185769D01*
X85295811Y-59147674D01*
X85981525Y-58423864D02*
X86248192Y-59223864D01*
X86514859Y-58423864D01*
X85247627Y-60895284D02*
X85742865Y-60895284D01*
X85476199Y-61200046D01*
X85590484Y-61200046D01*
X85666675Y-61238141D01*
X85704770Y-61276237D01*
X85742865Y-61352427D01*
X85742865Y-61542903D01*
X85704770Y-61619094D01*
X85666675Y-61657189D01*
X85590484Y-61695284D01*
X85361913Y-61695284D01*
X85285722Y-61657189D01*
X85247627Y-61619094D01*
X86085722Y-61619094D02*
X86123818Y-61657189D01*
X86085722Y-61695284D01*
X86047627Y-61657189D01*
X86085722Y-61619094D01*
X86085722Y-61695284D01*
X86390484Y-60895284D02*
X86885722Y-60895284D01*
X86619056Y-61200046D01*
X86733341Y-61200046D01*
X86809532Y-61238141D01*
X86847627Y-61276237D01*
X86885722Y-61352427D01*
X86885722Y-61542903D01*
X86847627Y-61619094D01*
X86809532Y-61657189D01*
X86733341Y-61695284D01*
X86504770Y-61695284D01*
X86428580Y-61657189D01*
X86390484Y-61619094D01*
X87114294Y-60895284D02*
X87380960Y-61695284D01*
X87647627Y-60895284D01*
D13*
X38958571Y-51057142D02*
X40101428Y-51057142D01*
X39530000Y-51628571D02*
X39530000Y-50485714D01*
D10*
X70561366Y-47948809D02*
X70675652Y-47986904D01*
X70866128Y-47986904D01*
X70942319Y-47948809D01*
X70980414Y-47910714D01*
X71018509Y-47834523D01*
X71018509Y-47758333D01*
X70980414Y-47682142D01*
X70942319Y-47644047D01*
X70866128Y-47605952D01*
X70713747Y-47567857D01*
X70637557Y-47529761D01*
X70599461Y-47491666D01*
X70561366Y-47415476D01*
X70561366Y-47339285D01*
X70599461Y-47263095D01*
X70637557Y-47225000D01*
X70713747Y-47186904D01*
X70904223Y-47186904D01*
X71018509Y-47225000D01*
X71818509Y-47910714D02*
X71780414Y-47948809D01*
X71666128Y-47986904D01*
X71589938Y-47986904D01*
X71475652Y-47948809D01*
X71399461Y-47872619D01*
X71361366Y-47796428D01*
X71323271Y-47644047D01*
X71323271Y-47529761D01*
X71361366Y-47377380D01*
X71399461Y-47301190D01*
X71475652Y-47225000D01*
X71589938Y-47186904D01*
X71666128Y-47186904D01*
X71780414Y-47225000D01*
X71818509Y-47263095D01*
X72542319Y-47986904D02*
X72161366Y-47986904D01*
X72161366Y-47186904D01*
X72961366Y-47186904D02*
X73037557Y-47186904D01*
X73113747Y-47225000D01*
X73151842Y-47263095D01*
X73189938Y-47339285D01*
X73228033Y-47491666D01*
X73228033Y-47682142D01*
X73189938Y-47834523D01*
X73151842Y-47910714D01*
X73113747Y-47948809D01*
X73037557Y-47986904D01*
X72961366Y-47986904D01*
X72885176Y-47948809D01*
X72847080Y-47910714D01*
X72808985Y-47834523D01*
X72770890Y-47682142D01*
X72770890Y-47491666D01*
X72808985Y-47339285D01*
X72847080Y-47263095D01*
X72885176Y-47225000D01*
X72961366Y-47186904D01*
X70542319Y-45454529D02*
X70656604Y-45492624D01*
X70847080Y-45492624D01*
X70923271Y-45454529D01*
X70961366Y-45416434D01*
X70999461Y-45340243D01*
X70999461Y-45264053D01*
X70961366Y-45187862D01*
X70923271Y-45149767D01*
X70847080Y-45111672D01*
X70694700Y-45073577D01*
X70618509Y-45035481D01*
X70580414Y-44997386D01*
X70542319Y-44921196D01*
X70542319Y-44845005D01*
X70580414Y-44768815D01*
X70618509Y-44730720D01*
X70694700Y-44692624D01*
X70885176Y-44692624D01*
X70999461Y-44730720D01*
X71342319Y-45492624D02*
X71342319Y-44692624D01*
X71532795Y-44692624D01*
X71647080Y-44730720D01*
X71723271Y-44806910D01*
X71761366Y-44883100D01*
X71799461Y-45035481D01*
X71799461Y-45149767D01*
X71761366Y-45302148D01*
X71723271Y-45378339D01*
X71647080Y-45454529D01*
X71532795Y-45492624D01*
X71342319Y-45492624D01*
X72104223Y-45264053D02*
X72485176Y-45264053D01*
X72028033Y-45492624D02*
X72294700Y-44692624D01*
X72561366Y-45492624D01*
X72980414Y-44692624D02*
X73056604Y-44692624D01*
X73132795Y-44730720D01*
X73170890Y-44768815D01*
X73208985Y-44845005D01*
X73247080Y-44997386D01*
X73247080Y-45187862D01*
X73208985Y-45340243D01*
X73170890Y-45416434D01*
X73132795Y-45454529D01*
X73056604Y-45492624D01*
X72980414Y-45492624D01*
X72904223Y-45454529D01*
X72866128Y-45416434D01*
X72828033Y-45340243D01*
X72789938Y-45187862D01*
X72789938Y-44997386D01*
X72828033Y-44845005D01*
X72866128Y-44768815D01*
X72904223Y-44730720D01*
X72980414Y-44692624D01*
X132069987Y-36704324D02*
X132565225Y-36704324D01*
X132298559Y-37009086D01*
X132412844Y-37009086D01*
X132489035Y-37047181D01*
X132527130Y-37085277D01*
X132565225Y-37161467D01*
X132565225Y-37351943D01*
X132527130Y-37428134D01*
X132489035Y-37466229D01*
X132412844Y-37504324D01*
X132184273Y-37504324D01*
X132108082Y-37466229D01*
X132069987Y-37428134D01*
X132908082Y-37428134D02*
X132946178Y-37466229D01*
X132908082Y-37504324D01*
X132869987Y-37466229D01*
X132908082Y-37428134D01*
X132908082Y-37504324D01*
X133212844Y-36704324D02*
X133708082Y-36704324D01*
X133441416Y-37009086D01*
X133555701Y-37009086D01*
X133631892Y-37047181D01*
X133669987Y-37085277D01*
X133708082Y-37161467D01*
X133708082Y-37351943D01*
X133669987Y-37428134D01*
X133631892Y-37466229D01*
X133555701Y-37504324D01*
X133327130Y-37504324D01*
X133250940Y-37466229D01*
X133212844Y-37428134D01*
X133936654Y-36704324D02*
X134203320Y-37504324D01*
X134469987Y-36704324D01*
X132641416Y-39533880D02*
X132565225Y-39495784D01*
X132450940Y-39495784D01*
X132336654Y-39533880D01*
X132260463Y-39610070D01*
X132222368Y-39686260D01*
X132184273Y-39838641D01*
X132184273Y-39952927D01*
X132222368Y-40105308D01*
X132260463Y-40181499D01*
X132336654Y-40257689D01*
X132450940Y-40295784D01*
X132527130Y-40295784D01*
X132641416Y-40257689D01*
X132679511Y-40219594D01*
X132679511Y-39952927D01*
X132527130Y-39952927D01*
X133022368Y-40295784D02*
X133022368Y-39495784D01*
X133479511Y-40295784D01*
X133479511Y-39495784D01*
X133860463Y-40295784D02*
X133860463Y-39495784D01*
X134050940Y-39495784D01*
X134165225Y-39533880D01*
X134241416Y-39610070D01*
X134279511Y-39686260D01*
X134317606Y-39838641D01*
X134317606Y-39952927D01*
X134279511Y-40105308D01*
X134241416Y-40181499D01*
X134165225Y-40257689D01*
X134050940Y-40295784D01*
X133860463Y-40295784D01*
X127669444Y-46854117D02*
X127936111Y-46854117D01*
X128050397Y-47273164D02*
X127669444Y-47273164D01*
X127669444Y-46473164D01*
X128050397Y-46473164D01*
X128736111Y-47235069D02*
X128659920Y-47273164D01*
X128507540Y-47273164D01*
X128431349Y-47235069D01*
X128393254Y-47196974D01*
X128355159Y-47120783D01*
X128355159Y-46892212D01*
X128393254Y-46816021D01*
X128431349Y-46777926D01*
X128507540Y-46739831D01*
X128659920Y-46739831D01*
X128736111Y-46777926D01*
X129078968Y-47273164D02*
X129078968Y-46473164D01*
X129421825Y-47273164D02*
X129421825Y-46854117D01*
X129383730Y-46777926D01*
X129307540Y-46739831D01*
X129193254Y-46739831D01*
X129117063Y-46777926D01*
X129078968Y-46816021D01*
X129917063Y-47273164D02*
X129840873Y-47235069D01*
X129802778Y-47196974D01*
X129764682Y-47120783D01*
X129764682Y-46892212D01*
X129802778Y-46816021D01*
X129840873Y-46777926D01*
X129917063Y-46739831D01*
X130031349Y-46739831D01*
X130107540Y-46777926D01*
X130145635Y-46816021D01*
X130183730Y-46892212D01*
X130183730Y-47120783D01*
X130145635Y-47196974D01*
X130107540Y-47235069D01*
X130031349Y-47273164D01*
X129917063Y-47273164D01*
X127470147Y-44225264D02*
X127927290Y-44225264D01*
X127698719Y-45025264D02*
X127698719Y-44225264D01*
X128193957Y-45025264D02*
X128193957Y-44491931D01*
X128193957Y-44644312D02*
X128232052Y-44568121D01*
X128270147Y-44530026D01*
X128346338Y-44491931D01*
X128422528Y-44491931D01*
X128689195Y-45025264D02*
X128689195Y-44491931D01*
X128689195Y-44225264D02*
X128651100Y-44263360D01*
X128689195Y-44301455D01*
X128727290Y-44263360D01*
X128689195Y-44225264D01*
X128689195Y-44301455D01*
X129413004Y-44491931D02*
X129413004Y-45139550D01*
X129374909Y-45215740D01*
X129336814Y-45253836D01*
X129260623Y-45291931D01*
X129146338Y-45291931D01*
X129070147Y-45253836D01*
X129413004Y-44987169D02*
X129336814Y-45025264D01*
X129184433Y-45025264D01*
X129108242Y-44987169D01*
X129070147Y-44949074D01*
X129032052Y-44872883D01*
X129032052Y-44644312D01*
X129070147Y-44568121D01*
X129108242Y-44530026D01*
X129184433Y-44491931D01*
X129336814Y-44491931D01*
X129413004Y-44530026D01*
X130136814Y-44491931D02*
X130136814Y-45139550D01*
X130098719Y-45215740D01*
X130060623Y-45253836D01*
X129984433Y-45291931D01*
X129870147Y-45291931D01*
X129793957Y-45253836D01*
X130136814Y-44987169D02*
X130060623Y-45025264D01*
X129908242Y-45025264D01*
X129832052Y-44987169D01*
X129793957Y-44949074D01*
X129755861Y-44872883D01*
X129755861Y-44644312D01*
X129793957Y-44568121D01*
X129832052Y-44530026D01*
X129908242Y-44491931D01*
X130060623Y-44491931D01*
X130136814Y-44530026D01*
X130822528Y-44987169D02*
X130746338Y-45025264D01*
X130593957Y-45025264D01*
X130517766Y-44987169D01*
X130479671Y-44910979D01*
X130479671Y-44606217D01*
X130517766Y-44530026D01*
X130593957Y-44491931D01*
X130746338Y-44491931D01*
X130822528Y-44530026D01*
X130860623Y-44606217D01*
X130860623Y-44682407D01*
X130479671Y-44758598D01*
X131203480Y-45025264D02*
X131203480Y-44491931D01*
X131203480Y-44644312D02*
X131241576Y-44568121D01*
X131279671Y-44530026D01*
X131355861Y-44491931D01*
X131432052Y-44491931D01*
X85576474Y-69109544D02*
X85309807Y-68728592D01*
X85119331Y-69109544D02*
X85119331Y-68309544D01*
X85424093Y-68309544D01*
X85500283Y-68347640D01*
X85538379Y-68385735D01*
X85576474Y-68461925D01*
X85576474Y-68576211D01*
X85538379Y-68652401D01*
X85500283Y-68690497D01*
X85424093Y-68728592D01*
X85119331Y-68728592D01*
X85843140Y-68309544D02*
X86376474Y-69109544D01*
X86376474Y-68309544D02*
X85843140Y-69109544D01*
X86605045Y-68309544D02*
X87100283Y-68309544D01*
X86833617Y-68614306D01*
X86947902Y-68614306D01*
X87024093Y-68652401D01*
X87062188Y-68690497D01*
X87100283Y-68766687D01*
X87100283Y-68957163D01*
X87062188Y-69033354D01*
X87024093Y-69071449D01*
X86947902Y-69109544D01*
X86719331Y-69109544D01*
X86643140Y-69071449D01*
X86605045Y-69033354D01*
X85214583Y-65726364D02*
X85671726Y-65726364D01*
X85443155Y-66526364D02*
X85443155Y-65726364D01*
X85862202Y-65726364D02*
X86395536Y-66526364D01*
X86395536Y-65726364D02*
X85862202Y-66526364D01*
X86624107Y-65726364D02*
X87119345Y-65726364D01*
X86852679Y-66031126D01*
X86966964Y-66031126D01*
X87043155Y-66069221D01*
X87081250Y-66107317D01*
X87119345Y-66183507D01*
X87119345Y-66373983D01*
X87081250Y-66450174D01*
X87043155Y-66488269D01*
X86966964Y-66526364D01*
X86738393Y-66526364D01*
X86662202Y-66488269D01*
X86624107Y-66450174D01*
D11*
X48170080Y-90325248D02*
X48931984Y-90325248D01*
X48551032Y-90706200D02*
X48551032Y-89944296D01*
X49312937Y-89706200D02*
X49931984Y-89706200D01*
X49598651Y-90087153D01*
X49741508Y-90087153D01*
X49836746Y-90134772D01*
X49884365Y-90182391D01*
X49931984Y-90277629D01*
X49931984Y-90515724D01*
X49884365Y-90610962D01*
X49836746Y-90658581D01*
X49741508Y-90706200D01*
X49455794Y-90706200D01*
X49360556Y-90658581D01*
X49312937Y-90610962D01*
X50360556Y-90610962D02*
X50408175Y-90658581D01*
X50360556Y-90706200D01*
X50312937Y-90658581D01*
X50360556Y-90610962D01*
X50360556Y-90706200D01*
X50741508Y-89706200D02*
X51360556Y-89706200D01*
X51027222Y-90087153D01*
X51170080Y-90087153D01*
X51265318Y-90134772D01*
X51312937Y-90182391D01*
X51360556Y-90277629D01*
X51360556Y-90515724D01*
X51312937Y-90610962D01*
X51265318Y-90658581D01*
X51170080Y-90706200D01*
X50884365Y-90706200D01*
X50789127Y-90658581D01*
X50741508Y-90610962D01*
X51646270Y-89706200D02*
X51979603Y-90706200D01*
X52312937Y-89706200D01*
X48503413Y-103104581D02*
X48646270Y-103152200D01*
X48884365Y-103152200D01*
X48979603Y-103104581D01*
X49027222Y-103056962D01*
X49074841Y-102961724D01*
X49074841Y-102866486D01*
X49027222Y-102771248D01*
X48979603Y-102723629D01*
X48884365Y-102676010D01*
X48693889Y-102628391D01*
X48598651Y-102580772D01*
X48551032Y-102533153D01*
X48503413Y-102437915D01*
X48503413Y-102342677D01*
X48551032Y-102247439D01*
X48598651Y-102199820D01*
X48693889Y-102152200D01*
X48931984Y-102152200D01*
X49074841Y-102199820D01*
X50074841Y-103056962D02*
X50027222Y-103104581D01*
X49884365Y-103152200D01*
X49789127Y-103152200D01*
X49646270Y-103104581D01*
X49551032Y-103009343D01*
X49503413Y-102914105D01*
X49455794Y-102723629D01*
X49455794Y-102580772D01*
X49503413Y-102390296D01*
X49551032Y-102295058D01*
X49646270Y-102199820D01*
X49789127Y-102152200D01*
X49884365Y-102152200D01*
X50027222Y-102199820D01*
X50074841Y-102247439D01*
X50979603Y-103152200D02*
X50503413Y-103152200D01*
X50503413Y-102152200D01*
X51836746Y-103152200D02*
X51265318Y-103152200D01*
X51551032Y-103152200D02*
X51551032Y-102152200D01*
X51455794Y-102295058D01*
X51360556Y-102390296D01*
X51265318Y-102437915D01*
X48479603Y-100564581D02*
X48622460Y-100612200D01*
X48860556Y-100612200D01*
X48955794Y-100564581D01*
X49003413Y-100516962D01*
X49051032Y-100421724D01*
X49051032Y-100326486D01*
X49003413Y-100231248D01*
X48955794Y-100183629D01*
X48860556Y-100136010D01*
X48670080Y-100088391D01*
X48574841Y-100040772D01*
X48527222Y-99993153D01*
X48479603Y-99897915D01*
X48479603Y-99802677D01*
X48527222Y-99707439D01*
X48574841Y-99659820D01*
X48670080Y-99612200D01*
X48908175Y-99612200D01*
X49051032Y-99659820D01*
X49479603Y-100612200D02*
X49479603Y-99612200D01*
X49717699Y-99612200D01*
X49860556Y-99659820D01*
X49955794Y-99755058D01*
X50003413Y-99850296D01*
X50051032Y-100040772D01*
X50051032Y-100183629D01*
X50003413Y-100374105D01*
X49955794Y-100469343D01*
X49860556Y-100564581D01*
X49717699Y-100612200D01*
X49479603Y-100612200D01*
X50431984Y-100326486D02*
X50908175Y-100326486D01*
X50336746Y-100612200D02*
X50670080Y-99612200D01*
X51003413Y-100612200D01*
X51860556Y-100612200D02*
X51289127Y-100612200D01*
X51574841Y-100612200D02*
X51574841Y-99612200D01*
X51479603Y-99755058D01*
X51384365Y-99850296D01*
X51289127Y-99897915D01*
D14*
X118956000Y-84328400D02*
X118956000Y-78628400D01*
X118956000Y-84328400D02*
X112956000Y-84328400D01*
X112956000Y-84328400D02*
X112956000Y-78628400D01*
X112429616Y-77876646D02*
G75*
G02*
X112956000Y-78628400I-273616J-751754D01*
G01*
X116001281Y-55432729D02*
G75*
G03*
X112456000Y-77878400I-45281J-11495671D01*
G01*
X119482384Y-77876646D02*
G75*
G03*
X118956000Y-78628400I273616J-751754D01*
G01*
X115910719Y-55432729D02*
G75*
G02*
X119456000Y-77878400I45281J-11495671D01*
G01*
X40557000Y-115603000D02*
X41807000Y-115603000D01*
X40557000Y-114353000D02*
X40557000Y-115603000D01*
X46057000Y-108453000D02*
X46057000Y-111503000D01*
X43107000Y-108453000D02*
X46057000Y-108453000D01*
X43107000Y-107703000D02*
X43107000Y-108453000D01*
X46057000Y-114553000D02*
X46057000Y-111503000D01*
X43107000Y-114553000D02*
X46057000Y-114553000D01*
X43107000Y-115303000D02*
X43107000Y-114553000D01*
X40857000Y-107703000D02*
X40857000Y-109503000D01*
X41607000Y-107703000D02*
X40857000Y-107703000D01*
X41607000Y-109503000D02*
X41607000Y-107703000D01*
X40857000Y-109503000D02*
X41607000Y-109503000D01*
X40857000Y-113503000D02*
X40857000Y-115303000D01*
X41607000Y-113503000D02*
X40857000Y-113503000D01*
X41607000Y-115303000D02*
X41607000Y-113503000D01*
X40857000Y-115303000D02*
X41607000Y-115303000D01*
X40857000Y-111003000D02*
X40857000Y-112003000D01*
X41607000Y-111003000D02*
X40857000Y-111003000D01*
X41607000Y-112003000D02*
X41607000Y-111003000D01*
X40857000Y-112003000D02*
X41607000Y-112003000D01*
X40847000Y-107693000D02*
X40847000Y-115313000D01*
X46817000Y-107693000D02*
X40847000Y-107693000D01*
X46817000Y-115313000D02*
X46817000Y-107693000D01*
X40847000Y-115313000D02*
X46817000Y-115313000D01*
X168228000Y-130300000D02*
X168298000Y-130300000D01*
X168228000Y-130300000D02*
G75*
G03*
X168228000Y-130300000I-1370000J0D01*
G01*
X161710000Y-130300000D02*
X161780000Y-130300000D01*
X161710000Y-130300000D02*
G75*
G03*
X161710000Y-130300000I-1370000J0D01*
G01*
X168228000Y-124008000D02*
X168298000Y-124008000D01*
X168228000Y-124008000D02*
G75*
G03*
X168228000Y-124008000I-1370000J0D01*
G01*
X161710000Y-124008000D02*
X161780000Y-124008000D01*
X161710000Y-124008000D02*
G75*
G03*
X161710000Y-124008000I-1370000J0D01*
G01*
X142456000Y-110494000D02*
X142456000Y-109244000D01*
X141206000Y-110494000D02*
X142456000Y-110494000D01*
X130306000Y-104994000D02*
X135856000Y-104994000D01*
X130306000Y-107944000D02*
X130306000Y-104994000D01*
X129556000Y-107944000D02*
X130306000Y-107944000D01*
X141406000Y-104994000D02*
X135856000Y-104994000D01*
X141406000Y-107944000D02*
X141406000Y-104994000D01*
X142156000Y-107944000D02*
X141406000Y-107944000D01*
X129556000Y-110194000D02*
X131356000Y-110194000D01*
X129556000Y-109444000D02*
X129556000Y-110194000D01*
X131356000Y-109444000D02*
X129556000Y-109444000D01*
X131356000Y-110194000D02*
X131356000Y-109444000D01*
X140356000Y-110194000D02*
X142156000Y-110194000D01*
X140356000Y-109444000D02*
X140356000Y-110194000D01*
X142156000Y-109444000D02*
X140356000Y-109444000D01*
X142156000Y-110194000D02*
X142156000Y-109444000D01*
X132856000Y-110194000D02*
X138856000Y-110194000D01*
X132856000Y-109444000D02*
X132856000Y-110194000D01*
X138856000Y-109444000D02*
X132856000Y-109444000D01*
X138856000Y-110194000D02*
X138856000Y-109444000D01*
X129546000Y-110204000D02*
X142166000Y-110204000D01*
X129546000Y-104234000D02*
X129546000Y-110204000D01*
X142166000Y-104234000D02*
X129546000Y-104234000D01*
X142166000Y-110204000D02*
X142166000Y-104234000D01*
X144416000Y-124044000D02*
X144416000Y-125294000D01*
X145666000Y-124044000D02*
X144416000Y-124044000D01*
X154066000Y-129544000D02*
X149766000Y-129544000D01*
X154066000Y-126594000D02*
X154066000Y-129544000D01*
X154816000Y-126594000D02*
X154066000Y-126594000D01*
X145466000Y-129544000D02*
X149766000Y-129544000D01*
X145466000Y-126594000D02*
X145466000Y-129544000D01*
X144716000Y-126594000D02*
X145466000Y-126594000D01*
X154816000Y-124344000D02*
X153016000Y-124344000D01*
X154816000Y-125094000D02*
X154816000Y-124344000D01*
X153016000Y-125094000D02*
X154816000Y-125094000D01*
X153016000Y-124344000D02*
X153016000Y-125094000D01*
X146516000Y-124344000D02*
X144716000Y-124344000D01*
X146516000Y-125094000D02*
X146516000Y-124344000D01*
X144716000Y-125094000D02*
X146516000Y-125094000D01*
X144716000Y-124344000D02*
X144716000Y-125094000D01*
X151516000Y-124344000D02*
X148016000Y-124344000D01*
X151516000Y-125094000D02*
X151516000Y-124344000D01*
X148016000Y-125094000D02*
X151516000Y-125094000D01*
X148016000Y-124344000D02*
X148016000Y-125094000D01*
X154826000Y-124334000D02*
X144706000Y-124334000D01*
X154826000Y-130304000D02*
X154826000Y-124334000D01*
X144706000Y-130304000D02*
X154826000Y-130304000D01*
X144706000Y-124334000D02*
X144706000Y-130304000D01*
X125946000Y-110494000D02*
X125946000Y-109244000D01*
X124696000Y-110494000D02*
X125946000Y-110494000D01*
X113796000Y-104994000D02*
X119346000Y-104994000D01*
X113796000Y-107944000D02*
X113796000Y-104994000D01*
X113046000Y-107944000D02*
X113796000Y-107944000D01*
X124896000Y-104994000D02*
X119346000Y-104994000D01*
X124896000Y-107944000D02*
X124896000Y-104994000D01*
X125646000Y-107944000D02*
X124896000Y-107944000D01*
X113046000Y-110194000D02*
X114846000Y-110194000D01*
X113046000Y-109444000D02*
X113046000Y-110194000D01*
X114846000Y-109444000D02*
X113046000Y-109444000D01*
X114846000Y-110194000D02*
X114846000Y-109444000D01*
X123846000Y-110194000D02*
X125646000Y-110194000D01*
X123846000Y-109444000D02*
X123846000Y-110194000D01*
X125646000Y-109444000D02*
X123846000Y-109444000D01*
X125646000Y-110194000D02*
X125646000Y-109444000D01*
X116346000Y-110194000D02*
X122346000Y-110194000D01*
X116346000Y-109444000D02*
X116346000Y-110194000D01*
X122346000Y-109444000D02*
X116346000Y-109444000D01*
X122346000Y-110194000D02*
X122346000Y-109444000D01*
X113036000Y-110204000D02*
X125656000Y-110204000D01*
X113036000Y-104234000D02*
X113036000Y-110204000D01*
X125656000Y-104234000D02*
X113036000Y-104234000D01*
X125656000Y-110204000D02*
X125656000Y-104234000D01*
X144376000Y-112614000D02*
X144376000Y-113864000D01*
X145626000Y-112614000D02*
X144376000Y-112614000D01*
X154026000Y-118114000D02*
X149726000Y-118114000D01*
X154026000Y-115164000D02*
X154026000Y-118114000D01*
X154776000Y-115164000D02*
X154026000Y-115164000D01*
X145426000Y-118114000D02*
X149726000Y-118114000D01*
X145426000Y-115164000D02*
X145426000Y-118114000D01*
X144676000Y-115164000D02*
X145426000Y-115164000D01*
X154776000Y-112914000D02*
X152976000Y-112914000D01*
X154776000Y-113664000D02*
X154776000Y-112914000D01*
X152976000Y-113664000D02*
X154776000Y-113664000D01*
X152976000Y-112914000D02*
X152976000Y-113664000D01*
X146476000Y-112914000D02*
X144676000Y-112914000D01*
X146476000Y-113664000D02*
X146476000Y-112914000D01*
X144676000Y-113664000D02*
X146476000Y-113664000D01*
X144676000Y-112914000D02*
X144676000Y-113664000D01*
X151476000Y-112914000D02*
X147976000Y-112914000D01*
X151476000Y-113664000D02*
X151476000Y-112914000D01*
X147976000Y-113664000D02*
X151476000Y-113664000D01*
X147976000Y-112914000D02*
X147976000Y-113664000D01*
X154786000Y-112904000D02*
X144666000Y-112904000D01*
X154786000Y-118874000D02*
X154786000Y-112904000D01*
X144666000Y-118874000D02*
X154786000Y-118874000D01*
X144666000Y-112904000D02*
X144666000Y-118874000D01*
X77220801Y-79845000D02*
X77220800Y-129405000D01*
X77220800Y-129405000D02*
X108620799Y-129405000D01*
X108620799Y-129405000D02*
X108620800Y-79845000D01*
X108620800Y-79845000D02*
X98154133Y-79845000D01*
X98154133Y-79845000D02*
X98154133Y-80205000D01*
X98154133Y-80205000D02*
X87687467Y-80205000D01*
X87687467Y-80205000D02*
X87687467Y-79845000D01*
X87687467Y-79845000D02*
X77220801Y-79845000D01*
X95460800Y-128755000D02*
X95460800Y-124310000D01*
X95460800Y-124310000D02*
X90380800Y-124310000D01*
X90380800Y-124310000D02*
X90380800Y-128755000D01*
X90380800Y-128755000D02*
X95460800Y-128755000D01*
X100540800Y-81130000D02*
X100540800Y-105895000D01*
X100540800Y-105895000D02*
X85300800Y-105895000D01*
X85300800Y-105895000D02*
X85300800Y-81765000D01*
X85300800Y-81765000D02*
X85300800Y-81130000D01*
X85300800Y-81130000D02*
X100540800Y-81130000D01*
X138482000Y-118214000D02*
X138412000Y-118214000D01*
X141222000Y-118214000D02*
G75*
G03*
X141222000Y-118214000I-1370000J0D01*
G01*
X132259000Y-118214000D02*
X132189000Y-118214000D01*
X134999000Y-118214000D02*
G75*
G03*
X134999000Y-118214000I-1370000J0D01*
G01*
X129216000Y-124044000D02*
X129216000Y-125294000D01*
X130466000Y-124044000D02*
X129216000Y-124044000D01*
X141366000Y-129544000D02*
X135816000Y-129544000D01*
X141366000Y-126594000D02*
X141366000Y-129544000D01*
X142116000Y-126594000D02*
X141366000Y-126594000D01*
X130266000Y-129544000D02*
X135816000Y-129544000D01*
X130266000Y-126594000D02*
X130266000Y-129544000D01*
X129516000Y-126594000D02*
X130266000Y-126594000D01*
X142116000Y-124344000D02*
X140316000Y-124344000D01*
X142116000Y-125094000D02*
X142116000Y-124344000D01*
X140316000Y-125094000D02*
X142116000Y-125094000D01*
X140316000Y-124344000D02*
X140316000Y-125094000D01*
X131316000Y-124344000D02*
X129516000Y-124344000D01*
X131316000Y-125094000D02*
X131316000Y-124344000D01*
X129516000Y-125094000D02*
X131316000Y-125094000D01*
X129516000Y-124344000D02*
X129516000Y-125094000D01*
X138816000Y-124344000D02*
X132816000Y-124344000D01*
X138816000Y-125094000D02*
X138816000Y-124344000D01*
X132816000Y-125094000D02*
X138816000Y-125094000D01*
X132816000Y-124344000D02*
X132816000Y-125094000D01*
X142126000Y-124334000D02*
X129506000Y-124334000D01*
X142126000Y-130304000D02*
X142126000Y-124334000D01*
X129506000Y-130304000D02*
X142126000Y-130304000D01*
X129506000Y-124334000D02*
X129506000Y-130304000D01*
X111356000Y-113884000D02*
X111356000Y-115134000D01*
X112606000Y-113884000D02*
X111356000Y-113884000D01*
X126006000Y-119384000D02*
X119206000Y-119384000D01*
X126006000Y-116434000D02*
X126006000Y-119384000D01*
X126756000Y-116434000D02*
X126006000Y-116434000D01*
X112406000Y-119384000D02*
X119206000Y-119384000D01*
X112406000Y-116434000D02*
X112406000Y-119384000D01*
X111656000Y-116434000D02*
X112406000Y-116434000D01*
X126756000Y-114184000D02*
X124956000Y-114184000D01*
X126756000Y-114934000D02*
X126756000Y-114184000D01*
X124956000Y-114934000D02*
X126756000Y-114934000D01*
X124956000Y-114184000D02*
X124956000Y-114934000D01*
X113456000Y-114184000D02*
X111656000Y-114184000D01*
X113456000Y-114934000D02*
X113456000Y-114184000D01*
X111656000Y-114934000D02*
X113456000Y-114934000D01*
X111656000Y-114184000D02*
X111656000Y-114934000D01*
X123456000Y-114184000D02*
X114956000Y-114184000D01*
X123456000Y-114934000D02*
X123456000Y-114184000D01*
X114956000Y-114934000D02*
X123456000Y-114934000D01*
X114956000Y-114184000D02*
X114956000Y-114934000D01*
X126766000Y-114174000D02*
X111646000Y-114174000D01*
X126766000Y-120144000D02*
X126766000Y-114174000D01*
X111646000Y-120144000D02*
X126766000Y-120144000D01*
X111646000Y-114174000D02*
X111646000Y-120144000D01*
X111356000Y-124044000D02*
X111356000Y-125294000D01*
X112606000Y-124044000D02*
X111356000Y-124044000D01*
X126006000Y-129544000D02*
X119206000Y-129544000D01*
X126006000Y-126594000D02*
X126006000Y-129544000D01*
X126756000Y-126594000D02*
X126006000Y-126594000D01*
X112406000Y-129544000D02*
X119206000Y-129544000D01*
X112406000Y-126594000D02*
X112406000Y-129544000D01*
X111656000Y-126594000D02*
X112406000Y-126594000D01*
X126756000Y-124344000D02*
X124956000Y-124344000D01*
X126756000Y-125094000D02*
X126756000Y-124344000D01*
X124956000Y-125094000D02*
X126756000Y-125094000D01*
X124956000Y-124344000D02*
X124956000Y-125094000D01*
X113456000Y-124344000D02*
X111656000Y-124344000D01*
X113456000Y-125094000D02*
X113456000Y-124344000D01*
X111656000Y-125094000D02*
X113456000Y-125094000D01*
X111656000Y-124344000D02*
X111656000Y-125094000D01*
X123456000Y-124344000D02*
X114956000Y-124344000D01*
X123456000Y-125094000D02*
X123456000Y-124344000D01*
X114956000Y-125094000D02*
X123456000Y-125094000D01*
X114956000Y-124344000D02*
X114956000Y-125094000D01*
X126766000Y-124334000D02*
X111646000Y-124334000D01*
X126766000Y-130304000D02*
X126766000Y-124334000D01*
X111646000Y-130304000D02*
X126766000Y-130304000D01*
X111646000Y-124334000D02*
X111646000Y-130304000D01*
X152428000Y-97512300D02*
X152428000Y-96262300D01*
X151178000Y-97512300D02*
X152428000Y-97512300D01*
X140278000Y-92012300D02*
X145828000Y-92012300D01*
X140278000Y-94962300D02*
X140278000Y-92012300D01*
X139528000Y-94962300D02*
X140278000Y-94962300D01*
X151378000Y-92012300D02*
X145828000Y-92012300D01*
X151378000Y-94962300D02*
X151378000Y-92012300D01*
X152128000Y-94962300D02*
X151378000Y-94962300D01*
X139528000Y-97212300D02*
X141328000Y-97212300D01*
X139528000Y-96462300D02*
X139528000Y-97212300D01*
X141328000Y-96462300D02*
X139528000Y-96462300D01*
X141328000Y-97212300D02*
X141328000Y-96462300D01*
X150328000Y-97212300D02*
X152128000Y-97212300D01*
X150328000Y-96462300D02*
X150328000Y-97212300D01*
X152128000Y-96462300D02*
X150328000Y-96462300D01*
X152128000Y-97212300D02*
X152128000Y-96462300D01*
X142828000Y-97212300D02*
X148828000Y-97212300D01*
X142828000Y-96462300D02*
X142828000Y-97212300D01*
X148828000Y-96462300D02*
X142828000Y-96462300D01*
X148828000Y-97212300D02*
X148828000Y-96462300D01*
X139518000Y-97222300D02*
X152138000Y-97222300D01*
X139518000Y-91252300D02*
X139518000Y-97222300D01*
X152138000Y-91252300D02*
X139518000Y-91252300D01*
X152138000Y-97222300D02*
X152138000Y-91252300D01*
X137737000Y-97575800D02*
X137737000Y-96325800D01*
X136487000Y-97575800D02*
X137737000Y-97575800D01*
X128087000Y-92075800D02*
X132387000Y-92075800D01*
X128087000Y-95025800D02*
X128087000Y-92075800D01*
X127337000Y-95025800D02*
X128087000Y-95025800D01*
X136687000Y-92075800D02*
X132387000Y-92075800D01*
X136687000Y-95025800D02*
X136687000Y-92075800D01*
X137437000Y-95025800D02*
X136687000Y-95025800D01*
X127337000Y-97275800D02*
X129137000Y-97275800D01*
X127337000Y-96525800D02*
X127337000Y-97275800D01*
X129137000Y-96525800D02*
X127337000Y-96525800D01*
X129137000Y-97275800D02*
X129137000Y-96525800D01*
X135637000Y-97275800D02*
X137437000Y-97275800D01*
X135637000Y-96525800D02*
X135637000Y-97275800D01*
X137437000Y-96525800D02*
X135637000Y-96525800D01*
X137437000Y-97275800D02*
X137437000Y-96525800D01*
X130637000Y-97275800D02*
X134137000Y-97275800D01*
X130637000Y-96525800D02*
X130637000Y-97275800D01*
X134137000Y-96525800D02*
X130637000Y-96525800D01*
X134137000Y-97275800D02*
X134137000Y-96525800D01*
X127327000Y-97285800D02*
X137447000Y-97285800D01*
X127327000Y-91315800D02*
X127327000Y-97285800D01*
X137447000Y-91315800D02*
X127327000Y-91315800D01*
X137447000Y-97285800D02*
X137447000Y-91315800D01*
X96587700Y-56197900D02*
X95337700Y-56197900D01*
X96587700Y-57447900D02*
X96587700Y-56197900D01*
X91087700Y-70847900D02*
X91087700Y-64047900D01*
X94037700Y-70847900D02*
X91087700Y-70847900D01*
X94037700Y-71597900D02*
X94037700Y-70847900D01*
X91087700Y-57247900D02*
X91087700Y-64047900D01*
X94037700Y-57247900D02*
X91087700Y-57247900D01*
X94037700Y-56497900D02*
X94037700Y-57247900D01*
X96287700Y-71597900D02*
X96287700Y-69797900D01*
X95537700Y-71597900D02*
X96287700Y-71597900D01*
X95537700Y-69797900D02*
X95537700Y-71597900D01*
X96287700Y-69797900D02*
X95537700Y-69797900D01*
X96287700Y-58297900D02*
X96287700Y-56497900D01*
X95537700Y-58297900D02*
X96287700Y-58297900D01*
X95537700Y-56497900D02*
X95537700Y-58297900D01*
X96287700Y-56497900D02*
X95537700Y-56497900D01*
X96287700Y-68297900D02*
X96287700Y-59797900D01*
X95537700Y-68297900D02*
X96287700Y-68297900D01*
X95537700Y-59797900D02*
X95537700Y-68297900D01*
X96287700Y-59797900D02*
X95537700Y-59797900D01*
X96297700Y-71607900D02*
X96297700Y-56487900D01*
X90327700Y-71607900D02*
X96297700Y-71607900D01*
X90327700Y-56487900D02*
X90327700Y-71607900D01*
X96297700Y-56487900D02*
X90327700Y-56487900D01*
X50683000Y-125058000D02*
X50683000Y-126308000D01*
X51933000Y-125058000D02*
X50683000Y-125058000D01*
X65333000Y-130558000D02*
X58533000Y-130558000D01*
X65333000Y-127608000D02*
X65333000Y-130558000D01*
X66083000Y-127608000D02*
X65333000Y-127608000D01*
X51733000Y-130558000D02*
X58533000Y-130558000D01*
X51733000Y-127608000D02*
X51733000Y-130558000D01*
X50983000Y-127608000D02*
X51733000Y-127608000D01*
X66083000Y-125358000D02*
X64283000Y-125358000D01*
X66083000Y-126108000D02*
X66083000Y-125358000D01*
X64283000Y-126108000D02*
X66083000Y-126108000D01*
X64283000Y-125358000D02*
X64283000Y-126108000D01*
X52783000Y-125358000D02*
X50983000Y-125358000D01*
X52783000Y-126108000D02*
X52783000Y-125358000D01*
X50983000Y-126108000D02*
X52783000Y-126108000D01*
X50983000Y-125358000D02*
X50983000Y-126108000D01*
X62783000Y-125358000D02*
X54283000Y-125358000D01*
X62783000Y-126108000D02*
X62783000Y-125358000D01*
X54283000Y-126108000D02*
X62783000Y-126108000D01*
X54283000Y-125358000D02*
X54283000Y-126108000D01*
X66093000Y-125348000D02*
X50973000Y-125348000D01*
X66093000Y-131318000D02*
X66093000Y-125348000D01*
X50973000Y-131318000D02*
X66093000Y-131318000D01*
X50973000Y-125348000D02*
X50973000Y-131318000D01*
X40648400Y-86126700D02*
X41898400Y-86126700D01*
X40648400Y-84876700D02*
X40648400Y-86126700D01*
X46148400Y-78976700D02*
X46148400Y-82026700D01*
X43198400Y-78976700D02*
X46148400Y-78976700D01*
X43198400Y-78226700D02*
X43198400Y-78976700D01*
X46148400Y-85076700D02*
X46148400Y-82026700D01*
X43198400Y-85076700D02*
X46148400Y-85076700D01*
X43198400Y-85826700D02*
X43198400Y-85076700D01*
X40948400Y-78226700D02*
X40948400Y-80026700D01*
X41698400Y-78226700D02*
X40948400Y-78226700D01*
X41698400Y-80026700D02*
X41698400Y-78226700D01*
X40948400Y-80026700D02*
X41698400Y-80026700D01*
X40948400Y-84026700D02*
X40948400Y-85826700D01*
X41698400Y-84026700D02*
X40948400Y-84026700D01*
X41698400Y-85826700D02*
X41698400Y-84026700D01*
X40948400Y-85826700D02*
X41698400Y-85826700D01*
X40948400Y-81526700D02*
X40948400Y-82526700D01*
X41698400Y-81526700D02*
X40948400Y-81526700D01*
X41698400Y-82526700D02*
X41698400Y-81526700D01*
X40948400Y-82526700D02*
X41698400Y-82526700D01*
X40938400Y-78216700D02*
X40938400Y-85836700D01*
X46908400Y-78216700D02*
X40938400Y-78216700D01*
X46908400Y-85836700D02*
X46908400Y-78216700D01*
X40938400Y-85836700D02*
X46908400Y-85836700D01*
X40551900Y-105672000D02*
X41801900Y-105672000D01*
X40551900Y-104422000D02*
X40551900Y-105672000D01*
X46051900Y-88522000D02*
X46051900Y-96572000D01*
X43101900Y-88522000D02*
X46051900Y-88522000D01*
X43101900Y-87772000D02*
X43101900Y-88522000D01*
X46051900Y-104622000D02*
X46051900Y-96572000D01*
X43101900Y-104622000D02*
X46051900Y-104622000D01*
X43101900Y-105372000D02*
X43101900Y-104622000D01*
X40851900Y-87772000D02*
X40851900Y-89572000D01*
X41601900Y-87772000D02*
X40851900Y-87772000D01*
X41601900Y-89572000D02*
X41601900Y-87772000D01*
X40851900Y-89572000D02*
X41601900Y-89572000D01*
X40851900Y-103572000D02*
X40851900Y-105372000D01*
X41601900Y-103572000D02*
X40851900Y-103572000D01*
X41601900Y-105372000D02*
X41601900Y-103572000D01*
X40851900Y-105372000D02*
X41601900Y-105372000D01*
X40851900Y-91072000D02*
X40851900Y-102072000D01*
X41601900Y-91072000D02*
X40851900Y-91072000D01*
X41601900Y-102072000D02*
X41601900Y-91072000D01*
X40851900Y-102072000D02*
X41601900Y-102072000D01*
X40841900Y-87762000D02*
X40841900Y-105382000D01*
X46811900Y-87762000D02*
X40841900Y-87762000D01*
X46811900Y-105382000D02*
X46811900Y-87762000D01*
X40841900Y-105382000D02*
X46811900Y-105382000D01*
X69892400Y-37308000D02*
X68642400Y-37308000D01*
X69892400Y-38558000D02*
X69892400Y-37308000D01*
X64392400Y-49458000D02*
X64392400Y-43908000D01*
X67342400Y-49458000D02*
X64392400Y-49458000D01*
X67342400Y-50208000D02*
X67342400Y-49458000D01*
X64392400Y-38358000D02*
X64392400Y-43908000D01*
X67342400Y-38358000D02*
X64392400Y-38358000D01*
X67342400Y-37608000D02*
X67342400Y-38358000D01*
X69592400Y-50208000D02*
X69592400Y-48408000D01*
X68842400Y-50208000D02*
X69592400Y-50208000D01*
X68842400Y-48408000D02*
X68842400Y-50208000D01*
X69592400Y-48408000D02*
X68842400Y-48408000D01*
X69592400Y-39408000D02*
X69592400Y-37608000D01*
X68842400Y-39408000D02*
X69592400Y-39408000D01*
X68842400Y-37608000D02*
X68842400Y-39408000D01*
X69592400Y-37608000D02*
X68842400Y-37608000D01*
X69592400Y-46908000D02*
X69592400Y-40908000D01*
X68842400Y-46908000D02*
X69592400Y-46908000D01*
X68842400Y-40908000D02*
X68842400Y-46908000D01*
X69592400Y-40908000D02*
X68842400Y-40908000D01*
X69602400Y-50218000D02*
X69602400Y-37598000D01*
X63632400Y-50218000D02*
X69602400Y-50218000D01*
X63632400Y-37598000D02*
X63632400Y-50218000D01*
X69602400Y-37598000D02*
X63632400Y-37598000D01*
D10*
X43075900Y-58552100D02*
X44345900Y-57282100D01*
X44345900Y-59822100D02*
X43075900Y-58552100D01*
X43075900Y-58552100D02*
X48155900Y-58552100D01*
X48155900Y-58552100D02*
X48155900Y-63632100D01*
X48155900Y-63632100D02*
X49425900Y-62362100D01*
X46885900Y-62362100D02*
X48155900Y-63632100D01*
X54505900Y-76332100D02*
X39265900Y-76332100D01*
X54505900Y-56012100D02*
X54505900Y-76332100D01*
X39265900Y-56012100D02*
X54505900Y-56012100D01*
X39265900Y-76332100D02*
X39265900Y-56012100D01*
D14*
X59616400Y-40613600D02*
X59616400Y-40543600D01*
X60986400Y-41983600D02*
G75*
G03*
X60986400Y-41983600I-1370000J0D01*
G01*
X59524900Y-47217000D02*
X59524900Y-47287000D01*
X60894900Y-45847000D02*
G75*
G03*
X60894900Y-45847000I-1370000J0D01*
G01*
X160212000Y-62821800D02*
X160282000Y-62821800D01*
X160212000Y-62821800D02*
G75*
G03*
X160212000Y-62821800I-1370000J0D01*
G01*
X160613000Y-98508800D02*
X160683000Y-98508800D01*
X160613000Y-98508800D02*
G75*
G03*
X160613000Y-98508800I-1370000J0D01*
G01*
X160212000Y-57706200D02*
X160282000Y-57706200D01*
X160212000Y-57706200D02*
G75*
G03*
X160212000Y-57706200I-1370000J0D01*
G01*
X160532000Y-103441000D02*
X160602000Y-103441000D01*
X160532000Y-103441000D02*
G75*
G03*
X160532000Y-103441000I-1370000J0D01*
G01*
X170852000Y-48983800D02*
X170852000Y-47653800D01*
X170852000Y-47653800D02*
X172182000Y-47653800D01*
X173452000Y-47653800D02*
X178592000Y-47653800D01*
X178592000Y-50313800D02*
X178592000Y-47653800D01*
X173452000Y-50313800D02*
X178592000Y-50313800D01*
X173452000Y-50313800D02*
X173452000Y-47653800D01*
X161288000Y-48983800D02*
X161288000Y-47653800D01*
X161288000Y-47653800D02*
X162618000Y-47653800D01*
X163888000Y-47653800D02*
X169028000Y-47653800D01*
X169028000Y-50313800D02*
X169028000Y-47653800D01*
X163888000Y-50313800D02*
X169028000Y-50313800D01*
X163888000Y-50313800D02*
X163888000Y-47653800D01*
X177496000Y-54348300D02*
X176246000Y-54348300D01*
X177496000Y-55598300D02*
X177496000Y-54348300D01*
X171996000Y-68998300D02*
X171996000Y-62198300D01*
X174946000Y-68998300D02*
X171996000Y-68998300D01*
X174946000Y-69748300D02*
X174946000Y-68998300D01*
X171996000Y-55398300D02*
X171996000Y-62198300D01*
X174946000Y-55398300D02*
X171996000Y-55398300D01*
X174946000Y-54648300D02*
X174946000Y-55398300D01*
X177196000Y-69748300D02*
X177196000Y-67948300D01*
X176446000Y-69748300D02*
X177196000Y-69748300D01*
X176446000Y-67948300D02*
X176446000Y-69748300D01*
X177196000Y-67948300D02*
X176446000Y-67948300D01*
X177196000Y-56448300D02*
X177196000Y-54648300D01*
X176446000Y-56448300D02*
X177196000Y-56448300D01*
X176446000Y-54648300D02*
X176446000Y-56448300D01*
X177196000Y-54648300D02*
X176446000Y-54648300D01*
X177196000Y-66448300D02*
X177196000Y-57948300D01*
X176446000Y-66448300D02*
X177196000Y-66448300D01*
X176446000Y-57948300D02*
X176446000Y-66448300D01*
X177196000Y-57948300D02*
X176446000Y-57948300D01*
X177206000Y-69758300D02*
X177206000Y-54638300D01*
X171236000Y-69758300D02*
X177206000Y-69758300D01*
X171236000Y-54638300D02*
X171236000Y-69758300D01*
X177206000Y-54638300D02*
X171236000Y-54638300D01*
X177698000Y-72181600D02*
X176448000Y-72181600D01*
X177698000Y-73431600D02*
X177698000Y-72181600D01*
X172198000Y-86831600D02*
X172198000Y-80031600D01*
X175148000Y-86831600D02*
X172198000Y-86831600D01*
X175148000Y-87581600D02*
X175148000Y-86831600D01*
X172198000Y-73231600D02*
X172198000Y-80031600D01*
X175148000Y-73231600D02*
X172198000Y-73231600D01*
X175148000Y-72481600D02*
X175148000Y-73231600D01*
X177398000Y-87581600D02*
X177398000Y-85781600D01*
X176648000Y-87581600D02*
X177398000Y-87581600D01*
X176648000Y-85781600D02*
X176648000Y-87581600D01*
X177398000Y-85781600D02*
X176648000Y-85781600D01*
X177398000Y-74281600D02*
X177398000Y-72481600D01*
X176648000Y-74281600D02*
X177398000Y-74281600D01*
X176648000Y-72481600D02*
X176648000Y-74281600D01*
X177398000Y-72481600D02*
X176648000Y-72481600D01*
X177398000Y-84281600D02*
X177398000Y-75781600D01*
X176648000Y-84281600D02*
X177398000Y-84281600D01*
X176648000Y-75781600D02*
X176648000Y-84281600D01*
X177398000Y-75781600D02*
X176648000Y-75781600D01*
X177408000Y-87591600D02*
X177408000Y-72471600D01*
X171438000Y-87591600D02*
X177408000Y-87591600D01*
X171438000Y-72471600D02*
X171438000Y-87591600D01*
X177408000Y-72471600D02*
X171438000Y-72471600D01*
X177726000Y-90180000D02*
X176476000Y-90180000D01*
X177726000Y-91430000D02*
X177726000Y-90180000D01*
X172226000Y-104830000D02*
X172226000Y-98030000D01*
X175176000Y-104830000D02*
X172226000Y-104830000D01*
X175176000Y-105580000D02*
X175176000Y-104830000D01*
X172226000Y-91230000D02*
X172226000Y-98030000D01*
X175176000Y-91230000D02*
X172226000Y-91230000D01*
X175176000Y-90480000D02*
X175176000Y-91230000D01*
X177426000Y-105580000D02*
X177426000Y-103780000D01*
X176676000Y-105580000D02*
X177426000Y-105580000D01*
X176676000Y-103780000D02*
X176676000Y-105580000D01*
X177426000Y-103780000D02*
X176676000Y-103780000D01*
X177426000Y-92280000D02*
X177426000Y-90480000D01*
X176676000Y-92280000D02*
X177426000Y-92280000D01*
X176676000Y-90480000D02*
X176676000Y-92280000D01*
X177426000Y-90480000D02*
X176676000Y-90480000D01*
X177426000Y-102280000D02*
X177426000Y-93780000D01*
X176676000Y-102280000D02*
X177426000Y-102280000D01*
X176676000Y-93780000D02*
X176676000Y-102280000D01*
X177426000Y-93780000D02*
X176676000Y-93780000D01*
X177436000Y-105590000D02*
X177436000Y-90470000D01*
X171466000Y-105590000D02*
X177436000Y-105590000D01*
X171466000Y-90470000D02*
X171466000Y-105590000D01*
X177436000Y-90470000D02*
X171466000Y-90470000D01*
X156800000Y-80124000D02*
X158050000Y-80124000D01*
X156800000Y-78874000D02*
X156800000Y-80124000D01*
X162300000Y-67974000D02*
X162300000Y-73524000D01*
X159350000Y-67974000D02*
X162300000Y-67974000D01*
X159350000Y-67224000D02*
X159350000Y-67974000D01*
X162300000Y-79074000D02*
X162300000Y-73524000D01*
X159350000Y-79074000D02*
X162300000Y-79074000D01*
X159350000Y-79824000D02*
X159350000Y-79074000D01*
X157100000Y-67224000D02*
X157100000Y-69024000D01*
X157850000Y-67224000D02*
X157100000Y-67224000D01*
X157850000Y-69024000D02*
X157850000Y-67224000D01*
X157100000Y-69024000D02*
X157850000Y-69024000D01*
X157100000Y-78024000D02*
X157100000Y-79824000D01*
X157850000Y-78024000D02*
X157100000Y-78024000D01*
X157850000Y-79824000D02*
X157850000Y-78024000D01*
X157100000Y-79824000D02*
X157850000Y-79824000D01*
X157100000Y-70524000D02*
X157100000Y-76524000D01*
X157850000Y-70524000D02*
X157100000Y-70524000D01*
X157850000Y-76524000D02*
X157850000Y-70524000D01*
X157100000Y-76524000D02*
X157850000Y-76524000D01*
X157090000Y-67214000D02*
X157090000Y-79834000D01*
X163060000Y-67214000D02*
X157090000Y-67214000D01*
X163060000Y-79834000D02*
X163060000Y-67214000D01*
X157090000Y-79834000D02*
X163060000Y-79834000D01*
X163286000Y-81592000D02*
X162036000Y-81592000D01*
X163286000Y-82842000D02*
X163286000Y-81592000D01*
X157786000Y-93742000D02*
X157786000Y-88192000D01*
X160736000Y-93742000D02*
X157786000Y-93742000D01*
X160736000Y-94492000D02*
X160736000Y-93742000D01*
X157786000Y-82642000D02*
X157786000Y-88192000D01*
X160736000Y-82642000D02*
X157786000Y-82642000D01*
X160736000Y-81892000D02*
X160736000Y-82642000D01*
X162986000Y-94492000D02*
X162986000Y-92692000D01*
X162236000Y-94492000D02*
X162986000Y-94492000D01*
X162236000Y-92692000D02*
X162236000Y-94492000D01*
X162986000Y-92692000D02*
X162236000Y-92692000D01*
X162986000Y-83692000D02*
X162986000Y-81892000D01*
X162236000Y-83692000D02*
X162986000Y-83692000D01*
X162236000Y-81892000D02*
X162236000Y-83692000D01*
X162986000Y-81892000D02*
X162236000Y-81892000D01*
X162986000Y-91192000D02*
X162986000Y-85192000D01*
X162236000Y-91192000D02*
X162986000Y-91192000D01*
X162236000Y-85192000D02*
X162236000Y-91192000D01*
X162986000Y-85192000D02*
X162236000Y-85192000D01*
X162996000Y-94502000D02*
X162996000Y-81882000D01*
X157026000Y-94502000D02*
X162996000Y-94502000D01*
X157026000Y-81882000D02*
X157026000Y-94502000D01*
X162996000Y-81882000D02*
X157026000Y-81882000D01*
D15*
G36*
X65319000Y-83117300D02*
G01*
X65573000Y-83371300D01*
X65192000Y-83625300D01*
X64938000Y-83371300D01*
X65319000Y-83117300D01*
G37*
X65319000Y-83117300D02*
X65573000Y-83371300D01*
X65192000Y-83625300D01*
X64938000Y-83371300D01*
X65319000Y-83117300D01*
G36*
X65700000Y-83498300D02*
G01*
X65954000Y-83752300D01*
X65573000Y-84006300D01*
X65319000Y-83752300D01*
X65700000Y-83498300D01*
G37*
X65700000Y-83498300D02*
X65954000Y-83752300D01*
X65573000Y-84006300D01*
X65319000Y-83752300D01*
X65700000Y-83498300D01*
G36*
X64938000Y-85403300D02*
G01*
X65192000Y-85657300D01*
X64811000Y-85911300D01*
X64557000Y-85657300D01*
X64938000Y-85403300D01*
G37*
X64938000Y-85403300D02*
X65192000Y-85657300D01*
X64811000Y-85911300D01*
X64557000Y-85657300D01*
X64938000Y-85403300D01*
G36*
X65446000Y-85022300D02*
G01*
X65700000Y-85276300D01*
X65319000Y-85530300D01*
X65065000Y-85276300D01*
X65446000Y-85022300D01*
G37*
X65446000Y-85022300D02*
X65700000Y-85276300D01*
X65319000Y-85530300D01*
X65065000Y-85276300D01*
X65446000Y-85022300D01*
G36*
X65954000Y-84641300D02*
G01*
X66208000Y-84895300D01*
X65827000Y-85149300D01*
X65573000Y-84895300D01*
X65954000Y-84641300D01*
G37*
X65954000Y-84641300D02*
X66208000Y-84895300D01*
X65827000Y-85149300D01*
X65573000Y-84895300D01*
X65954000Y-84641300D01*
G36*
X65065000Y-84641300D02*
G01*
X65319000Y-84895300D01*
X64938000Y-85149300D01*
X64684000Y-84895300D01*
X65065000Y-84641300D01*
G37*
X65065000Y-84641300D02*
X65319000Y-84895300D01*
X64938000Y-85149300D01*
X64684000Y-84895300D01*
X65065000Y-84641300D01*
G36*
X65573000Y-84260300D02*
G01*
X65827000Y-84514300D01*
X65446000Y-84768300D01*
X65192000Y-84514300D01*
X65573000Y-84260300D01*
G37*
X65573000Y-84260300D02*
X65827000Y-84514300D01*
X65446000Y-84768300D01*
X65192000Y-84514300D01*
X65573000Y-84260300D01*
G36*
X66081000Y-83879300D02*
G01*
X66335000Y-84133300D01*
X65954000Y-84387300D01*
X65700000Y-84133300D01*
X66081000Y-83879300D01*
G37*
X66081000Y-83879300D02*
X66335000Y-84133300D01*
X65954000Y-84387300D01*
X65700000Y-84133300D01*
X66081000Y-83879300D01*
D10*
X74516000Y-116794300D02*
X56736000Y-116794300D01*
X74516000Y-55834300D02*
X74516000Y-116794300D01*
X56736000Y-55834300D02*
X74516000Y-55834300D01*
X56736000Y-116794300D02*
X56736000Y-55834300D01*
X69436000Y-111714300D02*
X69436000Y-116794300D01*
X61816000Y-111714300D02*
X61816000Y-116794300D01*
X69436000Y-111714300D02*
X61816000Y-111714300D01*
X61816000Y-118064300D02*
X61816000Y-116794300D01*
X69436000Y-118064300D02*
X61816000Y-118064300D01*
X69436000Y-116794300D02*
X69436000Y-118064300D01*
X59276000Y-55834300D02*
X59276000Y-68534300D01*
X59276000Y-68534300D02*
X71976000Y-68534300D01*
X71976000Y-68534300D02*
X71976000Y-55834300D01*
X60546000Y-55834300D02*
X60546000Y-57104300D01*
X60546000Y-57104300D02*
X70706000Y-57104300D01*
X70706000Y-57104300D02*
X70706000Y-55834300D01*
X64356000Y-72344300D02*
X66896000Y-72344300D01*
X66896000Y-72344300D02*
X66896000Y-76154300D01*
X66896000Y-76154300D02*
X64356000Y-76154300D01*
X64356000Y-76154300D02*
X64356000Y-72344300D01*
X68925200Y-110495100D02*
X68925200Y-97795100D01*
X68925200Y-97795100D02*
X71465200Y-97795100D01*
X71465200Y-97795100D02*
X71465200Y-110495100D01*
X71465200Y-110495100D02*
X68925200Y-110495100D01*
X68925200Y-110495100D02*
X68925200Y-107955100D01*
X68925200Y-107955100D02*
X71465200Y-107955100D01*
X59524400Y-103564300D02*
X65524400Y-103564300D01*
X65524400Y-103564300D02*
X65524400Y-99564300D01*
X65524400Y-99564300D02*
X59274400Y-99564300D01*
X59274400Y-99564300D02*
X59274400Y-103564300D01*
X59274400Y-103564300D02*
X59524400Y-103564300D01*
X71976000Y-93934300D02*
X71976000Y-81234300D01*
X71976000Y-81234300D02*
X59276000Y-81234300D01*
X59276000Y-81234300D02*
X59276000Y-93934300D01*
X59276000Y-93934300D02*
X71976000Y-93934300D01*
X66524026Y-74249300D02*
G75*
G03*
X66524026Y-74249300I-898026J0D01*
G01*
D14*
X84347400Y-55900100D02*
X83097400Y-55900100D01*
X84347400Y-57150100D02*
X84347400Y-55900100D01*
X78847400Y-70550100D02*
X78847400Y-63750100D01*
X81797400Y-70550100D02*
X78847400Y-70550100D01*
X81797400Y-71300100D02*
X81797400Y-70550100D01*
X78847400Y-56950100D02*
X78847400Y-63750100D01*
X81797400Y-56950100D02*
X78847400Y-56950100D01*
X81797400Y-56200100D02*
X81797400Y-56950100D01*
X84047400Y-71300100D02*
X84047400Y-69500100D01*
X83297400Y-71300100D02*
X84047400Y-71300100D01*
X83297400Y-69500100D02*
X83297400Y-71300100D01*
X84047400Y-69500100D02*
X83297400Y-69500100D01*
X84047400Y-58000100D02*
X84047400Y-56200100D01*
X83297400Y-58000100D02*
X84047400Y-58000100D01*
X83297400Y-56200100D02*
X83297400Y-58000100D01*
X84047400Y-56200100D02*
X83297400Y-56200100D01*
X84047400Y-68000100D02*
X84047400Y-59500100D01*
X83297400Y-68000100D02*
X84047400Y-68000100D01*
X83297400Y-59500100D02*
X83297400Y-68000100D01*
X84047400Y-59500100D02*
X83297400Y-59500100D01*
X84057400Y-71310100D02*
X84057400Y-56190100D01*
X78087400Y-71310100D02*
X84057400Y-71310100D01*
X78087400Y-56190100D02*
X78087400Y-71310100D01*
X84057400Y-56190100D02*
X78087400Y-56190100D01*
X95559100Y-37414100D02*
X94309100Y-37414100D01*
X95559100Y-38664100D02*
X95559100Y-37414100D01*
X90059100Y-49564100D02*
X90059100Y-44014100D01*
X93009100Y-49564100D02*
X90059100Y-49564100D01*
X93009100Y-50314100D02*
X93009100Y-49564100D01*
X90059100Y-38464100D02*
X90059100Y-44014100D01*
X93009100Y-38464100D02*
X90059100Y-38464100D01*
X93009100Y-37714100D02*
X93009100Y-38464100D01*
X95259100Y-50314100D02*
X95259100Y-48514100D01*
X94509100Y-50314100D02*
X95259100Y-50314100D01*
X94509100Y-48514100D02*
X94509100Y-50314100D01*
X95259100Y-48514100D02*
X94509100Y-48514100D01*
X95259100Y-39514100D02*
X95259100Y-37714100D01*
X94509100Y-39514100D02*
X95259100Y-39514100D01*
X94509100Y-37714100D02*
X94509100Y-39514100D01*
X95259100Y-37714100D02*
X94509100Y-37714100D01*
X95259100Y-47014100D02*
X95259100Y-41014100D01*
X94509100Y-47014100D02*
X95259100Y-47014100D01*
X94509100Y-41014100D02*
X94509100Y-47014100D01*
X95259100Y-41014100D02*
X94509100Y-41014100D01*
X95269100Y-50324100D02*
X95269100Y-37704100D01*
X89299100Y-50324100D02*
X95269100Y-50324100D01*
X89299100Y-37704100D02*
X89299100Y-50324100D01*
X95269100Y-37704100D02*
X89299100Y-37704100D01*
X154084000Y-58978100D02*
X154084000Y-57728100D01*
X152834000Y-58978100D02*
X154084000Y-58978100D01*
X144434000Y-53478100D02*
X148734000Y-53478100D01*
X144434000Y-56428100D02*
X144434000Y-53478100D01*
X143684000Y-56428100D02*
X144434000Y-56428100D01*
X153034000Y-53478100D02*
X148734000Y-53478100D01*
X153034000Y-56428100D02*
X153034000Y-53478100D01*
X153784000Y-56428100D02*
X153034000Y-56428100D01*
X143684000Y-58678100D02*
X145484000Y-58678100D01*
X143684000Y-57928100D02*
X143684000Y-58678100D01*
X145484000Y-57928100D02*
X143684000Y-57928100D01*
X145484000Y-58678100D02*
X145484000Y-57928100D01*
X151984000Y-58678100D02*
X153784000Y-58678100D01*
X151984000Y-57928100D02*
X151984000Y-58678100D01*
X153784000Y-57928100D02*
X151984000Y-57928100D01*
X153784000Y-58678100D02*
X153784000Y-57928100D01*
X146984000Y-58678100D02*
X150484000Y-58678100D01*
X146984000Y-57928100D02*
X146984000Y-58678100D01*
X150484000Y-57928100D02*
X146984000Y-57928100D01*
X150484000Y-58678100D02*
X150484000Y-57928100D01*
X143674000Y-58688100D02*
X153794000Y-58688100D01*
X143674000Y-52718100D02*
X143674000Y-58688100D01*
X153794000Y-52718100D02*
X143674000Y-52718100D01*
X153794000Y-58688100D02*
X153794000Y-52718100D01*
X40414800Y-125423000D02*
X41664800Y-125423000D01*
X40414800Y-124173000D02*
X40414800Y-125423000D01*
X45914800Y-118273000D02*
X45914800Y-121323000D01*
X42964800Y-118273000D02*
X45914800Y-118273000D01*
X42964800Y-117523000D02*
X42964800Y-118273000D01*
X45914800Y-124373000D02*
X45914800Y-121323000D01*
X42964800Y-124373000D02*
X45914800Y-124373000D01*
X42964800Y-125123000D02*
X42964800Y-124373000D01*
X40714800Y-117523000D02*
X40714800Y-119323000D01*
X41464800Y-117523000D02*
X40714800Y-117523000D01*
X41464800Y-119323000D02*
X41464800Y-117523000D01*
X40714800Y-119323000D02*
X41464800Y-119323000D01*
X40714800Y-123323000D02*
X40714800Y-125123000D01*
X41464800Y-123323000D02*
X40714800Y-123323000D01*
X41464800Y-125123000D02*
X41464800Y-123323000D01*
X40714800Y-125123000D02*
X41464800Y-125123000D01*
X40714800Y-120823000D02*
X40714800Y-121823000D01*
X41464800Y-120823000D02*
X40714800Y-120823000D01*
X41464800Y-121823000D02*
X41464800Y-120823000D01*
X40714800Y-121823000D02*
X41464800Y-121823000D01*
X40704800Y-117513000D02*
X40704800Y-125133000D01*
X46674800Y-117513000D02*
X40704800Y-117513000D01*
X46674800Y-125133000D02*
X46674800Y-117513000D01*
X40704800Y-125133000D02*
X46674800Y-125133000D01*
X141061000Y-58978100D02*
X141061000Y-57728100D01*
X139811000Y-58978100D02*
X141061000Y-58978100D01*
X131411000Y-53478100D02*
X135711000Y-53478100D01*
X131411000Y-56428100D02*
X131411000Y-53478100D01*
X130661000Y-56428100D02*
X131411000Y-56428100D01*
X140011000Y-53478100D02*
X135711000Y-53478100D01*
X140011000Y-56428100D02*
X140011000Y-53478100D01*
X140761000Y-56428100D02*
X140011000Y-56428100D01*
X130661000Y-58678100D02*
X132461000Y-58678100D01*
X130661000Y-57928100D02*
X130661000Y-58678100D01*
X132461000Y-57928100D02*
X130661000Y-57928100D01*
X132461000Y-58678100D02*
X132461000Y-57928100D01*
X138961000Y-58678100D02*
X140761000Y-58678100D01*
X138961000Y-57928100D02*
X138961000Y-58678100D01*
X140761000Y-57928100D02*
X138961000Y-57928100D01*
X140761000Y-58678100D02*
X140761000Y-57928100D01*
X133961000Y-58678100D02*
X137461000Y-58678100D01*
X133961000Y-57928100D02*
X133961000Y-58678100D01*
X137461000Y-57928100D02*
X133961000Y-57928100D01*
X137461000Y-58678100D02*
X137461000Y-57928100D01*
X130651000Y-58688100D02*
X140771000Y-58688100D01*
X130651000Y-52718100D02*
X130651000Y-58688100D01*
X140771000Y-52718100D02*
X130651000Y-52718100D01*
X140771000Y-58688100D02*
X140771000Y-52718100D01*
X126368000Y-37567000D02*
X125118000Y-37567000D01*
X126368000Y-38817000D02*
X126368000Y-37567000D01*
X120868000Y-49717000D02*
X120868000Y-44167000D01*
X123818000Y-49717000D02*
X120868000Y-49717000D01*
X123818000Y-50467000D02*
X123818000Y-49717000D01*
X120868000Y-38617000D02*
X120868000Y-44167000D01*
X123818000Y-38617000D02*
X120868000Y-38617000D01*
X123818000Y-37867000D02*
X123818000Y-38617000D01*
X126068000Y-50467000D02*
X126068000Y-48667000D01*
X125318000Y-50467000D02*
X126068000Y-50467000D01*
X125318000Y-48667000D02*
X125318000Y-50467000D01*
X126068000Y-48667000D02*
X125318000Y-48667000D01*
X126068000Y-39667000D02*
X126068000Y-37867000D01*
X125318000Y-39667000D02*
X126068000Y-39667000D01*
X125318000Y-37867000D02*
X125318000Y-39667000D01*
X126068000Y-37867000D02*
X125318000Y-37867000D01*
X126068000Y-47167000D02*
X126068000Y-41167000D01*
X125318000Y-47167000D02*
X126068000Y-47167000D01*
X125318000Y-41167000D02*
X125318000Y-47167000D01*
X126068000Y-41167000D02*
X125318000Y-41167000D01*
X126078000Y-50477000D02*
X126078000Y-37857000D01*
X120108000Y-50477000D02*
X126078000Y-50477000D01*
X120108000Y-37857000D02*
X120108000Y-50477000D01*
X126078000Y-37857000D02*
X120108000Y-37857000D01*
X116558000Y-37477000D02*
X115308000Y-37477000D01*
X116558000Y-38727000D02*
X116558000Y-37477000D01*
X111058000Y-49627000D02*
X111058000Y-44077000D01*
X114008000Y-49627000D02*
X111058000Y-49627000D01*
X114008000Y-50377000D02*
X114008000Y-49627000D01*
X111058000Y-38527000D02*
X111058000Y-44077000D01*
X114008000Y-38527000D02*
X111058000Y-38527000D01*
X114008000Y-37777000D02*
X114008000Y-38527000D01*
X116258000Y-50377000D02*
X116258000Y-48577000D01*
X115508000Y-50377000D02*
X116258000Y-50377000D01*
X115508000Y-48577000D02*
X115508000Y-50377000D01*
X116258000Y-48577000D02*
X115508000Y-48577000D01*
X116258000Y-39577000D02*
X116258000Y-37777000D01*
X115508000Y-39577000D02*
X116258000Y-39577000D01*
X115508000Y-37777000D02*
X115508000Y-39577000D01*
X116258000Y-37777000D02*
X115508000Y-37777000D01*
X116258000Y-47077000D02*
X116258000Y-41077000D01*
X115508000Y-47077000D02*
X116258000Y-47077000D01*
X115508000Y-41077000D02*
X115508000Y-47077000D01*
X116258000Y-41077000D02*
X115508000Y-41077000D01*
X116268000Y-50387000D02*
X116268000Y-37767000D01*
X110298000Y-50387000D02*
X116268000Y-50387000D01*
X110298000Y-37767000D02*
X110298000Y-50387000D01*
X116268000Y-37767000D02*
X110298000Y-37767000D01*
X162029000Y-43468700D02*
X162029000Y-42218700D01*
X160779000Y-43468700D02*
X162029000Y-43468700D01*
X152379000Y-37968700D02*
X156679000Y-37968700D01*
X152379000Y-40918700D02*
X152379000Y-37968700D01*
X151629000Y-40918700D02*
X152379000Y-40918700D01*
X160979000Y-37968700D02*
X156679000Y-37968700D01*
X160979000Y-40918700D02*
X160979000Y-37968700D01*
X161729000Y-40918700D02*
X160979000Y-40918700D01*
X151629000Y-43168700D02*
X153429000Y-43168700D01*
X151629000Y-42418700D02*
X151629000Y-43168700D01*
X153429000Y-42418700D02*
X151629000Y-42418700D01*
X153429000Y-43168700D02*
X153429000Y-42418700D01*
X159929000Y-43168700D02*
X161729000Y-43168700D01*
X159929000Y-42418700D02*
X159929000Y-43168700D01*
X161729000Y-42418700D02*
X159929000Y-42418700D01*
X161729000Y-43168700D02*
X161729000Y-42418700D01*
X154929000Y-43168700D02*
X158429000Y-43168700D01*
X154929000Y-42418700D02*
X154929000Y-43168700D01*
X158429000Y-42418700D02*
X154929000Y-42418700D01*
X158429000Y-43168700D02*
X158429000Y-42418700D01*
X151619000Y-43178700D02*
X161739000Y-43178700D01*
X151619000Y-37208700D02*
X151619000Y-43178700D01*
X161739000Y-37208700D02*
X151619000Y-37208700D01*
X161739000Y-43178700D02*
X161739000Y-37208700D01*
X148496000Y-43377300D02*
X148496000Y-42127300D01*
X147246000Y-43377300D02*
X148496000Y-43377300D01*
X136346000Y-37877300D02*
X141896000Y-37877300D01*
X136346000Y-40827300D02*
X136346000Y-37877300D01*
X135596000Y-40827300D02*
X136346000Y-40827300D01*
X147446000Y-37877300D02*
X141896000Y-37877300D01*
X147446000Y-40827300D02*
X147446000Y-37877300D01*
X148196000Y-40827300D02*
X147446000Y-40827300D01*
X135596000Y-43077300D02*
X137396000Y-43077300D01*
X135596000Y-42327300D02*
X135596000Y-43077300D01*
X137396000Y-42327300D02*
X135596000Y-42327300D01*
X137396000Y-43077300D02*
X137396000Y-42327300D01*
X146396000Y-43077300D02*
X148196000Y-43077300D01*
X146396000Y-42327300D02*
X146396000Y-43077300D01*
X148196000Y-42327300D02*
X146396000Y-42327300D01*
X148196000Y-43077300D02*
X148196000Y-42327300D01*
X138896000Y-43077300D02*
X144896000Y-43077300D01*
X138896000Y-42327300D02*
X138896000Y-43077300D01*
X144896000Y-42327300D02*
X138896000Y-42327300D01*
X144896000Y-43077300D02*
X144896000Y-42327300D01*
X135586000Y-43087300D02*
X148206000Y-43087300D01*
X135586000Y-37117300D02*
X135586000Y-43087300D01*
X148206000Y-37117300D02*
X135586000Y-37117300D01*
X148206000Y-43087300D02*
X148206000Y-37117300D01*
X85241600Y-37403900D02*
X83991600Y-37403900D01*
X85241600Y-38653900D02*
X85241600Y-37403900D01*
X79741600Y-49553900D02*
X79741600Y-44003900D01*
X82691600Y-49553900D02*
X79741600Y-49553900D01*
X82691600Y-50303900D02*
X82691600Y-49553900D01*
X79741600Y-38453900D02*
X79741600Y-44003900D01*
X82691600Y-38453900D02*
X79741600Y-38453900D01*
X82691600Y-37703900D02*
X82691600Y-38453900D01*
X84941600Y-50303900D02*
X84941600Y-48503900D01*
X84191600Y-50303900D02*
X84941600Y-50303900D01*
X84191600Y-48503900D02*
X84191600Y-50303900D01*
X84941600Y-48503900D02*
X84191600Y-48503900D01*
X84941600Y-39503900D02*
X84941600Y-37703900D01*
X84191600Y-39503900D02*
X84941600Y-39503900D01*
X84191600Y-37703900D02*
X84191600Y-39503900D01*
X84941600Y-37703900D02*
X84191600Y-37703900D01*
X84941600Y-47003900D02*
X84941600Y-41003900D01*
X84191600Y-47003900D02*
X84941600Y-47003900D01*
X84191600Y-41003900D02*
X84191600Y-47003900D01*
X84941600Y-41003900D02*
X84191600Y-41003900D01*
X84951600Y-50313900D02*
X84951600Y-37693900D01*
X78981600Y-50313900D02*
X84951600Y-50313900D01*
X78981600Y-37693900D02*
X78981600Y-50313900D01*
X84951600Y-37693900D02*
X78981600Y-37693900D01*
X104309000Y-37368300D02*
X103059000Y-37368300D01*
X104309000Y-38618300D02*
X104309000Y-37368300D01*
X98809000Y-49518300D02*
X98809000Y-43968300D01*
X101759000Y-49518300D02*
X98809000Y-49518300D01*
X101759000Y-50268300D02*
X101759000Y-49518300D01*
X98809000Y-38418300D02*
X98809000Y-43968300D01*
X101759000Y-38418300D02*
X98809000Y-38418300D01*
X101759000Y-37668300D02*
X101759000Y-38418300D01*
X104009000Y-50268300D02*
X104009000Y-48468300D01*
X103259000Y-50268300D02*
X104009000Y-50268300D01*
X103259000Y-48468300D02*
X103259000Y-50268300D01*
X104009000Y-48468300D02*
X103259000Y-48468300D01*
X104009000Y-39468300D02*
X104009000Y-37668300D01*
X103259000Y-39468300D02*
X104009000Y-39468300D01*
X103259000Y-37668300D02*
X103259000Y-39468300D01*
X104009000Y-37668300D02*
X103259000Y-37668300D01*
X104009000Y-46968300D02*
X104009000Y-40968300D01*
X103259000Y-46968300D02*
X104009000Y-46968300D01*
X103259000Y-40968300D02*
X103259000Y-46968300D01*
X104009000Y-40968300D02*
X103259000Y-40968300D01*
X104019000Y-50278300D02*
X104019000Y-37658300D01*
X98049000Y-50278300D02*
X104019000Y-50278300D01*
X98049000Y-37658300D02*
X98049000Y-50278300D01*
X104019000Y-37658300D02*
X98049000Y-37658300D01*
X75293300Y-41359700D02*
X75293300Y-41429700D01*
X76663300Y-39989700D02*
G75*
G03*
X76663300Y-39989700I-1370000J0D01*
G01*
X75293300Y-47344000D02*
X75293300Y-47414000D01*
X76663300Y-45974000D02*
G75*
G03*
X76663300Y-45974000I-1370000J0D01*
G01*
X41080000Y-43180000D02*
X41080000Y-53340000D01*
X48700000Y-43180000D02*
X41080000Y-43180000D01*
X48700000Y-53340000D02*
X48700000Y-43180000D01*
X41080000Y-53340000D02*
X48700000Y-53340000D01*
X42350000Y-53340000D02*
X42350000Y-43180000D01*
X53448600Y-43018000D02*
X50508600Y-43018000D01*
X53448600Y-43258000D02*
X50508600Y-43258000D01*
X53448600Y-43138000D02*
X50508600Y-43138000D01*
X51978600Y-48698000D02*
X51978600Y-47678000D01*
X51978600Y-41218000D02*
X51978600Y-42238000D01*
X53448600Y-47678000D02*
X53448600Y-42238000D01*
X50508600Y-47678000D02*
X53448600Y-47678000D01*
X50508600Y-42238000D02*
X50508600Y-47678000D01*
X53448600Y-42238000D02*
X50508600Y-42238000D01*
X151292000Y-64618700D02*
X151292000Y-64548700D01*
X152662000Y-65988700D02*
G75*
G03*
X152662000Y-65988700I-1370000J0D01*
G01*
X146502000Y-64708700D02*
X146502000Y-64638700D01*
X147872000Y-66078700D02*
G75*
G03*
X147872000Y-66078700I-1370000J0D01*
G01*
X138076000Y-64705100D02*
X138076000Y-64635100D01*
X139446000Y-66075100D02*
G75*
G03*
X139446000Y-66075100I-1370000J0D01*
G01*
X133182000Y-64741100D02*
X133182000Y-64671100D01*
X134552000Y-66111100D02*
G75*
G03*
X134552000Y-66111100I-1370000J0D01*
G01*
D10*
X174251760Y-115197000D02*
G75*
G03*
X174251760Y-115197000I-1000760J0D01*
G01*
X179451140Y-115197000D02*
G75*
G03*
X179451140Y-115197000I-6200140J0D01*
G01*
X113242971Y-73465314D02*
X113290590Y-73322457D01*
X113338209Y-73274838D01*
X113433447Y-73227219D01*
X113576304Y-73227219D01*
X113671542Y-73274838D01*
X113719161Y-73322457D01*
X113766780Y-73417695D01*
X113766780Y-73798647D01*
X112766780Y-73798647D01*
X112766780Y-73465314D01*
X112814400Y-73370076D01*
X112862019Y-73322457D01*
X112957257Y-73274838D01*
X113052495Y-73274838D01*
X113147733Y-73322457D01*
X113195352Y-73370076D01*
X113242971Y-73465314D01*
X113242971Y-73798647D01*
X112766780Y-72941504D02*
X112766780Y-72370076D01*
X113766780Y-72655790D02*
X112766780Y-72655790D01*
X113766780Y-71512933D02*
X113766780Y-72084361D01*
X113766780Y-71798647D02*
X112766780Y-71798647D01*
X112909638Y-71893885D01*
X113004876Y-71989123D01*
X113052495Y-72084361D01*
X111745142Y-82699828D02*
X111745142Y-81556971D01*
X112316571Y-82128400D02*
X111173714Y-82128400D01*
X38774120Y-112279823D02*
X39488406Y-112279823D01*
X39631263Y-112327442D01*
X39726501Y-112422680D01*
X39774120Y-112565538D01*
X39774120Y-112660776D01*
X38774120Y-111898871D02*
X38774120Y-111279823D01*
X39155073Y-111613157D01*
X39155073Y-111470300D01*
X39202692Y-111375061D01*
X39250311Y-111327442D01*
X39345549Y-111279823D01*
X39583644Y-111279823D01*
X39678882Y-111327442D01*
X39726501Y-111375061D01*
X39774120Y-111470300D01*
X39774120Y-111756014D01*
X39726501Y-111851252D01*
X39678882Y-111898871D01*
X39107454Y-110422680D02*
X39774120Y-110422680D01*
X38726501Y-110660776D02*
X39440787Y-110898871D01*
X39440787Y-110279823D01*
X167485142Y-128382380D02*
X167151809Y-127906190D01*
X166913714Y-128382380D02*
X166913714Y-127382380D01*
X167294666Y-127382380D01*
X167389904Y-127430000D01*
X167437523Y-127477619D01*
X167485142Y-127572857D01*
X167485142Y-127715714D01*
X167437523Y-127810952D01*
X167389904Y-127858571D01*
X167294666Y-127906190D01*
X166913714Y-127906190D01*
X168437523Y-128382380D02*
X167866095Y-128382380D01*
X168151809Y-128382380D02*
X168151809Y-127382380D01*
X168056571Y-127525238D01*
X167961333Y-127620476D01*
X167866095Y-127668095D01*
X168913714Y-128382380D02*
X169104190Y-128382380D01*
X169199428Y-128334761D01*
X169247047Y-128287142D01*
X169342285Y-128144285D01*
X169389904Y-127953809D01*
X169389904Y-127572857D01*
X169342285Y-127477619D01*
X169294666Y-127430000D01*
X169199428Y-127382380D01*
X169008952Y-127382380D01*
X168913714Y-127430000D01*
X168866095Y-127477619D01*
X168818476Y-127572857D01*
X168818476Y-127810952D01*
X168866095Y-127906190D01*
X168913714Y-127953809D01*
X169008952Y-128001428D01*
X169199428Y-128001428D01*
X169294666Y-127953809D01*
X169342285Y-127906190D01*
X169389904Y-127810952D01*
X160967142Y-128382380D02*
X160633809Y-127906190D01*
X160395714Y-128382380D02*
X160395714Y-127382380D01*
X160776666Y-127382380D01*
X160871904Y-127430000D01*
X160919523Y-127477619D01*
X160967142Y-127572857D01*
X160967142Y-127715714D01*
X160919523Y-127810952D01*
X160871904Y-127858571D01*
X160776666Y-127906190D01*
X160395714Y-127906190D01*
X161919523Y-128382380D02*
X161348095Y-128382380D01*
X161633809Y-128382380D02*
X161633809Y-127382380D01*
X161538571Y-127525238D01*
X161443333Y-127620476D01*
X161348095Y-127668095D01*
X162490952Y-127810952D02*
X162395714Y-127763333D01*
X162348095Y-127715714D01*
X162300476Y-127620476D01*
X162300476Y-127572857D01*
X162348095Y-127477619D01*
X162395714Y-127430000D01*
X162490952Y-127382380D01*
X162681428Y-127382380D01*
X162776666Y-127430000D01*
X162824285Y-127477619D01*
X162871904Y-127572857D01*
X162871904Y-127620476D01*
X162824285Y-127715714D01*
X162776666Y-127763333D01*
X162681428Y-127810952D01*
X162490952Y-127810952D01*
X162395714Y-127858571D01*
X162348095Y-127906190D01*
X162300476Y-128001428D01*
X162300476Y-128191904D01*
X162348095Y-128287142D01*
X162395714Y-128334761D01*
X162490952Y-128382380D01*
X162681428Y-128382380D01*
X162776666Y-128334761D01*
X162824285Y-128287142D01*
X162871904Y-128191904D01*
X162871904Y-128001428D01*
X162824285Y-127906190D01*
X162776666Y-127858571D01*
X162681428Y-127810952D01*
X167485142Y-122090380D02*
X167151809Y-121614190D01*
X166913714Y-122090380D02*
X166913714Y-121090380D01*
X167294666Y-121090380D01*
X167389904Y-121138000D01*
X167437523Y-121185619D01*
X167485142Y-121280857D01*
X167485142Y-121423714D01*
X167437523Y-121518952D01*
X167389904Y-121566571D01*
X167294666Y-121614190D01*
X166913714Y-121614190D01*
X168437523Y-122090380D02*
X167866095Y-122090380D01*
X168151809Y-122090380D02*
X168151809Y-121090380D01*
X168056571Y-121233238D01*
X167961333Y-121328476D01*
X167866095Y-121376095D01*
X168770857Y-121090380D02*
X169437523Y-121090380D01*
X169008952Y-122090380D01*
X160967142Y-122090380D02*
X160633809Y-121614190D01*
X160395714Y-122090380D02*
X160395714Y-121090380D01*
X160776666Y-121090380D01*
X160871904Y-121138000D01*
X160919523Y-121185619D01*
X160967142Y-121280857D01*
X160967142Y-121423714D01*
X160919523Y-121518952D01*
X160871904Y-121566571D01*
X160776666Y-121614190D01*
X160395714Y-121614190D01*
X161919523Y-122090380D02*
X161348095Y-122090380D01*
X161633809Y-122090380D02*
X161633809Y-121090380D01*
X161538571Y-121233238D01*
X161443333Y-121328476D01*
X161348095Y-121376095D01*
X162776666Y-121090380D02*
X162586190Y-121090380D01*
X162490952Y-121138000D01*
X162443333Y-121185619D01*
X162348095Y-121328476D01*
X162300476Y-121518952D01*
X162300476Y-121899904D01*
X162348095Y-121995142D01*
X162395714Y-122042761D01*
X162490952Y-122090380D01*
X162681428Y-122090380D01*
X162776666Y-122042761D01*
X162824285Y-121995142D01*
X162871904Y-121899904D01*
X162871904Y-121661809D01*
X162824285Y-121566571D01*
X162776666Y-121518952D01*
X162681428Y-121471333D01*
X162490952Y-121471333D01*
X162395714Y-121518952D01*
X162348095Y-121566571D01*
X162300476Y-121661809D01*
X141750496Y-111260380D02*
X141750496Y-111974666D01*
X141702877Y-112117523D01*
X141607639Y-112212761D01*
X141464781Y-112260380D01*
X141369543Y-112260380D01*
X142131448Y-111260380D02*
X142750496Y-111260380D01*
X142417162Y-111641333D01*
X142560020Y-111641333D01*
X142655258Y-111688952D01*
X142702877Y-111736571D01*
X142750496Y-111831809D01*
X142750496Y-112069904D01*
X142702877Y-112165142D01*
X142655258Y-112212761D01*
X142560020Y-112260380D01*
X142274305Y-112260380D01*
X142179067Y-112212761D01*
X142131448Y-112165142D01*
X143083829Y-111260380D02*
X143702877Y-111260380D01*
X143369543Y-111641333D01*
X143512400Y-111641333D01*
X143607639Y-111688952D01*
X143655258Y-111736571D01*
X143702877Y-111831809D01*
X143702877Y-112069904D01*
X143655258Y-112165142D01*
X143607639Y-112212761D01*
X143512400Y-112260380D01*
X143226686Y-112260380D01*
X143131448Y-112212761D01*
X143083829Y-112165142D01*
X155098196Y-131483860D02*
X155098196Y-132198146D01*
X155050577Y-132341003D01*
X154955339Y-132436241D01*
X154812481Y-132483860D01*
X154717243Y-132483860D01*
X155479148Y-131483860D02*
X156098196Y-131483860D01*
X155764862Y-131864813D01*
X155907720Y-131864813D01*
X156002958Y-131912432D01*
X156050577Y-131960051D01*
X156098196Y-132055289D01*
X156098196Y-132293384D01*
X156050577Y-132388622D01*
X156002958Y-132436241D01*
X155907720Y-132483860D01*
X155622005Y-132483860D01*
X155526767Y-132436241D01*
X155479148Y-132388622D01*
X156479148Y-131579099D02*
X156526767Y-131531480D01*
X156622005Y-131483860D01*
X156860100Y-131483860D01*
X156955339Y-131531480D01*
X157002958Y-131579099D01*
X157050577Y-131674337D01*
X157050577Y-131769575D01*
X157002958Y-131912432D01*
X156431529Y-132483860D01*
X157050577Y-132483860D01*
X123818096Y-111260380D02*
X123818096Y-111974666D01*
X123770477Y-112117523D01*
X123675239Y-112212761D01*
X123532381Y-112260380D01*
X123437143Y-112260380D01*
X124246667Y-111355619D02*
X124294286Y-111308000D01*
X124389524Y-111260380D01*
X124627620Y-111260380D01*
X124722858Y-111308000D01*
X124770477Y-111355619D01*
X124818096Y-111450857D01*
X124818096Y-111546095D01*
X124770477Y-111688952D01*
X124199048Y-112260380D01*
X124818096Y-112260380D01*
X125389524Y-111688952D02*
X125294286Y-111641333D01*
X125246667Y-111593714D01*
X125199048Y-111498476D01*
X125199048Y-111450857D01*
X125246667Y-111355619D01*
X125294286Y-111308000D01*
X125389524Y-111260380D01*
X125580000Y-111260380D01*
X125675239Y-111308000D01*
X125722858Y-111355619D01*
X125770477Y-111450857D01*
X125770477Y-111498476D01*
X125722858Y-111593714D01*
X125675239Y-111641333D01*
X125580000Y-111688952D01*
X125389524Y-111688952D01*
X125294286Y-111736571D01*
X125246667Y-111784190D01*
X125199048Y-111879428D01*
X125199048Y-112069904D01*
X125246667Y-112165142D01*
X125294286Y-112212761D01*
X125389524Y-112260380D01*
X125580000Y-112260380D01*
X125675239Y-112212761D01*
X125722858Y-112165142D01*
X125770477Y-112069904D01*
X125770477Y-111879428D01*
X125722858Y-111784190D01*
X125675239Y-111736571D01*
X125580000Y-111688952D01*
X148956476Y-111266380D02*
X148956476Y-111980666D01*
X148908857Y-112123523D01*
X148813619Y-112218761D01*
X148670761Y-112266380D01*
X148575523Y-112266380D01*
X149385047Y-111361619D02*
X149432666Y-111314000D01*
X149527904Y-111266380D01*
X149766000Y-111266380D01*
X149861238Y-111314000D01*
X149908857Y-111361619D01*
X149956476Y-111456857D01*
X149956476Y-111552095D01*
X149908857Y-111694952D01*
X149337428Y-112266380D01*
X149956476Y-112266380D01*
X150289809Y-111266380D02*
X150956476Y-111266380D01*
X150527904Y-112266380D01*
X92158895Y-78297380D02*
X92158895Y-79106904D01*
X92206514Y-79202142D01*
X92254133Y-79249761D01*
X92349371Y-79297380D01*
X92539847Y-79297380D01*
X92635085Y-79249761D01*
X92682704Y-79202142D01*
X92730323Y-79106904D01*
X92730323Y-78297380D01*
X93635085Y-78630714D02*
X93635085Y-79297380D01*
X93396990Y-78249761D02*
X93158895Y-78964047D01*
X93777942Y-78964047D01*
X137939142Y-114983380D02*
X137605809Y-114507190D01*
X137367714Y-114983380D02*
X137367714Y-113983380D01*
X137748666Y-113983380D01*
X137843904Y-114031000D01*
X137891523Y-114078619D01*
X137939142Y-114173857D01*
X137939142Y-114316714D01*
X137891523Y-114411952D01*
X137843904Y-114459571D01*
X137748666Y-114507190D01*
X137367714Y-114507190D01*
X138891523Y-114983380D02*
X138320095Y-114983380D01*
X138605809Y-114983380D02*
X138605809Y-113983380D01*
X138510571Y-114126238D01*
X138415333Y-114221476D01*
X138320095Y-114269095D01*
X139796285Y-113983380D02*
X139320095Y-113983380D01*
X139272476Y-114459571D01*
X139320095Y-114411952D01*
X139415333Y-114364333D01*
X139653428Y-114364333D01*
X139748666Y-114411952D01*
X139796285Y-114459571D01*
X139843904Y-114554809D01*
X139843904Y-114792904D01*
X139796285Y-114888142D01*
X139748666Y-114935761D01*
X139653428Y-114983380D01*
X139415333Y-114983380D01*
X139320095Y-114935761D01*
X139272476Y-114888142D01*
X131716142Y-114983380D02*
X131382809Y-114507190D01*
X131144714Y-114983380D02*
X131144714Y-113983380D01*
X131525666Y-113983380D01*
X131620904Y-114031000D01*
X131668523Y-114078619D01*
X131716142Y-114173857D01*
X131716142Y-114316714D01*
X131668523Y-114411952D01*
X131620904Y-114459571D01*
X131525666Y-114507190D01*
X131144714Y-114507190D01*
X132668523Y-114983380D02*
X132097095Y-114983380D01*
X132382809Y-114983380D02*
X132382809Y-113983380D01*
X132287571Y-114126238D01*
X132192333Y-114221476D01*
X132097095Y-114269095D01*
X133525666Y-114316714D02*
X133525666Y-114983380D01*
X133287571Y-113935761D02*
X133049476Y-114650047D01*
X133668523Y-114650047D01*
X140401756Y-131214620D02*
X140401756Y-131928906D01*
X140354137Y-132071763D01*
X140258899Y-132167001D01*
X140116041Y-132214620D01*
X140020803Y-132214620D01*
X140830327Y-131309859D02*
X140877946Y-131262240D01*
X140973184Y-131214620D01*
X141211280Y-131214620D01*
X141306518Y-131262240D01*
X141354137Y-131309859D01*
X141401756Y-131405097D01*
X141401756Y-131500335D01*
X141354137Y-131643192D01*
X140782708Y-132214620D01*
X141401756Y-132214620D01*
X142258899Y-131214620D02*
X142068422Y-131214620D01*
X141973184Y-131262240D01*
X141925565Y-131309859D01*
X141830327Y-131452716D01*
X141782708Y-131643192D01*
X141782708Y-132024144D01*
X141830327Y-132119382D01*
X141877946Y-132167001D01*
X141973184Y-132214620D01*
X142163660Y-132214620D01*
X142258899Y-132167001D01*
X142306518Y-132119382D01*
X142354137Y-132024144D01*
X142354137Y-131786049D01*
X142306518Y-131690811D01*
X142258899Y-131643192D01*
X142163660Y-131595573D01*
X141973184Y-131595573D01*
X141877946Y-131643192D01*
X141830327Y-131690811D01*
X141782708Y-131786049D01*
X125032216Y-121237500D02*
X125032216Y-121951786D01*
X124984597Y-122094643D01*
X124889359Y-122189881D01*
X124746501Y-122237500D01*
X124651263Y-122237500D01*
X125460787Y-121332739D02*
X125508406Y-121285120D01*
X125603644Y-121237500D01*
X125841740Y-121237500D01*
X125936978Y-121285120D01*
X125984597Y-121332739D01*
X126032216Y-121427977D01*
X126032216Y-121523215D01*
X125984597Y-121666072D01*
X125413168Y-122237500D01*
X126032216Y-122237500D01*
X126889359Y-121570834D02*
X126889359Y-122237500D01*
X126651263Y-121189881D02*
X126413168Y-121904167D01*
X127032216Y-121904167D01*
X124897596Y-131349240D02*
X124897596Y-132063526D01*
X124849977Y-132206383D01*
X124754739Y-132301621D01*
X124611881Y-132349240D01*
X124516643Y-132349240D01*
X125326167Y-131444479D02*
X125373786Y-131396860D01*
X125469024Y-131349240D01*
X125707120Y-131349240D01*
X125802358Y-131396860D01*
X125849977Y-131444479D01*
X125897596Y-131539717D01*
X125897596Y-131634955D01*
X125849977Y-131777812D01*
X125278548Y-132349240D01*
X125897596Y-132349240D01*
X126230929Y-131349240D02*
X126849977Y-131349240D01*
X126516643Y-131730193D01*
X126659500Y-131730193D01*
X126754739Y-131777812D01*
X126802358Y-131825431D01*
X126849977Y-131920669D01*
X126849977Y-132158764D01*
X126802358Y-132254002D01*
X126754739Y-132301621D01*
X126659500Y-132349240D01*
X126373786Y-132349240D01*
X126278548Y-132301621D01*
X126230929Y-132254002D01*
X150358936Y-89536020D02*
X150358936Y-90250306D01*
X150311317Y-90393163D01*
X150216079Y-90488401D01*
X150073221Y-90536020D01*
X149977983Y-90536020D01*
X150787507Y-89631259D02*
X150835126Y-89583640D01*
X150930364Y-89536020D01*
X151168460Y-89536020D01*
X151263698Y-89583640D01*
X151311317Y-89631259D01*
X151358936Y-89726497D01*
X151358936Y-89821735D01*
X151311317Y-89964592D01*
X150739888Y-90536020D01*
X151358936Y-90536020D01*
X151739888Y-89631259D02*
X151787507Y-89583640D01*
X151882745Y-89536020D01*
X152120840Y-89536020D01*
X152216079Y-89583640D01*
X152263698Y-89631259D01*
X152311317Y-89726497D01*
X152311317Y-89821735D01*
X152263698Y-89964592D01*
X151692269Y-90536020D01*
X152311317Y-90536020D01*
X135812296Y-89370900D02*
X135812296Y-90085186D01*
X135764677Y-90228043D01*
X135669439Y-90323281D01*
X135526581Y-90370900D01*
X135431343Y-90370900D01*
X136812296Y-90370900D02*
X136240867Y-90370900D01*
X136526581Y-90370900D02*
X136526581Y-89370900D01*
X136431343Y-89513758D01*
X136336105Y-89608996D01*
X136240867Y-89656615D01*
X137383724Y-89799472D02*
X137288486Y-89751853D01*
X137240867Y-89704234D01*
X137193248Y-89608996D01*
X137193248Y-89561377D01*
X137240867Y-89466139D01*
X137288486Y-89418520D01*
X137383724Y-89370900D01*
X137574200Y-89370900D01*
X137669439Y-89418520D01*
X137717058Y-89466139D01*
X137764677Y-89561377D01*
X137764677Y-89608996D01*
X137717058Y-89704234D01*
X137669439Y-89751853D01*
X137574200Y-89799472D01*
X137383724Y-89799472D01*
X137288486Y-89847091D01*
X137240867Y-89894710D01*
X137193248Y-89989948D01*
X137193248Y-90180424D01*
X137240867Y-90275662D01*
X137288486Y-90323281D01*
X137383724Y-90370900D01*
X137574200Y-90370900D01*
X137669439Y-90323281D01*
X137717058Y-90275662D01*
X137764677Y-90180424D01*
X137764677Y-89989948D01*
X137717058Y-89894710D01*
X137669439Y-89847091D01*
X137574200Y-89799472D01*
X88359940Y-58617903D02*
X89074226Y-58617903D01*
X89217083Y-58665522D01*
X89312321Y-58760760D01*
X89359940Y-58903618D01*
X89359940Y-58998856D01*
X88455179Y-58189332D02*
X88407560Y-58141713D01*
X88359940Y-58046475D01*
X88359940Y-57808380D01*
X88407560Y-57713141D01*
X88455179Y-57665522D01*
X88550417Y-57617903D01*
X88645655Y-57617903D01*
X88788512Y-57665522D01*
X89359940Y-58236951D01*
X89359940Y-57617903D01*
X89359940Y-56665522D02*
X89359940Y-57236951D01*
X89359940Y-56951237D02*
X88359940Y-56951237D01*
X88502798Y-57046475D01*
X88598036Y-57141713D01*
X88645655Y-57236951D01*
X64029016Y-132398800D02*
X64029016Y-133113086D01*
X63981397Y-133255943D01*
X63886159Y-133351181D01*
X63743301Y-133398800D01*
X63648063Y-133398800D01*
X64457587Y-132494039D02*
X64505206Y-132446420D01*
X64600444Y-132398800D01*
X64838540Y-132398800D01*
X64933778Y-132446420D01*
X64981397Y-132494039D01*
X65029016Y-132589277D01*
X65029016Y-132684515D01*
X64981397Y-132827372D01*
X64409968Y-133398800D01*
X65029016Y-133398800D01*
X65648063Y-132398800D02*
X65743301Y-132398800D01*
X65838540Y-132446420D01*
X65886159Y-132494039D01*
X65933778Y-132589277D01*
X65981397Y-132779753D01*
X65981397Y-133017848D01*
X65933778Y-133208324D01*
X65886159Y-133303562D01*
X65838540Y-133351181D01*
X65743301Y-133398800D01*
X65648063Y-133398800D01*
X65552825Y-133351181D01*
X65505206Y-133303562D01*
X65457587Y-133208324D01*
X65409968Y-133017848D01*
X65409968Y-132779753D01*
X65457587Y-132589277D01*
X65505206Y-132494039D01*
X65552825Y-132446420D01*
X65648063Y-132398800D01*
X38532780Y-82816223D02*
X39247066Y-82816223D01*
X39389923Y-82863842D01*
X39485161Y-82959080D01*
X39532780Y-83101938D01*
X39532780Y-83197176D01*
X39532780Y-81816223D02*
X39532780Y-82387652D01*
X39532780Y-82101938D02*
X38532780Y-82101938D01*
X38675638Y-82197176D01*
X38770876Y-82292414D01*
X38818495Y-82387652D01*
X38532780Y-81482890D02*
X38532780Y-80816223D01*
X39532780Y-81244795D01*
X38436280Y-97381523D02*
X39150566Y-97381523D01*
X39293423Y-97429142D01*
X39388661Y-97524380D01*
X39436280Y-97667238D01*
X39436280Y-97762476D01*
X39436280Y-96381523D02*
X39436280Y-96952952D01*
X39436280Y-96667238D02*
X38436280Y-96667238D01*
X38579138Y-96762476D01*
X38674376Y-96857714D01*
X38721995Y-96952952D01*
X38436280Y-95524380D02*
X38436280Y-95714857D01*
X38483900Y-95810095D01*
X38531519Y-95857714D01*
X38674376Y-95952952D01*
X38864852Y-96000571D01*
X39245804Y-96000571D01*
X39341042Y-95952952D01*
X39388661Y-95905333D01*
X39436280Y-95810095D01*
X39436280Y-95619619D01*
X39388661Y-95524380D01*
X39341042Y-95476761D01*
X39245804Y-95429142D01*
X39007709Y-95429142D01*
X38912471Y-95476761D01*
X38864852Y-95524380D01*
X38817233Y-95619619D01*
X38817233Y-95810095D01*
X38864852Y-95905333D01*
X38912471Y-95952952D01*
X39007709Y-96000571D01*
D16*
X66707466Y-51136280D02*
X66707466Y-51850566D01*
X66659847Y-51993423D01*
X66564609Y-52088661D01*
X66421752Y-52136280D01*
X66326514Y-52136280D01*
X67088419Y-51136280D02*
X67707466Y-51136280D01*
X67374133Y-51517233D01*
X67516990Y-51517233D01*
X67612228Y-51564852D01*
X67659847Y-51612471D01*
X67707466Y-51707709D01*
X67707466Y-51945804D01*
X67659847Y-52041042D01*
X67612228Y-52088661D01*
X67516990Y-52136280D01*
X67231276Y-52136280D01*
X67136038Y-52088661D01*
X67088419Y-52041042D01*
D10*
X50148280Y-60584004D02*
X50957804Y-60584004D01*
X51053042Y-60536385D01*
X51100661Y-60488766D01*
X51148280Y-60393528D01*
X51148280Y-60203052D01*
X51100661Y-60107814D01*
X51053042Y-60060195D01*
X50957804Y-60012576D01*
X50148280Y-60012576D01*
X50243519Y-59584004D02*
X50195900Y-59536385D01*
X50148280Y-59441147D01*
X50148280Y-59203052D01*
X50195900Y-59107814D01*
X50243519Y-59060195D01*
X50338757Y-59012576D01*
X50433995Y-59012576D01*
X50576852Y-59060195D01*
X51148280Y-59631623D01*
X51148280Y-59012576D01*
X48155900Y-64878290D02*
X48155900Y-65354480D01*
X47822566Y-64354480D02*
X48155900Y-64878290D01*
X48489233Y-64354480D01*
X41472566Y-58004480D02*
X42139233Y-59004480D01*
X42139233Y-58004480D02*
X41472566Y-59004480D01*
X59449733Y-37863980D02*
X59116400Y-37387790D01*
X58878304Y-37863980D02*
X58878304Y-36863980D01*
X59259257Y-36863980D01*
X59354495Y-36911600D01*
X59402114Y-36959219D01*
X59449733Y-37054457D01*
X59449733Y-37197314D01*
X59402114Y-37292552D01*
X59354495Y-37340171D01*
X59259257Y-37387790D01*
X58878304Y-37387790D01*
X59783066Y-36863980D02*
X60402114Y-36863980D01*
X60068780Y-37244933D01*
X60211638Y-37244933D01*
X60306876Y-37292552D01*
X60354495Y-37340171D01*
X60402114Y-37435409D01*
X60402114Y-37673504D01*
X60354495Y-37768742D01*
X60306876Y-37816361D01*
X60211638Y-37863980D01*
X59925923Y-37863980D01*
X59830685Y-37816361D01*
X59783066Y-37768742D01*
X59358233Y-51379380D02*
X59024900Y-50903190D01*
X58786804Y-51379380D02*
X58786804Y-50379380D01*
X59167757Y-50379380D01*
X59262995Y-50427000D01*
X59310614Y-50474619D01*
X59358233Y-50569857D01*
X59358233Y-50712714D01*
X59310614Y-50807952D01*
X59262995Y-50855571D01*
X59167757Y-50903190D01*
X58786804Y-50903190D01*
X60310614Y-51379380D02*
X59739185Y-51379380D01*
X60024900Y-51379380D02*
X60024900Y-50379380D01*
X59929661Y-50522238D01*
X59834423Y-50617476D01*
X59739185Y-50665095D01*
X42238095Y-126252380D02*
X42238095Y-125252380D01*
X42238095Y-125728571D02*
X42809523Y-125728571D01*
X42809523Y-126252380D02*
X42809523Y-125252380D01*
X43714285Y-125585714D02*
X43714285Y-126252380D01*
X43476190Y-125204761D02*
X43238095Y-125919047D01*
X43857142Y-125919047D01*
X42238095Y-36012380D02*
X42238095Y-35012380D01*
X42238095Y-35488571D02*
X42809523Y-35488571D01*
X42809523Y-36012380D02*
X42809523Y-35012380D01*
X43809523Y-36012380D02*
X43238095Y-36012380D01*
X43523809Y-36012380D02*
X43523809Y-35012380D01*
X43428571Y-35155238D01*
X43333333Y-35250476D01*
X43238095Y-35298095D01*
X163152142Y-63274180D02*
X162818809Y-62797990D01*
X162580714Y-63274180D02*
X162580714Y-62274180D01*
X162961666Y-62274180D01*
X163056904Y-62321800D01*
X163104523Y-62369419D01*
X163152142Y-62464657D01*
X163152142Y-62607514D01*
X163104523Y-62702752D01*
X163056904Y-62750371D01*
X162961666Y-62797990D01*
X162580714Y-62797990D01*
X164104523Y-63274180D02*
X163533095Y-63274180D01*
X163818809Y-63274180D02*
X163818809Y-62274180D01*
X163723571Y-62417038D01*
X163628333Y-62512276D01*
X163533095Y-62559895D01*
X164437857Y-62274180D02*
X165056904Y-62274180D01*
X164723571Y-62655133D01*
X164866428Y-62655133D01*
X164961666Y-62702752D01*
X165009285Y-62750371D01*
X165056904Y-62845609D01*
X165056904Y-63083704D01*
X165009285Y-63178942D01*
X164961666Y-63226561D01*
X164866428Y-63274180D01*
X164580714Y-63274180D01*
X164485476Y-63226561D01*
X164437857Y-63178942D01*
X155552142Y-99088180D02*
X155218809Y-98611990D01*
X154980714Y-99088180D02*
X154980714Y-98088180D01*
X155361666Y-98088180D01*
X155456904Y-98135800D01*
X155504523Y-98183419D01*
X155552142Y-98278657D01*
X155552142Y-98421514D01*
X155504523Y-98516752D01*
X155456904Y-98564371D01*
X155361666Y-98611990D01*
X154980714Y-98611990D01*
X156504523Y-99088180D02*
X155933095Y-99088180D01*
X156218809Y-99088180D02*
X156218809Y-98088180D01*
X156123571Y-98231038D01*
X156028333Y-98326276D01*
X155933095Y-98373895D01*
X156885476Y-98183419D02*
X156933095Y-98135800D01*
X157028333Y-98088180D01*
X157266428Y-98088180D01*
X157361666Y-98135800D01*
X157409285Y-98183419D01*
X157456904Y-98278657D01*
X157456904Y-98373895D01*
X157409285Y-98516752D01*
X156837857Y-99088180D01*
X157456904Y-99088180D01*
X163247333Y-58031580D02*
X162914000Y-57555390D01*
X162675904Y-58031580D02*
X162675904Y-57031580D01*
X163056857Y-57031580D01*
X163152095Y-57079200D01*
X163199714Y-57126819D01*
X163247333Y-57222057D01*
X163247333Y-57364914D01*
X163199714Y-57460152D01*
X163152095Y-57507771D01*
X163056857Y-57555390D01*
X162675904Y-57555390D01*
X164104476Y-57031580D02*
X163914000Y-57031580D01*
X163818761Y-57079200D01*
X163771142Y-57126819D01*
X163675904Y-57269676D01*
X163628285Y-57460152D01*
X163628285Y-57841104D01*
X163675904Y-57936342D01*
X163723523Y-57983961D01*
X163818761Y-58031580D01*
X164009238Y-58031580D01*
X164104476Y-57983961D01*
X164152095Y-57936342D01*
X164199714Y-57841104D01*
X164199714Y-57603009D01*
X164152095Y-57507771D01*
X164104476Y-57460152D01*
X164009238Y-57412533D01*
X163818761Y-57412533D01*
X163723523Y-57460152D01*
X163675904Y-57507771D01*
X163628285Y-57603009D01*
X156201333Y-104020380D02*
X155868000Y-103544190D01*
X155629904Y-104020380D02*
X155629904Y-103020380D01*
X156010857Y-103020380D01*
X156106095Y-103068000D01*
X156153714Y-103115619D01*
X156201333Y-103210857D01*
X156201333Y-103353714D01*
X156153714Y-103448952D01*
X156106095Y-103496571D01*
X156010857Y-103544190D01*
X155629904Y-103544190D01*
X157106095Y-103020380D02*
X156629904Y-103020380D01*
X156582285Y-103496571D01*
X156629904Y-103448952D01*
X156725142Y-103401333D01*
X156963238Y-103401333D01*
X157058476Y-103448952D01*
X157106095Y-103496571D01*
X157153714Y-103591809D01*
X157153714Y-103829904D01*
X157106095Y-103925142D01*
X157058476Y-103972761D01*
X156963238Y-104020380D01*
X156725142Y-104020380D01*
X156629904Y-103972761D01*
X156582285Y-103925142D01*
X173705786Y-45847920D02*
X173705786Y-46562206D01*
X173658167Y-46705063D01*
X173562929Y-46800301D01*
X173420072Y-46847920D01*
X173324834Y-46847920D01*
X174181977Y-46847920D02*
X174181977Y-45847920D01*
X174562929Y-45847920D01*
X174658167Y-45895540D01*
X174705786Y-45943159D01*
X174753405Y-46038397D01*
X174753405Y-46181254D01*
X174705786Y-46276492D01*
X174658167Y-46324111D01*
X174562929Y-46371730D01*
X174181977Y-46371730D01*
X175658167Y-45847920D02*
X175181977Y-45847920D01*
X175134358Y-46324111D01*
X175181977Y-46276492D01*
X175277215Y-46228873D01*
X175515310Y-46228873D01*
X175610548Y-46276492D01*
X175658167Y-46324111D01*
X175705786Y-46419349D01*
X175705786Y-46657444D01*
X175658167Y-46752682D01*
X175610548Y-46800301D01*
X175515310Y-46847920D01*
X175277215Y-46847920D01*
X175181977Y-46800301D01*
X175134358Y-46752682D01*
X164220526Y-45792040D02*
X164220526Y-46506326D01*
X164172907Y-46649183D01*
X164077669Y-46744421D01*
X163934812Y-46792040D01*
X163839574Y-46792040D01*
X164696717Y-46792040D02*
X164696717Y-45792040D01*
X165077669Y-45792040D01*
X165172907Y-45839660D01*
X165220526Y-45887279D01*
X165268145Y-45982517D01*
X165268145Y-46125374D01*
X165220526Y-46220612D01*
X165172907Y-46268231D01*
X165077669Y-46315850D01*
X164696717Y-46315850D01*
X165601479Y-45792040D02*
X166220526Y-45792040D01*
X165887193Y-46172993D01*
X166030050Y-46172993D01*
X166125288Y-46220612D01*
X166172907Y-46268231D01*
X166220526Y-46363469D01*
X166220526Y-46601564D01*
X166172907Y-46696802D01*
X166125288Y-46744421D01*
X166030050Y-46792040D01*
X165744336Y-46792040D01*
X165649098Y-46744421D01*
X165601479Y-46696802D01*
X178226820Y-56872443D02*
X178941106Y-56872443D01*
X179083963Y-56920062D01*
X179179201Y-57015300D01*
X179226820Y-57158158D01*
X179226820Y-57253396D01*
X179226820Y-55872443D02*
X179226820Y-56443872D01*
X179226820Y-56158158D02*
X178226820Y-56158158D01*
X178369678Y-56253396D01*
X178464916Y-56348634D01*
X178512535Y-56443872D01*
X179226820Y-54920062D02*
X179226820Y-55491491D01*
X179226820Y-55205777D02*
X178226820Y-55205777D01*
X178369678Y-55301015D01*
X178464916Y-55396253D01*
X178512535Y-55491491D01*
X178474540Y-73818073D02*
X179188826Y-73818073D01*
X179331683Y-73865692D01*
X179426921Y-73960930D01*
X179474540Y-74103787D01*
X179474540Y-74199025D01*
X178903112Y-73199025D02*
X178855493Y-73294263D01*
X178807874Y-73341882D01*
X178712636Y-73389501D01*
X178665017Y-73389501D01*
X178569779Y-73341882D01*
X178522160Y-73294263D01*
X178474540Y-73199025D01*
X178474540Y-73008549D01*
X178522160Y-72913311D01*
X178569779Y-72865692D01*
X178665017Y-72818073D01*
X178712636Y-72818073D01*
X178807874Y-72865692D01*
X178855493Y-72913311D01*
X178903112Y-73008549D01*
X178903112Y-73199025D01*
X178950731Y-73294263D01*
X178998350Y-73341882D01*
X179093588Y-73389501D01*
X179284064Y-73389501D01*
X179379302Y-73341882D01*
X179426921Y-73294263D01*
X179474540Y-73199025D01*
X179474540Y-73008549D01*
X179426921Y-72913311D01*
X179379302Y-72865692D01*
X179284064Y-72818073D01*
X179093588Y-72818073D01*
X178998350Y-72865692D01*
X178950731Y-72913311D01*
X178903112Y-73008549D01*
X178299340Y-91717413D02*
X179013626Y-91717413D01*
X179156483Y-91765032D01*
X179251721Y-91860270D01*
X179299340Y-92003127D01*
X179299340Y-92098365D01*
X178299340Y-91336460D02*
X178299340Y-90669794D01*
X179299340Y-91098365D01*
X155235560Y-68910993D02*
X155949846Y-68910993D01*
X156092703Y-68958612D01*
X156187941Y-69053850D01*
X156235560Y-69196707D01*
X156235560Y-69291945D01*
X155235560Y-68006231D02*
X155235560Y-68196707D01*
X155283180Y-68291945D01*
X155330799Y-68339564D01*
X155473656Y-68434802D01*
X155664132Y-68482421D01*
X156045084Y-68482421D01*
X156140322Y-68434802D01*
X156187941Y-68387183D01*
X156235560Y-68291945D01*
X156235560Y-68101469D01*
X156187941Y-68006231D01*
X156140322Y-67958612D01*
X156045084Y-67910993D01*
X155806989Y-67910993D01*
X155711751Y-67958612D01*
X155664132Y-68006231D01*
X155616513Y-68101469D01*
X155616513Y-68291945D01*
X155664132Y-68387183D01*
X155711751Y-68434802D01*
X155806989Y-68482421D01*
X155050620Y-83149733D02*
X155764906Y-83149733D01*
X155907763Y-83197352D01*
X156003001Y-83292590D01*
X156050620Y-83435447D01*
X156050620Y-83530685D01*
X156050620Y-82149733D02*
X156050620Y-82721161D01*
X156050620Y-82435447D02*
X155050620Y-82435447D01*
X155193478Y-82530685D01*
X155288716Y-82625923D01*
X155336335Y-82721161D01*
X54918380Y-87076204D02*
X55727904Y-87076204D01*
X55823142Y-87028585D01*
X55870761Y-86980966D01*
X55918380Y-86885728D01*
X55918380Y-86695252D01*
X55870761Y-86600014D01*
X55823142Y-86552395D01*
X55727904Y-86504776D01*
X54918380Y-86504776D01*
X54918380Y-86123823D02*
X54918380Y-85504776D01*
X55299333Y-85838109D01*
X55299333Y-85695252D01*
X55346952Y-85600014D01*
X55394571Y-85552395D01*
X55489809Y-85504776D01*
X55727904Y-85504776D01*
X55823142Y-85552395D01*
X55870761Y-85600014D01*
X55918380Y-85695252D01*
X55918380Y-85980966D01*
X55870761Y-86076204D01*
X55823142Y-86123823D01*
X64062666Y-89170966D02*
X64062666Y-88470966D01*
X64229333Y-88470966D01*
X64329333Y-88504300D01*
X64396000Y-88570966D01*
X64429333Y-88637633D01*
X64462666Y-88770966D01*
X64462666Y-88870966D01*
X64429333Y-89004300D01*
X64396000Y-89070966D01*
X64329333Y-89137633D01*
X64229333Y-89170966D01*
X64062666Y-89170966D01*
X64662666Y-88470966D02*
X64896000Y-89170966D01*
X65129333Y-88470966D01*
X65562666Y-88470966D02*
X65562666Y-88970966D01*
X65529333Y-89070966D01*
X65462666Y-89137633D01*
X65362666Y-89170966D01*
X65296000Y-89170966D01*
X66196000Y-88470966D02*
X66062666Y-88470966D01*
X65996000Y-88504300D01*
X65962666Y-88537633D01*
X65896000Y-88637633D01*
X65862666Y-88770966D01*
X65862666Y-89037633D01*
X65896000Y-89104300D01*
X65929333Y-89137633D01*
X65996000Y-89170966D01*
X66129333Y-89170966D01*
X66196000Y-89137633D01*
X66229333Y-89104300D01*
X66262666Y-89037633D01*
X66262666Y-88870966D01*
X66229333Y-88804300D01*
X66196000Y-88770966D01*
X66129333Y-88737633D01*
X65996000Y-88737633D01*
X65929333Y-88770966D01*
X65896000Y-88804300D01*
X65862666Y-88870966D01*
X66529333Y-88970966D02*
X66862666Y-88970966D01*
X66462666Y-89170966D02*
X66696000Y-88470966D01*
X66929333Y-89170966D01*
X62542666Y-87900966D02*
X62542666Y-87200966D01*
X62776000Y-87700966D01*
X63009333Y-87200966D01*
X63009333Y-87900966D01*
X63342666Y-87900966D02*
X63342666Y-87200966D01*
X63676000Y-87900966D02*
X63676000Y-87200966D01*
X63909333Y-87700966D01*
X64142666Y-87200966D01*
X64142666Y-87900966D01*
X64409333Y-87200966D02*
X64876000Y-87900966D01*
X64876000Y-87200966D02*
X64409333Y-87900966D01*
X65542666Y-87900966D02*
X65309333Y-87567633D01*
X65142666Y-87900966D02*
X65142666Y-87200966D01*
X65409333Y-87200966D01*
X65476000Y-87234300D01*
X65509333Y-87267633D01*
X65542666Y-87334300D01*
X65542666Y-87434300D01*
X65509333Y-87500966D01*
X65476000Y-87534300D01*
X65409333Y-87567633D01*
X65142666Y-87567633D01*
X65742666Y-87200966D02*
X66142666Y-87200966D01*
X65942666Y-87900966D02*
X65942666Y-87200966D01*
X66742666Y-87900966D02*
X66342666Y-87900966D01*
X66542666Y-87900966D02*
X66542666Y-87200966D01*
X66476000Y-87300966D01*
X66409333Y-87367633D01*
X66342666Y-87400966D01*
X67176000Y-87200966D02*
X67242666Y-87200966D01*
X67309333Y-87234300D01*
X67342666Y-87267633D01*
X67376000Y-87334300D01*
X67409333Y-87467633D01*
X67409333Y-87634300D01*
X67376000Y-87767633D01*
X67342666Y-87834300D01*
X67309333Y-87867633D01*
X67242666Y-87900966D01*
X67176000Y-87900966D01*
X67109333Y-87867633D01*
X67076000Y-87834300D01*
X67042666Y-87767633D01*
X67009333Y-87634300D01*
X67009333Y-87467633D01*
X67042666Y-87334300D01*
X67076000Y-87267633D01*
X67109333Y-87234300D01*
X67176000Y-87200966D01*
X68009333Y-87200966D02*
X67876000Y-87200966D01*
X67809333Y-87234300D01*
X67776000Y-87267633D01*
X67709333Y-87367633D01*
X67676000Y-87500966D01*
X67676000Y-87767633D01*
X67709333Y-87834300D01*
X67742666Y-87867633D01*
X67809333Y-87900966D01*
X67942666Y-87900966D01*
X68009333Y-87867633D01*
X68042666Y-87834300D01*
X68076000Y-87767633D01*
X68076000Y-87600966D01*
X68042666Y-87534300D01*
X68009333Y-87500966D01*
X67942666Y-87467633D01*
X67809333Y-87467633D01*
X67742666Y-87500966D01*
X67709333Y-87534300D01*
X67676000Y-87600966D01*
X68342666Y-87267633D02*
X68376000Y-87234300D01*
X68442666Y-87200966D01*
X68609333Y-87200966D01*
X68676000Y-87234300D01*
X68709333Y-87267633D01*
X68742666Y-87334300D01*
X68742666Y-87400966D01*
X68709333Y-87500966D01*
X68309333Y-87900966D01*
X68742666Y-87900966D01*
X66078380Y-65303347D02*
X65078380Y-65303347D01*
X65792666Y-64970014D01*
X65078380Y-64636680D01*
X66078380Y-64636680D01*
X66078380Y-64160490D02*
X65411714Y-64160490D01*
X65078380Y-64160490D02*
X65126000Y-64208109D01*
X65173619Y-64160490D01*
X65126000Y-64112871D01*
X65078380Y-64160490D01*
X65173619Y-64160490D01*
X66030761Y-63255728D02*
X66078380Y-63350966D01*
X66078380Y-63541442D01*
X66030761Y-63636680D01*
X65983142Y-63684300D01*
X65887904Y-63731919D01*
X65602190Y-63731919D01*
X65506952Y-63684300D01*
X65459333Y-63636680D01*
X65411714Y-63541442D01*
X65411714Y-63350966D01*
X65459333Y-63255728D01*
X66078380Y-62827157D02*
X65411714Y-62827157D01*
X65602190Y-62827157D02*
X65506952Y-62779538D01*
X65459333Y-62731919D01*
X65411714Y-62636680D01*
X65411714Y-62541442D01*
X66078380Y-62065252D02*
X66030761Y-62160490D01*
X65983142Y-62208109D01*
X65887904Y-62255728D01*
X65602190Y-62255728D01*
X65506952Y-62208109D01*
X65459333Y-62160490D01*
X65411714Y-62065252D01*
X65411714Y-61922395D01*
X65459333Y-61827157D01*
X65506952Y-61779538D01*
X65602190Y-61731919D01*
X65887904Y-61731919D01*
X65983142Y-61779538D01*
X66030761Y-61827157D01*
X66078380Y-61922395D01*
X66078380Y-62065252D01*
X66030761Y-60589061D02*
X66078380Y-60446204D01*
X66078380Y-60208109D01*
X66030761Y-60112871D01*
X65983142Y-60065252D01*
X65887904Y-60017633D01*
X65792666Y-60017633D01*
X65697428Y-60065252D01*
X65649809Y-60112871D01*
X65602190Y-60208109D01*
X65554571Y-60398585D01*
X65506952Y-60493823D01*
X65459333Y-60541442D01*
X65364095Y-60589061D01*
X65268857Y-60589061D01*
X65173619Y-60541442D01*
X65126000Y-60493823D01*
X65078380Y-60398585D01*
X65078380Y-60160490D01*
X65126000Y-60017633D01*
X66078380Y-59589061D02*
X65078380Y-59589061D01*
X65078380Y-59350966D01*
X65126000Y-59208109D01*
X65221238Y-59112871D01*
X65316476Y-59065252D01*
X65506952Y-59017633D01*
X65649809Y-59017633D01*
X65840285Y-59065252D01*
X65935523Y-59112871D01*
X66030761Y-59208109D01*
X66078380Y-59350966D01*
X66078380Y-59589061D01*
X64364095Y-112436680D02*
X64364095Y-113246204D01*
X64411714Y-113341442D01*
X64459333Y-113389061D01*
X64554571Y-113436680D01*
X64745047Y-113436680D01*
X64840285Y-113389061D01*
X64887904Y-113341442D01*
X64935523Y-113246204D01*
X64935523Y-112436680D01*
X65364095Y-113389061D02*
X65506952Y-113436680D01*
X65745047Y-113436680D01*
X65840285Y-113389061D01*
X65887904Y-113341442D01*
X65935523Y-113246204D01*
X65935523Y-113150966D01*
X65887904Y-113055728D01*
X65840285Y-113008109D01*
X65745047Y-112960490D01*
X65554571Y-112912871D01*
X65459333Y-112865252D01*
X65411714Y-112817633D01*
X65364095Y-112722395D01*
X65364095Y-112627157D01*
X65411714Y-112531919D01*
X65459333Y-112484300D01*
X65554571Y-112436680D01*
X65792666Y-112436680D01*
X65935523Y-112484300D01*
X66697428Y-112912871D02*
X66840285Y-112960490D01*
X66887904Y-113008109D01*
X66935523Y-113103347D01*
X66935523Y-113246204D01*
X66887904Y-113341442D01*
X66840285Y-113389061D01*
X66745047Y-113436680D01*
X66364095Y-113436680D01*
X66364095Y-112436680D01*
X66697428Y-112436680D01*
X66792666Y-112484300D01*
X66840285Y-112531919D01*
X66887904Y-112627157D01*
X66887904Y-112722395D01*
X66840285Y-112817633D01*
X66792666Y-112865252D01*
X66697428Y-112912871D01*
X66364095Y-112912871D01*
X59492257Y-98307871D02*
X59825590Y-98307871D01*
X59968447Y-98831680D02*
X59492257Y-98831680D01*
X59492257Y-97831680D01*
X59968447Y-97831680D01*
X60254161Y-98165014D02*
X60635114Y-98165014D01*
X60397019Y-97831680D02*
X60397019Y-98688823D01*
X60444638Y-98784061D01*
X60539876Y-98831680D01*
X60635114Y-98831680D01*
X60968447Y-98831680D02*
X60968447Y-97831680D01*
X61397019Y-98831680D02*
X61397019Y-98307871D01*
X61349400Y-98212633D01*
X61254161Y-98165014D01*
X61111304Y-98165014D01*
X61016066Y-98212633D01*
X60968447Y-98260252D01*
X62254161Y-98784061D02*
X62158923Y-98831680D01*
X61968447Y-98831680D01*
X61873209Y-98784061D01*
X61825590Y-98688823D01*
X61825590Y-98307871D01*
X61873209Y-98212633D01*
X61968447Y-98165014D01*
X62158923Y-98165014D01*
X62254161Y-98212633D01*
X62301780Y-98307871D01*
X62301780Y-98403109D01*
X61825590Y-98498347D01*
X62730352Y-98831680D02*
X62730352Y-98165014D01*
X62730352Y-98355490D02*
X62777971Y-98260252D01*
X62825590Y-98212633D01*
X62920828Y-98165014D01*
X63016066Y-98165014D01*
X63349400Y-98165014D02*
X63349400Y-98831680D01*
X63349400Y-98260252D02*
X63397019Y-98212633D01*
X63492257Y-98165014D01*
X63635114Y-98165014D01*
X63730352Y-98212633D01*
X63777971Y-98307871D01*
X63777971Y-98831680D01*
X64635114Y-98784061D02*
X64539876Y-98831680D01*
X64349400Y-98831680D01*
X64254161Y-98784061D01*
X64206542Y-98688823D01*
X64206542Y-98307871D01*
X64254161Y-98212633D01*
X64349400Y-98165014D01*
X64539876Y-98165014D01*
X64635114Y-98212633D01*
X64682733Y-98307871D01*
X64682733Y-98403109D01*
X64206542Y-98498347D01*
X64968447Y-98165014D02*
X65349400Y-98165014D01*
X65111304Y-97831680D02*
X65111304Y-98688823D01*
X65158923Y-98784061D01*
X65254161Y-98831680D01*
X65349400Y-98831680D01*
X67567580Y-108089623D02*
X68377104Y-108089623D01*
X68472342Y-108042004D01*
X68519961Y-107994385D01*
X68567580Y-107899147D01*
X68567580Y-107708671D01*
X68519961Y-107613433D01*
X68472342Y-107565814D01*
X68377104Y-107518195D01*
X67567580Y-107518195D01*
X68519961Y-107089623D02*
X68567580Y-106946766D01*
X68567580Y-106708671D01*
X68519961Y-106613433D01*
X68472342Y-106565814D01*
X68377104Y-106518195D01*
X68281866Y-106518195D01*
X68186628Y-106565814D01*
X68139009Y-106613433D01*
X68091390Y-106708671D01*
X68043771Y-106899147D01*
X67996152Y-106994385D01*
X67948533Y-107042004D01*
X67853295Y-107089623D01*
X67758057Y-107089623D01*
X67662819Y-107042004D01*
X67615200Y-106994385D01*
X67567580Y-106899147D01*
X67567580Y-106661052D01*
X67615200Y-106518195D01*
X68043771Y-105756290D02*
X68091390Y-105613433D01*
X68139009Y-105565814D01*
X68234247Y-105518195D01*
X68377104Y-105518195D01*
X68472342Y-105565814D01*
X68519961Y-105613433D01*
X68567580Y-105708671D01*
X68567580Y-106089623D01*
X67567580Y-106089623D01*
X67567580Y-105756290D01*
X67615200Y-105661052D01*
X67662819Y-105613433D01*
X67758057Y-105565814D01*
X67853295Y-105565814D01*
X67948533Y-105613433D01*
X67996152Y-105661052D01*
X68043771Y-105756290D01*
X68043771Y-106089623D01*
X68567580Y-104327719D02*
X67567580Y-104327719D01*
X68043771Y-104327719D02*
X68043771Y-103756290D01*
X68567580Y-103756290D02*
X67567580Y-103756290D01*
X68567580Y-103137242D02*
X68519961Y-103232480D01*
X68472342Y-103280100D01*
X68377104Y-103327719D01*
X68091390Y-103327719D01*
X67996152Y-103280100D01*
X67948533Y-103232480D01*
X67900914Y-103137242D01*
X67900914Y-102994385D01*
X67948533Y-102899147D01*
X67996152Y-102851528D01*
X68091390Y-102803909D01*
X68377104Y-102803909D01*
X68472342Y-102851528D01*
X68519961Y-102899147D01*
X68567580Y-102994385D01*
X68567580Y-103137242D01*
X68519961Y-102422957D02*
X68567580Y-102327719D01*
X68567580Y-102137242D01*
X68519961Y-102042004D01*
X68424723Y-101994385D01*
X68377104Y-101994385D01*
X68281866Y-102042004D01*
X68234247Y-102137242D01*
X68234247Y-102280100D01*
X68186628Y-102375338D01*
X68091390Y-102422957D01*
X68043771Y-102422957D01*
X67948533Y-102375338D01*
X67900914Y-102280100D01*
X67900914Y-102137242D01*
X67948533Y-102042004D01*
X67900914Y-101708671D02*
X67900914Y-101327719D01*
X67567580Y-101565814D02*
X68424723Y-101565814D01*
X68519961Y-101518195D01*
X68567580Y-101422957D01*
X68567580Y-101327719D01*
X75994420Y-57729483D02*
X76708706Y-57729483D01*
X76851563Y-57777102D01*
X76946801Y-57872340D01*
X76994420Y-58015198D01*
X76994420Y-58110436D01*
X75994420Y-57348531D02*
X75994420Y-56729483D01*
X76375373Y-57062817D01*
X76375373Y-56919960D01*
X76422992Y-56824721D01*
X76470611Y-56777102D01*
X76565849Y-56729483D01*
X76803944Y-56729483D01*
X76899182Y-56777102D01*
X76946801Y-56824721D01*
X76994420Y-56919960D01*
X76994420Y-57205674D01*
X76946801Y-57300912D01*
X76899182Y-57348531D01*
X76994420Y-55777102D02*
X76994420Y-56348531D01*
X76994420Y-56062817D02*
X75994420Y-56062817D01*
X76137278Y-56158055D01*
X76232516Y-56253293D01*
X76280135Y-56348531D01*
D16*
X91969096Y-51278560D02*
X91969096Y-51992846D01*
X91921477Y-52135703D01*
X91826239Y-52230941D01*
X91683381Y-52278560D01*
X91588143Y-52278560D01*
X92350048Y-51278560D02*
X92969096Y-51278560D01*
X92635762Y-51659513D01*
X92778620Y-51659513D01*
X92873858Y-51707132D01*
X92921477Y-51754751D01*
X92969096Y-51849989D01*
X92969096Y-52088084D01*
X92921477Y-52183322D01*
X92873858Y-52230941D01*
X92778620Y-52278560D01*
X92492905Y-52278560D01*
X92397667Y-52230941D01*
X92350048Y-52183322D01*
X93588143Y-51278560D02*
X93683381Y-51278560D01*
X93778620Y-51326180D01*
X93826239Y-51373799D01*
X93873858Y-51469037D01*
X93921477Y-51659513D01*
X93921477Y-51897608D01*
X93873858Y-52088084D01*
X93826239Y-52183322D01*
X93778620Y-52230941D01*
X93683381Y-52278560D01*
X93588143Y-52278560D01*
X93492905Y-52230941D01*
X93445286Y-52183322D01*
X93397667Y-52088084D01*
X93350048Y-51897608D01*
X93350048Y-51659513D01*
X93397667Y-51469037D01*
X93445286Y-51373799D01*
X93492905Y-51326180D01*
X93588143Y-51278560D01*
X152004356Y-50597940D02*
X152004356Y-51312226D01*
X151956737Y-51455083D01*
X151861499Y-51550321D01*
X151718641Y-51597940D01*
X151623403Y-51597940D01*
X153004356Y-51597940D02*
X152432927Y-51597940D01*
X152718641Y-51597940D02*
X152718641Y-50597940D01*
X152623403Y-50740798D01*
X152528165Y-50836036D01*
X152432927Y-50883655D01*
X153480546Y-51597940D02*
X153671022Y-51597940D01*
X153766260Y-51550321D01*
X153813880Y-51502702D01*
X153909118Y-51359845D01*
X153956737Y-51169369D01*
X153956737Y-50788417D01*
X153909118Y-50693179D01*
X153861499Y-50645560D01*
X153766260Y-50597940D01*
X153575784Y-50597940D01*
X153480546Y-50645560D01*
X153432927Y-50693179D01*
X153385308Y-50788417D01*
X153385308Y-51026512D01*
X153432927Y-51121750D01*
X153480546Y-51169369D01*
X153575784Y-51216988D01*
X153766260Y-51216988D01*
X153861499Y-51169369D01*
X153909118Y-51121750D01*
X153956737Y-51026512D01*
D10*
X38603980Y-119519183D02*
X39318266Y-119519183D01*
X39461123Y-119566802D01*
X39556361Y-119662040D01*
X39603980Y-119804898D01*
X39603980Y-119900136D01*
X39603980Y-118519183D02*
X39603980Y-119090612D01*
X39603980Y-118804898D02*
X38603980Y-118804898D01*
X38746838Y-118900136D01*
X38842076Y-118995374D01*
X38889695Y-119090612D01*
X38603980Y-117614421D02*
X38603980Y-118090612D01*
X39080171Y-118138231D01*
X39032552Y-118090612D01*
X38984933Y-117995374D01*
X38984933Y-117757279D01*
X39032552Y-117662040D01*
X39080171Y-117614421D01*
X39175409Y-117566802D01*
X39413504Y-117566802D01*
X39508742Y-117614421D01*
X39556361Y-117662040D01*
X39603980Y-117757279D01*
X39603980Y-117995374D01*
X39556361Y-118090612D01*
X39508742Y-118138231D01*
D16*
X138991516Y-50597940D02*
X138991516Y-51312226D01*
X138943897Y-51455083D01*
X138848659Y-51550321D01*
X138705801Y-51597940D01*
X138610563Y-51597940D01*
X139991516Y-51597940D02*
X139420087Y-51597940D01*
X139705801Y-51597940D02*
X139705801Y-50597940D01*
X139610563Y-50740798D01*
X139515325Y-50836036D01*
X139420087Y-50883655D01*
X140324849Y-50597940D02*
X140943897Y-50597940D01*
X140610563Y-50978893D01*
X140753420Y-50978893D01*
X140848659Y-51026512D01*
X140896278Y-51074131D01*
X140943897Y-51169369D01*
X140943897Y-51407464D01*
X140896278Y-51502702D01*
X140848659Y-51550321D01*
X140753420Y-51597940D01*
X140467706Y-51597940D01*
X140372468Y-51550321D01*
X140324849Y-51502702D01*
X122303916Y-51369960D02*
X122303916Y-52084246D01*
X122256297Y-52227103D01*
X122161059Y-52322341D01*
X122018201Y-52369960D01*
X121922963Y-52369960D01*
X123303916Y-52369960D02*
X122732487Y-52369960D01*
X123018201Y-52369960D02*
X123018201Y-51369960D01*
X122922963Y-51512818D01*
X122827725Y-51608056D01*
X122732487Y-51655675D01*
X123684868Y-51465199D02*
X123732487Y-51417580D01*
X123827725Y-51369960D01*
X124065820Y-51369960D01*
X124161059Y-51417580D01*
X124208678Y-51465199D01*
X124256297Y-51560437D01*
X124256297Y-51655675D01*
X124208678Y-51798532D01*
X123637249Y-52369960D01*
X124256297Y-52369960D01*
X112847496Y-51278520D02*
X112847496Y-51992806D01*
X112799877Y-52135663D01*
X112704639Y-52230901D01*
X112561781Y-52278520D01*
X112466543Y-52278520D01*
X113847496Y-52278520D02*
X113276067Y-52278520D01*
X113561781Y-52278520D02*
X113561781Y-51278520D01*
X113466543Y-51421378D01*
X113371305Y-51516616D01*
X113276067Y-51564235D01*
X114466543Y-51278520D02*
X114561781Y-51278520D01*
X114657020Y-51326140D01*
X114704639Y-51373759D01*
X114752258Y-51468997D01*
X114799877Y-51659473D01*
X114799877Y-51897568D01*
X114752258Y-52088044D01*
X114704639Y-52183282D01*
X114657020Y-52230901D01*
X114561781Y-52278520D01*
X114466543Y-52278520D01*
X114371305Y-52230901D01*
X114323686Y-52183282D01*
X114276067Y-52088044D01*
X114228448Y-51897568D01*
X114228448Y-51659473D01*
X114276067Y-51468997D01*
X114323686Y-51373759D01*
X114371305Y-51326140D01*
X114466543Y-51278520D01*
X160565246Y-35119020D02*
X160565246Y-35833306D01*
X160517627Y-35976163D01*
X160422389Y-36071401D01*
X160279532Y-36119020D01*
X160184294Y-36119020D01*
X161089056Y-36119020D02*
X161279532Y-36119020D01*
X161374770Y-36071401D01*
X161422389Y-36023782D01*
X161517627Y-35880925D01*
X161565246Y-35690449D01*
X161565246Y-35309497D01*
X161517627Y-35214259D01*
X161470008Y-35166640D01*
X161374770Y-35119020D01*
X161184294Y-35119020D01*
X161089056Y-35166640D01*
X161041437Y-35214259D01*
X160993818Y-35309497D01*
X160993818Y-35547592D01*
X161041437Y-35642830D01*
X161089056Y-35690449D01*
X161184294Y-35738068D01*
X161374770Y-35738068D01*
X161470008Y-35690449D01*
X161517627Y-35642830D01*
X161565246Y-35547592D01*
X146989066Y-35025080D02*
X146989066Y-35739366D01*
X146941447Y-35882223D01*
X146846209Y-35977461D01*
X146703352Y-36025080D01*
X146608114Y-36025080D01*
X147941447Y-35025080D02*
X147465257Y-35025080D01*
X147417638Y-35501271D01*
X147465257Y-35453652D01*
X147560495Y-35406033D01*
X147798590Y-35406033D01*
X147893828Y-35453652D01*
X147941447Y-35501271D01*
X147989066Y-35596509D01*
X147989066Y-35834604D01*
X147941447Y-35929842D01*
X147893828Y-35977461D01*
X147798590Y-36025080D01*
X147560495Y-36025080D01*
X147465257Y-35977461D01*
X147417638Y-35929842D01*
X82145566Y-51273440D02*
X82145566Y-51987726D01*
X82097947Y-52130583D01*
X82002709Y-52225821D01*
X81859852Y-52273440D01*
X81764614Y-52273440D01*
X83050328Y-51606774D02*
X83050328Y-52273440D01*
X82812233Y-51225821D02*
X82574138Y-51940107D01*
X83193185Y-51940107D01*
X101152006Y-51278480D02*
X101152006Y-51992766D01*
X101104387Y-52135623D01*
X101009149Y-52230861D01*
X100866292Y-52278480D01*
X100771054Y-52278480D01*
X101580578Y-51373719D02*
X101628197Y-51326100D01*
X101723435Y-51278480D01*
X101961530Y-51278480D01*
X102056768Y-51326100D01*
X102104387Y-51373719D01*
X102152006Y-51468957D01*
X102152006Y-51564195D01*
X102104387Y-51707052D01*
X101532959Y-52278480D01*
X102152006Y-52278480D01*
D10*
X75126633Y-37902080D02*
X74793300Y-37425890D01*
X74555204Y-37902080D02*
X74555204Y-36902080D01*
X74936157Y-36902080D01*
X75031395Y-36949700D01*
X75079014Y-36997319D01*
X75126633Y-37092557D01*
X75126633Y-37235414D01*
X75079014Y-37330652D01*
X75031395Y-37378271D01*
X74936157Y-37425890D01*
X74555204Y-37425890D01*
X75983776Y-37235414D02*
X75983776Y-37902080D01*
X75745680Y-36854461D02*
X75507585Y-37568747D01*
X76126633Y-37568747D01*
X75126633Y-51506380D02*
X74793300Y-51030190D01*
X74555204Y-51506380D02*
X74555204Y-50506380D01*
X74936157Y-50506380D01*
X75031395Y-50554000D01*
X75079014Y-50601619D01*
X75126633Y-50696857D01*
X75126633Y-50839714D01*
X75079014Y-50934952D01*
X75031395Y-50982571D01*
X74936157Y-51030190D01*
X74555204Y-51030190D01*
X75507585Y-50601619D02*
X75555204Y-50554000D01*
X75650442Y-50506380D01*
X75888538Y-50506380D01*
X75983776Y-50554000D01*
X76031395Y-50601619D01*
X76079014Y-50696857D01*
X76079014Y-50792095D01*
X76031395Y-50934952D01*
X75459966Y-51506380D01*
X76079014Y-51506380D01*
X44537380Y-42084523D02*
X45251666Y-42084523D01*
X45394523Y-42132142D01*
X45489761Y-42227380D01*
X45537380Y-42370238D01*
X45537380Y-42465476D01*
X44632619Y-41655952D02*
X44585000Y-41608333D01*
X44537380Y-41513095D01*
X44537380Y-41275000D01*
X44585000Y-41179761D01*
X44632619Y-41132142D01*
X44727857Y-41084523D01*
X44823095Y-41084523D01*
X44965952Y-41132142D01*
X45537380Y-41703571D01*
X45537380Y-41084523D01*
X44537380Y-40179761D02*
X44537380Y-40655952D01*
X45013571Y-40703571D01*
X44965952Y-40655952D01*
X44918333Y-40560714D01*
X44918333Y-40322619D01*
X44965952Y-40227380D01*
X45013571Y-40179761D01*
X45108809Y-40132142D01*
X45346904Y-40132142D01*
X45442142Y-40179761D01*
X45489761Y-40227380D01*
X45537380Y-40322619D01*
X45537380Y-40560714D01*
X45489761Y-40655952D01*
X45442142Y-40703571D01*
X55443140Y-50075055D02*
X54443140Y-50075055D01*
X54443140Y-49836960D01*
X54490760Y-49694102D01*
X54585998Y-49598864D01*
X54681236Y-49551245D01*
X54871712Y-49503626D01*
X55014569Y-49503626D01*
X55205045Y-49551245D01*
X55300283Y-49598864D01*
X55395521Y-49694102D01*
X55443140Y-49836960D01*
X55443140Y-50075055D01*
X54443140Y-49170293D02*
X54443140Y-48503626D01*
X55443140Y-48932198D01*
X55214540Y-40053544D02*
X54214540Y-40053544D01*
X55214540Y-39482116D02*
X54643112Y-39910687D01*
X54214540Y-39482116D02*
X54785969Y-40053544D01*
X149374380Y-65361557D02*
X148898190Y-65694890D01*
X149374380Y-65932985D02*
X148374380Y-65932985D01*
X148374380Y-65552033D01*
X148422000Y-65456795D01*
X148469619Y-65409176D01*
X148564857Y-65361557D01*
X148707714Y-65361557D01*
X148802952Y-65409176D01*
X148850571Y-65456795D01*
X148898190Y-65552033D01*
X148898190Y-65932985D01*
X149374380Y-64409176D02*
X149374380Y-64980604D01*
X149374380Y-64694890D02*
X148374380Y-64694890D01*
X148517238Y-64790128D01*
X148612476Y-64885366D01*
X148660095Y-64980604D01*
X148374380Y-63790128D02*
X148374380Y-63694890D01*
X148422000Y-63599652D01*
X148469619Y-63552033D01*
X148564857Y-63504414D01*
X148755333Y-63456795D01*
X148993428Y-63456795D01*
X149183904Y-63504414D01*
X149279142Y-63552033D01*
X149326761Y-63599652D01*
X149374380Y-63694890D01*
X149374380Y-63790128D01*
X149326761Y-63885366D01*
X149279142Y-63932985D01*
X149183904Y-63980604D01*
X148993428Y-64028223D01*
X148755333Y-64028223D01*
X148564857Y-63980604D01*
X148469619Y-63932985D01*
X148422000Y-63885366D01*
X148374380Y-63790128D01*
X144584380Y-64975366D02*
X144108190Y-65308700D01*
X144584380Y-65546795D02*
X143584380Y-65546795D01*
X143584380Y-65165842D01*
X143632000Y-65070604D01*
X143679619Y-65022985D01*
X143774857Y-64975366D01*
X143917714Y-64975366D01*
X144012952Y-65022985D01*
X144060571Y-65070604D01*
X144108190Y-65165842D01*
X144108190Y-65546795D01*
X144584380Y-64499176D02*
X144584380Y-64308700D01*
X144536761Y-64213461D01*
X144489142Y-64165842D01*
X144346285Y-64070604D01*
X144155809Y-64022985D01*
X143774857Y-64022985D01*
X143679619Y-64070604D01*
X143632000Y-64118223D01*
X143584380Y-64213461D01*
X143584380Y-64403938D01*
X143632000Y-64499176D01*
X143679619Y-64546795D01*
X143774857Y-64594414D01*
X144012952Y-64594414D01*
X144108190Y-64546795D01*
X144155809Y-64499176D01*
X144203428Y-64403938D01*
X144203428Y-64213461D01*
X144155809Y-64118223D01*
X144108190Y-64070604D01*
X144012952Y-64022985D01*
X136158380Y-64971766D02*
X135682190Y-65305100D01*
X136158380Y-65543195D02*
X135158380Y-65543195D01*
X135158380Y-65162242D01*
X135206000Y-65067004D01*
X135253619Y-65019385D01*
X135348857Y-64971766D01*
X135491714Y-64971766D01*
X135586952Y-65019385D01*
X135634571Y-65067004D01*
X135682190Y-65162242D01*
X135682190Y-65543195D01*
X135586952Y-64400338D02*
X135539333Y-64495576D01*
X135491714Y-64543195D01*
X135396476Y-64590814D01*
X135348857Y-64590814D01*
X135253619Y-64543195D01*
X135206000Y-64495576D01*
X135158380Y-64400338D01*
X135158380Y-64209861D01*
X135206000Y-64114623D01*
X135253619Y-64067004D01*
X135348857Y-64019385D01*
X135396476Y-64019385D01*
X135491714Y-64067004D01*
X135539333Y-64114623D01*
X135586952Y-64209861D01*
X135586952Y-64400338D01*
X135634571Y-64495576D01*
X135682190Y-64543195D01*
X135777428Y-64590814D01*
X135967904Y-64590814D01*
X136063142Y-64543195D01*
X136110761Y-64495576D01*
X136158380Y-64400338D01*
X136158380Y-64209861D01*
X136110761Y-64114623D01*
X136063142Y-64067004D01*
X135967904Y-64019385D01*
X135777428Y-64019385D01*
X135682190Y-64067004D01*
X135634571Y-64114623D01*
X135586952Y-64209861D01*
X131264380Y-65007766D02*
X130788190Y-65341100D01*
X131264380Y-65579195D02*
X130264380Y-65579195D01*
X130264380Y-65198242D01*
X130312000Y-65103004D01*
X130359619Y-65055385D01*
X130454857Y-65007766D01*
X130597714Y-65007766D01*
X130692952Y-65055385D01*
X130740571Y-65103004D01*
X130788190Y-65198242D01*
X130788190Y-65579195D01*
X130264380Y-64674433D02*
X130264380Y-64007766D01*
X131264380Y-64436338D01*
X171735095Y-117506761D02*
X171877952Y-117554380D01*
X172116047Y-117554380D01*
X172211285Y-117506761D01*
X172258904Y-117459142D01*
X172306523Y-117363904D01*
X172306523Y-117268666D01*
X172258904Y-117173428D01*
X172211285Y-117125809D01*
X172116047Y-117078190D01*
X171925571Y-117030571D01*
X171830333Y-116982952D01*
X171782714Y-116935333D01*
X171735095Y-116840095D01*
X171735095Y-116744857D01*
X171782714Y-116649619D01*
X171830333Y-116602000D01*
X171925571Y-116554380D01*
X172163666Y-116554380D01*
X172306523Y-116602000D01*
X172735095Y-117554380D02*
X172735095Y-116554380D01*
X173116047Y-116554380D01*
X173211285Y-116602000D01*
X173258904Y-116649619D01*
X173306523Y-116744857D01*
X173306523Y-116887714D01*
X173258904Y-116982952D01*
X173211285Y-117030571D01*
X173116047Y-117078190D01*
X172735095Y-117078190D01*
X174258904Y-117554380D02*
X173687476Y-117554380D01*
X173973190Y-117554380D02*
X173973190Y-116554380D01*
X173877952Y-116697238D01*
X173782714Y-116792476D01*
X173687476Y-116840095D01*
X175202428Y-119467952D02*
X175202428Y-118706047D01*
X175583380Y-119087000D02*
X174821476Y-119087000D01*
%LPC*%
D17*
X115956000Y-82128400D03*
D18*
X115956000Y-61638400D03*
D19*
X43307000Y-110253000D03*
G36*
G01*
X44057000Y-113603000D02*
X42557000Y-113603000D01*
G75*
G02*
X42307000Y-113353000I0J250000D01*
G01*
X42307000Y-112153000D01*
G75*
G02*
X42557000Y-111903000I250000J0D01*
G01*
X44057000Y-111903000D01*
G75*
G02*
X44307000Y-112153000I0J-250000D01*
G01*
X44307000Y-113353000D01*
G75*
G02*
X44057000Y-113603000I-250000J0D01*
G01*
G37*
D20*
X169398000Y-130300000D03*
D21*
X166858000Y-130300000D03*
D20*
X162880000Y-130300000D03*
D21*
X160340000Y-130300000D03*
D20*
X169398000Y-124008000D03*
D21*
X166858000Y-124008000D03*
D20*
X162880000Y-124008000D03*
D21*
X160340000Y-124008000D03*
D22*
X132106000Y-107744000D03*
X134606000Y-107744000D03*
X137106000Y-107744000D03*
G36*
G01*
X140456000Y-107019000D02*
X140456000Y-108469000D01*
G75*
G02*
X140206000Y-108719000I-250000J0D01*
G01*
X139006000Y-108719000D01*
G75*
G02*
X138756000Y-108469000I0J250000D01*
G01*
X138756000Y-107019000D01*
G75*
G02*
X139006000Y-106769000I250000J0D01*
G01*
X140206000Y-106769000D01*
G75*
G02*
X140456000Y-107019000I0J-250000D01*
G01*
G37*
X152266000Y-126794000D03*
X149766000Y-126794000D03*
G36*
G01*
X146416000Y-127519000D02*
X146416000Y-126069000D01*
G75*
G02*
X146666000Y-125819000I250000J0D01*
G01*
X147866000Y-125819000D01*
G75*
G02*
X148116000Y-126069000I0J-250000D01*
G01*
X148116000Y-127519000D01*
G75*
G02*
X147866000Y-127769000I-250000J0D01*
G01*
X146666000Y-127769000D01*
G75*
G02*
X146416000Y-127519000I0J250000D01*
G01*
G37*
X115596000Y-107744000D03*
X118096000Y-107744000D03*
X120596000Y-107744000D03*
G36*
G01*
X123946000Y-107019000D02*
X123946000Y-108469000D01*
G75*
G02*
X123696000Y-108719000I-250000J0D01*
G01*
X122496000Y-108719000D01*
G75*
G02*
X122246000Y-108469000I0J250000D01*
G01*
X122246000Y-107019000D01*
G75*
G02*
X122496000Y-106769000I250000J0D01*
G01*
X123696000Y-106769000D01*
G75*
G02*
X123946000Y-107019000I0J-250000D01*
G01*
G37*
X152226000Y-115364000D03*
X149726000Y-115364000D03*
G36*
G01*
X146376000Y-116089000D02*
X146376000Y-114639000D01*
G75*
G02*
X146626000Y-114389000I250000J0D01*
G01*
X147826000Y-114389000D01*
G75*
G02*
X148076000Y-114639000I0J-250000D01*
G01*
X148076000Y-116089000D01*
G75*
G02*
X147826000Y-116339000I-250000J0D01*
G01*
X146626000Y-116339000D01*
G75*
G02*
X146376000Y-116089000I0J250000D01*
G01*
G37*
D23*
X80220800Y-122405000D03*
X105620800Y-122405000D03*
X80220800Y-119865000D03*
X105620800Y-119865000D03*
X80220800Y-117325000D03*
X105620800Y-117325000D03*
X80220800Y-114785000D03*
X105620800Y-114785000D03*
X80220800Y-112245000D03*
X105620800Y-112245000D03*
X80220800Y-109705000D03*
X105620800Y-109705000D03*
X80220800Y-107165000D03*
X105620800Y-107165000D03*
X80220800Y-104625000D03*
X105620800Y-104625000D03*
X80220800Y-102085000D03*
X105620800Y-102085000D03*
X80220800Y-99545000D03*
X105620800Y-99545000D03*
X80220800Y-97005000D03*
X105620800Y-97005000D03*
X80220800Y-94465000D03*
X105620800Y-94465000D03*
X80220800Y-91925000D03*
X105620800Y-91925000D03*
X80220800Y-89385000D03*
X105620800Y-89385000D03*
X80220800Y-86845000D03*
X105620800Y-86845000D03*
D20*
X137312000Y-118214000D03*
D21*
X139852000Y-118214000D03*
D20*
X131089000Y-118214000D03*
D21*
X133629000Y-118214000D03*
D22*
X139566000Y-126794000D03*
X137066000Y-126794000D03*
X134566000Y-126794000D03*
G36*
G01*
X131216000Y-127519000D02*
X131216000Y-126069000D01*
G75*
G02*
X131466000Y-125819000I250000J0D01*
G01*
X132666000Y-125819000D01*
G75*
G02*
X132916000Y-126069000I0J-250000D01*
G01*
X132916000Y-127519000D01*
G75*
G02*
X132666000Y-127769000I-250000J0D01*
G01*
X131466000Y-127769000D01*
G75*
G02*
X131216000Y-127519000I0J250000D01*
G01*
G37*
X124206000Y-116634000D03*
X121706000Y-116634000D03*
X119206000Y-116634000D03*
X116706000Y-116634000D03*
G36*
G01*
X113356000Y-117359000D02*
X113356000Y-115909000D01*
G75*
G02*
X113606000Y-115659000I250000J0D01*
G01*
X114806000Y-115659000D01*
G75*
G02*
X115056000Y-115909000I0J-250000D01*
G01*
X115056000Y-117359000D01*
G75*
G02*
X114806000Y-117609000I-250000J0D01*
G01*
X113606000Y-117609000D01*
G75*
G02*
X113356000Y-117359000I0J250000D01*
G01*
G37*
X124206000Y-126794000D03*
X121706000Y-126794000D03*
X119206000Y-126794000D03*
X116706000Y-126794000D03*
G36*
G01*
X113356000Y-127519000D02*
X113356000Y-126069000D01*
G75*
G02*
X113606000Y-125819000I250000J0D01*
G01*
X114806000Y-125819000D01*
G75*
G02*
X115056000Y-126069000I0J-250000D01*
G01*
X115056000Y-127519000D01*
G75*
G02*
X114806000Y-127769000I-250000J0D01*
G01*
X113606000Y-127769000D01*
G75*
G02*
X113356000Y-127519000I0J250000D01*
G01*
G37*
X142078000Y-94762300D03*
X144578000Y-94762300D03*
X147078000Y-94762300D03*
G36*
G01*
X150428000Y-94037300D02*
X150428000Y-95487300D01*
G75*
G02*
X150178000Y-95737300I-250000J0D01*
G01*
X148978000Y-95737300D01*
G75*
G02*
X148728000Y-95487300I0J250000D01*
G01*
X148728000Y-94037300D01*
G75*
G02*
X148978000Y-93787300I250000J0D01*
G01*
X150178000Y-93787300D01*
G75*
G02*
X150428000Y-94037300I0J-250000D01*
G01*
G37*
X129887000Y-94825800D03*
X132387000Y-94825800D03*
G36*
G01*
X135737000Y-94100800D02*
X135737000Y-95550800D01*
G75*
G02*
X135487000Y-95800800I-250000J0D01*
G01*
X134287000Y-95800800D01*
G75*
G02*
X134037000Y-95550800I0J250000D01*
G01*
X134037000Y-94100800D01*
G75*
G02*
X134287000Y-93850800I250000J0D01*
G01*
X135487000Y-93850800D01*
G75*
G02*
X135737000Y-94100800I0J-250000D01*
G01*
G37*
D24*
X93837700Y-69047900D03*
X93837700Y-66547900D03*
X93837700Y-64047900D03*
X93837700Y-61547900D03*
G36*
G01*
X93112700Y-58197900D02*
X94562700Y-58197900D01*
G75*
G02*
X94812700Y-58447900I0J-250000D01*
G01*
X94812700Y-59647900D01*
G75*
G02*
X94562700Y-59897900I-250000J0D01*
G01*
X93112700Y-59897900D01*
G75*
G02*
X92862700Y-59647900I0J250000D01*
G01*
X92862700Y-58447900D01*
G75*
G02*
X93112700Y-58197900I250000J0D01*
G01*
G37*
D22*
X63533000Y-127808000D03*
X61033000Y-127808000D03*
X58533000Y-127808000D03*
X56033000Y-127808000D03*
G36*
G01*
X52683000Y-128533000D02*
X52683000Y-127083000D01*
G75*
G02*
X52933000Y-126833000I250000J0D01*
G01*
X54133000Y-126833000D01*
G75*
G02*
X54383000Y-127083000I0J-250000D01*
G01*
X54383000Y-128533000D01*
G75*
G02*
X54133000Y-128783000I-250000J0D01*
G01*
X52933000Y-128783000D01*
G75*
G02*
X52683000Y-128533000I0J250000D01*
G01*
G37*
D19*
X43398400Y-80776700D03*
G36*
G01*
X44148400Y-84126700D02*
X42648400Y-84126700D01*
G75*
G02*
X42398400Y-83876700I0J250000D01*
G01*
X42398400Y-82676700D01*
G75*
G02*
X42648400Y-82426700I250000J0D01*
G01*
X44148400Y-82426700D01*
G75*
G02*
X44398400Y-82676700I0J-250000D01*
G01*
X44398400Y-83876700D01*
G75*
G02*
X44148400Y-84126700I-250000J0D01*
G01*
G37*
D24*
X43301900Y-90322000D03*
X43301900Y-92822000D03*
X43301900Y-95322000D03*
X43301900Y-97822000D03*
X43301900Y-100322000D03*
G36*
G01*
X44026900Y-103672000D02*
X42576900Y-103672000D01*
G75*
G02*
X42326900Y-103422000I0J250000D01*
G01*
X42326900Y-102222000D01*
G75*
G02*
X42576900Y-101972000I250000J0D01*
G01*
X44026900Y-101972000D01*
G75*
G02*
X44276900Y-102222000I0J-250000D01*
G01*
X44276900Y-103422000D01*
G75*
G02*
X44026900Y-103672000I-250000J0D01*
G01*
G37*
X67142400Y-47658000D03*
X67142400Y-45158000D03*
X67142400Y-42658000D03*
G36*
G01*
X66417400Y-39308000D02*
X67867400Y-39308000D01*
G75*
G02*
X68117400Y-39558000I0J-250000D01*
G01*
X68117400Y-40758000D01*
G75*
G02*
X67867400Y-41008000I-250000J0D01*
G01*
X66417400Y-41008000D01*
G75*
G02*
X66167400Y-40758000I0J250000D01*
G01*
X66167400Y-39558000D01*
G75*
G02*
X66417400Y-39308000I250000J0D01*
G01*
G37*
D25*
X53235900Y-75062100D03*
X53235900Y-72522100D03*
X53235900Y-69982100D03*
X53235900Y-67442100D03*
X53235900Y-64902100D03*
X53235900Y-62362100D03*
X53235900Y-59822100D03*
X53235900Y-57282100D03*
D20*
X59616400Y-39443600D03*
D21*
X59616400Y-41983600D03*
D20*
X59524900Y-48387000D03*
D21*
X59524900Y-45847000D03*
D26*
X43000000Y-130000000D03*
D27*
X43000000Y-130000000D03*
D26*
X176000000Y-130000000D03*
D27*
X176000000Y-130000000D03*
D26*
X176000000Y-38000000D03*
D27*
X176000000Y-38000000D03*
D26*
X43000000Y-38000000D03*
D27*
X43000000Y-38000000D03*
D20*
X161382000Y-62821800D03*
D21*
X158842000Y-62821800D03*
D20*
X161783000Y-98508800D03*
D21*
X159243000Y-98508800D03*
D20*
X161382000Y-57706200D03*
D21*
X158842000Y-57706200D03*
D20*
X161702000Y-103441000D03*
D21*
X159162000Y-103441000D03*
D28*
X177262000Y-48983800D03*
X174722000Y-48983800D03*
D29*
X172182000Y-48983800D03*
D28*
X167698000Y-48983800D03*
X165158000Y-48983800D03*
D29*
X162618000Y-48983800D03*
D24*
X174746000Y-67198300D03*
X174746000Y-64698300D03*
X174746000Y-62198300D03*
X174746000Y-59698300D03*
G36*
G01*
X174021000Y-56348300D02*
X175471000Y-56348300D01*
G75*
G02*
X175721000Y-56598300I0J-250000D01*
G01*
X175721000Y-57798300D01*
G75*
G02*
X175471000Y-58048300I-250000J0D01*
G01*
X174021000Y-58048300D01*
G75*
G02*
X173771000Y-57798300I0J250000D01*
G01*
X173771000Y-56598300D01*
G75*
G02*
X174021000Y-56348300I250000J0D01*
G01*
G37*
X174948000Y-85031600D03*
X174948000Y-82531600D03*
X174948000Y-80031600D03*
X174948000Y-77531600D03*
G36*
G01*
X174223000Y-74181600D02*
X175673000Y-74181600D01*
G75*
G02*
X175923000Y-74431600I0J-250000D01*
G01*
X175923000Y-75631600D01*
G75*
G02*
X175673000Y-75881600I-250000J0D01*
G01*
X174223000Y-75881600D01*
G75*
G02*
X173973000Y-75631600I0J250000D01*
G01*
X173973000Y-74431600D01*
G75*
G02*
X174223000Y-74181600I250000J0D01*
G01*
G37*
X174976000Y-103030000D03*
X174976000Y-100530000D03*
X174976000Y-98030000D03*
X174976000Y-95530000D03*
G36*
G01*
X174251000Y-92180000D02*
X175701000Y-92180000D01*
G75*
G02*
X175951000Y-92430000I0J-250000D01*
G01*
X175951000Y-93630000D01*
G75*
G02*
X175701000Y-93880000I-250000J0D01*
G01*
X174251000Y-93880000D01*
G75*
G02*
X174001000Y-93630000I0J250000D01*
G01*
X174001000Y-92430000D01*
G75*
G02*
X174251000Y-92180000I250000J0D01*
G01*
G37*
X159550000Y-69774000D03*
X159550000Y-72274000D03*
X159550000Y-74774000D03*
G36*
G01*
X160275000Y-78124000D02*
X158825000Y-78124000D01*
G75*
G02*
X158575000Y-77874000I0J250000D01*
G01*
X158575000Y-76674000D01*
G75*
G02*
X158825000Y-76424000I250000J0D01*
G01*
X160275000Y-76424000D01*
G75*
G02*
X160525000Y-76674000I0J-250000D01*
G01*
X160525000Y-77874000D01*
G75*
G02*
X160275000Y-78124000I-250000J0D01*
G01*
G37*
X160536000Y-91942000D03*
X160536000Y-89442000D03*
X160536000Y-86942000D03*
G36*
G01*
X159811000Y-83592000D02*
X161261000Y-83592000D01*
G75*
G02*
X161511000Y-83842000I0J-250000D01*
G01*
X161511000Y-85042000D01*
G75*
G02*
X161261000Y-85292000I-250000J0D01*
G01*
X159811000Y-85292000D01*
G75*
G02*
X159561000Y-85042000I0J250000D01*
G01*
X159561000Y-83842000D01*
G75*
G02*
X159811000Y-83592000I250000J0D01*
G01*
G37*
D21*
X60546000Y-112984300D03*
X70195200Y-99065100D03*
X70195200Y-101605100D03*
X70195200Y-104145100D03*
X70195200Y-106685100D03*
D30*
X70195200Y-109225100D03*
D21*
X58006000Y-115524300D03*
X58006000Y-112984300D03*
X58006000Y-110444300D03*
X58006000Y-107904300D03*
X58006000Y-105364300D03*
X58006000Y-102824300D03*
X58006000Y-100284300D03*
X58006000Y-97744300D03*
X58006000Y-95204300D03*
X58006000Y-92664300D03*
X58006000Y-90124300D03*
X58006000Y-87584300D03*
X58006000Y-85044300D03*
X58006000Y-82504300D03*
D30*
X73246000Y-115524300D03*
D21*
X73246000Y-112984300D03*
X73246000Y-110444300D03*
X73246000Y-107904300D03*
X73246000Y-105364300D03*
X73246000Y-102824300D03*
X73246000Y-100284300D03*
X73246000Y-97744300D03*
X73246000Y-95204300D03*
X73246000Y-92664300D03*
X73246000Y-90124300D03*
X73246000Y-87584300D03*
X73246000Y-85044300D03*
X58006000Y-79964300D03*
X58006000Y-77424300D03*
X58006000Y-74884300D03*
X58006000Y-72344300D03*
X58006000Y-69804300D03*
X58006000Y-67264300D03*
X58006000Y-64724300D03*
X58006000Y-62184300D03*
X58006000Y-59644300D03*
X58006000Y-57104300D03*
X73246000Y-57104300D03*
X73246000Y-59644300D03*
X73246000Y-62184300D03*
X73246000Y-64724300D03*
X73246000Y-82504300D03*
X73246000Y-79964300D03*
X73246000Y-77424300D03*
X73246000Y-67264300D03*
X73246000Y-69804300D03*
X73246000Y-72344300D03*
X73246000Y-74884300D03*
D31*
X60444400Y-102554300D03*
D32*
X60444400Y-100554300D03*
X62444400Y-102554300D03*
X62444400Y-100554300D03*
X64444400Y-100554300D03*
X64444400Y-102554300D03*
D21*
X70706000Y-69804300D03*
X68166000Y-69804300D03*
X65626000Y-69804300D03*
X63086000Y-69804300D03*
X60546000Y-69804300D03*
D32*
X66896000Y-114794300D03*
X64356000Y-114794300D03*
D24*
X81597400Y-68750100D03*
X81597400Y-66250100D03*
X81597400Y-63750100D03*
X81597400Y-61250100D03*
G36*
G01*
X80872400Y-57900100D02*
X82322400Y-57900100D01*
G75*
G02*
X82572400Y-58150100I0J-250000D01*
G01*
X82572400Y-59350100D01*
G75*
G02*
X82322400Y-59600100I-250000J0D01*
G01*
X80872400Y-59600100D01*
G75*
G02*
X80622400Y-59350100I0J250000D01*
G01*
X80622400Y-58150100D01*
G75*
G02*
X80872400Y-57900100I250000J0D01*
G01*
G37*
X92809100Y-47764100D03*
X92809100Y-45264100D03*
X92809100Y-42764100D03*
G36*
G01*
X92084100Y-39414100D02*
X93534100Y-39414100D01*
G75*
G02*
X93784100Y-39664100I0J-250000D01*
G01*
X93784100Y-40864100D01*
G75*
G02*
X93534100Y-41114100I-250000J0D01*
G01*
X92084100Y-41114100D01*
G75*
G02*
X91834100Y-40864100I0J250000D01*
G01*
X91834100Y-39664100D01*
G75*
G02*
X92084100Y-39414100I250000J0D01*
G01*
G37*
D22*
X146234000Y-56228100D03*
X148734000Y-56228100D03*
G36*
G01*
X152084000Y-55503100D02*
X152084000Y-56953100D01*
G75*
G02*
X151834000Y-57203100I-250000J0D01*
G01*
X150634000Y-57203100D01*
G75*
G02*
X150384000Y-56953100I0J250000D01*
G01*
X150384000Y-55503100D01*
G75*
G02*
X150634000Y-55253100I250000J0D01*
G01*
X151834000Y-55253100D01*
G75*
G02*
X152084000Y-55503100I0J-250000D01*
G01*
G37*
D19*
X43164800Y-120073000D03*
G36*
G01*
X43914800Y-123423000D02*
X42414800Y-123423000D01*
G75*
G02*
X42164800Y-123173000I0J250000D01*
G01*
X42164800Y-121973000D01*
G75*
G02*
X42414800Y-121723000I250000J0D01*
G01*
X43914800Y-121723000D01*
G75*
G02*
X44164800Y-121973000I0J-250000D01*
G01*
X44164800Y-123173000D01*
G75*
G02*
X43914800Y-123423000I-250000J0D01*
G01*
G37*
D22*
X133211000Y-56228100D03*
X135711000Y-56228100D03*
G36*
G01*
X139061000Y-55503100D02*
X139061000Y-56953100D01*
G75*
G02*
X138811000Y-57203100I-250000J0D01*
G01*
X137611000Y-57203100D01*
G75*
G02*
X137361000Y-56953100I0J250000D01*
G01*
X137361000Y-55503100D01*
G75*
G02*
X137611000Y-55253100I250000J0D01*
G01*
X138811000Y-55253100D01*
G75*
G02*
X139061000Y-55503100I0J-250000D01*
G01*
G37*
D24*
X123618000Y-47917000D03*
X123618000Y-45417000D03*
X123618000Y-42917000D03*
G36*
G01*
X122893000Y-39567000D02*
X124343000Y-39567000D01*
G75*
G02*
X124593000Y-39817000I0J-250000D01*
G01*
X124593000Y-41017000D01*
G75*
G02*
X124343000Y-41267000I-250000J0D01*
G01*
X122893000Y-41267000D01*
G75*
G02*
X122643000Y-41017000I0J250000D01*
G01*
X122643000Y-39817000D01*
G75*
G02*
X122893000Y-39567000I250000J0D01*
G01*
G37*
X113808000Y-47827000D03*
X113808000Y-45327000D03*
X113808000Y-42827000D03*
G36*
G01*
X113083000Y-39477000D02*
X114533000Y-39477000D01*
G75*
G02*
X114783000Y-39727000I0J-250000D01*
G01*
X114783000Y-40927000D01*
G75*
G02*
X114533000Y-41177000I-250000J0D01*
G01*
X113083000Y-41177000D01*
G75*
G02*
X112833000Y-40927000I0J250000D01*
G01*
X112833000Y-39727000D01*
G75*
G02*
X113083000Y-39477000I250000J0D01*
G01*
G37*
D22*
X154179000Y-40718700D03*
X156679000Y-40718700D03*
G36*
G01*
X160029000Y-39993700D02*
X160029000Y-41443700D01*
G75*
G02*
X159779000Y-41693700I-250000J0D01*
G01*
X158579000Y-41693700D01*
G75*
G02*
X158329000Y-41443700I0J250000D01*
G01*
X158329000Y-39993700D01*
G75*
G02*
X158579000Y-39743700I250000J0D01*
G01*
X159779000Y-39743700D01*
G75*
G02*
X160029000Y-39993700I0J-250000D01*
G01*
G37*
X138146000Y-40627300D03*
X140646000Y-40627300D03*
X143146000Y-40627300D03*
G36*
G01*
X146496000Y-39902300D02*
X146496000Y-41352300D01*
G75*
G02*
X146246000Y-41602300I-250000J0D01*
G01*
X145046000Y-41602300D01*
G75*
G02*
X144796000Y-41352300I0J250000D01*
G01*
X144796000Y-39902300D01*
G75*
G02*
X145046000Y-39652300I250000J0D01*
G01*
X146246000Y-39652300D01*
G75*
G02*
X146496000Y-39902300I0J-250000D01*
G01*
G37*
D24*
X82491600Y-47753900D03*
X82491600Y-45253900D03*
X82491600Y-42753900D03*
G36*
G01*
X81766600Y-39403900D02*
X83216600Y-39403900D01*
G75*
G02*
X83466600Y-39653900I0J-250000D01*
G01*
X83466600Y-40853900D01*
G75*
G02*
X83216600Y-41103900I-250000J0D01*
G01*
X81766600Y-41103900D01*
G75*
G02*
X81516600Y-40853900I0J250000D01*
G01*
X81516600Y-39653900D01*
G75*
G02*
X81766600Y-39403900I250000J0D01*
G01*
G37*
X101559000Y-47718300D03*
X101559000Y-45218300D03*
X101559000Y-42718300D03*
G36*
G01*
X100834000Y-39368300D02*
X102284000Y-39368300D01*
G75*
G02*
X102534000Y-39618300I0J-250000D01*
G01*
X102534000Y-40818300D01*
G75*
G02*
X102284000Y-41068300I-250000J0D01*
G01*
X100834000Y-41068300D01*
G75*
G02*
X100584000Y-40818300I0J250000D01*
G01*
X100584000Y-39618300D01*
G75*
G02*
X100834000Y-39368300I250000J0D01*
G01*
G37*
D20*
X75293300Y-42529700D03*
D21*
X75293300Y-39989700D03*
D20*
X75293300Y-48514000D03*
D21*
X75293300Y-45974000D03*
D18*
X44890000Y-50800000D03*
D17*
X44890000Y-45720000D03*
D33*
X51978600Y-50038000D03*
D34*
X51978600Y-39878000D03*
D20*
X151292000Y-63448700D03*
D21*
X151292000Y-65988700D03*
D20*
X146502000Y-63538700D03*
D21*
X146502000Y-66078700D03*
D20*
X138076000Y-63535100D03*
D21*
X138076000Y-66075100D03*
D20*
X133182000Y-63571100D03*
D21*
X133182000Y-66111100D03*
D23*
X173251000Y-111397160D03*
X173251000Y-118996840D03*
M02*
