%TF.GenerationSoftware,KiCad,Pcbnew,(5.1.12-5-g2758acfd42)-1*%
%TF.CreationDate,2022-03-05T16:45:09+01:00*%
%TF.ProjectId,Teensy_MainPCB,5465656e-7379-45f4-9d61-696e5043422e,rev?*%
%TF.SameCoordinates,Original*%
%TF.FileFunction,Legend,Bot*%
%TF.FilePolarity,Positive*%
%FSLAX46Y46*%
G04 Gerber Fmt 4.6, Leading zero omitted, Abs format (unit mm)*
G04 Created by KiCad (PCBNEW (5.1.12-5-g2758acfd42)-1) date 2022-03-05 16:45:09*
%MOMM*%
%LPD*%
G01*
G04 APERTURE LIST*
%ADD10R,3.000000X3.000000*%
%ADD11C,3.000000*%
%ADD12O,2.000000X1.700000*%
%ADD13O,1.600000X1.600000*%
%ADD14C,1.600000*%
%ADD15O,1.700000X1.950000*%
%ADD16C,2.000000*%
%ADD17O,1.950000X1.700000*%
%ADD18O,2.268000X1.524000*%
%ADD19C,6.400000*%
%ADD20C,3.600000*%
%ADD21O,1.700000X1.700000*%
%ADD22R,1.700000X1.700000*%
%ADD23R,1.600000X1.600000*%
%ADD24R,1.300000X1.300000*%
%ADD25C,1.300000*%
%ADD26O,2.200000X2.200000*%
%ADD27R,2.200000X2.200000*%
G04 APERTURE END LIST*
%LPC*%
D10*
X115956000Y-82128400D03*
D11*
X115956000Y-61638400D03*
D12*
X43307000Y-110253000D03*
G36*
G01*
X44057000Y-113603000D02*
X42557000Y-113603000D01*
G75*
G02*
X42307000Y-113353000I0J250000D01*
G01*
X42307000Y-112153000D01*
G75*
G02*
X42557000Y-111903000I250000J0D01*
G01*
X44057000Y-111903000D01*
G75*
G02*
X44307000Y-112153000I0J-250000D01*
G01*
X44307000Y-113353000D01*
G75*
G02*
X44057000Y-113603000I-250000J0D01*
G01*
G37*
D13*
X169398000Y-130300000D03*
D14*
X166858000Y-130300000D03*
D13*
X162880000Y-130300000D03*
D14*
X160340000Y-130300000D03*
D13*
X169398000Y-124008000D03*
D14*
X166858000Y-124008000D03*
D13*
X162880000Y-124008000D03*
D14*
X160340000Y-124008000D03*
D15*
X132106000Y-107744000D03*
X134606000Y-107744000D03*
X137106000Y-107744000D03*
G36*
G01*
X140456000Y-107019000D02*
X140456000Y-108469000D01*
G75*
G02*
X140206000Y-108719000I-250000J0D01*
G01*
X139006000Y-108719000D01*
G75*
G02*
X138756000Y-108469000I0J250000D01*
G01*
X138756000Y-107019000D01*
G75*
G02*
X139006000Y-106769000I250000J0D01*
G01*
X140206000Y-106769000D01*
G75*
G02*
X140456000Y-107019000I0J-250000D01*
G01*
G37*
X152266000Y-126794000D03*
X149766000Y-126794000D03*
G36*
G01*
X146416000Y-127519000D02*
X146416000Y-126069000D01*
G75*
G02*
X146666000Y-125819000I250000J0D01*
G01*
X147866000Y-125819000D01*
G75*
G02*
X148116000Y-126069000I0J-250000D01*
G01*
X148116000Y-127519000D01*
G75*
G02*
X147866000Y-127769000I-250000J0D01*
G01*
X146666000Y-127769000D01*
G75*
G02*
X146416000Y-127519000I0J250000D01*
G01*
G37*
X115596000Y-107744000D03*
X118096000Y-107744000D03*
X120596000Y-107744000D03*
G36*
G01*
X123946000Y-107019000D02*
X123946000Y-108469000D01*
G75*
G02*
X123696000Y-108719000I-250000J0D01*
G01*
X122496000Y-108719000D01*
G75*
G02*
X122246000Y-108469000I0J250000D01*
G01*
X122246000Y-107019000D01*
G75*
G02*
X122496000Y-106769000I250000J0D01*
G01*
X123696000Y-106769000D01*
G75*
G02*
X123946000Y-107019000I0J-250000D01*
G01*
G37*
X152226000Y-115364000D03*
X149726000Y-115364000D03*
G36*
G01*
X146376000Y-116089000D02*
X146376000Y-114639000D01*
G75*
G02*
X146626000Y-114389000I250000J0D01*
G01*
X147826000Y-114389000D01*
G75*
G02*
X148076000Y-114639000I0J-250000D01*
G01*
X148076000Y-116089000D01*
G75*
G02*
X147826000Y-116339000I-250000J0D01*
G01*
X146626000Y-116339000D01*
G75*
G02*
X146376000Y-116089000I0J250000D01*
G01*
G37*
D16*
X80220800Y-122405000D03*
X105620800Y-122405000D03*
X80220800Y-119865000D03*
X105620800Y-119865000D03*
X80220800Y-117325000D03*
X105620800Y-117325000D03*
X80220800Y-114785000D03*
X105620800Y-114785000D03*
X80220800Y-112245000D03*
X105620800Y-112245000D03*
X80220800Y-109705000D03*
X105620800Y-109705000D03*
X80220800Y-107165000D03*
X105620800Y-107165000D03*
X80220800Y-104625000D03*
X105620800Y-104625000D03*
X80220800Y-102085000D03*
X105620800Y-102085000D03*
X80220800Y-99545000D03*
X105620800Y-99545000D03*
X80220800Y-97005000D03*
X105620800Y-97005000D03*
X80220800Y-94465000D03*
X105620800Y-94465000D03*
X80220800Y-91925000D03*
X105620800Y-91925000D03*
X80220800Y-89385000D03*
X105620800Y-89385000D03*
X80220800Y-86845000D03*
X105620800Y-86845000D03*
D13*
X137312000Y-118214000D03*
D14*
X139852000Y-118214000D03*
D13*
X131089000Y-118214000D03*
D14*
X133629000Y-118214000D03*
D15*
X139566000Y-126794000D03*
X137066000Y-126794000D03*
X134566000Y-126794000D03*
G36*
G01*
X131216000Y-127519000D02*
X131216000Y-126069000D01*
G75*
G02*
X131466000Y-125819000I250000J0D01*
G01*
X132666000Y-125819000D01*
G75*
G02*
X132916000Y-126069000I0J-250000D01*
G01*
X132916000Y-127519000D01*
G75*
G02*
X132666000Y-127769000I-250000J0D01*
G01*
X131466000Y-127769000D01*
G75*
G02*
X131216000Y-127519000I0J250000D01*
G01*
G37*
X124206000Y-116634000D03*
X121706000Y-116634000D03*
X119206000Y-116634000D03*
X116706000Y-116634000D03*
G36*
G01*
X113356000Y-117359000D02*
X113356000Y-115909000D01*
G75*
G02*
X113606000Y-115659000I250000J0D01*
G01*
X114806000Y-115659000D01*
G75*
G02*
X115056000Y-115909000I0J-250000D01*
G01*
X115056000Y-117359000D01*
G75*
G02*
X114806000Y-117609000I-250000J0D01*
G01*
X113606000Y-117609000D01*
G75*
G02*
X113356000Y-117359000I0J250000D01*
G01*
G37*
X124206000Y-126794000D03*
X121706000Y-126794000D03*
X119206000Y-126794000D03*
X116706000Y-126794000D03*
G36*
G01*
X113356000Y-127519000D02*
X113356000Y-126069000D01*
G75*
G02*
X113606000Y-125819000I250000J0D01*
G01*
X114806000Y-125819000D01*
G75*
G02*
X115056000Y-126069000I0J-250000D01*
G01*
X115056000Y-127519000D01*
G75*
G02*
X114806000Y-127769000I-250000J0D01*
G01*
X113606000Y-127769000D01*
G75*
G02*
X113356000Y-127519000I0J250000D01*
G01*
G37*
X142078000Y-94762300D03*
X144578000Y-94762300D03*
X147078000Y-94762300D03*
G36*
G01*
X150428000Y-94037300D02*
X150428000Y-95487300D01*
G75*
G02*
X150178000Y-95737300I-250000J0D01*
G01*
X148978000Y-95737300D01*
G75*
G02*
X148728000Y-95487300I0J250000D01*
G01*
X148728000Y-94037300D01*
G75*
G02*
X148978000Y-93787300I250000J0D01*
G01*
X150178000Y-93787300D01*
G75*
G02*
X150428000Y-94037300I0J-250000D01*
G01*
G37*
X129887000Y-94825800D03*
X132387000Y-94825800D03*
G36*
G01*
X135737000Y-94100800D02*
X135737000Y-95550800D01*
G75*
G02*
X135487000Y-95800800I-250000J0D01*
G01*
X134287000Y-95800800D01*
G75*
G02*
X134037000Y-95550800I0J250000D01*
G01*
X134037000Y-94100800D01*
G75*
G02*
X134287000Y-93850800I250000J0D01*
G01*
X135487000Y-93850800D01*
G75*
G02*
X135737000Y-94100800I0J-250000D01*
G01*
G37*
D17*
X93837700Y-69047900D03*
X93837700Y-66547900D03*
X93837700Y-64047900D03*
X93837700Y-61547900D03*
G36*
G01*
X93112700Y-58197900D02*
X94562700Y-58197900D01*
G75*
G02*
X94812700Y-58447900I0J-250000D01*
G01*
X94812700Y-59647900D01*
G75*
G02*
X94562700Y-59897900I-250000J0D01*
G01*
X93112700Y-59897900D01*
G75*
G02*
X92862700Y-59647900I0J250000D01*
G01*
X92862700Y-58447900D01*
G75*
G02*
X93112700Y-58197900I250000J0D01*
G01*
G37*
D15*
X63533000Y-127808000D03*
X61033000Y-127808000D03*
X58533000Y-127808000D03*
X56033000Y-127808000D03*
G36*
G01*
X52683000Y-128533000D02*
X52683000Y-127083000D01*
G75*
G02*
X52933000Y-126833000I250000J0D01*
G01*
X54133000Y-126833000D01*
G75*
G02*
X54383000Y-127083000I0J-250000D01*
G01*
X54383000Y-128533000D01*
G75*
G02*
X54133000Y-128783000I-250000J0D01*
G01*
X52933000Y-128783000D01*
G75*
G02*
X52683000Y-128533000I0J250000D01*
G01*
G37*
D12*
X43398400Y-80776700D03*
G36*
G01*
X44148400Y-84126700D02*
X42648400Y-84126700D01*
G75*
G02*
X42398400Y-83876700I0J250000D01*
G01*
X42398400Y-82676700D01*
G75*
G02*
X42648400Y-82426700I250000J0D01*
G01*
X44148400Y-82426700D01*
G75*
G02*
X44398400Y-82676700I0J-250000D01*
G01*
X44398400Y-83876700D01*
G75*
G02*
X44148400Y-84126700I-250000J0D01*
G01*
G37*
D17*
X43301900Y-90322000D03*
X43301900Y-92822000D03*
X43301900Y-95322000D03*
X43301900Y-97822000D03*
X43301900Y-100322000D03*
G36*
G01*
X44026900Y-103672000D02*
X42576900Y-103672000D01*
G75*
G02*
X42326900Y-103422000I0J250000D01*
G01*
X42326900Y-102222000D01*
G75*
G02*
X42576900Y-101972000I250000J0D01*
G01*
X44026900Y-101972000D01*
G75*
G02*
X44276900Y-102222000I0J-250000D01*
G01*
X44276900Y-103422000D01*
G75*
G02*
X44026900Y-103672000I-250000J0D01*
G01*
G37*
X67142400Y-47658000D03*
X67142400Y-45158000D03*
X67142400Y-42658000D03*
G36*
G01*
X66417400Y-39308000D02*
X67867400Y-39308000D01*
G75*
G02*
X68117400Y-39558000I0J-250000D01*
G01*
X68117400Y-40758000D01*
G75*
G02*
X67867400Y-41008000I-250000J0D01*
G01*
X66417400Y-41008000D01*
G75*
G02*
X66167400Y-40758000I0J250000D01*
G01*
X66167400Y-39558000D01*
G75*
G02*
X66417400Y-39308000I250000J0D01*
G01*
G37*
D18*
X53235900Y-75062100D03*
X53235900Y-72522100D03*
X53235900Y-69982100D03*
X53235900Y-67442100D03*
X53235900Y-64902100D03*
X53235900Y-62362100D03*
X53235900Y-59822100D03*
X53235900Y-57282100D03*
D13*
X59616400Y-39443600D03*
D14*
X59616400Y-41983600D03*
D13*
X59524900Y-48387000D03*
D14*
X59524900Y-45847000D03*
D19*
X43000000Y-130000000D03*
D20*
X43000000Y-130000000D03*
D19*
X176000000Y-130000000D03*
D20*
X176000000Y-130000000D03*
D19*
X176000000Y-38000000D03*
D20*
X176000000Y-38000000D03*
D19*
X43000000Y-38000000D03*
D20*
X43000000Y-38000000D03*
D13*
X161382000Y-62821800D03*
D14*
X158842000Y-62821800D03*
D13*
X161783000Y-98508800D03*
D14*
X159243000Y-98508800D03*
D13*
X161382000Y-57706200D03*
D14*
X158842000Y-57706200D03*
D13*
X161702000Y-103441000D03*
D14*
X159162000Y-103441000D03*
D21*
X177262000Y-48983800D03*
X174722000Y-48983800D03*
D22*
X172182000Y-48983800D03*
D21*
X167698000Y-48983800D03*
X165158000Y-48983800D03*
D22*
X162618000Y-48983800D03*
D17*
X174746000Y-67198300D03*
X174746000Y-64698300D03*
X174746000Y-62198300D03*
X174746000Y-59698300D03*
G36*
G01*
X174021000Y-56348300D02*
X175471000Y-56348300D01*
G75*
G02*
X175721000Y-56598300I0J-250000D01*
G01*
X175721000Y-57798300D01*
G75*
G02*
X175471000Y-58048300I-250000J0D01*
G01*
X174021000Y-58048300D01*
G75*
G02*
X173771000Y-57798300I0J250000D01*
G01*
X173771000Y-56598300D01*
G75*
G02*
X174021000Y-56348300I250000J0D01*
G01*
G37*
X174948000Y-85031600D03*
X174948000Y-82531600D03*
X174948000Y-80031600D03*
X174948000Y-77531600D03*
G36*
G01*
X174223000Y-74181600D02*
X175673000Y-74181600D01*
G75*
G02*
X175923000Y-74431600I0J-250000D01*
G01*
X175923000Y-75631600D01*
G75*
G02*
X175673000Y-75881600I-250000J0D01*
G01*
X174223000Y-75881600D01*
G75*
G02*
X173973000Y-75631600I0J250000D01*
G01*
X173973000Y-74431600D01*
G75*
G02*
X174223000Y-74181600I250000J0D01*
G01*
G37*
X174976000Y-103030000D03*
X174976000Y-100530000D03*
X174976000Y-98030000D03*
X174976000Y-95530000D03*
G36*
G01*
X174251000Y-92180000D02*
X175701000Y-92180000D01*
G75*
G02*
X175951000Y-92430000I0J-250000D01*
G01*
X175951000Y-93630000D01*
G75*
G02*
X175701000Y-93880000I-250000J0D01*
G01*
X174251000Y-93880000D01*
G75*
G02*
X174001000Y-93630000I0J250000D01*
G01*
X174001000Y-92430000D01*
G75*
G02*
X174251000Y-92180000I250000J0D01*
G01*
G37*
X159550000Y-69774000D03*
X159550000Y-72274000D03*
X159550000Y-74774000D03*
G36*
G01*
X160275000Y-78124000D02*
X158825000Y-78124000D01*
G75*
G02*
X158575000Y-77874000I0J250000D01*
G01*
X158575000Y-76674000D01*
G75*
G02*
X158825000Y-76424000I250000J0D01*
G01*
X160275000Y-76424000D01*
G75*
G02*
X160525000Y-76674000I0J-250000D01*
G01*
X160525000Y-77874000D01*
G75*
G02*
X160275000Y-78124000I-250000J0D01*
G01*
G37*
X160536000Y-91942000D03*
X160536000Y-89442000D03*
X160536000Y-86942000D03*
G36*
G01*
X159811000Y-83592000D02*
X161261000Y-83592000D01*
G75*
G02*
X161511000Y-83842000I0J-250000D01*
G01*
X161511000Y-85042000D01*
G75*
G02*
X161261000Y-85292000I-250000J0D01*
G01*
X159811000Y-85292000D01*
G75*
G02*
X159561000Y-85042000I0J250000D01*
G01*
X159561000Y-83842000D01*
G75*
G02*
X159811000Y-83592000I250000J0D01*
G01*
G37*
D14*
X60546000Y-112984300D03*
X70195200Y-99065100D03*
X70195200Y-101605100D03*
X70195200Y-104145100D03*
X70195200Y-106685100D03*
D23*
X70195200Y-109225100D03*
D14*
X58006000Y-115524300D03*
X58006000Y-112984300D03*
X58006000Y-110444300D03*
X58006000Y-107904300D03*
X58006000Y-105364300D03*
X58006000Y-102824300D03*
X58006000Y-100284300D03*
X58006000Y-97744300D03*
X58006000Y-95204300D03*
X58006000Y-92664300D03*
X58006000Y-90124300D03*
X58006000Y-87584300D03*
X58006000Y-85044300D03*
X58006000Y-82504300D03*
D23*
X73246000Y-115524300D03*
D14*
X73246000Y-112984300D03*
X73246000Y-110444300D03*
X73246000Y-107904300D03*
X73246000Y-105364300D03*
X73246000Y-102824300D03*
X73246000Y-100284300D03*
X73246000Y-97744300D03*
X73246000Y-95204300D03*
X73246000Y-92664300D03*
X73246000Y-90124300D03*
X73246000Y-87584300D03*
X73246000Y-85044300D03*
X58006000Y-79964300D03*
X58006000Y-77424300D03*
X58006000Y-74884300D03*
X58006000Y-72344300D03*
X58006000Y-69804300D03*
X58006000Y-67264300D03*
X58006000Y-64724300D03*
X58006000Y-62184300D03*
X58006000Y-59644300D03*
X58006000Y-57104300D03*
X73246000Y-57104300D03*
X73246000Y-59644300D03*
X73246000Y-62184300D03*
X73246000Y-64724300D03*
X73246000Y-82504300D03*
X73246000Y-79964300D03*
X73246000Y-77424300D03*
X73246000Y-67264300D03*
X73246000Y-69804300D03*
X73246000Y-72344300D03*
X73246000Y-74884300D03*
D24*
X60444400Y-102554300D03*
D25*
X60444400Y-100554300D03*
X62444400Y-102554300D03*
X62444400Y-100554300D03*
X64444400Y-100554300D03*
X64444400Y-102554300D03*
D14*
X70706000Y-69804300D03*
X68166000Y-69804300D03*
X65626000Y-69804300D03*
X63086000Y-69804300D03*
X60546000Y-69804300D03*
D25*
X66896000Y-114794300D03*
X64356000Y-114794300D03*
D17*
X81597400Y-68750100D03*
X81597400Y-66250100D03*
X81597400Y-63750100D03*
X81597400Y-61250100D03*
G36*
G01*
X80872400Y-57900100D02*
X82322400Y-57900100D01*
G75*
G02*
X82572400Y-58150100I0J-250000D01*
G01*
X82572400Y-59350100D01*
G75*
G02*
X82322400Y-59600100I-250000J0D01*
G01*
X80872400Y-59600100D01*
G75*
G02*
X80622400Y-59350100I0J250000D01*
G01*
X80622400Y-58150100D01*
G75*
G02*
X80872400Y-57900100I250000J0D01*
G01*
G37*
X92809100Y-47764100D03*
X92809100Y-45264100D03*
X92809100Y-42764100D03*
G36*
G01*
X92084100Y-39414100D02*
X93534100Y-39414100D01*
G75*
G02*
X93784100Y-39664100I0J-250000D01*
G01*
X93784100Y-40864100D01*
G75*
G02*
X93534100Y-41114100I-250000J0D01*
G01*
X92084100Y-41114100D01*
G75*
G02*
X91834100Y-40864100I0J250000D01*
G01*
X91834100Y-39664100D01*
G75*
G02*
X92084100Y-39414100I250000J0D01*
G01*
G37*
D15*
X146234000Y-56228100D03*
X148734000Y-56228100D03*
G36*
G01*
X152084000Y-55503100D02*
X152084000Y-56953100D01*
G75*
G02*
X151834000Y-57203100I-250000J0D01*
G01*
X150634000Y-57203100D01*
G75*
G02*
X150384000Y-56953100I0J250000D01*
G01*
X150384000Y-55503100D01*
G75*
G02*
X150634000Y-55253100I250000J0D01*
G01*
X151834000Y-55253100D01*
G75*
G02*
X152084000Y-55503100I0J-250000D01*
G01*
G37*
D12*
X43164800Y-120073000D03*
G36*
G01*
X43914800Y-123423000D02*
X42414800Y-123423000D01*
G75*
G02*
X42164800Y-123173000I0J250000D01*
G01*
X42164800Y-121973000D01*
G75*
G02*
X42414800Y-121723000I250000J0D01*
G01*
X43914800Y-121723000D01*
G75*
G02*
X44164800Y-121973000I0J-250000D01*
G01*
X44164800Y-123173000D01*
G75*
G02*
X43914800Y-123423000I-250000J0D01*
G01*
G37*
D15*
X133211000Y-56228100D03*
X135711000Y-56228100D03*
G36*
G01*
X139061000Y-55503100D02*
X139061000Y-56953100D01*
G75*
G02*
X138811000Y-57203100I-250000J0D01*
G01*
X137611000Y-57203100D01*
G75*
G02*
X137361000Y-56953100I0J250000D01*
G01*
X137361000Y-55503100D01*
G75*
G02*
X137611000Y-55253100I250000J0D01*
G01*
X138811000Y-55253100D01*
G75*
G02*
X139061000Y-55503100I0J-250000D01*
G01*
G37*
D17*
X123618000Y-47917000D03*
X123618000Y-45417000D03*
X123618000Y-42917000D03*
G36*
G01*
X122893000Y-39567000D02*
X124343000Y-39567000D01*
G75*
G02*
X124593000Y-39817000I0J-250000D01*
G01*
X124593000Y-41017000D01*
G75*
G02*
X124343000Y-41267000I-250000J0D01*
G01*
X122893000Y-41267000D01*
G75*
G02*
X122643000Y-41017000I0J250000D01*
G01*
X122643000Y-39817000D01*
G75*
G02*
X122893000Y-39567000I250000J0D01*
G01*
G37*
X113808000Y-47827000D03*
X113808000Y-45327000D03*
X113808000Y-42827000D03*
G36*
G01*
X113083000Y-39477000D02*
X114533000Y-39477000D01*
G75*
G02*
X114783000Y-39727000I0J-250000D01*
G01*
X114783000Y-40927000D01*
G75*
G02*
X114533000Y-41177000I-250000J0D01*
G01*
X113083000Y-41177000D01*
G75*
G02*
X112833000Y-40927000I0J250000D01*
G01*
X112833000Y-39727000D01*
G75*
G02*
X113083000Y-39477000I250000J0D01*
G01*
G37*
D15*
X154179000Y-40718700D03*
X156679000Y-40718700D03*
G36*
G01*
X160029000Y-39993700D02*
X160029000Y-41443700D01*
G75*
G02*
X159779000Y-41693700I-250000J0D01*
G01*
X158579000Y-41693700D01*
G75*
G02*
X158329000Y-41443700I0J250000D01*
G01*
X158329000Y-39993700D01*
G75*
G02*
X158579000Y-39743700I250000J0D01*
G01*
X159779000Y-39743700D01*
G75*
G02*
X160029000Y-39993700I0J-250000D01*
G01*
G37*
X138146000Y-40627300D03*
X140646000Y-40627300D03*
X143146000Y-40627300D03*
G36*
G01*
X146496000Y-39902300D02*
X146496000Y-41352300D01*
G75*
G02*
X146246000Y-41602300I-250000J0D01*
G01*
X145046000Y-41602300D01*
G75*
G02*
X144796000Y-41352300I0J250000D01*
G01*
X144796000Y-39902300D01*
G75*
G02*
X145046000Y-39652300I250000J0D01*
G01*
X146246000Y-39652300D01*
G75*
G02*
X146496000Y-39902300I0J-250000D01*
G01*
G37*
D17*
X82491600Y-47753900D03*
X82491600Y-45253900D03*
X82491600Y-42753900D03*
G36*
G01*
X81766600Y-39403900D02*
X83216600Y-39403900D01*
G75*
G02*
X83466600Y-39653900I0J-250000D01*
G01*
X83466600Y-40853900D01*
G75*
G02*
X83216600Y-41103900I-250000J0D01*
G01*
X81766600Y-41103900D01*
G75*
G02*
X81516600Y-40853900I0J250000D01*
G01*
X81516600Y-39653900D01*
G75*
G02*
X81766600Y-39403900I250000J0D01*
G01*
G37*
X101559000Y-47718300D03*
X101559000Y-45218300D03*
X101559000Y-42718300D03*
G36*
G01*
X100834000Y-39368300D02*
X102284000Y-39368300D01*
G75*
G02*
X102534000Y-39618300I0J-250000D01*
G01*
X102534000Y-40818300D01*
G75*
G02*
X102284000Y-41068300I-250000J0D01*
G01*
X100834000Y-41068300D01*
G75*
G02*
X100584000Y-40818300I0J250000D01*
G01*
X100584000Y-39618300D01*
G75*
G02*
X100834000Y-39368300I250000J0D01*
G01*
G37*
D13*
X75293300Y-42529700D03*
D14*
X75293300Y-39989700D03*
D13*
X75293300Y-48514000D03*
D14*
X75293300Y-45974000D03*
D11*
X44890000Y-50800000D03*
D10*
X44890000Y-45720000D03*
D26*
X51978600Y-50038000D03*
D27*
X51978600Y-39878000D03*
D13*
X151292000Y-63448700D03*
D14*
X151292000Y-65988700D03*
D13*
X146502000Y-63538700D03*
D14*
X146502000Y-66078700D03*
D13*
X138076000Y-63535100D03*
D14*
X138076000Y-66075100D03*
D13*
X133182000Y-63571100D03*
D14*
X133182000Y-66111100D03*
D16*
X173251000Y-111397160D03*
X173251000Y-118996840D03*
M02*
