M48
; DRILL file {KiCad (6.0.5)} date Fri May 13 18:44:40 2022
; FORMAT={-:-/ absolute / inch / decimal}
; #@! TF.CreationDate,2022-05-13T18:44:40+02:00
; #@! TF.GenerationSoftware,Kicad,Pcbnew,(6.0.5)
; #@! TF.FileFunction,Plated,1,2,PTH
FMAT,2
INCH
; #@! TA.AperFunction,Plated,PTH,ViaDrill
T1C0.0250
; #@! TA.AperFunction,Plated,PTH,ComponentDrill
T2C0.0300
; #@! TA.AperFunction,Plated,PTH,ComponentDrill
T3C0.0315
; #@! TA.AperFunction,Plated,PTH,ComponentDrill
T4C0.0374
; #@! TA.AperFunction,Plated,PTH,ComponentDrill
T5C0.0394
; #@! TA.AperFunction,Plated,PTH,ComponentDrill
T6C0.0394
; #@! TA.AperFunction,Plated,PTH,ComponentDrill
T7C0.0433
; #@! TA.AperFunction,Plated,PTH,ComponentDrill
T8C0.0591
; #@! TA.AperFunction,Plated,PTH,ComponentDrill
T9C0.0598
; #@! TA.AperFunction,Plated,PTH,ComponentDrill
T10C0.1260
%
G90
G05
T1
X2.0742Y-3.8452
X2.1221Y-3.7882
X2.5132Y-2.8507
X2.7038Y-3.2821
X2.7469Y-3.3282
X2.7813Y-3.454
X2.7831Y-3.578
X2.9589Y-3.6264
X2.9646Y-4.6254
X3.6846Y-4.5031
X3.7112Y-2.2316
X3.8277Y-4.5363
X4.658Y-2.9951
X6.1848Y-3.5004
T2
X2.0959Y-2.2552
X2.0959Y-2.3552
X2.0959Y-2.4552
X2.0959Y-2.5552
X2.0959Y-2.6552
X2.0959Y-2.7552
X2.0959Y-2.8552
X2.0959Y-2.9552
T3
X2.3435Y-1.805
X2.3435Y-1.905
X2.3471Y-1.5529
X2.3471Y-1.6529
X2.3797Y-3.9588
X2.3797Y-4.0376
X2.4584Y-3.9588
X2.4584Y-4.0376
X2.5337Y-4.5195
X2.5372Y-3.9588
X2.5372Y-4.0376
X2.6337Y-4.5195
X2.9643Y-1.5744
X2.9643Y-1.6744
X2.9643Y-1.81
X2.9643Y-1.91
X3.1583Y-3.4191
X3.1583Y-3.5191
X3.1583Y-3.6191
X3.1583Y-3.7191
X3.1583Y-3.8191
X3.1583Y-3.9191
X3.1583Y-4.0191
X3.1583Y-4.1191
X3.1583Y-4.2191
X3.1583Y-4.3191
X3.1583Y-4.4191
X3.1583Y-4.5191
X3.1583Y-4.6191
X3.1583Y-4.7191
X3.1583Y-4.8191
X4.1583Y-3.4191
X4.1583Y-3.5191
X4.1583Y-3.6191
X4.1583Y-3.7191
X4.1583Y-3.8191
X4.1583Y-3.9191
X4.1583Y-4.0191
X4.1583Y-4.1191
X4.1583Y-4.2191
X4.1583Y-4.3191
X4.1583Y-4.4191
X4.1583Y-4.5191
X4.1583Y-4.6191
X4.1583Y-4.7191
X4.1583Y-4.8191
X5.161Y-4.6541
X5.2434Y-2.5028
X5.2434Y-2.6028
X5.261Y-4.6541
X5.406Y-4.6541
X5.4361Y-2.5014
X5.4361Y-2.6014
X5.506Y-4.6541
X5.7678Y-2.5015
X5.7678Y-2.6015
X5.9564Y-2.498
X5.9564Y-2.598
X6.2536Y-2.2719
X6.2536Y-2.4733
X6.2662Y-4.0725
X6.2694Y-3.8783
X6.3126Y-4.8822
X6.3126Y-5.1299
X6.3536Y-2.2719
X6.3536Y-2.4733
X6.3662Y-4.0725
X6.3694Y-3.8783
X6.4126Y-4.8822
X6.4126Y-5.1299
X6.5692Y-4.8822
X6.5692Y-5.1299
X6.6692Y-4.8822
X6.6692Y-5.1299
T4
X1.7048Y-3.556
X1.7048Y-3.6544
X1.7048Y-3.7528
X1.7048Y-3.8513
X1.7048Y-3.9497
X1.7048Y-4.0481
X2.1076Y-5.0318
X2.206Y-5.0318
X2.3044Y-5.0318
X2.4029Y-5.0318
X2.5013Y-5.0318
X2.6518Y-1.5685
X2.6518Y-1.6669
X2.6518Y-1.7654
X2.6518Y-1.8638
X3.2125Y-2.313
X3.2125Y-2.4114
X3.2125Y-2.5098
X3.2125Y-2.6083
X3.2125Y-2.7067
X3.2443Y-1.5634
X3.2443Y-1.6618
X3.2443Y-1.7602
X3.2443Y-1.8587
X3.6537Y-1.5634
X3.6537Y-1.6618
X3.6537Y-1.7602
X3.6537Y-1.8587
X3.6944Y-2.3247
X3.6944Y-2.4231
X3.6944Y-2.5216
X3.6944Y-2.62
X3.6944Y-2.7184
X4.0128Y-1.5602
X4.0128Y-1.6587
X4.0128Y-1.7571
X4.0128Y-1.8555
X4.477Y-1.5618
X4.477Y-1.6602
X4.477Y-1.7587
X4.477Y-1.8571
X4.4963Y-4.5919
X4.4963Y-4.9919
X4.551Y-4.2419
X4.5947Y-4.5919
X4.5947Y-4.9919
X4.6494Y-4.2419
X4.6931Y-4.5919
X4.6931Y-4.9919
X4.7479Y-4.2419
X4.7916Y-4.5919
X4.7916Y-4.9919
X4.8463Y-4.2419
X4.89Y-4.5919
X4.89Y-4.9919
X4.9299Y-1.5602
X4.9299Y-1.6587
X4.9299Y-1.7571
X4.9299Y-1.8555
X5.1122Y-3.7303
X5.1994Y-4.9919
X5.201Y-4.2419
X5.2106Y-3.7303
X5.2445Y-2.2137
X5.2979Y-4.9919
X5.2994Y-4.2419
X5.3091Y-3.7303
X5.343Y-2.2137
X5.3963Y-4.9919
X5.3979Y-4.2419
X5.4388Y-1.5995
X5.4414Y-2.2137
X5.4947Y-4.9919
X5.4963Y-4.2419
X5.5372Y-1.5995
X5.5936Y-3.7308
X5.6357Y-1.5995
X5.692Y-3.7308
X5.7341Y-1.5995
X5.7572Y-2.2137
X5.7905Y-3.7308
X5.7963Y-4.5419
X5.7979Y-4.9919
X5.8557Y-2.2137
X5.8889Y-3.7308
X5.8947Y-4.5419
X5.8963Y-4.9919
X5.9541Y-2.2137
X5.9931Y-4.5419
X5.9947Y-4.9919
X6.07Y-1.6031
X6.1685Y-1.6031
X6.2669Y-1.6031
X6.2815Y-2.747
X6.2815Y-2.8454
X6.2815Y-2.9439
X6.2815Y-3.0423
X6.3203Y-3.3245
X6.3203Y-3.4229
X6.3203Y-3.5213
X6.3203Y-3.6198
X6.8798Y-2.2519
X6.8798Y-2.3503
X6.8798Y-2.4488
X6.8798Y-2.5472
X6.8798Y-2.6456
X6.8877Y-2.954
X6.8877Y-3.0524
X6.8877Y-3.1509
X6.8877Y-3.2493
X6.8877Y-3.3477
X6.8888Y-3.6626
X6.8888Y-3.761
X6.8888Y-3.8594
X6.8888Y-3.9579
X6.8888Y-4.0563
T5
X1.6994Y-4.7273
X1.6994Y-4.8257
X1.705Y-4.3407
X1.705Y-4.4391
X1.7086Y-3.1802
X1.7086Y-3.2786
X6.4023Y-1.9285
X6.5023Y-1.9285
X6.6023Y-1.9285
X6.7788Y-1.9285
X6.8788Y-1.9285
X6.9788Y-1.9285
T6
X6.8209Y-4.3857
X6.8209Y-4.6849
T7
X2.0464Y-1.57
X2.0464Y-1.97
X2.2837Y-2.2482
X2.2837Y-2.3482
X2.2837Y-2.4482
X2.2837Y-2.5482
X2.2837Y-2.6482
X2.2837Y-2.7482
X2.2837Y-2.8482
X2.2837Y-2.9482
X2.2837Y-3.0482
X2.2837Y-3.1482
X2.2837Y-3.2482
X2.2837Y-3.3482
X2.2837Y-3.4482
X2.2837Y-3.5482
X2.2837Y-3.6482
X2.2837Y-3.7482
X2.2837Y-3.8482
X2.2837Y-3.9482
X2.2837Y-4.0482
X2.2837Y-4.1482
X2.2837Y-4.2482
X2.2837Y-4.3482
X2.2837Y-4.4482
X2.2837Y-4.5482
X2.3837Y-2.7482
X2.3837Y-4.4482
X2.4837Y-2.7482
X2.5837Y-2.7482
X2.6837Y-2.7482
X2.7636Y-3.9002
X2.7636Y-4.0002
X2.7636Y-4.1002
X2.7636Y-4.2002
X2.7636Y-4.3002
X2.7837Y-2.7482
X2.8837Y-2.2482
X2.8837Y-2.3482
X2.8837Y-2.4482
X2.8837Y-2.5482
X2.8837Y-2.6482
X2.8837Y-2.7482
X2.8837Y-2.8482
X2.8837Y-2.9482
X2.8837Y-3.0482
X2.8837Y-3.1482
X2.8837Y-3.2482
X2.8837Y-3.3482
X2.8837Y-3.4482
X2.8837Y-3.5482
X2.8837Y-3.6482
X2.8837Y-3.7482
X2.8837Y-3.8482
X2.8837Y-3.9482
X2.8837Y-4.0482
X2.8837Y-4.1482
X2.8837Y-4.2482
X2.8837Y-4.3482
X2.8837Y-4.4482
X2.8837Y-4.5482
T8
X4.5652Y-2.4267
X4.5652Y-3.2334
T9
X1.7673Y-1.8
X1.7673Y-2.0
T10
X1.6929Y-1.4961
X1.6929Y-5.1181
X6.9291Y-1.4961
X6.9291Y-5.1181
T0
M30
