%TF.GenerationSoftware,KiCad,Pcbnew,(6.0.5)*%
%TF.CreationDate,2022-06-17T21:53:16+02:00*%
%TF.ProjectId,Teensy_MainPCB,5465656e-7379-45f4-9d61-696e5043422e,rev?*%
%TF.SameCoordinates,Original*%
%TF.FileFunction,Soldermask,Top*%
%TF.FilePolarity,Negative*%
%FSLAX46Y46*%
G04 Gerber Fmt 4.6, Leading zero omitted, Abs format (unit mm)*
G04 Created by KiCad (PCBNEW (6.0.5)) date 2022-06-17 21:53:16*
%MOMM*%
%LPD*%
G01*
G04 APERTURE LIST*
G04 Aperture macros list*
%AMRoundRect*
0 Rectangle with rounded corners*
0 $1 Rounding radius*
0 $2 $3 $4 $5 $6 $7 $8 $9 X,Y pos of 4 corners*
0 Add a 4 corners polygon primitive as box body*
4,1,4,$2,$3,$4,$5,$6,$7,$8,$9,$2,$3,0*
0 Add four circle primitives for the rounded corners*
1,1,$1+$1,$2,$3*
1,1,$1+$1,$4,$5*
1,1,$1+$1,$6,$7*
1,1,$1+$1,$8,$9*
0 Add four rect primitives between the rounded corners*
20,1,$1+$1,$2,$3,$4,$5,0*
20,1,$1+$1,$4,$5,$6,$7,0*
20,1,$1+$1,$6,$7,$8,$9,0*
20,1,$1+$1,$8,$9,$2,$3,0*%
G04 Aperture macros list end*
%ADD10RoundRect,0.250000X-0.725000X0.600000X-0.725000X-0.600000X0.725000X-0.600000X0.725000X0.600000X0*%
%ADD11O,1.950000X1.700000*%
%ADD12RoundRect,0.250000X0.600000X0.725000X-0.600000X0.725000X-0.600000X-0.725000X0.600000X-0.725000X0*%
%ADD13O,1.700000X1.950000*%
%ADD14RoundRect,0.250000X0.725000X-0.600000X0.725000X0.600000X-0.725000X0.600000X-0.725000X-0.600000X0*%
%ADD15C,1.600000*%
%ADD16O,1.600000X1.600000*%
%ADD17C,2.000000*%
%ADD18RoundRect,0.250000X-0.600000X-0.725000X0.600000X-0.725000X0.600000X0.725000X-0.600000X0.725000X0*%
%ADD19C,6.400000*%
%ADD20C,3.600000*%
%ADD21R,3.000000X3.000000*%
%ADD22C,3.000000*%
%ADD23O,2.268000X1.524000*%
%ADD24RoundRect,0.250000X0.750000X-0.600000X0.750000X0.600000X-0.750000X0.600000X-0.750000X-0.600000X0*%
%ADD25O,2.000000X1.700000*%
%ADD26R,1.600000X1.600000*%
%ADD27R,1.300000X1.300000*%
%ADD28C,1.300000*%
%ADD29O,2.200000X2.200000*%
%ADD30R,2.200000X2.200000*%
%ADD31R,1.700000X1.700000*%
%ADD32O,1.700000X1.700000*%
G04 APERTURE END LIST*
D10*
X102515000Y-39790000D03*
D11*
X102515000Y-42290000D03*
X102515000Y-44790000D03*
X102515000Y-47290000D03*
D10*
X138160000Y-39660000D03*
D11*
X138160000Y-42160000D03*
X138160000Y-44660000D03*
X138160000Y-47160000D03*
D10*
X129825000Y-39620000D03*
D11*
X129825000Y-42120000D03*
X129825000Y-44620000D03*
X129825000Y-47120000D03*
D12*
X114089800Y-60828700D03*
D13*
X111589800Y-60828700D03*
X109089800Y-60828700D03*
D12*
X125950000Y-60850000D03*
D13*
X123450000Y-60850000D03*
X120950000Y-60850000D03*
D10*
X63450000Y-39780000D03*
D11*
X63450000Y-42280000D03*
X63450000Y-44780000D03*
X63450000Y-47280000D03*
D10*
X81820000Y-39750000D03*
D11*
X81820000Y-42250000D03*
X81820000Y-44750000D03*
X81820000Y-47250000D03*
D14*
X43535000Y-103300000D03*
D11*
X43535000Y-100800000D03*
X43535000Y-98300000D03*
X43535000Y-95800000D03*
X43535000Y-93300000D03*
X43535000Y-90800000D03*
D15*
X142850000Y-72515000D03*
D16*
X142850000Y-69975000D03*
D15*
X158380000Y-72560000D03*
D16*
X158380000Y-70020000D03*
D15*
X108950000Y-71395000D03*
D16*
X108950000Y-68855000D03*
D15*
X120910000Y-71405000D03*
D16*
X120910000Y-68865000D03*
D17*
X166340000Y-44159840D03*
X166340000Y-36560160D03*
D18*
X53950000Y-128075000D03*
D13*
X56450000Y-128075000D03*
X58950000Y-128075000D03*
X61450000Y-128075000D03*
X63950000Y-128075000D03*
D18*
X137945000Y-126270000D03*
D13*
X140445000Y-126270000D03*
X142945000Y-126270000D03*
X145445000Y-126270000D03*
D15*
X153960000Y-70500000D03*
D16*
X153960000Y-73040000D03*
D15*
X126320000Y-71435000D03*
D16*
X126320000Y-68895000D03*
D19*
X43010000Y-37940000D03*
D20*
X43010000Y-37940000D03*
D19*
X176000000Y-38000000D03*
D20*
X176000000Y-38000000D03*
X176000000Y-130000000D03*
D19*
X176000000Y-130000000D03*
X43000000Y-130000000D03*
D20*
X43000000Y-130000000D03*
D10*
X174075000Y-56900000D03*
D11*
X174075000Y-59400000D03*
X174075000Y-61900000D03*
X174075000Y-64400000D03*
X174075000Y-66900000D03*
X174075000Y-69400000D03*
D17*
X85200000Y-87080000D03*
X85200000Y-89620000D03*
X85200000Y-92160000D03*
X85200000Y-94700000D03*
X85200000Y-97240000D03*
X85200000Y-99780000D03*
X85200000Y-102320000D03*
X85200000Y-104860000D03*
X85200000Y-107400000D03*
X85200000Y-109940000D03*
X85200000Y-112480000D03*
X85200000Y-115020000D03*
X85200000Y-117560000D03*
X85200000Y-120100000D03*
X85200000Y-122640000D03*
X110600000Y-122640000D03*
X110600000Y-120100000D03*
X110600000Y-117560000D03*
X110600000Y-115020000D03*
X110600000Y-112480000D03*
X110600000Y-109940000D03*
X110600000Y-107400000D03*
X110600000Y-104860000D03*
X110600000Y-102320000D03*
X110600000Y-99780000D03*
X110600000Y-97240000D03*
X110600000Y-94700000D03*
X110600000Y-92160000D03*
X110600000Y-89620000D03*
X110600000Y-87080000D03*
D21*
X44550000Y-45440000D03*
D22*
X44550000Y-50520000D03*
D12*
X142830000Y-60855000D03*
D13*
X140330000Y-60855000D03*
X137830000Y-60855000D03*
X135330000Y-60855000D03*
D12*
X158370000Y-60850000D03*
D13*
X155870000Y-60850000D03*
X153370000Y-60850000D03*
X150870000Y-60850000D03*
D10*
X114855000Y-39800000D03*
D11*
X114855000Y-42300000D03*
X114855000Y-44800000D03*
X114855000Y-47300000D03*
D15*
X57665000Y-45980000D03*
D16*
X55125000Y-45980000D03*
D15*
X75795000Y-47030000D03*
D16*
X73255000Y-47030000D03*
X51130000Y-50600000D03*
D15*
X51130000Y-53140000D03*
X75865000Y-39270000D03*
D16*
X73325000Y-39270000D03*
D15*
X138640000Y-70420000D03*
D16*
X138640000Y-72960000D03*
D15*
X114350000Y-71445000D03*
D16*
X114350000Y-68905000D03*
D23*
X53235900Y-75062100D03*
X53235900Y-72522100D03*
X53235900Y-69982100D03*
X53235900Y-67442100D03*
X53235900Y-64902100D03*
X53235900Y-62362100D03*
X53235900Y-59822100D03*
X53235900Y-57282100D03*
D10*
X151575000Y-39630000D03*
D11*
X151575000Y-42130000D03*
X151575000Y-44630000D03*
D24*
X43510000Y-83190000D03*
D25*
X43510000Y-80690000D03*
D21*
X118807600Y-87490000D03*
D22*
X139297600Y-87490000D03*
D18*
X150670000Y-93285000D03*
D13*
X153170000Y-93285000D03*
X155670000Y-93285000D03*
D18*
X119845000Y-126265000D03*
D13*
X122345000Y-126265000D03*
X124845000Y-126265000D03*
X127345000Y-126265000D03*
X129845000Y-126265000D03*
D18*
X152455000Y-112615000D03*
D13*
X154955000Y-112615000D03*
X157455000Y-112615000D03*
D24*
X43565000Y-112880000D03*
D25*
X43565000Y-110380000D03*
D18*
X153035000Y-126325000D03*
D13*
X155535000Y-126325000D03*
X158035000Y-126325000D03*
D18*
X135915000Y-106525000D03*
D13*
X138415000Y-106525000D03*
X140915000Y-106525000D03*
X143415000Y-106525000D03*
D10*
X97430000Y-59910000D03*
D11*
X97430000Y-62410000D03*
X97430000Y-64910000D03*
X97430000Y-67410000D03*
X97430000Y-69910000D03*
D10*
X173820000Y-100120000D03*
D11*
X173820000Y-102620000D03*
X173820000Y-105120000D03*
X173820000Y-107620000D03*
X173820000Y-110120000D03*
X173820000Y-112620000D03*
D15*
X158695000Y-106625000D03*
D16*
X156155000Y-106625000D03*
D15*
X149485000Y-121540000D03*
D16*
X146945000Y-121540000D03*
D10*
X173920000Y-78270000D03*
D11*
X173920000Y-80770000D03*
X173920000Y-83270000D03*
X173920000Y-85770000D03*
X173920000Y-88270000D03*
X173920000Y-90770000D03*
D18*
X119735000Y-106565000D03*
D13*
X122235000Y-106565000D03*
X124735000Y-106565000D03*
X127235000Y-106565000D03*
D15*
X152775000Y-106655000D03*
D16*
X150235000Y-106655000D03*
D15*
X155470000Y-121600000D03*
D16*
X158010000Y-121600000D03*
D15*
X143650000Y-120210000D03*
D16*
X141110000Y-120210000D03*
D15*
X137910000Y-120270000D03*
D16*
X135370000Y-120270000D03*
D26*
X76570000Y-116945000D03*
D15*
X76570000Y-114405000D03*
X76570000Y-111865000D03*
X76570000Y-109325000D03*
X76570000Y-106785000D03*
X76570000Y-104245000D03*
X76570000Y-101705000D03*
X76570000Y-99165000D03*
X76570000Y-96625000D03*
X76570000Y-94085000D03*
X76570000Y-91545000D03*
X76570000Y-89005000D03*
X76570000Y-86465000D03*
X76570000Y-83925000D03*
X76570000Y-81385000D03*
X76570000Y-78845000D03*
X76570000Y-76305000D03*
X76570000Y-73765000D03*
X76570000Y-71225000D03*
X76570000Y-68685000D03*
X76570000Y-66145000D03*
X76570000Y-63605000D03*
X76570000Y-61065000D03*
X76570000Y-58525000D03*
X61330000Y-58525000D03*
X61330000Y-61065000D03*
X61330000Y-63605000D03*
X61330000Y-66145000D03*
X61330000Y-68685000D03*
X61330000Y-71225000D03*
X61330000Y-73765000D03*
X61330000Y-76305000D03*
X61330000Y-78845000D03*
X61330000Y-81385000D03*
X61330000Y-83925000D03*
X61330000Y-86465000D03*
X61330000Y-89005000D03*
X61330000Y-91545000D03*
X61330000Y-94085000D03*
X61330000Y-96625000D03*
X61330000Y-99165000D03*
X61330000Y-101705000D03*
X61330000Y-104245000D03*
X61330000Y-106785000D03*
X61330000Y-109325000D03*
X61330000Y-111865000D03*
X61330000Y-114405000D03*
X61330000Y-116945000D03*
X63870000Y-114405000D03*
X74030000Y-71225000D03*
X71490000Y-71225000D03*
X68950000Y-71225000D03*
X66410000Y-71225000D03*
X63870000Y-71225000D03*
D26*
X73519200Y-110645800D03*
D15*
X73519200Y-108105800D03*
X73519200Y-105565800D03*
X73519200Y-103025800D03*
X73519200Y-100485800D03*
D27*
X63768400Y-103975000D03*
D28*
X65768400Y-103975000D03*
X67768400Y-103975000D03*
X67768400Y-101975000D03*
X65768400Y-101975000D03*
X63768400Y-101975000D03*
X67680000Y-116215000D03*
X70220000Y-116215000D03*
D29*
X51130000Y-36950000D03*
D30*
X51130000Y-47110000D03*
D10*
X94180000Y-39780000D03*
D11*
X94180000Y-42280000D03*
X94180000Y-44780000D03*
X94180000Y-47280000D03*
D15*
X55455000Y-38780000D03*
D16*
X57995000Y-38780000D03*
D31*
X171020000Y-121700000D03*
D32*
X173560000Y-121700000D03*
X176100000Y-121700000D03*
D31*
X171567000Y-48952500D03*
D32*
X174107000Y-48952500D03*
X176647000Y-48952500D03*
D10*
X85095000Y-59930000D03*
D11*
X85095000Y-62430000D03*
X85095000Y-64930000D03*
X85095000Y-67430000D03*
X85095000Y-69930000D03*
D18*
X119695000Y-117070000D03*
D13*
X122195000Y-117070000D03*
X124695000Y-117070000D03*
X127195000Y-117070000D03*
X129695000Y-117070000D03*
D24*
X43470000Y-122440000D03*
D25*
X43470000Y-119940000D03*
D26*
X53470000Y-119200000D03*
D15*
X53470000Y-115400000D03*
M02*
