M48
; DRILL file {KiCad (5.1.12-5-g2758acfd42)-1} date 03/05/22 16:45:03
; FORMAT={-:-/ absolute / inch / decimal}
; #@! TF.CreationDate,2022-03-05T16:45:03+01:00
; #@! TF.GenerationSoftware,Kicad,Pcbnew,(5.1.12-5-g2758acfd42)-1
; #@! TF.FileFunction,Plated,1,2,PTH
FMAT,2
INCH
T1C0.0250
T2C0.0300
T3C0.0315
T4C0.0374
T5C0.0394
T6C0.0394
T7C0.0433
T8C0.0591
T9C0.0598
T10C0.1260
%
G90
G05
T1
X1.596Y-3.7528
X1.6031Y-3.694
X2.0071Y-2.2225
X2.6785Y-3.4364
X2.6853Y-3.8216
X2.7051Y-3.6501
X2.726Y-2.9237
X2.7389Y-1.6108
X3.0803Y-2.6017
X3.1863Y-2.8847
X3.3479Y-2.9705
X3.3543Y-2.9181
X3.3608Y-3.1003
X3.4163Y-4.6501
X3.6784Y-4.6176
X3.8038Y-3.003
X3.8612Y-3.055
X3.9341Y-3.1076
X4.1333Y-1.8295
X4.2253Y-3.4458
X4.6794Y-3.8451
X5.0917Y-3.6657
T2
X2.0959Y-2.2552
X2.0959Y-2.3552
X2.0959Y-2.4552
X2.0959Y-2.5552
X2.0959Y-2.6552
X2.0959Y-2.7552
X2.0959Y-2.8552
X2.0959Y-2.9552
T3
X2.3435Y-1.805
X2.3435Y-1.905
X2.3471Y-1.5529
X2.3471Y-1.6529
X2.3797Y-3.9588
X2.3797Y-4.0376
X2.4584Y-3.9588
X2.4584Y-4.0376
X2.5337Y-4.5195
X2.5372Y-3.9588
X2.5372Y-4.0376
X2.6337Y-4.5195
X2.9643Y-1.5744
X2.9643Y-1.6744
X2.9643Y-1.81
X2.9643Y-1.91
X3.1583Y-3.4191
X3.1583Y-3.5191
X3.1583Y-3.6191
X3.1583Y-3.7191
X3.1583Y-3.8191
X3.1583Y-3.9191
X3.1583Y-4.0191
X3.1583Y-4.1191
X3.1583Y-4.2191
X3.1583Y-4.3191
X3.1583Y-4.4191
X3.1583Y-4.5191
X3.1583Y-4.6191
X3.1583Y-4.7191
X3.1583Y-4.8191
X4.1583Y-3.4191
X4.1583Y-3.5191
X4.1583Y-3.6191
X4.1583Y-3.7191
X4.1583Y-3.8191
X4.1583Y-3.9191
X4.1583Y-4.0191
X4.1583Y-4.1191
X4.1583Y-4.2191
X4.1583Y-4.3191
X4.1583Y-4.4191
X4.1583Y-4.5191
X4.1583Y-4.6191
X4.1583Y-4.7191
X4.1583Y-4.8191
X5.161Y-4.6541
X5.2434Y-2.5028
X5.2434Y-2.6028
X5.261Y-4.6541
X5.406Y-4.6541
X5.4361Y-2.5014
X5.4361Y-2.6014
X5.506Y-4.6541
X5.7678Y-2.5015
X5.7678Y-2.6015
X5.9564Y-2.498
X5.9564Y-2.598
X6.2536Y-2.2719
X6.2536Y-2.4733
X6.2662Y-4.0725
X6.2694Y-3.8783
X6.3126Y-4.8822
X6.3126Y-5.1299
X6.3536Y-2.2719
X6.3536Y-2.4733
X6.3662Y-4.0725
X6.3694Y-3.8783
X6.4126Y-4.8822
X6.4126Y-5.1299
X6.5692Y-4.8822
X6.5692Y-5.1299
X6.6692Y-4.8822
X6.6692Y-5.1299
T4
X1.7048Y-3.556
X1.7048Y-3.6544
X1.7048Y-3.7528
X1.7048Y-3.8513
X1.7048Y-3.9497
X1.7048Y-4.0481
X2.1076Y-5.0318
X2.206Y-5.0318
X2.3044Y-5.0318
X2.4029Y-5.0318
X2.5013Y-5.0318
X2.6434Y-1.581
X2.6434Y-1.6794
X2.6434Y-1.7779
X2.6434Y-1.8763
X3.2125Y-2.313
X3.2125Y-2.4114
X3.2125Y-2.5098
X3.2125Y-2.6083
X3.2125Y-2.7067
X3.2477Y-1.5848
X3.2477Y-1.6832
X3.2477Y-1.7816
X3.2477Y-1.8801
X3.6539Y-1.5852
X3.6539Y-1.6836
X3.6539Y-1.7821
X3.6539Y-1.8805
X3.6944Y-2.3247
X3.6944Y-2.4231
X3.6944Y-2.5216
X3.6944Y-2.62
X3.6944Y-2.7184
X3.9984Y-1.5834
X3.9984Y-1.6818
X3.9984Y-1.7802
X3.9984Y-1.8787
X4.4806Y-1.5877
X4.4806Y-1.6861
X4.4806Y-1.7845
X4.4806Y-1.883
X4.4963Y-4.5919
X4.4963Y-4.9919
X4.551Y-4.2419
X4.5947Y-4.5919
X4.5947Y-4.9919
X4.6494Y-4.2419
X4.6931Y-4.5919
X4.6931Y-4.9919
X4.7479Y-4.2419
X4.7916Y-4.5919
X4.7916Y-4.9919
X4.8463Y-4.2419
X4.8669Y-1.5912
X4.8669Y-1.6896
X4.8669Y-1.7881
X4.8669Y-1.8865
X4.89Y-4.5919
X4.89Y-4.9919
X5.1137Y-3.7333
X5.1994Y-4.9919
X5.201Y-4.2419
X5.2121Y-3.7333
X5.2445Y-2.2137
X5.2979Y-4.9919
X5.2994Y-4.2419
X5.3105Y-3.7333
X5.343Y-2.2137
X5.3963Y-4.9919
X5.3979Y-4.2419
X5.4388Y-1.5995
X5.4414Y-2.2137
X5.4947Y-4.9919
X5.4963Y-4.2419
X5.5372Y-1.5995
X5.5936Y-3.7308
X5.6357Y-1.5995
X5.692Y-3.7308
X5.7341Y-1.5995
X5.7572Y-2.2137
X5.7905Y-3.7308
X5.7963Y-4.5419
X5.7979Y-4.9919
X5.8557Y-2.2137
X5.8889Y-3.7308
X5.8947Y-4.5419
X5.8963Y-4.9919
X5.9541Y-2.2137
X5.9931Y-4.5419
X5.9947Y-4.9919
X6.07Y-1.6031
X6.1685Y-1.6031
X6.2669Y-1.6031
X6.2815Y-2.747
X6.2815Y-2.8454
X6.2815Y-2.9439
X6.2815Y-3.0423
X6.3203Y-3.3245
X6.3203Y-3.4229
X6.3203Y-3.5213
X6.3203Y-3.6198
X6.8798Y-2.2519
X6.8798Y-2.3503
X6.8798Y-2.4488
X6.8798Y-2.5472
X6.8798Y-2.6456
X6.8877Y-2.954
X6.8877Y-3.0524
X6.8877Y-3.1509
X6.8877Y-3.2493
X6.8877Y-3.3477
X6.8888Y-3.6626
X6.8888Y-3.761
X6.8888Y-3.8594
X6.8888Y-3.9579
X6.8888Y-4.0563
T5
X1.6994Y-4.7273
X1.6994Y-4.8257
X1.705Y-4.3407
X1.705Y-4.4391
X1.7086Y-3.1802
X1.7086Y-3.2786
X6.4023Y-1.9285
X6.5023Y-1.9285
X6.6023Y-1.9285
X6.7788Y-1.9285
X6.8788Y-1.9285
X6.9788Y-1.9285
T6
X6.8209Y-4.3857
X6.8209Y-4.6849
T7
X2.0464Y-1.57
X2.0464Y-1.97
X2.2837Y-2.2482
X2.2837Y-2.3482
X2.2837Y-2.4482
X2.2837Y-2.5482
X2.2837Y-2.6482
X2.2837Y-2.7482
X2.2837Y-2.8482
X2.2837Y-2.9482
X2.2837Y-3.0482
X2.2837Y-3.1482
X2.2837Y-3.2482
X2.2837Y-3.3482
X2.2837Y-3.4482
X2.2837Y-3.5482
X2.2837Y-3.6482
X2.2837Y-3.7482
X2.2837Y-3.8482
X2.2837Y-3.9482
X2.2837Y-4.0482
X2.2837Y-4.1482
X2.2837Y-4.2482
X2.2837Y-4.3482
X2.2837Y-4.4482
X2.2837Y-4.5482
X2.3837Y-2.7482
X2.3837Y-4.4482
X2.4837Y-2.7482
X2.5837Y-2.7482
X2.6837Y-2.7482
X2.7636Y-3.9002
X2.7636Y-4.0002
X2.7636Y-4.1002
X2.7636Y-4.2002
X2.7636Y-4.3002
X2.7837Y-2.7482
X2.8837Y-2.2482
X2.8837Y-2.3482
X2.8837Y-2.4482
X2.8837Y-2.5482
X2.8837Y-2.6482
X2.8837Y-2.7482
X2.8837Y-2.8482
X2.8837Y-2.9482
X2.8837Y-3.0482
X2.8837Y-3.1482
X2.8837Y-3.2482
X2.8837Y-3.3482
X2.8837Y-3.4482
X2.8837Y-3.5482
X2.8837Y-3.6482
X2.8837Y-3.7482
X2.8837Y-3.8482
X2.8837Y-3.9482
X2.8837Y-4.0482
X2.8837Y-4.1482
X2.8837Y-4.2482
X2.8837Y-4.3482
X2.8837Y-4.4482
X2.8837Y-4.5482
T8
X4.5652Y-2.4267
X4.5652Y-3.2334
T9
X1.7673Y-1.8
X1.7673Y-2.0
T10
X1.6929Y-1.4961
X1.6929Y-5.1181
X6.9291Y-1.4961
X6.9291Y-5.1181
T0
M30
